<?xml version="1.0" encoding="UTF-8"?>
<svg width="612px" height="215px" viewBox="0 0 612 215" version="1.1" xmlns="http://www.w3.org/2000/svg" xmlns:xlink="http://www.w3.org/1999/xlink">
    <!-- Generator: Sketch 49 (51002) - http://www.bohemiancoding.com/sketch -->
    <title>samsara-white</title>
    <desc>Created with Sketch.</desc>
    <defs></defs>
    <g id="Page-1" stroke="none" stroke-width="1" fill="none" fill-rule="evenodd">
        <g id="samsara-white" fill="#FFFFFF" fill-rule="nonzero">
            <g id="Group">
                <path d="M74.4,0.9 C33.4,0.9 0,34.3 0,75.3 L0,139.9 C0,180.9 33.4,214.3 74.4,214.3 C115.7,214.3 148.8,180.9 148.8,139.9 L148.8,75.3 C149,34.2 115.7,0.9 74.4,0.9 Z M20.5,154.2 C20.5,155.7 19.3,157.3 17.4,157.3 C15.6,157.3 14.3,156.1 14.3,154.2 L14.3,149.9 C14.3,148.4 15.5,146.8 17.4,146.8 C19.2,146.8 20.5,148 20.5,149.9 L20.5,154.2 Z M20.5,135.2 C20.5,136.7 19.3,138.3 17.4,138.3 C15.6,138.3 14.3,137.1 14.3,135.2 L14.3,130.9 C14.3,129.4 15.5,127.8 17.4,127.8 C19.2,127.8 20.5,129 20.5,130.9 L20.5,135.2 Z M39.5,183.2 C39.5,184.7 38.3,186.3 36.4,186.3 C34.9,186.3 33.3,185.1 33.3,183.2 L33.3,178.9 C33.3,177.4 34.5,175.8 36.4,175.8 C37.9,175.8 39.5,177 39.5,178.9 L39.5,183.2 Z M39.5,164.3 C39.5,165.8 38.3,167.4 36.4,167.4 C34.9,167.4 33.3,166.2 33.3,164.3 L33.3,160 C33.3,158.5 34.5,156.9 36.4,156.9 C37.9,156.9 39.5,158.1 39.5,160 L39.5,164.3 Z M58.4,192.4 C58.4,193.9 57.2,195.5 55.3,195.5 C53.5,195.5 52.2,194.3 52.2,192.4 L52.2,188.1 C52.2,186.6 53.4,185 55.3,185 C57.1,185 58.4,186.2 58.4,188.1 L58.4,192.4 Z M58.4,174.1 C58.4,175.6 57.2,177.2 55.3,177.2 C53.5,177.2 52.2,176 52.2,174.1 L52.2,168.9 C52.2,167.4 53.4,165.8 55.3,165.8 C57.1,165.8 58.4,167 58.4,168.9 L58.4,174.1 Z M77.4,181.7 C77.4,183.2 76.2,184.8 74.3,184.8 C72.8,184.8 71.2,183.6 71.2,181.7 L71.2,177.4 C71.2,175.9 72.4,174.3 74.3,174.3 C75.8,174.3 77.4,175.5 77.4,177.4 L77.4,181.7 Z M77.4,162.7 C77.4,164.2 76.2,165.8 74.3,165.8 C72.8,165.8 71.2,164.6 71.2,162.7 L71.2,158.4 C71.2,156.9 72.4,155.3 74.3,155.3 C75.8,155.3 77.4,156.5 77.4,158.4 L77.4,162.7 Z M96.4,192.4 C96.4,193.9 95.2,195.5 93.3,195.5 C91.8,195.5 90.2,194.3 90.2,192.4 L90.2,188.1 C90.2,186.6 91.4,185 93.3,185 C94.8,185 96.4,186.2 96.4,188.1 L96.4,192.4 Z M96.4,173.1 C96.4,174.6 95.2,176.2 93.3,176.2 C91.8,176.2 90.2,175 90.2,173.1 L90.2,169.1 C90.2,167.6 91.4,166 93.3,166 C94.8,166 96.4,167.2 96.4,169.1 L96.4,173.1 Z M115.7,181.7 C115.7,183.2 114.5,184.8 112.6,184.8 C110.8,184.8 109.5,183.6 109.5,181.7 L109.5,177.4 C109.5,175.9 110.7,174.3 112.6,174.3 C114.4,174.3 115.7,175.5 115.7,177.4 L115.7,181.7 Z M115.7,162.7 C115.7,164.2 114.5,165.8 112.6,165.8 C110.8,165.8 109.5,164.6 109.5,162.7 L109.5,158.4 C109.5,156.9 110.7,155.3 112.6,155.3 C114.4,155.3 115.7,156.5 115.7,158.4 L115.7,162.7 Z M134.6,154.2 C134.6,155.7 133.4,157.3 131.5,157.3 C129.6,157.3 128.4,156.1 128.4,154.2 L128.4,149.9 C128.4,148.4 129.6,146.8 131.5,146.8 C133.4,146.8 134.6,148 134.6,149.9 L134.6,154.2 Z M134.6,135.2 C134.6,136.7 133.4,138.3 131.5,138.3 C129.6,138.3 128.4,137.1 128.4,135.2 L128.4,130.9 C128.4,129.4 129.6,127.8 131.5,127.8 C133.4,127.8 134.6,129 134.6,130.9 L134.6,135.2 Z M77.1,143.5 C76.2,143.8 75.6,143.8 74.7,143.8 C73.8,143.8 73.2,143.8 72.3,143.5 C36.1,134.6 11,105.5 11,72.2 C11,41.6 33.3,15.9 59.7,15.9 C64.3,15.9 69.2,16.8 73.8,18.3 C74.4,18.6 75,18.6 75.6,18.3 C80.2,16.8 85.1,15.9 89.7,15.9 C116,15.9 138.4,41.6 138.4,72.2 C138,105.5 112.9,134.9 77.1,143.5 Z" id="Shape"></path>
                <path d="M89.4,22 C85.4,22 81.1,22.6 77.2,24.1 C75.4,24.7 73.2,24.7 71.4,24.1 C67.4,22.9 63.1,22 59.2,22 C36.2,22 16.7,45.3 16.7,72.5 C16.7,102.8 40,129.7 73.3,137.7 C73.9,138 74.8,138 75.4,137.7 C108.8,129.7 132,102.8 132,72.5 C132.2,45.2 112.6,22 89.4,22 Z M116.3,69.4 C114.5,73.4 111.7,76.7 108,79.2 C104.6,81.3 101.3,82.3 97.3,82.6 C95.8,82.6 94.2,81.4 94.2,79.8 C94.2,78.2 95.4,76.7 97,76.7 C99.8,76.7 102.5,75.8 104.6,74.3 C107.4,72.5 109.2,70.3 110.4,67.3 C111.3,65.5 111,63.6 110.1,61.8 C109.2,60.3 107.3,59 105.5,59 C101.5,58.7 98.2,59.9 95.4,62.7 C91.1,67 89.6,74.6 88.7,77.7 C88.1,80.8 79.8,115.6 78.3,122.7 C77.7,124.5 76.2,126.1 74.3,126.1 C72.2,126.1 70.6,124.9 70.3,122.7 C67.2,109.8 60.5,80.5 59.9,77.7 C59,74.3 57.5,67 53.2,62.7 C50.4,59.9 47.4,58.7 43.1,59 C41.3,59 39.4,60.2 38.5,61.8 C37.6,63.4 37.3,65.5 38.2,67.3 C39.4,70.4 41.6,72.5 44,74.3 C46.4,75.8 48.9,76.7 51.7,76.7 C53.2,76.7 54.8,78.2 54.5,79.8 C54.2,81.4 53,82.9 51.4,82.6 C47.4,82.3 44.1,81.4 40.7,79.2 C37,76.8 34.3,73.7 32.4,69.4 C30.9,65.7 31.2,61.8 33.3,58.4 C35.4,55 38.8,52.9 42.5,52.9 C48.3,52.6 53.2,54.4 57.2,58.4 C62.7,63.9 64.5,72.5 65.5,76.5 C66.1,78.9 71,100.1 74.4,114.1 C77.5,101.2 82.7,78.9 83.3,76.5 C84.2,72.8 86.1,64 91.6,58.4 C95.6,54.4 100.5,52.6 106.3,52.9 C110.3,53.2 113.6,55.3 115.5,58.4 C117.5,61.8 117.8,66 116.3,69.4 Z" id="Shape"></path>
            </g>
            <g id="Group" transform="translate(207.000000, 81.000000)">
                <path d="M23.7,21.5 C15.7,19.4 12.7,18.4 12.7,13.9 C12.7,10.8 15.8,8.4 20.7,8.4 C25.9,8.4 29,10.5 31.4,13.9 L37.5,8.7 C33.5,3.5 28.3,0.7 20.1,0.7 C10.3,0.7 3.6,6.2 3.6,14.8 C3.6,23.7 9.4,27.7 19.5,30.4 C28.4,32.8 31.7,34.7 31.7,39.3 C31.7,43.3 28,46 21.6,46 C14.9,46 10,42.9 6.9,38 L0.2,42.9 C4.8,49.9 12.1,54.2 21.6,54.2 C33.5,54.2 40.6,48.7 40.6,39.2 C41.2,28.5 34.4,23.9 23.7,21.5 Z" id="Shape"></path>
                <path d="M92.6,9.8 C88.9,3.7 83.1,0 74.9,0 C60.8,0 50.4,11.3 50.4,26.3 C50.4,41.3 61.1,52.6 74.9,52.6 C83.2,52.6 89,48.9 92.6,42.8 L92.6,51.4 L101.8,51.4 L101.8,1.2 L92.6,1.2 L92.6,9.8 Z M76.7,44.4 C66.9,44.4 60.2,37.1 60.2,26.3 C60.2,15.6 66.6,8.2 76.7,8.2 C86.5,8.2 92.9,15.5 92.9,26.3 C92.9,37.1 86.5,44.4 76.7,44.4 Z" id="Shape"></path>
                <path d="M174.3,0 C166.3,0 160.5,3.1 156.6,9.2 C153.5,3.1 148.3,0 141.6,0 C134.9,0 129.4,3.1 126.6,8 L126.6,1.3 L117.4,1.3 L117.4,51.5 L126.6,51.5 L126.6,22.7 C126.6,13.5 131.2,8.6 139.5,8.6 C146.5,8.6 150.2,12.9 150.2,20.8 L150.2,51.4 L159.4,51.4 L159.4,22.3 C159.4,13.4 164,8.2 172.3,8.2 C179.3,8.2 183,12.2 183,20.1 L183,51.3 L192.2,51.3 L192.2,19.2 C192.6,7.4 185,0 174.3,0 Z" id="Shape"></path>
                <path d="M226.3,21.5 C218.3,19.4 215.3,18.4 215.3,13.9 C215.3,10.8 218.4,8.4 223.3,8.4 C228.5,8.4 231.6,10.5 234,13.9 L240.1,8.7 C236.1,3.5 230.9,0.7 222.7,0.7 C212.9,0.7 206.2,6.2 206.2,14.8 C206.2,23.7 212,27.7 222.1,30.4 C231,32.8 234.3,34.7 234.3,39.3 C234.3,43.3 230.6,46 224.2,46 C217.5,46 212.6,42.9 209.5,38 L202.8,42.6 C207.4,49.6 214.7,53.9 224.2,53.9 C236.1,53.9 243.2,48.4 243.2,38.9 C243.4,28.5 237,23.9 226.3,21.5 Z" id="Shape"></path>
                <path d="M295.1,9.8 C291.4,3.7 285.6,0 277.4,0 C263.3,0 252.9,11.3 252.9,26.3 C252.9,41.3 263.6,52.6 277.4,52.6 C285.7,52.6 291.5,48.9 295.1,42.8 L295.1,51.4 L304.3,51.4 L304.3,1.2 L295.1,1.2 L295.1,9.8 Z M279.2,44.4 C269.4,44.4 262.7,37.1 262.7,26.3 C262.7,15.6 269.1,8.2 279.2,8.2 C289,8.2 295.4,15.5 295.4,26.3 C295.1,37.1 289,44.4 279.2,44.4 Z" id="Shape"></path>
                <path d="M395.8,1.3 L395.8,9.9 C392.1,3.8 386.3,0.1 378.1,0.1 C364,0.1 353.6,11.4 353.6,26.4 C353.6,41.4 364.3,52.7 378.1,52.7 C386.4,52.7 392.2,49 395.8,42.9 L395.8,51.5 L405,51.5 L405,1.3 L395.8,1.3 Z M379.9,44.4 C370.1,44.4 363.4,37.1 363.4,26.3 C363.4,15.6 369.8,8.2 379.9,8.2 C389.7,8.2 396.1,15.5 396.1,26.3 C395.8,37.1 389.4,44.4 379.9,44.4 Z" id="Shape"></path>
                <polygon id="Shape" points="343.5 0 329.1 12.9 329.1 1.3 319.9 1.3 319.9 51.7 329.1 51.7 329.1 25.4 349.9 7.1"></polygon>
            </g>
        </g>
    </g>
</svg>