<svg
  xmlns="http://www.w3.org/2000/svg"
  viewBox="0 0 117 117"
  fill="currentColor"
>
  <path
    d="m83.7265 74.571-2.6685-7.5833-3.514-9.9853-2.5421-7.2263-3.3278-9.4574-3.8659-10.9847H49.0573l-2.993 8.5059-2.6685 7.5834-13.2532 37.6622h12.367l3.8797-10.9933h18.7542l-3.3279-9.4574H49.7034l2.5419-7.2263 5.3095-15.0898.8778-2.4976.8777 2.4976 15.042 42.7581.0034.0087h12.3668l-2.996-8.5145Z"
  />
  <path
    d="M109.409 29.796c-.311-.551-.828-.956-1.437-1.1259-.61-.1698-1.262-.0907-1.813.2201-.551.3107-.956.8277-1.125 1.437-.17.6094-.091 1.2613.22 1.8123 6.325 11.2465 8.388 24.3948 5.811 37.038-2.577 12.6432-9.621 23.9354-19.8425 31.8095-10.2219 7.874-22.9378 11.804-35.82 11.069-12.8822-.735-25.0688-6.085-34.3289-15.0704C11.8134 88 6.09926 75.98 4.97706 63.1257 3.85485 50.2715 7.39971 37.4431 14.9627 26.9889 22.5257 16.5347 33.6009 9.154 46.1609 6.19799c12.5599-2.956 25.7644-1.28961 37.1961 4.69421a7.29819 7.29819 0 0 0 .6862 4.9721 7.2988 7.2988 0 0 0 3.7346 3.3533 7.2987 7.2987 0 0 0 8.9437-2.9775 7.29815 7.29815 0 0 0 .9795-4.9227 7.29865 7.29865 0 0 0-7.1227-6.17429 7.29914 7.29914 0 0 0-4.7339 1.66828C73.4193.22307 59.0354-1.66505 45.3308 1.49325 31.6262 4.65155 19.5196 12.6446 11.2312 24.0064 2.94271 35.3683-.97191 49.3374.20523 63.3519 1.38237 77.3663 7.57237 90.4867 17.64 100.307c10.0676 9.82 23.338 15.681 37.3774 16.509 14.0394.828 27.9067-3.433 39.0588-12.002 11.1518-8.5682 18.8408-20.8701 21.6578-34.6491 2.816-13.779.57-28.1113-6.325-40.3686v-.0003Z"
  />
</svg>
