<svg viewBox="0 0 22 24" fill="currentColor" xmlns="http://www.w3.org/2000/svg">
  <path
    d="M8.02381 1.60088C8.02381 0.977438 7.52225 0.475876 6.89882 0.475876C6.27537 0.475876 5.77381 0.977438 5.77381 1.60088V3.47588H3.89881C2.24414 3.47588 0.898819 4.82118 0.898819 6.47587V7.22586V9.47586V21.4759C0.898819 23.1305 2.24414 24.4759 3.89881 24.4759H18.8988C20.5534 24.4759 21.8988 23.1305 21.8988 21.4759V9.47586V7.22586V6.47587C21.8988 4.82118 20.5534 3.47588 18.8988 3.47588H17.0238V1.60088C17.0238 0.977438 16.5222 0.475876 15.8988 0.475876C15.2754 0.475876 14.7739 0.977438 14.7739 1.60088V3.47588H8.02381V1.60088ZM3.14882 9.47586H19.6488V21.4759C19.6488 21.8883 19.3113 22.2258 18.8988 22.2258H3.89881C3.48632 22.2258 3.14882 21.8883 3.14882 21.4759V9.47586Z"
  />
</svg>
