<svg viewBox="0 0 19 19" fill="currentColor" xmlns="http://www.w3.org/2000/svg">
  <path
    fill-rule="evenodd"
    clip-rule="evenodd"
    d="M9.52915 18.5407C14.4117 18.5407 18.3698 14.5826 18.3698 9.70005C18.3698 4.81748 14.4117 0.859375 9.52915 0.859375C4.64658 0.859375 0.688477 4.81748 0.688477 9.70005C0.688477 14.5826 4.64658 18.5407 9.52915 18.5407ZM10.4173 5.53015C10.4173 5.05764 10.0343 4.6746 9.56177 4.6746C9.08926 4.6746 8.70622 5.05764 8.70622 5.53015V10.0993C8.70622 10.362 8.82693 10.6101 9.03362 10.7723L11.8286 12.9655C12.2003 13.2572 12.7381 13.1923 13.0298 12.8206C13.3215 12.4488 13.2566 11.911 12.8849 11.6194L10.4173 9.68309V5.53015Z"
  />
</svg>
