<svg viewBox="0 0 24 24" fill="currentColor" xmlns="http://www.w3.org/2000/svg">
  <path
    d="M23.3322 15.948C23.7643 14.711 24.0001 13.3827 24.0001 12.0002C24.0001 10.6176 23.7643 9.2892 23.3322 8.05224C23.3216 8.01512 23.3091 7.97889 23.294 7.94402C21.6272 3.31724 17.194 0 12 0C6.80605 0 2.37274 3.31724 0.706086 7.94402C0.690949 7.979 0.678334 8.01512 0.667898 8.05224C0.235783 9.2892 0 10.6176 0 12.0002C0 13.3827 0.235783 14.711 0.667898 15.948C0.678449 15.9852 0.690949 16.0214 0.706086 16.0562C2.37285 20.6832 6.80605 24.0003 12 24.0003C17.194 24.0003 21.6272 20.683 23.294 16.0562C23.3091 16.0214 23.3216 15.9853 23.3322 15.948ZM12 22.2802C11.543 22.2802 10.8062 21.4531 10.1904 19.6054C9.89312 18.7138 9.6552 17.6887 9.48176 16.5737H14.5183C14.3449 17.6887 14.107 18.7137 13.8098 19.6054C13.1938 21.4531 12.457 22.2802 12 22.2802ZM9.27304 14.8535C9.1904 13.9363 9.14664 12.9794 9.14664 12.0002C9.14664 11.0209 9.1904 10.064 9.27304 9.1468H14.7269C14.8096 10.064 14.8533 11.0209 14.8533 12.0002C14.8533 12.9794 14.8096 13.9363 14.7269 14.8535H9.27304ZM1.72009 12.0002C1.72009 11.0106 1.86103 10.0532 2.1233 9.14688H7.54769C7.4673 10.083 7.42647 11.0425 7.42647 12.0002C7.42647 12.9581 7.46718 13.9175 7.54769 14.8536H2.1233C1.86103 13.9472 1.72009 12.9899 1.72009 12.0002ZM12 1.72021C12.457 1.72021 13.194 2.54728 13.8098 4.39501C14.107 5.28665 14.345 6.31166 14.5183 7.42658H9.48168C9.65504 6.31154 9.89304 5.28665 10.1902 4.39501C10.8062 2.54728 11.543 1.72021 12 1.72021ZM16.4522 9.14688H21.8766C22.139 10.0532 22.2798 11.0106 22.2798 12.0002C22.2798 12.9899 22.139 13.9473 21.8766 14.8536H16.4522C16.5326 13.9175 16.5735 12.9581 16.5735 12.0002C16.5735 11.0425 16.5326 10.083 16.4522 9.14688ZM21.2045 7.4267H16.2549C15.949 5.31693 15.4241 3.42413 14.6877 2.07755C17.5426 2.85153 19.9079 4.82758 21.2045 7.4267ZM9.31224 2.07743C8.57592 3.42401 8.05104 5.31681 7.74505 7.4267H2.79545C4.09214 4.82758 6.4573 2.85153 9.31224 2.07743ZM2.79545 16.5737H7.74505C8.05104 18.6835 8.57592 20.5763 9.31224 21.923C6.4573 21.1489 4.09214 19.173 2.79545 16.5737ZM14.6877 21.923C15.4241 20.5764 15.949 18.6836 16.2549 16.5737H21.2045C19.9079 19.173 17.5426 21.1489 14.6877 21.923Z"
  />
</svg>
