<svg
  viewBox="0 0 371 57"
  fill="currentColor"
  xmlns="http://www.w3.org/2000/svg"
>
  <path
    d="M26.7101 16.3899C26.0266 15.1322 25.0463 14.1711 23.7692 13.5055C22.4921 12.8409 20.9907 12.5086 19.264 12.5086C16.2776 12.5086 13.8858 13.4881 12.0876 15.4462C10.2875 17.4062 9.38933 20.0211 9.38933 23.291C9.38933 26.7782 10.3339 29.5013 12.222 31.4593C14.1111 33.4193 16.7088 34.3979 20.019 34.3979C22.2852 34.3979 24.2013 33.8231 25.7656 32.6726C27.3308 31.5231 28.4725 29.8693 29.1928 27.7123H17.4832V20.9195H37.5564V29.4916C36.8729 31.7926 35.7127 33.9313 34.076 35.9077C32.4383 37.8851 30.3607 39.4848 27.8432 40.7058C25.3247 41.9287 22.4824 42.5392 19.3181 42.5392C15.5757 42.5392 12.2394 41.722 9.30812 40.0866C6.37589 38.4512 4.0914 36.1772 2.45561 33.2657C0.817893 30.3543 0 27.0303 0 23.291C0 19.5536 0.817893 16.2199 2.45561 13.2901C4.0914 10.3612 6.36719 8.07859 9.28106 6.4422C12.1949 4.80775 15.5216 3.98956 19.264 3.98956C23.7962 3.98956 27.6179 5.08596 30.73 7.27875C33.841 9.47154 35.9012 12.5086 36.9086 16.3899H26.7101Z"
  />
  <path
    d="M55.9561 13.2901C57.5745 12.3376 59.3737 11.8614 61.3517 11.8614V21.6198H58.8158C56.5139 21.6198 54.7863 22.1144 53.6358 23.1026C52.4844 24.0918 51.9092 25.8257 51.9092 28.3054V42.2697H42.6823V12.185H51.9092V17.1985C52.9881 15.5457 54.3377 14.2426 55.9561 13.2901Z"
  />
  <path
    d="M65.6964 19.0319C66.8642 16.6962 68.4565 14.8994 70.4713 13.6408C72.486 12.383 74.7338 11.7532 77.2165 11.7532C79.3385 11.7532 81.2006 12.185 82.8015 13.0476C84.4016 13.9103 85.6342 15.0424 86.4975 16.4441V12.185H95.7244V42.2697H86.4975V38.0107C85.5975 39.4123 84.3474 40.5445 82.7474 41.4071C81.1464 42.2697 79.2844 42.7015 77.1623 42.7015C74.7154 42.7015 72.486 42.063 70.4713 40.7869C68.4565 39.5118 66.8642 37.6958 65.6964 35.3417C64.5266 32.9876 63.9426 30.2654 63.9426 27.1733C63.9426 24.0821 64.5266 21.3687 65.6964 19.0319ZM84.5823 21.7821C83.3043 20.4519 81.7487 19.7864 79.9147 19.7864C78.0798 19.7864 76.5233 20.4432 75.2471 21.7551C73.9691 23.0669 73.331 24.8733 73.331 27.1733C73.331 29.4743 73.9691 31.298 75.2471 32.6456C76.5233 33.9941 78.0798 34.6674 79.9147 34.6674C81.7487 34.6674 83.3043 34.0028 84.5823 32.6726C85.8585 31.3434 86.4975 29.5284 86.4975 27.2274C86.4975 24.9274 85.8585 23.1123 84.5823 21.7821Z"
  />
  <path
    d="M115.365 13.0476C116.947 12.185 118.799 11.7532 120.923 11.7532C123.405 11.7532 125.652 12.383 127.669 13.6408C129.682 14.8994 131.275 16.6962 132.443 19.0319C133.612 21.3687 134.196 24.0821 134.196 27.1733C134.196 30.2654 133.612 32.9876 132.443 35.3417C131.275 37.6958 129.682 39.5118 127.669 40.7869C125.652 42.063 123.405 42.7015 120.923 42.7015C118.836 42.7015 116.992 42.2697 115.393 41.4071C113.791 40.5445 112.541 39.4307 111.641 38.0638V56.6117H102.415V12.185H111.641V16.4441C112.541 15.0424 113.782 13.9103 115.365 13.0476ZM122.893 21.7551C121.615 20.4432 120.041 19.7864 118.171 19.7864C116.336 19.7864 114.78 20.4519 113.503 21.7821C112.226 23.1123 111.588 24.9274 111.588 27.2274C111.588 29.5284 112.226 31.3434 113.503 32.6726C114.78 34.0028 116.336 34.6674 118.171 34.6674C120.006 34.6674 121.57 33.9941 122.866 32.6456C124.161 31.298 124.807 29.4743 124.807 27.1733C124.807 24.8733 124.169 23.0669 122.893 21.7551Z"
  />
  <path
    d="M165.87 15.2849C167.956 17.5675 168.999 20.7031 168.999 24.6936V42.2697H159.827V25.9329C159.827 23.9208 159.305 22.3568 158.261 21.2421C157.218 20.1293 155.815 19.5709 154.053 19.5709C152.29 19.5709 150.887 20.1293 149.844 21.2421C148.8 22.3568 148.279 23.9208 148.279 25.9329V42.2697H139.052V2.37154H148.279V16.2286C149.214 14.8994 150.491 13.8388 152.111 13.0476C153.729 12.2575 155.545 11.8614 157.56 11.8614C161.014 11.8614 163.784 13.0022 165.87 15.2849Z"
  />
  <path
    d="M202.401 48.7399L197.544 42.2156C196.106 42.5035 194.703 42.6474 193.336 42.6474C189.774 42.6474 186.51 41.8205 183.543 40.1668C180.575 38.514 178.218 36.2043 176.474 33.2387C174.728 30.2731 173.856 26.9395 173.856 23.2378C173.856 19.5362 174.728 16.2103 176.474 13.263C178.218 10.3158 180.575 8.0158 183.543 6.36203C186.51 4.70923 189.774 3.88138 193.336 3.88138C196.898 3.88138 200.161 4.70923 203.129 6.36203C206.097 8.0158 208.435 10.3158 210.144 13.263C211.853 16.2103 212.707 19.5362 212.707 23.2378C212.707 26.472 212.051 29.4288 210.738 32.1066C209.424 34.7843 207.599 37.0041 205.261 38.7651L213.571 48.7399H202.401ZM186.024 31.2439C187.84 33.2387 190.278 34.2366 193.336 34.2366C196.357 34.2366 198.776 33.23 200.594 31.2169C202.409 29.2047 203.318 26.5444 203.318 23.2378C203.318 19.8945 202.409 17.2255 200.594 15.2308C198.776 13.236 196.357 12.2381 193.336 12.2381C190.278 12.2381 187.84 13.2273 186.024 15.2037C184.208 17.1811 183.299 19.8588 183.299 23.2378C183.299 26.5801 184.208 29.2492 186.024 31.2439Z"
  />
  <path d="M227.168 35.1533H239.255V42.2697H217.94V4.42041H227.168V35.1533Z" />
  <path
    d="M244.543 13.2901C246.162 10.3612 248.419 8.07859 251.314 6.4422C254.21 4.80775 257.493 3.98956 261.162 3.98956C265.659 3.98956 269.507 5.1758 272.71 7.54826C275.911 9.91976 278.052 13.1549 279.131 17.2526H268.986C268.231 15.6712 267.16 14.4676 265.776 13.6407C264.391 12.8139 262.816 12.4004 261.055 12.4004C258.212 12.4004 255.91 13.3896 254.147 15.366C252.385 17.3424 251.504 19.9844 251.504 23.291C251.504 26.5985 252.385 29.2405 254.147 31.2169C255.91 33.1943 258.212 34.1825 261.055 34.1825C262.816 34.1825 264.391 33.77 265.776 32.9421C267.16 32.1162 268.231 30.9116 268.986 29.3303H279.131C278.052 33.4271 275.911 36.6544 272.71 39.0076C269.507 41.3626 265.659 42.5392 261.162 42.5392C257.493 42.5392 254.21 41.722 251.314 40.0866C248.419 38.4512 246.162 36.1772 244.543 33.2657C242.924 30.3543 242.115 27.0303 242.115 23.291C242.115 19.5536 242.924 16.2199 244.543 13.2901Z"
  />
  <path
    d="M290.543 40.814C288.186 39.5563 286.334 37.7595 284.985 35.4228C283.636 33.0861 282.962 30.3543 282.962 27.2274C282.962 24.1362 283.644 21.4131 285.012 19.059C286.379 16.7049 288.25 14.8994 290.624 13.6408C292.998 12.383 295.66 11.7532 298.61 11.7532C301.56 11.7532 304.222 12.383 306.596 13.6408C308.97 14.8994 310.841 16.7049 312.208 19.059C313.575 21.4131 314.258 24.1362 314.258 27.2274C314.258 30.3185 313.565 33.0416 312.181 35.3958C310.795 37.7499 308.907 39.5563 306.515 40.814C304.123 42.0727 301.452 42.7015 298.502 42.7015C295.552 42.7015 292.898 42.0727 290.543 40.814ZM303.008 32.7808C304.249 31.4864 304.869 29.6356 304.869 27.2274C304.869 24.8192 304.267 22.9674 303.062 21.6739C301.857 20.3795 300.373 19.7332 298.61 19.7332C296.811 19.7332 295.318 20.3718 294.131 21.6469C292.944 22.9229 292.35 24.7834 292.35 27.2274C292.35 29.6356 292.935 31.4864 294.104 32.7808C295.273 34.0743 296.739 34.7215 298.502 34.7215C300.264 34.7215 301.767 34.0743 303.008 32.7808Z"
  />
  <path
    d="M345.96 15.2849C348.065 17.5675 349.117 20.7031 349.117 24.6936V42.2697H339.944V25.9329C339.944 23.9208 339.422 22.3569 338.379 21.2421C337.335 20.1293 335.933 19.5709 334.17 19.5709C332.407 19.5709 331.004 20.1293 329.961 21.2421C328.918 22.3569 328.397 23.9208 328.397 25.9329V42.2697H319.169V12.185H328.397V16.1745C329.331 14.8453 330.59 13.7934 332.174 13.0206C333.756 12.2478 335.537 11.8614 337.515 11.8614C341.041 11.8614 343.856 13.0022 345.96 15.2849Z"
  />
  <path
    d="M370.646 19.8404H365.682V42.2697H356.454V19.8404H353.109V12.185H356.454V11.3224C356.454 7.6207 357.515 4.80775 359.638 2.88447C361.76 0.962154 364.872 3.05176e-05 368.973 3.05176e-05C369.657 3.05176e-05 370.16 0.0183843 370.484 0.0531598V7.87089C368.721 7.76367 367.48 8.01579 366.761 8.6263C366.041 9.23777 365.682 10.3342 365.682 11.9155V12.185H370.646V19.8404Z"
  />
</svg>
