<svg viewBox="0 0 24 22" xmlns="http://www.w3.org/2000/svg">
  <path d="M2 12.3L0.5 7.2L5.2 0.5L14.3 12.3H2Z" fill="#C0201C" />
  <path d="M0.5 7.2L5.2 0.5L12 2.6L14.3 12.3L0.5 7.2Z" fill="#FD504E" />
  <path
    d="M5.20001 0.5L12 2.6L18.8 0.5L14.3 12.3L5.20001 0.5Z"
    fill="#CD4948"
  />
  <path d="M12 2.6L18.8 0.5L23.5 7.2L14.3 12.3L12 2.6Z" fill="#FD504E" />
  <path d="M18.8 0.5L23.5 7.2L22 12.3H14.3L18.8 0.5Z" fill="#C0201C" />
  <path
    d="M23.5 7.20001L22 12.3L12 21.1L14.3 12.3L23.5 7.20001Z"
    fill="#7E120E"
  />
  <path d="M22 12.3L12 21.1L2 12.3H14.3H22Z" fill="#610F0D" />
  <path d="M12 21.1L2 12.3L0.5 7.20001L14.3 12.3L12 21.1Z" fill="#7E120E" />
  <path d="M2 12.3L0.5 7.20001L14.3 12.3H2Z" fill="#C0201C" />
</svg>
