<svg
  viewBox="0 0 230 38"
  fill="currentColor"
  xmlns="http://www.w3.org/2000/svg"
>
  <path
    d="M1.21574 23.9084C1.07828 23.9084 0.960039 23.8597 0.863966 23.7637C0.767892 23.6677 0.719116 23.551 0.719116 23.4137V9.75137C0.719116 9.61402 0.767892 9.49735 0.863966 9.40135C0.960039 9.30536 1.07828 9.25662 1.21574 9.25662H3.05297C3.20521 9.25662 3.32493 9.30536 3.41509 9.40135C3.50377 9.49735 3.54959 9.61402 3.54959 9.75137V14.4566C3.92059 14.0165 4.37583 13.6591 4.91236 13.3844C5.4489 13.1082 6.10959 12.9709 6.89443 12.9709C7.73545 12.9709 8.46856 13.1599 9.09526 13.538C9.72048 13.9176 10.2068 14.4507 10.5511 15.1374C10.8941 15.8256 11.067 16.6512 11.067 17.6141V23.4137C11.067 23.551 11.0182 23.6677 10.9221 23.7637C10.8261 23.8597 10.7093 23.9084 10.5718 23.9084H8.71244C8.57499 23.9084 8.45822 23.8597 8.36214 23.7637C8.26459 23.6677 8.2173 23.551 8.2173 23.4137V17.7382C8.2173 16.9407 8.02071 16.3145 7.62755 15.8596C7.23587 15.4062 6.66829 15.1788 5.92483 15.1788C5.20797 15.1788 4.63301 15.4062 4.19994 15.8596C3.76539 16.3145 3.54959 16.9407 3.54959 17.7382V23.4137C3.54959 23.551 3.50377 23.6677 3.41509 23.7637C3.32493 23.8597 3.20521 23.9084 3.05297 23.9084H1.21574Z"
  />
  <path
    d="M18.4395 24.1152C17.3384 24.1152 16.4131 23.9218 15.6623 23.5363C14.9114 23.1523 14.3409 22.6088 13.9477 21.9073C13.556 21.2058 13.3314 20.3862 13.2767 19.4513C13.2634 19.2032 13.256 18.9005 13.256 18.5431C13.256 18.1857 13.2634 17.8829 13.2767 17.6348C13.3314 16.6852 13.5619 15.8641 13.9684 15.1685C14.3749 14.4743 14.9528 13.9338 15.7036 13.5484C16.453 13.1644 17.3665 12.9709 18.4395 12.9709C19.5141 12.9709 20.426 13.1644 21.1769 13.5484C21.9263 13.9338 22.5057 14.4743 22.9106 15.1685C23.3171 15.8641 23.5477 16.6852 23.6039 17.6348C23.6172 17.8829 23.6245 18.1857 23.6245 18.5431C23.6245 18.9005 23.6172 19.2032 23.6039 19.4513C23.5477 20.3862 23.3245 21.2058 22.9313 21.9073C22.5397 22.6088 21.9676 23.1523 21.2183 23.5363C20.4674 23.9218 19.5407 24.1152 18.4395 24.1152ZM18.4395 22.0713C19.1697 22.0713 19.7343 21.8424 20.1334 21.3801C20.5325 20.9193 20.7527 20.2429 20.7941 19.348C20.8074 19.1412 20.8148 18.8739 20.8148 18.5431C20.8148 18.2123 20.8074 17.9449 20.7941 17.7382C20.7527 16.858 20.5325 16.1831 20.1334 15.7164C19.7343 15.2482 19.1697 15.0149 18.4395 15.0149C17.7094 15.0149 17.1462 15.2482 16.7472 15.7164C16.3466 16.1831 16.1264 16.858 16.085 17.7382C16.0717 17.9449 16.0643 18.2123 16.0643 18.5431C16.0643 18.8739 16.0717 19.1412 16.085 19.348C16.1264 20.2429 16.3466 20.9193 16.7472 21.3801C17.1462 21.8424 17.7094 22.0713 18.4395 22.0713Z"
  />
  <path
    d="M29.9846 24.1152C29.1583 24.1152 28.4533 24.0177 27.868 23.8258C27.2827 23.6338 26.8038 23.393 26.4328 23.1036C26.0603 22.8141 25.7854 22.5261 25.6066 22.2367C25.4277 21.9487 25.3302 21.708 25.3169 21.5145C25.3036 21.3639 25.3479 21.2427 25.4514 21.1541C25.5548 21.0641 25.6687 21.0197 25.7928 21.0197H27.4246C27.4793 21.0197 27.5266 21.0271 27.568 21.0404C27.6093 21.0537 27.664 21.0951 27.7335 21.1645C27.9123 21.3151 28.1015 21.4731 28.3011 21.6385C28.5006 21.804 28.7386 21.9443 29.0135 22.0609C29.2899 22.1791 29.6343 22.2367 30.0467 22.2367C30.5832 22.2367 31.034 22.1303 31.3991 21.9177C31.7642 21.7035 31.9474 21.3978 31.9474 20.9991C31.9474 20.7096 31.8676 20.4763 31.7095 20.2976C31.5513 20.1189 31.2587 19.9564 30.8315 19.8117C30.4043 19.6684 29.7983 19.5134 29.0135 19.348C28.2434 19.1693 27.6019 18.9418 27.0935 18.6671C26.5836 18.3924 26.2052 18.0483 25.9569 17.6348C25.71 17.2228 25.5859 16.7413 25.5859 16.1904C25.5859 15.6544 25.747 15.1419 26.0707 14.653C26.3944 14.1642 26.8762 13.7625 27.5162 13.4465C28.1577 13.1289 28.9529 12.9709 29.9018 12.9709C30.6453 12.9709 31.2927 13.064 31.844 13.25C32.3938 13.4361 32.852 13.6665 33.2171 13.9412C33.5822 14.2159 33.86 14.495 34.0537 14.7771C34.2458 15.0592 34.3493 15.3029 34.3626 15.5096C34.3774 15.6617 34.336 15.7814 34.2399 15.87C34.1423 15.9601 34.033 16.0044 33.9088 16.0044H32.3805C32.311 16.0044 32.249 15.9911 32.1943 15.963C32.1396 15.9364 32.0849 15.901 32.0302 15.8596C31.878 15.7223 31.7124 15.579 31.5336 15.4269C31.3547 15.2763 31.1375 15.1419 30.8832 15.0252C30.629 14.9085 30.295 14.8495 29.8811 14.8495C29.3579 14.8495 28.9588 14.9632 28.6839 15.1891C28.4075 15.4166 28.27 15.7016 28.27 16.0457C28.27 16.2805 28.3365 16.4829 28.4666 16.6542C28.5982 16.827 28.8627 16.9879 29.2618 17.1401C29.6609 17.2907 30.2669 17.4487 31.0798 17.6141C32.0021 17.7795 32.7352 18.0232 33.2792 18.3466C33.8231 18.6701 34.2089 19.0422 34.435 19.4617C34.6626 19.8811 34.7764 20.3448 34.7764 20.8543C34.7764 21.4731 34.5932 22.0299 34.2296 22.5261C33.8645 23.0209 33.3265 23.4093 32.6185 23.6914C31.909 23.9734 31.031 24.1152 29.9846 24.1152Z"
  />
  <path
    d="M41.7158 23.9084C40.8896 23.9084 40.1949 23.7637 39.6303 23.4757C39.0657 23.1863 38.6459 22.7565 38.371 22.185C38.0946 21.6149 37.9571 20.9031 37.9571 20.0494V15.3649H36.3253C36.1879 15.3649 36.0711 15.3176 35.975 15.2201C35.8775 15.1241 35.8302 15.0075 35.8302 14.8701V13.6724C35.8302 13.5351 35.8775 13.4184 35.975 13.3224C36.0711 13.2264 36.1879 13.1777 36.3253 13.1777H37.9571V9.75137C37.9571 9.61402 38.0015 9.49735 38.0916 9.40135C38.1803 9.30536 38.3015 9.25662 38.4523 9.25662H40.1254C40.2629 9.25662 40.3797 9.30536 40.4772 9.40135C40.5733 9.49735 40.6221 9.61402 40.6221 9.75137V13.1777H43.2027C43.3402 13.1777 43.457 13.2264 43.5545 13.3224C43.6506 13.4184 43.6994 13.5351 43.6994 13.6724V14.8701C43.6994 15.0075 43.6506 15.1241 43.5545 15.2201C43.457 15.3176 43.3402 15.3649 43.2027 15.3649H40.6221V19.8427C40.6221 20.4068 40.7211 20.8469 40.9206 21.1645C41.1202 21.4805 41.4675 21.6385 41.9641 21.6385H43.389C43.5264 21.6385 43.6432 21.6873 43.7408 21.7833C43.8368 21.8793 43.8841 21.9959 43.8841 22.1333V23.4137C43.8841 23.551 43.8368 23.6677 43.7408 23.7637C43.6432 23.8597 43.5264 23.9084 43.389 23.9084H41.7158Z"
  />
  <path
    d="M50.3478 24.1152C48.8195 24.1152 47.609 23.6751 46.7133 22.7934C45.8191 21.9132 45.3372 20.6623 45.2678 19.0378C45.2545 18.9005 45.2471 18.7262 45.2471 18.5121C45.2471 18.2994 45.2545 18.131 45.2678 18.007C45.3225 16.9747 45.5604 16.0812 45.9802 15.3235C46.4 14.5674 46.9823 13.9855 47.7258 13.5794C48.4692 13.1747 49.3428 12.9709 50.3478 12.9709C51.4638 12.9709 52.3994 13.2013 53.1576 13.6621C53.9144 14.1243 54.4864 14.7638 54.8722 15.582C55.2565 16.4002 55.4501 17.3468 55.4501 18.419V18.8532C55.4501 18.9906 55.4013 19.1072 55.3052 19.2032C55.2092 19.2992 55.085 19.348 54.9342 19.348H48.0761V19.5134C48.0908 19.9948 48.1825 20.4379 48.3554 20.844C48.5269 21.2501 48.7826 21.5765 49.1196 21.8246C49.4566 22.0713 49.8601 22.1953 50.3271 22.1953C50.7129 22.1953 51.0366 22.1377 51.2982 22.0196C51.5598 21.9029 51.7742 21.77 51.9382 21.6179C52.1038 21.4672 52.2205 21.3432 52.29 21.2457C52.4142 21.0818 52.5132 20.9813 52.5901 20.9474C52.6654 20.9134 52.7778 20.8957 52.93 20.8957H54.7066C54.8441 20.8957 54.9579 20.937 55.0466 21.0197C55.1367 21.1024 55.1737 21.2058 55.1604 21.3284C55.1471 21.5485 55.0333 21.8172 54.8204 22.1333C54.6061 22.4508 54.3002 22.7595 53.9011 23.0622C53.502 23.365 53.0024 23.616 52.4038 23.8154C51.8052 24.0148 51.1194 24.1152 50.3478 24.1152ZM48.0761 17.6141H52.6403V17.5521C52.6403 17.016 52.5516 16.5478 52.3728 16.1491C52.1939 15.7503 51.9323 15.4343 51.5879 15.1995C51.2435 14.9661 50.8297 14.8495 50.3478 14.8495C49.866 14.8495 49.4536 14.9661 49.1092 15.1995C48.7648 15.4343 48.5062 15.7503 48.3347 16.1491C48.1618 16.5478 48.0761 17.016 48.0761 17.5521V17.6141Z"
  />
  <path
    d="M61.6238 24.1152C60.9085 24.1152 60.2788 23.9941 59.7349 23.7534C59.191 23.5127 58.7402 23.173 58.3825 22.7329C58.0248 22.2928 57.7484 21.7729 57.5562 21.1748C57.3641 20.5752 57.2532 19.9195 57.2266 19.2032C57.2118 18.9551 57.2059 18.7321 57.2059 18.5327C57.2059 18.3333 57.2118 18.1103 57.2266 17.8622C57.2532 17.174 57.3597 16.5345 57.5459 15.9423C57.7321 15.3516 58.007 14.8317 58.3721 14.3842C58.7372 13.9382 59.191 13.5897 59.7349 13.3431C60.2788 13.095 60.9085 12.9709 61.6238 12.9709C62.3688 12.9709 62.9984 13.0979 63.5158 13.3534C64.0301 13.6074 64.4617 13.9338 64.8046 14.3326V9.75137C64.8046 9.61402 64.849 9.49735 64.9406 9.40135C65.0293 9.30536 65.1505 9.25662 65.3012 9.25662H67.0572C67.1932 9.25662 67.3114 9.30536 67.409 9.40135C67.5035 9.49735 67.5508 9.61402 67.5508 9.75137V23.4137C67.5508 23.551 67.5035 23.6677 67.409 23.7637C67.3114 23.8597 67.1932 23.9084 67.0572 23.9084H65.4254C65.2717 23.9084 65.1534 23.8597 65.0648 23.7637C64.9731 23.6677 64.9288 23.551 64.9288 23.4137V22.6502C64.5859 23.0755 64.1484 23.427 63.6163 23.7017C63.0871 23.9779 62.422 24.1152 61.6238 24.1152ZM62.3895 21.9073C62.9659 21.9073 63.4271 21.7759 63.7729 21.5145C64.1158 21.2531 64.3701 20.9193 64.5356 20.5132C64.7012 20.1085 64.7928 19.692 64.8046 19.2652C64.8194 19.0171 64.8253 18.7528 64.8253 18.4707C64.8253 18.1886 64.8194 17.9243 64.8046 17.6761C64.7928 17.2641 64.6952 16.8683 64.5149 16.4902C64.3376 16.1122 64.0745 15.7991 63.7315 15.551C63.3857 15.3028 62.9393 15.1788 62.3895 15.1788C61.8101 15.1788 61.3534 15.3073 61.0164 15.5613C60.6779 15.8153 60.434 16.1491 60.2832 16.5626C60.131 16.9746 60.0408 17.428 60.0142 17.9243C60.0009 18.3363 60.0009 18.7498 60.0142 19.1619C60.0408 19.6581 60.131 20.1115 60.2832 20.5235C60.434 20.937 60.6779 21.2708 61.0164 21.5248C61.3534 21.7803 61.8101 21.9073 62.3895 21.9073Z"
  />
  <path
    d="M80.976 24.1152C80.1778 24.1152 79.5142 23.9779 78.9835 23.7017C78.4529 23.427 78.0169 23.0755 77.6725 22.6502V23.4137C77.6725 23.551 77.6267 23.6677 77.538 23.7637C77.4478 23.8597 77.3281 23.9084 77.1759 23.9084H75.5456C75.4066 23.9084 75.2899 23.8597 75.1938 23.7637C75.0977 23.6677 75.049 23.551 75.049 23.4137V9.75137C75.049 9.61402 75.0977 9.49735 75.1938 9.40135C75.2899 9.30536 75.4066 9.25662 75.5456 9.25662H77.3C77.4523 9.25662 77.572 9.30536 77.6622 9.40135C77.7508 9.49735 77.7967 9.61402 77.7967 9.75137V14.3326C78.1396 13.9338 78.5712 13.6074 79.087 13.3534C79.6028 13.0979 80.2325 12.9709 80.976 12.9709C81.7061 12.9709 82.3402 13.095 82.8767 13.3431C83.4133 13.5897 83.8641 13.9382 84.2292 14.3842C84.5942 14.8317 84.8736 15.3516 85.0657 15.9423C85.2594 16.5345 85.3613 17.174 85.3761 17.8622C85.3894 18.1103 85.3968 18.3333 85.3968 18.5327C85.3968 18.7321 85.3894 18.9551 85.3761 19.2032C85.348 19.9195 85.2387 20.5752 85.045 21.1748C84.8529 21.7729 84.5765 22.2928 84.2188 22.7329C83.8611 23.173 83.4133 23.5127 82.8767 23.7534C82.3402 23.9941 81.7061 24.1152 80.976 24.1152ZM80.2118 21.9073C80.8045 21.9073 81.2657 21.7803 81.5967 21.5248C81.9263 21.2708 82.1643 20.937 82.3092 20.5235C82.454 20.1115 82.5397 19.6581 82.5663 19.1619C82.5944 18.7498 82.5944 18.3363 82.5663 17.9243C82.5397 17.428 82.454 16.9746 82.3092 16.5626C82.1643 16.1491 81.9263 15.8153 81.5967 15.5613C81.2657 15.3073 80.8045 15.1788 80.2118 15.1788C79.662 15.1788 79.2141 15.3028 78.8697 15.551C78.5253 15.7991 78.2637 16.1122 78.0849 16.4902C77.906 16.8683 77.81 17.2641 77.7967 17.6761C77.7819 17.9243 77.776 18.1886 77.776 18.4707C77.776 18.7528 77.7819 19.0171 77.7967 19.2652C77.8233 19.692 77.9164 20.1085 78.0745 20.5132C78.2327 20.9193 78.4884 21.2531 78.8387 21.5145C79.1905 21.7759 79.6472 21.9073 80.2118 21.9073Z"
  />
  <path
    d="M89.197 27.8295C89.0861 27.8295 88.9901 27.7881 88.9073 27.7054C88.8245 27.6227 88.7831 27.5267 88.7831 27.416C88.7831 27.3613 88.7861 27.3096 88.7935 27.2624C88.8009 27.2137 88.8245 27.1546 88.8659 27.0866L90.477 23.269L86.5114 13.9205C86.4567 13.7832 86.4286 13.6872 86.4286 13.6311C86.4419 13.5085 86.4907 13.4007 86.5734 13.3121C86.6562 13.222 86.7597 13.1777 86.8838 13.1777H88.557C88.7211 13.1777 88.8452 13.219 88.928 13.3017C89.0108 13.3844 89.0728 13.473 89.1142 13.569L91.8604 20.3182L94.6909 13.569C94.7323 13.4598 94.7929 13.3667 94.8757 13.2914C94.9584 13.2161 95.0826 13.1777 95.2481 13.1777H96.9006C97.01 13.1777 97.1105 13.219 97.1992 13.3017C97.2893 13.3844 97.3337 13.4804 97.3337 13.5897C97.3337 13.6724 97.3056 13.7832 97.2509 13.9205L91.4067 27.4367C91.3505 27.5474 91.2825 27.6405 91.1998 27.7158C91.117 27.7911 90.9928 27.8295 90.8288 27.8295H89.197Z"
  />
  <path
    d="M153.997 31.0708H155.251V26.4063H159.786V25.2868H155.251V21.7684H160.24V20.6489H153.997V31.0708Z"
  />
  <path
    d="M164.988 23.1545C162.881 23.1545 161.44 24.7538 161.44 27.206C161.44 29.6315 162.854 31.2308 164.988 31.2308C167.122 31.2308 168.536 29.6315 168.536 27.206C168.536 24.7538 167.096 23.1545 164.988 23.1545ZM164.988 30.138C163.388 30.138 162.641 28.7519 162.641 27.1793C162.641 25.6067 163.361 24.2207 164.988 24.2207C166.589 24.2207 167.336 25.6334 167.336 27.1793C167.336 28.7519 166.589 30.138 164.988 30.138Z"
  />
  <path
    d="M175.445 27.8723C175.445 29.3383 174.325 30.0047 173.418 30.0047C172.431 30.0047 171.711 29.285 171.711 28.1388V23.261H170.51V28.2188C170.51 30.2179 171.577 31.1775 173.044 31.1775C174.218 31.1775 174.992 30.5377 175.365 29.7648H175.445V31.0975H176.646V23.261H175.445V27.8723Z"
  />
  <path
    d="M182.808 23.1545C181.634 23.1545 180.887 23.6876 180.54 24.4872H180.434V23.2611H179.287V31.0709H180.487V26.353C180.487 24.9936 181.341 24.2207 182.488 24.2207C183.608 24.2207 184.275 24.9403 184.275 26.1664V31.0442H185.476V26.0865C185.449 24.114 184.382 23.1545 182.808 23.1545Z"
  />
  <path
    d="M193.265 24.4871H193.158C192.892 24.0873 192.438 23.1544 190.891 23.1544C188.917 23.1544 187.556 24.727 187.556 27.1792C187.556 29.6581 188.917 31.2307 190.864 31.2307C192.358 31.2307 192.892 30.2978 193.132 29.8714H193.265V31.0708H194.412V20.6489H193.212V24.4871H193.265ZM191.051 30.1379C189.557 30.1379 188.784 28.8052 188.784 27.1526C188.784 25.5 189.53 24.2206 191.051 24.2206C192.518 24.2206 193.292 25.3934 193.292 27.1526C193.292 28.9118 192.492 30.1379 191.051 30.1379Z"
  />
  <path
    d="M200.068 23.1545C198.894 23.1545 197.533 23.5543 196.946 24.9936L198.093 25.3935C198.36 24.8337 198.974 24.2207 200.121 24.2207C201.241 24.2207 201.775 24.8071 201.775 25.8199C201.775 26.4063 201.188 26.3797 199.747 26.5396C198.307 26.7262 196.706 27.046 196.706 28.8319C196.706 30.3512 197.88 31.2308 199.374 31.2308C200.734 31.2308 201.455 30.5111 201.695 29.9781H201.748V31.0442H202.949V25.9265C202.975 23.4477 201.081 23.1545 200.068 23.1545ZM201.775 28.2455C201.775 29.2317 201.001 30.1646 199.587 30.1646C198.627 30.1646 197.933 29.7382 197.933 28.9119C197.933 28.0056 198.76 27.7124 199.694 27.5791C200.201 27.5258 201.561 27.3659 201.775 27.126L201.775 28.2455Z"
  />
  <path
    d="M208.364 30.0047C207.83 30.0047 207.323 29.8447 207.323 28.8318V24.2739H209.004V23.261H207.323V21.3952H206.123V23.261H204.949V24.2739H206.123V29.1517C206.123 30.5111 207.217 31.1775 208.23 31.1775C208.684 31.1775 208.951 31.0975 209.137 31.0442L208.897 29.978C208.791 29.9513 208.631 30.0047 208.364 30.0047Z"
  />
  <path d="M212.499 23.261H211.298V31.0708H212.499V23.261Z" />
  <path
    d="M211.912 20.3557C211.432 20.3557 211.058 20.7289 211.058 21.182C211.058 21.6351 211.458 22.0083 211.912 22.0083C212.392 22.0083 212.765 21.6351 212.765 21.182C212.765 20.7022 212.392 20.3557 211.912 20.3557Z"
  />
  <path
    d="M218.181 23.1545C216.073 23.1545 214.633 24.7538 214.633 27.206C214.633 29.6315 216.047 31.2308 218.181 31.2308C220.315 31.2308 221.729 29.6315 221.729 27.206C221.702 24.7538 220.288 23.1545 218.181 23.1545ZM218.181 30.138C216.58 30.138 215.833 28.7519 215.833 27.1793C215.833 25.6067 216.554 24.2207 218.181 24.2207C219.781 24.2207 220.528 25.6334 220.528 27.1793C220.502 28.7519 219.781 30.138 218.181 30.138Z"
  />
  <path
    d="M227.224 23.1545C226.05 23.1545 225.303 23.6876 224.957 24.4872H224.85V23.2611H223.703V31.0709H224.903V26.353C224.903 24.9936 225.757 24.2207 226.904 24.2207C228.024 24.2207 228.691 24.9403 228.691 26.1664V31.0442H229.892V26.0865C229.865 24.114 228.798 23.1545 227.224 23.1545Z"
  />
  <path
    d="M162.481 9.98709H158.132V11.6397H160.32C160.32 12.9457 159.28 13.7454 157.972 13.7454C156.345 13.7454 155.305 12.5459 155.305 10.3336C155.305 8.20123 156.318 6.94847 157.919 6.94847C159.066 6.94847 159.84 7.53487 160.16 8.52109H162.401C162.107 6.46869 160.267 5.00269 157.919 5.00269C155.171 5.00269 153.091 6.97513 153.091 10.3603C153.091 13.6654 155.065 15.6912 157.972 15.6912C160.613 15.6912 162.507 14.0386 162.507 11.2932L162.481 9.98709Z"
  />
  <path
    d="M166.722 9.10748H166.642V7.7481H164.535V15.5579H166.696V11.1332C166.696 10.1737 167.389 9.53396 168.269 9.53396C168.563 9.53396 168.803 9.61392 169.016 9.72053L169.657 7.93468C169.363 7.77475 169.016 7.64148 168.59 7.64148C167.709 7.64148 166.989 8.14791 166.722 9.10748Z"
  />
  <path
    d="M174.031 7.64148C172.111 7.64148 170.884 8.54773 170.59 9.96042L172.591 10.1204C172.751 9.61391 173.204 9.2141 173.978 9.2141C174.725 9.2141 175.125 9.58726 175.125 10.227C175.125 10.7334 174.592 10.8134 173.231 10.9466C171.684 11.0799 170.297 11.613 170.297 13.3456C170.297 14.8915 171.39 15.6645 172.884 15.6645C174.031 15.6645 174.778 15.1581 175.179 14.4384H175.232V15.5312H177.286V10.2803C177.313 8.41446 175.712 7.64148 174.031 7.64148ZM175.152 12.7592C175.152 13.5854 174.485 14.1985 173.525 14.1985C172.858 14.1985 172.378 13.8787 172.378 13.2923C172.378 12.6792 172.884 12.386 173.631 12.2794C174.111 12.2261 174.885 12.0928 175.125 11.9329V12.7592H175.152Z"
  />
  <path
    d="M183.875 7.64148C182.568 7.64148 181.954 8.41446 181.661 9.05417H181.554V7.7481H179.42V18.4899H181.581V14.3051H181.634C181.928 14.9448 182.595 15.6912 183.848 15.6912C185.636 15.6912 187.023 14.2785 187.023 11.6663C187.05 8.97421 185.582 7.64148 183.875 7.64148ZM183.182 13.9586C182.141 13.9586 181.554 13.0524 181.528 11.6397C181.528 10.2536 182.114 9.34737 183.182 9.34737C184.249 9.34737 184.835 10.2803 184.835 11.6397C184.835 13.0257 184.249 13.9586 183.182 13.9586Z"
  />
  <path
    d="M193.452 7.64149C192.278 7.64149 191.478 8.20123 191.104 9.10749H191.024V5.13596H188.917V15.5579H191.078V11.0266C191.078 10.0137 191.691 9.42735 192.571 9.42735C193.452 9.42735 193.959 9.98709 193.959 10.9467V15.5312H196.119V10.5735C196.146 8.76098 195.079 7.64149 193.452 7.64149Z"
  />
  <path
    d="M207.297 16.4108L205.803 14.545C206.817 13.6388 207.457 12.1994 207.457 10.3602C207.457 6.94846 205.349 5.00269 202.575 5.00269C199.801 5.00269 197.693 6.94846 197.693 10.3602C197.693 13.7454 199.801 15.7178 202.575 15.7178C203.215 15.7178 203.829 15.6112 204.389 15.398L205.216 16.4375H207.297V16.4108ZM204.469 12.9191L203.696 11.9329H201.828L203.162 13.6921C202.975 13.7187 202.789 13.7454 202.602 13.7454C201.001 13.7454 199.961 12.5459 199.961 10.3336C199.961 8.12127 201.001 6.92181 202.602 6.92181C204.202 6.92181 205.243 8.12127 205.243 10.3336C205.243 11.4797 204.949 12.3593 204.469 12.9191Z"
  />
  <path d="M216.207 13.7454H211.725V5.13596H209.538V15.5579H216.207V13.7454Z" />
  <path
    d="M144.341 13.7987C145.915 12.8924 146.448 10.8667 145.541 9.29406C144.634 7.72144 142.633 7.18835 141.086 8.09461C140.793 8.25453 140.553 8.46776 140.339 8.681L132.79 4.283C132.87 3.9898 132.923 3.66994 132.923 3.35009C132.923 1.51092 131.456 0.0449219 129.669 0.0449219C127.881 0.0449219 126.388 1.51092 126.388 3.35009C126.388 3.66994 126.441 3.9898 126.521 4.283L118.972 8.68101C118.758 8.46778 118.518 8.25453 118.225 8.09461C116.677 7.1617 114.677 7.72144 113.77 9.29406C112.863 10.8667 113.423 12.8924 114.97 13.7987C115.237 13.9586 115.53 14.0652 115.85 14.1452V22.9412C115.557 23.0212 115.264 23.1278 114.997 23.2877C113.423 24.194 112.889 26.2197 113.796 27.7923C114.703 29.365 116.677 29.898 118.251 28.9918C118.518 28.8319 118.758 28.6186 118.972 28.4054L126.521 32.8034C126.441 33.0966 126.388 33.4165 126.388 33.7363C126.388 35.5488 127.855 37.0415 129.642 37.0415C131.429 37.0415 132.897 35.5488 132.897 33.7363C132.897 33.3631 132.843 33.0166 132.737 32.6968L140.233 28.3254C140.446 28.592 140.739 28.8052 141.033 28.9918C142.607 29.898 144.608 29.365 145.488 27.7923C146.395 26.2197 145.861 24.194 144.287 23.2877C144.021 23.1278 143.727 23.0212 143.434 22.9412V14.1452C143.781 14.0652 144.047 13.9586 144.341 13.7987ZM117.531 22.9679C117.478 22.9679 117.451 22.9412 117.398 22.9412V14.1452C118.225 13.932 118.972 13.3989 119.452 12.5992C119.905 11.7996 119.985 10.8667 119.772 10.0404L127.321 5.64238C127.348 5.66904 127.375 5.6957 127.401 5.72235L117.531 22.9679ZM132.07 31.4973C131.483 30.831 130.602 30.4311 129.669 30.4311C128.735 30.4311 127.908 30.831 127.321 31.444L119.745 27.046C119.745 26.9927 119.772 26.966 119.772 26.9127H139.512C139.539 26.9927 139.539 27.046 139.566 27.126L132.07 31.4973ZM139.859 24.4872C139.699 24.7537 139.592 25.0469 139.512 25.3668H119.798C119.718 25.0736 119.612 24.7804 119.452 24.4872C119.292 24.2206 119.105 23.9541 118.865 23.7408L128.735 6.49533C129.029 6.57529 129.322 6.62861 129.642 6.62861C129.962 6.62861 130.256 6.57529 130.549 6.49533L140.419 23.7408C140.233 23.9541 140.019 24.194 139.859 24.4872ZM141.913 22.9412C141.86 22.9412 141.833 22.9679 141.78 22.9679L131.91 5.72235C131.936 5.6957 131.963 5.66904 131.99 5.64238L139.539 10.0404C139.299 10.8667 139.379 11.7729 139.859 12.5992C140.313 13.3989 141.06 13.932 141.913 14.1452V22.9412Z"
  />
</svg>
