<svg xmlns="http://www.w3.org/2000/svg" viewBox="-10.74 -10.24 532.48 531.98">
  <path
    d="M425.045 89.424c-16.079-16.079-36.378-26.646-58.703-30.56-21.813-3.822-43.982-1.073-64.112 7.952-5.04 2.26-7.293 8.177-5.033 13.216 2.258 5.039 8.174 7.291 13.216 5.034 33.858-15.182 74.243-7.747 100.49 18.5 16.999 16.999 26.36 39.6 26.36 63.639 0 24.04-9.362 46.641-26.361 63.64-35.091 35.091-92.188 35.09-127.279 0-26.216-26.216-33.697-65.162-19.058-99.219 2.181-5.073-.164-10.954-5.238-13.135-5.077-2.184-10.956.164-13.136 5.238-8.592 19.988-11.055 41.905-7.122 63.38 4.028 21.997 14.544 42.011 30.412 57.879 21.444 21.444 49.613 32.167 77.782 32.167s56.337-10.722 77.781-32.167c20.777-20.776 32.219-48.4 32.219-77.782s-11.442-57.005-32.218-77.782z"
  />
  <path
    d="M284.06 89.07c-3.883-3.926-10.214-3.961-14.142-.079l-.423.421c-3.912 3.898-3.924 10.229-.026 14.142 1.954 1.961 4.519 2.942 7.084 2.942 2.552 0 5.105-.972 7.057-2.916l.371-.368c3.927-3.883 3.962-10.215.079-14.142z"
  />
  <path
    d="M347.263 0c-90.837 0-164.738 73.901-164.738 164.738 0 26.82 6.597 53.448 19.078 77.004 2.586 4.88 8.637 6.74 13.518 4.155 4.88-2.586 6.74-8.638 4.155-13.518-10.958-20.683-16.75-44.072-16.75-67.641C202.525 84.929 267.454 20 347.263 20S492 84.929 492 164.738c0 33.571-11.754 66.288-33.098 92.122-.313.379-.594.776-.842 1.188l-89.879 115.148c-5.934-2.203-12.347-3.411-19.038-3.411h-24.781l-28.503-67.141c-7.209-16.982-23.788-27.955-42.237-27.955H136.949c-18.449 0-35.027 10.973-42.237 27.955l-28.503 67.141H54.856C24.608 369.784 0 394.393 0 424.641v51.137c0 2.655 1.056 5.201 2.935 7.077 1.875 1.872 4.417 2.923 7.065 2.923h.016l48.557-.076C62.927 500.867 76.914 512 93.461 512c16.548 0 30.535-11.134 34.889-26.301h159.886c4.355 15.167 18.342 26.301 34.89 26.301 16.545 0 30.529-11.129 34.887-26.291l35.968.068H394c2.648 0 5.189-1.051 7.064-2.922 1.879-1.876 2.936-4.422 2.936-7.078V424.64c0-16.333-7.183-31.012-18.546-41.07l89.131-114.189c.194-.249.375-.504.542-.767C498.914 239.36 512 202.523 512 164.738 512 73.901 438.099 0 347.263 0zm31.47 406.247h-20.494l-5.191-16.238c10.833 1.213 20.176 7.409 25.685 16.238zM205.286 294.688h48.336c10.408 0 19.76 6.19 23.827 15.77l25.186 59.326h-97.349v-75.096zM20 424.641c0-3.38.493-6.644 1.394-9.737H34.49c4.325 0 7.844 3.519 7.844 7.844s-3.519 7.844-7.844 7.844H20v-5.951zM93.461 492c-8.989 0-16.302-7.313-16.302-16.301s7.313-16.301 16.302-16.301 16.301 7.313 16.301 16.301S102.45 492 93.461 492zm91.825-26.302h-56.935c-4.354-15.167-18.341-26.301-34.889-26.301-16.549 0-30.537 11.135-34.89 26.303L20 465.762v-15.171h14.49c15.353 0 27.844-12.491 27.844-27.844 0-14.656-11.385-26.695-25.773-27.759 5.322-3.296 11.589-5.205 18.296-5.205h130.429v75.915zm0-95.914h-97.35l25.186-59.326c4.066-9.58 13.419-15.77 23.827-15.77h48.337v75.096zM323.126 492c-8.989 0-16.301-7.313-16.301-16.301s7.313-16.301 16.301-16.301 16.302 7.313 16.302 16.301S332.115 492 323.126 492zM384 465.757l-25.981-.048c-4.351-15.173-18.341-26.312-34.893-26.312-16.548 0-30.535 11.134-34.889 26.301h-82.951v-75.915H331.98l9.432 29.508c1.325 4.143 5.176 6.955 9.525 6.955H384v39.511z"
  />
  <path
    d="M355.519 109.316H326.66c-5.523 0-10 4.477-10 10V218.4c0 5.523 4.477 10 10 10s10-4.477 10-10v-31.365h18.859c21.427 0 38.86-17.433 38.86-38.86s-17.433-38.859-38.86-38.859zm0 57.719H336.66v-37.719h18.859c10.399 0 18.86 8.46 18.86 18.859s-8.46 18.86-18.86 18.86z"
  />
  <path
    d="M155.805 412.689c-5.523 0-10 4.477-10 10v.118c0 5.523 4.477 10 10 10s10-4.477 10-10v-.118c0-5.523-4.477-10-10-10z"
  />
</svg>
