<svg xmlns="http://www.w3.org/2000/svg" viewBox="0 0 59 52">
  <g fill="none" fill-rule="evenodd" transform="translate(0 -4)">
    <path
      fill="#E6A734"
      d="M45.63 20.44c7.56 2.1 12.51 5.6 12.51 9.56 0 3.96-4.95 7.46-12.51 9.56A57.4 57.4 0 0 0 42.16 30a57.4 57.4 0 0 0 3.47-9.56ZM12.5 39.56C4.95 37.46 0 33.96 0 30c0-3.96 4.95-7.46 12.51-9.56.78 3 1.94 6.23 3.47 9.56a57.4 57.4 0 0 0-3.47 9.56Z"
    />
    <path
      fill="#45B892"
      d="M45.63 39.56c1.96 7.6 1.4 13.63-2.03 15.62-3.43 1.98-8.93-.56-14.53-6.06a57.4 57.4 0 0 0 6.54-7.79 57.4 57.4 0 0 0 10.02-1.77ZM12.5 20.44c-1.96-7.6-1.4-13.63 2.02-15.62 3.44-1.98 8.94.56 14.54 6.06a57.4 57.4 0 0 0-6.54 7.79 57.4 57.4 0 0 0-10.02 1.77Z"
    />
    <path
      fill="#DD1D64"
      d="M29.07 10.88c5.6-5.5 11.1-8.04 14.53-6.06 3.43 1.99 3.99 8.02 2.03 15.62a57.4 57.4 0 0 0-10.02-1.77 57.4 57.4 0 0 0-6.54-7.79Zm0 38.24c-5.6 5.5-11.1 8.04-14.54 6.06-3.43-1.99-3.98-8.02-2.02-15.62a57.4 57.4 0 0 0 10.02 1.77 57.4 57.4 0 0 0 6.54 7.79Z"
    />
    <g>
      <path
        fill="#c7120d"
        d="M45.63 20.44a57.4 57.4 0 0 0-10.02-1.77A71.54 71.54 0 0 1 42.16 30a57.4 57.4 0 0 0 3.47-9.56ZM12.5 39.56a57.4 57.4 0 0 0 10.02 1.77A71.54 71.54 0 0 1 15.98 30a57.4 57.4 0 0 0-3.47 9.56Z"
      />
      <path
        fill="#41193b"
        d="M29.07 10.88a57.4 57.4 0 0 0-6.54 7.79 71.54 71.54 0 0 1 13.08 0 57.4 57.4 0 0 0-6.54-7.79Zm0 38.24a57.4 57.4 0 0 0 6.54-7.79 71.54 71.54 0 0 1-13.08 0 57.4 57.4 0 0 0 6.54 7.79Z"
      />
      <path
        fill="#40781f"
        d="M45.63 39.56A57.4 57.4 0 0 0 42.16 30a71.54 71.54 0 0 1-6.55 11.33 57.4 57.4 0 0 0 10.02-1.77ZM12.5 20.44c.78 3 1.94 6.23 3.47 9.56a71.54 71.54 0 0 1 6.55-11.33 57.4 57.4 0 0 0-10.02 1.77Z"
      />
    </g>
    <circle cx="29.07" cy="30" r="5.81" fill="#02D8FF" />
  </g>
</svg>
