<svg viewBox="0 0 34 38" xmlns="http://www.w3.org/2000/svg">
  <path
    fill-rule="evenodd"
    clip-rule="evenodd"
    d="M31.8861 29.891L31.9122 29.8755C32.5007 29.5227 32.9301 28.9556 33.1143 28.2925C33.2974 27.6292 33.2201 26.9211 32.8981 26.313L29.831 20.4695L6.73627 32.7003L14.9974 37.491C15.572 37.8243 16.2244 37.9999 16.8887 37.9999C17.5529 37.9999 18.2054 37.8243 18.7799 37.491L31.8861 29.891ZM4.15867 23.5881L22.6875 2.77433L18.7799 0.508875C18.2054 0.175552 17.5529 0 16.8887 0C16.2244 0 15.572 0.175552 14.9974 0.508875L1.89128 8.10887C1.31566 8.44291 0.83821 8.92271 0.50699 9.49995C0.174599 10.078 -0.000224294 10.7332 2.15966e-07 11.3999V14.2499C2.15966e-07 16.0123 0.370306 17.7553 1.08668 19.3644C1.80306 20.9736 2.85 22.4122 4.1577 23.5871L4.15867 23.5881Z"
    fill="#4568a5"
  />
  <path
    fill-rule="evenodd"
    clip-rule="evenodd"
    d="M31.8861 8.10886L31.444 7.85197L20.8719 17.6166L29.7389 25.3349C31.1367 26.5515 31.6544 28.3254 31.1144 30.3418L31.887 29.8949C32.4629 29.5604 32.9408 29.0806 33.2733 28.5019C33.6054 27.9227 33.7799 27.2666 33.7793 26.599V11.3999C33.7793 10.733 33.6048 10.0777 33.2723 9.49993C32.9411 8.92269 32.4636 8.4429 31.888 8.10886H31.8861ZM16.435 21.784L4.21878 12.317C2.84128 11.2448 2.2199 9.64049 2.50296 7.75504L1.89225 8.10886C1.31663 8.4429 0.83918 8.92269 0.50796 9.49993C0.174836 10.0777 -0.000351964 10.733 5.3089e-07 11.3999V26.5999C5.3089e-07 27.2678 0.173521 27.9241 0.506021 28.5028C0.837627 29.0809 1.31577 29.5614 1.89225 29.8959L5.39173 31.9248L16.436 21.784H16.435Z"
    fill="#608bd8"
  />
</svg>
