<svg xmlns="http://www.w3.org/2000/svg" viewBox="34.77 -10.23 441.96 531.96">
  <path
    d="M336.055 40c-5.52 0-10 4.48-10 10s4.48 10 10 10 10-4.48 10-10-4.48-10-10-10z"
  />
  <path
    d="M176.055 40c-5.52 0-10 4.48-10 10s4.48 10 10 10 10-4.48 10-10-4.48-10-10-10z"
  />
  <path
    d="M464.038 495.085l-66.172-69.131c26.733-.958 48.189-22.991 48.189-49.954V79.27c0-16.157-5.647-31.935-15.903-44.428-10.263-12.49-24.641-21.097-40.48-24.23C354.18 3.57 317.842 0 281.666 0h-52.83c-34.407 0-70.246 3.296-106.512 10.544-32.605 6.523-56.269 35.394-56.269 68.646V376c0 27.19 21.82 49.365 48.867 49.971l-66.919 69.071c-2.795 2.884-3.593 7.16-2.026 10.857 1.565 3.698 5.192 6.101 9.208 6.101h71.5c3.206 0 6.217-1.537 8.098-4.133L165.117 466h182.766l30.334 41.868c1.881 2.595 4.893 4.132 8.098 4.132h70.5c4.005 0 7.623-2.39 9.196-6.072 1.573-3.684.797-7.949-1.973-10.843zM86.055 376V79.19c0-23.753 16.903-44.375 40.19-49.035C158.888 23.631 193.381 20 228.835 20h52.83c34.873 0 69.901 3.441 104.118 10.229 11.314 2.239 21.584 8.387 28.912 17.306 7.325 8.923 11.359 20.193 11.359 31.734V376c0 16.542-13.458 30-30 30h-280c-16.541 0-29.999-13.458-29.999-30zm35.527 116H78.797l63.943-66h26.662l-47.82 66zm58.026-46l14.491-20h124.803l14.49 20H179.608zm211.81 46L343.6 426h26.625l63.175 66h-41.982z"
  />
  <path
    d="M396.055 80h-280c-5.522 0-10 4.478-10 10v166c0 5.522 4.478 10 10 10h280c5.522 0 10-4.478 10-10V90c0-5.522-4.478-10-10-10zm-150 166h-120V100h120v146zm140 0h-120V100h120v146z"
  />
  <path
    d="M296.055 40h-80c-5.522 0-10 4.478-10 10s4.478 10 10 10h80c5.522 0 10-4.478 10-10s-4.478-10-10-10z"
  />
  <path
    d="M366.055 296c-22.056 0-40 17.944-40 40s17.944 40 40 40 40-17.944 40-40-17.944-40-40-40zm0 60c-11.028 0-20-8.972-20-20s8.972-20 20-20 20 8.972 20 20-8.972 20-20 20z"
  />
  <path
    d="M146.055 296c-22.056 0-40 17.944-40 40s17.945 40 40 40c22.056 0 40-17.944 40-40s-17.944-40-40-40zm0 60c-11.028 0-20-8.972-20-20s8.972-20 20-20 20 8.972 20 20-8.972 20-20 20z"
  />
  <path
    d="M296.055 306h-80c-5.522 0-10 4.478-10 10s4.478 10 10 10h80c5.522 0 10-4.478 10-10s-4.477-10-10-10z"
  />
  <path
    d="M296.055 346h-80c-5.522 0-10 4.478-10 10s4.478 10 10 10h80c5.522 0 10-4.478 10-10s-4.477-10-10-10z"
  />
</svg>
