<svg viewBox="0 0 100 100" fill="#e10098" xmlns="http://www.w3.org/2000/svg"><style>svg{fill:color(display-p3 0.8824 0 0.5961);}</style>
<path d="M13.602 76.2156L9.93091 74.0961L50.8272 3.26367L54.4983 5.38318L13.602 76.2156Z"/>
<path d="M9.09033 68.437H90.883V72.676H9.09033V68.437Z"/>
<path d="M87.1602 32.8771L46.2485 9.25605L48.368 5.58496L89.2797 29.206L87.1602 32.8771Z"/>
<path d="M12.8396 32.8607L10.7201 29.1899L51.6317 5.56885L53.7512 9.23968L12.8396 32.8607Z"/>
<path d="M12.3334 26.3789H16.5724V73.621H12.3334V26.3789Z"/>
<path d="M83.4265 26.3789H87.6655V73.621H83.4265V26.3789Z"/>
<path d="M50.8987 92.645L49.0474 89.4384L84.6293 68.8945L86.4807 72.1011L50.8987 92.645Z"/>
<path d="M93.2832 74.9997C90.8318 79.2643 85.367 80.7198 81.1024 78.2683C76.8379 75.8169 75.3823 70.3521 77.8338 66.0876C80.2853 61.823 85.75 60.3674 90.0146 62.8189C94.3047 65.2959 95.7603 70.7351 93.2832 74.9997Z"/>
<path d="M22.1394 33.9118C19.688 38.1764 14.2232 39.6319 9.95865 37.1805C5.69409 34.729 4.23853 29.2642 6.69001 24.9997C9.14149 20.7351 14.6062 19.2795 18.8708 21.731C23.1354 24.208 24.5909 29.6473 22.1394 33.9118Z"/>
<path d="M6.7154 74.9997C4.26392 70.7351 5.71948 65.2959 9.98404 62.8189C14.2486 60.3674 19.6878 61.823 22.1648 66.0876C24.6163 70.3521 23.1607 75.7913 18.8962 78.2683C14.6061 80.7198 9.16688 79.2643 6.7154 74.9997Z"/>
<path d="M77.8596 33.9118C75.4081 29.6473 76.8636 24.208 81.1282 21.731C85.3928 19.2795 90.832 20.7351 93.309 24.9997C95.7605 29.2642 94.3049 34.7034 90.0404 37.1805C85.7758 39.6319 80.311 38.1764 77.8596 33.9118Z"/>
<path d="M49.9996 100C45.0711 100 41.0874 96.0164 41.0874 91.0879C41.0874 86.1594 45.0711 82.1758 49.9996 82.1758C54.928 82.1758 58.9117 86.1594 58.9117 91.0879C58.9117 95.9909 54.928 100 49.9996 100Z"/>
<path d="M49.9996 17.8243C45.0711 17.8243 41.0874 13.8406 41.0874 8.91215C41.0874 3.98365 45.0711 0 49.9996 0C54.928 0 58.9117 3.98365 58.9117 8.91215C58.9117 13.8406 54.928 17.8243 49.9996 17.8243Z"/>
</svg>
