<svg viewBox="0 0 100 100" fill="#e10098" xmlns="http://www.w3.org/2000/svg"><style>svg{fill:color(display-p3 0.8824 0 0.5961);}</style>
<path fill-rule="evenodd" clip-rule="evenodd" d="M50 6.46777L87.7 28.2339V71.7661L50 93.5322L12.3 71.7661V28.2339L50 6.46777ZM16.53 30.6761V62.6517L44.2217 14.6883L16.53 30.6761ZM50 13.14L18.0783 68.43H81.9217L50 13.14ZM77.6917 72.66H22.3083L50 88.6478L77.6917 72.66ZM83.47 62.6517L55.7784 14.6883L83.47 30.6761V62.6517Z"/>
<path d="M14.5 35.04C17.8137 35.04 20.5 32.3537 20.5 29.04C20.5 25.7263 17.8137 23.04 14.5 23.04C11.1863 23.04 8.5 25.7263 8.5 29.04C8.5 32.3537 11.1863 35.04 14.5 35.04Z"/>
<path d="M14.5 76.1348C17.8137 76.1348 20.5 73.4485 20.5 70.1348C20.5 66.8211 17.8137 64.1348 14.5 64.1348C11.1863 64.1348 8.5 66.8211 8.5 70.1348C8.5 73.4485 11.1863 76.1348 14.5 76.1348Z"/>
<path d="M50.09 96.6802C53.4037 96.6802 56.09 93.9939 56.09 90.6802C56.09 87.3665 53.4037 84.6802 50.09 84.6802C46.7763 84.6802 44.09 87.3665 44.09 90.6802C44.09 93.9939 46.7763 96.6802 50.09 96.6802Z"/>
<path d="M85.675 76.1348C88.9888 76.1348 91.675 73.4485 91.675 70.1348C91.675 66.8211 88.9888 64.1348 85.675 64.1348C82.3613 64.1348 79.675 66.8211 79.675 70.1348C79.675 73.4485 82.3613 76.1348 85.675 76.1348Z"/>
<path d="M85.675 35.0449C88.9888 35.0449 91.675 32.3586 91.675 29.0449C91.675 25.7312 88.9888 23.0449 85.675 23.0449C82.3613 23.0449 79.675 25.7312 79.675 29.0449C79.675 32.3586 82.3613 35.0449 85.675 35.0449Z"/>
<path d="M50.09 14.5C53.4037 14.5 56.09 11.8137 56.09 8.5C56.09 5.18629 53.4037 2.5 50.09 2.5C46.7763 2.5 44.09 5.18629 44.09 8.5C44.09 11.8137 46.7763 14.5 50.09 14.5Z"/>
</svg>
