<svg viewBox="0 0 100 100" fill="#e10098" xmlns="http://www.w3.org/2000/svg"><style>svg{fill:color(display-p3 0.8824 0 0.5961);}</style>
<path fill-rule="evenodd" clip-rule="evenodd" d="M50.1401 9.31592L85.3738 29.6581V70.3424L50.1401 90.6845L14.9065 70.3424V29.6581L50.1401 9.31592ZM18.8598 31.9405V61.8242L44.7399 16.9986L18.8598 31.9405ZM50.1401 15.5516L20.3068 67.2245H79.9735L50.1401 15.5516ZM76.0202 71.1778H24.26L50.1401 86.1196L76.0202 71.1778ZM81.4205 61.8242L55.5404 16.9986L81.4205 31.9405V61.8242Z"/>
<path d="M16.6822 42.5232C23.1342 42.5232 28.3645 37.2929 28.3645 30.8409C28.3645 24.389 23.1342 19.1587 16.6822 19.1587C10.2303 19.1587 5 24.389 5 30.8409C5 37.2929 10.2303 42.5232 16.6822 42.5232Z"/>
<path d="M16.6822 80.8411C23.1342 80.8411 28.3645 75.6107 28.3645 69.1588C28.3645 62.7069 23.1342 57.4766 16.6822 57.4766C10.2303 57.4766 5 62.7069 5 69.1588C5 75.6107 10.2303 80.8411 16.6822 80.8411Z"/>
<path d="M50.1403 100C56.5922 100 61.8225 94.7699 61.8225 88.318C61.8225 81.8661 56.5922 76.6357 50.1403 76.6357C43.6883 76.6357 38.458 81.8661 38.458 88.318C38.458 94.7699 43.6883 100 50.1403 100Z"/>
<path d="M83.3177 80.8411C89.7697 80.8411 95 75.6107 95 69.1588C95 62.7069 89.7697 57.4766 83.3177 57.4766C76.8658 57.4766 71.6355 62.7069 71.6355 69.1588C71.6355 75.6107 76.8658 80.8411 83.3177 80.8411Z"/>
<path d="M83.3177 42.5232C89.7697 42.5232 95 37.2929 95 30.8409C95 24.389 89.7697 19.1587 83.3177 19.1587C76.8658 19.1587 71.6355 24.389 71.6355 30.8409C71.6355 37.2929 76.8658 42.5232 83.3177 42.5232Z"/>
<path d="M50.1403 23.3645C56.5922 23.3645 61.8225 18.1342 61.8225 11.6822C61.8225 5.23032 56.5922 0 50.1403 0C43.6883 0 38.458 5.23032 38.458 11.6822C38.458 18.1342 43.6883 23.3645 50.1403 23.3645Z"/>
</svg>
