<svg viewBox="0 0 102 100" fill="#e10098" xmlns="http://www.w3.org/2000/svg"><style>svg{fill:color(display-p3 0.8824 0 0.5961);}</style>
<path fill-rule="evenodd" clip-rule="evenodd" d="M72.7661 12.2999L94.5322 49.9999L72.7661 87.6999L29.2339 87.6999L7.46777 49.9999L29.2339 12.2999L72.7661 12.2999ZM31.6761 16.5299L15.6883 44.2216L63.6517 16.5299L31.6761 16.5299ZM69.43 18.0782L14.14 49.9999L69.43 81.9216V18.0782ZM63.6517 83.4699L15.6883 55.7782L31.6761 83.4699L63.6517 83.4699ZM73.66 77.6916L73.66 22.3082L89.6478 49.9999L73.66 77.6916Z"/>
<path d="M25.9981 22.1244C30.2597 24.5848 35.709 23.1247 38.1694 18.8631C40.6298 14.6015 39.1697 9.15221 34.9081 6.69178C30.6465 4.23135 25.1973 5.69148 22.7368 9.95307C20.2764 14.2147 21.7365 19.6639 25.9981 22.1244Z"/>
<path d="M5.45063 57.7137C9.71221 60.1741 15.1615 58.714 17.6219 54.4524C20.0823 50.1908 18.6222 44.7415 14.3606 42.2811C10.099 39.8207 4.64977 41.2808 2.18934 45.5424C-0.271086 49.804 1.18904 55.2532 5.45063 57.7137Z"/>
<path d="M26 93.3012C30.2616 95.7616 35.7108 94.3015 38.1713 90.0399C40.6317 85.7783 39.1716 80.329 34.91 77.8686C30.6484 75.4082 25.1991 76.8683 22.7387 81.1299C20.2783 85.3915 21.7384 90.8407 26 93.3012Z"/>
<path d="M67.09 93.3012C71.3516 95.7616 76.8008 94.3015 79.2613 90.0399C81.7217 85.7783 80.2616 80.329 76 77.8686C71.7384 75.4082 66.2891 76.8683 63.8287 81.1299C61.3683 85.3915 62.8284 90.8407 67.09 93.3012Z"/>
<path d="M87.635 57.7162C91.8966 60.1766 97.3458 58.7165 99.8063 54.4549C102.267 50.1933 100.807 44.744 96.545 42.2836C92.2834 39.8232 86.8341 41.2833 84.3737 45.5449C81.9133 49.8065 83.3734 55.2558 87.635 57.7162Z"/>
<path d="M67.09 22.1312C71.3516 24.5916 76.8008 23.1315 79.2613 18.8699C81.7217 14.6083 80.2616 9.15905 76 6.69862C71.7384 4.23819 66.2891 5.69832 63.8287 9.95991C61.3683 14.2215 62.8284 19.6708 67.09 22.1312Z"/>
</svg>
