<svg viewBox="0 0 367 100" fill="#e10098" xmlns="http://www.w3.org/2000/svg"><style>svg{fill:color(display-p3 0.8824 0 0.5961);}</style>
<path fill-rule="evenodd" clip-rule="evenodd" d="M50 6.46777L87.7 28.2339V71.7661L50 93.5322L12.3 71.7661V28.2339L50 6.46777ZM16.53 30.6761V62.6517L44.2217 14.6883L16.53 30.6761ZM50 13.14L18.0783 68.43H81.9217L50 13.14ZM77.6917 72.66H22.3083L50 88.6478L77.6917 72.66ZM83.47 62.6517L55.7784 14.6883L83.47 30.6761V62.6517Z"/>
<path d="M14.41 38.36C19.3309 38.36 23.32 34.3709 23.32 29.45C23.32 24.5292 19.3309 20.54 14.41 20.54C9.48914 20.54 5.5 24.5292 5.5 29.45C5.5 34.3709 9.48914 38.36 14.41 38.36Z"/>
<path d="M14.41 79.4548C19.3309 79.4548 23.32 75.4656 23.32 70.5448C23.32 65.6239 19.3309 61.6348 14.41 61.6348C9.48914 61.6348 5.5 65.6239 5.5 70.5448C5.5 75.4656 9.48914 79.4548 14.41 79.4548Z"/>
<path d="M50.0001 100C54.9209 100 58.9101 96.011 58.9101 91.0902C58.9101 86.1693 54.9209 82.1802 50.0001 82.1802C45.0792 82.1802 41.0901 86.1693 41.0901 91.0902C41.0901 96.011 45.0792 100 50.0001 100Z"/>
<path d="M85.585 79.4548C90.5059 79.4548 94.495 75.4656 94.495 70.5448C94.495 65.6239 90.5059 61.6348 85.585 61.6348C80.6642 61.6348 76.675 65.6239 76.675 70.5448C76.675 75.4656 80.6642 79.4548 85.585 79.4548Z"/>
<path d="M85.585 38.3649C90.5059 38.3649 94.495 34.3758 94.495 29.4549C94.495 24.5341 90.5059 20.5449 85.585 20.5449C80.6642 20.5449 76.675 24.5341 76.675 29.4549C76.675 34.3758 80.6642 38.3649 85.585 38.3649Z"/>
<path d="M50.0001 17.82C54.9209 17.82 58.9101 13.8309 58.9101 8.91C58.9101 3.98914 54.9209 0 50.0001 0C45.0792 0 41.0901 3.98914 41.0901 8.91C41.0901 13.8309 45.0792 17.82 50.0001 17.82Z"/>
<path d="M130.159 62.8C127.311 62.8 125.101 61.9733 123.529 60.32C121.957 58.6667 121.125 56.4507 121.034 53.6722C121.011 52.9833 121 51.8926 121 50.4C121 48.9074 121.011 47.8167 121.034 47.1278C121.125 44.3493 121.957 42.1333 123.529 40.48C125.101 38.8267 127.311 38 130.159 38C132.096 38 133.725 38.3674 135.047 39.1022C136.368 39.837 137.348 40.7096 137.986 41.72C138.647 42.7074 139 43.5915 139.045 44.3722V44.4411C139.045 44.6248 138.977 44.7741 138.84 44.8889C138.704 45.0037 138.533 45.0611 138.328 45.0611H137.576C137.371 45.0611 137.223 45.0152 137.131 44.9233C137.04 44.8315 136.949 44.6478 136.858 44.3722C136.471 43.1552 135.719 42.1333 134.602 41.3067C133.509 40.48 132.028 40.0667 130.159 40.0667C128.04 40.0667 126.366 40.6522 125.135 41.8233C123.928 42.9944 123.278 44.82 123.187 47.3C123.165 47.9889 123.153 49.0222 123.153 50.4C123.153 51.7778 123.165 52.8111 123.187 53.5C123.278 55.98 123.928 57.8056 125.135 58.9767C126.366 60.1478 128.04 60.7333 130.159 60.7333C132.278 60.7333 133.987 60.1248 135.286 58.9078C136.585 57.6907 137.234 55.8881 137.234 53.5V51.7433H131.287C131.059 51.7433 130.877 51.6744 130.74 51.5367C130.604 51.3759 130.535 51.1807 130.535 50.9511V50.4689C130.535 50.2393 130.604 50.0556 130.74 49.9178C130.877 49.757 131.059 49.6767 131.287 49.6767H138.601C138.852 49.6767 139.045 49.7456 139.182 49.8833C139.319 50.0211 139.387 50.2163 139.387 50.4689V53.5C139.387 55.337 139.023 56.9559 138.293 58.3567C137.564 59.7574 136.505 60.8481 135.115 61.6289C133.725 62.4096 132.073 62.8 130.159 62.8Z"/>
<path d="M144.96 62.4556C144.732 62.4556 144.55 62.3867 144.413 62.2489C144.276 62.1111 144.208 61.9274 144.208 61.6978V45.3367C144.208 45.107 144.276 44.9233 144.413 44.7856C144.55 44.6248 144.732 44.5444 144.96 44.5444H145.507C145.735 44.5444 145.917 44.6248 146.054 44.7856C146.213 44.9233 146.293 45.107 146.293 45.3367V46.9211C147.113 45.3367 148.662 44.5444 150.941 44.5444H152.205C152.433 44.5444 152.616 44.6133 152.752 44.7511C152.889 44.8889 152.957 45.0726 152.957 45.3022V45.7844C152.957 46.0141 152.889 46.1978 152.752 46.3356C152.616 46.4733 152.433 46.5422 152.205 46.5422H150.736C149.369 46.5422 148.287 46.9441 147.489 47.7478C146.692 48.5515 146.293 49.6422 146.293 51.02V61.6978C146.293 61.9274 146.213 62.1111 146.054 62.2489C145.917 62.3867 145.735 62.4556 145.507 62.4556H144.96Z"/>
<path d="M160.608 62.8C159.514 62.8 158.5 62.5704 157.566 62.1111C156.632 61.6519 155.88 61.0319 155.31 60.2511C154.763 59.4704 154.49 58.6093 154.49 57.6678C154.49 56.1522 155.094 54.9122 156.301 53.9478C157.532 52.9833 159.184 52.3633 161.257 52.0878L166.657 51.33V50.1244C166.657 48.8615 166.27 47.897 165.495 47.2311C164.743 46.5422 163.581 46.1978 162.009 46.1978C160.847 46.1978 159.89 46.4274 159.138 46.8867C158.409 47.3459 157.942 47.897 157.737 48.54C157.646 48.8156 157.532 49.0107 157.395 49.1256C157.281 49.2174 157.122 49.2633 156.916 49.2633H156.438C156.233 49.2633 156.051 49.1944 155.891 49.0567C155.754 48.8959 155.686 48.7122 155.686 48.5056C155.686 48.0004 155.914 47.4148 156.37 46.7489C156.825 46.06 157.532 45.463 158.489 44.9578C159.446 44.4526 160.619 44.2 162.009 44.2C164.447 44.2 166.178 44.7856 167.204 45.9567C168.229 47.1278 168.742 48.5515 168.742 50.2278V61.6978C168.742 61.9274 168.673 62.1111 168.537 62.2489C168.4 62.3867 168.218 62.4556 167.99 62.4556H167.409C167.181 62.4556 166.999 62.3867 166.862 62.2489C166.725 62.1111 166.657 61.9274 166.657 61.6978V60.0789C166.156 60.8367 165.415 61.4796 164.435 62.0078C163.478 62.5359 162.202 62.8 160.608 62.8ZM160.949 60.8022C162.613 60.8022 163.98 60.2511 165.051 59.1489C166.121 58.0467 166.657 56.4622 166.657 54.3956V53.2244L162.248 53.8444C160.38 54.097 158.967 54.5333 158.01 55.1533C157.053 55.7733 156.575 56.5541 156.575 57.4956C156.575 58.5519 157.008 59.367 157.873 59.9411C158.762 60.5152 159.787 60.8022 160.949 60.8022Z"/>
<path d="M174.932 69C174.704 69 174.522 68.9311 174.385 68.7933C174.249 68.6556 174.18 68.4719 174.18 68.2422V45.3022C174.18 45.0726 174.249 44.8889 174.385 44.7511C174.522 44.6133 174.704 44.5444 174.932 44.5444H175.513C175.741 44.5444 175.923 44.6133 176.06 44.7511C176.197 44.8889 176.265 45.0726 176.265 45.3022V46.9211C177.587 45.107 179.5 44.2 182.007 44.2C184.467 44.2 186.279 44.9922 187.441 46.5767C188.626 48.1381 189.252 50.067 189.321 52.3633C189.343 52.593 189.355 52.9719 189.355 53.5C189.355 54.0281 189.343 54.407 189.321 54.6367C189.252 56.933 188.626 58.8733 187.441 60.4578C186.279 62.0193 184.467 62.8 182.007 62.8C179.523 62.8 177.609 61.893 176.265 60.0789V68.2422C176.265 68.4719 176.197 68.6556 176.06 68.7933C175.923 68.9311 175.741 69 175.513 69H174.932ZM181.802 60.8022C183.647 60.8022 184.991 60.2167 185.834 59.0456C186.7 57.8515 187.167 56.3244 187.236 54.4644C187.259 54.2348 187.27 53.9133 187.27 53.5C187.27 51.3644 186.86 49.6193 186.04 48.2644C185.219 46.8867 183.807 46.1978 181.802 46.1978C180.002 46.1978 178.646 46.8063 177.735 48.0233C176.823 49.2174 176.333 50.6296 176.265 52.26L176.231 53.6033L176.265 54.9467C176.288 55.9341 176.504 56.8756 176.914 57.7711C177.324 58.6437 177.94 59.367 178.76 59.9411C179.58 60.5152 180.594 60.8022 181.802 60.8022Z"/>
<path d="M194.791 62.4556C194.563 62.4556 194.381 62.3867 194.244 62.2489C194.107 62.1111 194.039 61.9274 194.039 61.6978V38.7578C194.039 38.5281 194.107 38.3444 194.244 38.2067C194.381 38.0689 194.563 38 194.791 38H195.372C195.599 38 195.782 38.0689 195.918 38.2067C196.055 38.3444 196.124 38.5281 196.124 38.7578V46.9211C196.807 46.0256 197.582 45.3481 198.448 44.8889C199.336 44.4296 200.475 44.2 201.865 44.2C204.098 44.2 205.818 44.9233 207.026 46.37C208.233 47.7937 208.837 49.6422 208.837 51.9156V61.6978C208.837 61.9274 208.769 62.1111 208.632 62.2489C208.495 62.3867 208.313 62.4556 208.085 62.4556H207.504C207.277 62.4556 207.094 62.3867 206.958 62.2489C206.821 62.1111 206.752 61.9274 206.752 61.6978V52.0878C206.752 50.2278 206.297 48.7811 205.385 47.7478C204.497 46.7144 203.21 46.1978 201.523 46.1978C199.883 46.1978 198.573 46.7259 197.593 47.7822C196.613 48.8156 196.124 50.2507 196.124 52.0878V61.6978C196.124 61.9274 196.055 62.1111 195.918 62.2489C195.782 62.3867 195.599 62.4556 195.372 62.4556H194.791Z"/>
<path d="M230.123 64.6944C229.781 64.6944 229.417 64.4304 229.03 63.9022L227.526 61.8011C226.159 62.467 224.564 62.8 222.741 62.8C216.885 62.8 213.878 59.6311 213.718 53.2933C213.696 52.6044 213.684 51.64 213.684 50.4C213.684 49.16 213.696 48.1956 213.718 47.5067C213.81 44.3837 214.653 42.0185 216.247 40.4111C217.842 38.8037 220.007 38 222.741 38C225.475 38 227.64 38.8037 229.235 40.4111C230.83 42.0185 231.673 44.3837 231.764 47.5067C231.809 48.8844 231.832 49.8489 231.832 50.4C231.832 50.9511 231.809 51.9156 231.764 53.2933C231.65 56.577 230.818 58.9881 229.269 60.5267L231.456 63.6267C231.524 63.7644 231.559 63.8907 231.559 64.0056C231.559 64.1893 231.49 64.35 231.354 64.4878C231.217 64.6256 231.057 64.6944 230.875 64.6944H230.123ZM222.741 60.7333C224.792 60.7333 226.421 60.1133 227.628 58.8733C228.859 57.6104 229.519 55.693 229.611 53.1211C229.656 51.7433 229.679 50.8363 229.679 50.4C229.679 49.9637 229.656 49.0567 229.611 47.6789C229.519 45.107 228.859 43.2011 227.628 41.9611C226.398 40.6981 224.769 40.0667 222.741 40.0667C220.713 40.0667 219.084 40.6981 217.854 41.9611C216.623 43.2011 215.963 45.107 215.872 47.6789C215.849 48.3678 215.837 49.2748 215.837 50.4C215.837 51.5252 215.849 52.4322 215.872 53.1211C215.963 55.693 216.612 57.6104 217.82 58.8733C219.05 60.1133 220.69 60.7333 222.741 60.7333Z"/>
<path d="M238.022 62.4556C237.794 62.4556 237.612 62.3867 237.475 62.2489C237.338 62.1111 237.27 61.9274 237.27 61.6978V39.1022C237.27 38.8726 237.338 38.6889 237.475 38.5511C237.612 38.4133 237.794 38.3444 238.022 38.3444H238.671C238.899 38.3444 239.081 38.4133 239.218 38.5511C239.355 38.6889 239.423 38.8726 239.423 39.1022V60.3889H251.214C251.465 60.3889 251.658 60.4578 251.795 60.5956C251.932 60.7333 252 60.9285 252 61.1811V61.6978C252 61.9274 251.92 62.1111 251.761 62.2489C251.624 62.3867 251.442 62.4556 251.214 62.4556H238.022Z"/>
</svg>
