<svg viewBox="0 0 100 100" fill="#e10098" xmlns="http://www.w3.org/2000/svg"><style>svg{fill:color(display-p3 0.8824 0 0.5961);}</style>
<path d="M42.8 18L46.4806 20.125L22.9806 60.8282L19.3 58.7032L42.8 18Z"/>
<path d="M13 41H17V58H13V41Z"/>
<path d="M84 41H88V58H84V41Z"/>
<path d="M60 16.8L62 13.3359L76.7224 21.8359L74.7224 25.3L60 16.8Z"/>
<path d="M38.7224 13.5L40.7224 16.9641L26 25.4641L24 22L38.7224 13.5Z"/>
<path d="M74.7224 75L76.7224 78.4641L62 86.9641L60 83.5L74.7224 75Z"/>
<path d="M24.3 78.2L26.3 74.7359L41.0225 83.2359L39.0225 86.7L24.3 78.2Z"/>
<path d="M54.5 20.125L58.1806 18L81.6806 58.7032L78 60.8282L54.5 20.125Z"/>
<path d="M27 72.7V68.45L74 68.45V72.7L27 72.7Z"/>
<path d="M93.7832 74.9997C91.3318 79.2643 85.867 80.7198 81.6024 78.2683C77.3379 75.8169 75.8823 70.3521 78.3338 66.0876C80.7853 61.823 86.25 60.3674 90.5146 62.8189C94.8047 65.2959 96.2603 70.7351 93.7832 74.9997Z"/>
<path d="M22.6394 33.9118C20.188 38.1764 14.7232 39.6319 10.4586 37.1805C6.19409 34.729 4.73853 29.2642 7.19001 24.9997C9.64149 20.7351 15.1062 19.2795 19.3708 21.731C23.6354 24.208 25.0909 29.6473 22.6394 33.9118Z"/>
<path d="M7.2154 74.9997C4.76392 70.7351 6.21948 65.2959 10.484 62.8189C14.7486 60.3674 20.1878 61.823 22.6648 66.0876C25.1163 70.3521 23.6607 75.7913 19.3962 78.2683C15.1061 80.7198 9.66688 79.2643 7.2154 74.9997Z"/>
<path d="M78.3596 33.9118C75.9081 29.6473 77.3636 24.208 81.6282 21.731C85.8928 19.2795 91.332 20.7351 93.809 24.9997C96.2605 29.2642 94.8049 34.7034 90.5404 37.1805C86.2758 39.6319 80.811 38.1764 78.3596 33.9118Z"/>
<path d="M50.4996 100C45.5711 100 41.5874 96.0164 41.5874 91.0879C41.5874 86.1594 45.5711 82.1758 50.4996 82.1758C55.428 82.1758 59.4117 86.1594 59.4117 91.0879C59.4117 95.9909 55.428 100 50.4996 100Z"/>
<path d="M50.4996 17.8243C45.5711 17.8243 41.5874 13.8406 41.5874 8.91215C41.5874 3.98365 45.5711 0 50.4996 0C55.428 0 59.4117 3.98365 59.4117 8.91215C59.4117 13.8406 55.428 17.8243 50.4996 17.8243Z"/>
</svg>
