<svg viewBox="0 0 100 100" fill="#e10098" xmlns="http://www.w3.org/2000/svg"><style>svg{fill:color(display-p3 0.8824 0 0.5961);}</style>
<path fill-rule="evenodd" clip-rule="evenodd" d="M50 20.3981L87.7 35.1991V64.801L50 79.6019L12.3 64.801V35.1991L50 20.3981ZM16.53 36.8598V58.6032L44.2217 25.9881L16.53 36.8598ZM50 24.9352L18.0783 62.5324H81.9217L50 24.9352ZM77.6917 65.4088H22.3083L50 76.2805L77.6917 65.4088ZM83.47 58.6032L55.7783 25.9881L83.47 36.8598V58.6032Z"/>
<path d="M14.41 42.0848C19.3309 42.0848 23.32 39.3722 23.32 36.026C23.32 32.6798 19.3309 29.9672 14.41 29.9672C9.48914 29.9672 5.5 32.6798 5.5 36.026C5.5 39.3722 9.48914 42.0848 14.41 42.0848Z"/>
<path d="M14.41 70.0294C19.3309 70.0294 23.32 67.3168 23.32 63.9706C23.32 60.6244 19.3309 57.9118 14.41 57.9118C9.48914 57.9118 5.5 60.6244 5.5 63.9706C5.5 67.3168 9.48914 70.0294 14.41 70.0294Z"/>
<path d="M50 84C54.9209 84 58.91 81.2874 58.91 77.9412C58.91 74.595 54.9209 71.8824 50 71.8824C45.0791 71.8824 41.09 74.595 41.09 77.9412C41.09 81.2874 45.0791 84 50 84Z"/>
<path d="M85.585 70.0294C90.5059 70.0294 94.495 67.3168 94.495 63.9706C94.495 60.6244 90.5059 57.9118 85.585 57.9118C80.6641 57.9118 76.675 60.6244 76.675 63.9706C76.675 67.3168 80.6641 70.0294 85.585 70.0294Z"/>
<path d="M85.585 42.0882C90.5059 42.0882 94.495 39.3756 94.495 36.0294C94.495 32.6832 90.5059 29.9706 85.585 29.9706C80.6641 29.9706 76.675 32.6832 76.675 36.0294C76.675 39.3756 80.6641 42.0882 85.585 42.0882Z"/>
<path d="M50 28.1176C54.9209 28.1176 58.91 25.405 58.91 22.0588C58.91 18.7126 54.9209 16 50 16C45.0791 16 41.09 18.7126 41.09 22.0588C41.09 25.405 45.0791 28.1176 50 28.1176Z"/>
</svg>
