<svg width="247" height="100" viewBox="0 0 247 100" fill="#E10098" xmlns="http://www.w3.org/2000/svg">
    <path fill-rule="evenodd" clip-rule="evenodd" d="M45 6.46777L82.7 28.2339V71.7661L45 93.5322L7.29999 71.7661V28.2339L45 6.46777ZM11.53 30.6761V62.6517L39.2217 14.6883L11.53 30.6761ZM45 13.14L13.0783 68.43H76.9217L45 13.14ZM72.6917 72.66H17.3083L45 88.6478L72.6917 72.66ZM78.47 62.6517L50.7784 14.6883L78.47 30.6761V62.6517Z" />
    <path d="M9.41 38.36C14.3309 38.36 18.32 34.3709 18.32 29.45C18.32 24.5292 14.3309 20.54 9.41 20.54C4.48914 20.54 0.5 24.5292 0.5 29.45C0.5 34.3709 4.48914 38.36 9.41 38.36Z" />
    <path d="M9.41 79.4548C14.3309 79.4548 18.32 75.4656 18.32 70.5448C18.32 65.6239 14.3309 61.6348 9.41 61.6348C4.48914 61.6348 0.5 65.6239 0.5 70.5448C0.5 75.4656 4.48914 79.4548 9.41 79.4548Z" />
    <path d="M45.0001 100C49.9209 100 53.9101 96.011 53.9101 91.0902C53.9101 86.1693 49.9209 82.1802 45.0001 82.1802C40.0792 82.1802 36.0901 86.1693 36.0901 91.0902C36.0901 96.011 40.0792 100 45.0001 100Z" />
    <path d="M80.585 79.4548C85.5059 79.4548 89.495 75.4656 89.495 70.5448C89.495 65.6239 85.5059 61.6348 80.585 61.6348C75.6642 61.6348 71.675 65.6239 71.675 70.5448C71.675 75.4656 75.6642 79.4548 80.585 79.4548Z" />
    <path d="M80.585 38.3649C85.5059 38.3649 89.495 34.3758 89.495 29.4549C89.495 24.5341 85.5059 20.5449 80.585 20.5449C75.6642 20.5449 71.675 24.5341 71.675 29.4549C71.675 34.3758 75.6642 38.3649 80.585 38.3649Z" />
    <path d="M45.0001 17.82C49.9209 17.82 53.9101 13.8309 53.9101 8.91C53.9101 3.98914 49.9209 0 45.0001 0C40.0792 0 36.0901 3.98914 36.0901 8.91C36.0901 13.8309 40.0792 17.82 45.0001 17.82Z" />
    <path d="M125.159 62.8C122.311 62.8 120.101 61.9733 118.529 60.32C116.957 58.6667 116.125 56.4507 116.034 53.6722C116.011 52.9833 116 51.8926 116 50.4C116 48.9074 116.011 47.8167 116.034 47.1278C116.125 44.3493 116.957 42.1333 118.529 40.48C120.101 38.8267 122.311 38 125.159 38C127.096 38 128.725 38.3674 130.047 39.1022C131.368 39.837 132.348 40.7096 132.986 41.72C133.647 42.7074 134 43.5915 134.045 44.3722V44.4411C134.045 44.6248 133.977 44.7741 133.84 44.8889C133.704 45.0037 133.533 45.0611 133.328 45.0611H132.576C132.371 45.0611 132.223 45.0152 132.131 44.9233C132.04 44.8315 131.949 44.6478 131.858 44.3722C131.471 43.1552 130.719 42.1333 129.602 41.3067C128.509 40.48 127.028 40.0667 125.159 40.0667C123.04 40.0667 121.366 40.6522 120.135 41.8233C118.928 42.9944 118.278 44.82 118.187 47.3C118.165 47.9889 118.153 49.0222 118.153 50.4C118.153 51.7778 118.165 52.8111 118.187 53.5C118.278 55.98 118.928 57.8056 120.135 58.9767C121.366 60.1478 123.04 60.7333 125.159 60.7333C127.278 60.7333 128.987 60.1248 130.286 58.9078C131.585 57.6907 132.234 55.8881 132.234 53.5V51.7433H126.287C126.059 51.7433 125.877 51.6744 125.74 51.5367C125.604 51.3759 125.535 51.1807 125.535 50.9511V50.4689C125.535 50.2393 125.604 50.0556 125.74 49.9178C125.877 49.757 126.059 49.6767 126.287 49.6767H133.601C133.852 49.6767 134.045 49.7456 134.182 49.8833C134.319 50.0211 134.387 50.2163 134.387 50.4689V53.5C134.387 55.337 134.023 56.9559 133.293 58.3567C132.564 59.7574 131.505 60.8481 130.115 61.6289C128.725 62.4096 127.073 62.8 125.159 62.8Z" />
    <path d="M139.96 62.4556C139.732 62.4556 139.55 62.3867 139.413 62.2489C139.276 62.1111 139.208 61.9274 139.208 61.6978V45.3367C139.208 45.107 139.276 44.9233 139.413 44.7856C139.55 44.6248 139.732 44.5444 139.96 44.5444H140.507C140.735 44.5444 140.917 44.6248 141.054 44.7856C141.213 44.9233 141.293 45.107 141.293 45.3367V46.9211C142.113 45.3367 143.662 44.5444 145.941 44.5444H147.205C147.433 44.5444 147.616 44.6133 147.752 44.7511C147.889 44.8889 147.957 45.0726 147.957 45.3022V45.7844C147.957 46.0141 147.889 46.1978 147.752 46.3356C147.616 46.4733 147.433 46.5422 147.205 46.5422H145.736C144.369 46.5422 143.287 46.9441 142.489 47.7478C141.692 48.5515 141.293 49.6422 141.293 51.02V61.6978C141.293 61.9274 141.213 62.1111 141.054 62.2489C140.917 62.3867 140.735 62.4556 140.507 62.4556H139.96Z" />
    <path d="M155.608 62.8C154.514 62.8 153.5 62.5704 152.566 62.1111C151.632 61.6519 150.88 61.0319 150.31 60.2511C149.763 59.4704 149.49 58.6093 149.49 57.6678C149.49 56.1522 150.094 54.9122 151.301 53.9478C152.532 52.9833 154.184 52.3633 156.257 52.0878L161.657 51.33V50.1244C161.657 48.8615 161.27 47.897 160.495 47.2311C159.743 46.5422 158.581 46.1978 157.009 46.1978C155.847 46.1978 154.89 46.4274 154.138 46.8867C153.409 47.3459 152.942 47.897 152.737 48.54C152.646 48.8156 152.532 49.0107 152.395 49.1256C152.281 49.2174 152.122 49.2633 151.916 49.2633H151.438C151.233 49.2633 151.051 49.1944 150.891 49.0567C150.754 48.8959 150.686 48.7122 150.686 48.5056C150.686 48.0004 150.914 47.4148 151.37 46.7489C151.825 46.06 152.532 45.463 153.489 44.9578C154.446 44.4526 155.619 44.2 157.009 44.2C159.447 44.2 161.178 44.7856 162.204 45.9567C163.229 47.1278 163.742 48.5515 163.742 50.2278V61.6978C163.742 61.9274 163.673 62.1111 163.537 62.2489C163.4 62.3867 163.218 62.4556 162.99 62.4556H162.409C162.181 62.4556 161.999 62.3867 161.862 62.2489C161.725 62.1111 161.657 61.9274 161.657 61.6978V60.0789C161.156 60.8367 160.415 61.4796 159.435 62.0078C158.478 62.5359 157.202 62.8 155.608 62.8ZM155.949 60.8022C157.613 60.8022 158.98 60.2511 160.051 59.1489C161.121 58.0467 161.657 56.4622 161.657 54.3956V53.2244L157.248 53.8444C155.38 54.097 153.967 54.5333 153.01 55.1533C152.053 55.7733 151.575 56.5541 151.575 57.4956C151.575 58.5519 152.008 59.367 152.873 59.9411C153.762 60.5152 154.787 60.8022 155.949 60.8022Z" />
    <path d="M169.932 69C169.704 69 169.522 68.9311 169.385 68.7933C169.249 68.6556 169.18 68.4719 169.18 68.2422V45.3022C169.18 45.0726 169.249 44.8889 169.385 44.7511C169.522 44.6133 169.704 44.5444 169.932 44.5444H170.513C170.741 44.5444 170.923 44.6133 171.06 44.7511C171.197 44.8889 171.265 45.0726 171.265 45.3022V46.9211C172.587 45.107 174.5 44.2 177.007 44.2C179.467 44.2 181.279 44.9922 182.441 46.5767C183.626 48.1381 184.252 50.067 184.321 52.3633C184.343 52.593 184.355 52.9719 184.355 53.5C184.355 54.0281 184.343 54.407 184.321 54.6367C184.252 56.933 183.626 58.8733 182.441 60.4578C181.279 62.0193 179.467 62.8 177.007 62.8C174.523 62.8 172.609 61.893 171.265 60.0789V68.2422C171.265 68.4719 171.197 68.6556 171.06 68.7933C170.923 68.9311 170.741 69 170.513 69H169.932ZM176.802 60.8022C178.647 60.8022 179.991 60.2167 180.834 59.0456C181.7 57.8515 182.167 56.3244 182.236 54.4644C182.259 54.2348 182.27 53.9133 182.27 53.5C182.27 51.3644 181.86 49.6193 181.04 48.2644C180.219 46.8867 178.807 46.1978 176.802 46.1978C175.002 46.1978 173.646 46.8063 172.735 48.0233C171.823 49.2174 171.333 50.6296 171.265 52.26L171.231 53.6033L171.265 54.9467C171.288 55.9341 171.504 56.8756 171.914 57.7711C172.324 58.6437 172.94 59.367 173.76 59.9411C174.58 60.5152 175.594 60.8022 176.802 60.8022Z" />
    <path d="M189.791 62.4556C189.563 62.4556 189.381 62.3867 189.244 62.2489C189.107 62.1111 189.039 61.9274 189.039 61.6978V38.7578C189.039 38.5281 189.107 38.3444 189.244 38.2067C189.381 38.0689 189.563 38 189.791 38H190.372C190.599 38 190.782 38.0689 190.918 38.2067C191.055 38.3444 191.124 38.5281 191.124 38.7578V46.9211C191.807 46.0256 192.582 45.3481 193.448 44.8889C194.336 44.4296 195.475 44.2 196.865 44.2C199.098 44.2 200.818 44.9233 202.026 46.37C203.233 47.7937 203.837 49.6422 203.837 51.9156V61.6978C203.837 61.9274 203.769 62.1111 203.632 62.2489C203.495 62.3867 203.313 62.4556 203.085 62.4556H202.504C202.277 62.4556 202.094 62.3867 201.958 62.2489C201.821 62.1111 201.752 61.9274 201.752 61.6978V52.0878C201.752 50.2278 201.297 48.7811 200.385 47.7478C199.497 46.7144 198.21 46.1978 196.523 46.1978C194.883 46.1978 193.573 46.7259 192.593 47.7822C191.613 48.8156 191.124 50.2507 191.124 52.0878V61.6978C191.124 61.9274 191.055 62.1111 190.918 62.2489C190.782 62.3867 190.599 62.4556 190.372 62.4556H189.791Z" />
    <path d="M225.123 64.6944C224.781 64.6944 224.417 64.4304 224.03 63.9022L222.526 61.8011C221.159 62.467 219.564 62.8 217.741 62.8C211.885 62.8 208.878 59.6311 208.718 53.2933C208.696 52.6044 208.684 51.64 208.684 50.4C208.684 49.16 208.696 48.1956 208.718 47.5067C208.81 44.3837 209.653 42.0185 211.247 40.4111C212.842 38.8037 215.007 38 217.741 38C220.475 38 222.64 38.8037 224.235 40.4111C225.83 42.0185 226.673 44.3837 226.764 47.5067C226.809 48.8844 226.832 49.8489 226.832 50.4C226.832 50.9511 226.809 51.9156 226.764 53.2933C226.65 56.577 225.818 58.9881 224.269 60.5267L226.456 63.6267C226.524 63.7644 226.559 63.8907 226.559 64.0056C226.559 64.1893 226.49 64.35 226.354 64.4878C226.217 64.6256 226.057 64.6944 225.875 64.6944H225.123ZM217.741 60.7333C219.792 60.7333 221.421 60.1133 222.628 58.8733C223.859 57.6104 224.519 55.693 224.611 53.1211C224.656 51.7433 224.679 50.8363 224.679 50.4C224.679 49.9637 224.656 49.0567 224.611 47.6789C224.519 45.107 223.859 43.2011 222.628 41.9611C221.398 40.6981 219.769 40.0667 217.741 40.0667C215.713 40.0667 214.084 40.6981 212.854 41.9611C211.623 43.2011 210.963 45.107 210.872 47.6789C210.849 48.3678 210.837 49.2748 210.837 50.4C210.837 51.5252 210.849 52.4322 210.872 53.1211C210.963 55.693 211.612 57.6104 212.82 58.8733C214.05 60.1133 215.69 60.7333 217.741 60.7333Z" />
    <path d="M233.022 62.4556C232.794 62.4556 232.612 62.3867 232.475 62.2489C232.338 62.1111 232.27 61.9274 232.27 61.6978V39.1022C232.27 38.8726 232.338 38.6889 232.475 38.5511C232.612 38.4133 232.794 38.3444 233.022 38.3444H233.671C233.899 38.3444 234.081 38.4133 234.218 38.5511C234.355 38.6889 234.423 38.8726 234.423 39.1022V60.3889H246.214C246.465 60.3889 246.658 60.4578 246.795 60.5956C246.932 60.7333 247 60.9285 247 61.1811V61.6978C247 61.9274 246.92 62.1111 246.761 62.2489C246.624 62.3867 246.442 62.4556 246.214 62.4556H233.022Z" />
</svg>
