<svg xmlns="http://www.w3.org/2000/svg" viewBox="0 0 367 100" fill="#ffffff"><path fill-rule="evenodd" clip-rule="evenodd" d="M50 6.4678L87.7 28.2339V71.7661L50 93.5322L12.3 71.7661V28.2339L50 6.4678ZM16.53 30.6761V62.6517L44.2217 14.6883L16.53 30.6761ZM50 13.14L18.0783 68.43H81.9217L50 13.14ZM77.6917 72.66H22.3083L50 88.6478L77.6917 72.66ZM83.47 62.6517L55.7783 14.6883L83.47 30.6761V62.6517Z"/><circle cx="14.41" cy="29.45" r="8.91"/><circle cx="14.41" cy="70.545" r="8.91"/><circle cx="50" cy="91.09" r="8.91"/><circle cx="85.585" cy="70.545" r="8.91"/><circle cx="85.585" cy="29.455" r="8.91"/><circle cx="50" cy="8.91" r="8.91"/><path d="M138.875 51.625C133.667 51.625 129.625 50.125 126.75 47.125C123.875 44.125 122.354 40.1042 122.188 35.0625C122.146 33.8125 122.125 31.8333 122.125 29.125C122.125 26.4167 122.146 24.4375 122.188 23.1875C122.354 18.1458 123.875 14.125 126.75 11.125C129.625 8.125 133.667 6.625 138.875 6.625C142.417 6.625 145.396 7.29167 147.813 8.625C150.229 9.95833 152.021 11.5417 153.188 13.375C154.396 15.1667 155.042 16.7708 155.125 18.1875V18.3125C155.125 18.6458 155 18.9167 154.75 19.125C154.5 19.3333 154.188 19.4375 153.812 19.4375H152.438C152.063 19.4375 151.792 19.3542 151.625 19.1875C151.458 19.0208 151.292 18.6875 151.125 18.1875C150.417 15.9792 149.042 14.125 147 12.625C145 11.125 142.292 10.375 138.875 10.375C135 10.375 131.938 11.4375 129.688 13.5625C127.479 15.6875 126.292 19 126.125 23.5C126.083 24.75 126.063 26.625 126.063 29.125C126.063 31.625 126.083 33.5 126.125 34.75C126.292 39.25 127.479 42.5625 129.688 44.6875C131.938 46.8125 135 47.875 138.875 47.875C142.75 47.875 145.875 46.7708 148.25 44.5625C150.625 42.3542 151.812 39.0833 151.812 34.75V31.5625H140.938C140.521 31.5625 140.188 31.4375 139.938 31.1875C139.688 30.8958 139.563 30.5417 139.563 30.125V29.25C139.563 28.8333 139.688 28.5 139.938 28.25C140.188 27.9583 140.521 27.8125 140.938 27.8125H154.312C154.771 27.8125 155.125 27.9375 155.375 28.1875C155.625 28.4375 155.75 28.7917 155.75 29.25V34.75C155.75 38.0833 155.083 41.0208 153.75 43.5625C152.417 46.1042 150.479 48.0833 147.938 49.5C145.396 50.9167 142.375 51.625 138.875 51.625Z"/><path d="M165.941 51C165.525 51 165.191 50.875 164.941 50.625C164.691 50.375 164.566 50.0417 164.566 49.625V19.9375C164.566 19.5208 164.691 19.1875 164.941 18.9375C165.191 18.6458 165.525 18.5 165.941 18.5H166.941C167.358 18.5 167.691 18.6458 167.941 18.9375C168.233 19.1875 168.379 19.5208 168.379 19.9375V22.8125C169.879 19.9375 172.712 18.5 176.879 18.5H179.191C179.608 18.5 179.941 18.625 180.191 18.875C180.441 19.125 180.566 19.4583 180.566 19.875V20.75C180.566 21.1667 180.441 21.5 180.191 21.75C179.941 22 179.608 22.125 179.191 22.125H176.504C174.004 22.125 172.025 22.8542 170.566 24.3125C169.108 25.7708 168.379 27.75 168.379 30.25V49.625C168.379 50.0417 168.233 50.375 167.941 50.625C167.691 50.875 167.358 51 166.941 51H165.941Z"/><path d="M194.557 51.625C192.557 51.625 190.702 51.2083 188.994 50.375C187.286 49.5417 185.911 48.4167 184.869 47C183.869 45.5833 183.369 44.0208 183.369 42.3125C183.369 39.5625 184.473 37.3125 186.682 35.5625C188.932 33.8125 191.952 32.6875 195.744 32.1875L205.619 30.8125V28.625C205.619 26.3333 204.911 24.5833 203.494 23.375C202.119 22.125 199.994 21.5 197.119 21.5C194.994 21.5 193.244 21.9167 191.869 22.75C190.536 23.5833 189.682 24.5833 189.307 25.75C189.14 26.25 188.932 26.6042 188.682 26.8125C188.473 26.9792 188.182 27.0625 187.807 27.0625H186.932C186.557 27.0625 186.223 26.9375 185.932 26.6875C185.682 26.3958 185.557 26.0625 185.557 25.6875C185.557 24.7708 185.973 23.7083 186.807 22.5C187.64 21.25 188.932 20.1667 190.682 19.25C192.432 18.3333 194.577 17.875 197.119 17.875C201.577 17.875 204.744 18.9375 206.619 21.0625C208.494 23.1875 209.432 25.7708 209.432 28.8125V49.625C209.432 50.0417 209.307 50.375 209.057 50.625C208.807 50.875 208.473 51 208.057 51H206.994C206.577 51 206.244 50.875 205.994 50.625C205.744 50.375 205.619 50.0417 205.619 49.625V46.6875C204.702 48.0625 203.348 49.2292 201.557 50.1875C199.807 51.1458 197.473 51.625 194.557 51.625ZM195.182 48C198.223 48 200.723 47 202.682 45C204.64 43 205.619 40.125 205.619 36.375V34.25L197.557 35.375C194.14 35.8333 191.557 36.625 189.807 37.75C188.057 38.875 187.182 40.2917 187.182 42C187.182 43.9167 187.973 45.3958 189.557 46.4375C191.182 47.4792 193.057 48 195.182 48Z"/><path d="M220.752 62.875C220.336 62.875 220.002 62.75 219.752 62.5C219.502 62.25 219.377 61.9167 219.377 61.5V19.875C219.377 19.4583 219.502 19.125 219.752 18.875C220.002 18.625 220.336 18.5 220.752 18.5H221.815C222.232 18.5 222.565 18.625 222.815 18.875C223.065 19.125 223.19 19.4583 223.19 19.875V22.8125C225.607 19.5208 229.107 17.875 233.69 17.875C238.19 17.875 241.502 19.3125 243.627 22.1875C245.794 25.0208 246.94 28.5208 247.065 32.6875C247.107 33.1042 247.127 33.7917 247.127 34.75C247.127 35.7083 247.107 36.3958 247.065 36.8125C246.94 40.9792 245.794 44.5 243.627 47.375C241.502 50.2083 238.19 51.625 233.69 51.625C229.148 51.625 225.648 49.9792 223.19 46.6875V61.5C223.19 61.9167 223.065 62.25 222.815 62.5C222.565 62.75 222.232 62.875 221.815 62.875H220.752ZM233.315 48C236.69 48 239.148 46.9375 240.69 44.8125C242.273 42.6458 243.127 39.875 243.252 36.5C243.294 36.0833 243.315 35.5 243.315 34.75C243.315 30.875 242.565 27.7083 241.065 25.25C239.565 22.75 236.982 21.5 233.315 21.5C230.023 21.5 227.544 22.6042 225.877 24.8125C224.211 26.9792 223.315 29.5417 223.19 32.5L223.127 34.9375L223.19 37.375C223.232 39.1667 223.627 40.875 224.377 42.5C225.127 44.0833 226.252 45.3958 227.752 46.4375C229.252 47.4792 231.107 48 233.315 48Z"/><path d="M257.068 51C256.652 51 256.318 50.875 256.068 50.625C255.818 50.375 255.693 50.0417 255.693 49.625V8C255.693 7.58333 255.818 7.25 256.068 7C256.318 6.75 256.652 6.625 257.068 6.625H258.131C258.548 6.625 258.881 6.75 259.131 7C259.381 7.25 259.506 7.58333 259.506 8V22.8125C260.756 21.1875 262.173 19.9583 263.756 19.125C265.381 18.2917 267.464 17.875 270.006 17.875C274.089 17.875 277.235 19.1875 279.443 21.8125C281.652 24.3958 282.756 27.75 282.756 31.875V49.625C282.756 50.0417 282.631 50.375 282.381 50.625C282.131 50.875 281.798 51 281.381 51H280.318C279.902 51 279.568 50.875 279.318 50.625C279.068 50.375 278.943 50.0417 278.943 49.625V32.1875C278.943 28.8125 278.11 26.1875 276.443 24.3125C274.818 22.4375 272.464 21.5 269.381 21.5C266.381 21.5 263.985 22.4583 262.193 24.375C260.402 26.25 259.506 28.8542 259.506 32.1875V49.625C259.506 50.0417 259.381 50.375 259.131 50.625C258.881 50.875 258.548 51 258.131 51H257.068Z"/><path d="M321.682 55.0625C321.057 55.0625 320.39 54.5833 319.682 53.625L316.932 49.8125C314.432 51.0208 311.515 51.625 308.182 51.625C297.474 51.625 291.974 45.875 291.682 34.375C291.64 33.125 291.62 31.375 291.62 29.125C291.62 26.875 291.64 25.125 291.682 23.875C291.849 18.2083 293.39 13.9167 296.307 11C299.224 8.08333 303.182 6.625 308.182 6.625C313.182 6.625 317.14 8.08333 320.057 11C322.974 13.9167 324.515 18.2083 324.682 23.875C324.765 26.375 324.807 28.125 324.807 29.125C324.807 30.125 324.765 31.875 324.682 34.375C324.474 40.3333 322.953 44.7083 320.12 47.5L324.12 53.125C324.245 53.375 324.307 53.6042 324.307 53.8125C324.307 54.1458 324.182 54.4375 323.932 54.6875C323.682 54.9375 323.39 55.0625 323.057 55.0625H321.682ZM308.182 47.875C311.932 47.875 314.911 46.75 317.12 44.5C319.37 42.2083 320.578 38.7292 320.745 34.0625C320.828 31.5625 320.87 29.9167 320.87 29.125C320.87 28.3333 320.828 26.6875 320.745 24.1875C320.578 19.5208 319.37 16.0625 317.12 13.8125C314.87 11.5208 311.89 10.375 308.182 10.375C304.474 10.375 301.495 11.5208 299.245 13.8125C296.995 16.0625 295.786 19.5208 295.62 24.1875C295.578 25.4375 295.557 27.0833 295.557 29.125C295.557 31.1667 295.578 32.8125 295.62 34.0625C295.786 38.7292 296.974 42.2083 299.182 44.5C301.432 46.75 304.432 47.875 308.182 47.875Z"/><path d="M336.126 51C335.71 51 335.376 50.875 335.126 50.625C334.876 50.375 334.751 50.0417 334.751 49.625V8.625C334.751 8.20833 334.876 7.875 335.126 7.625C335.376 7.375 335.71 7.25 336.126 7.25H337.314C337.731 7.25 338.064 7.375 338.314 7.625C338.564 7.875 338.689 8.20833 338.689 8.625V47.25H360.251C360.71 47.25 361.064 47.375 361.314 47.625C361.564 47.875 361.689 48.2292 361.689 48.6875V49.625C361.689 50.0417 361.543 50.375 361.251 50.625C361.001 50.875 360.668 51 360.251 51H336.126Z"/><path d="M125.51 98.5C125.193 98.5 124.94 98.405 124.75 98.215C124.56 98.025 124.465 97.7717 124.465 97.455V66.3425C124.465 66.0259 124.56 65.7725 124.75 65.5825C124.94 65.3609 125.193 65.25 125.51 65.25H143.845C144.193 65.25 144.462 65.345 144.652 65.535C144.842 65.725 144.937 65.9942 144.937 66.3425V67.055C144.937 67.3717 144.827 67.625 144.605 67.815C144.415 68.005 144.162 68.1 143.845 68.1H127.457V80.8775H142.895C143.243 80.8775 143.512 80.9725 143.702 81.1625C143.892 81.3525 143.987 81.6217 143.987 81.97V82.6825C143.987 82.9992 143.877 83.2525 143.655 83.4425C143.465 83.6325 143.212 83.7275 142.895 83.7275H127.457V97.455C127.457 97.7717 127.347 98.025 127.125 98.215C126.935 98.405 126.682 98.5 126.365 98.5H125.51Z"/><path d="M159.786 98.975C156.492 98.975 153.927 97.9775 152.091 95.9825C150.286 93.9559 149.336 91.3434 149.241 88.145L149.193 86.15L149.241 84.155C149.336 80.9567 150.286 78.36 152.091 76.365C153.927 74.3384 156.492 73.325 159.786 73.325C163.079 73.325 165.628 74.3384 167.433 76.365C169.27 78.36 170.236 80.9567 170.331 84.155C170.362 84.4717 170.378 85.1367 170.378 86.15C170.378 87.1634 170.362 87.8284 170.331 88.145C170.236 91.3434 169.27 93.9559 167.433 95.9825C165.628 97.9775 163.079 98.975 159.786 98.975ZM159.786 96.22C162.034 96.22 163.839 95.5075 165.201 94.0825C166.594 92.6259 167.338 90.5675 167.433 87.9075C167.465 87.5909 167.481 87.005 167.481 86.15C167.481 85.295 167.465 84.7092 167.433 84.3925C167.338 81.7325 166.594 79.69 165.201 78.265C163.839 76.8084 162.034 76.08 159.786 76.08C157.537 76.08 155.717 76.8084 154.323 78.265C152.962 79.69 152.233 81.7325 152.138 84.3925L152.091 86.15L152.138 87.9075C152.233 90.5675 152.962 92.6259 154.323 94.0825C155.717 95.5075 157.537 96.22 159.786 96.22Z"/><path d="M186.13 98.975C183.027 98.975 180.667 97.9934 179.052 96.03C177.437 94.0667 176.63 91.5017 176.63 88.335V74.845C176.63 74.5284 176.725 74.275 176.915 74.085C177.105 73.895 177.358 73.8 177.675 73.8H178.482C178.799 73.8 179.052 73.895 179.242 74.085C179.432 74.275 179.527 74.5284 179.527 74.845V88.0975C179.527 93.5125 181.887 96.22 186.605 96.22C188.885 96.22 190.69 95.5075 192.02 94.0825C193.382 92.6259 194.062 90.6309 194.062 88.0975V74.845C194.062 74.5284 194.157 74.275 194.347 74.085C194.537 73.895 194.791 73.8 195.107 73.8H195.915C196.232 73.8 196.485 73.895 196.675 74.085C196.865 74.275 196.96 74.5284 196.96 74.845V97.455C196.96 97.7717 196.865 98.025 196.675 98.215C196.485 98.405 196.232 98.5 195.915 98.5H195.107C194.791 98.5 194.537 98.405 194.347 98.215C194.157 98.025 194.062 97.7717 194.062 97.455V95.2225C193.112 96.4575 192.02 97.3917 190.785 98.025C189.582 98.6584 188.03 98.975 186.13 98.975Z"/><path d="M205.698 98.5C205.381 98.5 205.128 98.405 204.938 98.215C204.748 98.025 204.653 97.7717 204.653 97.455V74.845C204.653 74.5284 204.748 74.275 204.938 74.085C205.128 73.895 205.381 73.8 205.698 73.8H206.506C206.822 73.8 207.076 73.895 207.266 74.085C207.456 74.275 207.551 74.5284 207.551 74.845V77.0775C208.501 75.8425 209.577 74.9084 210.781 74.275C212.016 73.6417 213.599 73.325 215.531 73.325C218.634 73.325 221.025 74.3225 222.703 76.3175C224.381 78.2809 225.221 80.83 225.221 83.965V97.455C225.221 97.7717 225.126 98.025 224.936 98.215C224.746 98.405 224.492 98.5 224.176 98.5H223.368C223.051 98.5 222.798 98.405 222.608 98.215C222.418 98.025 222.323 97.7717 222.323 97.455V84.2025C222.323 81.6375 221.69 79.6425 220.423 78.2175C219.188 76.7925 217.399 76.08 215.056 76.08C212.776 76.08 210.955 76.8084 209.593 78.265C208.231 79.69 207.551 81.6692 207.551 84.2025V97.455C207.551 97.7717 207.456 98.025 207.266 98.215C207.076 98.405 206.822 98.5 206.506 98.5H205.698Z"/><path d="M241.601 98.975C238.181 98.975 235.647 97.8667 234.001 95.65C232.386 93.4017 231.531 90.6784 231.436 87.48L231.388 86.15L231.436 84.82C231.531 81.6217 232.386 78.9142 234.001 76.6975C235.647 74.4492 238.181 73.325 241.601 73.325C245.052 73.325 247.712 74.5759 249.581 77.0775V65.82C249.581 65.5034 249.676 65.25 249.866 65.06C250.056 64.87 250.309 64.775 250.626 64.775H251.433C251.75 64.775 252.003 64.87 252.193 65.06C252.383 65.25 252.478 65.5034 252.478 65.82V97.455C252.478 97.7717 252.383 98.025 252.193 98.215C252.003 98.405 251.75 98.5 251.433 98.5H250.626C250.309 98.5 250.056 98.405 249.866 98.215C249.676 98.025 249.581 97.7717 249.581 97.455V95.2225C247.744 97.7242 245.084 98.975 241.601 98.975ZM241.886 96.22C244.387 96.22 246.272 95.3967 247.538 93.75C248.805 92.0717 249.486 90.1084 249.581 87.86C249.612 87.5434 249.628 86.9259 249.628 86.0075C249.628 85.0892 249.612 84.4717 249.581 84.155C249.549 82.7934 249.248 81.5109 248.678 80.3075C248.108 79.0725 247.253 78.0592 246.113 77.2675C244.973 76.4759 243.564 76.08 241.886 76.08C239.321 76.08 237.437 76.9034 236.233 78.55C235.062 80.165 234.428 82.255 234.333 84.82L234.286 86.15C234.286 89.095 234.856 91.5175 235.996 93.4175C237.136 95.2859 239.099 96.22 241.886 96.22Z"/><path d="M266.874 98.975C265.354 98.975 263.945 98.6584 262.647 98.025C261.349 97.3917 260.304 96.5367 259.512 95.46C258.752 94.3834 258.372 93.1959 258.372 91.8975C258.372 89.8075 259.211 88.0975 260.889 86.7675C262.599 85.4375 264.895 84.5825 267.777 84.2025L275.282 83.1575V81.495C275.282 79.7534 274.744 78.4234 273.667 77.505C272.622 76.555 271.007 76.08 268.822 76.08C267.207 76.08 265.877 76.3967 264.832 77.03C263.819 77.6634 263.169 78.4234 262.884 79.31C262.758 79.69 262.599 79.9592 262.409 80.1175C262.251 80.2442 262.029 80.3075 261.744 80.3075H261.079C260.794 80.3075 260.541 80.2125 260.319 80.0225C260.129 79.8009 260.034 79.5475 260.034 79.2625C260.034 78.5659 260.351 77.7584 260.984 76.84C261.618 75.89 262.599 75.0667 263.929 74.37C265.259 73.6734 266.89 73.325 268.822 73.325C272.21 73.325 274.617 74.1325 276.042 75.7475C277.467 77.3625 278.179 79.3259 278.179 81.6375V97.455C278.179 97.7717 278.084 98.025 277.894 98.215C277.704 98.405 277.451 98.5 277.134 98.5H276.327C276.01 98.5 275.757 98.405 275.567 98.215C275.377 98.025 275.282 97.7717 275.282 97.455V95.2225C274.585 96.2675 273.556 97.1542 272.194 97.8825C270.864 98.6109 269.091 98.975 266.874 98.975ZM267.349 96.22C269.661 96.22 271.561 95.46 273.049 93.94C274.538 92.42 275.282 90.235 275.282 87.385V85.77L269.154 86.625C266.558 86.9734 264.594 87.575 263.264 88.43C261.934 89.285 261.269 90.3617 261.269 91.66C261.269 93.1167 261.871 94.2409 263.074 95.0325C264.309 95.8242 265.734 96.22 267.349 96.22Z"/><path d="M293.771 98.5C291.428 98.5 289.765 97.8034 288.784 96.41C287.802 94.985 287.311 93.0375 287.311 90.5675V76.555H283.606C283.29 76.555 283.036 76.46 282.846 76.27C282.656 76.08 282.561 75.8267 282.561 75.51V74.845C282.561 74.5284 282.656 74.275 282.846 74.085C283.036 73.895 283.29 73.8 283.606 73.8H287.311V65.82C287.311 65.5034 287.406 65.25 287.596 65.06C287.786 64.87 288.04 64.775 288.356 64.775H289.164C289.48 64.775 289.734 64.87 289.924 65.06C290.114 65.25 290.209 65.5034 290.209 65.82V73.8H296.099C296.415 73.8 296.669 73.895 296.859 74.085C297.049 74.275 297.144 74.5284 297.144 74.845V75.51C297.144 75.8267 297.049 76.08 296.859 76.27C296.669 76.46 296.415 76.555 296.099 76.555H290.209V90.3775C290.209 92.1509 290.494 93.4967 291.064 94.415C291.665 95.3017 292.647 95.745 294.009 95.745H296.574C296.89 95.745 297.144 95.84 297.334 96.03C297.524 96.22 297.619 96.4734 297.619 96.79V97.455C297.619 97.7717 297.524 98.025 297.334 98.215C297.144 98.405 296.89 98.5 296.574 98.5H293.771Z"/><path d="M303.052 68.7175C302.735 68.7175 302.482 68.6225 302.292 68.4325C302.102 68.2425 302.007 67.9892 302.007 67.6725V65.8675C302.007 65.5509 302.102 65.2975 302.292 65.1075C302.482 64.8859 302.735 64.775 303.052 64.775H304.857C305.173 64.775 305.427 64.8859 305.617 65.1075C305.838 65.2975 305.949 65.5509 305.949 65.8675V67.6725C305.949 67.9892 305.838 68.2425 305.617 68.4325C305.427 68.6225 305.173 68.7175 304.857 68.7175H303.052ZM303.574 98.5C303.257 98.5 303.004 98.405 302.814 98.215C302.624 98.025 302.529 97.7717 302.529 97.455V74.845C302.529 74.5284 302.624 74.275 302.814 74.085C303.004 73.895 303.257 73.8 303.574 73.8H304.382C304.698 73.8 304.952 73.895 305.142 74.085C305.332 74.275 305.427 74.5284 305.427 74.845V97.455C305.427 97.7717 305.332 98.025 305.142 98.215C304.952 98.405 304.698 98.5 304.382 98.5H303.574Z"/><path d="M322.51 98.975C319.217 98.975 316.652 97.9775 314.815 95.9825C313.01 93.9559 312.06 91.3434 311.965 88.145L311.918 86.15L311.965 84.155C312.06 80.9567 313.01 78.36 314.815 76.365C316.652 74.3384 319.217 73.325 322.51 73.325C325.804 73.325 328.353 74.3384 330.158 76.365C331.994 78.36 332.96 80.9567 333.055 84.155C333.087 84.4717 333.103 85.1367 333.103 86.15C333.103 87.1634 333.087 87.8284 333.055 88.145C332.96 91.3434 331.994 93.9559 330.158 95.9825C328.353 97.9775 325.804 98.975 322.51 98.975ZM322.51 96.22C324.759 96.22 326.564 95.5075 327.925 94.0825C329.319 92.6259 330.063 90.5675 330.158 87.9075C330.189 87.5909 330.205 87.005 330.205 86.15C330.205 85.295 330.189 84.7092 330.158 84.3925C330.063 81.7325 329.319 79.69 327.925 78.265C326.564 76.8084 324.759 76.08 322.51 76.08C320.262 76.08 318.441 76.8084 317.048 78.265C315.686 79.69 314.958 81.7325 314.863 84.3925L314.815 86.15L314.863 87.9075C314.958 90.5675 315.686 92.6259 317.048 94.0825C318.441 95.5075 320.262 96.22 322.51 96.22Z"/><path d="M340.637 98.5C340.32 98.5 340.067 98.405 339.877 98.215C339.687 98.025 339.592 97.7717 339.592 97.455V74.845C339.592 74.5284 339.687 74.275 339.877 74.085C340.067 73.895 340.32 73.8 340.637 73.8H341.445C341.761 73.8 342.015 73.895 342.205 74.085C342.395 74.275 342.49 74.5284 342.49 74.845V77.0775C343.44 75.8425 344.516 74.9084 345.72 74.275C346.955 73.6417 348.538 73.325 350.47 73.325C353.573 73.325 355.964 74.3225 357.642 76.3175C359.32 78.2809 360.16 80.83 360.16 83.965V97.455C360.16 97.7717 360.065 98.025 359.875 98.215C359.685 98.405 359.431 98.5 359.115 98.5H358.307C357.99 98.5 357.737 98.405 357.547 98.215C357.357 98.025 357.262 97.7717 357.262 97.455V84.2025C357.262 81.6375 356.629 79.6425 355.362 78.2175C354.127 76.7925 352.338 76.08 349.995 76.08C347.715 76.08 345.894 76.8084 344.532 78.265C343.17 79.69 342.49 81.6692 342.49 84.2025V97.455C342.49 97.7717 342.395 98.025 342.205 98.215C342.015 98.405 341.761 98.5 341.445 98.5H340.637Z"/></svg>