<?xml version="1.0" encoding="UTF-8" standalone="no"?>
<svg
   xmlns:dc="http://purl.org/dc/elements/1.1/"
   xmlns:cc="http://creativecommons.org/ns#"
   xmlns:rdf="http://www.w3.org/1999/02/22-rdf-syntax-ns#"
   xmlns:svg="http://www.w3.org/2000/svg"
   xmlns="http://www.w3.org/2000/svg"
   xmlns:sodipodi="http://sodipodi.sourceforge.net/DTD/sodipodi-0.dtd"
   xmlns:inkscape="http://www.inkscape.org/namespaces/inkscape"
   version="1.1"
   x="0"
   y="0"
   width="1600"
   height="500"
   viewBox="0, 0, 1600, 500"
   id="svg56"
   sodipodi:docname="GraphQL_Foundation-logo.svg"
   inkscape:version="1.0.2 (e86c8708, 2021-01-15)">
  <metadata
     id="metadata62">
    <rdf:RDF>
      <cc:Work
         rdf:about="">
        <dc:format>image/svg+xml</dc:format>
        <dc:type
           rdf:resource="http://purl.org/dc/dcmitype/StillImage" />
        <dc:title></dc:title>
      </cc:Work>
    </rdf:RDF>
  </metadata>
  <defs
     id="defs60" />
  <sodipodi:namedview
     pagecolor="#ffffff"
     bordercolor="#666666"
     borderopacity="1"
     objecttolerance="10"
     gridtolerance="10"
     guidetolerance="10"
     inkscape:pageopacity="0"
     inkscape:pageshadow="2"
     inkscape:window-width="2439"
     inkscape:window-height="1324"
     id="namedview58"
     showgrid="false"
     inkscape:zoom="0.4532458"
     inkscape:cx="331.81386"
     inkscape:cy="-377.04251"
     inkscape:window-x="0"
     inkscape:window-y="23"
     inkscape:window-maximized="0"
     inkscape:current-layer="svg56" />
  <g
     id="g1213">
    <g
       id="GraphQL-mark">
      <path
         d="m 137.239,352.66 -14.376,-8.3 160.15,-277.38 14.376,8.3 z"
         fill="#e434aa"
         id="path7" />
      <path
         d="m 119.571,322.2 h 320.3 v 16.6 h -320.3 z"
         fill="#e434aa"
         id="path9" />
      <path
         d="m 286.119,424.026 -160.21,-92.5 8.3,-14.376 160.21,92.5 z"
         fill="#e434aa"
         id="path11" />
      <path
         d="m 425.293,182.947 -160.21,-92.5 8.301,-14.376 160.21,92.5 z"
         fill="#e434aa"
         id="path13" />
      <path
         d="m 134.253,182.883 -8.3,-14.375 160.21,-92.5 8.301,14.375 z"
         fill="#e434aa"
         id="path15" />
      <path
         d="m 422.339,352.663 -160.15,-277.38 14.376,-8.3 160.15,277.38 z"
         fill="#e434aa"
         id="path17" />
      <path
         d="m 132.271,157.5 h 16.6 v 185 h -16.6 z"
         fill="#e434aa"
         id="path19" />
      <path
         d="m 410.671,157.5 h 16.6 v 185 h -16.6 z"
         fill="#e434aa"
         id="path21" />
      <path
         d="m 283.293,416.999 -7.25,-12.557 139.339,-80.45 7.25,12.557 z"
         fill="#e434aa"
         id="path23" />
      <path
         d="m 449.272,347.9 c -9.6,16.7 -31,22.4 -47.7,12.8 -16.701,-9.6 -22.4,-31 -12.8,-47.7 9.599,-16.7 31,-22.4 47.699,-12.8 16.801,9.7 22.5,31 12.801,47.7"
         fill="#e434aa"
         id="path25" />
      <path
         d="m 170.671,187 c -9.6,16.7 -31,22.4 -47.7,12.8 -16.7,-9.6 -22.4,-31 -12.8,-47.7 9.6,-16.7 31,-22.4 47.7,-12.8 16.7,9.7 22.4,31 12.8,47.7"
         fill="#e434aa"
         id="path27" />
      <path
         d="m 110.271,347.9 c -9.6,-16.7 -3.9,-38 12.8,-47.7 16.7,-9.6 38,-3.9 47.7,12.8 9.6,16.7 3.9,38 -12.8,47.7 -16.8,9.6 -38.1,3.9 -47.7,-12.8"
         fill="#e434aa"
         id="path29" />
      <path
         d="m 388.871,187 c -9.6,-16.7 -3.9,-38 12.8,-47.7 16.7,-9.6 38,-3.9 47.7,12.8 9.6,16.7 3.9,38 -12.8,47.7 -16.7,9.6 -38.1,3.9 -47.7,-12.8"
         fill="#e434aa"
         id="path31" />
      <path
         d="m 279.771,445.8 c -19.3,0 -34.9,-15.6 -34.9,-34.9 0,-19.3 15.6,-34.9 34.9,-34.9 19.301,0 34.9,15.6 34.9,34.9 0,19.2 -15.599,34.9 -34.9,34.9"
         fill="#e434aa"
         id="path33" />
      <path
         d="m 279.771,124 c -19.3,0 -34.9,-15.6 -34.9,-34.9 0,-19.3 15.6,-34.9 34.9,-34.9 19.301,0 34.9,15.6 34.9,34.9 0,19.3 -15.599,34.9 -34.9,34.9"
         fill="#e434aa"
         id="path35" />
    </g>
    <g
       id="g1175">
      <g
         id="GraphQL-text"
         transform="translate(0,-89.508733)">
        <path
           d="m 1395.102,332.35 q -2.43,0 -3.888,-1.458 -1.458,-1.458 -1.458,-3.888 V 167.596 q 0,-2.43 1.458,-3.888 1.458,-1.458 3.888,-1.458 h 4.617 q 2.43,0 3.888,1.458 1.458,1.458 1.458,3.888 V 317.77 h 83.835 q 2.673,0 4.131,1.458 1.458,1.458 1.458,4.131 v 3.645 q 0,2.43 -1.458,3.888 -1.458,1.458 -4.131,1.458 z"
           fill="#e434aa"
           id="path38" />
        <path
           d="m 1338.969,348.145 q -2.673,0 -4.618,-2.066 -1.944,-2.065 -3.158,-3.523 L 1320.5,327.733 q -14.579,7.047 -34.02,7.047 -20.168,0 -34.262,-7.169 -14.094,-7.168 -21.628,-22.113 -7.533,-14.944 -8.262,-37.786 -0.243,-10.935 -0.243,-20.412 0,-9.477 0.243,-20.412 0.729,-22.599 8.749,-37.544 8.018,-14.944 22.234,-22.234 14.215,-7.29 33.169,-7.29 18.954,0 33.17,7.29 14.215,7.29 22.356,22.234 8.14,14.945 8.626,37.544 0.487,10.935 0.487,20.412 0,9.477 -0.487,20.412 -1.215,34.749 -17.739,51.03 l 15.552,21.87 q 0.243,0.243 0.487,0.85 0.242,0.608 0.242,1.823 0,1.944 -1.458,3.402 -1.457,1.458 -3.402,1.458 z M 1286.48,320.2 q 20.899,0 34.385,-12.636 13.486,-12.636 14.458,-41.067 0.486,-10.935 0.486,-19.197 0,-8.262 -0.486,-19.197 -0.485,-18.954 -6.925,-30.861 -6.44,-11.907 -17.253,-17.375 -10.813,-5.467 -24.665,-5.467 -13.608,0 -24.421,5.467 -10.814,5.468 -17.253,17.375 -6.44,11.907 -7.169,30.861 -0.242,10.935 -0.242,19.197 0,8.262 0.242,19.197 0.972,28.431 14.581,41.067 13.607,12.636 34.262,12.636 z"
           fill="#e434aa"
           id="path40" />
        <path
           d="m 1087.707,332.35 q -2.43,0 -3.888,-1.458 -1.458,-1.458 -1.458,-3.888 V 165.166 q 0,-2.43 1.458,-3.888 1.458,-1.458 3.888,-1.458 h 4.131 q 2.43,0 3.888,1.458 1.458,1.458 1.458,3.888 v 57.591 q 6.561,-8.505 15.916,-13.851 9.356,-5.346 24.908,-5.346 16.524,0 27.58,7.168 11.057,7.169 16.524,19.44 5.468,12.272 5.468,27.824 v 69.012 q 0,2.43 -1.458,3.888 -1.458,1.458 -3.888,1.458 h -4.131 q -2.43,0 -3.888,-1.458 -1.458,-1.458 -1.458,-3.888 v -67.797 q 0,-19.44 -9.477,-30.497 -9.477,-11.056 -27.702,-11.056 -17.253,0 -27.824,11.056 -10.57,11.057 -10.57,30.497 v 67.797 q 0,2.43 -1.458,3.888 -1.458,1.458 -3.888,1.458 z"
           fill="#e434aa"
           id="path42" />
        <path
           d="m 946.524,378.52 q -2.43,0 -3.888,-1.458 -1.458,-1.458 -1.458,-3.888 V 211.336 q 0,-2.43 1.458,-3.888 1.458,-1.458 3.888,-1.458 h 4.131 q 2.43,0 3.888,1.458 1.458,1.458 1.458,3.888 v 11.421 q 6.075,-8.262 15.916,-13.73 9.842,-5.467 24.908,-5.467 14.337,0 24.057,4.981 9.72,4.982 15.795,13.244 6.075,8.262 8.991,18.468 2.916,10.206 3.159,20.898 0.243,3.645 0.243,8.019 0,4.374 -0.243,8.019 -0.243,10.692 -3.159,20.898 -2.916,10.206 -8.991,18.468 -6.075,8.262 -15.795,13.243 -9.72,4.982 -24.057,4.982 -15.066,0 -24.908,-5.589 -9.841,-5.589 -15.916,-13.608 v 57.591 q 0,2.43 -1.458,3.888 -1.458,1.458 -3.888,1.458 z m 48.843,-57.834 q 14.337,0 22.599,-6.318 8.262,-6.318 11.907,-16.524 3.645,-10.206 4.131,-21.87 0.243,-6.804 0,-13.608 -0.486,-11.664 -4.131,-21.87 -3.645,-10.206 -11.907,-16.524 -8.262,-6.318 -22.599,-6.318 -13.851,0 -22.356,6.561 -8.505,6.561 -12.515,16.402 -4.009,9.842 -4.495,19.805 -0.243,3.645 -0.243,9.477 0,5.832 0.243,9.477 0.243,9.72 4.495,19.197 4.253,9.477 12.879,15.795 8.627,6.318 21.992,6.318 z"
           fill="#e434aa"
           id="path44" />
        <path
           d="m 844.707,334.78 q -11.664,0 -21.506,-4.86 -9.841,-4.86 -15.916,-13.001 -6.075,-8.14 -6.075,-18.346 0,-16.524 13.365,-26.487 13.365,-9.963 34.749,-12.879 l 38.394,-5.346 v -8.505 q 0,-12.879 -7.898,-20.291 -7.897,-7.411 -25.15,-7.411 -12.636,0 -20.412,4.981 -7.776,4.982 -10.692,13.001 -1.215,3.645 -4.617,3.645 h -3.888 q -2.916,0 -4.131,-1.58 -1.215,-1.579 -1.215,-3.766 0,-3.402 2.551,-8.505 2.552,-5.103 7.898,-10.085 5.346,-4.981 13.851,-8.383 8.505,-3.402 20.655,-3.402 14.337,0 23.692,3.888 9.356,3.888 14.58,10.084 5.225,6.197 7.412,13.73 2.187,7.533 2.187,14.823 v 80.919 q 0,2.43 -1.458,3.888 -1.458,1.458 -3.888,1.458 h -4.131 q -2.43,0 -3.888,-1.458 -1.458,-1.458 -1.458,-3.888 v -11.421 q -2.916,4.374 -8.262,8.748 -5.346,4.374 -13.73,7.411 -8.383,3.038 -21.019,3.038 z m 2.43,-14.094 q 11.178,0 20.412,-4.86 9.234,-4.86 14.701,-14.944 5.468,-10.085 5.468,-25.394 v -8.262 l -31.347,4.374 q -19.926,2.673 -30.132,9.234 -10.206,6.561 -10.206,16.524 0,8.019 4.617,13.122 4.617,5.103 11.785,7.654 7.169,2.552 14.702,2.552 z"
           fill="#e434aa"
           id="path46" />
        <path
           d="m 733.413,332.35 q -2.43,0 -3.888,-1.458 -1.458,-1.458 -1.458,-3.888 V 211.579 q 0,-2.43 1.458,-4.01 1.458,-1.579 3.888,-1.579 h 3.888 q 2.43,0 4.009,1.579 1.58,1.58 1.58,4.01 v 11.178 q 4.374,-8.505 12.636,-12.636 8.262,-4.131 20.412,-4.131 h 8.991 q 2.43,0 3.888,1.458 1.458,1.458 1.458,3.888 v 3.402 q 0,2.43 -1.458,3.888 -1.458,1.458 -3.888,1.458 H 774.48 q -14.58,0 -23.085,8.505 -8.505,8.505 -8.505,23.085 v 75.33 q 0,2.43 -1.58,3.888 -1.579,1.458 -4.009,1.458 z"
           fill="#e434aa"
           id="path48" />
        <path
           d="m 628.194,334.78 q -20.898,0 -35.114,-8.141 -14.215,-8.14 -21.627,-22.72 -7.411,-14.58 -8.141,-33.534 -0.242,-10.935 -0.242,-23.085 0,-12.15 0.242,-23.085 0.73,-19.197 8.141,-33.656 7.412,-14.458 21.749,-22.599 14.337,-8.14 34.992,-8.14 16.767,0 28.673,4.981 11.908,4.982 19.44,12.393 7.534,7.412 11.179,14.945 3.644,7.533 3.888,12.636 0.243,2.187 -1.215,3.523 -1.458,1.337 -3.888,1.337 h -5.347 q -2.187,0 -3.158,-1.094 -0.972,-1.093 -1.944,-3.766 -2.43,-7.533 -8.141,-14.459 -5.71,-6.925 -15.309,-11.421 -9.599,-4.495 -24.178,-4.495 -21.627,0 -35.114,11.785 -13.486,11.786 -14.458,39.245 -0.729,21.87 0,43.74 0.972,27.216 14.458,39.123 13.487,11.907 35.114,11.907 14.337,0 25.758,-5.468 11.42,-5.467 17.982,-16.767 6.561,-11.299 6.561,-28.795 v -12.393 h -42.282 q -2.43,0 -3.888,-1.58 -1.458,-1.579 -1.458,-4.009 v -3.402 q 0,-2.673 1.458,-4.131 1.458,-1.458 3.888,-1.458 h 52.002 q 2.673,0 4.131,1.458 1.458,1.458 1.458,4.131 v 21.384 q 0,19.44 -7.655,34.263 -7.654,14.823 -22.356,23.085 -14.702,8.262 -35.599,8.262 z"
           fill="#e434aa"
           id="path50" />
      </g>
      <g
         id="g1154">
        <path
           d="m 567.29397,427.76874 q -1.92,0 -3.072,-1.152 -1.152,-1.152 -1.152,-3.072 v -125.76 q 0,-2.112 1.152,-3.264 1.152,-1.152 3.072,-1.152 h 74.112 q 2.112,0 3.264,1.152 1.152,1.152 1.152,3.264 v 2.88 q 0,1.92 -1.152,3.072 -1.152,1.152 -3.264,1.152 h -66.24 v 51.648 h 62.4 q 2.112,0 3.264,1.152 1.152,1.152 1.152,3.264 v 2.88 q 0,1.92 -1.152,3.072 -1.152,1.152 -3.264,1.152 h -62.4 v 55.488 q 0,1.92 -1.152,3.072 -1.152,1.152 -3.264,1.152 z"
           style="font-style:normal;font-variant:normal;font-weight:300;font-stretch:normal;font-size:192px;line-height:1.25;font-family:Rubik;-inkscape-font-specification:'Rubik, Light';font-variant-ligatures:normal;font-variant-caps:normal;font-variant-numeric:normal;font-variant-east-asian:normal;fill:#e434aa;fill-opacity:1;stroke:none"
           id="path1113" />
        <path
           d="m 705.83997,429.68874 q -13.824,0 -23.232,-5.76 -9.216,-5.76 -14.208,-15.744 -4.8,-9.984 -5.184,-22.272 -0.192,-2.88 -0.192,-8.064 0,-5.184 0.192,-8.064 0.384,-12.48 5.184,-22.272 4.992,-9.984 14.208,-15.744 9.408,-5.76 23.232,-5.76 13.824,0 23.04,5.76 9.408,5.76 14.208,15.744 4.992,9.792 5.376,22.272 0.192,2.88 0.192,8.064 0,5.184 -0.192,8.064 -0.384,12.288 -5.376,22.272 -4.8,9.984 -14.208,15.744 -9.216,5.76 -23.04,5.76 z m 0,-11.136 q 13.44,0 21.888,-8.64 8.448,-8.64 9.024,-24.96 0.192,-2.88 0.192,-7.104 0,-4.224 -0.192,-7.104 -0.576,-16.512 -9.024,-24.96 -8.448,-8.64 -21.888,-8.64 -13.44,0 -21.888,8.64 -8.448,8.448 -9.024,24.96 -0.192,2.88 -0.192,7.104 0,4.224 0.192,7.104 0.576,16.32 9.024,24.96 8.448,8.64 21.888,8.64 z"
           style="font-style:normal;font-variant:normal;font-weight:300;font-stretch:normal;font-size:192px;line-height:1.25;font-family:Rubik;-inkscape-font-specification:'Rubik, Light';font-variant-ligatures:normal;font-variant-caps:normal;font-variant-numeric:normal;font-variant-east-asian:normal;fill:#e434aa;fill-opacity:1;stroke:none"
           id="path1115" />
        <path
           d="m 812.51397,429.68874 q -13.056,0 -21.696,-5.568 -8.448,-5.76 -12.672,-15.552 -4.032,-9.792 -4.032,-21.888 v -54.528 q 0,-1.92 1.152,-3.072 1.152,-1.152 3.072,-1.152 h 3.264 q 1.92,0 3.072,1.152 1.152,1.152 1.152,3.072 v 53.568 q 0,32.832 28.608,32.832 13.632,0 21.888,-8.64 8.256,-8.832 8.256,-24.192 v -53.568 q 0,-1.92 1.152,-3.072 1.152,-1.152 3.072,-1.152 h 3.264 q 1.92,0 3.072,1.152 1.152,1.152 1.152,3.072 v 91.392 q 0,1.92 -1.152,3.072 -1.152,1.152 -3.072,1.152 h -3.264 q -1.92,0 -3.072,-1.152 -1.152,-1.152 -1.152,-3.072 v -9.024 q -5.184,6.72 -12.48,10.944 -7.104,4.224 -19.584,4.224 z"
           style="font-style:normal;font-variant:normal;font-weight:300;font-stretch:normal;font-size:192px;line-height:1.25;font-family:Rubik;-inkscape-font-specification:'Rubik, Light';font-variant-ligatures:normal;font-variant-caps:normal;font-variant-numeric:normal;font-variant-east-asian:normal;fill:#e434aa;fill-opacity:1;stroke:none"
           id="path1117" />
        <path
           d="m 891.79797,427.76874 q -1.92,0 -3.072,-1.152 -1.152,-1.152 -1.152,-3.072 v -91.392 q 0,-1.92 1.152,-3.072 1.152,-1.152 3.072,-1.152 h 3.264 q 1.92,0 3.072,1.152 1.152,1.152 1.152,3.072 v 9.024 q 5.184,-6.72 12.48,-10.944 7.488,-4.224 19.776,-4.224 13.056,0 21.696,5.76 8.832,5.568 13.056,15.36 4.416,9.6 4.416,21.888 v 54.528 q 0,1.92 -1.152,3.072 -1.152,1.152 -3.072,1.152 h -3.264 q -1.92,0 -3.072,-1.152 -1.152,-1.152 -1.152,-3.072 v -53.568 q 0,-15.36 -7.488,-24 -7.488,-8.832 -21.888,-8.832 -13.632,0 -22.08,8.832 -8.256,8.64 -8.256,24 v 53.568 q 0,1.92 -1.152,3.072 -1.152,1.152 -3.072,1.152 z"
           style="font-style:normal;font-variant:normal;font-weight:300;font-stretch:normal;font-size:192px;line-height:1.25;font-family:Rubik;-inkscape-font-specification:'Rubik, Light';font-variant-ligatures:normal;font-variant-caps:normal;font-variant-numeric:normal;font-variant-east-asian:normal;fill:#e434aa;fill-opacity:1;stroke:none"
           id="path1119" />
        <path
           d="m 1036.92,429.68874 q -11.136,0 -19.008,-4.032 -7.68,-4.032 -12.48,-10.752 -4.8,-6.72 -7.10403,-14.976 -2.112,-8.256 -2.496,-16.704 -0.192,-2.88 -0.192,-5.376 0,-2.496 0.192,-5.376 0.384,-8.448 2.496,-16.704 2.30403,-8.256 7.10403,-14.976 4.8,-6.72 12.48,-10.752 7.872,-4.032 19.008,-4.032 11.904,0 19.584,4.416 7.872,4.416 12.672,10.752 v -45.504 q 0,-1.92 1.152,-3.072 1.152,-1.152 3.072,-1.152 h 3.264 q 1.92,0 3.072,1.152 1.152,1.152 1.152,3.072 v 127.872 q 0,1.92 -1.152,3.072 -1.152,1.152 -3.072,1.152 h -3.264 q -1.92,0 -3.072,-1.152 -1.152,-1.152 -1.152,-3.072 v -9.024 q -4.8,6.528 -12.672,10.944 -7.68,4.224 -19.584,4.224 z m 1.152,-11.136 q 10.944,0 17.664,-5.184 6.72,-5.184 9.984,-12.864 3.264,-7.872 3.456,-15.744 0.192,-2.88 0.192,-7.488 0,-4.608 -0.192,-7.488 -0.192,-7.68 -3.648,-15.168 -3.264,-7.488 -9.984,-12.48 -6.72,-4.992 -17.472,-4.992 -11.136,0 -17.856,4.992 -6.528,4.992 -9.408,13.056 -2.88,8.064 -3.264,17.28 -0.192,5.376 0,10.752 0.384,9.216 3.264,17.28 2.88,8.064 9.408,13.056 6.72,4.992 17.856,4.992 z"
           style="font-style:normal;font-variant:normal;font-weight:300;font-stretch:normal;font-size:192px;line-height:1.25;font-family:Rubik;-inkscape-font-specification:'Rubik, Light';font-variant-ligatures:normal;font-variant-caps:normal;font-variant-numeric:normal;font-variant-east-asian:normal;fill:#e434aa;fill-opacity:1;stroke:none"
           id="path1121" />
        <path
           d="m 1139.079,429.68874 q -9.216,0 -17.088,-3.84 -7.68,-3.84 -12.48,-10.176 -4.8,-6.528 -4.8,-14.592 0,-13.056 10.56,-20.928 10.56,-7.872 27.456,-10.176 l 30.336,-4.224 v -6.72 q 0,-10.176 -6.336,-15.936 -6.144,-5.952 -19.776,-5.952 -9.984,0 -16.128,4.032 -6.144,3.84 -8.448,10.176 -0.96,2.88 -3.648,2.88 h -3.072 q -2.304,0 -3.264,-1.152 -0.96,-1.344 -0.96,-3.072 0,-2.688 1.92,-6.72 2.112,-4.032 6.336,-7.872 4.224,-4.032 10.944,-6.72 6.72,-2.688 16.32,-2.688 11.328,0 18.624,3.072 7.488,3.072 11.52,8.064 4.224,4.8 5.952,10.752 1.728,5.952 1.728,11.712 v 63.936 q 0,1.92 -1.152,3.072 -1.152,1.152 -3.072,1.152 h -3.264 q -1.92,0 -3.072,-1.152 -1.152,-1.152 -1.152,-3.072 v -9.024 q -2.304,3.456 -6.528,6.912 -4.224,3.456 -10.944,5.952 -6.528,2.304 -16.512,2.304 z m 1.92,-11.136 q 8.832,0 16.128,-3.84 7.296,-3.84 11.52,-11.712 4.416,-8.064 4.416,-20.16 v -6.528 l -24.768,3.456 q -15.744,2.112 -23.808,7.296 -8.064,5.184 -8.064,13.056 0,6.336 3.648,10.368 3.648,4.032 9.216,6.144 5.76,1.92 11.712,1.92 z"
           style="font-style:normal;font-variant:normal;font-weight:300;font-stretch:normal;font-size:192px;line-height:1.25;font-family:Rubik;-inkscape-font-specification:'Rubik, Light';font-variant-ligatures:normal;font-variant-caps:normal;font-variant-numeric:normal;font-variant-east-asian:normal;fill:#e434aa;fill-opacity:1;stroke:none"
           id="path1123" />
        <path
           d="m 1247.424,427.76874 q -9.984,0 -15.744,-4.224 -5.76,-4.224 -8.064,-11.52 -2.304,-7.296 -2.304,-16.32 v -56.64 h -14.976 q -1.92,0 -3.072,-1.152 -1.152,-1.152 -1.152,-3.072 v -2.688 q 0,-1.92 1.152,-3.072 1.152,-1.152 3.072,-1.152 h 14.976 v -32.256 q 0,-1.92 1.152,-3.072 1.152,-1.152 3.072,-1.152 h 3.264 q 1.92,0 3.072,1.152 1.152,1.152 1.152,3.072 v 32.256 h 23.808 q 1.92,0 3.072,1.152 1.152,1.152 1.152,3.072 v 2.688 q 0,1.92 -1.152,3.072 -1.152,1.152 -3.072,1.152 h -23.808 v 55.872 q 0,10.176 3.264,15.936 3.456,5.76 12.096,5.76 h 10.368 q 1.92,0 3.072,1.152 1.152,1.152 1.152,3.072 v 2.688 q 0,1.92 -1.152,3.072 -1.152,1.152 -3.072,1.152 z"
           style="font-style:normal;font-variant:normal;font-weight:300;font-stretch:normal;font-size:192px;line-height:1.25;font-family:Rubik;-inkscape-font-specification:'Rubik, Light';font-variant-ligatures:normal;font-variant-caps:normal;font-variant-numeric:normal;font-variant-east-asian:normal;fill:#e434aa;fill-opacity:1;stroke:none"
           id="path1125" />
        <path
           d="m 1287.048,427.76874 q -1.92,0 -3.072,-1.152 -1.152,-1.152 -1.152,-3.072 v -91.392 q 0,-1.92 1.152,-3.072 1.152,-1.152 3.072,-1.152 h 3.264 q 1.92,0 3.072,1.152 1.152,1.152 1.152,3.072 v 91.392 q 0,1.92 -1.152,3.072 -1.152,1.152 -3.072,1.152 z m -2.112,-120.384 q -1.92,0 -3.072,-1.152 -1.152,-1.152 -1.152,-3.072 v -7.296 q 0,-1.92 1.152,-3.072 1.152,-1.344 3.072,-1.344 h 7.296 q 1.92,0 3.072,1.344 1.344,1.152 1.344,3.072 v 7.296 q 0,1.92 -1.344,3.072 -1.152,1.152 -3.072,1.152 z"
           style="font-style:normal;font-variant:normal;font-weight:300;font-stretch:normal;font-size:192px;line-height:1.25;font-family:Rubik;-inkscape-font-specification:'Rubik, Light';font-variant-ligatures:normal;font-variant-caps:normal;font-variant-numeric:normal;font-variant-east-asian:normal;fill:#e434aa;fill-opacity:1;stroke:none"
           id="path1127" />
        <path
           d="m 1363.59,429.68874 q -13.824,0 -23.232,-5.76 -9.216,-5.76 -14.208,-15.744 -4.8,-9.984 -5.184,-22.272 -0.192,-2.88 -0.192,-8.064 0,-5.184 0.192,-8.064 0.384,-12.48 5.184,-22.272 4.992,-9.984 14.208,-15.744 9.408,-5.76 23.232,-5.76 13.824,0 23.04,5.76 9.408,5.76 14.208,15.744 4.992,9.792 5.376,22.272 0.192,2.88 0.192,8.064 0,5.184 -0.192,8.064 -0.384,12.288 -5.376,22.272 -4.8,9.984 -14.208,15.744 -9.216,5.76 -23.04,5.76 z m 0,-11.136 q 13.44,0 21.888,-8.64 8.448,-8.64 9.024,-24.96 0.192,-2.88 0.192,-7.104 0,-4.224 -0.192,-7.104 -0.576,-16.512 -9.024,-24.96 -8.448,-8.64 -21.888,-8.64 -13.44,0 -21.888,8.64 -8.448,8.448 -9.024,24.96 -0.192,2.88 -0.192,7.104 0,4.224 0.192,7.104 0.576,16.32 9.024,24.96 8.448,8.64 21.888,8.64 z"
           style="font-style:normal;font-variant:normal;font-weight:300;font-stretch:normal;font-size:192px;line-height:1.25;font-family:Rubik;-inkscape-font-specification:'Rubik, Light';font-variant-ligatures:normal;font-variant-caps:normal;font-variant-numeric:normal;font-variant-east-asian:normal;fill:#e434aa;fill-opacity:1;stroke:none"
           id="path1129" />
        <path
           d="m 1437.048,427.76874 q -1.92,0 -3.072,-1.152 -1.152,-1.152 -1.152,-3.072 v -91.392 q 0,-1.92 1.152,-3.072 1.152,-1.152 3.072,-1.152 h 3.264 q 1.92,0 3.072,1.152 1.152,1.152 1.152,3.072 v 9.024 q 5.184,-6.72 12.48,-10.944 7.488,-4.224 19.776,-4.224 13.056,0 21.696,5.76 8.832,5.568 13.056,15.36 4.416,9.6 4.416,21.888 v 54.528 q 0,1.92 -1.152,3.072 -1.152,1.152 -3.072,1.152 h -3.264 q -1.92,0 -3.072,-1.152 -1.152,-1.152 -1.152,-3.072 v -53.568 q 0,-15.36 -7.488,-24 -7.488,-8.832 -21.888,-8.832 -13.632,0 -22.08,8.832 -8.256,8.64 -8.256,24 v 53.568 q 0,1.92 -1.152,3.072 -1.152,1.152 -3.072,1.152 z"
           style="font-style:normal;font-variant:normal;font-weight:300;font-stretch:normal;font-size:192px;line-height:1.25;font-family:Rubik;-inkscape-font-specification:'Rubik, Light';font-variant-ligatures:normal;font-variant-caps:normal;font-variant-numeric:normal;font-variant-east-asian:normal;fill:#e434aa;fill-opacity:1;stroke:none"
           id="path1131" />
      </g>
    </g>
  </g>
</svg>
