<?xml version="1.0" encoding="UTF-8"?>
<svg xmlns="http://www.w3.org/2000/svg" xmlns:xlink="http://www.w3.org/1999/xlink" viewBox="0 0 400 245">
  <defs>
    <style>
      .cls-1 {
        stroke: rgba(214, 66, 146, .325604);
        stroke-width: 3.7971041px;
      }

      .cls-1, .cls-2, .cls-3, .cls-4, .cls-5, .cls-6, .cls-7, .cls-8, .cls-9, .cls-10, .cls-11, .cls-12, .cls-13, .cls-14, .cls-15, .cls-16, .cls-17, .cls-18, .cls-19, .cls-20, .cls-21, .cls-22, .cls-23, .cls-24, .cls-25, .cls-26 {
        fill: #d64292;
      }

      .cls-1, .cls-2, .cls-3, .cls-4, .cls-5, .cls-6, .cls-7, .cls-9, .cls-10, .cls-11, .cls-12, .cls-13, .cls-14, .cls-15, .cls-16, .cls-17, .cls-18, .cls-19, .cls-20, .cls-21, .cls-22, .cls-23, .cls-24, .cls-25, .cls-26 {
        stroke-linecap: round;
      }

      .cls-27, .cls-28 {
        fill: none;
      }

      .cls-2 {
        stroke: rgba(214, 66, 146, .424178);
      }

      .cls-2, .cls-5, .cls-12 {
        stroke-width: 4.2700606px;
      }

      .cls-3 {
        stroke: rgba(214, 66, 146, .479142);
      }

      .cls-3, .cls-13, .cls-14, .cls-18 {
        stroke-width: 3.5976916px;
      }

      .cls-4 {
        stroke: rgba(214, 66, 146, .248799);
        stroke-width: 3.075162px;
      }

      .cls-5 {
        stroke: rgba(214, 66, 146, .421398);
      }

      .cls-29 {
        clip-path: url(#clippath);
      }

      .cls-6 {
        stroke: rgba(214, 66, 146, .252953);
        stroke-width: 2.6430413px;
      }

      .cls-7 {
        stroke: rgba(214, 66, 146, .248208);
        stroke-width: 3.065593px;
      }

      .cls-30 {
        fill: #fff;
      }

      .cls-31 {
        fill: rgba(214, 66, 146, .5);
      }

      .cls-9 {
        stroke: rgba(214, 66, 146, .278363);
        stroke-width: 3.4220916px;
      }

      .cls-10 {
        stroke: rgba(214, 66, 146, .368023);
        stroke-width: 4.1512278px;
      }

      .cls-11 {
        stroke: rgba(214, 66, 146, .22);
        stroke-width: 1.5804891px;
      }

      .cls-12 {
        stroke: rgba(214, 66, 146, .419731);
      }

      .cls-13 {
        stroke: rgba(214, 66, 146, .479241);
      }

      .cls-32 {
        fill: url(#linear-gradient);
        mix-blend-mode: multiply;
        opacity: .2;
      }

      .cls-33 {
        clip-path: url(#clippath-4);
      }

      .cls-34 {
        clip-path: url(#clippath-7);
      }

      .cls-35 {
        clip-path: url(#clippath-6);
      }

      .cls-36 {
        clip-path: url(#clippath-5);
      }

      .cls-37 {
        clip-path: url(#clippath-9);
      }

      .cls-28 {
        stroke: #fff;
        stroke-miterlimit: 10;
        stroke-width: 1.4254036px;
      }

      .cls-38 {
        fill: url(#radial-gradient-3);
      }

      .cls-39 {
        fill: url(#radial-gradient-2);
      }

      .cls-14 {
        stroke: rgba(214, 66, 146, .460508);
      }

      .cls-15 {
        stroke: rgba(214, 66, 146, .281435);
        stroke-width: 3.4497065px;
      }

      .cls-16 {
        stroke: rgba(214, 66, 146, .258584);
        stroke-width: 2.7065756px;
      }

      .cls-40 {
        opacity: .44;
      }

      .cls-17 {
        stroke: rgba(214, 66, 146, .228611);
        stroke-width: 2.6540205px;
      }

      .cls-18 {
        stroke: rgba(214, 66, 146, .496627);
      }

      .cls-41 {
        fill: url(#radial-gradient);
      }

      .cls-19 {
        stroke: rgba(214, 66, 146, .162584);
        stroke-width: 1.2975629px;
      }

      .cls-20 {
        stroke: rgba(214, 66, 146, .277868);
        stroke-width: 2.8795058px;
      }

      .cls-21 {
        stroke: rgba(214, 66, 146, .237965);
        stroke-width: 1.2525401px;
      }

      .cls-42 {
        isolation: isolate;
      }

      .cls-22 {
        stroke: rgba(214, 66, 146, .24);
        stroke-width: 1.9488242px;
      }

      .cls-23 {
        stroke: rgba(214, 66, 146, .220117);
        stroke-width: 1.8556396px;
      }

      .cls-24 {
        stroke: rgba(214, 66, 146, .13445);
        stroke-width: 1.0865154px;
      }

      .cls-25 {
        stroke: rgba(214, 66, 146, .277324);
        stroke-width: 3.4125745px;
      }

      .cls-26 {
        stroke: rgba(214, 66, 146, .326601);
        stroke-width: 3.2055755px;
      }
    </style>
    <clipPath id="clippath">
      <rect class="cls-27" x="-1559.3708483" y="-2345.7093173" width="2415.7352436" height="520.8333607"/>
    </clipPath>
    <clipPath id="clippath-1">
      <rect class="cls-27" x="934.6691538" y="-961.0901796" width="1615.3615075" height="415.5915256"/>
    </clipPath>
    <clipPath id="clippath-2">
      <rect class="cls-27" x="938.5187814" y="-1684.2063778" width="1276.8848328" height="241.7325139"/>
    </clipPath>
    <clipPath id="clippath-3">
      <rect class="cls-27" x="937.5603635" y="-459.6597927" width="613.0190762" height="222.046371"/>
    </clipPath>
    <clipPath id="clippath-4">
      <rect class="cls-27" x="-1570.8492188" y="-1756.993144" width="1233.59131" height="542.7319307"/>
    </clipPath>
    <clipPath id="clippath-5">
      <rect class="cls-27" x="-1574.2324017" y="-22.6895763" width="1231.6239727" height="651.2729604"/>
    </clipPath>
    <radialGradient id="radial-gradient" cx="34.4199099" cy="1422.0611502" fx="7385.1117709" fy="1212.0614949" r="7353.690957" gradientUnits="userSpaceOnUse">
      <stop offset="0" stop-color="#d64292"/>
      <stop offset=".1034364" stop-color="#a9377c"/>
      <stop offset=".2301812" stop-color="#782d66"/>
      <stop offset=".3564638" stop-color="#512453"/>
      <stop offset=".4798747" stop-color="#321d44"/>
      <stop offset=".5996397" stop-color="#1b183a"/>
      <stop offset=".7140882" stop-color="#0e1534"/>
      <stop offset=".8174306" stop-color="#0a1432"/>
    </radialGradient>
    <clipPath id="clippath-6">
      <polygon class="cls-27" points="-508.2378149 807.6669365 -1565.9485081 807.0200204 -1565.3015921 710.7616082 -507.5908989 711.4085242 -508.2378149 807.6669365"/>
    </clipPath>
    <radialGradient id="radial-gradient-2" cx="44.1684292" cy="1541.0311119" fx="5094.4012105" fy="1396.7525647" r="5052.2932856" xlink:href="#radial-gradient"/>
    <linearGradient id="linear-gradient" x1="-92.2135063" y1="-145.0284701" x2="-1445.727472" y2="794.1503273" gradientUnits="userSpaceOnUse">
      <stop offset="0" stop-color="#fff"/>
      <stop offset=".107767" stop-color="#e9e9e9"/>
      <stop offset=".3315481" stop-color="#b2b2b2"/>
      <stop offset=".649111" stop-color="#5b5a59"/>
      <stop offset=".8556058" stop-color="#1f1e1d"/>
    </linearGradient>
    <clipPath id="clippath-7">
      <rect class="cls-27" x="-1562.2400729" y="-1146.1742876" width="1038.3369181" height="1054.0128656"/>
    </clipPath>
    <radialGradient id="radial-gradient-3" cx="426.3835035" cy="585.4348061" fx="6619.6264066" fy="408.5019541" r="6195.7697578" xlink:href="#radial-gradient"/>
    <clipPath id="clippath-8">
      <rect class="cls-27" x="928.7395402" y="-3250.9723959" width="2413.3284704" height="1222.2170365"/>
    </clipPath>
    <clipPath id="clippath-9">
      <rect class="cls-27" x="750.2042217" y="190.9561726" width="2413.3284704" height="774.7990798"/>
    </clipPath>
  </defs>
  <g class="cls-42">
    <g id="BG">
      <g class="cls-29">
        <g>
          <circle class="cls-8" cx="181.075149" cy="108.8589914" r="24.9285717" transform="translate(-18.3659729 178.5850877) rotate(-50.2835028)"/>
          <circle class="cls-8" cx="392.7204276" cy="122.3011436" r="19.8129054" transform="translate(28.5451822 313.5164531) rotate(-45)"/>
          <circle class="cls-8" cx="89.6489337" cy="97.0821422" r="15.7053781" transform="translate(-40.528758 74.374385) rotate(-37.3846483)"/>
          <line class="cls-1" x1="181.0751842" y1="108.8589481" x2="166.155482" y2="289.7726254"/>
          <line class="cls-10" x1="170.733" y1="261.4493256" x2="181.0751842" y2="108.8589481"/>
          <line class="cls-2" x1="129.3434611" y1="-40.071985" x2="-102.8279761" y2="4.0333038"/>
          <line class="cls-22" x1="392.7203842" y1="122.3011869" x2="170.733" y2="261.4493256"/>
          <line class="cls-15" x1="129.3434611" y1="-40.071985" x2="392.7203842" y2="122.3011869"/>
          <line class="cls-5" x1="392.7203842" y1="122.3011869" x2="207.8740421" y2="271.9579275"/>
          <line class="cls-19" x1="392.7203842" y1="122.3011869" x2="-43.5980842" y2="24.5167566"/>
          <line class="cls-7" x1="207.8740421" y1="271.9579275" x2="-43.5980842" y2="24.5167566"/>
          <line class="cls-17" x1="89.648977" y1="97.0821025" x2="-43.5980842" y2="24.5167566"/>
          <line class="cls-25" x1="89.648977" y1="97.0821025" x2="-76.4177897" y2="5.4853007"/>
          <line class="cls-9" x1="89.648977" y1="97.0821025" x2="442.3257697" y2="72.2518468"/>
          <path class="cls-31" d="M19.7577601,113.6755351c0-4.7538336,3.8536163-8.6072765,8.6074499-8.6072765,4.7536602,0,8.6072765,3.853443,8.6072765,8.6072765,0,4.7538336-3.8536163,8.6074499-8.6072765,8.6074499-4.7538336,0-8.6074499-3.8536163-8.6074499-8.6074499Z"/>
          <path class="cls-31" d="M234.8138191,132.6218752c0-4.4478672,3.6055495-8.0532433,8.0532433-8.0532433,4.4478672,0,8.0534023,3.6053762,8.0534023,8.0532433,0,4.4476808-3.6055351,8.0532433-8.0534023,8.0532433-4.4476938,0-8.0532433-3.6055625-8.0532433-8.0532433Z"/>
          <path class="cls-31" d="M107.6066903,47.3614379c0-3.0669447,2.4860239-5.5529866,5.5531599-5.5529866,3.0669447,0,5.5529866,2.4860419,5.5529866,5.5529866s-2.4860419,5.5531599-5.5529866,5.5531599c-3.067136,0-5.5531599-2.4860419-5.5531599-5.5531599Z"/>
        </g>
      </g>
      <g class="cls-33">
        <g>
          <path class="cls-31" d="M11.0841779,188.773275c0-1.9945,1.6168397-3.6111905,3.6111905-3.6111905,1.9945,0,3.6113396,1.6166905,3.6113396,3.6111905,0,1.9945-1.6168397,3.6111905-3.6113396,3.6111905-1.9943508,0-3.6111905-1.6166905-3.6111905-3.6111905Z"/>
          <path class="cls-31" d="M69.7284736,204.9242025c0-4.4985134,3.6468385-8.145352,8.1453518-8.145352,4.4986559,0,8.1454945,3.6468386,8.1454945,8.145352,0,4.4986804-3.6468386,8.1455189-8.1454945,8.1455189-4.4985133,0-8.1453518-3.6468385-8.1453518-8.1455189Z"/>
        </g>
      </g>
      <g class="cls-36">
        <rect id="BG-2" data-name="BG" class="cls-41" x="-2476.2954499" y="-1760.0170736" width="2533.3469488" height="3212.9916871"/>
        <g>
          <line class="cls-11" x1="74.1206185" y1="398.8026364" x2="-120.0473889" y2="5.2742072"/>
          <line class="cls-12" x1="63.5733589" y1="-135.1251903" x2="-120.0473889" y2="5.2742072"/>
          <line class="cls-4" x1="100.4070322" y1="-237.9052828" x2="-32.9596453" y2="94.603913"/>
          <line class="cls-24" x1="37.0778825" y1="446.8407471" x2="-333.8277493" y2="132.4794323"/>
        </g>
        <rect class="cls-27" x="-2447.1545991" y="-584.993089" width="2467.1338457" height="1291.3604159"/>
      </g>
      <g class="cls-35">
        <rect id="BG-3" data-name="BG" class="cls-39" x="-1680.7980438" y="-645.1897312" width="1740.5153214" height="2207.4596855"/>
        <g>
          <circle class="cls-8" cx="355.9552493" cy="253.1236747" r="21.2085156"/>
          <line class="cls-21" x1="173.7427853" y1="-56.4411181" x2="-96.6130572" y2="90.0977635"/>
          <circle class="cls-31" cx="308.4644637" cy="23.8837245" r="8.7212516" transform="translate(214.3486596 318.6089746) rotate(-76.7174002)"/>
          <circle class="cls-31" cx="296.0783788" cy="2.2916767" r="6.9228136"/>
          <circle class="cls-31" cx="281.7325312" cy="111.0150496" r="8.9472836" transform="translate(-21.0380127 116.2646298) rotate(-22.4999509)"/>
          <path class="cls-31" d="M133.7107339,90.6256152c0-3.3953062,2.7524038-6.1478291,6.1478291-6.1478291,3.3953062,0,6.14771,2.7525229,6.14771,6.1478291,0,3.3953062-2.7524038,6.1478291-6.14771,6.1478291-3.3954253,0-6.1478291-2.7525229-6.1478291-6.1478291Z"/>
          <circle class="cls-31" cx="297.859134" cy="28.2259362" r="8.834106" transform="translate(201.9546377 311.6321725) rotate(-76.7175499)"/>
          <circle class="cls-31" cx="153.42097" cy="176.3487601" r="7.5154558"/>
        </g>
        <rect class="cls-32" x="-1566.2324178" y="-70.6894796" width="1676.6402737" height="733.5217241"/>
      </g>
      <g class="cls-34">
        <rect id="BG-4" data-name="BG" class="cls-38" x="-1688.9915357" y="-2095.589477" width="2134.4430304" height="2707.0700745"/>
        <g>
          <circle class="cls-8" cx="5.0888152" cy="257.5631378" r="15.8267888" transform="translate(-247.2576392 205.7371504) rotate(-77.2623064)"/>
          <circle class="cls-8" cx="34.8092439" cy="237.1282833" r="20.3772728"/>
          <circle class="cls-8" cx="353.2080765" cy="7.8115288" r="11.557234" transform="translate(97.9286655 252.0437699) rotate(-45)"/>
          <line class="cls-14" x1="-41.9401729" y1="130.9963718" x2="5.0887747" y2="257.5631013"/>
          <line class="cls-13" x1="34.8092458" y1="237.1282833" x2="5.0887747" y2="257.5631013"/>
          <line class="cls-16" x1="34.8092458" y1="237.1282833" x2="309.9280444" y2="331.5926703"/>
          <line class="cls-26" x1="34.8092458" y1="237.1282833" x2="127.9713917" y2="474.1080001"/>
          <line class="cls-3" x1="34.8092458" y1="237.1282833" x2="-34.5612862" y2="238.4594361"/>
          <line class="cls-6" x1="127.9713917" y1="474.1080001" x2="-34.5612862" y2="238.4594361"/>
          <line class="cls-23" x1="353.20804" y1="7.8115653" x2="309.9280444" y2="331.5926703"/>
          <line class="cls-18" x1="302.9915606" y1="-151.7818941" x2="353.20804" y2="7.8115653"/>
          <line class="cls-20" x1="428.6229485" y1="-272.7361359" x2="353.20804" y2="7.8115653"/>
          <circle class="cls-31" cx="228.5016237" cy="200.6837008" r="5.9288446"/>
        </g>
      </g>
      <g class="cls-37">
        <g class="cls-40">
          <path class="cls-31" d="M399.5539448,124.9733625c0-5.4984949,4.4574219-9.9559169,9.9557496-9.9559169,5.4984948,0,9.9559167,4.457422,9.9559167,9.9559169,0,5.4984949-4.4574219,9.9559169-9.9559167,9.9559169-5.4983277,0-9.9557496-4.457422-9.9557496-9.9559169Z"/>
        </g>
      </g>
    </g>
    <g id="AW">
      <g>
        <g>
          <g>
            <g>
              <path class="cls-30" d="M91.2383936,183.0103137c-.0908203,0-.1689453-.0322266-.2324219-.0957031s-.0957031-.140625-.0957031-.2314453v-9.0341797c0-.0908203,.0322266-.1679688,.0957031-.2314453s.1416016-.0957031,.2324219-.0957031h1.2138672c.1005859,0,.1796875,.0322266,.2392578,.0957031,.0585938,.0634766,.0888672,.140625,.0888672,.2314453v3.1113281c.2451172-.2910156,.5458984-.5273438,.9003906-.7089844,.3544922-.1826172,.7910156-.2734375,1.3095703-.2734375,.5556641,0,1.0400391,.125,1.4541016,.375,.4130859,.2509766,.734375,.6035156,.9619141,1.0576172,.2265625,.4550781,.3408203,1.0009766,.3408203,1.6376953v3.8349609c0,.0908203-.0322266,.1679688-.0957031,.2314453s-.140625,.0957031-.2314453,.0957031h-1.2285156c-.0908203,0-.1679688-.0322266-.2314453-.0957031-.0644531-.0634766-.0957031-.140625-.0957031-.2314453v-3.7529297c0-.5273438-.1298828-.9414062-.3896484-1.2421875-.2587891-.2998047-.6337891-.4501953-1.125-.4501953-.4736328,0-.8535156,.1503906-1.1396484,.4501953-.2871094,.3007812-.4296875,.7148438-.4296875,1.2421875v3.7529297c0,.0908203-.0302734,.1679688-.0888672,.2314453-.0595703,.0634766-.1386719,.0957031-.2392578,.0957031h-1.2138672Z"/>
              <path class="cls-30" d="M102.6182764,183.1470325c-.7275391,0-1.3388672-.1279297-1.8349609-.3828125-.4960938-.2539062-.8730469-.6132812-1.1328125-1.0771484-.2587891-.4638672-.4072266-1.0058594-.4433594-1.6240234-.0087891-.1640625-.0136719-.3642578-.0136719-.6005859s.0048828-.4365234,.0136719-.6005859c.0361328-.6279297,.1884766-1.1708984,.4570312-1.6308594,.2685547-.4589844,.6503906-.8164062,1.1464844-1.0712891,.4951172-.2539062,1.0986328-.3818359,1.8076172-.3818359,.7099609,0,1.3125,.1279297,1.8085938,.3818359,.4951172,.2548828,.8779297,.6123047,1.1455078,1.0712891,.2685547,.4599609,.4208984,1.0029297,.4580078,1.6308594,.0087891,.1640625,.0136719,.3642578,.0136719,.6005859s-.0048828,.4365234-.0136719,.6005859c-.0371094,.6181641-.1845703,1.1601562-.4443359,1.6240234-.2587891,.4638672-.6367188,.8232422-1.1318359,1.0771484-.4960938,.2548828-1.1083984,.3828125-1.8359375,.3828125Zm0-1.3515625c.4824219,0,.8554688-.1513672,1.1191406-.4570312,.2636719-.3046875,.4091797-.7519531,.4365234-1.34375,.0087891-.1367188,.0136719-.3134766,.0136719-.5322266s-.0048828-.3955078-.0136719-.5322266c-.0273438-.5820312-.1728516-1.0283203-.4365234-1.3369141-.2636719-.3095703-.6367188-.4638672-1.1191406-.4638672s-.8544922,.1542969-1.1181641,.4638672c-.2646484,.3085938-.4101562,.7548828-.4375,1.3369141-.0087891,.1367188-.0136719,.3134766-.0136719,.5322266s.0048828,.3955078,.0136719,.5322266c.0273438,.5917969,.1728516,1.0390625,.4375,1.34375,.2636719,.3056641,.6357422,.4570312,1.1181641,.4570312Z"/>
              <path class="cls-30" d="M110.2462061,183.1470325c-.5458984,0-1.0117188-.0644531-1.3984375-.1914062s-.703125-.2861328-.9482422-.4775391c-.2460938-.1914062-.4277344-.3818359-.5458984-.5732422-.1181641-.1904297-.1826172-.3496094-.1914062-.4775391-.0087891-.0996094,.0205078-.1796875,.0888672-.2382812,.0683594-.0595703,.1435547-.0888672,.2255859-.0888672h1.078125c.0361328,0,.0673828,.0048828,.0947266,.0136719s.0634766,.0361328,.109375,.0820312c.1181641,.0996094,.2431641,.2041016,.375,.3134766s.2890625,.2021484,.4707031,.2792969c.1826172,.078125,.4101562,.1162109,.6826172,.1162109,.3544922,0,.6523438-.0703125,.8935547-.2109375,.2412109-.1416016,.3623047-.34375,.3623047-.6074219,0-.1914062-.0527344-.3457031-.1572266-.4638672s-.2978516-.2255859-.5800781-.3212891c-.2822266-.0947266-.6826172-.1972656-1.2011719-.3066406-.5087891-.1181641-.9326172-.2685547-1.2685547-.4501953-.3369141-.1816406-.5869141-.4091797-.7509766-.6826172-.1630859-.2724609-.2451172-.5908203-.2451172-.9550781,0-.3544922,.1064453-.6933594,.3203125-1.0166016s.5322266-.5888672,.9550781-.7978516c.4238281-.2099609,.9492188-.3144531,1.5761719-.3144531,.4912109,0,.9189453,.0615234,1.2832031,.1845703,.3632812,.1230469,.6660156,.2753906,.9072266,.4570312s.4248047,.3662109,.5527344,.5527344c.1269531,.1865234,.1953125,.3476562,.2041016,.484375,.0097656,.1005859-.0175781,.1796875-.0810547,.2382812-.0644531,.0595703-.1367188,.0888672-.21875,.0888672h-1.0097656c-.0458984,0-.0869141-.0087891-.1230469-.0273438-.0361328-.0175781-.0722656-.0410156-.1083984-.0683594-.1005859-.0908203-.2099609-.1855469-.328125-.2861328-.1181641-.0996094-.2617188-.1884766-.4296875-.265625s-.3886719-.1162109-.6621094-.1162109c-.3457031,0-.609375,.0751953-.7910156,.2246094-.1826172,.1503906-.2734375,.3388672-.2734375,.5664062,0,.1552734,.0439453,.2890625,.1298828,.4023438,.0869141,.1142578,.2617188,.2207031,.5253906,.3212891,.2636719,.0996094,.6640625,.2041016,1.2011719,.3134766,.609375,.109375,1.09375,.2705078,1.453125,.484375s.6142578,.4599609,.7636719,.7373047c.1503906,.2773438,.2255859,.5839844,.2255859,.9208984,0,.4091797-.1210938,.7773438-.3613281,1.1054688-.2412109,.3271484-.5966797,.5839844-1.0644531,.7705078-.46875,.1865234-1.0488281,.2802734-1.7402344,.2802734Z"/>
              <path class="cls-30" d="M117.9971826,183.0103137c-.5458984,0-1.0048828-.0957031-1.3779297-.2861328-.3730469-.1914062-.6503906-.4755859-.8320312-.8535156-.1826172-.3769531-.2734375-.8476562-.2734375-1.4121094v-3.0976562h-1.078125c-.0908203,0-.1679688-.03125-.2314453-.0957031-.0644531-.0634766-.0957031-.140625-.0957031-.2314453v-.7919922c0-.0908203,.03125-.1679688,.0957031-.2314453,.0634766-.0634766,.140625-.0957031,.2314453-.0957031h1.078125v-2.265625c0-.0908203,.0292969-.1679688,.0888672-.2314453,.0585938-.0634766,.1386719-.0957031,.2382812-.0957031h1.1054688c.0908203,0,.1679688,.0322266,.2324219,.0957031,.0634766,.0634766,.0957031,.140625,.0957031,.2314453v2.265625h1.7050781c.0908203,0,.1679688,.0322266,.2324219,.0957031,.0634766,.0634766,.0957031,.140625,.0957031,.2314453v.7919922c0,.0908203-.0322266,.1679688-.0957031,.2314453-.0644531,.0644531-.1416016,.0957031-.2324219,.0957031h-1.7050781v2.9609375c0,.3730469,.0654297,.6640625,.1972656,.8740234,.1318359,.2089844,.3613281,.3134766,.6894531,.3134766h.9414062c.0908203,0,.1679688,.0322266,.2324219,.0957031,.0634766,.0634766,.0947266,.140625,.0947266,.2314453v.8466797c0,.0908203-.03125,.1679688-.0947266,.2314453-.0644531,.0634766-.1416016,.0957031-.2324219,.0957031h-1.1054688Z"/>
              <path class="cls-30" d="M123.7003076,183.1470325c-1.0097656,0-1.8095703-.2910156-2.4013672-.8740234-.5908203-.5820312-.9091797-1.4091797-.9550781-2.4833984-.0087891-.0908203-.0136719-.2060547-.0136719-.3476562,0-.140625,.0048828-.2519531,.0136719-.3339844,.0361328-.6826172,.1933594-1.2734375,.4707031-1.7744141,.2773438-.5,.6621094-.8847656,1.1533203-1.1533203,.4912109-.2675781,1.0683594-.4023438,1.7324219-.4023438,.7373047,0,1.3554688,.1523438,1.8564453,.4570312,.5,.3056641,.8779297,.7285156,1.1328125,1.2695312,.2539062,.5410156,.3818359,1.1669922,.3818359,1.8759766v.2871094c0,.0908203-.0322266,.1679688-.0957031,.2314453s-.1455078,.0957031-.2451172,.0957031h-4.53125v.109375c.0097656,.3183594,.0703125,.6113281,.1845703,.8798828,.1132812,.2685547,.2822266,.484375,.5048828,.6484375,.2226562,.1630859,.4892578,.2451172,.7978516,.2451172,.2548828,0,.46875-.0380859,.6416016-.1162109,.1728516-.0771484,.3144531-.1650391,.4228516-.265625,.109375-.0996094,.1865234-.1816406,.2324219-.2460938,.0820312-.1083984,.1474609-.1748047,.1982422-.1972656,.0498047-.0224609,.1240234-.0341797,.2246094-.0341797h1.1738281c.0908203,0,.1660156,.0273438,.2246094,.0820312,.0595703,.0546875,.0839844,.1230469,.0751953,.2041016-.0087891,.1455078-.0839844,.3232422-.2246094,.5322266-.1416016,.2099609-.34375,.4140625-.6074219,.6142578s-.59375,.3662109-.9892578,.4980469-.8486328,.1982422-1.3583984,.1982422Zm-1.5009766-4.2988281h3.015625v-.0410156c0-.3544922-.0585938-.6640625-.1767578-.9277344s-.2910156-.4726562-.5185547-.6279297c-.2275391-.1542969-.5009766-.2314453-.8193359-.2314453s-.5908203,.0771484-.8183594,.2314453c-.2275391,.1552734-.3984375,.3642578-.5117188,.6279297-.1142578,.2636719-.1708984,.5732422-.1708984,.9277344v.0410156Z"/>
              <path class="cls-30" d="M131.1505029,183.1470325c-.4726562,0-.8886719-.0800781-1.2480469-.2392578s-.6572266-.3837891-.8935547-.6748047-.4189453-.6347656-.5458984-1.0302734c-.1269531-.3964844-.2001953-.8300781-.2177734-1.3037109-.0097656-.1640625-.0136719-.3115234-.0136719-.4433594s.0039062-.2792969,.0136719-.4433594c.0175781-.4550781,.0878906-.8779297,.2109375-1.2695312,.1230469-.390625,.3046875-.734375,.5458984-1.0302734,.2412109-.2949219,.5410156-.5253906,.9003906-.6884766,.359375-.1640625,.7753906-.2460938,1.2480469-.2460938,.4921875,0,.9082031,.0839844,1.25,.2529297,.3398438,.1679688,.625,.3837891,.8515625,.6474609v-3.0292969c0-.0908203,.0292969-.1679688,.0898438-.2314453,.0585938-.0634766,.1386719-.0957031,.2382812-.0957031h1.1601562c.0898438,0,.1679688,.0322266,.2324219,.0957031,.0625,.0634766,.09375,.140625,.09375,.2314453v9.0341797c0,.0908203-.03125,.1679688-.09375,.2314453-.0644531,.0634766-.1425781,.0957031-.2324219,.0957031h-1.078125c-.1015625,0-.1796875-.0322266-.2382812-.0957031-.0605469-.0634766-.0898438-.140625-.0898438-.2314453v-.5048828c-.2265625,.28125-.515625,.5136719-.8671875,.6953125-.3496094,.1826172-.7890625,.2734375-1.3164062,.2734375Zm.5058594-1.4599609c.3808594,0,.6855469-.0869141,.9140625-.2597656,.2265625-.1728516,.3945312-.3935547,.5039062-.6621094,.109375-.2675781,.1699219-.5429688,.1777344-.8251953,.0097656-.1640625,.0136719-.3388672,.0136719-.5253906s-.0039062-.3613281-.0136719-.5253906c-.0078125-.2724609-.0722656-.5341797-.1914062-.7841797-.1171875-.25-.2910156-.4570312-.5175781-.6210938-.2285156-.1640625-.5234375-.2460938-.8867188-.2460938-.3828125,0-.6845703,.0849609-.9072266,.2529297-.2236328,.1679688-.3847656,.3886719-.484375,.6621094-.1005859,.2724609-.1601562,.5722656-.1777344,.9003906-.0087891,.2724609-.0087891,.5458984,0,.8183594,.0175781,.328125,.0771484,.6279297,.1777344,.9003906,.0996094,.2734375,.2607422,.4941406,.484375,.6621094,.2226562,.1689453,.5244141,.2529297,.9072266,.2529297Z"/>
              <path class="cls-30" d="M143.9366357,183.1470325c-.5273438,0-.9658203-.0908203-1.3164062-.2734375-.3505859-.1816406-.6386719-.4140625-.8662109-.6953125v.5048828c0,.0908203-.0302734,.1679688-.0888672,.2314453-.0595703,.0634766-.1386719,.0957031-.2392578,.0957031h-1.0771484c-.0917969,0-.1689453-.0322266-.2324219-.0957031s-.0957031-.140625-.0957031-.2314453v-9.0341797c0-.0908203,.0322266-.1679688,.0957031-.2314453s.140625-.0957031,.2324219-.0957031h1.1591797c.1005859,0,.1796875,.0322266,.2392578,.0957031,.0585938,.0634766,.0888672,.140625,.0888672,.2314453v3.0292969c.2265625-.2636719,.5117188-.4794922,.8525391-.6474609,.3408203-.1689453,.7568359-.2529297,1.2480469-.2529297,.4824219,0,.9013672,.0820312,1.2558594,.2460938,.3544922,.1630859,.6523438,.3935547,.8935547,.6884766,.2412109,.2958984,.4257812,.6396484,.5527344,1.0302734,.1279297,.3916016,.1953125,.8144531,.2050781,1.2695312,.0087891,.1640625,.0136719,.3115234,.0136719,.4433594s-.0048828,.2792969-.0136719,.4433594c-.0185547,.4736328-.0908203,.9072266-.21875,1.3037109-.1269531,.3955078-.3095703,.7392578-.5458984,1.0302734s-.5322266,.515625-.8867188,.6748047-.7734375,.2392578-1.2558594,.2392578Zm-.5048828-1.4599609c.3916016,0,.6962891-.0839844,.9150391-.2529297,.2177734-.1679688,.375-.3886719,.4707031-.6621094,.0957031-.2724609,.1523438-.5722656,.1699219-.9003906,.0185547-.2724609,.0185547-.5458984,0-.8183594-.0175781-.328125-.0742188-.6279297-.1699219-.9003906-.0957031-.2734375-.2529297-.4941406-.4707031-.6621094-.21875-.1679688-.5234375-.2529297-.9150391-.2529297-.3632812,0-.6591797,.0820312-.8867188,.2460938s-.4003906,.3710938-.5185547,.6210938-.1816406,.5117188-.1904297,.7841797c-.0097656,.1640625-.0136719,.3388672-.0136719,.5253906s.0039062,.3613281,.0136719,.5253906c.0175781,.2822266,.0791016,.5576172,.1835938,.8251953,.1044922,.2685547,.2734375,.4892578,.5048828,.6621094,.2324219,.1728516,.5341797,.2597656,.9072266,.2597656Z"/>
              <path class="cls-30" d="M149.3682764,185.6030872c-.0732422,0-.1367188-.0273438-.1914062-.0820312s-.0820312-.1181641-.0820312-.1914062c0-.0361328,.0019531-.0703125,.0068359-.1015625,.0048828-.0322266,.0205078-.0712891,.0478516-.1162109l1.0644531-2.5244141-2.6201172-6.1816406c-.0361328-.0908203-.0546875-.1542969-.0546875-.1914062,.0087891-.0810547,.0410156-.1523438,.0957031-.2109375,.0546875-.0595703,.1230469-.0888672,.2050781-.0888672h1.1054688c.1083984,0,.1904297,.0273438,.2451172,.0820312s.0957031,.1132812,.1230469,.1767578l1.8144531,4.4628906,1.8701172-4.4628906c.0273438-.0722656,.0673828-.1337891,.1220703-.1835938s.1367188-.0751953,.2460938-.0751953h1.0917969c.0722656,0,.1386719,.0273438,.1972656,.0820312,.0595703,.0546875,.0888672,.1181641,.0888672,.1904297,0,.0546875-.0185547,.1279297-.0546875,.21875l-3.8613281,8.9375c-.0371094,.0732422-.0820312,.1347656-.1367188,.1845703s-.1367188,.0751953-.2451172,.0751953h-1.078125Z"/>
            </g>
            <g>
              <polygon class="cls-30" points="214.3472435 203.0886285 215.8536312 203.0886285 215.8536312 197.4797525 221.3022537 197.4797525 221.3022537 196.1336208 215.8536312 196.1336208 215.8536312 191.9029267 221.8471149 191.9029267 221.8471149 190.5567974 214.3472435 190.5567974 214.3472435 203.0886285"/>
              <path class="cls-30" d="M227.5521441,193.5695632c-2.5320049,0-4.2627468,1.9230432-4.2627468,4.8717085,0,2.916615,1.6986891,4.8396583,4.2627468,4.8396583s4.2627468-1.9230432,4.2627468-4.8396583c-.0000049-2.9486653-1.7307418-4.8717085-4.2627468-4.8717085Zm0,8.3972902c-1.9230432,0-2.8204644-1.6666365-2.8204644-3.5576295s.8653685-3.5576295,2.8204644-3.5576295c1.9230432,0,2.8204644,1.6986891,2.8204644,3.5576295-.0000049,1.8909905-.8974211,3.5576295-2.8204644,3.5576295Z"/>
              <path class="cls-30" d="M240.1160254,199.2425421c0,1.7627896-1.3461293,2.5640576-2.4358567,2.5640576-1.1858757,0-2.0512441-.8653685-2.0512441-2.2435504v-5.8652828h-1.4422824v5.9614335c0,2.403804,1.2820288,3.5576295,3.0448184,3.5576295,1.4102297,0,2.3397036-.7692178,2.7884117-1.6986891h.0961531v1.602536h1.4422824v-9.4229098h-1.4422824v5.5447756Z"/>
              <path class="cls-30" d="M248.9620213,193.5695632c-1.4102297,0-2.3076509,.6410144-2.7243112,1.602536h-.1282009v-1.4743326h-1.3781819v9.3908596h1.4422824v-5.6729765c0-1.6345862,1.0256221-2.5640576,2.4038089-2.5640576,1.3461342,0,2.1474022,.8653685,2.1474022,2.3397036v5.8652828h1.4422824v-5.9614359c-.0320625-2.3717513-1.3140913-3.5255792-3.2050818-3.5255792Z"/>
              <path class="cls-30" d="M261.5259075,195.1720992h-.1282009c-.3205072-.4807608-.8653734-1.602536-2.7243112-1.602536-2.3717513,0-4.00634,1.890993-4.00634,4.8396583,0,2.980718,1.6345887,4.8717085,3.9742873,4.8717085,1.7948423,0,2.4358567-1.1217752,2.7243112-1.6345862h.1602536v1.4422824h1.3781771v-12.5318287h-1.4422824v4.6153042l.0641054-.0000024Zm-2.6602156,6.7947541c-1.7948423,0-2.7243112-1.602536-2.7243112-3.5896797s.8974163-3.5255792,2.7243112-3.5255792c1.7627896,0,2.6922585,1.4102322,2.6922585,3.5255792,.0000098,2.115347-.9615118,3.5896797-2.6922585,3.5896797Z"/>
              <path class="cls-30" d="M269.6988412,193.5695632c-1.4102297,0-3.0448184,.4807608-3.7499382,2.2115002l1.3781771,.4807608c.3205072-.6730646,1.0576699-1.4102322,2.4358567-1.4102322,1.3461342,0,1.9871486,.7051149,1.9871486,1.9230432,0,.7051149-.7051198,.6730646-2.4358567,.8653685-1.7307369,.2243541-3.6537801,.6089642-3.6537801,2.7563614,0,1.8268901,1.4102297,2.8845648,3.205072,2.8845648,1.6345887,0,2.4999523-.8653685,2.7884166-1.5063829h.0641054v1.2820288h1.4422824v-6.1537373c.0320429-2.9807155-2.2435602-3.3332754-3.4614837-3.3332754Zm2.0512441,6.1216895c0,1.1858757-.9294689,2.3076509-2.628163,2.3076509-1.1538279,0-1.9871486-.512811-1.9871486-1.5063829,0-1.089725,.9935743-1.4422824,2.1153495-1.602536,.6089617-.0641005,2.2435504-.2564067,2.4999523-.5448613l.0000098,1.3461293h0Z"/>
              <path class="cls-30" d="M279.6666171,201.8065997c-.6410144,0-1.2499761-.1923038-1.2499761-1.4102322v-5.4806727h2.0191915v-1.2179283h-2.0191915v-2.2435504h-1.4422824v2.2435504h-1.4102297v1.2179283h1.4102297v5.8652803c0,1.6345862,1.3140815,2.4358542,2.5320049,2.4358542,.5448662,0,.8653734-.0961531,1.0897225-.1602536l-.2884545-1.2820288c-.1282107-.0320502-.3205072,.0320527-.6410144,.0320527Z"/>
              <rect class="cls-30" x="283.1921963" y="193.6977665" width="1.4422824" height="9.3908596"/>
              <path class="cls-30" d="M283.929359,190.2042375c-.5769091,0-1.025627,.4487106-1.025627,.9935718s.4807608,.9935718,1.025627,.9935718c.5769091,0,1.025627-.4487106,1.025627-.9935718,0-.5769115-.4487179-.9935718-1.025627-.9935718Z"/>
              <path class="cls-30" d="M291.4612782,193.5695632c-2.5320049,0-4.2627419,1.9230432-4.2627419,4.8717085,0,2.916615,1.6986843,4.8396583,4.2627419,4.8396583s4.2627419-1.9230432,4.2627419-4.8396583c-.0320429-2.9486653-1.7307369-4.8717085-4.2627419-4.8717085Zm0,8.3972902c-1.9230432,0-2.8204595-1.6666365-2.8204595-3.5576295s.8653734-3.5576295,2.8204595-3.5576295c1.9230432,0,2.8204595,1.6986891,2.8204595,3.5576295-.0320429,1.8909905-.8974163,3.5576295-2.8204595,3.5576295Z"/>
              <path class="cls-30" d="M302.3264704,193.5695632c-1.4102297,0-2.3076558,.6410144-2.7243112,1.602536h-.1282009v-1.4743326h-1.3781771v9.3908596h1.4422824v-5.6729765c0-1.6345862,1.025627-2.5640576,2.403804-2.5640576,1.3461342,0,2.1474022,.8653685,2.1474022,2.3397036v5.8652828h1.4422824v-5.9614359c-.0320625-2.3717513-1.3140913-3.5255792-3.2050818-3.5255792Z"/>
              <path class="cls-30" d="M224.5393735,177.7365081h-5.2242684v1.9871449h2.6281581c0,1.5704858-1.2499761,2.5320074-2.8204644,2.5320074-1.9550959,0-3.205072-1.4422824-3.205072-4.1024919,0-2.5640576,1.2179283-4.0704417,3.1409716-4.0704417,1.3781819,0,2.3076509,.7051161,2.6922585,1.8909924h2.6922585c-.3525599-2.4679051-2.5640576-4.2306947-5.384522-4.2306947-3.3012252,0-5.8011823,2.3717532-5.8011823,6.4421955,0,3.9742898,2.3717513,6.410144,5.8652828,6.410144,3.1730193,0,5.4486224-1.9871449,5.4486224-5.2883688l-.0320429-1.570487h0Z"/>
              <path class="cls-30" d="M229.6354409,176.6788346h-.0961531v-1.6345869h-2.5320049v9.3908602h2.5961103v-5.3204191c0-1.1538254,.8333207-1.9230432,1.8909905-1.9230432,.3525599,0,.6410144,.0961519,.8974211,.2243553l.7692153-2.1473985c-.3525599-.1923044-.7692153-.352558-1.2820288-.352558-1.0576747,.0000006-1.9230432,.6089642-2.2435504,1.7627902Z"/>
              <path class="cls-30" d="M238.4173363,174.916045c-2.3076509,0-3.781986,1.0897244-4.1345409,2.7884129l2.403804,.1923038c.1923063-.6089642,.7371675-1.089725,1.6666365-1.089725,.8974211,0,1.3781819,.4487106,1.3781819,1.2179271,0,.6089642-.6410144,.7051161-2.2756031,.8653697-1.8589427,.1602536-3.5255792,.801268-3.5255792,2.8845648,0,1.8589415,1.3140815,2.7884129,3.1089189,2.7884129,1.3781819,0,2.2756031-.6089642,2.7563639-1.4743326h.0641005v1.314079h2.4679045v-6.3139909c.0320527-2.243551-1.8909905-3.1730218-3.9101869-3.1730218Zm1.3461293,6.1537385c0,.9935718-.801268,1.7307394-1.9550959,1.7307394-.801268,0-1.3781819-.3846089-1.3781819-1.089725,0-.7371663,.6089617-1.089725,1.5063829-1.2179271,.5769139-.0641017,1.5063829-.2243553,1.7948423-.4166591v.9935718h.0320527Z"/>
              <path class="cls-30" d="M250.2440501,174.916045c-1.5704833,0-2.3076558,.9294708-2.6602059,1.6986879h-.1282009v-1.5704852h-2.5640576v12.9164394h2.5961103v-5.0319621h.0641054c.3525599,.7692178,1.1538279,1.6666377,2.6602059,1.6666377,2.1474022,0,3.8140337-1.6986879,3.8140337-4.8396595,.0320429-3.2371223-1.7307467-4.8396583-3.7819909-4.8396583Zm-.8333207,7.5960209c-1.2499761,0-1.9550959-1.089725-1.9871437-2.7884129,0-1.6666377,.7051149-2.7563614,1.9871437-2.7563614s1.9871486,1.1217752,1.9871486,2.7563614c0,1.6666377-.7051198,2.7884129-1.9871486,2.7884129Z"/>
              <path class="cls-30" d="M261.7502567,174.916045c-1.4102297,0-2.3717513,.6730652-2.8204595,1.7627896h-.0961482v-4.7755572h-2.5320049v12.5318305h2.5961103v-5.4486224c0-1.2179271,.7371627-1.9230432,1.7948423-1.9230432,1.0576699,0,1.6666414,.6730646,1.6666414,1.8268913v5.5127241h2.5961103v-5.9614335c.0320331-2.1794487-1.2499957-3.5255792-3.2050916-3.5255792Z"/>
              <path class="cls-30" d="M278.3845883,185.4607324l-1.7948423-2.2435504c1.2179235-1.089725,1.9871486-2.8204631,1.9871486-5.0319633,0-4.1024919-2.5320049-6.4421949-5.8652779-6.4421949s-5.8652779,2.3397029-5.8652779,6.4421949c0,4.0704417,2.5320049,6.4421955,5.8652779,6.4421955,.7692153,0,1.5063878-.1282034,2.1794451-.3846089l.9935743,1.2499786h2.4999523v-.0320515Zm-3.3973783-4.1986451l-.9294689-1.1858769h-2.2435504l1.602536,2.115347c-.224359,.0320502-.4487081,.0641017-.6730671,.0641017-1.9230432,0-3.1730193-1.4422824-3.1730193-4.1024919s1.2499761-4.1024919,3.1730193-4.1024919,3.1730193,1.4422824,3.1730193,4.1024919c0,1.3781819-.3525599,2.4358555-.9294689,3.1089201Z"/>
              <polygon class="cls-30" points="289.0895269 182.2556604 283.705 182.2556604 283.705 171.9032774 281.0768468 171.9032774 281.0768468 184.4351091 289.0895269 184.4351091 289.0895269 182.2556604"/>
              <path class="cls-30" d="M202.7448837,182.3197609c1.890993-1.089725,2.5320074-3.5255792,1.4422824-5.4165722-1.089725-1.890993-3.493529-2.5320068-5.3524693-1.4422824-.3525574,.1923044-.6410144,.44871-.8974211,.7051161l-9.0703523-5.2883682c.0961531-.352558,.1602536-.7371666,.1602536-1.1217752,0-2.2114996-1.7627896-3.9742892-3.9101881-3.9742892s-3.9422383,1.7627896-3.9422383,3.9742892c0,.3846086,.0641017,.7692172,.1602536,1.1217752l-9.0703542,5.2883694c-.2564055-.2564055-.5448625-.5128116-.8974199-.7051161-1.8589421-1.1217752-4.2627462-.4487106-5.3524706,1.4422824-1.0897245,1.890993-.4166594,4.3268472,1.4422824,5.416571,.3205072,.1923038,.6730651,.3205072,1.0576737,.4166591v10.5767364c-.352558,.0961531-.7051158,.2243541-1.025623,.4166603-1.8909925,1.089725-2.5320069,3.5255792-1.4422824,5.4165722,1.0897245,1.890993,3.4614778,2.5320074,5.3524708,1.4422824,.3205072-.1923038,.6089636-.4487106,.8653697-.7051149l9.0703536,5.2883688c-.0961519,.3525574-.1602536,.7371675-.1602536,1.1217752,0,2.1794475,1.7627896,3.9742898,3.9101881,3.9742898s3.9101881-1.7948423,3.9101881-3.9742898c0-.4487106-.0641005-.8653685-.1923038-1.2499786l9.0062519-5.2563186c.2564067,.3205072,.6089642,.5769139,.9615216,.801268,1.890993,1.089725,4.294797,.4487106,5.3524693-1.4422824,1.089725-1.890993,.4487106-4.3268472-1.4422824-5.4165722-.3205072-.1923038-.6730646-.3205072-1.0256221-.4166603v-10.5767377c.4166579-.0961507,.7371651-.2243528,1.0897225-.4166579Zm-32.2109729,11.0254482c-.0641014,0-.0961522-.0320502-.1602536-.0320502v-10.5767377c.9935721-.2564055,1.8909927-.8974199,2.4679054-1.8589415,.5448625-.9615216,.6410144-2.0832968,.3846089-3.0768699l9.0703542-5.2883688c.0320502,.0320508,.0641017,.0641017,.0961519,.0961519l-11.8587668,20.7368162Zm17.4676416,10.2562305c-.7051149-.801268-1.7627896-1.2820288-2.8845648-1.2820288s-2.115347,.4807608-2.8204631,1.2179283l-9.1024038-5.2883688c0-.0641005,.0320508-.0961531,.0320508-.1602536h23.7175323c.0320502,.0961531,.0320502,.1602536,.0641005,.2564067l-9.0062519,5.2563162Zm9.3588118-8.4293404c-.1923038,.3205072-.3205072,.6730646-.4166603,1.0576747h-23.6854815c-.0961519-.3525574-.2243553-.7051149-.4166591-1.0576747-.1923044-.3205072-.4166591-.6410144-.7051161-.8974211l11.8587665-20.736815c.3525574,.0961519,.7051161,.1602536,1.089725,.1602536s.7371663-.0641017,1.0897238-.1602536l11.8587665,20.736815c-.2243541,.2564067-.4807608,.5448637-.6730646,.8974211Zm2.4679045-1.8589403c-.0641005,0-.0961531,.0320502-.1602536,.0320502l-11.8587665-20.736815c.0320502-.0320508,.0641005-.0641017,.0961531-.0961519l9.0703523,5.2883688c-.288457,.9935718-.1923038,2.0832968,.3846077,3.0768699,.5448613,.9615216,1.4422824,1.602536,2.4679045,1.8589415l.0000024,10.5767364Z"/>
            </g>
          </g>
          <g>
            <path class="cls-30" d="M40.4610498,63.7720325c-.6904297-1.2714844-1.6806641-2.2431641-2.9707031-2.9160156-1.2900391-.671875-2.8066406-1.0078125-4.5507812-1.0078125-3.0166016,0-5.4326172,.9902344-7.2490234,2.9697266-1.8183594,1.9814453-2.7255859,4.625-2.7255859,7.9306641,0,3.5253906,.9541016,6.2783203,2.8613281,8.2578125,1.9082031,1.9814453,4.5322266,2.9707031,7.8759766,2.9707031,2.2890625,0,4.2246094-.5810547,5.8046875-1.7441406,1.5810547-1.1621094,2.734375-2.8339844,3.4619141-5.0146484h-11.828125v-6.8671875h20.2763672v8.6660156c-.6904297,2.3261719-1.8623047,4.4882812-3.515625,6.4863281-1.6542969,1.9990234-3.7529297,3.6162109-6.2958984,4.8505859-2.5439453,1.2363281-5.4150391,1.8535156-8.6113281,1.8535156-3.7802734,0-7.1503906-.8261719-10.1113281-2.4794922-2.9619141-1.6533203-5.2695312-3.9521484-6.921875-6.8955078-1.6542969-2.9433594-2.4804688-6.3037109-2.4804688-10.0839844,0-3.7783203,.8261719-7.1484375,2.4804688-10.1103516,1.6523438-2.9609375,3.9511719-5.2685547,6.8945312-6.9228516,2.9433594-1.6523438,6.3037109-2.4794922,10.0839844-2.4794922,4.578125,0,8.4384766,1.1083984,11.5820312,3.3251953,3.1425781,2.2167969,5.2236328,5.2871094,6.2412109,9.2109375h-10.3017578Z"/>
            <path class="cls-30" d="M70.003042,60.6382434c1.6347656-.9628906,3.4521484-1.4443359,5.4501953-1.4443359v9.8652344h-2.5615234c-2.3251953,0-4.0703125,.5-5.2324219,1.4990234-1.1630859,1-1.7441406,2.7529297-1.7441406,5.2597656v14.1171875h-9.3203125v-30.4140625h9.3203125v5.0683594c1.0898438-1.6708984,2.453125-2.9882812,4.0878906-3.9511719Z"/>
            <path class="cls-30" d="M79.8419092,66.4429309c1.1796875-2.3613281,2.7880859-4.1777344,4.8232422-5.4501953,2.0351562-1.2714844,4.3056641-1.9082031,6.8134766-1.9082031,2.1435547,0,4.0244141,.4365234,5.6416016,1.3085938,1.6162109,.8720703,2.8613281,2.0166016,3.7333984,3.4335938v-4.3056641h9.3203125v30.4140625h-9.3203125v-4.3056641c-.9091797,1.4169922-2.171875,2.5615234-3.7880859,3.4335938-1.6171875,.8720703-3.4980469,1.3085938-5.6416016,1.3085938-2.4716797,0-4.7236328-.6455078-6.7587891-1.9355469-2.0351562-1.2890625-3.6435547-3.125-4.8232422-5.5048828-1.1816406-2.3798828-1.7714844-5.1318359-1.7714844-8.2578125,0-3.125,.5898438-5.8681641,1.7714844-8.2304688Zm19.0771484,2.7802734c-1.2910156-1.3447266-2.8623047-2.0175781-4.7148438-2.0175781-1.8535156,0-3.4257812,.6640625-4.7148438,1.9902344-1.2910156,1.3261719-1.9355469,3.1523438-1.9355469,5.4775391,0,2.3261719,.6445312,4.1699219,1.9355469,5.5322266,1.2890625,1.3632812,2.8613281,2.0439453,4.7148438,2.0439453,1.8525391,0,3.4238281-.671875,4.7148438-2.0166016,1.2890625-1.34375,1.9345703-3.1787109,1.9345703-5.5048828,0-2.3251953-.6455078-4.1601562-1.9345703-5.5048828Z"/>
            <path class="cls-30" d="M130.0137842,60.3931262c1.5976562-.8720703,3.46875-1.3085938,5.6132812-1.3085938,2.5078125,0,4.7773438,.6367188,6.8144531,1.9082031,2.0332031,1.2724609,3.6425781,3.0888672,4.8222656,5.4501953,1.1816406,2.3623047,1.7714844,5.1054688,1.7714844,8.2304688,0,3.1259766-.5898438,5.8779297-1.7714844,8.2578125-1.1796875,2.3798828-2.7890625,4.2158203-4.8222656,5.5048828-2.0371094,1.2900391-4.3066406,1.9355469-6.8144531,1.9355469-2.1074219,0-3.9707031-.4365234-5.5859375-1.3085938-1.6181641-.8720703-2.8808594-1.9980469-3.7890625-3.3798828v18.7509766h-9.3203125V59.5210559h9.3203125v4.3056641c.9082031-1.4169922,2.1621094-2.5615234,3.7617188-3.4335938Zm7.6035156,8.8027344c-1.2910156-1.3261719-2.8808594-1.9902344-4.7695312-1.9902344-1.8535156,0-3.4257812,.6728516-4.7148438,2.0175781-1.2900391,1.3447266-1.9345703,3.1796875-1.9345703,5.5048828,0,2.3261719,.6445312,4.1611328,1.9345703,5.5048828,1.2890625,1.3447266,2.8613281,2.0166016,4.7148438,2.0166016s3.4335938-.6806641,4.7421875-2.0439453c1.3085938-1.3623047,1.9609375-3.2060547,1.9609375-5.5322266,0-2.3251953-.6445312-4.1513672-1.9335938-5.4775391Z"/>
            <path class="cls-30" d="M181.0294092,62.654845c2.1074219,2.3076172,3.1611328,5.4775391,3.1611328,9.5117188v17.7685547h-9.265625v-16.515625c0-2.0341797-.5273438-3.6152344-1.5810547-4.7421875-1.0537109-1.125-2.4707031-1.6894531-4.2509766-1.6894531-1.78125,0-3.1982422,.5644531-4.2519531,1.6894531-1.0537109,1.1269531-1.5800781,2.7080078-1.5800781,4.7421875v16.515625h-9.3212891V49.6001575h9.3212891v14.0087891c.9443359-1.34375,2.234375-2.4160156,3.8701172-3.2158203,1.6347656-.7988281,3.46875-1.1992188,5.5048828-1.1992188,3.4882812,0,6.2861328,1.1533203,8.3935547,3.4609375Z"/>
            <path class="cls-30" d="M217.9307764,96.4761341l-4.90625-6.5957031c-1.453125,.2910156-2.8701172,.4365234-4.2509766,.4365234-3.5976562,0-6.8955078-.8359375-9.8925781-2.5078125-2.9980469-1.6708984-5.3789062-4.0058594-7.140625-7.0039062-1.7626953-2.9980469-2.6435547-6.3681641-2.6435547-10.1103516s.8808594-7.1044922,2.6435547-10.0839844c1.7617188-2.9794922,4.1425781-5.3046875,7.140625-6.9765625,2.9970703-1.6708984,6.2949219-2.5078125,9.8925781-2.5078125s6.8945312,.8369141,9.8925781,2.5078125c2.9980469,1.671875,5.359375,3.9970703,7.0859375,6.9765625,1.7255859,2.9794922,2.5888672,6.3417969,2.5888672,10.0839844,0,3.2695312-.6630859,6.2587891-1.9892578,8.9658203-1.3271484,2.7070312-3.1708984,4.9511719-5.5322266,6.7314453l8.3935547,10.0839844h-11.2822266Zm-16.5429688-17.6875c1.8339844,2.0166016,4.296875,3.0253906,7.3857422,3.0253906,3.0517578,0,5.4951172-1.0175781,7.3310547-3.0527344,1.8339844-2.0341797,2.7519531-4.7236328,2.7519531-8.0664062,0-3.3798828-.9179688-6.078125-2.7519531-8.0947266-1.8359375-2.0166016-4.2792969-3.0253906-7.3310547-3.0253906-3.0888672,0-5.5517578,1-7.3857422,2.9980469-1.8349609,1.9990234-2.7529297,4.7060547-2.7529297,8.1220703,0,3.3789062,.9179688,6.0771484,2.7529297,8.09375Z"/>
            <path class="cls-30" d="M242.9483545,82.7407825h12.2089844v7.1943359h-21.5302734V51.6714466h9.3212891v31.0693359Z"/>
            <path class="cls-30" d="M260.4991357,60.6382434c1.6347656-2.9609375,3.9150391-5.2685547,6.8398438-6.9228516,2.9248047-1.6523438,6.2412109-2.4794922,9.9472656-2.4794922,4.5419922,0,8.4296875,1.1992188,11.6650391,3.5976562,3.2333984,2.3974609,5.3955078,5.6679688,6.4853516,9.8105469h-10.2470703c-.7626953-1.5986328-1.8447266-2.8154297-3.2431641-3.6513672s-2.9892578-1.2539062-4.7685547-1.2539062c-2.8710938,0-5.1972656,1-6.9775391,2.9980469s-2.6699219,4.6689453-2.6699219,8.0117188c0,3.34375,.8896484,6.0146484,2.6699219,8.0126953,1.7802734,1.9990234,4.1064453,2.9980469,6.9775391,2.9980469,1.7792969,0,3.3701172-.4169922,4.7685547-1.2539062,1.3984375-.8349609,2.4804688-2.0527344,3.2431641-3.6513672h10.2470703c-1.0898438,4.1416016-3.2519531,7.4042969-6.4853516,9.7832031-3.2353516,2.3808594-7.1230469,3.5703125-11.6650391,3.5703125-3.7060547,0-7.0224609-.8261719-9.9472656-2.4794922s-5.2050781-3.9521484-6.8398438-6.8955078c-1.6357422-2.9433594-2.453125-6.3037109-2.453125-10.0839844,0-3.7783203,.8173828-7.1484375,2.453125-10.1103516Z"/>
            <path class="cls-30" d="M306.9649561,88.4634387c-2.3808594-1.2714844-4.2519531-3.0878906-5.6142578-5.4501953-1.3632812-2.3623047-2.0439453-5.1240234-2.0439453-8.2851562,0-3.125,.6894531-5.8779297,2.0712891-8.2578125,1.3798828-2.3798828,3.2705078-4.2050781,5.6679688-5.4775391,2.3984375-1.2714844,5.0869141-1.9082031,8.0673828-1.9082031,2.9794922,0,5.6689453,.6367188,8.0664062,1.9082031,2.3984375,1.2724609,4.2880859,3.0976562,5.6689453,5.4775391s2.0712891,5.1328125,2.0712891,8.2578125-.7001953,5.8779297-2.0986328,8.2578125c-1.3994141,2.3798828-3.3066406,4.2060547-5.7226562,5.4775391-2.4169922,1.2724609-5.1152344,1.9082031-8.0947266,1.9082031s-5.6601562-.6357422-8.0390625-1.9082031Zm12.5908203-8.1210938c1.2539062-1.3085938,1.8798828-3.1796875,1.8798828-5.6142578s-.6083984-4.3066406-1.8251953-5.6142578c-1.2177734-1.3085938-2.7167969-1.9619141-4.4970703-1.9619141-1.8173828,0-3.3251953,.6455078-4.5244141,1.9345703-1.1992188,1.2900391-1.7988281,3.1708984-1.7988281,5.6416016,0,2.4345703,.5908203,4.3056641,1.7714844,5.6142578,1.1806641,1.3076172,2.6621094,1.9619141,4.4423828,1.9619141s3.2978516-.6542969,4.5517578-1.9619141Z"/>
            <path class="cls-30" d="M362.9424951,62.654845c2.1259766,2.3076172,3.1884766,5.4775391,3.1884766,9.5117188v17.7685547h-9.265625v-16.515625c0-2.0341797-.5273438-3.6152344-1.5810547-4.7421875-1.0537109-1.125-2.4707031-1.6894531-4.2509766-1.6894531-1.78125,0-3.1982422,.5644531-4.2519531,1.6894531-1.0537109,1.1269531-1.5800781,2.7080078-1.5800781,4.7421875v16.515625h-9.3212891v-30.4140625h9.3212891v4.0332031c.9443359-1.34375,2.2158203-2.4072266,3.8154297-3.1884766,1.5986328-.78125,3.3974609-1.171875,5.3955078-1.171875,3.5615234,0,6.4052734,1.1533203,8.5302734,3.4609375Z"/>
            <path class="cls-30" d="M387.878042,67.2603137h-5.0136719v22.6748047h-9.3212891v-22.6748047h-3.3789062v-7.7392578h3.3789062v-.8720703c0-3.7421875,1.0712891-6.5859375,3.2158203-8.5302734,2.1435547-1.9433594,5.2871094-2.9160156,9.4296875-2.9160156,.6904297,0,1.1992188,.0185547,1.5263672,.0537109v7.9033203c-1.78125-.1083984-3.0341797,.1464844-3.7607422,.7636719-.7275391,.6181641-1.0898438,1.7265625-1.0898438,3.3251953v.2724609h5.0136719v7.7392578Z"/>
          </g>
          <g>
            <path class="cls-30" d="M157.8702295,128.9741809c2.1806641-1.9833984,4.0195312-4.0576172,5.5185547-6.2226562s2.2490234-4.2929688,2.2490234-6.3818359c0-1.9677734-.4775391-3.5205078-1.4316406-4.65625-.953125-1.1347656-2.4912109-1.703125-4.6103516-1.703125-2.0595703,0-3.65625,.6435547-4.7919922,1.9306641-1.1347656,1.2871094-1.7480469,3.0058594-1.8388672,5.1552734h-3.9970703c.1201172-3.390625,1.1503906-6.0107422,3.0878906-7.8583984,1.9375-1.8466797,4.4365234-2.7705078,7.4951172-2.7705078,3.1181641,0,5.59375,.8632812,7.4267578,2.5888672,1.8310547,1.7265625,2.7480469,4.1035156,2.7480469,7.1318359,0,2.5136719-.75,4.9589844-2.2490234,7.3349609-1.4990234,2.3779297-3.2021484,4.4677734-5.109375,6.2685547-1.9082031,1.8017578-4.3457031,3.8994141-7.3134766,6.2910156h15.625v3.4521484h-21.8476562v-2.9521484c3.8457031-3.0888672,6.8583984-5.625,9.0390625-7.6083984Z"/>
            <path class="cls-30" d="M177.9913232,110.9419544c1.6962891-2.921875,4.6630859-4.3837891,8.9033203-4.3837891,4.2080078,0,7.1611328,1.4619141,8.8574219,4.3837891,1.6953125,2.921875,2.5429688,6.9873047,2.5429688,12.1953125,0,5.2998047-.8476562,9.4179688-2.5429688,12.3544922-1.6962891,2.9375-4.6494141,4.40625-8.8574219,4.40625-4.2402344,0-7.2070312-1.46875-8.9033203-4.40625-1.6962891-2.9365234-2.5429688-7.0546875-2.5429688-12.3544922,0-5.2080078,.8466797-9.2734375,2.5429688-12.1953125Zm15.6933594,5.4960938c-.3486328-1.8320312-1.0595703-3.3085938-2.1347656-4.4287109s-2.6269531-1.6806641-4.6552734-1.6806641c-2.0595703,0-3.6269531,.5605469-4.7011719,1.6806641-1.0751953,1.1201172-1.7871094,2.5966797-2.1347656,4.4287109-.3486328,1.8320312-.5224609,4.0644531-.5224609,6.6992188,0,2.7255859,.1738281,5.0117188,.5224609,6.8583984,.3476562,1.8476562,1.0595703,3.3320312,2.1347656,4.4521484,1.0742188,1.1201172,2.6416016,1.6806641,4.7011719,1.6806641,2.0283203,0,3.5800781-.5605469,4.6552734-1.6806641s1.7861328-2.6044922,2.1347656-4.4521484c.3476562-1.8466797,.5224609-4.1328125,.5224609-6.8583984,0-2.6347656-.1748047-4.8671875-.5224609-6.6992188Z"/>
            <path class="cls-30" d="M212.5118311,128.9741809c2.1806641-1.9833984,4.0195312-4.0576172,5.5185547-6.2226562s2.2490234-4.2929688,2.2490234-6.3818359c0-1.9677734-.4775391-3.5205078-1.4316406-4.65625-.953125-1.1347656-2.4912109-1.703125-4.6103516-1.703125-2.0595703,0-3.65625,.6435547-4.7919922,1.9306641-1.1347656,1.2871094-1.7480469,3.0058594-1.8388672,5.1552734h-3.9970703c.1201172-3.390625,1.1503906-6.0107422,3.0878906-7.8583984,1.9375-1.8466797,4.4365234-2.7705078,7.4951172-2.7705078,3.1181641,0,5.59375,.8632812,7.4267578,2.5888672,1.8310547,1.7265625,2.7480469,4.1035156,2.7480469,7.1318359,0,2.5136719-.75,4.9589844-2.2490234,7.3349609-1.4990234,2.3779297-3.2021484,4.4677734-5.109375,6.2685547-1.9082031,1.8017578-4.3457031,3.8994141-7.3134766,6.2910156h15.625v3.4521484h-21.8476562v-2.9521484c3.8457031-3.0888672,6.8583984-5.625,9.0390625-7.6083984Z"/>
            <path class="cls-30" d="M233.2237451,108.7837512c1.9375-1.5742188,4.4511719-2.3613281,7.5400391-2.3613281,2.0585938,0,3.8378906,.3710938,5.3369141,1.1123047,1.4990234,.7421875,2.6347656,1.7490234,3.4072266,3.0205078,.7714844,1.2724609,1.1582031,2.7109375,1.1582031,4.3154297,0,1.8779297-.5380859,3.4970703-1.6132812,4.8603516-1.0751953,1.3623047-2.4746094,2.2412109-4.2011719,2.6337891v.2275391c1.9677734,.484375,3.5273438,1.4384766,4.6787109,2.8613281,1.1503906,1.4238281,1.7255859,3.2861328,1.7255859,5.5869141,0,1.7265625-.3935547,3.2783203-1.1806641,4.65625-.7880859,1.3779297-1.96875,2.4599609-3.5429688,3.2470703-1.5751953,.7880859-3.4677734,1.1816406-5.6777344,1.1816406-3.2099609,0-5.8447266-.8408203-7.9033203-2.5214844-2.0595703-1.6806641-3.2099609-4.0654297-3.4521484-7.1533203h3.9970703c.2119141,1.8164062,.9541016,3.3007812,2.2255859,4.4511719,1.2724609,1.1503906,2.9677734,1.7255859,5.0878906,1.7255859,2.1191406,0,3.7314453-.5517578,4.8369141-1.6582031,1.1054688-1.1044922,1.6582031-2.5351562,1.6582031-4.2919922,0-2.2714844-.7578125-3.90625-2.2714844-4.9052734-1.5146484-.9990234-3.8007812-1.4990234-6.8583984-1.4990234h-1.0449219v-3.4521484h1.0898438c2.7861328-.0302734,4.890625-.4921875,6.3144531-1.3857422,1.4228516-.8925781,2.1347656-2.2773438,2.1347656-4.1552734,0-1.6054688-.5224609-2.8916016-1.5673828-3.8613281-1.0449219-.96875-2.5361328-1.453125-4.4746094-1.453125-1.8769531,0-3.3916016,.484375-4.5419922,1.453125-1.1503906,.9697266-1.8320312,2.2714844-2.0439453,3.90625h-4.0419922c.2109375-2.7851562,1.2861328-4.9658203,3.2246094-6.5410156Z"/>
          </g>
        </g>
        <line class="cls-28" x1="87.3151144" y1="155.657663" x2="312.5288985" y2="155.657663"/>
      </g>
    </g>
  </g>
</svg>