<svg height="36" viewBox="0 0 36 36" width="36" xmlns="http://www.w3.org/2000/svg"><path d="m35.525 31.228-8.88-8.882c1.444-2.238 2.298-4.895 2.298-7.752 0-7.91-6.438-14.344-14.346-14.344-7.91 0-14.343 6.436-14.343 14.345 0 7.91 6.433 14.344 14.343 14.344 2.856 0 5.513-.85 7.752-2.294l8.88 8.88c.294.297.78.297 1.075 0l3.22-3.22c.3-.296.3-.78 0-1.076zm-30.715-16.635c0-5.396 4.39-9.788 9.788-9.788s9.787 4.392 9.787 9.788c0 5.398-4.39 9.79-9.787 9.79-5.398 0-9.788-4.392-9.788-9.79z" fill="#9da7b3" fill-opacity=".5"/></svg>