<svg viewBox="0 0 496 440" xmlns="http://www.w3.org/2000/svg" xmlns:xlink="http://www.w3.org/1999/xlink"><linearGradient id="a" gradientUnits="userSpaceOnUse" x1="2.419" x2="239.933" y1="70.417" y2="70.417"><stop offset="0" stop-color="#02c4eb"/><stop offset=".02" stop-color="#47e0ff"/><stop offset=".42" stop-color="#47e0ff"/><stop offset=".49" stop-color="#0ad6ff"/><stop offset=".98" stop-color="#0ad6ff"/><stop offset="1" stop-color="#02c4eb"/></linearGradient><linearGradient id="b" gradientUnits="userSpaceOnUse" x1="131.142" x2="140.376" y1="98.441" y2="98.441"><stop offset="0" stop-color="#000b0d"/><stop offset="1" stop-color="#00758c"/></linearGradient><linearGradient id="c" gradientUnits="userSpaceOnUse" x1="128.769" x2="366.283" y1="100.873" y2="100.873"><stop offset="0" stop-color="#eb0250"/><stop offset=".02" stop-color="#ff4784"/><stop offset=".42" stop-color="#ff4784"/><stop offset=".49" stop-color="#ff0a5c"/><stop offset=".98" stop-color="#ff0a5c"/><stop offset="1" stop-color="#eb0250"/></linearGradient><linearGradient id="d" gradientUnits="userSpaceOnUse" x1="257.492" x2="266.726" y1="128.897" y2="128.897"><stop offset="0" stop-color="#0d0004"/><stop offset="1" stop-color="#8c002f"/></linearGradient><linearGradient id="e" gradientUnits="userSpaceOnUse" x1="255.355" x2="492.869" y1="131.453" y2="131.453"><stop offset="0" stop-color="#ebb002"/><stop offset=".02" stop-color="#ffd147"/><stop offset=".42" stop-color="#ffd147"/><stop offset=".49" stop-color="#ffc30a"/><stop offset=".98" stop-color="#ffc30a"/><stop offset="1" stop-color="#ebb002"/></linearGradient><linearGradient id="f" gradientUnits="userSpaceOnUse" x1="384.078" x2="393.312" y1="159.477" y2="159.477"><stop offset="0" stop-color="#0d0a00"/><stop offset="1" stop-color="#8c6900"/></linearGradient><path d="m239.9 29.7-18.2-.2v4.9l-81.7-19.8c-6.6-1.6-15.6-1.2-20.1.8l-99.7 44.3v-2.2h-17.8v42.2c.1 1.5 2.2 2.9 6.2 3.9l93.7 22.6c6.6 1.6 15.6 1.2 20.1-.8l114.9-51.1c1.7-.7 2.5-1.6 2.5-2.5v-42.1z" fill="url(#a)" stroke="#006073" stroke-miterlimit="10"/><path d="m237.4 32.1-114.9 51.1c-4.5 2-13.6 2.4-20.1.8l-93.7-22.6c-6.6-1.6-8.2-4.5-3.7-6.5l114.9-51.1c4.5-2 13.6-2.4 20.1-.8l93.7 22.6c6.5 1.6 8.2 4.5 3.7 6.5z" fill="#b3f2ff" stroke="#006073" stroke-miterlimit="10"/><path d="m226.2 41.1c-.6 1.3-.5 3 .3 3.8.7.9 1.8.5 2.4-.7.6-1.3.5-3-.3-3.8-.8-.9-1.8-.6-2.4.7z" fill="#f9ec31" stroke="#231f20" stroke-miterlimit="10" stroke-width=".5"/><path d="m220.7 43.5c-.6 1.3-.5 3 .3 3.8.7.9 1.8.5 2.4-.7s.5-3-.3-3.8c-.8-.9-1.8-.5-2.4.7z" fill="#f6921e" stroke="#231f20" stroke-miterlimit="10" stroke-width=".5"/><path d="m215.2 46c-.6 1.3-.5 3 .3 3.8.7.9 1.8.5 2.4-.7.6-1.3.5-3-.3-3.8-.8-.9-1.8-.6-2.4.7z" fill="#37b34a" stroke="#231f20" stroke-miterlimit="10" stroke-width=".5"/><path d="m138 116.1-4.4 1.8c-1.3.6-2.4.2-2.4-.7v-33.7c0-1 1.1-2.2 2.4-2.8l4.4-1.8c1.3-.6 2.4-.2 2.4.7v33.7c0 1-1.1 2.3-2.4 2.8z" fill="url(#b)"/><path d="m14.7 72.2c0 1.6-1.4 2.6-3 2.2-1.7-.4-3-2-3-3.6s1.4-2.6 3-2.2c1.7.3 3 2 3 3.6zm0 11.8c0 1.6-1.4 2.6-3 2.2s-3-2-3-3.6 1.4-2.6 3-2.2c1.7.4 3 2 3 3.6zm4.2-4.9c0 1.6-1.4 2.6-3 2.2-1.7-.4-3-2-3-3.6s1.4-2.6 3-2.2 3 2 3 3.6zm4.2-4.9c0 1.6-1.4 2.6-3 2.2s-3-2-3-3.6 1.4-2.6 3-2.2 3 2 3 3.6zm0 11.8c0 1.6-1.4 2.6-3 2.2-1.7-.4-3-2-3-3.6s1.4-2.6 3-2.2 3 2 3 3.6zm4.1-4.9c0 1.6-1.4 2.6-3 2.2-1.7-.4-3-2-3-3.6s1.4-2.6 3-2.2 3 2 3 3.6zm4.2-4.9c0 1.6-1.4 2.6-3 2.2-1.7-.4-3-2-3-3.6s1.4-2.6 3-2.2c1.6.3 3 2 3 3.6zm0 11.8c0 1.6-1.4 2.6-3 2.2-1.7-.4-3-2-3-3.6s1.4-2.6 3-2.2 3 2 3 3.6zm4.1-4.9c0 1.6-1.4 2.6-3 2.2-1.7-.4-3-2-3-3.6s1.4-2.6 3-2.2c1.7.4 3 2 3 3.6zm4.2-4.9c0 1.6-1.4 2.6-3 2.2-1.7-.4-3-2-3-3.6s1.4-2.6 3-2.2 3 2 3 3.6zm0 11.8c0 1.6-1.4 2.6-3 2.2-1.7-.4-3-2-3-3.6s1.4-2.6 3-2.2 3 2 3 3.6zm4.1-4.9c0 1.6-1.4 2.6-3 2.2-1.7-.4-3-2-3-3.6s1.4-2.6 3-2.2c1.7.4 3 2 3 3.6zm4.2-4.9c0 1.6-1.4 2.6-3 2.2-1.7-.4-3-2-3-3.6s1.4-2.6 3-2.2 3 2 3 3.6zm0 11.8c0 1.6-1.4 2.6-3 2.2-1.7-.4-3-2-3-3.6s1.4-2.6 3-2.2 3 2 3 3.6zm4.2-4.9c0 1.6-1.4 2.6-3 2.2-1.7-.4-3-2-3-3.6s1.4-2.6 3-2.2 3 2 3 3.6zm-37.5 8.8c0 1.6-1.4 2.6-3 2.2-1.7-.4-3-2-3-3.6s1.4-2.6 3-2.2 3 2 3 3.6zm4.2-5c0 1.6-1.4 2.6-3 2.2s-3-2-3-3.6 1.4-2.6 3-2.2 3 2 3 3.6zm4.2 7c0 1.6-1.4 2.6-3 2.2-1.7-.4-3-2-3-3.6s1.4-2.6 3-2.2c1.6.3 3 2 3 3.6zm4.1-5c0 1.6-1.4 2.6-3 2.2-1.7-.4-3-2-3-3.6s1.4-2.6 3-2.2 3 2 3 3.6zm4.2 7c0 1.6-1.4 2.6-3 2.2-1.7-.4-3-2-3-3.6s1.4-2.6 3-2.2 3 2 3 3.6zm4.1-4.9c0 1.6-1.4 2.6-3 2.2-1.7-.4-3-2-3-3.6s1.4-2.6 3-2.2c1.7.3 3 2 3 3.6zm4.2 6.9c0 1.6-1.4 2.6-3 2.2-1.7-.4-3-2-3-3.6s1.4-2.6 3-2.2 3 2 3 3.6zm4.1-4.9c0 1.6-1.4 2.6-3 2.2-1.7-.4-3-2-3-3.6s1.4-2.6 3-2.2c1.7.3 3 2 3 3.6zm4.2 6.9c0 1.6-1.4 2.6-3 2.2s-3-2-3-3.6 1.4-2.6 3-2.2 3 2 3 3.6zm4.2-4.9c0 1.6-1.4 2.6-3 2.2-1.7-.4-3-2-3-3.6s1.4-2.6 3-2.2c1.6.3 3 2 3 3.6zm4.4-16.8c0 1.6-1.4 2.6-3 2.2-1.7-.4-3-2-3-3.6s1.4-2.6 3-2.2c1.7.4 3 2 3 3.6zm0 11.8c0 1.6-1.4 2.6-3 2.2-1.7-.4-3-2-3-3.6s1.4-2.6 3-2.2c1.7.4 3 2 3 3.6zm4.2-4.9c0 1.6-1.4 2.6-3 2.2-1.7-.4-3-2-3-3.6s1.4-2.6 3-2.2 3 2 3 3.6zm4.1-4.9c0 1.6-1.4 2.6-3 2.2-1.7-.4-3-2-3-3.6s1.4-2.6 3-2.2c1.7.4 3 2 3 3.6zm0 11.9c0 1.6-1.4 2.6-3 2.2-1.7-.4-3-2-3-3.6s1.4-2.6 3-2.2c1.7.3 3 2 3 3.6zm-8.3 9.8c0 1.6-1.4 2.6-3 2.2-1.7-.4-3-2-3-3.6s1.4-2.6 3-2.2c1.7.4 3 2 3 3.6zm4.2-4.9c0 1.6-1.4 2.6-3 2.2-1.7-.4-3-2-3-3.6s1.4-2.6 3-2.2 3 2 3 3.6zm4.1 6.9c0 1.6-1.4 2.6-3 2.2-1.7-.4-3-2-3-3.6s1.4-2.6 3-2.2c1.7.4 3 2 3 3.6z" fill="#003540"/><g stroke-miterlimit="10"><path d="m171.2 30.4c-.9-.8-2.4-1.5-4.4-2-6.2-1.6-15.5-1.1-21.5 1-.7-.5-1.6-.9-2.9-1.2-5-1.3-12.6-.8-17 1.1-.5.2-1 .5-1.4.7-11.1-1.1-24.4.4-32.9 4.1-3.7 1.6-6 3.4-6.9 5.3m2.9 7.7c-2.3 1.1-3.7 2.4-4.4 3.6" fill="none" stroke="#005573" stroke-linecap="round"/><path d="m82.6 53.7c.9 1.7 3.4 3.2 7.5 4.3 9.7 2.5 24.5 1.5 33.1-2.2l44.9-19.6c1.5-.7 2.6-1.4 3.2-2.1m-87.1 8.6c.6 1.4 2.1 2.7 4.4 3.8" fill="none" stroke="#fff" stroke-linecap="round" stroke-width=".5"/><path d="m366.3 60.1-18.2-.2v4.9l-81.8-19.7c-6.6-1.6-15.6-1.2-20.1.8l-99.6 44.3v-2.2h-17.8v42.2c.1 1.5 2.2 2.9 6.2 3.9l93.7 22.6c6.6 1.6 15.6 1.2 20.1-.8l114.9-51.1c1.7-.7 2.5-1.6 2.5-2.5v-42.2z" fill="url(#c)" stroke="#730026"/><path d="m363.7 62.6-114.9 51.1c-4.5 2-13.6 2.4-20.1.8l-93.7-22.7c-6.6-1.6-8.2-4.5-3.7-6.5l114.9-51.1c4.5-2 13.6-2.4 20.1-.8l93.7 22.6c6.6 1.6 8.3 4.6 3.7 6.6z" fill="#ffb3cc" stroke="#730026"/><path d="m352.6 71.5c-.6 1.3-.5 3 .3 3.8.7.9 1.8.5 2.4-.7.6-1.3.5-3-.3-3.8s-1.9-.5-2.4.7z" fill="#f9ec31" stroke="#231f20" stroke-width=".5"/><path d="m347.1 74c-.6 1.3-.5 3 .3 3.8.7.9 1.8.5 2.4-.7s.5-3-.3-3.8c-.8-.9-1.9-.6-2.4.7z" fill="#f6921e" stroke="#231f20" stroke-width=".5"/><path d="m341.6 76.4c-.6 1.3-.5 3 .3 3.8.7.9 1.8.5 2.4-.7.6-1.3.5-3-.3-3.8s-1.9-.5-2.4.7z" fill="#37b34a" stroke="#231f20" stroke-width=".5"/></g><path d="m264.3 146.6-4.4 1.8c-1.3.6-2.4.2-2.4-.7v-33.7c0-1 1.1-2.2 2.4-2.8l4.4-1.8c1.3-.6 2.4-.2 2.4.7v33.7c0 1-1.1 2.2-2.4 2.8z" fill="url(#d)"/><path d="m141.1 102.6c0 1.6-1.4 2.6-3 2.2-1.7-.4-3-2-3-3.6s1.4-2.6 3-2.2 3 2 3 3.6zm0 11.9c0 1.6-1.4 2.6-3 2.2-1.7-.4-3-2-3-3.6s1.4-2.6 3-2.2c1.6.3 3 2 3 3.6zm4.1-5c0 1.6-1.4 2.6-3 2.2-1.7-.4-3-2-3-3.6s1.4-2.6 3-2.2c1.7.4 3 2 3 3.6zm4.2-4.9c0 1.6-1.4 2.6-3 2.2-1.7-.4-3-2-3-3.6s1.4-2.6 3-2.2 3 2 3 3.6zm0 11.9c0 1.6-1.4 2.6-3 2.2-1.7-.4-3-2-3-3.6s1.4-2.6 3-2.2c1.6.3 3 2 3 3.6zm4.2-5c0 1.6-1.4 2.6-3 2.2-1.7-.4-3-2-3-3.6s1.4-2.6 3-2.2 3 2 3 3.6zm4.1-4.9c0 1.6-1.4 2.6-3 2.2-1.7-.4-3-2-3-3.6s1.4-2.6 3-2.2c1.7.4 3 2 3 3.6zm0 11.9c0 1.6-1.4 2.6-3 2.2-1.7-.4-3-2-3-3.6s1.4-2.6 3-2.2c1.7.4 3 2 3 3.6zm4.2-4.9c0 1.6-1.4 2.6-3 2.2-1.7-.4-3-2-3-3.6s1.4-2.6 3-2.2c1.6.3 3 2 3 3.6zm4.1-5c0 1.6-1.4 2.6-3 2.2-1.7-.4-3-2-3-3.6s1.4-2.6 3-2.2c1.7.4 3 2 3 3.6zm0 11.9c0 1.6-1.4 2.6-3 2.2-1.7-.4-3-2-3-3.6s1.4-2.6 3-2.2c1.7.4 3 2 3 3.6zm4.2-4.9c0 1.6-1.4 2.6-3 2.2-1.7-.4-3-2-3-3.6s1.4-2.6 3-2.2c1.6.3 3 2 3 3.6zm4.2-5c0 1.6-1.4 2.6-3 2.2-1.7-.4-3-2-3-3.6s1.4-2.6 3-2.2 3 2 3 3.6zm0 11.9c0 1.6-1.4 2.6-3 2.2-1.7-.4-3-2-3-3.6s1.4-2.6 3-2.2 3 2 3 3.6zm4.1-4.9c0 1.6-1.4 2.6-3 2.2-1.7-.4-3-2-3-3.6s1.4-2.6 3-2.2 3 2 3 3.6zm-37.4 8.7c0 1.6-1.4 2.6-3 2.2-1.7-.4-3-2-3-3.6s1.4-2.6 3-2.2 3 2 3 3.6zm4.1-4.9c0 1.6-1.4 2.6-3 2.2-1.7-.4-3-2-3-3.6s1.4-2.6 3-2.2c1.7.4 3 2 3 3.6zm4.2 6.9c0 1.6-1.4 2.6-3 2.2-1.7-.4-3-2-3-3.6s1.4-2.6 3-2.2 3 2 3 3.6zm4.2-4.9c0 1.6-1.4 2.6-3 2.2-1.7-.4-3-2-3-3.6s1.4-2.6 3-2.2 3 2 3 3.6zm4.1 6.9c0 1.6-1.4 2.6-3 2.2-1.7-.4-3-2-3-3.6s1.4-2.6 3-2.2c1.7.4 3 2 3 3.6zm4.2-4.9c0 1.6-1.4 2.6-3 2.2-1.7-.4-3-2-3-3.6s1.4-2.6 3-2.2 3 2 3 3.6zm4.1 6.9c0 1.6-1.4 2.6-3 2.2-1.7-.4-3-2-3-3.6s1.4-2.6 3-2.2c1.7.4 3 2 3 3.6zm4.2-4.9c0 1.6-1.4 2.6-3 2.2-1.7-.4-3-2-3-3.6s1.4-2.6 3-2.2 3 2 3 3.6zm4.2 7c0 1.6-1.4 2.6-3 2.2-1.7-.4-3-2-3-3.6s1.4-2.6 3-2.2c1.6.3 3 2 3 3.6zm4.1-5c0 1.6-1.4 2.6-3 2.2-1.7-.4-3-2-3-3.6s1.4-2.6 3-2.2 3 2 3 3.6zm4.5-16.7c0 1.6-1.4 2.6-3 2.2-1.7-.4-3-2-3-3.6s1.4-2.6 3-2.2c1.6.3 3 2 3 3.6zm0 11.8c0 1.6-1.4 2.6-3 2.2-1.7-.4-3-2-3-3.6s1.4-2.6 3-2.2 3 2 3 3.6zm4.1-4.9c0 1.6-1.4 2.6-3 2.2-1.7-.4-3-2-3-3.6s1.4-2.6 3-2.2c1.7.4 3 2 3 3.6zm4.2-4.9c0 1.6-1.4 2.6-3 2.2-1.7-.4-3-2-3-3.6s1.4-2.6 3-2.2c1.6.3 3 2 3 3.6zm0 11.8c0 1.6-1.4 2.6-3 2.2-1.7-.4-3-2-3-3.6s1.4-2.6 3-2.2 3 2 3 3.6zm-8.3 9.9c0 1.6-1.4 2.6-3 2.2-1.7-.4-3-2-3-3.6s1.4-2.6 3-2.2c1.6.3 3 2 3 3.6zm4.1-5c0 1.6-1.4 2.6-3 2.2-1.7-.4-3-2-3-3.6s1.4-2.6 3-2.2 3 2 3 3.6zm4.2 7c0 1.6-1.4 2.6-3 2.2-1.7-.4-3-2-3-3.6s1.4-2.6 3-2.2c1.6.3 3 2 3 3.6z" fill="#400015"/><path d="m299.5 60.7c-.9-.8-2.4-1.5-4.4-2-6.2-1.6-15.5-1.1-21.5 1-.7-.5-1.6-.9-2.9-1.2-5-1.3-12.6-.8-17 1.1-.5.2-1 .5-1.4.7-11.1-1.1-24.4.4-32.9 4.1-3.7 1.6-6 3.4-6.9 5.3m2.9 7.7c-2.3 1.1-3.7 2.4-4.4 3.6" fill="none" stroke="#730026" stroke-linecap="round" stroke-miterlimit="10"/><path d="m211 83.9c.9 1.7 3.4 3.2 7.5 4.3 9.7 2.5 24.5 1.5 33.1-2.2l44.9-19.6c1.5-.7 2.6-1.4 3.2-2.1m-87.2 8.6c.6 1.4 2.1 2.7 4.4 3.8" fill="none" stroke="#fff" stroke-linecap="round" stroke-miterlimit="10" stroke-width=".5"/><path d="m492.9 90.7-18.2-.2v4.9l-81.8-19.7c-6.6-1.6-15.6-1.2-20.1.8l-99.6 44.3v-2.2h-17.8v42.2c.1 1.5 2.2 2.9 6.2 3.9l93.7 22.6c6.6 1.6 15.6 1.2 20.1-.8l114.9-51.1c1.7-.7 2.5-1.6 2.5-2.5v-42.2z" fill="url(#e)" stroke="#735400" stroke-miterlimit="10"/><path d="m490.3 93.2-114.9 51.1c-4.5 2-13.6 2.4-20.1.8l-93.7-22.6c-6.6-1.6-8.2-4.5-3.7-6.5l114.9-51.1c4.5-2 13.6-2.4 20.1-.8l93.7 22.6c6.6 1.5 8.2 4.5 3.7 6.5z" fill="#ffecb3" stroke="#735500" stroke-miterlimit="10"/><path d="m479.1 102.1c-.6 1.3-.5 3 .3 3.8.7.9 1.8.5 2.4-.7.6-1.3.5-3-.3-3.8-.7-.9-1.8-.5-2.4.7z" fill="#f9ec31" stroke="#231f20" stroke-miterlimit="10" stroke-width=".5"/><path d="m473.6 104.6c-.6 1.3-.5 3 .3 3.8.7.9 1.8.5 2.4-.7.6-1.3.5-3-.3-3.8-.7-.9-1.8-.6-2.4.7z" fill="#f6921e" stroke="#231f20" stroke-miterlimit="10" stroke-width=".5"/><path d="m468.1 107c-.6 1.3-.5 3 .3 3.8.7.9 1.8.5 2.4-.7s.5-3-.3-3.8c-.7-.9-1.8-.6-2.4.7z" fill="#37b34a" stroke="#231f20" stroke-miterlimit="10" stroke-width=".5"/><path d="m390.9 177.2-4.4 1.8c-1.3.6-2.4.2-2.4-.7v-33.7c0-1 1.1-2.2 2.4-2.8l4.4-1.8c1.3-.6 2.4-.2 2.4.7v33.7c0 1-1.1 2.2-2.4 2.8z" fill="url(#f)"/><path d="m267.7 133.2c0 1.6-1.4 2.6-3 2.2-1.7-.4-3-2-3-3.6s1.4-2.6 3-2.2 3 2 3 3.6zm0 11.8c0 1.6-1.4 2.6-3 2.2-1.7-.4-3-2-3-3.6s1.4-2.6 3-2.2 3 2 3 3.6zm4.1-4.9c0 1.6-1.4 2.6-3 2.2s-3-2-3-3.6 1.4-2.6 3-2.2 3 2 3 3.6zm4.2-4.9c0 1.6-1.4 2.6-3 2.2s-3-2-3-3.6 1.4-2.6 3-2.2 3 2 3 3.6zm0 11.9c0 1.6-1.4 2.6-3 2.2s-3-2-3-3.6 1.4-2.6 3-2.2 3 2 3 3.6zm4.2-5c0 1.6-1.4 2.6-3 2.2-1.7-.4-3-2-3-3.6s1.4-2.6 3-2.2 3 2 3 3.6zm4.1-4.9c0 1.6-1.4 2.6-3 2.2-1.7-.4-3-2-3-3.6s1.4-2.6 3-2.2 3 2 3 3.6zm0 11.9c0 1.6-1.4 2.6-3 2.2-1.7-.4-3-2-3-3.6s1.4-2.6 3-2.2c1.6.3 3 2 3 3.6zm4.2-5c0 1.6-1.4 2.6-3 2.2-1.7-.4-3-2-3-3.6s1.4-2.6 3-2.2 3 2 3 3.6zm4.1-4.9c0 1.6-1.4 2.6-3 2.2-1.7-.4-3-2-3-3.6s1.4-2.6 3-2.2 3 2 3 3.6zm0 11.9c0 1.6-1.4 2.6-3 2.2s-3-2-3-3.6 1.4-2.6 3-2.2c1.7.3 3 2 3 3.6zm4.2-5c0 1.6-1.4 2.6-3 2.2-1.7-.4-3-2-3-3.6s1.4-2.6 3-2.2 3 2 3 3.6zm4.1-4.9c0 1.6-1.4 2.6-3 2.2-1.7-.4-3-2-3-3.6s1.4-2.6 3-2.2c1.7.4 3 2 3 3.6zm0 11.9c0 1.6-1.4 2.6-3 2.2-1.7-.4-3-2-3-3.6s1.4-2.6 3-2.2c1.7.4 3 2 3 3.6zm4.2-4.9c0 1.6-1.4 2.6-3 2.2-1.7-.4-3-2-3-3.6s1.4-2.6 3-2.2c1.6.3 3 2 3 3.6zm-37.4 8.7c0 1.6-1.4 2.6-3 2.2-1.7-.4-3-2-3-3.6s1.4-2.6 3-2.2 3 2 3 3.6zm4.1-4.9c0 1.6-1.4 2.6-3 2.2-1.7-.4-3-2-3-3.6s1.4-2.6 3-2.2 3 2 3 3.6zm4.2 6.9c0 1.6-1.4 2.6-3 2.2-1.7-.4-3-2-3-3.6s1.4-2.6 3-2.2 3 2 3 3.6zm4.2-4.9c0 1.6-1.4 2.6-3 2.2-1.7-.4-3-2-3-3.6s1.4-2.6 3-2.2 3 2 3 3.6zm4.1 6.9c0 1.6-1.4 2.6-3 2.2-1.7-.4-3-2-3-3.6s1.4-2.6 3-2.2 3 2 3 3.6zm4.2-4.9c0 1.6-1.4 2.6-3 2.2-1.7-.4-3-2-3-3.6s1.4-2.6 3-2.2 3 2 3 3.6zm4.1 6.9c0 1.6-1.4 2.6-3 2.2s-3-2-3-3.6 1.4-2.6 3-2.2 3 2 3 3.6zm4.2-4.9c0 1.6-1.4 2.6-3 2.2-1.7-.4-3-2-3-3.6s1.4-2.6 3-2.2 3 2 3 3.6zm4.1 6.9c0 1.6-1.4 2.6-3 2.2-1.7-.4-3-2-3-3.6s1.4-2.6 3-2.2c1.7.4 3 2 3 3.6zm4.2-4.9c0 1.6-1.4 2.6-3 2.2-1.7-.4-3-2-3-3.6s1.4-2.6 3-2.2 3 2 3 3.6zm4.5-16.8c0 1.6-1.4 2.6-3 2.2-1.7-.4-3-2-3-3.6s1.4-2.6 3-2.2 3 2 3 3.6zm0 11.9c0 1.6-1.4 2.6-3 2.2-1.7-.4-3-2-3-3.6s1.4-2.6 3-2.2 3 2 3 3.6zm4.1-4.9c0 1.6-1.4 2.6-3 2.2-1.7-.4-3-2-3-3.6s1.4-2.6 3-2.2c1.7.3 3 2 3 3.6zm4.2-5c0 1.6-1.4 2.6-3 2.2s-3-2-3-3.6 1.4-2.6 3-2.2 3 2 3 3.6zm0 11.9c0 1.6-1.4 2.6-3 2.2-1.7-.4-3-2-3-3.6s1.4-2.6 3-2.2 3 2 3 3.6zm-8.3 9.8c0 1.6-1.4 2.6-3 2.2-1.7-.4-3-2-3-3.6s1.4-2.6 3-2.2 3 2 3 3.6zm4.1-4.9c0 1.6-1.4 2.6-3 2.2-1.7-.4-3-2-3-3.6s1.4-2.6 3-2.2c1.7.4 3 2 3 3.6zm4.2 6.9c0 1.6-1.4 2.6-3 2.2s-3-2-3-3.6 1.4-2.6 3-2.2 3 2 3 3.6z" fill="#403000"/><path d="m425.2 91.7c-.9-.8-2.4-1.5-4.4-2-6.2-1.6-15.5-1.1-21.5 1-.7-.5-1.6-.9-2.9-1.2-5-1.3-12.6-.8-17 1.1-.5.2-1 .5-1.4.7-11.1-1.1-24.4.4-32.9 4.1-3.7 1.6-6 3.4-6.9 5.3m2.9 7.7c-2.3 1.1-3.7 2.4-4.4 3.6" fill="none" stroke="#735400" stroke-linecap="round" stroke-miterlimit="10"/><path d="m336.7 115c.9 1.7 3.4 3.2 7.5 4.3 9.7 2.5 24.5 1.5 33.1-2.2l44.9-19.6c1.5-.7 2.6-1.4 3.2-2.1m-87.2 8.5c.6 1.4 2.1 2.7 4.4 3.8" fill="none" stroke="#fff" stroke-linecap="round" stroke-miterlimit="10" stroke-width=".5"/></svg>