<?xml version="1.0" encoding="UTF-8"?>
<svg width="1003px" height="1003px" viewBox="0 0 1003 1003" version="1.1" xmlns="http://www.w3.org/2000/svg" xmlns:xlink="http://www.w3.org/1999/xlink">
    <!-- Generator: Sketch 59 (86127) - https://sketch.com -->
    <title>Novvum SQUARED</title>
    <desc>Created with Sketch.</desc>
    <g id="Novvum-SQUARED" stroke="none" stroke-width="1" fill="none" fill-rule="evenodd">
        <g id="Group" transform="translate(24.000000, 42.000000)" fill-rule="nonzero">
            <g id="NEW-NOVVUM-LOGO" transform="translate(228.000000, 0.000000)">
                <path d="M376.139765,334.585726 L40.6625823,625.994182 C30.4231815,634.888522 14.9122213,633.798134 6.01788433,623.558736 C2.13701007,619.09097 -1.22789629e-06,613.372058 -1.22789629e-06,607.454111 L-1.22789629e-06,24.6371952 C-1.22789629e-06,11.0742102 10.9949718,0.0792384578 24.5579556,0.0792384578 C30.475905,0.0792384578 36.194817,2.21624853 40.6625823,6.0971223 L376.139765,297.50558 C386.379165,306.399918 387.469553,321.910878 378.575214,332.150277 C377.821397,333.018092 377.00758,333.831909 376.139765,334.585726 Z" id="Triangle" fill="#10506D"></path>
                <path d="M123.630523,428.563461 C122.762708,427.809644 121.948891,426.995828 121.195074,426.128014 C112.300736,415.888613 113.391123,400.377655 123.630523,391.483316 L459.107706,100.074858 C463.575473,96.1939846 469.294383,94.0569746 475.212333,94.0569746 C488.775316,94.0569746 499.770289,105.051946 499.770289,118.614931 L499.770289,701.431847 C499.770289,707.349794 497.633278,713.068706 493.752404,717.536472 C484.858067,727.77587 469.347107,728.866258 459.107706,719.971918 L123.630523,428.563461 Z" id="Triangle" fill="#2AC3D3"></path>
            </g>
            <path d="M12.0183105,902 L12.0183105,759.177734 L21.5397949,759.177734 L111.041748,848.679688 L111.041748,759.177734 L139.606201,759.177734 L139.606201,902 L129.132568,902 L40.5827637,813.450195 L40.5827637,902 L12.0183105,902 Z M233.392822,902 C213.080221,902 196.10041,895.160469 182.452881,881.481201 C168.805352,867.801934 161.981689,850.837992 161.981689,830.588867 C161.981689,810.276266 168.805352,793.296455 182.452881,779.648926 C196.10041,766.001397 213.080221,759.177734 233.392822,759.177734 C253.705424,759.177734 270.685234,766.001397 284.332764,779.648926 C297.980293,793.296455 304.803955,810.276266 304.803955,830.588867 C304.803955,850.901469 297.980293,867.881279 284.332764,881.528809 C270.685234,895.176338 253.705424,902 233.392822,902 Z M233.488037,875.339844 C246.119936,875.339844 256.403036,871.055219 264.337646,862.48584 C272.272256,853.916461 276.239502,843.284243 276.239502,830.588867 C276.239502,817.893491 272.272256,807.261273 264.337646,798.691895 C256.403036,790.122516 246.05646,785.837891 233.297607,785.837891 C220.665708,785.837891 210.382608,790.122516 202.447998,798.691895 C194.513388,807.261273 190.546143,817.893491 190.546143,830.588867 C190.546143,843.284243 194.513388,853.916461 202.447998,862.48584 C210.382608,871.055219 220.729184,875.339844 233.488037,875.339844 Z M317.2771,759.177734 L374.501221,902 L403.065674,902 L460.099365,759.177734 L429.630615,759.177734 L388.307373,863.818848 L347.74585,759.177734 L317.2771,759.177734 Z M475.048096,759.177734 L532.272217,902 L560.83667,902 L617.870361,759.177734 L587.401611,759.177734 L546.078369,863.818848 L505.516846,759.177734 L475.048096,759.177734 Z M639.388916,759.177734 L639.388916,849.631836 C639.388916,864.231518 645.260439,876.609324 657.003662,886.765625 C668.746885,896.921926 683.505038,902 701.278564,902 C719.052091,902 733.810244,896.921926 745.553467,886.765625 C757.29669,876.609324 763.168213,864.231518 763.168213,849.631836 L763.168213,759.177734 L734.60376,759.177734 L734.60376,842.014648 C734.60376,852.805718 731.429963,860.740209 725.082275,865.818359 C718.734587,870.89651 710.800096,873.435547 701.278564,873.435547 C691.757032,873.435547 683.822542,870.89651 677.474854,865.818359 C671.127166,860.740209 667.953369,852.805718 667.953369,842.014648 L667.953369,759.177734 L639.388916,759.177734 Z M794.017822,902 L794.017822,759.177734 L803.539307,759.177734 L865.428955,829.636719 L927.413818,759.177734 L936.935303,759.177734 L936.935303,902 L908.37085,902 L908.275635,819.163086 L865.428955,866.770508 L822.582275,819.163086 L822.582275,902 L794.017822,902 Z" id="NOVVUM" fill="#10506D"></path>
        </g>
    </g>
</svg>