<svg viewBox="0 0 183 68" fill="none" xmlns="http://www.w3.org/2000/svg">
    <path d="M78.081 40.4615L79.0287 40.3667L79.095 42.2905C76.6121 42.6412 74.4893 42.8117 72.7267 42.8117C70.3764 42.8117 68.7085 42.1294 67.7324 40.7742C66.7563 39.4096 66.2635 37.2963 66.2635 34.4154C66.2635 28.6915 68.538 25.82 73.0962 25.82C75.2948 25.82 76.9438 26.436 78.0336 27.668C79.1234 28.8999 79.6636 30.8332 79.6636 33.4677L79.5309 35.3346H68.737C68.737 37.1447 69.0592 38.4809 69.7131 39.3527C70.367 40.2246 71.5042 40.6605 73.1247 40.6605C74.7547 40.6605 76.4036 40.5942 78.081 40.4615ZM77.1997 33.3729C77.1997 31.3734 76.8774 29.9519 76.233 29.1274C75.5886 28.3029 74.5462 27.8859 73.0962 27.8859C71.6463 27.8859 70.5565 28.3219 69.8268 29.1937C69.0971 30.0656 68.718 31.4587 68.6991 33.3729H77.1997ZM88.6001 28.0091C86.2215 28.0091 85.0369 28.8336 85.0369 30.492C85.0369 31.2502 85.3117 31.7903 85.8519 32.1125C86.392 32.4253 87.6335 32.757 89.5762 33.0886C91.5189 33.4298 92.8836 33.9036 93.6891 34.5102C94.4946 35.1167 94.9021 36.2633 94.9021 37.9407C94.9021 39.6181 94.3619 40.8501 93.2816 41.6366C92.2013 42.4232 90.6281 42.8117 88.5622 42.8117C87.207 42.8117 85.6244 42.6601 83.7954 42.3569L82.8193 42.1957L82.952 40.073C85.4349 40.4426 87.3113 40.6321 88.5717 40.6321C89.8321 40.6321 90.7987 40.4331 91.4621 40.0256C92.1254 39.6181 92.4571 38.9452 92.4571 37.9976C92.4571 37.0499 92.1728 36.4055 91.6042 36.0738C91.0356 35.7326 89.7942 35.4199 87.8799 35.1072C85.9656 34.8039 84.601 34.3585 83.7954 33.771C82.9899 33.1834 82.5824 32.0936 82.5824 30.5015C82.5824 28.9094 83.1415 27.7343 84.2693 26.9762C85.3875 26.218 86.7901 25.8295 88.4674 25.8295C89.7942 25.8295 91.4621 25.9811 93.4617 26.2844L94.3809 26.4455L94.3146 28.5398C91.898 28.1892 89.9932 28.0091 88.6001 28.0091ZM104.777 25.82C105.497 25.82 106.72 25.9527 108.435 26.2086L109.221 26.3033L109.127 28.2934C107.383 28.0944 106.104 27.9997 105.27 27.9997C103.422 27.9997 102.161 28.4451 101.498 29.3264C100.835 30.2077 100.503 31.8377 100.503 34.2259C100.503 36.614 100.816 38.2724 101.432 39.2106C102.057 40.1488 103.346 40.6131 105.308 40.6131L109.165 40.3194L109.259 42.3474C107.231 42.6506 105.715 42.8023 104.72 42.8023C102.171 42.8023 100.408 42.1484 99.4415 40.8406C98.4748 39.5328 97.9915 37.3247 97.9915 34.2259C97.9915 31.127 98.5127 28.9473 99.5552 27.6964C100.588 26.4455 102.332 25.82 104.777 25.82ZM124.441 31.0796V39.4475C124.507 40.253 125.142 40.7363 126.336 40.888L126.242 42.8117C124.517 42.8117 123.228 42.3758 122.356 41.504C120.394 42.3758 118.433 42.8117 116.471 42.8117C114.964 42.8117 113.827 42.3853 113.041 41.5419C112.254 40.689 111.865 39.4759 111.865 37.8839C111.865 36.2918 112.273 35.1261 113.078 34.368C113.884 33.6193 115.144 33.155 116.869 32.9844L121.996 32.4916V31.0891C121.996 29.9803 121.759 29.1842 121.276 28.7009C120.792 28.2176 120.139 27.9807 119.314 27.9807C117.57 27.9807 115.76 28.0944 113.893 28.3029L112.879 28.3977L112.785 26.5308C115.182 26.0475 117.305 25.8105 119.153 25.8105C121.001 25.8105 122.347 26.237 123.19 27.0804C124.024 27.9428 124.441 29.279 124.441 31.0796ZM114.377 37.7512C114.377 39.7508 115.201 40.7553 116.86 40.7553C118.338 40.7553 119.797 40.5089 121.238 40.0066L121.987 39.7413V34.349L117.153 34.8039C116.177 34.8892 115.467 35.1735 115.031 35.6568C114.595 36.1401 114.377 36.8319 114.377 37.7512ZM129.274 49.7392V26.1517H131.691V27.3268C133.349 26.3223 134.979 25.82 136.59 25.82C138.656 25.82 140.163 26.4834 141.101 27.8007C142.039 29.1179 142.504 31.2881 142.504 34.3206C142.504 37.3437 141.954 39.5233 140.855 40.8406C139.755 42.1578 137.926 42.8212 135.387 42.8212C134.06 42.8212 132.837 42.698 131.729 42.4611V49.7487H129.274V49.7392ZM136.239 28.0091C135.586 28.0091 134.884 28.1229 134.136 28.3313C133.387 28.5493 132.79 28.7673 132.354 28.9852L131.729 29.3074V40.3194C133.273 40.5563 134.448 40.6795 135.254 40.6795C137.017 40.6795 138.258 40.1772 138.959 39.1727C139.67 38.1682 140.021 36.5382 140.021 34.2732C140.021 32.0083 139.698 30.3973 139.054 29.4401C138.419 28.4924 137.481 28.0091 136.239 28.0091ZM157.6 40.4615L158.548 40.3667L158.614 42.2905C156.131 42.6412 154.008 42.8117 152.246 42.8117C149.895 42.8117 148.227 42.1294 147.251 40.7742C146.275 39.4096 145.782 37.2963 145.782 34.4154C145.782 28.6915 148.057 25.82 152.615 25.82C154.814 25.82 156.463 26.436 157.553 27.668C158.642 28.8999 159.183 30.8332 159.183 33.4677L159.05 35.3346H148.265C148.265 37.1447 148.588 38.4809 149.241 39.3527C149.895 40.2246 151.033 40.6605 152.653 40.6605C154.274 40.6605 155.923 40.5942 157.6 40.4615ZM156.719 33.3729C156.719 31.3734 156.396 29.9519 155.752 29.1274C155.108 28.3029 154.065 27.8859 152.615 27.8859C151.165 27.8859 150.075 28.3219 149.346 29.1937C148.616 30.0656 148.237 31.4587 148.218 33.3729H156.719Z"
          fill="white"/>
    <path d="M36.0614 36.6043C31.8537 36.6043 28.4326 33.1832 28.4326 28.9755C28.4326 25.5165 30.8492 22.5788 34.6019 21.4984C37.5302 20.655 49.8405 17.2244 50.3617 17.0728C50.4944 17.0349 50.6176 16.997 50.7502 16.9591C50.7597 16.9591 50.7692 16.9496 50.7787 16.9496C51.3757 16.798 51.9917 16.7222 52.6171 16.7222C56.8248 16.7222 60.2459 20.1433 60.2459 24.3509C60.2459 27.8573 57.8577 30.6624 53.8586 31.8659L38.4495 36.2157C38.2315 36.2915 38.0136 36.3484 37.7861 36.4053C37.7766 36.4053 37.7766 36.4053 37.7672 36.4147C37.2175 36.5379 36.6394 36.6043 36.0614 36.6043ZM52.6266 18.9776C52.1907 18.9776 51.7548 19.0345 51.3283 19.1387C51.2146 19.1672 51.1198 19.1956 51.0156 19.224C51.0061 19.224 50.9966 19.2335 50.9777 19.2335C50.8545 19.2714 38.1936 22.7967 35.2179 23.6496C33.0193 24.2846 30.6691 26.0188 30.6691 28.9755C30.6691 31.9417 33.0857 34.3583 36.0519 34.3583C36.4594 34.3583 36.8669 34.3109 37.2649 34.2256C37.4355 34.1877 37.5966 34.1403 37.7672 34.0835C37.7861 34.074 37.8051 34.074 37.8145 34.0645L53.2331 29.7147C54.6546 29.2883 57.9999 27.9047 57.9999 24.3509C58.0094 21.3942 55.5928 18.9776 52.6266 18.9776Z"
          fill="white"/>
    <path opacity="0.7"
          d="M33.7585 43.8924C29.5508 43.8924 26.1298 40.4713 26.1298 36.2636C26.1298 32.8046 28.5463 29.8668 32.2991 28.7865C35.2274 27.9431 47.5376 24.5125 48.0588 24.3609C48.1915 24.323 48.3147 24.2851 48.4474 24.2472C48.4569 24.2472 48.4663 24.2377 48.4758 24.2377C49.0728 24.0861 49.6888 24.0103 50.3143 24.0103C54.5219 24.0103 57.943 27.4313 57.943 31.639C57.943 35.1454 55.5549 37.9505 51.5557 39.154L36.1466 43.4943C35.9287 43.5701 35.7107 43.627 35.4833 43.6839C35.4738 43.6839 35.4738 43.6839 35.4643 43.6933C34.9147 43.826 34.3366 43.8924 33.7585 43.8924ZM50.3238 26.2657C49.8878 26.2657 49.4519 26.3226 49.0254 26.4268C48.9117 26.4552 48.817 26.4837 48.7127 26.5121C48.7032 26.5121 48.6938 26.5216 48.6748 26.5216C48.5516 26.5595 35.8908 30.0848 32.9151 30.9377C30.7165 31.5727 28.3663 33.3069 28.3663 36.2636C28.3663 39.2298 30.7828 41.6464 33.749 41.6464C34.1565 41.6464 34.564 41.599 34.962 41.5137C35.1326 41.4758 35.2937 41.4284 35.4548 41.3716C35.4738 41.3621 50.9208 37.0123 50.9208 37.0123C52.3423 36.5858 55.6876 35.2022 55.6876 31.6485C55.7065 28.6823 53.29 26.2657 50.3238 26.2657Z"
          fill="white"/>
    <path opacity="0.45"
          d="M31.4557 51.3689C27.248 51.3689 23.8269 47.9478 23.8269 43.7402C23.8269 40.2812 26.2435 37.3434 29.9963 36.2631C32.9246 35.4196 45.2348 31.9891 45.756 31.8375C45.8887 31.7995 46.0119 31.7616 46.1445 31.7237C46.154 31.7237 46.1635 31.7143 46.173 31.7143C46.77 31.5626 47.386 31.4868 48.0115 31.4868C52.2191 31.4868 55.6402 34.9079 55.6402 39.1156C55.6402 42.6219 53.2521 45.427 49.2529 46.6306L33.8438 50.9804C33.6164 51.0562 33.3889 51.1225 33.1615 51.1699C32.6118 51.3121 32.0338 51.3689 31.4557 51.3689ZM48.0209 33.7517C47.585 33.7517 47.1491 33.8086 46.7226 33.9129C46.6089 33.9413 46.5141 33.9697 46.4099 33.9981C46.4004 33.9981 46.3909 34.0076 46.372 34.0076C46.2488 34.0455 33.5879 37.5709 30.6122 38.4238C28.4137 39.0587 26.0634 40.7929 26.0634 43.7497C26.0634 46.7159 28.48 49.1324 31.4462 49.1324C31.8537 49.1324 32.2612 49.085 32.6592 48.9997C32.8298 48.9618 32.9909 48.9145 33.1615 48.8576C33.1804 48.8481 33.1994 48.8481 33.2089 48.8386L48.6274 44.4888C50.0489 44.0624 53.3942 42.6788 53.3942 39.125C53.4037 36.1588 50.9871 33.7517 48.0209 33.7517Z"
          fill="white"/>
</svg>
