<?xml version="1.0" encoding="UTF-8" standalone="no"?>
<svg
   viewBox="0 0 1398.6267 425.4291"
   fill="#e10098"
   version="1.1"
   id="svg38963"
   width="1398.6267"
   height="425.42911"
   sodipodi:docname="graphql_conf-details-white.svg"
   inkscape:version="1.1 (c4e8f9e, 2021-05-24)"
   xmlns:inkscape="http://www.inkscape.org/namespaces/inkscape"
   xmlns:sodipodi="http://sodipodi.sourceforge.net/DTD/sodipodi-0.dtd"
   xmlns="http://www.w3.org/2000/svg"
   xmlns:svg="http://www.w3.org/2000/svg">
  <sodipodi:namedview
     id="namedview55"
     pagecolor="#ffffff"
     bordercolor="#666666"
     borderopacity="1.0"
     inkscape:pageshadow="2"
     inkscape:pageopacity="0.0"
     inkscape:pagecheckerboard="0"
     showgrid="false"
     inkscape:zoom="0.90195616"
     inkscape:cx="506.67651"
     inkscape:cy="106.98968"
     inkscape:window-width="2178"
     inkscape:window-height="1081"
     inkscape:window-x="0"
     inkscape:window-y="25"
     inkscape:window-maximized="0"
     inkscape:current-layer="svg38963" />
  <defs
     id="defs38967" />
  <style
     id="style38933">svg{fill:color(display-p3 0.8824 0 0.5961);}</style>
  <g
     id="g221"
     transform="scale(2.2957233)"
     style="fill:#ffffff;fill-opacity:1">
    <path
       fill-rule="evenodd"
       clip-rule="evenodd"
       d="M 81.436853,11.834844 150.43084,51.668496 V 131.33591 L 81.436853,171.16952 12.442869,131.33591 V 51.668496 Z M 20.184104,56.137956 V 114.65575 L 70.862138,26.879057 Z M 81.436853,24.045576 23.017584,125.23065 H 139.85612 Z M 132.11489,132.97189 H 30.758819 l 50.678034,29.2589 z M 142.6896,114.65575 92.011568,26.879057 142.6896,56.137956 Z"
       id="path38935"
       style="stroke-width:1.84856;fill:#ffffff;fill-opacity:1" />
    <circle
       cx="81.436852"
       cy="16.30434"
       r="16.30434"
       id="circle38937"
       style="stroke-width:1.84856;fill:#ffffff;fill-opacity:1" />
    <circle
       cx="146.56032"
       cy="53.903408"
       r="16.30434"
       id="circle38939"
       style="stroke-width:1.84856;fill:#ffffff;fill-opacity:1" />
    <circle
       cx="146.56032"
       cy="129.10136"
       r="16.30434"
       id="circle38941"
       style="stroke-width:1.84856;fill:#ffffff;fill-opacity:1" />
    <circle
       cx="81.436852"
       cy="166.70024"
       r="16.30434"
       id="circle38943"
       style="stroke-width:1.84856;fill:#ffffff;fill-opacity:1" />
    <circle
       cx="16.30434"
       cy="129.10136"
       r="16.30434"
       id="circle38945"
       style="stroke-width:1.84856;fill:#ffffff;fill-opacity:1" />
    <circle
       cx="16.30434"
       cy="53.903408"
       r="16.30434"
       id="circle38947"
       style="stroke-width:1.84856;fill:#ffffff;fill-opacity:1" />
    <path
       d="m 233.69046,71.1241 c -5.208,0 -9.25,-1.5 -12.125,-4.5 -2.875,-3 -4.396,-7.0208 -4.562,-12.0625 -0.042,-1.25 -0.063,-3.2292 -0.063,-5.9375 0,-2.7083 0.021,-4.6875 0.063,-5.9375 0.166,-5.0417 1.687,-9.0625 4.562,-12.0625 2.875,-3 6.917,-4.5 12.125,-4.5 3.542,0 6.521,0.6667 8.938,2 2.416,1.3333 4.208,2.9167 5.375,4.75 1.208,1.7917 1.854,3.3958 1.937,4.8125 v 0.125 c 0,0.3333 -0.125,0.6042 -0.375,0.8125 -0.25,0.2083 -0.562,0.3125 -0.938,0.3125 h -1.374 c -0.375,0 -0.646,-0.0833 -0.813,-0.25 -0.167,-0.1667 -0.333,-0.5 -0.5,-1 -0.708,-2.2083 -2.083,-4.0625 -4.125,-5.5625 -2,-1.5 -4.708,-2.25 -8.125,-2.25 -3.875,0 -6.937,1.0625 -9.187,3.1875 -2.209,2.125 -3.396,5.4375 -3.563,9.9375 -0.042,1.25 -0.062,3.125 -0.062,5.625 0,2.5 0.02,4.375 0.062,5.625 0.167,4.5 1.354,7.8125 3.563,9.9375 2.25,2.125 5.312,3.1875 9.187,3.1875 3.875,0 7,-1.1042 9.375,-3.3125 2.375,-2.2083 3.562,-5.4792 3.562,-9.8125 v -3.1875 h -10.874 c -0.417,0 -0.75,-0.125 -1,-0.375 -0.25,-0.2917 -0.375,-0.6458 -0.375,-1.0625 v -0.875 c 0,-0.4167 0.125,-0.75 0.375,-1 0.25,-0.2917 0.583,-0.4375 1,-0.4375 h 13.374 c 0.459,0 0.813,0.125 1.063,0.375 0.25,0.25 0.375,0.6042 0.375,1.0625 v 5.5 c 0,3.3333 -0.667,6.2708 -2,8.8125 -1.333,2.5417 -3.271,4.5208 -5.812,5.9375 -2.542,1.4167 -5.563,2.125 -9.063,2.125 z"
       id="path38949"
       style="fill:#ffffff;fill-opacity:1" />
    <path
       d="m 260.75646,70.4991 c -0.416,0 -0.75,-0.125 -1,-0.375 -0.25,-0.25 -0.375,-0.5833 -0.375,-1 V 39.4366 c 0,-0.4167 0.125,-0.75 0.375,-1 0.25,-0.2917 0.584,-0.4375 1,-0.4375 h 1 c 0.417,0 0.75,0.1458 1,0.4375 0.292,0.25 0.438,0.5833 0.438,1 v 2.875 c 1.5,-2.875 4.333,-4.3125 8.5,-4.3125 h 2.312 c 0.417,0 0.75,0.125 1,0.375 0.25,0.25 0.375,0.5833 0.375,1 v 0.875 c 0,0.4167 -0.125,0.75 -0.375,1 -0.25,0.25 -0.583,0.375 -1,0.375 h -2.687 c -2.5,0 -4.479,0.7292 -5.938,2.1875 -1.458,1.4583 -2.187,3.4375 -2.187,5.9375 v 19.375 c 0,0.4167 -0.146,0.75 -0.438,1 -0.25,0.25 -0.583,0.375 -1,0.375 z"
       id="path38951"
       style="fill:#ffffff;fill-opacity:1" />
    <path
       d="m 289.37246,71.1241 c -2,0 -3.855,-0.4167 -5.563,-1.25 -1.708,-0.8333 -3.083,-1.9583 -4.125,-3.375 -1,-1.4167 -1.5,-2.9792 -1.5,-4.6875 0,-2.75 1.104,-5 3.313,-6.75 2.25,-1.75 5.27,-2.875 9.062,-3.375 l 9.875,-1.375 v -2.1875 c 0,-2.2917 -0.708,-4.0417 -2.125,-5.25 -1.375,-1.25 -3.5,-1.875 -6.375,-1.875 -2.125,0 -3.875,0.4167 -5.25,1.25 -1.333,0.8333 -2.187,1.8333 -2.562,3 -0.167,0.5 -0.375,0.8542 -0.625,1.0625 -0.209,0.1667 -0.5,0.25 -0.875,0.25 h -0.875 c -0.375,0 -0.709,-0.125 -1,-0.375 -0.25,-0.2917 -0.375,-0.625 -0.375,-1 0,-0.9167 0.416,-1.9792 1.25,-3.1875 0.833,-1.25 2.125,-2.3333 3.875,-3.25 1.75,-0.9167 3.895,-1.375 6.437,-1.375 4.458,0 7.625,1.0625 9.5,3.1875 1.875,2.125 2.813,4.7083 2.813,7.75 v 20.8125 c 0,0.4167 -0.125,0.75 -0.375,1 -0.25,0.25 -0.584,0.375 -1,0.375 h -1.063 c -0.417,0 -0.75,-0.125 -1,-0.375 -0.25,-0.25 -0.375,-0.5833 -0.375,-1 v -2.9375 c -0.917,1.375 -2.271,2.5417 -4.062,3.5 -1.75,0.9583 -4.084,1.4375 -7,1.4375 z m 0.625,-3.625 c 3.041,0 5.541,-1 7.5,-3 1.958,-2 2.937,-4.875 2.937,-8.625 v -2.125 l -8.062,1.125 c -3.417,0.4583 -6,1.25 -7.75,2.375 -1.75,1.125 -2.625,2.5417 -2.625,4.25 0,1.9167 0.791,3.3958 2.375,4.4375 1.625,1.0417 3.5,1.5625 5.625,1.5625 z"
       id="path38953"
       style="fill:#ffffff;fill-opacity:1" />
    <path
       d="m 315.56746,82.3741 c -0.416,0 -0.75,-0.125 -1,-0.375 -0.25,-0.25 -0.375,-0.5833 -0.375,-1 v -41.625 c 0,-0.4167 0.125,-0.75 0.375,-1 0.25,-0.25 0.584,-0.375 1,-0.375 h 1.063 c 0.417,0 0.75,0.125 1,0.375 0.25,0.25 0.375,0.5833 0.375,1 v 2.9375 c 2.417,-3.2917 5.917,-4.9375 10.5,-4.9375 4.5,0 7.812,1.4375 9.937,4.3125 2.167,2.8333 3.313,6.3333 3.438,10.5 0.042,0.4167 0.062,1.1042 0.062,2.0625 0,0.9583 -0.02,1.6458 -0.062,2.0625 -0.125,4.1667 -1.271,7.6875 -3.438,10.5625 -2.125,2.8333 -5.437,4.25 -9.937,4.25 -4.542,0 -8.042,-1.6458 -10.5,-4.9375 v 14.8125 c 0,0.4167 -0.125,0.75 -0.375,1 -0.25,0.25 -0.583,0.375 -1,0.375 z m 12.563,-14.875 c 3.375,0 5.833,-1.0625 7.375,-3.1875 1.583,-2.1667 2.437,-4.9375 2.562,-8.3125 0.042,-0.4167 0.063,-1 0.063,-1.75 0,-3.875 -0.75,-7.0417 -2.25,-9.5 -1.5,-2.5 -4.083,-3.75 -7.75,-3.75 -3.292,0 -5.771,1.1042 -7.438,3.3125 -1.666,2.1667 -2.562,4.7292 -2.687,7.6875 l -0.063,2.4375 0.063,2.4375 c 0.042,1.7917 0.437,3.5 1.187,5.125 0.75,1.5833 1.875,2.8958 3.375,3.9375 1.5,1.0417 3.355,1.5625 5.563,1.5625 z"
       id="path38955"
       style="fill:#ffffff;fill-opacity:1" />
    <path
       d="m 351.88346,70.4991 c -0.416,0 -0.75,-0.125 -1,-0.375 -0.25,-0.25 -0.375,-0.5833 -0.375,-1 v -41.625 c 0,-0.4167 0.125,-0.75 0.375,-1 0.25,-0.25 0.584,-0.375 1,-0.375 h 1.063 c 0.417,0 0.75,0.125 1,0.375 0.25,0.25 0.375,0.5833 0.375,1 v 14.8125 c 1.25,-1.625 2.667,-2.8542 4.25,-3.6875 1.625,-0.8333 3.708,-1.25 6.25,-1.25 4.083,0 7.229,1.3125 9.437,3.9375 2.209,2.5833 3.313,5.9375 3.313,10.0625 v 17.75 c 0,0.4167 -0.125,0.75 -0.375,1 -0.25,0.25 -0.583,0.375 -1,0.375 h -1.063 c -0.416,0 -0.75,-0.125 -1,-0.375 -0.25,-0.25 -0.375,-0.5833 -0.375,-1 V 51.6866 c 0,-3.375 -0.833,-6 -2.5,-7.875 -1.625,-1.875 -3.979,-2.8125 -7.062,-2.8125 -3,0 -5.396,0.9583 -7.188,2.875 -1.791,1.875 -2.687,4.4792 -2.687,7.8125 v 17.4375 c 0,0.4167 -0.125,0.75 -0.375,1 -0.25,0.25 -0.583,0.375 -1,0.375 z"
       id="path38957"
       style="fill:#ffffff;fill-opacity:1" />
    <path
       d="m 416.49746,74.5616 c -0.625,0 -1.292,-0.4792 -2,-1.4375 l -2.75,-3.8125 c -2.5,1.2083 -5.417,1.8125 -8.75,1.8125 -10.708,0 -16.208,-5.75 -16.5,-17.25 -0.042,-1.25 -0.062,-3 -0.062,-5.25 0,-2.25 0.02,-4 0.062,-5.25 0.167,-5.6667 1.708,-9.9583 4.625,-12.875 2.917,-2.9167 6.875,-4.375 11.875,-4.375 5,0 8.958,1.4583 11.875,4.375 2.917,2.9167 4.458,7.2083 4.625,12.875 0.083,2.5 0.125,4.25 0.125,5.25 0,1 -0.042,2.75 -0.125,5.25 -0.208,5.9583 -1.729,10.3333 -4.562,13.125 l 4,5.625 c 0.125,0.25 0.187,0.4792 0.187,0.6875 0,0.3333 -0.125,0.625 -0.375,0.875 -0.25,0.25 -0.542,0.375 -0.875,0.375 z m -13.5,-7.1875 c 3.75,0 6.729,-1.125 8.938,-3.375 2.25,-2.2917 3.458,-5.7708 3.625,-10.4375 0.083,-2.5 0.125,-4.1458 0.125,-4.9375 0,-0.7917 -0.042,-2.4375 -0.125,-4.9375 -0.167,-4.6667 -1.375,-8.125 -3.625,-10.375 -2.25,-2.2917 -5.23,-3.4375 -8.938,-3.4375 -3.708,0 -6.687,1.1458 -8.937,3.4375 -2.25,2.25 -3.459,5.7083 -3.625,10.375 -0.042,1.25 -0.063,2.8958 -0.063,4.9375 0,2.0417 0.021,3.6875 0.063,4.9375 0.166,4.6667 1.354,8.1458 3.562,10.4375 2.25,2.25 5.25,3.375 9,3.375 z"
       id="path38959"
       style="fill:#ffffff;fill-opacity:1" />
    <path
       d="m 430.94146,70.4991 c -0.416,0 -0.75,-0.125 -1,-0.375 -0.25,-0.25 -0.375,-0.5833 -0.375,-1 v -41 c 0,-0.4167 0.125,-0.75 0.375,-1 0.25,-0.25 0.584,-0.375 1,-0.375 h 1.188 c 0.417,0 0.75,0.125 1,0.375 0.25,0.25 0.375,0.5833 0.375,1 v 38.625 h 21.562 c 0.459,0 0.813,0.125 1.063,0.375 0.25,0.25 0.375,0.6042 0.375,1.0625 v 0.9375 c 0,0.4167 -0.146,0.75 -0.438,1 -0.25,0.25 -0.583,0.375 -1,0.375 z"
       id="path38961"
       style="fill:#ffffff;fill-opacity:1" />
    <g
       id="g39003"
       transform="matrix(1.8754199,0,0,1.8754199,181.99405,-267.54156)"
       style="fill:#ffffff;fill-opacity:1">
      <g
         aria-label="Conf"
         id="text33315"
         style="font-size:33.3333px;line-height:1.25;font-family:Rubik;-inkscape-font-specification:Rubik;display:inline;fill:#ffffff;fill-opacity:1"
         transform="translate(127.6579,11.616196)">
        <path
           d="m 39.71565,168.96505 q -3.03333,0 -4.966662,-1.16667 -1.899998,-1.2 -2.83333,-3.23333 -0.933333,-2.03333 -1.033333,-4.63333 -0.03333,-1.36666 -0.03333,-2.93333 0,-1.56666 0.03333,-3 0.1,-2.59999 1.033333,-4.63332 0.933332,-2.06667 2.83333,-3.23333 1.933332,-1.16667 4.966662,-1.16667 2.366664,0 4.03333,0.66667 1.666665,0.66666 2.699997,1.76666 1.066666,1.06667 1.566665,2.33333 0.533333,1.23333 0.6,2.43333 0.03333,0.3 -0.2,0.5 -0.2,0.16667 -0.5,0.16667 h -0.666666 q -0.266666,0 -0.466666,-0.13333 -0.2,-0.16667 -0.266666,-0.56667 -0.633333,-2.96666 -2.399998,-4.06666 -1.733332,-1.1 -4.399996,-1.1 -3.03333,0 -4.833329,1.73333 -1.766665,1.7 -1.899998,5.46666 -0.1,2.73333 0,5.6 0.133333,3.76666 1.899998,5.49999 1.799999,1.7 4.833329,1.7 2.666664,0 4.399996,-1.1 1.766665,-1.1 2.399998,-4.06666 0.06667,-0.4 0.266666,-0.53334 0.2,-0.16666 0.466666,-0.16666 h 0.666666 q 0.3,0 0.5,0.2 0.233333,0.16666 0.2,0.46666 -0.06667,1.2 -0.6,2.46667 -0.499999,1.23333 -1.566665,2.33333 -1.033332,1.06666 -2.699997,1.73333 -1.666666,0.66667 -4.03333,0.66667 z"
           id="path38751"
           style="fill:#ffffff;fill-opacity:1" />
        <path
           d="m 59.661985,168.96505 q -2.399998,0 -4.03333,-1 -1.599998,-1 -2.466664,-2.73333 -0.833332,-1.73333 -0.899999,-3.86667 -0.03333,-0.5 -0.03333,-1.39999 0,-0.9 0.03333,-1.4 0.06667,-2.16667 0.899999,-3.86667 0.866666,-1.73333 2.466664,-2.73333 1.633332,-1 4.03333,-1 2.399998,0 3.999996,1 1.633332,1 2.466664,2.73333 0.866666,1.7 0.933333,3.86667 0.03333,0.5 0.03333,1.4 0,0.89999 -0.03333,1.39999 -0.06667,2.13334 -0.933333,3.86667 -0.833332,1.73333 -2.466664,2.73333 -1.599998,1 -3.999996,1 z m 0,-1.93333 q 2.333331,0 3.799996,-1.5 1.466666,-1.5 1.566665,-4.33333 0.03333,-0.5 0.03333,-1.23333 0,-0.73334 -0.03333,-1.23334 -0.1,-2.86666 -1.566665,-4.33333 -1.466665,-1.49999 -3.799996,-1.49999 -2.333331,0 -3.799996,1.49999 -1.466666,1.46667 -1.566666,4.33333 -0.03333,0.5 -0.03333,1.23334 0,0.73333 0.03333,1.23333 0.1,2.83333 1.566666,4.33333 1.466665,1.5 3.799996,1.5 z"
           id="path38753"
           style="fill:#ffffff;fill-opacity:1" />
        <path
           d="m 72.415096,168.63171 q -0.333333,0 -0.533333,-0.2 -0.2,-0.2 -0.2,-0.53333 v -15.86665 q 0,-0.33333 0.2,-0.53333 0.2,-0.2 0.533333,-0.2 h 0.566666 q 0.333333,0 0.533333,0.2 0.2,0.2 0.2,0.53333 v 1.56666 q 0.899999,-1.16666 2.166664,-1.89999 1.299999,-0.73334 3.43333,-0.73334 2.266665,0 3.766663,1 1.533332,0.96667 2.266665,2.66667 0.766666,1.66666 0.766666,3.79999 v 9.46666 q 0,0.33333 -0.2,0.53333 -0.2,0.2 -0.533333,0.2 h -0.566666 q -0.333333,0 -0.533333,-0.2 -0.2,-0.2 -0.2,-0.53333 v -9.29999 q 0,-2.66666 -1.299998,-4.16666 -1.299999,-1.53333 -3.799997,-1.53333 -2.366664,0 -3.833329,1.53333 -1.433332,1.5 -1.433332,4.16666 v 9.29999 q 0,0.33333 -0.2,0.53333 -0.2,0.2 -0.533333,0.2 z"
           id="path38755"
           style="fill:#ffffff;fill-opacity:1" />
        <path
           d="m 93.38435,168.63171 q -0.333333,0 -0.533333,-0.2 -0.2,-0.2 -0.2,-0.53333 v -14.66665 h -2.966664 q -0.333333,0 -0.533332,-0.2 -0.2,-0.2 -0.2,-0.53333 v -0.46667 q 0,-0.33333 0.2,-0.53333 0.199999,-0.2 0.533332,-0.2 h 2.966664 v -1.9 q 0,-1.5 0.4,-2.73333 0.433333,-1.23333 1.499998,-1.96667 1.099999,-0.73333 3.133331,-0.73333 h 1.733331 q 0.333333,0 0.533333,0.2 0.2,0.2 0.2,0.53333 v 0.46667 q 0,0.33333 -0.2,0.53333 -0.2,0.2 -0.533333,0.2 h -1.733331 q -1.766665,0 -2.399998,0.96667 -0.599999,0.93333 -0.599999,2.7 v 1.73333 h 4.399995 q 0.333333,0 0.533333,0.2 0.2,0.2 0.2,0.53333 v 0.46667 q 0,0.33333 -0.2,0.53333 -0.2,0.2 -0.533333,0.2 h -4.399995 v 14.66665 q 0,0.33333 -0.2,0.53333 -0.2,0.2 -0.533333,0.2 z"
           id="path38757"
           style="fill:#ffffff;fill-opacity:1" />
      </g>
    </g>
    <path
       d="m 228.06684,129.20705 q -2.09067,0 -3.92534,-0.512 -1.83466,-0.512 -3.28533,-1.57867 -1.408,-1.06667 -2.26134,-2.688 -0.81066,-1.664 -0.896,-3.92534 0,-0.384 0.21334,-0.64 0.256,-0.29867 0.68266,-0.29867 h 0.85334 q 0.42666,0 0.64,0.256 0.256,0.256 0.29866,0.64 0.17067,2.21867 1.23734,3.58401 1.10933,1.36533 2.77333,2.00533 1.70667,0.59734 3.66934,0.59734 3.75467,0 5.67467,-2.43201 1.96267,-2.47466 1.96267,-6.35733 v -16.38402 h -15.74401 q -0.42667,0 -0.68267,-0.256 -0.256,-0.256 -0.256,-0.68266 v -0.682671 q 0,-0.426667 0.256,-0.682667 0.256,-0.256001 0.68267,-0.256001 h 17.45068 q 0.46933,0 0.72533,0.256001 0.256,0.256 0.256,0.725333 v 18.005345 q 0,3.328 -1.19467,5.88801 -1.19466,2.56 -3.49867,4.01067 -2.26133,1.408 -5.632,1.408 z"
       id="path43360"
       style="font-size:42.6667px;line-height:1.25;font-family:Rubik;-inkscape-font-specification:Rubik;fill:#ffffff;fill-opacity:1" />
    <path
       d="m 253.63819,129.20705 q -2.90133,0 -4.82133,-1.23734 -1.87734,-1.28 -2.81601,-3.456 -0.896,-2.176 -0.896,-4.864 v -12.11735 q 0,-0.42666 0.256,-0.68266 0.256,-0.256 0.68267,-0.256 h 0.72533 q 0.42667,0 0.68267,0.256 0.256,0.256 0.256,0.68266 v 11.90401 q 0,7.29601 6.35734,7.29601 3.02934,0 4.864,-1.92 1.83467,-1.96267 1.83467,-5.37601 v -11.90401 q 0,-0.42666 0.256,-0.68266 0.256,-0.256 0.68267,-0.256 h 0.72533 q 0.42667,0 0.68267,0.256 0.256,0.256 0.256,0.68266 v 20.30935 q 0,0.42667 -0.256,0.68267 -0.256,0.256 -0.68267,0.256 h -0.72533 q -0.42667,0 -0.68267,-0.256 -0.256,-0.256 -0.256,-0.68267 v -2.00533 q -1.152,1.49333 -2.77333,2.432 -1.57867,0.93867 -4.35201,0.93867 z"
       id="path43362"
       style="font-size:42.6667px;line-height:1.25;font-family:Rubik;-inkscape-font-specification:Rubik;fill:#ffffff;fill-opacity:1" />
    <path
       d="m 271.25688,128.78038 q -0.42667,0 -0.68267,-0.256 -0.256,-0.256 -0.256,-0.68267 v -20.30935 q 0,-0.42666 0.256,-0.68266 0.256,-0.256 0.68267,-0.256 h 0.72533 q 0.42667,0 0.68267,0.256 0.256,0.256 0.256,0.68266 v 2.00534 q 1.152,-1.49334 2.77333,-2.432 1.664,-0.93867 4.39467,-0.93867 2.90134,0 4.82134,1.28 1.96267,1.23734 2.90133,3.41334 0.98134,2.13333 0.98134,4.864 v 12.11734 q 0,0.42667 -0.256,0.68267 -0.256,0.256 -0.68267,0.256 h -0.72533 q -0.42667,0 -0.68267,-0.256 -0.256,-0.256 -0.256,-0.68267 V 115.9377 q 0,-3.41333 -1.664,-5.33333 -1.664,-1.96267 -4.86401,-1.96267 -3.02933,0 -4.90667,1.96267 -1.83466,1.92 -1.83466,5.33333 v 11.90401 q 0,0.42667 -0.256,0.68267 -0.256,0.256 -0.68267,0.256 z"
       id="path43364"
       style="font-size:42.6667px;line-height:1.25;font-family:Rubik;-inkscape-font-specification:Rubik;fill:#ffffff;fill-opacity:1" />
    <path
       d="m 303.71957,129.20705 q -4.13867,0 -6.57067,-2.688 -2.43201,-2.73067 -2.77334,-7.12534 -0.0427,-0.64 -0.0427,-1.70667 0,-1.06667 0.0427,-1.70667 0.21333,-2.90133 1.36534,-5.12 1.152,-2.21867 3.15733,-3.45601 2.048,-1.23733 4.82134,-1.23733 2.98667,0 5.07733,1.32267 2.09067,1.32267 3.20001,3.79733 1.152,2.47467 1.152,5.88801 v 0.64 q 0,0.42667 -0.29867,0.68267 -0.256,0.256 -0.68267,0.256 h -15.18934 q 0,0 0,0.17066 0,0.17067 0,0.256 0.0853,1.92 0.896,3.66934 0.81067,1.70667 2.304,2.816 1.49334,1.06667 3.54134,1.06667 1.83467,0 3.02933,-0.55467 1.23734,-0.55467 1.96267,-1.19467 0.72534,-0.68266 0.93867,-1.024 0.384,-0.55466 0.59733,-0.64 0.21334,-0.128 0.68267,-0.128 h 0.68267 q 0.384,0 0.64,0.256 0.29866,0.21334 0.256,0.59734 -0.0427,0.59733 -0.68267,1.49333 -0.59733,0.85334 -1.74933,1.70667 -1.10934,0.85333 -2.73067,1.408 -1.62134,0.55467 -3.62667,0.55467 z m -6.74134,-12.84268 h 13.56801 v -0.17067 q 0,-2.13333 -0.81067,-3.84 -0.81067,-1.70667 -2.34667,-2.688 -1.536,-1.024 -3.66933,-1.024 -2.13334,0 -3.66934,1.024 -1.49333,0.98133 -2.304,2.688 -0.768,1.70667 -0.768,3.84 z"
       id="path43366"
       style="font-size:42.6667px;line-height:1.25;font-family:Rubik;-inkscape-font-specification:Rubik;fill:#ffffff;fill-opacity:1" />
    <path
       d="m 332.89026,128.78038 q -0.384,0 -0.64,-0.256 -0.21334,-0.29867 -0.21334,-0.68267 0,-0.128 0.0853,-0.384 l 10.96534,-25.98402 h -14.54935 q -0.42666,0 -0.68266,-0.256 -0.256,-0.256 -0.256,-0.68266 v -0.640005 q 0,-0.469333 0.256,-0.725333 0.256,-0.256001 0.68266,-0.256001 h 16.46935 q 0.46933,0 0.72533,0.256001 0.256,0.256 0.256,0.725333 v 0.640005 q 0,0.512 -0.0853,0.85333 -0.0427,0.29867 -0.21333,0.72533 l -10.79468,25.60002 q -0.17067,0.34134 -0.42667,0.72534 -0.21333,0.34133 -0.68266,0.34133 z"
       id="path43368"
       style="font-size:42.6667px;line-height:1.25;font-family:Rubik;-inkscape-font-specification:Rubik;fill:#ffffff;fill-opacity:1" />
    <path
       d="m 349.62493,117.2177 q -0.42667,0 -0.68267,-0.256 -0.256,-0.256 -0.256,-0.68266 v -0.59734 q 0,-0.42666 0.256,-0.68266 0.256,-0.256 0.68267,-0.256 h 12.58667 q 0.42667,0 0.68267,0.256 0.256,0.256 0.256,0.68266 v 0.59734 q 0,0.42666 -0.256,0.68266 -0.256,0.256 -0.68267,0.256 z"
       id="path43370"
       style="font-size:42.6667px;line-height:1.25;font-family:Rubik;-inkscape-font-specification:Rubik;fill:#ffffff;fill-opacity:1" />
    <path
       d="m 379.46295,129.20705 q -2.176,0 -4.13867,-0.55467 -1.92,-0.59733 -3.37067,-1.70667 -1.45067,-1.152 -2.304,-2.77333 -0.81067,-1.664 -0.81067,-3.79734 0,-2.73067 1.32267,-4.608 1.32267,-1.92 3.49867,-2.944 -1.70667,-0.98134 -2.73067,-2.60267 -1.024,-1.62134 -1.024,-3.88267 0,-2.60267 1.28,-4.30934 1.28,-1.74933 3.456,-2.645335 2.176,-0.896001 4.82134,-0.896001 2.64533,0 4.82133,0.896001 2.17601,0.896005 3.45601,2.645335 1.28,1.70667 1.28,4.30934 0,2.26133 -1.024,3.88267 -1.024,1.62133 -2.73067,2.60267 2.176,1.024 3.49867,2.944 1.32267,1.87733 1.32267,4.608 0,2.85867 -1.45067,4.82134 -1.408,1.96267 -3.84,2.98667 -2.38934,1.024 -5.33334,1.024 z m 0,-2.56 q 2.21867,0 4.01067,-0.76801 1.792,-0.768 2.85867,-2.176 1.06666,-1.408 1.06666,-3.328 0,-1.96267 -1.06666,-3.328 -1.06667,-1.408 -2.85867,-2.13334 -1.792,-0.768 -4.01067,-0.768 -2.176,0 -4.01067,0.768 -1.792,0.72534 -2.85867,2.13334 -1.06667,1.36533 -1.06667,3.328 0,1.92 1.06667,3.328 1.06667,1.408 2.85867,2.176 1.83467,0.76801 4.01067,0.76801 z m 0,-15.06135 q 1.83467,-0.0427 3.37067,-0.68267 1.57866,-0.64 2.51733,-1.792 0.98134,-1.152 0.98134,-2.77333 0,-1.664 -0.93867,-2.81601 -0.896,-1.19466 -2.47467,-1.83466 -1.536,-0.64 -3.456,-0.64 -1.87734,0 -3.456,0.64 -1.57867,0.64 -2.51734,1.83466 -0.896,1.15201 -0.896,2.81601 0,1.664 0.896,2.85867 0.93867,1.152 2.51734,1.792 1.57866,0.59733 3.456,0.59733 z"
       id="path43372"
       style="font-size:42.6667px;line-height:1.25;font-family:Rubik;-inkscape-font-specification:Rubik;fill:#ffffff;fill-opacity:1" />
    <path
       d="m 395.22697,131.98038 q -0.34134,0 -0.512,-0.256 -0.128,-0.256 -0.0853,-0.64 l 0.81067,-5.12 q 0.0853,-0.512 0.29867,-0.81067 0.256,-0.34133 0.768,-0.34133 h 1.92 q 0.29867,0 0.46933,0.21333 0.17067,0.21333 0.17067,0.46933 0,0.384 -0.17067,0.76801 l -1.83467,4.82133 q -0.17066,0.42667 -0.42666,0.64 -0.21334,0.256 -0.68267,0.256 z"
       id="path43374"
       style="font-size:42.6667px;line-height:1.25;font-family:Rubik;-inkscape-font-specification:Rubik;fill:#ffffff;fill-opacity:1" />
    <path
       d="m 416.35298,128.78038 q -0.42667,0 -0.68267,-0.256 -0.256,-0.256 -0.256,-0.68267 v -0.64 q 0,-0.42666 0.21333,-0.81066 0.256,-0.42667 0.85334,-0.98134 l 11.05067,-11.05067 q 1.62134,-1.49334 2.47467,-2.60267 0.85333,-1.10934 1.152,-2.176 0.34133,-1.10934 0.34133,-2.43201 0,-2.85866 -1.664,-4.48 -1.62133,-1.62133 -4.65067,-1.62133 -1.92,0 -3.328,0.768 -1.408,0.768 -2.21867,2.176 -0.81067,1.36533 -1.06667,3.2 -0.0427,0.512 -0.384,0.768 -0.34133,0.21333 -0.59733,0.21333 h -0.85333 q -0.42667,0 -0.68267,-0.21333 -0.21333,-0.256 -0.21333,-0.59733 0.0427,-1.45067 0.59733,-2.98667 0.55467,-1.57867 1.664,-2.90134 1.152,-1.32266 2.90134,-2.133332 1.74933,-0.853334 4.18133,-0.853334 3.24267,0 5.20534,1.237335 2.00533,1.237331 2.90134,3.200001 0.896,1.96267 0.896,4.224 0,1.74934 -0.512,3.24267 -0.512,1.45067 -1.53601,2.85867 -1.024,1.36534 -2.60266,2.816 l -9.98401,10.15468 h 14.29334 q 0.46934,0 0.72534,0.256 0.256,0.256 0.256,0.72533 v 0.64 q 0,0.42667 -0.256,0.68267 -0.256,0.256 -0.72534,0.256 z"
       id="path43376"
       style="font-size:42.6667px;line-height:1.25;font-family:Rubik;-inkscape-font-specification:Rubik;fill:#ffffff;fill-opacity:1" />
    <path
       d="m 450.25367,129.20705 q -2.90133,0 -4.864,-0.93867 -1.92,-0.93867 -3.11467,-2.56 -1.152,-1.664 -1.664,-3.79734 -0.512,-2.13333 -0.59734,-4.48 0,-1.152 -0.0427,-2.34667 0,-1.19467 0,-2.38934 0.0427,-1.23733 0.0427,-2.432 0.0427,-2.34667 0.55467,-4.48 0.55467,-2.13334 1.70667,-3.75467 1.19467,-1.664 3.11467,-2.602668 1.96267,-0.938668 4.864,-0.938668 2.90134,0 4.82134,0.938668 1.96267,0.938668 3.11467,2.602668 1.19466,1.62133 1.70666,3.75467 0.55467,2.13333 0.59734,4.48 0.0427,1.19467 0.0427,2.432 0,1.19467 0,2.38934 0,1.19467 -0.0427,2.34667 -0.0427,2.34667 -0.59734,4.48 -0.512,2.13334 -1.70666,3.79734 -1.152,1.62133 -3.11467,2.56 -1.92,0.93867 -4.82134,0.93867 z m 0,-2.56 q 3.79734,0 5.632,-2.51734 1.83467,-2.51734 1.92001,-6.91201 0.0427,-1.23733 0.0427,-2.304 0,-1.10933 0,-2.176 0,-1.10933 -0.0427,-2.26133 -0.0853,-4.30934 -1.92001,-6.86934 -1.83466,-2.56 -5.632,-2.56 -3.75467,0 -5.632,2.56 -1.83467,2.56 -1.92001,6.86934 0,1.152 -0.0427,2.26133 0,1.06667 0,2.176 0.0427,1.06667 0.0427,2.304 0.0853,4.39467 1.92001,6.91201 1.87733,2.51734 5.632,2.51734 z"
       id="path43378"
       style="font-size:42.6667px;line-height:1.25;font-family:Rubik;-inkscape-font-specification:Rubik;fill:#ffffff;fill-opacity:1" />
    <path
       d="m 466.51969,128.78038 q -0.42666,0 -0.68266,-0.256 -0.256,-0.256 -0.256,-0.68267 v -0.64 q 0,-0.42666 0.21333,-0.81066 0.256,-0.42667 0.85333,-0.98134 l 11.05068,-11.05067 q 1.62133,-1.49334 2.47467,-2.60267 0.85333,-1.10934 1.152,-2.176 0.34133,-1.10934 0.34133,-2.43201 0,-2.85866 -1.664,-4.48 -1.62133,-1.62133 -4.65067,-1.62133 -1.92,0 -3.328,0.768 -1.408,0.768 -2.21867,2.176 -0.81067,1.36533 -1.06667,3.2 -0.0427,0.512 -0.384,0.768 -0.34133,0.21333 -0.59733,0.21333 h -0.85334 q -0.42666,0 -0.68266,-0.21333 -0.21334,-0.256 -0.21334,-0.59733 0.0427,-1.45067 0.59734,-2.98667 0.55466,-1.57867 1.664,-2.90134 1.152,-1.32266 2.90133,-2.133332 1.74934,-0.853334 4.18134,-0.853334 3.24267,0 5.20534,1.237335 2.00533,1.237331 2.90133,3.200001 0.896,1.96267 0.896,4.224 0,1.74934 -0.512,3.24267 -0.512,1.45067 -1.536,2.85867 -1.024,1.36534 -2.60267,2.816 l -9.984,10.15468 h 14.29334 q 0.46933,0 0.72533,0.256 0.256,0.256 0.256,0.72533 v 0.64 q 0,0.42667 -0.256,0.68267 -0.256,0.256 -0.72533,0.256 z"
       id="path43380"
       style="font-size:42.6667px;line-height:1.25;font-family:Rubik;-inkscape-font-specification:Rubik;fill:#ffffff;fill-opacity:1" />
    <path
       d="m 490.43638,128.78038 q -0.42667,0 -0.68267,-0.256 -0.256,-0.256 -0.256,-0.68267 v -0.64 q 0,-0.42666 0.21334,-0.81066 0.256,-0.42667 0.85333,-0.98134 l 11.05068,-11.05067 q 1.62133,-1.49334 2.47466,-2.60267 0.85334,-1.10934 1.152,-2.176 0.34134,-1.10934 0.34134,-2.43201 0,-2.85866 -1.664,-4.48 -1.62134,-1.62133 -4.65067,-1.62133 -1.92,0 -3.32801,0.768 -1.408,0.768 -2.21866,2.176 -0.81067,1.36533 -1.06667,3.2 -0.0427,0.512 -0.384,0.768 -0.34133,0.21333 -0.59734,0.21333 h -0.85333 q -0.42667,0 -0.68267,-0.21333 -0.21333,-0.256 -0.21333,-0.59733 0.0427,-1.45067 0.59733,-2.98667 0.55467,-1.57867 1.66401,-2.90134 1.152,-1.32266 2.90133,-2.133332 1.74934,-0.853334 4.18134,-0.853334 3.24267,0 5.20533,1.237335 2.00534,1.237331 2.90134,3.200001 0.896,1.96267 0.896,4.224 0,1.74934 -0.512,3.24267 -0.512,1.45067 -1.536,2.85867 -1.024,1.36534 -2.60267,2.816 l -9.98401,10.15468 h 14.29335 q 0.46933,0 0.72533,0.256 0.256,0.256 0.256,0.72533 v 0.64 q 0,0.42667 -0.256,0.68267 -0.256,0.256 -0.72533,0.256 z"
       id="path43382"
       style="font-size:42.6667px;line-height:1.25;font-family:Rubik;-inkscape-font-specification:Rubik;fill:#ffffff;fill-opacity:1" />
    <path
       d="m 217.65617,182.11375 q -0.34134,0 -0.59734,-0.256 -0.256,-0.256 -0.256,-0.59733 0,-0.21333 0.0853,-0.46933 L 227.6828,153.1004 q 0.17067,-0.42667 0.42667,-0.64 0.29866,-0.21334 0.81066,-0.21334 h 1.45067 q 0.512,0 0.768,0.21334 0.29867,0.21333 0.46934,0.64 l 10.79467,27.69069 q 0.0853,0.256 0.0853,0.46933 0,0.34133 -0.256,0.59733 -0.256,0.256 -0.59733,0.256 h -0.85333 q -0.42667,0 -0.64,-0.21333 -0.21334,-0.256 -0.29867,-0.42667 l -2.64534,-6.82667 h -15.10401 l -2.64533,6.82667 q -0.0427,0.17067 -0.29867,0.42667 -0.21333,0.21333 -0.64,0.21333 z m 5.46133,-10.02667 h 13.05601 l -6.528,-16.81068 z"
       id="path43384"
       style="font-size:42.6667px;line-height:1.25;font-family:Rubik;-inkscape-font-specification:Rubik;fill:#ffffff;fill-opacity:1" />
    <path
       d="m 254.97153,182.54042 q -2.90134,0 -4.82134,-1.23733 -1.87733,-1.28 -2.816,-3.45601 -0.896,-2.176 -0.896,-4.864 v -12.11734 q 0,-0.42667 0.256,-0.68267 0.256,-0.256 0.68266,-0.256 h 0.72534 q 0.42667,0 0.68267,0.256 0.256,0.256 0.256,0.68267 v 11.90401 q 0,7.296 6.35733,7.296 3.02934,0 4.86401,-1.92 1.83467,-1.96267 1.83467,-5.376 v -11.90401 q 0,-0.42667 0.256,-0.68267 0.256,-0.256 0.68266,-0.256 h 0.72534 q 0.42666,0 0.68266,0.256 0.256,0.256 0.256,0.68267 v 20.30935 q 0,0.42666 -0.256,0.68266 -0.256,0.256 -0.68266,0.256 h -0.72534 q -0.42666,0 -0.68266,-0.256 -0.256,-0.256 -0.256,-0.68266 v -2.00534 q -1.15201,1.49334 -2.77334,2.432 -1.57867,0.93867 -4.352,0.93867 z"
       id="path43386"
       style="font-size:42.6667px;line-height:1.25;font-family:Rubik;-inkscape-font-specification:Rubik;fill:#ffffff;fill-opacity:1" />
    <path
       d="m 278.69155,182.54042 q -2.21867,0 -3.84001,-0.59733 -1.57867,-0.59734 -2.60267,-1.408 -1.024,-0.85334 -1.536,-1.66401 -0.46933,-0.81066 -0.512,-1.23733 -0.0427,-0.46933 0.29867,-0.68267 0.34133,-0.256 0.64,-0.256 h 0.64 q 0.256,0 0.42667,0.0853 0.21333,0.0853 0.512,0.46933 0.55466,0.72533 1.28,1.408 0.72533,0.64 1.83467,1.024 1.152,0.384 2.85867,0.384 2.56,0 4.224,-0.98133 1.664,-0.98134 1.664,-2.90134 0,-1.19467 -0.68267,-1.92 -0.64,-0.72533 -2.21867,-1.28 -1.57866,-0.55467 -4.26667,-1.152 -2.688,-0.64 -4.13867,-1.536 -1.408,-0.896 -1.92,-2.048 -0.512,-1.19467 -0.512,-2.56001 0,-1.49333 0.85334,-2.90133 0.85333,-1.45067 2.51733,-2.34667 1.70667,-0.93867 4.26667,-0.93867 2.09067,0 3.54134,0.55467 1.49333,0.55467 2.432,1.36533 0.93867,0.76801 1.36533,1.53601 0.46934,0.768 0.512,1.23733 0.0427,0.42667 -0.256,0.68267 -0.29866,0.256 -0.68266,0.256 h -0.64 q -0.34134,0 -0.55467,-0.128 -0.21333,-0.17067 -0.384,-0.42667 -0.42667,-0.68267 -1.024,-1.28 -0.59734,-0.59733 -1.62134,-0.93867 -0.98133,-0.384 -2.688,-0.384 -2.56,0 -3.79733,1.06667 -1.23734,1.024 -1.23734,2.64533 0,0.93867 0.512,1.66401 0.512,0.68266 1.92,1.28 1.408,0.55466 4.09601,1.19466 2.73066,0.59734 4.30933,1.49334 1.57867,0.85333 2.21867,2.048 0.68267,1.19467 0.68267,2.816 0,1.70667 -0.98134,3.15734 -0.93866,1.45067 -2.85866,2.34667 -1.87734,0.85333 -4.65067,0.85333 z"
       id="path43388"
       style="font-size:42.6667px;line-height:1.25;font-family:Rubik;-inkscape-font-specification:Rubik;fill:#ffffff;fill-opacity:1" />
    <path
       d="m 300.11822,182.11375 q -2.21866,0 -3.49867,-0.93866 -1.28,-0.93867 -1.792,-2.56001 -0.512,-1.62133 -0.512,-3.62667 v -12.58667 h -3.328 q -0.42667,0 -0.68267,-0.256 -0.256,-0.256 -0.256,-0.68267 v -0.59733 q 0,-0.42667 0.256,-0.68267 0.256,-0.256 0.68267,-0.256 h 3.328 v -7.16801 q 0,-0.42666 0.256,-0.68266 0.256,-0.256 0.68267,-0.256 h 0.72533 q 0.42667,0 0.68267,0.256 0.256,0.256 0.256,0.68266 v 7.16801 h 5.29067 q 0.42667,0 0.68267,0.256 0.256,0.256 0.256,0.68267 v 0.59733 q 0,0.42667 -0.256,0.68267 -0.256,0.256 -0.68267,0.256 h -5.29067 v 12.41601 q 0,2.26133 0.72534,3.54133 0.768,1.28 2.688,1.28 h 2.304 q 0.42667,0 0.68267,0.256 0.256,0.25601 0.256,0.68267 v 0.59734 q 0,0.42666 -0.256,0.68266 -0.256,0.256 -0.68267,0.256 z"
       id="path43390"
       style="font-size:42.6667px;line-height:1.25;font-family:Rubik;-inkscape-font-specification:Rubik;fill:#ffffff;fill-opacity:1" />
    <path
       d="m 308.92357,182.11375 q -0.42667,0 -0.68267,-0.256 -0.256,-0.256 -0.256,-0.68266 v -20.30935 q 0,-0.42667 0.256,-0.68267 0.256,-0.256 0.68267,-0.256 h 0.72533 q 0.42667,0 0.68267,0.256 0.256,0.256 0.256,0.68267 v 20.30935 q 0,0.42666 -0.256,0.68266 -0.256,0.256 -0.68267,0.256 z m -0.46933,-26.75202 q -0.42667,0 -0.68267,-0.256 -0.256,-0.256 -0.256,-0.68266 v -1.62134 q 0,-0.42667 0.256,-0.68267 0.256,-0.29866 0.68267,-0.29866 h 1.62133 q 0.42667,0 0.68267,0.29866 0.29866,0.256 0.29866,0.68267 v 1.62134 q 0,0.42666 -0.29866,0.68266 -0.256,0.256 -0.68267,0.256 z"
       id="path43392"
       style="font-size:42.6667px;line-height:1.25;font-family:Rubik;-inkscape-font-specification:Rubik;fill:#ffffff;fill-opacity:1" />
    <path
       d="m 318.42358,182.11375 q -0.42667,0 -0.68267,-0.256 -0.256,-0.256 -0.256,-0.68266 v -20.30935 q 0,-0.42667 0.256,-0.68267 0.256,-0.256 0.68267,-0.256 h 0.72533 q 0.42667,0 0.68267,0.256 0.256,0.256 0.256,0.68267 v 2.00533 q 1.152,-1.49333 2.77333,-2.432 1.66401,-0.93867 4.39467,-0.93867 2.90134,0 4.82134,1.28 1.96267,1.23734 2.90134,3.41334 0.98133,2.13333 0.98133,4.864 v 12.11735 q 0,0.42666 -0.256,0.68266 -0.256,0.256 -0.68267,0.256 h -0.72533 q -0.42667,0 -0.68267,-0.256 -0.256,-0.256 -0.256,-0.68266 v -11.90401 q 0,-3.41334 -1.664,-5.33334 -1.664,-1.96267 -4.864,-1.96267 -3.02934,0 -4.90667,1.96267 -1.83467,1.92 -1.83467,5.33334 v 11.90401 q 0,0.42666 -0.256,0.68266 -0.256,0.256 -0.68267,0.256 z"
       id="path43394"
       style="font-size:42.6667px;line-height:1.25;font-family:Rubik;-inkscape-font-specification:Rubik;fill:#ffffff;fill-opacity:1" />
    <path
       d="m 342.31026,185.31376 q -0.34134,0 -0.512,-0.256 -0.128,-0.256 -0.0853,-0.64 l 0.81067,-5.12001 q 0.0853,-0.512 0.29867,-0.81067 0.256,-0.34133 0.768,-0.34133 h 1.92 q 0.29867,0 0.46933,0.21333 0.17067,0.21334 0.17067,0.46934 0,0.384 -0.17067,0.768 l -1.83467,4.82134 q -0.17066,0.42666 -0.42666,0.64 -0.21334,0.256 -0.68267,0.256 z"
       id="path43396"
       style="font-size:42.6667px;line-height:1.25;font-family:Rubik;-inkscape-font-specification:Rubik;fill:#ffffff;fill-opacity:1" />
    <path
       d="m 370.67295,182.11375 q -0.42667,0 -0.68267,-0.256 -0.256,-0.256 -0.256,-0.68266 v -26.36802 h -8.448 q -0.42667,0 -0.68267,-0.256 -0.256,-0.256 -0.256,-0.68267 v -0.64 q 0,-0.46934 0.256,-0.72534 0.256,-0.256 0.68267,-0.256 h 19.54135 q 0.46933,0 0.72533,0.256 0.256,0.256 0.256,0.72534 v 0.64 q 0,0.42667 -0.256,0.68267 -0.256,0.256 -0.72533,0.256 h -8.40534 v 26.36802 q 0,0.42666 -0.256,0.68266 -0.256,0.256 -0.72534,0.256 z"
       id="path43398"
       style="font-size:42.6667px;line-height:1.25;font-family:Rubik;-inkscape-font-specification:Rubik;fill:#ffffff;fill-opacity:1" />
    <path
       d="m 385.07896,182.11375 q -0.34133,0 -0.59733,-0.256 -0.256,-0.256 -0.256,-0.59733 0,-0.17067 0.0427,-0.29867 0.0853,-0.17066 0.128,-0.256 l 9.94134,-13.78134 -9.55734,-13.26934 q -0.17066,-0.256 -0.17066,-0.55467 0,-0.34134 0.256,-0.59734 0.256,-0.256 0.59733,-0.256 h 1.024 q 0.29867,0 0.512,0.17067 0.256,0.128 0.46934,0.46933 l 8.576,11.94668 8.40534,-11.94668 q 0.21333,-0.34133 0.42667,-0.46933 0.256,-0.17067 0.55467,-0.17067 h 0.93866 q 0.34134,0 0.59734,0.256 0.256,0.256 0.256,0.59734 0,0.29867 -0.17067,0.55467 l -9.42934,13.35467 9.89867,13.69601 q 0.0853,0.0853 0.128,0.256 0.0427,0.128 0.0427,0.29867 0,0.34133 -0.256,0.59733 -0.256,0.256 -0.59733,0.256 h -1.024 q -0.29867,0 -0.55467,-0.17066 -0.21334,-0.17067 -0.42667,-0.46934 l -8.91734,-12.33067 -8.91734,12.33067 q -0.21333,0.29867 -0.46933,0.46934 -0.21334,0.17066 -0.512,0.17066 z"
       id="path43400"
       style="font-size:42.6667px;line-height:1.25;font-family:Rubik;-inkscape-font-specification:Rubik;fill:#ffffff;fill-opacity:1" />
  </g>
</svg>
