<?xml version="1.0" encoding="UTF-8"?>
<svg xmlns="http://www.w3.org/2000/svg" xmlns:xlink="http://www.w3.org/1999/xlink" viewBox="0 0 400 200">
  <defs>
    <style>
      .cls-1 {
        stroke: rgba(214, 66, 146, .325604);
        stroke-width: 3.7971041px;
      }

      .cls-1, .cls-2, .cls-3, .cls-4, .cls-5, .cls-6, .cls-7, .cls-8, .cls-9, .cls-10, .cls-11, .cls-12, .cls-13, .cls-14, .cls-15, .cls-16, .cls-17, .cls-18, .cls-19, .cls-20, .cls-21, .cls-22, .cls-23, .cls-24, .cls-25, .cls-26 {
        fill: #d64292;
      }

      .cls-1, .cls-2, .cls-3, .cls-4, .cls-5, .cls-6, .cls-7, .cls-9, .cls-10, .cls-11, .cls-12, .cls-13, .cls-14, .cls-15, .cls-16, .cls-17, .cls-18, .cls-19, .cls-20, .cls-21, .cls-22, .cls-23, .cls-24, .cls-25, .cls-26 {
        stroke-linecap: round;
      }

      .cls-27, .cls-28 {
        fill: none;
      }

      .cls-2 {
        stroke: rgba(214, 66, 146, .424178);
      }

      .cls-2, .cls-5, .cls-12 {
        stroke-width: 4.2700606px;
      }

      .cls-3 {
        stroke: rgba(214, 66, 146, .479142);
      }

      .cls-3, .cls-13, .cls-14, .cls-18 {
        stroke-width: 3.5976916px;
      }

      .cls-4 {
        stroke: rgba(214, 66, 146, .248799);
        stroke-width: 3.075162px;
      }

      .cls-5 {
        stroke: rgba(214, 66, 146, .421398);
      }

      .cls-29 {
        clip-path: url(#clippath);
      }

      .cls-6 {
        stroke: rgba(214, 66, 146, .252953);
        stroke-width: 2.6430413px;
      }

      .cls-7 {
        stroke: rgba(214, 66, 146, .248208);
        stroke-width: 3.065593px;
      }

      .cls-30 {
        fill: #fff;
      }

      .cls-31 {
        fill: rgba(214, 66, 146, .5);
      }

      .cls-9 {
        stroke: rgba(214, 66, 146, .278363);
        stroke-width: 3.4220916px;
      }

      .cls-10 {
        stroke: rgba(214, 66, 146, .368023);
        stroke-width: 4.1512278px;
      }

      .cls-11 {
        stroke: rgba(214, 66, 146, .22);
        stroke-width: 1.5804891px;
      }

      .cls-12 {
        stroke: rgba(214, 66, 146, .419731);
      }

      .cls-13 {
        stroke: rgba(214, 66, 146, .479241);
      }

      .cls-32 {
        fill: url(#linear-gradient);
        mix-blend-mode: multiply;
        opacity: .2;
      }

      .cls-33 {
        clip-path: url(#clippath-4);
      }

      .cls-34 {
        clip-path: url(#clippath-7);
      }

      .cls-35 {
        clip-path: url(#clippath-6);
      }

      .cls-36 {
        clip-path: url(#clippath-5);
      }

      .cls-37 {
        clip-path: url(#clippath-9);
      }

      .cls-28 {
        stroke: #fff;
        stroke-miterlimit: 10;
        stroke-width: 1.4254036px;
      }

      .cls-38 {
        fill: url(#radial-gradient-3);
      }

      .cls-39 {
        fill: url(#radial-gradient-2);
      }

      .cls-14 {
        stroke: rgba(214, 66, 146, .460508);
      }

      .cls-15 {
        stroke: rgba(214, 66, 146, .281435);
        stroke-width: 3.4497065px;
      }

      .cls-16 {
        stroke: rgba(214, 66, 146, .258584);
        stroke-width: 2.7065756px;
      }

      .cls-40 {
        opacity: .44;
      }

      .cls-17 {
        stroke: rgba(214, 66, 146, .228611);
        stroke-width: 2.6540205px;
      }

      .cls-18 {
        stroke: rgba(214, 66, 146, .496627);
      }

      .cls-41 {
        fill: url(#radial-gradient);
      }

      .cls-19 {
        stroke: rgba(214, 66, 146, .162584);
        stroke-width: 1.2975629px;
      }

      .cls-20 {
        stroke: rgba(214, 66, 146, .277868);
        stroke-width: 2.8795058px;
      }

      .cls-21 {
        stroke: rgba(214, 66, 146, .237965);
        stroke-width: 1.2525401px;
      }

      .cls-42 {
        isolation: isolate;
      }

      .cls-22 {
        stroke: rgba(214, 66, 146, .24);
        stroke-width: 1.9488242px;
      }

      .cls-23 {
        stroke: rgba(214, 66, 146, .220117);
        stroke-width: 1.8556396px;
      }

      .cls-24 {
        stroke: rgba(214, 66, 146, .13445);
        stroke-width: 1.0865154px;
      }

      .cls-25 {
        stroke: rgba(214, 66, 146, .277324);
        stroke-width: 3.4125745px;
      }

      .cls-26 {
        stroke: rgba(214, 66, 146, .326601);
        stroke-width: 3.2055755px;
      }
    </style>
    <clipPath id="clippath">
      <rect class="cls-27" x="-1559.3708483" y="-2345.7093173" width="2415.7352436" height="520.8333607"/>
    </clipPath>
    <clipPath id="clippath-1">
      <rect class="cls-27" x="934.6691538" y="-961.0901796" width="1615.3615075" height="415.5915256"/>
    </clipPath>
    <clipPath id="clippath-2">
      <rect class="cls-27" x="938.5187814" y="-1684.2063778" width="1276.8848328" height="241.7325139"/>
    </clipPath>
    <clipPath id="clippath-3">
      <rect class="cls-27" x="937.5603635" y="-459.6597927" width="613.0190762" height="222.046371"/>
    </clipPath>
    <clipPath id="clippath-4">
      <rect class="cls-27" x="-1570.8492188" y="-1756.993144" width="1233.59131" height="542.7319307"/>
    </clipPath>
    <clipPath id="clippath-5">
      <rect class="cls-27" x="-1574.2324017" y="-22.6895763" width="1231.6239727" height="651.2729604"/>
    </clipPath>
    <radialGradient id="radial-gradient" cx="34.4199099" cy="1422.0611502" fx="7385.1117709" fy="1212.0614949" r="7353.690957" gradientUnits="userSpaceOnUse">
      <stop offset="0" stop-color="#d64292"/>
      <stop offset=".1034364" stop-color="#a9377c"/>
      <stop offset=".2301812" stop-color="#782d66"/>
      <stop offset=".3564638" stop-color="#512453"/>
      <stop offset=".4798747" stop-color="#321d44"/>
      <stop offset=".5996397" stop-color="#1b183a"/>
      <stop offset=".7140882" stop-color="#0e1534"/>
      <stop offset=".8174306" stop-color="#0a1432"/>
    </radialGradient>
    <clipPath id="clippath-6">
      <polygon class="cls-27" points="-508.2378149 807.6669365 -1565.9485081 807.0200204 -1565.3015921 710.7616082 -507.5908989 711.4085242 -508.2378149 807.6669365"/>
    </clipPath>
    <radialGradient id="radial-gradient-2" cx="44.1684292" cy="1541.0311119" fx="5094.4012105" fy="1396.7525647" r="5052.2932856" xlink:href="#radial-gradient"/>
    <linearGradient id="linear-gradient" x1="-92.2135063" y1="-145.0284701" x2="-1445.727472" y2="794.1503273" gradientUnits="userSpaceOnUse">
      <stop offset="0" stop-color="#fff"/>
      <stop offset=".107767" stop-color="#e9e9e9"/>
      <stop offset=".3315481" stop-color="#b2b2b2"/>
      <stop offset=".649111" stop-color="#5b5a59"/>
      <stop offset=".8556058" stop-color="#1f1e1d"/>
    </linearGradient>
    <clipPath id="clippath-7">
      <rect class="cls-27" x="-1562.2400729" y="-1146.1742876" width="1038.3369181" height="1054.0128656"/>
    </clipPath>
    <radialGradient id="radial-gradient-3" cx="426.3835035" cy="585.4348061" fx="6619.6264066" fy="408.5019541" r="6195.7697578" xlink:href="#radial-gradient"/>
    <clipPath id="clippath-8">
      <rect class="cls-27" x="928.7395402" y="-3250.9723959" width="2413.3284704" height="1222.2170365"/>
    </clipPath>
    <clipPath id="clippath-9">
      <rect class="cls-27" x="750.2042217" y="190.9561726" width="2413.3284704" height="774.7990798"/>
    </clipPath>
  </defs>
  <g class="cls-42">
    <g id="BG">
      <g class="cls-29">
        <g>
          <circle class="cls-8" cx="181.075149" cy="108.8589914" r="24.9285717" transform="translate(-18.3659729 178.5850877) rotate(-50.2835028)"/>
          <circle class="cls-8" cx="392.7204276" cy="122.3011436" r="19.8129054" transform="translate(28.5451822 313.5164531) rotate(-45)"/>
          <circle class="cls-8" cx="89.6489337" cy="97.0821422" r="15.7053781" transform="translate(-40.528758 74.374385) rotate(-37.3846483)"/>
          <line class="cls-1" x1="181.0751842" y1="108.8589481" x2="166.155482" y2="289.7726254"/>
          <line class="cls-10" x1="170.733" y1="261.4493256" x2="181.0751842" y2="108.8589481"/>
          <line class="cls-2" x1="129.3434611" y1="-40.071985" x2="-102.8279761" y2="4.0333038"/>
          <line class="cls-22" x1="392.7203842" y1="122.3011869" x2="170.733" y2="261.4493256"/>
          <line class="cls-15" x1="129.3434611" y1="-40.071985" x2="392.7203842" y2="122.3011869"/>
          <line class="cls-5" x1="392.7203842" y1="122.3011869" x2="207.8740421" y2="271.9579275"/>
          <line class="cls-19" x1="392.7203842" y1="122.3011869" x2="-43.5980842" y2="24.5167566"/>
          <line class="cls-7" x1="207.8740421" y1="271.9579275" x2="-43.5980842" y2="24.5167566"/>
          <line class="cls-17" x1="89.648977" y1="97.0821025" x2="-43.5980842" y2="24.5167566"/>
          <line class="cls-25" x1="89.648977" y1="97.0821025" x2="-76.4177897" y2="5.4853007"/>
          <line class="cls-9" x1="89.648977" y1="97.0821025" x2="442.3257697" y2="72.2518468"/>
          <path class="cls-31" d="M19.7577601,113.6755351c0-4.7538336,3.8536163-8.6072765,8.6074499-8.6072765,4.7536602,0,8.6072765,3.853443,8.6072765,8.6072765,0,4.7538336-3.8536163,8.6074499-8.6072765,8.6074499-4.7538336,0-8.6074499-3.8536163-8.6074499-8.6074499Z"/>
          <path class="cls-31" d="M234.8138191,132.6218752c0-4.4478672,3.6055495-8.0532433,8.0532433-8.0532433,4.4478672,0,8.0534023,3.6053762,8.0534023,8.0532433,0,4.4476808-3.6055351,8.0532433-8.0534023,8.0532433-4.4476938,0-8.0532433-3.6055625-8.0532433-8.0532433Z"/>
          <path class="cls-31" d="M107.6066903,47.3614379c0-3.0669447,2.4860239-5.5529866,5.5531599-5.5529866,3.0669447,0,5.5529866,2.4860419,5.5529866,5.5529866s-2.4860419,5.5531599-5.5529866,5.5531599c-3.067136,0-5.5531599-2.4860419-5.5531599-5.5531599Z"/>
        </g>
      </g>
      <g class="cls-33">
        <g>
          <path class="cls-31" d="M11.0841779,188.773275c0-1.9945,1.6168397-3.6111905,3.6111905-3.6111905,1.9945,0,3.6113396,1.6166905,3.6113396,3.6111905,0,1.9945-1.6168397,3.6111905-3.6113396,3.6111905-1.9943508,0-3.6111905-1.6166905-3.6111905-3.6111905Z"/>
          <path class="cls-31" d="M69.7284736,204.9242025c0-4.4985134,3.6468385-8.145352,8.1453518-8.145352,4.4986559,0,8.1454945,3.6468386,8.1454945,8.145352,0,4.4986804-3.6468386,8.1455189-8.1454945,8.1455189-4.4985133,0-8.1453518-3.6468385-8.1453518-8.1455189Z"/>
        </g>
      </g>
      <g class="cls-36">
        <rect id="BG-2" data-name="BG" class="cls-41" x="-2476.2954499" y="-1760.0170736" width="2533.3469488" height="3212.9916871"/>
        <g>
          <line class="cls-11" x1="74.1206185" y1="398.8026364" x2="-120.0473889" y2="5.2742072"/>
          <line class="cls-12" x1="63.5733589" y1="-135.1251903" x2="-120.0473889" y2="5.2742072"/>
          <line class="cls-4" x1="100.4070322" y1="-237.9052828" x2="-32.9596453" y2="94.603913"/>
          <line class="cls-24" x1="37.0778825" y1="446.8407471" x2="-333.8277493" y2="132.4794323"/>
        </g>
        <rect class="cls-27" x="-2447.1545991" y="-584.993089" width="2467.1338457" height="1291.3604159"/>
      </g>
      <g class="cls-35">
        <rect id="BG-3" data-name="BG" class="cls-39" x="-1680.7980438" y="-645.1897312" width="1740.5153214" height="2207.4596855"/>
        <g>
          <circle class="cls-8" cx="355.9552493" cy="253.1236747" r="21.2085156"/>
          <line class="cls-21" x1="173.7427853" y1="-56.4411181" x2="-96.6130572" y2="90.0977635"/>
          <circle class="cls-31" cx="308.4644637" cy="23.8837245" r="8.7212516" transform="translate(214.3486596 318.6089746) rotate(-76.7174002)"/>
          <circle class="cls-31" cx="296.0783788" cy="2.2916767" r="6.9228136"/>
          <circle class="cls-31" cx="281.7325312" cy="111.0150496" r="8.9472836" transform="translate(-21.0380127 116.2646298) rotate(-22.4999509)"/>
          <path class="cls-31" d="M133.7107339,90.6256152c0-3.3953062,2.7524038-6.1478291,6.1478291-6.1478291,3.3953062,0,6.14771,2.7525229,6.14771,6.1478291,0,3.3953062-2.7524038,6.1478291-6.14771,6.1478291-3.3954253,0-6.1478291-2.7525229-6.1478291-6.1478291Z"/>
          <circle class="cls-31" cx="297.859134" cy="28.2259362" r="8.834106" transform="translate(201.9546377 311.6321725) rotate(-76.7175499)"/>
          <circle class="cls-31" cx="153.42097" cy="176.3487601" r="7.5154558"/>
        </g>
        <rect class="cls-32" x="-1566.2324178" y="-70.6894796" width="1676.6402737" height="733.5217241"/>
      </g>
      <g class="cls-34">
        <rect id="BG-4" data-name="BG" class="cls-38" x="-1688.9915357" y="-2095.589477" width="2134.4430304" height="2707.0700745"/>
        <g>
          <circle class="cls-8" cx="5.0888152" cy="257.5631378" r="15.8267888" transform="translate(-247.2576392 205.7371504) rotate(-77.2623064)"/>
          <circle class="cls-8" cx="34.8092439" cy="237.1282833" r="20.3772728"/>
          <circle class="cls-8" cx="353.2080765" cy="7.8115288" r="11.557234" transform="translate(97.9286655 252.0437699) rotate(-45)"/>
          <line class="cls-14" x1="-41.9401729" y1="130.9963718" x2="5.0887747" y2="257.5631013"/>
          <line class="cls-13" x1="34.8092458" y1="237.1282833" x2="5.0887747" y2="257.5631013"/>
          <line class="cls-16" x1="34.8092458" y1="237.1282833" x2="309.9280444" y2="331.5926703"/>
          <line class="cls-26" x1="34.8092458" y1="237.1282833" x2="127.9713917" y2="474.1080001"/>
          <line class="cls-3" x1="34.8092458" y1="237.1282833" x2="-34.5612862" y2="238.4594361"/>
          <line class="cls-6" x1="127.9713917" y1="474.1080001" x2="-34.5612862" y2="238.4594361"/>
          <line class="cls-23" x1="353.20804" y1="7.8115653" x2="309.9280444" y2="331.5926703"/>
          <line class="cls-18" x1="302.9915606" y1="-151.7818941" x2="353.20804" y2="7.8115653"/>
          <line class="cls-20" x1="428.6229485" y1="-272.7361359" x2="353.20804" y2="7.8115653"/>
          <circle class="cls-31" cx="228.5016237" cy="200.6837008" r="5.9288446"/>
        </g>
      </g>
      <g class="cls-37">
        <g class="cls-40">
          <path class="cls-31" d="M399.5539448,124.9733625c0-5.4984949,4.4574219-9.9559169,9.9557496-9.9559169,5.4984948,0,9.9559167,4.457422,9.9559167,9.9559169,0,5.4984949-4.4574219,9.9559169-9.9559167,9.9559169-5.4983277,0-9.9557496-4.457422-9.9557496-9.9559169Z"/>
        </g>
      </g>
    </g>
    <g id="AW">
      <g>
        <g>
          <g>
            <path class="cls-30" d="M40.4610498,63.7720325c-.6904297-1.2714844-1.6806641-2.2431641-2.9707031-2.9160156-1.2900391-.671875-2.8066406-1.0078125-4.5507812-1.0078125-3.0166016,0-5.4326172,.9902344-7.2490234,2.9697266-1.8183594,1.9814453-2.7255859,4.625-2.7255859,7.9306641,0,3.5253906,.9541016,6.2783203,2.8613281,8.2578125,1.9082031,1.9814453,4.5322266,2.9707031,7.8759766,2.9707031,2.2890625,0,4.2246094-.5810547,5.8046875-1.7441406,1.5810547-1.1621094,2.734375-2.8339844,3.4619141-5.0146484h-11.828125v-6.8671875h20.2763672v8.6660156c-.6904297,2.3261719-1.8623047,4.4882812-3.515625,6.4863281-1.6542969,1.9990234-3.7529297,3.6162109-6.2958984,4.8505859-2.5439453,1.2363281-5.4150391,1.8535156-8.6113281,1.8535156-3.7802734,0-7.1503906-.8261719-10.1113281-2.4794922-2.9619141-1.6533203-5.2695312-3.9521484-6.921875-6.8955078-1.6542969-2.9433594-2.4804688-6.3037109-2.4804688-10.0839844,0-3.7783203,.8261719-7.1484375,2.4804688-10.1103516,1.6523438-2.9609375,3.9511719-5.2685547,6.8945312-6.9228516,2.9433594-1.6523438,6.3037109-2.4794922,10.0839844-2.4794922,4.578125,0,8.4384766,1.1083984,11.5820312,3.3251953,3.1425781,2.2167969,5.2236328,5.2871094,6.2412109,9.2109375h-10.3017578Z"/>
            <path class="cls-30" d="M70.003042,60.6382434c1.6347656-.9628906,3.4521484-1.4443359,5.4501953-1.4443359v9.8652344h-2.5615234c-2.3251953,0-4.0703125,.5-5.2324219,1.4990234-1.1630859,1-1.7441406,2.7529297-1.7441406,5.2597656v14.1171875h-9.3203125v-30.4140625h9.3203125v5.0683594c1.0898438-1.6708984,2.453125-2.9882812,4.0878906-3.9511719Z"/>
            <path class="cls-30" d="M79.8419092,66.4429309c1.1796875-2.3613281,2.7880859-4.1777344,4.8232422-5.4501953,2.0351562-1.2714844,4.3056641-1.9082031,6.8134766-1.9082031,2.1435547,0,4.0244141,.4365234,5.6416016,1.3085938,1.6162109,.8720703,2.8613281,2.0166016,3.7333984,3.4335938v-4.3056641h9.3203125v30.4140625h-9.3203125v-4.3056641c-.9091797,1.4169922-2.171875,2.5615234-3.7880859,3.4335938-1.6171875,.8720703-3.4980469,1.3085938-5.6416016,1.3085938-2.4716797,0-4.7236328-.6455078-6.7587891-1.9355469-2.0351562-1.2890625-3.6435547-3.125-4.8232422-5.5048828-1.1816406-2.3798828-1.7714844-5.1318359-1.7714844-8.2578125,0-3.125,.5898438-5.8681641,1.7714844-8.2304688Zm19.0771484,2.7802734c-1.2910156-1.3447266-2.8623047-2.0175781-4.7148438-2.0175781-1.8535156,0-3.4257812,.6640625-4.7148438,1.9902344-1.2910156,1.3261719-1.9355469,3.1523438-1.9355469,5.4775391,0,2.3261719,.6445312,4.1699219,1.9355469,5.5322266,1.2890625,1.3632812,2.8613281,2.0439453,4.7148438,2.0439453,1.8525391,0,3.4238281-.671875,4.7148438-2.0166016,1.2890625-1.34375,1.9345703-3.1787109,1.9345703-5.5048828,0-2.3251953-.6455078-4.1601562-1.9345703-5.5048828Z"/>
            <path class="cls-30" d="M130.0137842,60.3931262c1.5976562-.8720703,3.46875-1.3085938,5.6132812-1.3085938,2.5078125,0,4.7773438,.6367188,6.8144531,1.9082031,2.0332031,1.2724609,3.6425781,3.0888672,4.8222656,5.4501953,1.1816406,2.3623047,1.7714844,5.1054688,1.7714844,8.2304688,0,3.1259766-.5898438,5.8779297-1.7714844,8.2578125-1.1796875,2.3798828-2.7890625,4.2158203-4.8222656,5.5048828-2.0371094,1.2900391-4.3066406,1.9355469-6.8144531,1.9355469-2.1074219,0-3.9707031-.4365234-5.5859375-1.3085938-1.6181641-.8720703-2.8808594-1.9980469-3.7890625-3.3798828v18.7509766h-9.3203125V59.5210559h9.3203125v4.3056641c.9082031-1.4169922,2.1621094-2.5615234,3.7617188-3.4335938Zm7.6035156,8.8027344c-1.2910156-1.3261719-2.8808594-1.9902344-4.7695312-1.9902344-1.8535156,0-3.4257812,.6728516-4.7148438,2.0175781-1.2900391,1.3447266-1.9345703,3.1796875-1.9345703,5.5048828,0,2.3261719,.6445312,4.1611328,1.9345703,5.5048828,1.2890625,1.3447266,2.8613281,2.0166016,4.7148438,2.0166016s3.4335938-.6806641,4.7421875-2.0439453c1.3085938-1.3623047,1.9609375-3.2060547,1.9609375-5.5322266,0-2.3251953-.6445312-4.1513672-1.9335938-5.4775391Z"/>
            <path class="cls-30" d="M181.0294092,62.654845c2.1074219,2.3076172,3.1611328,5.4775391,3.1611328,9.5117188v17.7685547h-9.265625v-16.515625c0-2.0341797-.5273438-3.6152344-1.5810547-4.7421875-1.0537109-1.125-2.4707031-1.6894531-4.2509766-1.6894531-1.78125,0-3.1982422,.5644531-4.2519531,1.6894531-1.0537109,1.1269531-1.5800781,2.7080078-1.5800781,4.7421875v16.515625h-9.3212891V49.6001575h9.3212891v14.0087891c.9443359-1.34375,2.234375-2.4160156,3.8701172-3.2158203,1.6347656-.7988281,3.46875-1.1992188,5.5048828-1.1992188,3.4882812,0,6.2861328,1.1533203,8.3935547,3.4609375Z"/>
            <path class="cls-30" d="M217.9307764,96.4761341l-4.90625-6.5957031c-1.453125,.2910156-2.8701172,.4365234-4.2509766,.4365234-3.5976562,0-6.8955078-.8359375-9.8925781-2.5078125-2.9980469-1.6708984-5.3789062-4.0058594-7.140625-7.0039062-1.7626953-2.9980469-2.6435547-6.3681641-2.6435547-10.1103516s.8808594-7.1044922,2.6435547-10.0839844c1.7617188-2.9794922,4.1425781-5.3046875,7.140625-6.9765625,2.9970703-1.6708984,6.2949219-2.5078125,9.8925781-2.5078125s6.8945312,.8369141,9.8925781,2.5078125c2.9980469,1.671875,5.359375,3.9970703,7.0859375,6.9765625,1.7255859,2.9794922,2.5888672,6.3417969,2.5888672,10.0839844,0,3.2695312-.6630859,6.2587891-1.9892578,8.9658203-1.3271484,2.7070312-3.1708984,4.9511719-5.5322266,6.7314453l8.3935547,10.0839844h-11.2822266Zm-16.5429688-17.6875c1.8339844,2.0166016,4.296875,3.0253906,7.3857422,3.0253906,3.0517578,0,5.4951172-1.0175781,7.3310547-3.0527344,1.8339844-2.0341797,2.7519531-4.7236328,2.7519531-8.0664062,0-3.3798828-.9179688-6.078125-2.7519531-8.0947266-1.8359375-2.0166016-4.2792969-3.0253906-7.3310547-3.0253906-3.0888672,0-5.5517578,1-7.3857422,2.9980469-1.8349609,1.9990234-2.7529297,4.7060547-2.7529297,8.1220703,0,3.3789062,.9179688,6.0771484,2.7529297,8.09375Z"/>
            <path class="cls-30" d="M242.9483545,82.7407825h12.2089844v7.1943359h-21.5302734V51.6714466h9.3212891v31.0693359Z"/>
            <path class="cls-30" d="M260.4991357,60.6382434c1.6347656-2.9609375,3.9150391-5.2685547,6.8398438-6.9228516,2.9248047-1.6523438,6.2412109-2.4794922,9.9472656-2.4794922,4.5419922,0,8.4296875,1.1992188,11.6650391,3.5976562,3.2333984,2.3974609,5.3955078,5.6679688,6.4853516,9.8105469h-10.2470703c-.7626953-1.5986328-1.8447266-2.8154297-3.2431641-3.6513672s-2.9892578-1.2539062-4.7685547-1.2539062c-2.8710938,0-5.1972656,1-6.9775391,2.9980469s-2.6699219,4.6689453-2.6699219,8.0117188c0,3.34375,.8896484,6.0146484,2.6699219,8.0126953,1.7802734,1.9990234,4.1064453,2.9980469,6.9775391,2.9980469,1.7792969,0,3.3701172-.4169922,4.7685547-1.2539062,1.3984375-.8349609,2.4804688-2.0527344,3.2431641-3.6513672h10.2470703c-1.0898438,4.1416016-3.2519531,7.4042969-6.4853516,9.7832031-3.2353516,2.3808594-7.1230469,3.5703125-11.6650391,3.5703125-3.7060547,0-7.0224609-.8261719-9.9472656-2.4794922s-5.2050781-3.9521484-6.8398438-6.8955078c-1.6357422-2.9433594-2.453125-6.3037109-2.453125-10.0839844,0-3.7783203,.8173828-7.1484375,2.453125-10.1103516Z"/>
            <path class="cls-30" d="M306.9649561,88.4634387c-2.3808594-1.2714844-4.2519531-3.0878906-5.6142578-5.4501953-1.3632812-2.3623047-2.0439453-5.1240234-2.0439453-8.2851562,0-3.125,.6894531-5.8779297,2.0712891-8.2578125,1.3798828-2.3798828,3.2705078-4.2050781,5.6679688-5.4775391,2.3984375-1.2714844,5.0869141-1.9082031,8.0673828-1.9082031,2.9794922,0,5.6689453,.6367188,8.0664062,1.9082031,2.3984375,1.2724609,4.2880859,3.0976562,5.6689453,5.4775391s2.0712891,5.1328125,2.0712891,8.2578125-.7001953,5.8779297-2.0986328,8.2578125c-1.3994141,2.3798828-3.3066406,4.2060547-5.7226562,5.4775391-2.4169922,1.2724609-5.1152344,1.9082031-8.0947266,1.9082031s-5.6601562-.6357422-8.0390625-1.9082031Zm12.5908203-8.1210938c1.2539062-1.3085938,1.8798828-3.1796875,1.8798828-5.6142578s-.6083984-4.3066406-1.8251953-5.6142578c-1.2177734-1.3085938-2.7167969-1.9619141-4.4970703-1.9619141-1.8173828,0-3.3251953,.6455078-4.5244141,1.9345703-1.1992188,1.2900391-1.7988281,3.1708984-1.7988281,5.6416016,0,2.4345703,.5908203,4.3056641,1.7714844,5.6142578,1.1806641,1.3076172,2.6621094,1.9619141,4.4423828,1.9619141s3.2978516-.6542969,4.5517578-1.9619141Z"/>
            <path class="cls-30" d="M362.9424951,62.654845c2.1259766,2.3076172,3.1884766,5.4775391,3.1884766,9.5117188v17.7685547h-9.265625v-16.515625c0-2.0341797-.5273438-3.6152344-1.5810547-4.7421875-1.0537109-1.125-2.4707031-1.6894531-4.2509766-1.6894531-1.78125,0-3.1982422,.5644531-4.2519531,1.6894531-1.0537109,1.1269531-1.5800781,2.7080078-1.5800781,4.7421875v16.515625h-9.3212891v-30.4140625h9.3212891v4.0332031c.9443359-1.34375,2.2158203-2.4072266,3.8154297-3.1884766,1.5986328-.78125,3.3974609-1.171875,5.3955078-1.171875,3.5615234,0,6.4052734,1.1533203,8.5302734,3.4609375Z"/>
            <path class="cls-30" d="M387.878042,67.2603137h-5.0136719v22.6748047h-9.3212891v-22.6748047h-3.3789062v-7.7392578h3.3789062v-.8720703c0-3.7421875,1.0712891-6.5859375,3.2158203-8.5302734,2.1435547-1.9433594,5.2871094-2.9160156,9.4296875-2.9160156,.6904297,0,1.1992188,.0185547,1.5263672,.0537109v7.9033203c-1.78125-.1083984-3.0341797,.1464844-3.7607422,.7636719-.7275391,.6181641-1.0898438,1.7265625-1.0898438,3.3251953v.2724609h5.0136719v7.7392578Z"/>
          </g>
          <g>
            <path class="cls-30" d="M157.8702295,128.9741809c2.1806641-1.9833984,4.0195312-4.0576172,5.5185547-6.2226562s2.2490234-4.2929688,2.2490234-6.3818359c0-1.9677734-.4775391-3.5205078-1.4316406-4.65625-.953125-1.1347656-2.4912109-1.703125-4.6103516-1.703125-2.0595703,0-3.65625,.6435547-4.7919922,1.9306641-1.1347656,1.2871094-1.7480469,3.0058594-1.8388672,5.1552734h-3.9970703c.1201172-3.390625,1.1503906-6.0107422,3.0878906-7.8583984,1.9375-1.8466797,4.4365234-2.7705078,7.4951172-2.7705078,3.1181641,0,5.59375,.8632812,7.4267578,2.5888672,1.8310547,1.7265625,2.7480469,4.1035156,2.7480469,7.1318359,0,2.5136719-.75,4.9589844-2.2490234,7.3349609-1.4990234,2.3779297-3.2021484,4.4677734-5.109375,6.2685547-1.9082031,1.8017578-4.3457031,3.8994141-7.3134766,6.2910156h15.625v3.4521484h-21.8476562v-2.9521484c3.8457031-3.0888672,6.8583984-5.625,9.0390625-7.6083984Z"/>
            <path class="cls-30" d="M177.9913232,110.9419544c1.6962891-2.921875,4.6630859-4.3837891,8.9033203-4.3837891,4.2080078,0,7.1611328,1.4619141,8.8574219,4.3837891,1.6953125,2.921875,2.5429688,6.9873047,2.5429688,12.1953125,0,5.2998047-.8476562,9.4179688-2.5429688,12.3544922-1.6962891,2.9375-4.6494141,4.40625-8.8574219,4.40625-4.2402344,0-7.2070312-1.46875-8.9033203-4.40625-1.6962891-2.9365234-2.5429688-7.0546875-2.5429688-12.3544922,0-5.2080078,.8466797-9.2734375,2.5429688-12.1953125Zm15.6933594,5.4960938c-.3486328-1.8320312-1.0595703-3.3085938-2.1347656-4.4287109s-2.6269531-1.6806641-4.6552734-1.6806641c-2.0595703,0-3.6269531,.5605469-4.7011719,1.6806641-1.0751953,1.1201172-1.7871094,2.5966797-2.1347656,4.4287109-.3486328,1.8320312-.5224609,4.0644531-.5224609,6.6992188,0,2.7255859,.1738281,5.0117188,.5224609,6.8583984,.3476562,1.8476562,1.0595703,3.3320312,2.1347656,4.4521484,1.0742188,1.1201172,2.6416016,1.6806641,4.7011719,1.6806641,2.0283203,0,3.5800781-.5605469,4.6552734-1.6806641s1.7861328-2.6044922,2.1347656-4.4521484c.3476562-1.8466797,.5224609-4.1328125,.5224609-6.8583984,0-2.6347656-.1748047-4.8671875-.5224609-6.6992188Z"/>
            <path class="cls-30" d="M212.5118311,128.9741809c2.1806641-1.9833984,4.0195312-4.0576172,5.5185547-6.2226562s2.2490234-4.2929688,2.2490234-6.3818359c0-1.9677734-.4775391-3.5205078-1.4316406-4.65625-.953125-1.1347656-2.4912109-1.703125-4.6103516-1.703125-2.0595703,0-3.65625,.6435547-4.7919922,1.9306641-1.1347656,1.2871094-1.7480469,3.0058594-1.8388672,5.1552734h-3.9970703c.1201172-3.390625,1.1503906-6.0107422,3.0878906-7.8583984,1.9375-1.8466797,4.4365234-2.7705078,7.4951172-2.7705078,3.1181641,0,5.59375,.8632812,7.4267578,2.5888672,1.8310547,1.7265625,2.7480469,4.1035156,2.7480469,7.1318359,0,2.5136719-.75,4.9589844-2.2490234,7.3349609-1.4990234,2.3779297-3.2021484,4.4677734-5.109375,6.2685547-1.9082031,1.8017578-4.3457031,3.8994141-7.3134766,6.2910156h15.625v3.4521484h-21.8476562v-2.9521484c3.8457031-3.0888672,6.8583984-5.625,9.0390625-7.6083984Z"/>
            <path class="cls-30" d="M233.2237451,108.7837512c1.9375-1.5742188,4.4511719-2.3613281,7.5400391-2.3613281,2.0585938,0,3.8378906,.3710938,5.3369141,1.1123047,1.4990234,.7421875,2.6347656,1.7490234,3.4072266,3.0205078,.7714844,1.2724609,1.1582031,2.7109375,1.1582031,4.3154297,0,1.8779297-.5380859,3.4970703-1.6132812,4.8603516-1.0751953,1.3623047-2.4746094,2.2412109-4.2011719,2.6337891v.2275391c1.9677734,.484375,3.5273438,1.4384766,4.6787109,2.8613281,1.1503906,1.4238281,1.7255859,3.2861328,1.7255859,5.5869141,0,1.7265625-.3935547,3.2783203-1.1806641,4.65625-.7880859,1.3779297-1.96875,2.4599609-3.5429688,3.2470703-1.5751953,.7880859-3.4677734,1.1816406-5.6777344,1.1816406-3.2099609,0-5.8447266-.8408203-7.9033203-2.5214844-2.0595703-1.6806641-3.2099609-4.0654297-3.4521484-7.1533203h3.9970703c.2119141,1.8164062,.9541016,3.3007812,2.2255859,4.4511719,1.2724609,1.1503906,2.9677734,1.7255859,5.0878906,1.7255859,2.1191406,0,3.7314453-.5517578,4.8369141-1.6582031,1.1054688-1.1044922,1.6582031-2.5351562,1.6582031-4.2919922,0-2.2714844-.7578125-3.90625-2.2714844-4.9052734-1.5146484-.9990234-3.8007812-1.4990234-6.8583984-1.4990234h-1.0449219v-3.4521484h1.0898438c2.7861328-.0302734,4.890625-.4921875,6.3144531-1.3857422,1.4228516-.8925781,2.1347656-2.2773438,2.1347656-4.1552734,0-1.6054688-.5224609-2.8916016-1.5673828-3.8613281-1.0449219-.96875-2.5361328-1.453125-4.4746094-1.453125-1.8769531,0-3.3916016,.484375-4.5419922,1.453125-1.1503906,.9697266-1.8320312,2.2714844-2.0439453,3.90625h-4.0419922c.2109375-2.7851562,1.2861328-4.9658203,3.2246094-6.5410156Z"/>
          </g>
        </g>
      </g>
    </g>
  </g>
</svg>