<svg width="242" height="25" viewBox="0 0 242 25" fill="white" xmlns="http://www.w3.org/2000/svg">
    <path fill-rule="evenodd" clip-rule="evenodd" d="M0 2.5C0 1.11929 1.11929 0 2.5 0H6.55719C7.9379 0 9.05719 1.11929 9.05719 2.5C9.05719 3.88071 7.9379 5 6.55719 5H2.5C1.11929 5 0 3.88071 0 2.5ZM30 2.5C30 1.11929 28.8807 0 27.5 0H23.4428C22.0621 0 20.9428 1.11929 20.9428 2.5C20.9428 3.88071 22.0621 5 23.4428 5H27.5C28.8807 5 30 3.88071 30 2.5ZM48.5 0C49.8807 0 51 1.11929 51 2.5C51 3.88071 49.8807 5 48.5 5H44.4428C43.0621 5 41.9428 3.88071 41.9428 2.5C41.9428 1.11929 43.0621 0 44.4428 0H48.5ZM10 22.1025C10 20.7218 11.1193 19.6025 12.5 19.6025H16.5572C17.9379 19.6025 19.0572 20.7218 19.0572 22.1025C19.0572 23.4833 17.9379 24.6025 16.5572 24.6025H12.5C11.1193 24.6025 10 23.4833 10 22.1025ZM33.499 19.6025C32.1183 19.6025 30.999 20.7218 30.999 22.1025C30.999 23.4833 32.1183 24.6025 33.499 24.6025H37.5562C38.9369 24.6025 40.0562 23.4833 40.0562 22.1025C40.0562 20.7218 38.9369 19.6025 37.5562 19.6025H33.499ZM0 8.91699C0 7.53628 1.11929 6.41699 2.5 6.41699H11.2906C12.6713 6.41699 13.7906 7.53628 13.7906 8.91699C13.7906 10.2977 12.6713 11.417 11.2906 11.417H2.5C1.11929 11.417 0 10.2977 0 8.91699ZM32.5 11.5C33.8807 11.5 35 10.3807 35 9C35 7.61929 33.8807 6.5 32.5 6.5H18.5C17.1193 6.5 16 7.61929 16 9C16 10.3807 17.1193 11.5 18.5 11.5H32.5ZM51 8.91699C51 7.53628 49.8807 6.41699 48.5 6.41699H39.7094C38.3287 6.41699 37.2094 7.53628 37.2094 8.91699C37.2094 10.2977 38.3287 11.417 39.7094 11.417H48.5C49.8807 11.417 51 10.2977 51 8.91699ZM8 13.1763C6.61929 13.1763 5.5 14.2956 5.5 15.6763C5.5 17.057 6.61929 18.1763 8 18.1763H22C23.3807 18.1763 24.5 17.057 24.5 15.6763C24.5 14.2956 23.3807 13.1763 22 13.1763H8ZM26.5 15.6763C26.5 14.2956 27.6193 13.1763 29 13.1763H43C44.3807 13.1763 45.5 14.2956 45.5 15.6763C45.5 17.057 44.3807 18.1763 43 18.1763H29C27.6193 18.1763 26.5 17.057 26.5 15.6763ZM76.4569 11.12V14.36H79.8649C79.7449 15.152 79.6009 15.536 79.2889 15.968C78.6889 16.736 77.7289 17.144 76.5769 17.144C75.4009 17.144 74.4409 16.76 73.7449 15.992C72.8329 15.032 72.3049 13.568 72.3049 12.104C72.3049 9.22404 74.0809 7.08804 76.4569 7.08804C78.0649 7.08804 79.1689 7.90404 79.8889 9.63204L83.8489 8.00004C82.3369 4.92804 80.0569 3.48804 76.6489 3.48804C71.4889 3.48804 67.9609 6.96804 67.9609 12.08C67.9609 17.12 71.4409 20.576 76.5049 20.576C79.9369 20.576 82.5529 18.968 83.8729 16.04C84.4489 14.768 84.6649 13.472 84.7129 11.12H76.4569ZM95.1366 13.448C96.0966 13.208 96.6246 12.968 97.1766 12.488C98.0886 11.696 98.6406 10.352 98.6406 8.93604C98.6406 7.61604 98.1366 6.32004 97.2726 5.40804C96.3366 4.42404 95.1366 3.99204 93.3366 3.99204H86.8806V20H91.0326V13.856L94.9926 20H100.177L95.1366 13.448ZM91.0326 11.168V7.18404H91.8006C92.5926 7.18404 93.1926 7.35204 93.5766 7.61604C94.0326 7.95204 94.3686 8.60004 94.3686 9.17604C94.3686 9.75204 94.0326 10.424 93.5766 10.736C93.1926 11.024 92.5926 11.168 91.8006 11.168H91.0326ZM112.973 20L111.941 17.216H106.205L105.101 20H100.709L106.853 3.99204H111.389L117.413 20H112.973ZM107.357 14.048H110.813L109.109 8.93604L107.357 14.048ZM122.932 14.672H125.524C127.444 14.672 128.764 14.192 129.652 13.184C130.492 12.248 130.948 10.88 130.948 9.29604C130.948 7.61604 130.42 6.32004 129.388 5.33604C128.356 4.35204 127.252 3.99204 125.38 3.99204H118.78V20H122.932V14.672ZM122.932 11.336V7.32804H124.324C125.86 7.32804 126.604 8.00004 126.604 9.34404C126.604 10.712 125.884 11.336 124.3 11.336H122.932ZM136.983 3.99204V10.184H143.007V3.99204H147.159V20H143.007V13.424H136.983V20H132.831V3.99204H136.983ZM152.711 3.99204H148.367L153.143 20H157.367L160.439 10.736L163.343 20H167.591L172.703 3.99204H168.359L165.335 14.336L162.191 3.99204H158.879L155.495 14.336L152.711 3.99204ZM183.108 3.99204V7.52004H178.164V10.184H182.844V13.712H178.164V16.472H183.108V20H174.012V3.99204H183.108ZM195.369 17.216L196.401 20H200.841L194.817 3.99204H190.281L184.137 20H188.529L189.633 17.216H195.369ZM194.241 14.048H190.785L192.537 8.93604L194.241 14.048ZM199.356 3.99204H203.892L207.732 13.736L211.62 3.99204H216.132L209.316 20H206.076L199.356 3.99204ZM226.527 7.52004V3.99204H217.431V20H226.527V16.472H221.583V13.712H226.263V10.184H221.583V7.52004H226.527ZM238.989 12.488C238.437 12.968 237.909 13.208 236.949 13.448L241.989 20H236.805L232.845 13.856V20H228.693V3.99204H235.149C236.949 3.99204 238.149 4.42404 239.085 5.40804C239.949 6.32004 240.453 7.61604 240.453 8.93604C240.453 10.352 239.901 11.696 238.989 12.488ZM233.613 7.18404H232.845V11.168H233.613C234.405 11.168 235.005 11.024 235.389 10.736C235.845 10.424 236.181 9.75204 236.181 9.17604C236.181 8.60004 235.845 7.95204 235.389 7.61604C235.005 7.35204 234.405 7.18404 233.613 7.18404Z"/>
</svg>
