<svg xmlns="http://www.w3.org/2000/svg" fill="white" viewBox="0 0 712 474" width="712" height="474">
    <path d="M565.9,306.8c0-4.9,3.7-8.7,8.4-8.7s8.4,3.7,8.4,8.7-3.7,8.7-8.4,8.7-8.4-3.7-8.4-8.7ZM580.7,307.3v-1.1c0-3.5-2.8-6.3-6.4-6.3s-6.4,2.8-6.4,6.3v1.1c0,3.5,2.8,6.3,6.4,6.3s6.4-2.8,6.4-6.3ZM573,311.2h-2.1v-8.8h4c2,0,3,1.2,3,2.8s-.6,2.3-1.6,2.6l2,3.4h-2.4l-1.6-3h-1.2v3ZM574.6,306.6c.7,0,1-.3,1-.9v-.6c0-.6-.4-.9-1-.9h-1.6v2.5h1.6ZM158,305h77v10h-77v-10ZM158,294h77v-10h-77v10ZM180,273h33v-10h-33v10ZM180,252h33v-10h-33v10ZM180,231h33v-10h-33v10ZM213,200h-33v10h33v-10ZM158,189h77v-10h-77v10ZM158,168h77v-10h-77v10ZM246,305v10h81c10.4,0,19.9-3.8,27.2-10h-108.2ZM246,284v10h117.4c1.8-3.1,3.2-6.5,4.2-10h-121.5ZM268,263v10h33v-10h-33ZM268,221h0v10h87.3c3.2-2.9,5.9-6.3,8.1-10h-95.4ZM367.5,189c-1-3.5-2.4-6.9-4.2-10h-117.4v10h121.5ZM268,200v10h33v-10h-33ZM332,210h35.8c.8-3.2,1.2-6.6,1.2-10h-37v10ZM332,263v10h37c0-3.4-.4-6.8-1.2-10h-35.8ZM355.3,242h-87.3v10h95.4c-2.2-3.7-4.9-7.1-8.1-10ZM354.2,168c-7.3-6.2-16.8-10-27.2-10h0s-81,0-81,0h0v10h108.2ZM378,315h55v-10h-55v10ZM378,294h55v-10h-55v10ZM400,273h33v-10h-33v10ZM400,252h33v-10h-33v10ZM499,315h55v-10h-55v10ZM499,294h55v-10h-55v10ZM499,273h33v-10h-33v10ZM532,242h-33v10h33v-10ZM499,231h33v-10h-61.9l-3.5,10h29l3.4-9.5v9.5ZM532,200h-54.6l-3.5,10h58v-10ZM492,158l-3.5,10h65.5v-10h-62ZM466,314.9l3.5-9.9h-7l3.5,9.9ZM458.6,294h14.8l3.5-10h-21.9l3.5,10ZM451.2,273h29.6l3.5-10h-36.7l3.5,10ZM443.8,252h44.4l3.5-10h-51.5l3.5,10ZM400,210h58l-3.5-10h-54.6v10ZM481.2,189h72.8v-10h-69.3l-3.5,10ZM447.3,179h-69.3v10h72.8l-3.5-10ZM440,158h-62s0,10,0,10h65.5l-3.5-10ZM465.3,231l-3.5-10h-61.9v10h33v-9.5l3.4,9.5h29Z"/>
</svg>
