<svg width="425" height="158" viewBox="0 0 425 158" fill="white" xmlns="http://www.w3.org/2000/svg">
    <path d="M407.9 148.8C407.9 143.9 411.6 140.1 416.3 140.1C421 140.1 424.7 143.8 424.7 148.8C424.7 153.8 421 157.5 416.3 157.5C411.6 157.5 407.9 153.8 407.9 148.8ZM422.7 149.3V148.2C422.7 144.7 419.9 141.9 416.3 141.9C412.7 141.9 409.9 144.7 409.9 148.2V149.3C409.9 152.8 412.7 155.6 416.3 155.6C419.9 155.6 422.7 152.8 422.7 149.3ZM415 153.2H412.9V144.4H416.9C418.9 144.4 419.9 145.6 419.9 147.2C419.9 148.8 419.3 149.5 418.3 149.8L420.3 153.2H417.9L416.3 150.2H415.1V153.2H415ZM416.6 148.6C417.3 148.6 417.6 148.3 417.6 147.7V147.1C417.6 146.5 417.2 146.2 416.6 146.2H415V148.7H416.6V148.6ZM0 147H77V157H0V147ZM0 136H77V126H0V136ZM22 115H55V105H22V115ZM22 94H55V84H22V94ZM22 73H55V63H22V73ZM55 42H22V52H55V42ZM0 31H77V21H0V31ZM0 10H77V0H0V10ZM88 147V157H169C179.4 157 188.9 153.2 196.2 147H88ZM88 126V136H205.4C207.2 132.9 208.6 129.5 209.6 126H88.1H88ZM110 105V115H143V105H110ZM110 63V73H197.3C200.5 70.1 203.2 66.7 205.4 63H110ZM209.5 31C208.5 27.5 207.1 24.1 205.3 21H87.9V31H209.4H209.5ZM110 42V52H143V42H110ZM174 52H209.8C210.6 48.8 211 45.4 211 42H174V52ZM174 105V115H211C211 111.6 210.6 108.2 209.8 105H174ZM197.3 84H110V94H205.4C203.2 90.3 200.5 86.9 197.3 84ZM196.2 10C188.9 3.8 179.4 0 169 0H88V10H196.2ZM220 157H275V147H220V157ZM220 136H275V126H220V136ZM242 115H275V105H242V115ZM242 94H275V84H242V94ZM341 157H396V147H341V157ZM341 136H396V126H341V136ZM341 115H374V105H341V115ZM374 84H341V94H374V84ZM341 73H374V63H312.1L308.6 73H337.6L341 63.5V73ZM374 42H319.4L315.9 52H373.9V42H374ZM334 0L330.5 10H396V0H334ZM308 156.9L311.5 147H304.5L308 156.9ZM300.6 136H315.4L318.9 126H297L300.5 136H300.6ZM293.2 115H322.8L326.3 105H289.6L293.1 115H293.2ZM285.8 94H330.2L333.7 84H282.2L285.7 94H285.8ZM242 52H300L296.5 42H241.9V52H242ZM323.2 31H396V21H326.7L323.2 31ZM289.3 21H220V31H292.8L289.3 21ZM282 0H220V10H285.5L282 0ZM307.3 73L303.8 63H241.9V73H274.9V63.5L278.3 73H307.3Z" />
</svg>
