<svg viewBox="0 0 178 54" fill="none" xmlns="http://www.w3.org/2000/svg">
    <path d="M1.25858 18.2423L9.12034 4.50022C9.66549 3.54609 10.4522 2.7523 11.4014 2.19864C12.3472 1.64705 13.4223 1.3563 14.5172 1.35605H30.2413C31.3353 1.35605 32.4093 1.64705 33.3564 2.19864C34.3058 2.75223 35.0928 3.54603 35.6382 4.50022L39.9649 12.063L28.4596 32.5167C28.2656 32.856 28.2131 33.258 28.3134 33.6358C28.413 34.0126 28.658 34.3347 28.9946 34.5313C29.33 34.727 29.7288 34.7799 30.1031 34.6787C30.2891 34.6282 30.4632 34.5414 30.6155 34.4234C30.7678 34.3053 30.8953 34.1584 30.9907 33.9909L41.652 15.0121L43.4999 18.2423C44.047 19.1998 44.3348 20.2836 44.3348 21.3864C44.3348 22.4893 44.047 23.573 43.4999 24.5306L35.6382 38.272C35.0928 39.2262 34.3058 40.02 33.3564 40.5736C32.4108 41.1248 31.3359 41.4153 30.2413 41.4155H14.7387L25.8247 22.7614C26.2465 21.8237 26.3024 20.7621 25.9814 19.7852C25.6626 18.8109 24.9884 17.9925 24.0932 17.4929C23.2018 16.9962 22.1547 16.8574 21.1646 17.1047C20.1725 17.354 19.3115 17.9695 18.7546 18.8276L8.16333 36.6027L5.27908 31.561L17.8168 9.9182C17.9865 9.62042 18.0322 9.26779 17.9439 8.93658C17.8557 8.60538 17.6406 8.32222 17.3452 8.14837C17.1991 8.0635 17.0375 8.00848 16.87 7.98649C16.7024 7.9645 16.5322 7.97599 16.3691 8.02028C16.206 8.06457 16.0533 8.14079 15.9199 8.24452C15.7865 8.34825 15.675 8.47742 15.5919 8.62455L3.80752 28.9678L1.25792 24.5299C0.710753 23.5724 0.422943 22.4886 0.422943 21.3858C0.422943 20.2829 0.710753 19.1992 1.25792 18.2416L1.25858 18.2423ZM27.1349 14.1993C27.5873 14.4511 28.0855 14.6101 28.6001 14.667C29.1148 14.7239 29.6357 14.6776 30.1322 14.5306C30.6295 14.3832 31.0925 14.1381 31.494 13.8097C31.8967 13.4802 32.2303 13.0743 32.4755 12.6153L32.5879 12.4056C32.854 11.9491 33.0264 11.4441 33.0951 10.9201C33.1638 10.3962 33.1274 9.86377 32.988 9.35405C32.8494 8.84506 32.6106 8.36884 32.2856 7.95326C31.9617 7.53892 31.5577 7.19391 31.0978 6.93871C30.4068 6.55571 29.6156 6.39214 28.8293 6.46976C28.0431 6.54738 27.2991 6.86251 26.6964 7.37323C26.294 7.71347 25.9639 8.13085 25.7255 8.60075L25.613 8.80974C25.1031 9.72879 24.9775 10.8123 25.2638 11.8236C25.4051 12.3237 25.6433 12.7911 25.9649 13.1993C26.2853 13.6066 26.6831 13.9465 27.1355 14.1993H27.1349ZM56.447 5.2317C56.447 2.01279 58.1064 0.600098 61.8901 0.600098C65.6738 0.600098 67.3213 2.01279 67.3213 5.2317C67.3213 8.44995 65.6738 9.81371 61.8901 9.81371C58.1064 9.81371 56.447 8.40101 56.447 5.2317ZM66.5448 13.0935H57.2102V41.3474H66.5448V13.0935ZM99.6089 22.5286V41.3487H90.275V25.1331C90.275 21.1285 88.687 19.8263 86.3834 19.8263C83.6857 19.8263 81.4416 21.6933 81.4416 26.3739V41.3487H72.0839V13.0941H80.439L80.7135 18.573C81.4632 16.7006 82.7743 15.1064 84.4668 14.0095C86.1376 12.9292 88.1097 12.4106 90.0957 12.5293C95.765 12.5293 99.6089 15.9685 99.6089 22.5293V22.5286ZM104.313 5.2317C104.313 2.01279 105.959 0.600098 109.743 0.600098C113.528 0.600098 115.186 2.01279 115.186 5.2317C115.186 8.44995 113.539 9.81371 109.743 9.81371C105.948 9.81371 104.313 8.40101 104.313 5.2317ZM114.375 13.0935H105.041V41.3474H114.375V13.0935Z" fill="white"/>
    <path fill-rule="evenodd" clip-rule="evenodd" d="M147.283 43.5599C147.283 50.1201 141.124 53.5103 131.849 53.5103C121.907 53.5103 117.788 50.9064 117.788 46.8396C117.788 44.5301 119.268 42.3807 122.837 41.5328C120.45 40.4521 118.672 38.5844 118.672 35.6485C118.718 34.3327 119.174 33.064 119.975 32.0196C120.764 30.9899 121.864 30.2421 123.112 29.8873C121.719 29.1628 120.564 28.0524 119.786 26.6889C118.997 25.3092 118.611 23.736 118.672 22.1479C118.672 16.0057 123.553 12.5414 132.064 12.5414C133.909 12.536 135.749 12.7253 137.555 13.1062C138.271 8.74513 140.849 5.07252 146.233 5.52688L147.283 11.9144C143.821 11.4111 141.673 12.5904 140.85 14.3714C142.282 15.0785 143.476 16.1882 144.287 17.5646C145.109 18.9577 145.519 20.5555 145.469 22.1724C145.469 28.3145 140.574 31.7173 132.064 31.7173C130.296 31.7359 128.532 31.5672 126.8 31.214C125.535 31.5454 125.034 32.1723 125.034 33.1915C125.034 34.4204 126.084 35.1082 127.899 35.1082H137.28C143.702 35.0711 147.283 37.8965 147.283 43.5599ZM139.918 44.5301C139.918 43.3998 139.094 42.7113 136.564 42.7113H129.044C126.024 42.7113 124.878 43.3383 124.878 44.6895C124.878 46.3363 127.182 47.294 132.506 47.294C137.602 47.2451 139.966 46.0903 139.966 44.5176L139.918 44.5301ZM129.246 24.9627C128.486 24.2165 128.035 23.2116 127.982 22.1479C128.035 21.0844 128.487 20.0798 129.246 19.3337C129.994 18.6002 130.999 18.1881 132.046 18.1856C133.087 18.1856 134.089 18.5963 134.845 19.3337C135.605 20.0797 136.057 21.0843 136.11 22.1479C136.057 23.2117 135.605 24.2165 134.845 24.9627C134.098 25.696 133.093 26.1078 132.046 26.1102C130.999 26.1079 129.994 25.696 129.246 24.9627ZM163.086 41.9627C172.254 41.9627 177.577 36.4838 177.577 27.2206C177.577 17.9462 172.266 12.4793 163.086 12.4793C153.907 12.4793 148.584 17.9091 148.584 27.2213C148.584 36.5334 153.919 41.9627 163.086 41.9627ZM163.086 35.0711C159.625 35.0711 157.918 32.7616 157.918 27.2206C157.918 21.681 159.637 19.3589 163.086 19.3589C166.536 19.3589 168.242 21.6803 168.242 27.2213C168.242 32.7616 166.548 35.0711 163.086 35.0711Z" fill="white"/>
</svg>
