<?xml version="1.0" encoding="UTF-8"?>
<svg version="1.1" xmlns="http://www.w3.org/2000/svg" width="1280" height="306">
<path d="M0 0 C0.98687302 0.00273422 0.98687302 0.00273422 1.99368286 0.00552368 C33.49479583 0.15217824 62.27407174 11.07879502 84.75 33.3125 C106.17254486 55.17575388 114.89300554 83.35680422 114.65307617 113.47094727 C114.65222677 115.0005288 114.65271112 116.53011155 114.65440369 118.05969238 C114.65525288 122.15164184 114.63780493 126.24331921 114.61668181 130.33520627 C114.59773229 134.63393292 114.59615036 138.93266807 114.59260559 143.23143005 C114.58333816 151.34472118 114.55879742 159.45788881 114.52855712 167.57112592 C114.49484646 176.81921061 114.47848551 186.06730168 114.46347082 195.31543267 C114.43224212 214.31453902 114.37729772 233.31347643 114.3125 252.3125 C93.8525 252.3125 73.3925 252.3125 52.3125 252.3125 C52.28671875 242.103125 52.2609375 231.89375 52.234375 221.375 C52.20919192 214.88539779 52.18300892 208.39582479 52.15234375 201.90625 C52.10391533 191.61849203 52.0594281 181.33083116 52.04150391 171.04296875 C52.02842699 163.54809587 52.00131002 156.05342213 51.95788693 148.55866146 C51.93540671 144.59651392 51.91958114 140.63461076 51.92061615 136.6723938 C51.92137083 132.92938053 51.90310287 129.18690467 51.87133217 125.44403076 C51.85898837 123.44327523 51.86583375 121.44242876 51.87364197 119.44165039 C51.68343684 102.57638252 47.49777104 87.01242219 35.69921875 74.5703125 C24.56465861 64.03712795 11.70769875 60.77727988 -3.25390625 61.03515625 C-13.56470288 61.48017882 -22.29001272 65.55603038 -30.6875 71.3125 C-32.0178125 72.17875 -32.0178125 72.17875 -33.375 73.0625 C-44.0945802 83.49236182 -49.61680669 98.15788981 -49.9659729 112.93751526 C-49.98936556 115.53764617 -50.00247323 118.13646989 -50.00634766 120.73657227 C-50.01566121 122.17631077 -50.02583198 123.61604394 -50.03678894 125.05577087 C-50.06394228 128.93940034 -50.0791945 132.82299383 -50.09221697 136.70669293 C-50.10791214 140.774632 -50.1346818 144.84249829 -50.1602478 148.91038513 C-50.20692301 156.60240599 -50.24372139 164.29444071 -50.27692068 171.98653024 C-50.31522189 180.74840697 -50.36461095 189.51021041 -50.41490483 198.27202523 C-50.51805716 216.28546929 -50.60590816 234.29894448 -50.6875 252.3125 C-71.4775 252.3125 -92.2675 252.3125 -113.6875 252.3125 C-113.75551133 233.11761084 -113.81065183 213.92282091 -113.84293652 194.72784138 C-113.85833267 185.81306421 -113.87928143 176.89836784 -113.91381836 167.98364258 C-113.94394499 160.20352832 -113.96312752 152.42347264 -113.96976548 144.64330167 C-113.97363884 140.53286709 -113.98258553 136.42259993 -114.00469017 132.31221962 C-114.20565424 93.3842557 -110.13452929 60.64236813 -81.6875 31.3125 C-60.21089499 9.75515588 -29.90827308 -0.13160327 0 0 Z " fill="#226CFF" transform="translate(262.6875,24.6875)"/>
<path d="M0 0 C20.46 0 40.92 0 62 0 C62.04898438 9.71566406 62.09796875 19.43132813 62.1484375 29.44140625 C62.18384567 35.61654508 62.21973977 41.79167484 62.2578125 47.96679688 C62.31808079 57.75640749 62.37643182 67.54600119 62.421875 77.33569336 C62.45498991 84.46756755 62.49492603 91.59936672 62.54279006 98.73115772 C62.56786298 102.50150386 62.58969893 106.27180147 62.60334396 110.04220772 C62.61634126 113.60368816 62.63857793 117.1650005 62.66738319 120.72638702 C62.6805295 122.63072431 62.68434595 124.53511919 62.68769836 126.4394989 C62.8411231 142.56549749 64.835775 156.97491043 73.6328125 170.80859375 C75 173 75 173 76.06640625 175.22265625 C77.30597883 177.58251199 78.59946892 177.90261436 81 179 C81.70125 179.598125 82.4025 180.19625 83.125 180.8125 C93.75737059 188.90234719 106.76319421 192.24095054 120 191 C132.68799861 189.01750022 145.08881637 183.63855038 153.05859375 173.33984375 C163.44995334 158.56313975 165.28850875 143.40198557 165.31884766 125.67260742 C165.3281739 124.29139131 165.33834645 122.9101807 165.34928894 121.52897644 C165.37629968 117.82326442 165.39165114 114.11758976 165.40471697 110.41180587 C165.42047593 106.52272932 165.44722455 102.63372771 165.4727478 98.7447052 C165.51931174 91.39989501 165.55616328 84.05507035 165.58942068 76.71018916 C165.63499499 66.77119639 165.69578517 56.832297 165.75566864 46.89338207 C165.84945171 31.26230182 165.92308878 15.63119348 166 0 C186.46 0 206.92 0 228 0 C228.06792477 19.91589088 228.12310217 39.83168683 228.15543652 59.74766445 C228.17085416 68.99661365 228.19184514 78.24548534 228.22631836 87.49438477 C228.256378 95.56305293 228.275612 103.63166492 228.28226548 111.70038754 C228.28614992 115.96606951 228.29517016 120.23159089 228.31719017 124.49722099 C228.33781824 128.52652131 228.34378175 132.55559757 228.33932304 136.58494568 C228.34013666 138.05008227 228.34594356 139.51522775 228.35761642 140.98031807 C228.59087461 171.81541835 217.92410934 198.52564139 196.6875 220.75 C172.64741765 243.98087902 140.92921582 252.57204118 108.1875 252.2109375 C82.61444104 251.57631196 57.70346337 242.26546903 38 226 C37.22398437 225.38769531 36.44796875 224.77539062 35.6484375 224.14453125 C14.9119575 206.96182962 3.14856744 180.57442265 0.47315979 154.19010925 C-0.14663703 147.18326328 -0.13279446 140.19396499 -0.11352539 133.1652832 C-0.11324269 131.70555117 -0.11340286 130.24581899 -0.1139679 128.78608704 C-0.11425265 124.85709895 -0.10840828 120.92814193 -0.10139394 116.99916101 C-0.0951065 112.88056108 -0.09455236 108.7619603 -0.09336853 104.64335632 C-0.09027102 96.85928624 -0.08207909 89.07523034 -0.07201904 81.29116648 C-0.06080863 72.42288378 -0.05533507 63.55460036 -0.05032361 54.68631232 C-0.03989503 36.45753189 -0.02156937 18.22877089 0 0 Z " fill="#226BFF" transform="translate(656,30)"/>
<path d="M0 0 C68.97 0 137.94 0 209 0 C209 19.14 209 38.28 209 58 C184.91 58 160.82 58 136 58 C136 120.37 136 182.74 136 247 C115.21 247 94.42 247 73 247 C73 184.63 73 122.26 73 58 C48.91 58 24.82 58 0 58 C0 38.86 0 19.72 0 0 Z " fill="#226BFF" transform="translate(1047,30)"/>
<path d="M0 0 C68.97 0 137.94 0 209 0 C209 19.14 209 38.28 209 58 C184.91 58 160.82 58 136 58 C136 120.37 136 182.74 136 247 C115.54 247 95.08 247 74 247 C74 184.63 74 122.26 74 58 C49.58 58 25.16 58 0 58 C0 38.86 0 19.72 0 0 Z " fill="#226CFF" transform="translate(408,30)"/>
<path d="M0 0 C20.79 0 41.58 0 63 0 C63 81.51 63 163.02 63 247 C42.21 247 21.42 247 0 247 C0 165.49 0 83.98 0 0 Z " fill="#236CFF" transform="translate(946,30)"/>
<path d="M0 0 C20.46 0 40.92 0 62 0 C62 81.51 62 163.02 62 247 C41.54 247 21.08 247 0 247 C0 165.49 0 83.98 0 0 Z " fill="#226CFF" transform="translate(25,30)"/>
</svg>
