<svg viewBox="0 0 336 111" fill="none" xmlns="http://www.w3.org/2000/svg">
    <path d="M120.861 69.112V40.9016C120.861 40.5606 121.007 40.2682 121.251 40.0246C121.543 39.781 121.884 39.6348 122.274 39.6836H130.216C132.554 39.5861 134.893 40.3657 136.696 41.8761C138.304 43.3378 139.132 45.6277 139.132 48.746V49.1357C139.132 52.254 138.304 54.5927 136.647 56.0543C134.796 57.5647 132.457 58.393 130.07 58.2468H124.418V69.112C124.418 69.5017 124.223 69.8428 123.882 70.0377C123.102 70.4762 122.176 70.4762 121.397 70.0377C121.056 69.8428 120.861 69.5017 120.861 69.112ZM124.369 55.3235H130.07C131.58 55.4209 133.09 54.885 134.162 53.8131C135.234 52.595 135.77 50.9872 135.624 49.3306V48.8434C135.77 47.2356 135.234 45.6277 134.162 44.3609C133.042 43.3378 131.58 42.8018 130.07 42.8993H124.418L124.369 55.3235ZM151.41 61.4625V48.8434C151.41 45.6764 152.238 43.3865 153.846 41.9248C157.744 39.0015 163.103 39.0015 167.001 41.9248C168.658 43.3865 169.486 45.7252 169.486 48.8434V61.4625C169.486 64.6295 168.658 66.9194 167.001 68.3811C163.103 71.3532 157.744 71.3532 153.846 68.3811C152.238 66.9194 151.41 64.6295 151.41 61.4625ZM154.967 61.4625C154.967 65.409 156.769 67.4067 160.472 67.4067C161.983 67.5041 163.444 66.9682 164.565 65.945C165.637 64.7269 166.124 63.1191 166.027 61.4625V48.7947C166.173 47.1868 165.637 45.579 164.565 44.3122C163.444 43.289 161.983 42.7531 160.472 42.8505C156.818 42.8505 155.015 44.7994 155.015 48.7947L154.967 61.4625ZM181.959 66.0424C181.959 65.5552 182.154 65.1167 182.446 64.7269C182.69 64.3859 183.031 64.1423 183.469 64.0935C183.859 64.1423 184.2 64.3371 184.444 64.6295C184.834 64.9705 185.223 65.3603 185.662 65.7988C186.247 66.3348 186.929 66.7246 187.66 66.9682C188.634 67.3579 189.706 67.5041 190.729 67.5041C192.288 67.6016 193.799 67.1143 195.017 66.1886C196.089 65.2142 196.673 63.7525 196.576 62.2908C196.624 60.8779 196.137 59.5623 195.163 58.5392C194.188 57.5647 193.019 56.8339 191.703 56.3467C190.339 55.8594 189.024 55.3235 187.611 54.7388C186.247 54.1542 185.077 53.2771 184.152 52.1078C183.177 50.7923 182.641 49.1845 182.739 47.5279C182.69 46.2124 182.982 44.8969 183.567 43.6788C184.054 42.6556 184.834 41.8274 185.808 41.2427C186.734 40.7067 187.708 40.317 188.731 40.0246C189.803 39.781 190.875 39.6348 191.947 39.6348C193.652 39.6348 195.309 39.8785 196.917 40.3657C198.476 40.9016 199.304 41.5837 199.304 42.412C199.304 42.8505 199.158 43.289 198.866 43.6788C198.671 44.0686 198.232 44.3609 197.794 44.3609C197.16 44.166 196.527 43.9224 195.894 43.6301C194.676 43.0941 193.36 42.8018 191.996 42.8505C190.583 42.8018 189.121 43.1429 187.903 43.8737C186.831 44.6045 186.247 45.8713 186.344 47.1868C186.295 48.4049 186.783 49.5742 187.708 50.3538C188.731 51.1821 189.901 51.8642 191.168 52.254C192.532 52.7412 193.896 53.2771 195.26 53.9105C196.624 54.5927 197.794 55.6158 198.671 56.8826C199.645 58.4417 200.132 60.2445 200.084 62.0959C200.084 64.9705 199.255 67.1631 197.55 68.6247C195.699 70.1839 193.311 70.9634 190.875 70.8172C188.683 70.866 186.49 70.33 184.59 69.2581C182.836 68.0888 181.959 67.0656 181.959 66.0424ZM210.559 41.2427C210.559 40.8529 210.657 40.4631 210.9 40.1708C211.095 39.8297 211.436 39.6836 211.826 39.6836H228.879C229.269 39.6836 229.61 39.8297 229.804 40.1708C230.048 40.4631 230.146 40.8529 230.146 41.2427C230.146 41.6325 230.048 42.071 229.804 42.412C229.61 42.7531 229.269 42.8993 228.879 42.8993H222.204V69.112C222.204 69.5017 222.009 69.8428 221.668 70.0377C220.888 70.4762 219.963 70.4762 219.183 70.0377C218.842 69.8428 218.647 69.5017 218.647 69.112V42.8993H211.875C211.485 42.8993 211.144 42.7531 210.949 42.412C210.705 42.071 210.559 41.6812 210.559 41.2427ZM242.131 69.112V41.4863C241.985 40.658 242.57 39.8785 243.398 39.7323C243.593 39.6836 243.788 39.6836 243.934 39.7323C245.055 39.7323 245.98 40.4631 246.76 41.9735L253.337 54.5927L259.964 41.9735C260.792 40.5119 261.718 39.7323 262.79 39.7323C263.618 39.5861 264.397 40.1708 264.544 40.9991C264.592 41.1452 264.592 41.2914 264.544 41.4376V69.0632C264.544 69.453 264.349 69.7941 264.008 69.989C263.228 70.4275 262.302 70.4275 261.523 69.989C261.182 69.7941 260.987 69.453 260.987 69.0632V47.0894L254.653 58.9777C254.458 59.5623 253.922 60.0008 253.289 60.0008C252.704 59.9521 252.168 59.5623 251.973 58.9777L245.639 46.8458V69.0632C245.639 69.453 245.444 69.7941 245.103 69.989C244.762 70.2326 244.324 70.3787 243.934 70.3787C243.496 70.3787 243.057 70.2813 242.716 70.0377C242.326 69.8915 242.083 69.5017 242.131 69.112ZM276.578 68.9171C276.578 68.8196 276.627 68.6735 276.676 68.576L285.251 40.9504C285.494 40.1221 286.225 39.7323 287.394 39.7323C288.564 39.7323 289.295 40.1221 289.538 40.9504L298.162 68.7222V68.9658C298.162 69.4043 297.87 69.7941 297.48 69.989C297.042 70.2813 296.506 70.4275 295.921 70.3787C295.385 70.4275 294.849 70.1351 294.654 69.5992L292.803 63.4601H281.791L279.94 69.5992C279.794 70.1351 279.209 70.4762 278.673 70.4275C278.186 70.4275 277.699 70.2813 277.26 69.989C276.822 69.7941 276.578 69.4043 276.578 68.9171ZM282.668 60.5368H292.072L287.394 44.8482L282.668 60.5368ZM310.294 69.112V40.9016C310.294 40.0733 310.879 39.6836 312.048 39.6836C312.584 39.6836 313.12 39.8785 313.558 40.2195C314.046 40.7067 314.484 41.2914 314.728 41.9248L325.203 62.3883V40.9016C325.203 40.5118 325.398 40.1708 325.739 40.0246C326.519 39.5861 327.444 39.5861 328.224 40.0246C328.565 40.2195 328.76 40.5606 328.76 40.9016V69.112C328.76 69.5017 328.565 69.8428 328.224 70.0377C327.834 70.2813 327.444 70.3787 327.006 70.3787C326.031 70.33 325.154 69.6966 324.813 68.7709L313.802 47.6741V69.112C313.802 69.5017 313.607 69.8428 313.315 70.0377C312.535 70.4762 311.61 70.4762 310.83 70.0377C310.489 69.8428 310.294 69.5017 310.294 69.112ZM104.636 61.3651C108.047 34.6652 89.1914 10.2552 62.5402 6.84461C35.889 3.43403 11.3815 22.2896 7.97096 48.9408C4.56038 75.592 23.416 100.051 50.0672 103.51C76.7671 106.921 101.177 88.065 104.636 61.3651Z" fill="white"/>
    <path d="M73.8925 37.7345L53.3316 58.2954L47.5336 52.4974C67.7535 32.2776 69.7511 34.0316 73.8925 37.7345Z" fill="#251F30"/>
    <path d="M53.3316 58.7827C53.1854 58.7827 53.088 58.7339 52.9905 58.6365L47.1438 52.8385C46.949 52.6436 46.949 52.3513 47.1438 52.1564C67.7047 31.5955 69.8485 33.5444 74.1848 37.4422C74.2823 37.5396 74.331 37.6371 74.331 37.7833C74.331 37.9294 74.2823 38.0269 74.1848 38.1243L53.6239 58.6365C53.5752 58.7339 53.429 58.7827 53.3316 58.7827ZM48.2157 52.4975L53.3316 57.6133L73.1617 37.7833C69.5562 34.5676 67.1201 33.5931 48.2157 52.4975Z" fill="white"/>
    <path d="M59.227 64.1908L53.6239 58.5877L74.1848 38.0269C79.6905 43.5812 71.4564 52.5949 59.227 64.1908Z" fill="#251F30"/>
    <path d="M59.227 64.678C59.0809 64.678 58.9834 64.6293 58.886 64.5318L53.2829 58.9287C53.1854 58.8313 53.1854 58.7338 53.1854 58.5877C53.1854 58.4415 53.2342 58.3441 53.3316 58.2466L73.8925 37.6857C74.0874 37.4908 74.3797 37.4908 74.5746 37.6857C75.8414 38.8551 76.5235 40.5116 76.4748 42.2169C76.3773 47.6251 70.2383 54.495 59.6168 64.5318C59.4706 64.6293 59.3245 64.678 59.227 64.678ZM54.3061 58.5877C57.4243 61.7546 58.7398 63.0214 59.227 63.5086C67.4124 55.713 75.3542 47.7226 75.4029 42.2169C75.4516 40.9501 74.9644 39.6833 74.1361 38.7089L54.3061 58.5877Z" fill="white"/>
    <path d="M47.6311 52.6434L51.7725 56.7849C51.8699 56.8823 51.8699 56.9797 51.7725 57.0772C51.7238 57.1259 51.7238 57.1259 51.675 57.1259L43.0999 58.9774C42.6614 59.0261 42.2716 58.7338 42.1742 58.2953C42.1254 58.0516 42.2229 57.808 42.369 57.6619L47.3387 52.6922C47.4362 52.5947 47.5824 52.546 47.6311 52.6434Z" fill="#251F30"/>
    <path d="M42.9537 59.4647C42.2229 59.4647 41.6869 58.88 41.6869 58.1492C41.6869 57.8081 41.8331 57.4671 42.0767 57.2234L47.0464 52.2538C47.3387 52.0101 47.7285 52.0101 48.0208 52.2538L52.1623 56.3952C52.4546 56.6388 52.4546 57.0773 52.1623 57.3696C52.0648 57.4671 51.9674 57.5158 51.8212 57.5645L43.246 59.416C43.1486 59.416 43.0511 59.4647 42.9537 59.4647ZM47.4849 53.1795L42.7101 57.9543C42.6126 58.0517 42.5639 58.1979 42.6614 58.3441C42.7101 58.4902 42.8563 58.539 43.0024 58.4902L51.0416 56.7362L47.4849 53.1795Z" fill="white"/>
    <path d="M84.7576 26.3334C81.6394 23.3126 76.6209 23.4101 73.6001 26.577C70.5794 29.744 70.6768 34.7137 73.8438 37.7345C76.426 40.2193 80.3239 40.6578 83.3934 38.8064L77.839 33.252L84.7576 26.3334Z" fill="#251F30"/>
    <path d="M79.3007 40.4143C74.6721 40.4143 70.9204 36.6627 70.9204 32.0341C70.9204 27.4054 74.6721 23.6538 79.3007 23.6538C81.4445 23.6538 83.5396 24.4821 85.0987 25.9925C85.1961 26.0899 85.2449 26.1874 85.2449 26.3335C85.2449 26.4797 85.1961 26.5772 85.0987 26.6746L78.5212 33.2521L83.6857 38.4167C83.8806 38.6116 83.8806 38.9039 83.6857 39.0988L83.5883 39.1963C82.3215 39.9758 80.8111 40.4143 79.3007 40.4143ZM79.3007 24.677C75.208 24.677 71.8949 27.9901 71.9436 32.0828C71.9436 36.1755 75.2567 39.4886 79.3494 39.4399C80.4701 39.4399 81.5907 39.1963 82.6138 38.6603L77.498 33.5932C77.4005 33.4957 77.3518 33.3983 77.3518 33.2521C77.3518 33.106 77.4005 33.0085 77.498 32.9111L84.0268 26.3823C82.7113 25.2617 81.0547 24.677 79.3007 24.677Z" fill="white"/>
    <path d="M84.9038 26.4795L84.8063 26.3821L77.839 33.252L83.3447 38.7576C83.8806 38.4165 84.4166 38.0268 84.8551 37.5883C87.9733 34.5187 87.9733 29.549 84.9038 26.4795Z" fill="#251F30"/>
    <path d="M83.3934 39.2936C83.2472 39.2936 83.1498 39.2449 83.0523 39.1474L77.498 33.5931C77.4005 33.4956 77.3518 33.3982 77.3518 33.252C77.3518 33.1058 77.4005 33.0084 77.498 32.911L84.4166 25.9924C84.6115 25.7975 84.9038 25.7975 85.0987 25.9924L85.2448 26.0898C88.5093 29.3542 88.5093 34.6162 85.2936 37.9294C84.8064 38.4166 84.2704 38.8551 83.6857 39.1962C83.5396 39.2449 83.4421 39.2936 83.3934 39.2936ZM78.5212 33.252L83.4421 38.173C83.8319 37.9294 84.2217 37.5883 84.514 37.296C87.2912 34.5188 87.4374 29.9876 84.7576 27.0643L78.5212 33.252Z" fill="white"/>
    <path d="M74.7208 38.6116C73.5515 37.4423 71.6513 37.4423 70.4819 38.6116L52.1136 56.98L55.1831 60.0495L74.6234 42.9966C75.8901 41.9248 75.9876 40.0246 74.9157 38.7578C74.8182 38.7091 74.7695 38.6603 74.7208 38.6116Z" fill="#251F30"/>
    <path d="M55.1343 60.5367C54.9882 60.5367 54.8907 60.4879 54.7933 60.3905L51.7238 57.321C51.5289 57.1261 51.5289 56.8338 51.7238 56.6389L70.0922 38.2705C71.4564 36.9063 73.6489 36.9063 75.0131 38.2705C76.3773 39.6347 76.3773 41.8272 75.0131 43.1915L74.867 43.3376L55.4267 60.3905C55.378 60.4879 55.2805 60.5367 55.1343 60.5367ZM52.7957 56.9799L55.1831 59.3673L74.2823 42.6068C75.3542 41.7298 75.4516 40.1219 74.5746 39.05C73.6976 37.9782 72.0898 37.8807 71.0179 38.7577C70.9692 38.8064 70.9204 38.8552 70.823 38.9039L52.7957 56.9799Z" fill="white"/>
    <path d="M38.0327 77.8819C37.8378 77.9793 37.7404 78.1742 37.7891 78.3691L38.6174 81.8771C38.8123 82.3644 38.52 82.949 37.984 83.0952C37.5942 83.2414 37.1557 83.0952 36.9121 82.8029L31.5526 77.4921L49.044 60.0007L55.0856 60.0982L59.1783 64.1909C58.2038 65.0192 52.3084 70.7197 38.0327 77.8819Z" fill="#251F30"/>
    <path d="M37.643 83.5823C37.2532 83.5823 36.8634 83.4362 36.6198 83.1438L31.309 77.8331C31.2116 77.7356 31.1629 77.6382 31.1629 77.492C31.1629 77.3459 31.2116 77.2484 31.309 77.151L48.8004 59.6596C48.8979 59.5622 49.044 59.5134 49.1415 59.5134L55.1831 59.6109C55.3292 59.6109 55.4267 59.6596 55.5241 59.757L59.6168 63.8497C59.7143 63.9472 59.763 64.0933 59.763 64.2395C59.763 64.3857 59.7143 64.4831 59.5681 64.5806L59.227 64.8729C54.0624 69.4041 47.0464 73.9353 38.3251 78.2716L39.1534 81.7309C39.2995 82.3643 39.0072 83.0464 38.4225 83.3875C38.1302 83.5336 37.8866 83.5823 37.643 83.5823ZM32.2835 77.492L37.3019 82.4617C37.4481 82.7053 37.7404 82.8028 37.984 82.6566C38.2276 82.5104 38.3251 82.2181 38.1789 81.9745L37.3506 78.4665C37.2532 78.028 37.4481 77.6382 37.8379 77.4433C46.4617 73.107 53.4291 68.6245 58.5449 64.1908L54.9394 60.5853L49.3364 60.4879L32.2835 77.492Z" fill="white"/>
    <path d="M27.4112 81.6821L31.6014 77.4919L37.8378 83.7284L27.8984 83.0463C27.4599 82.9976 27.1676 82.6078 27.2163 82.1693C27.2163 81.9744 27.2651 81.7795 27.4112 81.6821Z" fill="#251F30"/>
    <path d="M37.8378 84.1669L27.8497 83.4848C27.1189 83.4361 26.6317 82.8027 26.6804 82.0718C26.7291 81.7795 26.8266 81.4872 27.0702 81.2923L31.2603 77.1021C31.4552 76.9073 31.7475 76.9073 31.9424 77.1021L38.1789 83.3386C38.3251 83.4848 38.3738 83.6797 38.2764 83.8746C38.1789 84.0695 38.0327 84.1669 37.8378 84.1669ZM31.6014 78.174L27.7523 82.0231C27.6061 82.1206 27.6061 82.3642 27.7523 82.4616C27.801 82.5103 27.8497 82.5591 27.9472 82.5591L36.5711 83.1437L31.6014 78.174ZM47.3387 62.2418C47.0464 62.2418 46.8515 61.9982 46.8515 61.7546C46.8515 61.6084 46.9002 61.511 46.9977 61.4135L51.7238 56.6874C51.9187 56.4925 52.211 56.4925 52.4059 56.6874L55.4754 59.7569C55.6216 59.9031 55.6703 60.0493 55.6216 60.2442C55.5728 60.3903 55.4267 60.5365 55.2318 60.5852L47.4362 62.2418H47.3387ZM52.0648 57.7106L48.8491 60.9263L54.1112 59.8057L52.0648 57.7106Z" fill="white"/>
    <path d="M55.0856 60.0979L49.7261 61.2673C49.3364 61.3647 48.9466 61.1211 48.8491 60.7313C48.8004 60.4877 48.8491 60.2441 49.044 60.0492L52.0161 57.0771L55.0856 60.0979Z" fill="#251F30"/>
    <path d="M49.6287 61.7547C48.9466 61.7547 48.4106 61.2188 48.4106 60.5367C48.4106 60.1956 48.5568 59.9033 48.7517 59.6597L51.7238 56.6876C51.9187 56.4927 52.211 56.4927 52.4059 56.6876L55.4754 59.7571C55.6216 59.9033 55.6703 60.0494 55.6216 60.2443C55.5728 60.3905 55.4267 60.5367 55.2318 60.5854L49.8723 61.7547H49.6287ZM52.0648 57.7108L49.4338 60.3418C49.3364 60.4392 49.3364 60.5367 49.3851 60.6341C49.4338 60.7316 49.5312 60.7803 49.6774 60.7803L54.1599 59.8058L52.0648 57.7108ZM84.9525 31.157C84.8551 30.8647 84.514 30.7185 84.2217 30.816C83.9293 30.9134 83.7832 31.2545 83.8806 31.5468C83.8806 31.5955 83.9293 31.6442 83.9293 31.693C84.2217 32.2776 84.1242 33.0085 83.7344 33.5444C83.5396 33.788 83.5883 34.1291 83.7832 34.324C84.0268 34.5189 84.3678 34.4701 84.5627 34.2265C85.2936 33.3008 85.4397 32.1315 84.9525 31.157Z" fill="white"/>
</svg>
