<svg viewBox="0 0 180 60" fill="none" xmlns="http://www.w3.org/2000/svg">
    <path d="M47.6214 54.3085V53.4209H46.5188C45.5719 53.4209 45.1453 53.713 45.1453 54.2358V54.4545C45.1453 54.9873 45.5616 55.2906 46.2064 55.2906C47.0284 55.2906 47.6214 54.8621 47.6214 54.3085ZM48.5992 55.8755C47.9856 55.8755 47.7359 55.4994 47.6735 54.9979H47.6214C47.3923 55.6561 46.8203 56.0006 46.0712 56.0006C44.9371 56.0006 44.2714 55.3739 44.2714 54.3712C44.2714 53.3582 44.9995 52.7939 46.56 52.7939H47.6214V52.2615C47.6214 51.4987 47.2054 51.0808 46.3521 51.0808C45.707 51.0808 45.2804 51.3945 44.9892 51.8854L44.4899 51.4154C44.7811 50.8405 45.4262 50.3602 46.3936 50.3602C47.6838 50.3602 48.4537 51.0393 48.4537 52.1778V55.1443H49.0673V55.8755H48.5992ZM50.3057 55.8755V50.4857H51.1383V51.3633H51.1798C51.4398 50.7575 51.8976 50.3602 52.6985 50.3602C53.8014 50.3602 54.4983 51.1124 54.4983 52.4182V55.8755H53.6663V52.5645C53.6663 51.6036 53.2499 51.1124 52.4491 51.1124C51.7831 51.1124 51.1383 51.4466 51.1383 52.136V55.8755H50.3057ZM58.0985 55.8742V55.1439H59.1181V49.3154H58.0985V48.5844H61.0116V49.3154H59.992V55.1439H61.0116V55.8752L58.0985 55.8742ZM63.5295 55.1024H65.6829C66.4323 55.1024 66.8898 54.7055 66.8898 53.9742V53.6191C66.8898 52.8878 66.4323 52.4912 65.6829 52.4912H63.5295V55.1024ZM63.5295 51.739H65.5375C66.2241 51.739 66.6401 51.3733 66.6401 50.726V50.3705C66.6401 49.7229 66.2241 49.3575 65.5375 49.3575H63.5295V51.739ZM62.6554 48.5848H65.6411C66.8377 48.5848 67.5764 49.326 67.5764 50.4645C67.5764 51.5512 66.8795 51.9375 66.4007 52.0102V52.0733C66.921 52.1045 67.8261 52.5536 67.8261 53.7654C67.8261 54.9664 67.0252 55.8752 65.9535 55.8752H62.6554V48.5848ZM69.5014 48.5844H70.6667L72.7471 52.5115H72.7995L74.8905 48.5844H76.014V55.8752H75.1611V49.7332H75.1087L74.4951 50.9551L72.7577 54.1306L71.0203 50.9551L70.4064 49.7332H70.3543V55.8752H69.5014V48.5844ZM79.7282 52.2718C79.7282 49.8378 80.8205 48.459 82.6516 48.459C83.8581 48.459 84.6908 49.0442 85.1483 50.0572L84.4408 50.4857C84.1496 49.7336 83.5463 49.2426 82.6516 49.2426C81.4032 49.2426 80.6645 50.2351 80.6645 51.7284V52.8148C80.6645 54.3085 81.4032 55.2173 82.6516 55.2173C83.5772 55.2173 84.212 54.6948 84.5035 53.9012L85.2004 54.34C84.7426 55.3633 83.8581 56.0006 82.6516 56.0006C80.8205 56.0006 79.7282 54.7055 79.7282 52.2718ZM90.0799 53.5673V52.7942C90.0799 51.6557 89.4454 51.1021 88.551 51.1021C87.6562 51.1021 87.0217 51.6557 87.0217 52.7942V53.5673C87.0217 54.7055 87.6562 55.2594 88.551 55.2594C89.4454 55.2594 90.0799 54.7055 90.0799 53.5673ZM86.127 53.1806C86.127 51.4675 87.1151 50.3602 88.551 50.3602C89.9866 50.3602 90.975 51.4675 90.975 53.1806C90.975 54.8936 89.9866 56.0009 88.551 56.0009C87.1151 56.0009 86.127 54.8936 86.127 53.1806ZM92.4006 55.8755V50.4857H93.2329V51.3633H93.2741C93.5138 50.8093 93.8883 50.3602 94.7204 50.3602C95.4279 50.3602 96.073 50.6842 96.3641 51.4572H96.3851C96.5829 50.8724 97.1029 50.3602 98.0185 50.3602C99.1105 50.3602 99.7659 51.1124 99.7659 52.4182V55.8755H98.9336V52.5645C98.9336 51.6142 98.5697 51.1124 97.7582 51.1124C97.1029 51.1124 96.4996 51.4466 96.4996 52.136V55.8755H95.6669V52.5645C95.6669 51.6036 95.303 51.1124 94.5122 51.1124C93.8568 51.1124 93.2329 51.4466 93.2329 52.136V55.8755H92.4006ZM105.27 53.6397V52.7206C105.27 51.76 104.687 51.1121 103.751 51.1121C102.992 51.1121 102.367 51.5509 102.367 52.146V54.1518C102.367 54.8515 102.992 55.2485 103.751 55.2485C104.687 55.2485 105.27 54.6009 105.27 53.6397ZM101.535 50.4854H102.367V51.3627H102.409C102.69 50.6839 103.241 50.3599 103.98 50.3599C105.322 50.3599 106.165 51.4566 106.165 53.1803C106.165 54.9036 105.322 56.0006 103.98 56.0006C103.241 56.0006 102.731 55.6664 102.409 54.9976H102.367V57.9643H101.535V50.4854ZM110.545 54.3085V53.4209H109.443C108.496 53.4209 108.069 53.713 108.069 54.2358V54.4545C108.069 54.9873 108.485 55.2906 109.131 55.2906C109.952 55.2906 110.545 54.8621 110.545 54.3085ZM111.523 55.8755C110.909 55.8755 110.659 55.4994 110.597 54.9979H110.545C110.316 55.6561 109.744 56.0006 108.995 56.0006C107.861 56.0006 107.195 55.3739 107.195 54.3712C107.195 53.3582 107.924 52.7939 109.484 52.7939H110.545V52.2615C110.545 51.4987 110.129 51.0808 109.276 51.0808C108.631 51.0808 108.205 51.3945 107.913 51.8854L107.414 51.4154C107.705 50.8405 108.35 50.3602 109.317 50.3602C110.608 50.3602 111.378 51.0393 111.378 52.1778V55.1443H111.991V55.8755H111.523ZM113.23 55.8755V50.4857H114.062V51.3633H114.104C114.364 50.7575 114.821 50.3602 115.623 50.3602C116.725 50.3602 117.422 51.1124 117.422 52.4182V55.8755H116.59V52.5645C116.59 51.6036 116.174 51.1124 115.373 51.1124C114.707 51.1124 114.062 51.4466 114.062 52.136V55.8755H113.23ZM122.416 50.4857H123.238L120.834 57.1288C120.595 57.7767 120.377 57.9649 119.586 57.9649H119.159V57.2337H120.002L120.408 56.0846L118.4 50.4857H119.232L120.522 54.1521L120.772 55.0294H120.824L121.116 54.1521L122.416 50.4857Z" fill="white"/>
    <path d="M45.0401 28.3506C47.255 29.6847 50.1028 30.7521 52.3174 30.7521C55.3044 30.7521 56.9241 29.1386 56.9241 26.1778C56.9241 19.7097 44.4958 22.7086 44.4958 12.683C44.4958 7.40967 47.622 4.35962 53.0134 4.35962C55.9626 4.35962 58.4936 5.18572 60.7463 6.5327L59.3672 9.86175C57.4307 8.75633 55.3674 8.05757 53.3426 8.05757C50.5329 8.05757 48.875 9.49349 48.875 12.5813C48.875 19.138 61.3034 16.5586 61.3034 25.8473C61.3034 30.7902 58.7215 34.4372 52.3302 34.4372C49.8494 34.4372 46.4451 33.4204 43.8123 31.8069L45.0401 28.3506Z" fill="white"/>
    <path d="M45.0401 28.3506C47.255 29.6847 50.1028 30.7521 52.3174 30.7521C55.3044 30.7521 56.9241 29.1386 56.9241 26.1778C56.9241 19.7097 44.4949 22.7086 44.4949 12.683C44.4949 7.40967 47.622 4.35962 53.0133 4.35962C55.9626 4.35962 58.4936 5.18572 60.7463 6.5327L59.3672 9.86175C57.4307 8.75633 55.3674 8.05757 53.3426 8.05757C50.5329 8.05757 48.875 9.49349 48.875 12.5813C48.875 19.138 61.3034 16.5586 61.3034 25.8473C61.3034 30.7902 58.7215 34.4372 52.3302 34.4372C49.8494 34.4372 46.4451 33.4204 43.8123 31.8069L45.0401 28.3506ZM66.3031 15.3258L62.8479 15.1354V12.2764H66.3914L66.8093 4.84242H70.2644V12.2764H75.922L75.3649 15.3258H70.2516V26.4062C70.2516 29.5068 71.1248 30.8919 73.0613 30.8919C74.1627 30.8919 74.9975 30.6126 76.048 30.0658L76.8329 33.2554C75.3143 33.9922 74.1118 34.4628 72.087 34.4628C67.7586 34.4628 66.2903 31.3238 66.2903 27.0289V15.3258H66.3031ZM91.4762 21.0567C91.2864 17.3085 90.1473 15.2369 87.7046 15.2369C85.2241 15.2369 83.604 17.2698 83.2876 21.0567H91.4762ZM87.6159 11.8061C92.8175 11.8061 95.3995 16.101 95.3995 23.4077L95.1716 23.9158H83.2498C83.4396 28.4014 85.0846 30.8922 88.7676 30.8922C90.5143 30.8922 92.5014 30.244 93.9695 29.3162L94.9819 32.5566C93.0076 33.7637 90.9319 34.45 88.35 34.45C81.9968 34.45 79.0478 29.7862 79.0478 23.1789C79.0478 16.0121 82.3638 11.8061 87.6159 11.8061ZM107.499 30.8919C110.119 30.8919 112.245 28.2616 112.245 23.0772C112.245 17.9433 110.447 15.3639 108.385 15.3639C105.992 15.3639 104.524 17.3463 103.74 19.9385V29.2272C104.689 30.3454 106.018 30.8919 107.499 30.8919ZM103.714 43.4214L99.7531 43.421V12.2764H103.107L103.386 15.6054C104.487 13.2929 106.473 11.8189 109.27 11.8189C113.46 11.8189 116.408 16.0249 116.408 22.9502C116.408 30.0658 113.143 34.4497 107.853 34.4497C106.334 34.4497 104.816 34.0306 103.714 33.065V43.4214ZM119.598 32.7473L131.52 8.54037H120.332L120.243 4.84273H137V6.27834L125.078 30.3074H137.316V34.0053H119.598V32.7473Z" fill="white"/>
    <path d="M119.598 32.7473L131.52 8.54041H120.332L120.243 4.8434L137 4.84277V6.27838L125.078 30.3074H137.316V34.0053H119.598V32.7473Z" fill="white"/>
    <path d="M119.598 32.7473L131.52 8.54041H120.332L120.243 4.8434L137 4.84277V6.27838L125.078 30.308H137.316V34.006L119.598 34.0057V32.7473ZM152.922 21.0568C152.732 17.3086 151.593 15.2369 149.151 15.2369C146.67 15.2369 145.05 17.2699 144.733 21.0568H152.922ZM149.049 11.8061C154.251 11.8061 156.833 16.1011 156.833 23.4077L156.605 23.9158H144.683C144.873 28.4015 146.518 30.8923 150.201 30.8923C151.948 30.8923 153.935 30.244 155.403 29.3162L156.415 32.5566C154.441 33.7638 152.365 34.4501 149.783 34.4501C143.43 34.4501 140.481 29.7862 140.481 23.179C140.494 16.0121 143.81 11.8061 149.049 11.8061ZM161.199 12.2764H164.553L164.831 15.6944C166.033 13.2929 168.286 11.8189 170.818 11.8189C175.096 11.8189 177.082 14.9573 177.082 20.269V33.9925H173.121V20.9169C173.121 17.0795 171.969 15.3767 169.856 15.3767C167.603 15.3767 166.033 17.5495 165.16 19.9516V33.9925H161.199V12.2764Z" fill="white"/>
    <path d="M16.0067 15.0465C16.0067 14.589 16.0954 14.1443 16.2726 13.7248C16.4391 13.3206 16.6844 12.9535 16.9942 12.645C17.3106 12.327 17.6652 12.0858 18.0703 11.9207C18.4863 11.7434 18.9341 11.6525 19.3863 11.6535H20.7405L23.8667 8.51514H19.3988C18.5256 8.51514 17.6652 8.69303 16.8678 9.02322C16.0945 9.35527 15.3904 9.82953 14.7921 10.4214C14.1967 11.0185 13.7238 11.7263 13.4002 12.5049C13.0581 13.3182 12.8936 14.1696 12.8936 15.0465V19.5322L16.0195 16.3932V15.0469H16.007L16.0067 15.0465Z" fill="white"/>
    <path d="M37.206 1.76733V3.44481C37.206 3.68637 37.143 3.94041 37.0035 4.1311C36.8137 4.41073 36.6493 4.57583 36.4595 4.76651C36.0291 5.19845 35.5991 5.5923 35.1687 6.02423L33.9662 7.2314C33.3628 7.83696 32.7595 8.44272 32.1564 9.04869L18.7406 22.5178L7.45142 33.8654H20.3357C21.6518 33.8654 22.9173 33.6111 24.1195 33.103C24.6966 32.8576 25.2479 32.5553 25.7651 32.2007C26.2838 31.8574 26.7648 31.4508 27.2079 31.0061C27.6486 30.5614 28.0468 30.0766 28.3973 29.558C28.7509 29.0383 29.0519 28.4849 29.2961 27.9058C29.8023 26.6986 30.0554 25.4278 30.0554 24.1064V15.6179L33.1813 12.4792V24.1192C33.1813 24.9961 33.093 25.8606 32.9157 26.7114C32.7479 27.5433 32.4978 28.3564 32.1692 29.1388C31.848 29.906 31.4493 30.6383 30.9792 31.3244C30.5236 32.0104 29.9921 32.6458 29.41 33.2303C28.8277 33.8149 28.1948 34.3485 27.5116 34.8061C26.8281 35.2761 26.0938 35.6699 25.3348 36.0004C24.5573 36.334 23.7471 36.5852 22.9173 36.7501C22.0694 36.928 21.1962 37.0169 20.3357 37.0169H2.09784V35.3394C2.09784 35.1362 2.1484 34.9331 2.23703 34.7552C2.36374 34.5139 2.56629 34.2593 2.76883 34.0692C4.03435 32.8109 3.21169 33.637 3.42672 33.421C3.84429 33.0016 3.42672 33.4338 4.67976 32.201L5.85664 31.0192L6.94521 29.9265L7.95763 28.9101L8.8939 27.9694L9.76744 27.0928L10.5648 26.2926L12.5772 24.2718L13.1339 23.7132C13.4463 23.3998 13.7584 23.0863 14.0702 22.7725L14.4756 22.3659L14.8302 22.0101L15.1335 21.7049C15.2224 21.6162 15.3108 21.527 15.3997 21.438L15.6275 21.2096L15.8301 21.0061L15.9942 20.8407C16.0789 20.7563 16.1634 20.6718 16.2477 20.587C16.2726 20.5614 16.3107 20.5233 16.336 20.498L16.3993 20.4343L16.4502 20.3835L16.7411 20.0914L31.8649 4.91944H18.9816C17.6652 4.91944 16.3996 5.17348 15.1975 5.68156C14.6204 5.92682 14.0693 6.22896 13.5521 6.5835C13.0331 6.9268 12.5522 7.33345 12.109 7.77818C11.6682 8.22286 11.27 8.70789 10.9197 9.22689C10.5661 9.74643 10.2651 10.2998 10.0209 10.8788C9.51464 12.0859 9.26154 13.3568 9.26154 14.6782V23.1664L6.13534 26.3047V14.6778C6.13534 13.8009 6.22366 12.9242 6.40093 12.0856C6.5687 11.254 6.81877 10.441 7.14745 9.65883C7.46853 8.89153 7.86727 8.15909 8.33744 7.47295C8.79309 6.78667 9.32458 6.15125 9.90663 5.56702C10.489 4.98248 11.1219 4.44849 11.8051 3.99097C12.4885 3.52096 13.2229 3.12711 13.9819 2.79692C14.7593 2.46328 15.5696 2.21193 16.3993 2.04697C17.2485 1.86956 18.1137 1.78015 18.9813 1.78013H37.206V1.76733Z" fill="white"/>
    <path d="M23.2971 23.7379C23.2971 24.1954 23.2085 24.6398 23.0312 25.0592C22.8648 25.4636 22.6195 25.8308 22.3097 26.1394C21.9935 26.4574 21.6387 26.6987 21.2339 26.8634C20.8163 27.0416 20.3732 27.1309 19.9175 27.1309H18.5762L15.4503 30.2693H19.9175C20.7911 30.2693 21.6515 30.0914 22.4489 29.7609C23.2221 29.429 23.9262 28.955 24.5246 28.3633C25.12 27.7661 25.5928 27.0582 25.9165 26.2795C26.2542 25.4749 26.4266 24.6105 26.4233 23.7379V19.2522L23.2968 22.3909L23.2971 23.7379Z" fill="white"/>
</svg>
