<svg viewBox="0 0 206 52" fill="none" xmlns="http://www.w3.org/2000/svg">
    <g clip-path="url(#clip0_706_5934)">
        <path d="M73.7646 36.3439V20.0468H79.2065V16.115H64.22V20.0468H69.6049V36.3439H73.7646ZM85.3321 36.3439V29.392C85.3321 26.6568 86.6997 25.3462 88.4947 25.3462C90.1187 25.3462 91.0019 26.5999 91.0019 28.6512V36.3439H94.9053V27.9959C94.9053 24.2921 92.8539 21.7848 89.4064 21.7848C87.5545 21.7848 86.0729 22.5826 85.3321 23.7222V14.9753H81.4288V36.3439H85.3321ZM105.048 36.6573C108.667 36.6573 111.487 34.5775 112.342 31.6998H108.268C107.812 32.6685 106.615 33.2669 105.248 33.2669C102.826 33.2669 101.572 31.8138 101.401 30.1328H112.513C112.712 24.7764 109.265 21.7848 105.077 21.7848C100.746 21.7848 97.5835 24.9474 97.5835 29.1926C97.5835 33.5233 100.689 36.6573 105.048 36.6573ZM108.239 27.5686H101.544C101.914 26.0015 103.168 24.9474 104.963 24.9474C106.302 24.9474 107.755 25.6596 108.239 27.5686ZM131.716 36.6858C137.728 36.6858 142.6 32.5546 141.688 24.2351H131.232V28.1099H137.415C136.959 30.9021 134.993 32.697 131.716 32.697C127.784 32.697 125.22 29.8479 125.22 26.2295C125.22 22.6111 127.784 19.7619 131.659 19.7619C133.597 19.7619 135.477 20.6167 136.474 22.0982H141.204C139.836 18.2804 135.904 15.7731 131.659 15.7731C125.534 15.7731 121.06 20.3602 121.06 26.2295C121.06 32.0987 125.534 36.6858 131.716 36.6858ZM148.498 36.3439V29.5345C148.498 27.1982 149.723 25.7451 151.575 25.7451C152.202 25.7451 152.743 25.8591 153.341 26.0585V22.0982C152.915 21.9768 152.474 21.9191 152.031 21.9273C150.435 21.9273 148.982 22.9814 148.498 24.3775V22.0982H144.594V36.3439H148.498ZM161.119 36.6573C163.085 36.6573 164.595 35.6601 165.222 34.7484V36.3439H169.126V22.0982H165.222V23.6937C164.595 22.782 163.085 21.7848 161.119 21.7848C157.33 21.7848 154.424 25.1753 154.424 29.2211C154.424 33.2669 157.33 36.6573 161.119 36.6573ZM161.946 33.0959C159.809 33.0959 158.356 31.4434 158.356 29.2211C158.356 26.9987 159.809 25.3462 161.946 25.3462C164.083 25.3462 165.536 26.9987 165.536 29.2211C165.536 31.4434 164.083 33.0959 161.946 33.0959ZM176.818 42.2987V34.7484C177.474 35.6601 178.984 36.6573 180.949 36.6573C184.739 36.6573 187.645 33.2669 187.645 29.2211C187.645 25.1753 184.739 21.7848 180.949 21.7848C178.984 21.7848 177.474 22.782 176.818 23.6937V22.0982H172.915V42.2987H176.818ZM180.095 33.0959C177.958 33.0959 176.505 31.4434 176.505 29.2211C176.505 26.9987 177.958 25.3462 180.095 25.3462C182.232 25.3462 183.685 26.9987 183.685 29.2211C183.685 31.4434 182.232 33.0959 180.095 33.0959ZM194.397 36.3439V29.392C194.397 26.6568 195.765 25.3462 197.56 25.3462C199.184 25.3462 200.067 26.5999 200.067 28.6512V36.3439H203.971V27.9959C203.971 24.2921 201.919 21.7848 198.472 21.7848C196.62 21.7848 195.138 22.5826 194.397 23.7222V14.9753H190.494V36.3439H194.397Z" fill="white"/>
        <path d="M26.2313 51.381C40.2183 51.381 51.5571 40.0423 51.5571 26.0552C51.5571 12.0682 40.2183 0.729492 26.2313 0.729492C12.2443 0.729492 0.905579 12.0682 0.905579 26.0552C0.905579 40.0423 12.2443 51.381 26.2313 51.381Z" fill="white"/>
        <path d="M26.2313 51.381C40.2183 51.381 51.5571 40.0423 51.5571 26.0552C51.5571 12.0682 40.2183 0.729492 26.2313 0.729492C12.2443 0.729492 0.905579 12.0682 0.905579 26.0552C0.905579 40.0423 12.2443 51.381 26.2313 51.381Z" fill="white"/>
        <mask id="mask0_706_5934" style="mask-type:luminance" maskUnits="userSpaceOnUse" x="0" y="0" width="52" height="52">
            <path d="M26.2313 51.381C40.2183 51.381 51.5571 40.0423 51.5571 26.0552C51.5571 12.0682 40.2183 0.729492 26.2313 0.729492C12.2443 0.729492 0.905579 12.0682 0.905579 26.0552C0.905579 40.0423 12.2443 51.381 26.2313 51.381Z" fill="white"/>
        </mask>
        <g mask="url(#mask0_706_5934)">
            <path fill-rule="evenodd" clip-rule="evenodd" d="M35.5195 33.2113C36.1368 33.8255 36.1796 34.7942 35.6509 35.459L35.5195 35.6062L28.718 42.3777C28.0532 43.0377 26.9768 43.0377 26.312 42.3777C25.6963 41.7635 25.652 40.7948 26.1806 40.13L26.3136 39.9828L33.1151 33.2113C33.7799 32.5513 34.8563 32.5513 35.5195 33.2113ZM25.815 12.4031C31.45 12.4031 36.0165 16.9506 36.0165 22.5603C36.0165 28.1684 31.45 32.7159 25.815 32.7159C20.18 32.7159 15.6135 28.1684 15.6135 22.5603C15.6135 16.9506 20.18 12.4031 25.815 12.4031ZM25.815 15.7888C22.0589 15.7888 19.0134 18.82 19.0134 22.5603C19.0134 26.299 22.0589 29.3302 25.815 29.3302C29.5711 29.3302 32.6165 26.299 32.6165 22.5603C32.6165 18.82 29.5711 15.7888 25.815 15.7888ZM37.7181 12.4031C38.6567 12.4031 39.4181 13.1613 39.4181 14.0967C39.4181 15.0306 38.6567 15.7888 37.7181 15.7888C37.4951 15.7894 37.2742 15.7461 37.068 15.6613C36.8618 15.5765 36.6743 15.4519 36.5163 15.2946C36.3583 15.1373 36.2328 14.9504 36.147 14.7446C36.0613 14.5388 36.0169 14.3181 36.0165 14.0952C36.0165 13.1613 36.7779 12.4031 37.7181 12.4031Z" fill="#251F30"/>
        </g>
    </g>
    <defs>
        <clipPath id="clip0_706_5934">
            <rect width="204.189" height="50.6515" fill="white" transform="translate(0.905579 0.729492)"/>
        </clipPath>
    </defs>
</svg>
