<?xml version="1.0" encoding="UTF-8"?>
<svg id="b" data-name="LOGO WHITE" xmlns="http://www.w3.org/2000/svg" width="687.96" height="356.72" viewBox="0 0 687.96 356.72">
  <defs>
    <style>
      .c {
        fill: #fff;
      }

      .d {
        fill: #20edba;
      }
    </style>
  </defs>
  <path class="c" d="m313.93,6.91c-4.48-4.67-10.33-6.91-17.05-6.91H101.08v23.68c0,6.39,2.24,11.93,6.89,16.42,4.65,4.67,10.5,7.09,17.22,7.09h62.51v237.99l22.9.17c6.72,0,12.57-2.42,17.05-6.91,4.65-4.67,7.06-10.37,7.06-16.59V47.36l86.28-.17v-21.96c-.17-6.22-2.41-13.48-7.06-18.32Z"/>
  <path class="c" d="m438.26,87.11c-6.72,0-12.57,2.25-17.05,6.91-4.65,4.67-7.06,10.37-7.06,16.59v94.88c-8.27,23.33-33.41,34.57-60.44,34.57-22.39,0-33.24-10.54-33.24-31.97v-97.48c0-6.22-2.41-11.75-7.06-16.59-4.48-4.67-10.33-6.91-17.05-6.91h-22.9v125.47c0,48.22,24.45,72.76,75.08,72.76,24.97,0,52.18-8.81,65.27-25.92-1.03,15.21-2.76,23.16-11.19,34.57-9.47,12.79-28.07,17.63-47.53,17.63s-36.51-3.63-56.14-11.06c-3.27-.86-6.37-1.21-8.95-1.21-10.68,0-16.53,5.88-16.53,16.59v19.36l1.38.86c22.39,13.65,48.56,20.57,80.25,20.57,65.78,0,105.91-36.12,105.91-107.5V87.11h-22.75Z"/>
  <path class="c" d="m653.87,198.24c-3.44-10.54-7.58-12.1-12.57-16.76,2.24-2.94,4.99-8.47,8.95-20.22l29.62-73.97h-26.87c-14.64,0-24.11,6.05-27.9,17.8l-20.15,47.18c-1.55,3.98-6.2,5.88-13.78,5.88h-43.91l.17-134.98c0-6.22-2.07-11.41-6.72-16.25C536.23,2.25,530.38.01,523.66.01h-23.25v285.16h23.08c6.72,0,12.57-2.42,17.22-7.09,4.48-4.49,6.89-10.02,6.89-16.42l-.34-55.82h52.01c7.41,0,9.3,3.46,10.16,6.05l24.11,56.52c3.62,11.23,12.92,16.76,27.72,16.76h26.69l-34.1-86.93h.02Z"/>
  <path class="d" d="m124.85,136.71c-2.76-32.15-29.1-57.38-61.48-57.73H0v66.02c1.38,33.01,27.55,59.63,60.27,60.84h64.75v-68.96c0-.17-.17-.17-.17-.17Z"/>
</svg>