<svg viewBox="0 0 175 42" fill="none" xmlns="http://www.w3.org/2000/svg">
    <g clip-path="url(#clip0_706_6174)">
        <path opacity="0.975" d="M21.8493 1.41216C22.7531 2.81241 23.6416 4.22246 24.5147 5.64209C24.4503 5.68647 24.4117 5.74442 24.3988 5.81592C23.1957 5.45087 21.9475 5.25584 20.6904 5.23648C20.7555 5.00516 20.6976 4.77339 20.5166 4.54115C19.863 3.45757 19.1472 2.41282 18.3726 1.41216C19.5268 1.26528 20.695 1.26528 21.8493 1.41216Z" fill="white"/>
        <path opacity="0.983" d="M18.3726 1.41211C19.1471 2.41277 19.863 3.45752 20.5165 4.54109C20.6975 4.77333 20.7555 5.00511 20.6903 5.23642C19.4885 5.21517 18.2869 5.29269 17.0978 5.4682C16.4439 4.38488 15.7872 3.30326 15.1277 2.22333C15.1698 2.14406 15.2083 2.06688 15.2436 1.99155C16.2647 1.69469 17.3129 1.50058 18.3726 1.41211Z" fill="white"/>
        <path opacity="0.974" d="M21.8492 1.41211C23.1484 1.48036 24.4335 1.71402 25.6736 2.10744L32.0474 12.3056C30.6682 12.0662 29.7218 11.2936 29.2082 9.98785C28.989 9.31372 28.8718 8.61062 28.8605 7.90186C27.5147 6.91032 26.0274 6.21499 24.3988 5.81587C24.4117 5.74436 24.4502 5.68642 24.5147 5.64203C23.6416 4.22241 22.7531 2.81235 21.8492 1.41211Z" fill="white"/>
        <path opacity="0.984" d="M15.2436 1.99146C15.2084 2.06678 15.1698 2.14396 15.1278 2.22323C15.7872 3.30316 16.4439 4.38479 17.0979 5.46811C16.2165 5.76134 15.3277 6.03184 14.4324 6.27932C13.6786 5.23644 12.9822 4.1532 12.3464 3.03445C13.2607 2.57495 14.2264 2.22729 15.2436 1.99146Z" fill="white"/>
        <path opacity="0.983" d="M25.6736 2.10742C27.7122 2.7309 29.6243 3.61942 31.4101 4.77285C33.8026 4.09595 35.5409 4.86846 36.625 7.09062C37.2261 9.34442 36.5115 11.0248 34.4811 12.1318C33.6688 12.4216 32.8576 12.4795 32.0474 12.3056L25.6736 2.10742Z" fill="white"/>
        <path opacity="0.978" d="M12.3465 3.03467C12.9823 4.15342 13.6786 5.23666 14.4324 6.27954L12.1147 7.43843C11.4078 6.43251 10.7124 5.40876 10.0287 4.36738C10.0931 4.323 10.1318 4.26505 10.1446 4.19355C10.8228 3.7191 11.5567 3.33285 12.3465 3.03467Z" fill="white"/>
        <path opacity="0.96" d="M10.1445 4.1936C10.1318 4.26511 10.0931 4.32305 10.0286 4.36744C10.7124 5.40881 11.4077 6.43257 12.1146 7.43848C11.5071 7.89057 10.9082 8.35421 10.3184 8.82914C9.60564 7.61428 8.582 6.78371 7.24731 6.33754C8.13571 5.50546 9.10153 4.79078 10.1445 4.1936Z" fill="white"/>
        <path opacity="0.965" d="M14.5483 23.0832C14.3659 23.0326 14.2307 22.9167 14.1427 22.7356C10.9867 17.6942 7.79966 12.6723 4.58191 7.67009C7.55966 7.19263 9.25928 8.4674 9.681 11.4944C9.58527 12.2607 9.41144 12.9947 9.1595 13.6963C10.9827 16.8097 12.7791 19.9388 14.5483 23.0832Z" fill="white"/>
        <path opacity="0.996" d="M4.58191 7.67017C7.79966 12.6724 10.9867 17.6943 14.1427 22.7357C14.2307 22.9168 14.3659 23.0327 14.5483 23.0833C14.9156 23.5855 15.2246 24.1263 15.4754 24.7058C16.1491 25.9017 16.884 27.0622 17.6773 28.1824C17.3526 28.9102 16.9648 29.6082 16.5184 30.2684C12.0284 23.0262 7.50873 15.8024 2.95947 8.59727C3.39104 8.11066 3.93178 7.8017 4.58191 7.67017Z" fill="white"/>
        <path opacity="0.996" d="M2.95943 8.59717C7.50868 15.8023 12.0284 23.0261 16.5184 30.2683C16.4299 30.4848 16.3141 30.678 16.1707 30.8477C15.9432 30.8387 15.7694 30.6842 15.6492 30.3842L2.7856 9.98783C2.68408 9.74041 2.51025 9.58581 2.2641 9.52427C2.36295 9.11635 2.59473 8.80727 2.95943 8.59717Z" fill="white"/>
        <path opacity="0.981" d="M5.16132 24.0103C5.04589 24.0203 4.94924 23.9816 4.8716 23.8944C3.61754 21.9234 2.36208 19.9533 1.10522 17.9841C1.14034 16.9556 1.37212 15.9899 1.80055 15.0869C2.72221 16.0306 3.84251 16.5713 5.16132 16.7094C4.94714 18.0345 4.79247 19.3685 4.69776 20.7075C4.75188 21.8202 4.90704 22.9257 5.16132 24.0103Z" fill="white"/>
        <path opacity="0.932" d="M2.26415 9.52417C2.5103 9.58571 2.68413 9.7403 2.78565 9.98772L15.6493 30.3841C15.7694 30.6841 15.9433 30.8386 16.1708 30.8476C16.0295 31.2478 15.7904 31.6063 15.4754 31.8906C12.3033 26.4577 9.155 21.0108 6.03052 15.5504C2.86851 15.2098 1.47785 13.4714 1.85854 10.3354C1.93619 10.0255 2.07143 9.75514 2.26415 9.52417Z" fill="white"/>
        <path opacity="0.975" d="M25.3259 23.6627C25.9991 24.6981 26.6752 25.7411 27.3539 26.7917C27.4099 26.9015 27.4291 27.0174 27.4119 27.1393C26.9497 27.986 26.4862 28.8359 26.0212 29.6889C25.9058 29.6988 25.8093 29.6601 25.7315 29.573C23.5025 25.9996 21.2426 22.4455 18.952 18.9113C19.2467 18.2048 19.6366 17.542 20.1109 16.9412C21.6089 19.4344 23.0769 21.9455 24.5147 24.4739C24.5728 24.5922 24.65 24.6116 24.7464 24.5318C24.8992 24.2046 25.0924 23.9149 25.3259 23.6627Z" fill="white"/>
        <path opacity="0.983" d="M1.10521 17.9841C2.36207 19.9533 3.61752 21.9234 4.87158 23.8944C4.94923 23.9816 5.04588 24.0203 5.1613 24.0103C5.66658 26.4886 6.72893 28.6905 8.34823 30.616C9.15939 31.4468 9.99016 32.2582 10.8398 33.0496C10.7891 33.0421 10.7504 33.0613 10.7239 33.1076C11.9834 35.1452 13.2582 37.1733 14.5483 39.1917C8.93509 37.3843 4.89835 33.7918 2.43793 28.4141C1.00601 25.0464 0.561695 21.5697 1.10521 17.9841Z" fill="white"/>
        <path opacity="0.968" d="M115.371 23.6628C114.465 23.5478 113.538 23.5091 112.59 23.5469C113.205 20.9429 114.827 19.3784 117.457 18.8534C118.95 18.6968 120.418 18.8126 121.861 19.2011C123.458 19.8852 124.347 21.0633 124.526 22.7357C123.65 23.0173 122.761 23.1332 121.861 23.0834C121.02 21.3788 119.668 20.78 117.805 21.2871C116.625 21.7141 115.813 22.5061 115.371 23.6628Z" fill="white"/>
        <path opacity="0.978" d="M18.952 18.9111C21.2426 22.4454 23.5025 25.9994 25.7315 29.5729C25.8093 29.66 25.9058 29.6987 26.0212 29.6887C25.5876 30.4412 25.1236 31.1757 24.6306 31.8906C23.1326 29.3974 21.6646 26.8863 20.2268 24.3579C20.1686 24.2396 20.0914 24.2202 19.995 24.2999C19.8643 24.504 19.7481 24.7169 19.6474 24.9373C19.4649 24.8867 19.3297 24.7708 19.2417 24.5897C18.6248 23.5724 17.9873 22.5679 17.3296 21.5766C17.8398 20.6698 18.381 19.7808 18.952 18.9111Z" fill="white"/>
        <path opacity="0.982" d="M29.0343 18.9112C29.2509 18.9883 29.4827 19.0654 29.7297 19.143C30.4534 20.2453 31.149 21.3659 31.8157 22.5037C31.2336 22.4656 30.6491 22.5046 30.0773 22.6196C29.7995 23.1404 29.4899 23.6435 29.1502 24.1262C28.9678 24.0755 28.8326 23.9596 28.7446 23.7785C28.1678 22.7741 27.5292 21.8066 26.8325 20.8813C27.1936 20.229 27.5802 19.5911 27.9913 18.9691C28.3358 18.9115 28.6856 18.892 29.0343 18.9112Z" fill="white"/>
        <path opacity="0.976" d="M29.0344 18.9111H32.9746C33.6107 19.9509 34.2481 20.9939 34.8867 22.0401C35.0918 22.2831 35.343 22.4377 35.64 22.5037H31.8157C31.149 21.3659 30.4535 20.2453 29.7297 19.1429C29.4965 19.07 29.2647 18.9927 29.0344 18.9111Z" fill="white"/>
        <path opacity="0.99" d="M32.9745 18.9111H36.3353C37.3093 20.514 38.3139 22.0981 39.3484 23.6626C39.1968 25.0042 38.8492 26.279 38.3054 27.4869C37.581 26.2334 36.8275 24.9969 36.0456 23.7784C35.9441 23.531 35.7702 23.3764 35.5241 23.3149C35.5007 23.031 35.5393 22.7606 35.64 22.5037C35.343 22.4377 35.0918 22.2831 34.8867 22.0401C34.2498 20.9968 33.6124 19.9538 32.9745 18.9111Z" fill="white"/>
        <path opacity="0.964" d="M36.3353 18.9112C37.4074 18.8744 38.4696 18.9129 39.5223 19.0271C39.6243 20.5741 39.566 22.1276 39.3484 23.6626C38.3139 22.0982 37.3093 20.5141 36.3353 18.9112Z" fill="white"/>
        <path opacity="0.99" d="M158.829 23.6626C158.822 23.7255 158.784 23.7641 158.713 23.7784C158.292 23.6327 157.847 23.5554 157.381 23.5467C156.907 23.5555 156.463 23.6328 156.048 23.7784V18.9111H158.713C158.675 20.5155 158.713 22.0992 158.829 23.6626Z" fill="white"/>
        <path opacity="0.968" d="M46.6494 23.5467C45.7592 23.5116 44.8677 23.5504 43.984 23.6626C43.5433 22.0925 43.1568 20.5078 42.8251 18.9111H45.7223C46.0164 20.4592 46.3255 22.0045 46.6494 23.5467Z" fill="white"/>
        <path opacity="0.98" d="M54.0662 22.1561H49.1989C49.4148 21.0997 49.6855 20.0553 50.0101 19.0271C51.118 18.8744 52.219 18.8744 53.3129 19.0271C53.5823 20.0656 53.8334 21.1087 54.0662 22.1561Z" fill="white"/>
        <path opacity="0.971" d="M59.2812 23.5467H56.4999C56.884 22.0099 57.2317 20.4643 57.5429 18.9111H60.3242C60.0132 20.4643 59.6654 22.0099 59.2812 23.5467Z" fill="white"/>
        <path opacity="0.996" d="M92.8888 23.5467H90.2234V18.9111H92.8888V23.5467Z" fill="white"/>
        <path opacity="0.973" d="M26.8325 20.8813C27.5292 21.8066 28.1678 22.7742 28.7446 23.7786C28.8326 23.9597 28.9678 24.0756 29.1502 24.1262C28.6318 25.1645 28.0513 26.1707 27.4119 27.1393C27.4297 27.0202 27.4094 26.8985 27.354 26.7917C26.6794 25.7477 26.0034 24.7047 25.3259 23.6627C25.7667 22.7036 26.27 21.7745 26.8325 20.8813Z" fill="white"/>
        <path opacity="0.977" d="M49.1989 22.156H54.0662C54.2178 22.608 54.3337 23.0715 54.4139 23.5467H51.8644C51.785 23.2704 51.6882 22.9995 51.5746 22.7354C51.4984 23.0127 51.4015 23.2838 51.2849 23.5467H48.8513C48.8974 23.0529 49.0133 22.5893 49.1989 22.156Z" fill="white"/>
        <path opacity="0.972" d="M17.3296 21.5767C17.9874 22.568 18.6249 23.5725 19.2418 24.5898C19.3297 24.7709 19.465 24.8868 19.6474 24.9374C18.9913 26.0194 18.3346 27.101 17.6773 28.1823C16.884 27.0621 16.1491 25.9016 15.4754 24.7056C16.1239 23.681 16.7422 22.6375 17.3296 21.5767Z" fill="white"/>
        <path opacity="0.907" d="M102.044 23.5469H96.0178C96.8413 22.731 97.8457 22.3447 99.0309 22.388C100.2 22.3907 101.204 22.7771 102.044 23.5469Z" fill="white"/>
        <path opacity="0.916" d="M141.678 23.5465H134.84C135.181 23.1436 135.606 22.8539 136.115 22.6774C137.673 22.2669 139.219 22.3055 140.751 22.7933C141.149 22.9409 141.458 23.192 141.678 23.5465Z" fill="white"/>
        <path opacity="0.975" d="M164.16 23.5468H158.945C159.628 22.7715 160.497 22.3853 161.553 22.388C162.172 22.4036 162.783 22.5414 163.349 22.7936C163.672 22.9818 163.949 23.239 164.16 23.5468Z" fill="white"/>
        <path opacity="0.981" d="M35.5241 23.3149C35.7702 23.3765 35.9441 23.5311 36.0456 23.7785C36.8275 24.9969 37.581 26.2334 38.3054 27.4869C37.9944 28.5336 37.5308 29.4993 36.9148 30.3841C36.0471 29.1694 35.2723 27.891 34.597 26.5598C34.9412 25.4886 35.2504 24.4064 35.5241 23.3149Z" fill="white"/>
        <path opacity="0.981" d="M90.2233 23.5469H92.7729V25.0534H89.528C88.5301 24.2557 87.5644 24.2944 86.6308 25.1693C85.6863 25.0542 84.7206 25.0156 83.7336 25.0534C84.4989 23.1243 85.9282 22.2552 88.0215 22.4459C88.8838 22.5969 89.5985 23.0025 90.1654 23.6627C90.2116 23.6363 90.2309 23.5976 90.2233 23.5469Z" fill="white"/>
        <path opacity="0.973" d="M130.437 25.0534H127.076V22.6198H129.51C129.49 23.008 129.51 23.3942 129.567 23.7786C130.591 22.2619 131.885 21.9915 133.45 22.9674C133.18 23.6627 132.909 24.3581 132.639 25.0534L132.465 25.1693C131.806 24.7608 131.13 24.7222 130.437 25.0534Z" fill="white"/>
        <path opacity="0.961" d="M46.6494 23.5469C46.8095 24.0378 46.9258 24.542 46.997 25.0535H44.2157L43.9839 23.6628C44.8677 23.5506 45.7592 23.5119 46.6494 23.5469Z" fill="white"/>
        <path opacity="0.965" d="M48.8512 23.5469H51.2849C51.2241 24.0602 51.1075 24.5654 50.9372 25.0534H48.3877C48.4906 24.5235 48.6451 24.0213 48.8512 23.5469Z" fill="white"/>
        <path opacity="0.964" d="M51.8643 23.5469H54.4139C54.5841 24.0349 54.7007 24.5401 54.7615 25.0534H52.212C52.0779 24.5556 51.962 24.0531 51.8643 23.5469Z" fill="white"/>
        <path opacity="0.969" d="M56.4999 23.5469H59.2812C59.1637 24.0976 59.0088 24.6396 58.8177 25.1693C57.9893 25.0544 57.1395 25.0158 56.2681 25.0534C56.3269 24.5482 56.4041 24.046 56.4999 23.5469Z" fill="white"/>
        <path opacity="0.997" d="M63.9167 22.7356C63.8019 23.4864 63.7633 24.259 63.8008 25.0533H61.2513V22.6197C62.1612 22.582 63.0496 22.6206 63.9167 22.7356Z" fill="white"/>
        <path opacity="0.964" d="M70.0588 25.0533C69.1385 25.1206 68.25 25.0433 67.3934 24.8215V22.6196H70.0588V25.0533Z" fill="white"/>
        <path opacity="0.979" d="M81.3 24.8215C80.4196 25.0495 79.4925 25.1268 78.5186 25.0533C77.6338 24.2896 76.7453 24.2896 75.8532 25.0533H72.6083V22.6196H75.042C75.0229 23.0079 75.0422 23.3941 75.0999 23.7785C76.3944 22.4688 77.9203 22.1017 79.6775 22.6776C80.6535 23.0661 81.1944 23.7806 81.3 24.8215Z" fill="white"/>
        <path opacity="0.977" d="M96.0178 23.5469H102.044C102.494 23.8681 102.804 24.2931 102.971 24.8216C102.612 24.9747 102.206 25.052 101.754 25.0534C101.269 25.0462 100.786 25.0075 100.306 24.9375C99.4246 24.2928 98.5747 24.3316 97.7561 25.0534H94.9748C95.1799 24.4493 95.5276 23.947 96.0178 23.5469Z" fill="white"/>
        <path opacity="0.959" d="M108.765 25.1691C108.245 25.0919 107.705 25.0533 107.143 25.0532C106.535 25.0596 105.955 25.1369 105.405 25.285V22.6196H107.954C107.935 22.9683 107.955 23.3181 108.012 23.6626C109.042 22.2494 110.298 22.0177 111.779 22.9672C111.543 23.6945 111.272 24.41 110.967 25.1112C110.562 24.9839 110.137 24.8874 109.693 24.8215C109.331 24.8099 109.022 24.9258 108.765 25.1691Z" fill="white"/>
        <path opacity="0.971" d="M112.59 23.5467C113.538 23.5089 114.465 23.5476 115.371 23.6626C115.33 24.1475 115.253 24.611 115.139 25.0533C114.211 25.0885 113.281 25.0497 112.358 24.9374C112.363 24.4468 112.44 23.9833 112.59 23.5467Z" fill="white"/>
        <path opacity="0.972" d="M134.84 23.5469H141.678C142.064 23.9623 142.256 24.4646 142.257 25.0534H139.592C139.222 24.6264 138.739 24.4333 138.143 24.474C137.309 24.3978 136.749 24.7455 136.463 25.517L136.115 25.6329C135.424 25.4919 134.728 25.3759 134.029 25.2852C134.085 24.5959 134.355 24.0165 134.84 23.5469Z" fill="white"/>
        <path opacity="0.979" d="M153.614 24.9375C152.67 25.0525 151.704 25.0911 150.717 25.0533C150.31 24.7344 149.847 24.5412 149.326 24.4739C148.815 24.579 148.352 24.7721 147.936 25.0533H144.691C144.727 24.6429 144.689 24.2566 144.575 23.8945V22.6197H147.125C147.105 23.0079 147.125 23.3942 147.183 23.7786C148.728 22.1888 150.447 21.9764 152.34 23.1412C152.978 23.6029 153.402 24.2016 153.614 24.9375Z" fill="white"/>
        <path opacity="0.981" d="M158.829 23.6628C158.829 23.5855 158.868 23.5469 158.945 23.5469H164.16C164.555 23.96 164.749 24.4622 164.74 25.0534C163.83 25.0158 162.941 25.0544 162.074 25.1693C161.157 24.2825 160.192 24.2439 159.177 25.0534C158.103 25.1224 157.06 25.0451 156.048 24.8216V23.7787C156.463 23.633 156.907 23.5557 157.381 23.5469C157.847 23.5556 158.292 23.6329 158.713 23.7787C158.784 23.7643 158.822 23.7257 158.829 23.6628Z" fill="white"/>
        <path opacity="0.909" d="M144.575 23.8945C144.689 24.2567 144.727 24.6429 144.691 25.0534H147.936C147.59 25.5509 147.359 26.0917 147.24 26.6759C146.32 26.7432 145.431 26.6659 144.575 26.4441V23.8945Z" fill="white"/>
        <path opacity="0.956" d="M67.3934 24.8215C68.25 25.0433 69.1385 25.1206 70.0588 25.0533V26.444C69.6445 26.5896 69.2003 26.6669 68.7261 26.6757C68.2519 26.6669 67.8077 26.5896 67.3934 26.444V24.8215Z" fill="white"/>
        <path opacity="0.967" d="M44.2157 25.0532H46.997C47.1426 25.5873 47.2586 26.1289 47.3447 26.6757C46.4545 26.6406 45.563 26.6794 44.6793 26.7915C44.5429 26.2074 44.3884 25.6277 44.2157 25.0532Z" fill="white"/>
        <path opacity="0.968" d="M48.3877 25.0532H50.9372C50.8197 25.6039 50.6648 26.146 50.4737 26.6757C49.6408 26.7133 48.8296 26.6746 48.04 26.5598C48.1008 26.0464 48.2174 25.5413 48.3877 25.0532Z" fill="white"/>
        <path opacity="0.858" d="M102.971 24.8215C103.278 25.4342 103.471 26.0909 103.551 26.7916C101.453 26.7158 99.3672 26.6385 97.2925 26.5599H100.885C100.92 25.9306 100.727 25.3897 100.306 24.9374C100.785 25.0074 101.269 25.0461 101.754 25.0533C102.206 25.0519 102.612 24.9746 102.971 24.8215Z" fill="white"/>
        <path opacity="0.971" d="M52.212 25.0532H54.7616C54.9349 25.5494 55.0896 26.052 55.2251 26.5598C54.3802 26.6717 53.5272 26.7105 52.6756 26.6757C52.5206 26.133 52.3662 25.5921 52.212 25.0532Z" fill="white"/>
        <path opacity="0.967" d="M56.2681 25.0533C57.1394 25.0156 57.9892 25.0542 58.8176 25.1691C58.7568 25.6825 58.6402 26.1876 58.47 26.6757H55.9204C55.9665 26.1065 56.0824 25.5656 56.2681 25.0533Z" fill="white"/>
        <path opacity="0.997" d="M63.9167 22.7356V27.1394C63.8085 27.0156 63.7698 26.8611 63.8008 26.6758H61.2513V25.0534H63.8008C63.7633 24.2591 63.8019 23.4864 63.9167 22.7356Z" fill="white"/>
        <path opacity="0.982" d="M72.6083 25.0532H75.8532C75.4783 25.5208 75.2851 26.0616 75.2738 26.6757H72.6083V25.0532Z" fill="white"/>
        <path opacity="0.972" d="M81.3 24.8215C81.4145 25.4172 81.4531 26.0353 81.4159 26.6757C80.4956 26.7431 79.6071 26.6658 78.7505 26.444C78.7477 25.971 78.6694 25.5016 78.5187 25.0533C79.4925 25.1268 80.4196 25.0495 81.3 24.8215Z" fill="white"/>
        <path opacity="0.969" d="M83.7337 25.0533C84.7207 25.0155 85.6864 25.0541 86.6309 25.1692C86.3249 25.6228 86.1317 26.1249 86.0514 26.6758H83.386C83.3954 26.099 83.5113 25.5582 83.7337 25.0533Z" fill="white"/>
        <path opacity="0.985" d="M92.7729 23.5469H92.8888V27.1394H92.7729V26.6759C91.8828 26.7109 90.9913 26.6721 90.1075 26.56C90.0272 26.0093 89.834 25.507 89.5281 25.0534H92.7729V23.5469Z" fill="white"/>
        <path opacity="0.966" d="M94.9748 25.0532H97.7562C97.4409 25.458 97.2865 25.9216 97.2926 26.4439C96.3875 26.6354 95.4604 26.7513 94.5113 26.7915C94.5501 26.1688 94.7046 25.5893 94.9748 25.0532Z" fill="white"/>
        <path opacity="0.968" d="M108.765 25.1691C108.436 25.6553 108.243 26.1961 108.186 26.7915C107.237 26.601 106.31 26.6396 105.405 26.9074V25.285C105.955 25.1369 106.535 25.0596 107.143 25.0532C107.705 25.0533 108.245 25.0919 108.765 25.1691Z" fill="white"/>
        <path opacity="0.979" d="M112.358 24.9373C113.281 25.0496 114.211 25.0883 115.139 25.0531C115.188 25.6318 115.226 26.2112 115.255 26.7915L112.358 26.5597V24.9373Z" fill="white"/>
        <path opacity="0.98" d="M124.874 26.4439C122.932 26.6715 120.962 26.7487 118.964 26.6757V25.1691H124.874V26.4439ZM127.076 25.0532H130.437C130.058 25.612 129.864 26.2302 129.857 26.9074L127.076 26.4439V25.0532Z" fill="white"/>
        <path opacity="0.969" d="M139.592 25.0532H142.257V26.6757C140.614 26.7138 138.992 26.6752 137.39 26.5598C138.137 26.4213 138.873 26.2276 139.592 25.9803C139.702 25.676 139.702 25.367 139.592 25.0532Z" fill="white"/>
        <path opacity="0.974" d="M153.614 24.9373C153.892 25.4705 154.048 26.0499 154.078 26.6756C153.18 26.6409 152.291 26.6795 151.412 26.7915C151.316 26.1558 151.084 25.5764 150.717 25.0531C151.704 25.0909 152.67 25.0523 153.614 24.9373Z" fill="white"/>
        <path opacity="0.976" d="M156.048 24.8215C157.06 25.045 158.103 25.1223 159.177 25.0533C158.916 25.5577 158.758 26.1094 158.713 26.6757H156.048V24.8215Z" fill="white"/>
        <path opacity="0.967" d="M164.74 25.0533C164.853 25.5323 164.893 26.0346 164.855 26.5598C163.977 26.6718 163.088 26.7103 162.19 26.6757C162.194 26.1694 162.155 25.6672 162.074 25.1691C162.941 25.0542 163.83 25.0156 164.74 25.0533Z" fill="white"/>
        <path opacity="0.987" d="M97.2926 26.4441V26.56C99.3672 26.6387 101.453 26.716 103.551 26.7918V27.603C100.539 27.4881 97.5249 27.4495 94.5113 27.4871V26.7918C95.4604 26.7515 96.3875 26.6357 97.2926 26.4441Z" fill="white"/>
        <path opacity="0.923" d="M124.874 26.4441V27.8348C123.978 28.057 123.051 28.1343 122.093 28.0665C122.125 28.2885 122.087 28.4815 121.977 28.646V27.4871H118.964V26.6759C120.962 26.7489 122.932 26.6717 124.874 26.4441Z" fill="white"/>
        <path opacity="0.981" d="M137.39 26.5598C138.992 26.6752 140.614 26.7138 142.257 26.6757V28.0664C141.397 28.0319 140.548 28.0705 139.708 28.1823C139.726 28.0253 139.706 27.8662 139.65 27.7187C139.196 27.9336 138.703 28.052 138.201 28.0664C136.882 28.141 135.608 28.0637 134.377 27.8346C134.671 27.5228 135.019 27.2717 135.42 27.0813C136.061 26.8535 136.72 26.6791 137.39 26.5598Z" fill="white"/>
        <path opacity="0.933" d="M108.186 26.7917C108.18 27.2189 108.141 27.6451 108.07 28.0664H105.521C105.548 28.216 105.509 28.3319 105.405 28.4141V26.9076C106.31 26.6397 107.237 26.6011 108.186 26.7917Z" fill="white"/>
        <path opacity="0.965" d="M55.2251 26.5598C55.3033 26.9887 55.3999 27.414 55.5148 27.8346C55.6577 27.4436 55.7929 27.0573 55.9204 26.6757H58.47C58.4111 27.1666 58.2952 27.6302 58.1223 28.0664C56.4603 28.0278 54.7975 28.0664 53.1391 28.1823C52.9329 27.7078 52.7784 27.2057 52.6755 26.6757C53.5354 26.7101 54.3854 26.6715 55.2251 26.5598Z" fill="white"/>
        <path opacity="0.981" d="M83.386 26.6758H86.0514V27.9506C85.1697 28.105 84.2677 28.105 83.386 27.9506V26.6758Z" fill="white"/>
        <path opacity="0.974" d="M154.078 26.6759V28.0665H151.412V26.7918C152.291 26.6798 153.18 26.6412 154.078 26.6759Z" fill="white"/>
        <path opacity="0.975" d="M48.04 26.5598C48.8296 26.6747 49.6408 26.7134 50.4737 26.6757C50.3935 27.1508 50.2776 27.6144 50.126 28.0664H45.0269C44.8686 27.6653 44.7527 27.2404 44.6793 26.7916C45.563 26.6794 46.4545 26.6407 47.3447 26.6757C47.449 27.06 47.5456 27.4464 47.6344 27.8346C47.7392 27.3859 47.8743 26.9609 48.04 26.5598Z" fill="white"/>
        <path opacity="0.999" d="M61.2513 26.6758H63.8008C63.7698 26.8611 63.8085 27.0156 63.9167 27.1393V28.0664H61.2513V26.6758Z" fill="white"/>
        <path opacity="0.952" d="M67.3934 26.4441C67.8077 26.5898 68.2519 26.6671 68.7261 26.6759C69.2003 26.6671 69.6445 26.5898 70.0588 26.4441V28.4142C69.954 28.332 69.9154 28.2161 69.9429 28.0665C69.083 28.0321 68.2331 28.0707 67.3934 28.1824V26.4441Z" fill="white"/>
        <path opacity="0.979" d="M72.6083 26.6758H75.2738V27.9506C74.39 28.0627 73.4985 28.1015 72.6083 28.0664V26.6758Z" fill="white"/>
        <path opacity="0.98" d="M78.7504 26.4441C79.6071 26.6659 80.4956 26.7432 81.4159 26.6759V28.0665H78.8663C78.8974 27.8812 78.8587 27.7267 78.7504 27.603V26.4441Z" fill="white"/>
        <path opacity="0.996" d="M90.1075 26.5598C90.9912 26.672 91.8828 26.7107 92.7729 26.6757V28.0664C91.9016 28.104 91.0517 28.0654 90.2234 27.9505C90.2229 27.4845 90.1842 27.0194 90.1075 26.5598Z" fill="white"/>
        <path opacity="0.988" d="M94.5112 27.487C97.5329 27.4495 100.546 27.4882 103.55 27.6029V28.2982C101.425 28.2596 99.2998 28.2982 97.1766 28.4141C97.2685 28.7193 97.3458 29.0287 97.4084 29.3412C96.5413 29.4562 95.6529 29.4948 94.743 29.4571C94.5549 28.8182 94.4766 28.1521 94.5112 27.487Z" fill="white"/>
        <path opacity="0.976" d="M112.358 26.5598L115.255 26.7916C115.342 27.1861 115.458 27.5734 115.603 27.9505L112.706 28.1823C112.531 27.6558 112.414 27.1117 112.358 26.5598Z" fill="white"/>
        <path opacity="0.972" d="M127.076 26.4441L129.857 26.9076C129.751 27.2842 129.712 27.6764 129.741 28.0665H127.076V26.4441Z" fill="white"/>
        <path opacity="0.99" d="M144.575 26.4441C145.431 26.6659 146.32 26.7432 147.24 26.6759V28.0665C146.32 28.1339 145.431 28.0566 144.575 27.8348V26.4441Z" fill="white"/>
        <path opacity="0.992" d="M156.048 26.6758H158.713V27.8347C157.857 28.0565 156.968 28.1338 156.048 28.0664V26.6758Z" fill="white"/>
        <path opacity="0.98" d="M164.855 26.5598V28.0664H162.306C162.337 27.8811 162.298 27.7266 162.19 27.6028V26.6757C163.088 26.7104 163.977 26.6718 164.855 26.5598Z" fill="white"/>
        <path opacity="0.962" d="M78.7504 27.603C78.8587 27.7268 78.8974 27.8813 78.8663 28.0666H81.4159V29.5731H78.7504V27.603ZM162.19 27.603C162.298 27.7268 162.337 27.8813 162.306 28.0666H164.855V29.5731H162.19V27.603Z" fill="white"/>
        <path opacity="0.979" d="M34.597 26.5598C35.2723 27.891 36.0471 29.1694 36.9147 30.3841C36.3983 31.4381 35.735 32.4136 34.9446 33.2813C34.5648 32.9143 34.2365 32.4894 33.9596 32.0066C33.4947 31.307 33.0877 30.5705 32.7427 29.8047C33.42 28.758 34.039 27.6747 34.597 26.5598Z" fill="white"/>
        <path opacity="0.95" d="M124.874 27.8345V29.4569C123.704 29.6095 122.545 29.6095 121.397 29.4569C121.816 29.3451 122.008 29.0747 121.977 28.6457C122.087 28.4812 122.125 28.2882 122.093 28.0662C123.051 28.134 123.978 28.0567 124.874 27.8345Z" fill="white"/>
        <path opacity="0.945" d="M158.713 27.8345V29.5728C157.83 29.4606 156.938 29.4219 156.048 29.4569V28.0662C156.968 28.1336 157.857 28.0563 158.713 27.8345Z" fill="white"/>
        <path opacity="0.971" d="M83.386 27.9504C84.2678 28.1049 85.1697 28.1049 86.0514 27.9504C86.0861 28.5884 86.2793 29.1678 86.6309 29.6888C85.6502 29.5396 84.6845 29.5396 83.7337 29.6888C83.4583 29.155 83.3424 28.5755 83.386 27.9504Z" fill="white"/>
        <path opacity="0.974" d="M115.603 27.9504C115.797 28.4937 116.106 28.9573 116.53 29.3411C115.46 29.4212 114.378 29.4985 113.285 29.5729C113.029 29.1381 112.834 28.6702 112.706 28.1822L115.603 27.9504Z" fill="white"/>
        <path opacity="0.963" d="M134.377 27.8345C135.608 28.0636 136.882 28.1409 138.201 28.0662C137.746 28.225 137.282 28.3988 136.811 28.5877C136.536 28.8127 136.382 29.1024 136.347 29.4569H133.682C133.758 28.8378 133.99 28.297 134.377 27.8345Z" fill="white"/>
        <path opacity="0.984" d="M45.0269 28.0664H50.126L49.7783 29.4571C48.3094 29.4206 46.8396 29.4592 45.3746 29.573C45.2043 29.0849 45.0877 28.5797 45.0269 28.0664Z" fill="white"/>
        <path opacity="0.984" d="M58.1224 28.0665C58.0762 28.5603 57.9603 29.0238 57.7747 29.4571H53.3709C53.2753 29.0358 53.1979 28.6104 53.1392 28.1824C54.7975 28.0665 56.4604 28.0279 58.1224 28.0665Z" fill="white"/>
        <path opacity="0.973" d="M61.2513 28.0664H63.9167V29.3412C63.0754 29.5689 62.1868 29.6462 61.2513 29.573V28.0664Z" fill="white"/>
        <path opacity="0.974" d="M70.0588 28.4142V29.8049C69.1243 29.5821 68.1586 29.505 67.1616 29.5731L67.3934 28.1824C68.2383 28.0705 69.0913 28.0317 69.9429 28.0666C69.9155 28.2162 69.9541 28.3321 70.0588 28.4142Z" fill="white"/>
        <path opacity="0.997" d="M75.2738 27.9504V31.1953C75.1767 31.1557 75.1379 31.0785 75.1579 30.9635V29.5729H72.6083V28.0663C73.4985 28.1014 74.39 28.0626 75.2738 27.9504Z" fill="white"/>
        <path opacity="0.988" d="M92.7729 27.1394H92.8888V31.0796C92.8115 31.0796 92.7729 31.041 92.7729 30.9637V29.5731H89.7598C89.9495 29.0429 90.1043 28.5009 90.2234 27.9506C91.0517 28.0656 91.9016 28.1042 92.7729 28.0665V27.1394Z" fill="white"/>
        <path opacity="0.968" d="M108.07 28.0664V29.573C107.18 29.608 106.288 29.5692 105.405 29.4571V28.4141C105.509 28.3319 105.548 28.216 105.521 28.0664H108.07Z" fill="white"/>
        <path opacity="0.962" d="M127.076 28.0664H129.741V29.3412L127.076 29.573V28.0664Z" fill="white"/>
        <path opacity="0.973" d="M142.257 28.0664V29.457C141.379 29.569 140.49 29.6076 139.592 29.5729C139.652 29.1116 139.69 28.648 139.708 28.1823C140.548 28.0705 141.397 28.0319 142.257 28.0664Z" fill="white"/>
        <path opacity="0.992" d="M144.575 27.8345C145.431 28.0563 146.32 28.1336 147.24 28.0662C147.355 28.4401 147.471 28.8265 147.588 29.2251C147.15 29.3787 146.668 29.4559 146.14 29.4569C145.616 29.4542 145.093 29.4155 144.575 29.341V27.8345Z" fill="white"/>
        <path opacity="0.966" d="M151.412 28.0664H154.078C154.061 28.576 153.983 29.0818 153.846 29.573H150.949C151.19 29.1017 151.347 28.5918 151.412 28.0664Z" fill="white"/>
        <path opacity="0.959" d="M129.741 29.3413V30.732C129.326 30.8776 128.883 30.9549 128.409 30.9637C127.935 30.9549 127.491 30.8776 127.076 30.732V29.5731L129.741 29.3413Z" fill="white"/>
        <path opacity="0.951" d="M147.588 29.2253C148.103 30.2033 148.914 30.5703 150.022 30.3263C150.42 30.1786 150.729 29.9275 150.949 29.573H153.846C153.677 30.0655 153.444 30.5332 153.151 30.9637H144.691C144.727 31.336 144.689 31.6837 144.575 32.0067V29.3412C145.087 29.4153 145.609 29.4539 146.14 29.4571C146.668 29.4561 147.15 29.3789 147.588 29.2253Z" fill="white"/>
        <path opacity="0.958" d="M102.623 31.0796C100.269 30.9637 97.9113 30.9251 95.5543 30.9637C95.1353 30.5512 94.8648 30.049 94.743 29.4571C95.653 29.4948 96.5414 29.4562 97.4085 29.3412C97.9968 30.4455 98.8852 30.7738 100.074 30.3263C100.405 30.0691 100.637 29.7407 100.769 29.3412L101.175 29.2253C101.927 29.3475 102.68 29.4634 103.435 29.573C103.313 30.1636 103.043 30.6657 102.623 31.0796Z" fill="white"/>
        <path opacity="0.95" d="M105.405 29.457C106.288 29.5692 107.18 29.608 108.07 29.5729V31.1954C107.214 30.9735 106.325 30.8962 105.405 30.9636V29.457Z" fill="white"/>
        <path opacity="0.973" d="M116.53 29.3413C118.118 30.382 119.74 30.4206 121.397 29.4572C122.545 29.6098 123.704 29.6098 124.874 29.4572C125.054 30.1778 124.822 30.6799 124.179 30.9637H114.444C113.949 30.5905 113.562 30.1269 113.285 29.5731C114.378 29.4987 115.46 29.4214 116.53 29.3413Z" fill="white"/>
        <path opacity="0.962" d="M133.682 29.457H136.347C136.651 30.4343 137.308 30.8013 138.317 30.558C138.865 30.3746 139.291 30.0463 139.592 29.5729C140.49 29.6076 141.379 29.569 142.257 29.457C142.275 29.9228 142.313 30.3863 142.373 30.8477C139.6 30.9624 136.819 31.001 134.029 30.9636C133.812 30.4983 133.697 29.996 133.682 29.457Z" fill="white"/>
        <path opacity="0.978" d="M49.7783 29.4571C49.6667 29.9844 49.5121 30.4866 49.3148 30.9637H45.7222C45.5493 30.5275 45.4334 30.0639 45.3746 29.573C46.8396 29.4593 48.3094 29.4206 49.7783 29.4571Z" fill="white"/>
        <path opacity="0.982" d="M53.3708 29.457H57.7746C57.7138 29.9704 57.5972 30.4755 57.4269 30.9636C56.1996 30.8935 55.002 30.9708 53.8344 31.1954C53.7346 30.6027 53.5794 30.0207 53.3708 29.457Z" fill="white"/>
        <path opacity="0.969" d="M63.9167 29.3413C64.4289 30.5103 65.2787 30.8 66.4663 30.2105C66.6788 29.9779 66.9115 29.7646 67.1616 29.5731C68.1586 29.5049 69.1243 29.5821 70.0588 29.8049V30.9637C69.2259 30.9261 68.4147 30.9648 67.6251 31.0796H67.5093C65.5414 30.9638 63.5698 30.9251 61.5989 30.9637C61.3769 30.5392 61.261 30.0757 61.2513 29.5731C62.1868 29.6463 63.0754 29.569 63.9167 29.3413Z" fill="white"/>
        <path opacity="0.996" d="M72.6083 29.573H75.1579V30.9637H72.6083V29.573Z" fill="white"/>
        <path opacity="0.967" d="M78.7504 29.573H81.4159V30.7319C80.5982 30.9532 79.7483 31.0304 78.8663 30.9637C78.8974 30.7784 78.8587 30.6239 78.7504 30.5001V29.573Z" fill="white"/>
        <path opacity="0.973" d="M86.6308 29.6889C87.1782 30.3281 87.8736 30.5407 88.7168 30.3263C89.1152 30.1396 89.4629 29.8886 89.7598 29.573H92.7729V30.9637C89.9716 30.9253 87.1903 30.9639 84.4289 31.0795C84.0766 30.6839 83.8448 30.2204 83.7336 29.6889C84.6844 29.5397 85.6501 29.5397 86.6308 29.6889Z" fill="white"/>
        <path opacity="0.992" d="M156.048 29.4571C156.946 29.4225 157.835 29.4611 158.713 29.573V30.3842C158.603 30.5487 158.565 30.7417 158.598 30.9637H156.048V29.4571Z" fill="white"/>
        <path opacity="0.967" d="M162.19 29.573H164.855V30.7319C164.037 30.9532 163.188 31.0304 162.306 30.9637C162.337 30.7784 162.298 30.6239 162.19 30.5001V29.573Z" fill="white"/>
        <path opacity="0.975" d="M32.7427 29.8047C33.0877 30.5705 33.4947 31.3069 33.9596 32.0066C34.2365 32.4894 34.5649 32.9143 34.9446 33.2813C34.2493 34.054 33.5154 34.7879 32.7427 35.4832L30.7726 32.0066C31.4702 31.3102 32.128 30.5751 32.7427 29.8047Z" fill="white"/>
        <path opacity="0.967" d="M92.7729 30.9637C92.7729 31.041 92.8115 31.0796 92.8888 31.0796V32.3544H90.3393C90.3584 31.9671 90.339 31.5789 90.2813 31.1955C88.8892 32.6395 87.2861 32.9292 85.472 32.0647C85.0706 31.7982 84.7179 31.465 84.429 31.0796C87.2087 30.9637 89.9911 30.9251 92.7729 30.9637Z" fill="white"/>
        <path opacity="0.984" d="M142.373 30.8479C142.46 31.3313 142.616 31.7996 142.837 32.2386C141.951 32.3541 141.064 32.3928 140.171 32.3544C140.134 32.03 140.035 31.7155 139.882 31.4273C138.149 32.835 136.353 32.9316 134.493 31.7171C134.312 31.483 134.157 31.2305 134.029 30.9638C136.819 31.0012 139.6 30.9626 142.373 30.8479Z" fill="white"/>
        <path opacity="0.882" d="M127.076 30.7319C127.491 30.8776 127.935 30.9549 128.409 30.9637C128.883 30.9549 129.326 30.8776 129.741 30.7319V32.3544H127.076V30.7319Z" fill="white"/>
        <path opacity="0.909" d="M45.7222 30.9636H49.3148L49.083 32.3543H45.954L45.7222 30.9636Z" fill="white"/>
        <path opacity="0.914" d="M57.427 30.9637L57.1952 32.3544C56.1894 32.3928 55.1821 32.3541 54.1821 32.2385C54.0846 31.885 53.9685 31.5369 53.8345 31.1955C55.002 30.9709 56.1996 30.8936 57.427 30.9637Z" fill="white"/>
        <path opacity="0.93" d="M61.5989 30.9637C63.5893 30.9255 65.5594 30.9641 67.5092 31.0796C66.4038 32.3687 65.0131 32.8129 63.3373 32.4123C62.5209 32.1995 61.9415 31.7165 61.5989 30.9637Z" fill="white"/>
        <path opacity="0.913" d="M70.0588 30.9636V32.3543H67.6251V31.0795C68.4147 30.9647 69.2259 30.926 70.0588 30.9636Z" fill="white"/>
        <path opacity="0.929" d="M72.6083 30.9636H75.1579C75.1379 31.0786 75.1767 31.1558 75.2738 31.1954V32.3543H72.6083V30.9636Z" fill="white"/>
        <path opacity="0.891" d="M78.7504 30.5002C78.8587 30.624 78.8974 30.7785 78.8663 30.9638C79.7483 31.0305 80.5982 30.9534 81.4159 30.732V32.3545H78.7504V30.5002Z" fill="white"/>
        <path opacity="0.941" d="M95.5542 30.9637C97.9112 30.9251 100.269 30.9637 102.623 31.0796C101.725 32.1461 100.566 32.6483 99.1467 32.5861C97.9391 32.5763 96.8574 32.2094 95.9019 31.4852C95.7448 31.3426 95.6253 31.1635 95.5542 30.9637Z" fill="white"/>
        <path opacity="0.901" d="M105.405 30.9637C106.325 30.8964 107.214 30.9737 108.07 31.1955V32.3544H105.405V30.9637Z" fill="white"/>
        <path opacity="0.947" d="M114.444 30.9636H124.179C121.703 32.6223 119.038 32.9892 116.182 32.0646C115.517 31.8105 114.938 31.4435 114.444 30.9636Z" fill="white"/>
        <path opacity="0.936" d="M153.151 30.9636C151.966 32.4644 150.46 32.9086 148.631 32.2963C148.155 32.0132 147.709 31.6832 147.298 31.3113C147.24 31.7724 147.221 32.2376 147.24 32.7019H144.691C144.722 32.5166 144.683 32.3622 144.575 32.2384V32.0066C144.689 31.6836 144.727 31.336 144.691 30.9636H153.151Z" fill="white"/>
        <path opacity="0.895" d="M158.713 30.3843V32.3544H156.048V30.9637H158.598C158.565 30.7418 158.603 30.5487 158.713 30.3843Z" fill="white"/>
        <path opacity="0.891" d="M162.19 30.5002C162.298 30.624 162.337 30.7785 162.306 30.9638C163.188 31.0305 164.037 30.9534 164.855 30.732V32.3545H162.19V30.5002Z" fill="white"/>
        <path opacity="0.976" d="M30.7727 32.0066L32.7428 35.4832C32.0896 36.0413 31.3919 36.5452 30.6568 36.9898C30.5413 36.9998 30.4448 36.9611 30.3671 36.8739C29.7606 35.8502 29.123 34.8454 28.4549 33.8608C29.262 33.2872 30.0358 32.6681 30.7727 32.0066Z" fill="white"/>
        <path opacity="0.994" d="M144.575 32.2383C144.683 32.362 144.722 32.5165 144.691 32.7018H147.24V33.8607C146.422 34.0821 145.573 34.1592 144.691 34.0925C144.727 34.5411 144.689 34.9661 144.575 35.3673V32.2383Z" fill="white"/>
        <path opacity="0.979" d="M10.8399 33.0494C12.2055 34.0026 13.6849 34.7812 15.2436 35.3672C16.2387 36.8547 17.2047 38.3616 18.1409 39.8869C16.9192 39.8047 15.7124 39.5711 14.5483 39.1915C13.2582 37.1731 11.9834 35.145 10.724 33.1074C10.7504 33.0611 10.7891 33.0419 10.8399 33.0494Z" fill="white"/>
        <path opacity="0.978" d="M28.4549 33.8608C29.1229 34.8454 29.7606 35.8502 30.367 36.8739C30.4448 36.9611 30.5413 36.9998 30.6567 36.9898C29.8225 37.5507 28.9286 38.0171 27.9913 38.3805C27.383 37.358 26.7454 36.3532 26.0792 35.3674C26.0247 35.2426 26.044 35.1267 26.1371 35.0197L28.4549 33.8608Z" fill="white"/>
        <path opacity="0.993" d="M147.24 33.8608V35.9468H144.575V35.3674C144.689 34.9662 144.727 34.5412 144.691 34.0926C145.573 34.1594 146.422 34.0822 147.24 33.8608Z" fill="white"/>
        <path opacity="0.975" d="M26.1371 35.0198C26.0441 35.1267 26.0247 35.2426 26.0792 35.3674C26.7454 36.3532 27.383 37.358 27.9913 38.3805C26.9291 38.9022 25.8089 39.2884 24.6306 39.5394C24.6434 39.4679 24.682 39.41 24.7465 39.3656L22.6605 36.1207C22.7249 36.0763 22.7635 36.0184 22.7763 35.9469C23.9197 35.7287 25.0436 35.4187 26.1371 35.0198Z" fill="white"/>
        <path opacity="0.985" d="M15.2436 35.3674C16.6444 35.7712 18.08 36.0428 19.5315 36.1787C19.5186 36.2502 19.48 36.3081 19.4156 36.3525C20.2708 37.4919 21.0085 38.715 21.6175 40.003C20.4376 40.0409 19.2787 40.0023 18.1408 39.8871C17.2046 38.3618 16.2387 36.855 15.2436 35.3674Z" fill="white"/>
        <path opacity="0.979" d="M22.7764 35.9468C22.7635 36.0183 22.7249 36.0762 22.6605 36.1206L24.7465 39.3655C24.682 39.4099 24.6434 39.4678 24.6306 39.5393C23.643 39.7883 22.6342 39.9435 21.6175 40.0029C21.0085 38.7149 20.2708 37.4918 19.4156 36.3524C19.48 36.308 19.5186 36.2501 19.5315 36.1786C20.6208 36.1884 21.7024 36.1111 22.7764 35.9468Z" fill="white"/>
    </g>
    <defs>
        <clipPath id="clip0_706_6174">
            <rect width="173.833" height="40.5609" fill="white" transform="translate(0.58374 0.774658)"/>
        </clipPath>
    </defs>
</svg>
