<svg xmlns="http://www.w3.org/2000/svg" viewBox="0 0 131 163" fill="#e10098"><style>svg{fill:color(display-p3 0.8824 0 0.5961);}</style><path fill-rule="evenodd" clip-rule="evenodd" d="M65.5 6.46777L103.2 28.2339V71.7661L65.5 93.5322L27.8 71.7661V28.2339L65.5 6.46777ZM32.03 30.6761V62.6517L59.7217 14.6883L32.03 30.6761ZM65.5 13.14L33.5783 68.43H97.4217L65.5 13.14ZM93.1917 72.66H37.8083L65.5 88.6478L93.1917 72.66ZM98.97 62.6517L71.2783 14.6883L98.97 30.6761V62.6517Z"/><circle cx="29.91" cy="29.45" r="8.91"/><circle cx="29.91" cy="70.545" r="8.91"/><circle cx="65.5" cy="91.09" r="8.91"/><circle cx="101.085" cy="70.545" r="8.91"/><circle cx="101.085" cy="29.455" r="8.91"/><circle cx="65.5" cy="8.91" r="8.91"/><path d="M9.612 137.84C6.77867 137.84 4.58 137.024 3.016 135.392C1.452 133.76 0.624667 131.573 0.534 128.83C0.511334 128.15 0.5 127.073 0.5 125.6C0.5 124.127 0.511334 123.05 0.534 122.37C0.624667 119.627 1.452 117.44 3.016 115.808C4.58 114.176 6.77867 113.36 9.612 113.36C11.5387 113.36 13.1593 113.723 14.474 114.448C15.7887 115.173 16.7633 116.035 17.398 117.032C18.0553 118.007 18.4067 118.879 18.452 119.65V119.718C18.452 119.899 18.384 120.047 18.248 120.16C18.112 120.273 17.942 120.33 17.738 120.33H16.99C16.786 120.33 16.6387 120.285 16.548 120.194C16.4573 120.103 16.3667 119.922 16.276 119.65C15.8907 118.449 15.1427 117.44 14.032 116.624C12.944 115.808 11.4707 115.4 9.612 115.4C7.504 115.4 5.838 115.978 4.614 117.134C3.41267 118.29 2.76667 120.092 2.676 122.54C2.65333 123.22 2.642 124.24 2.642 125.6C2.642 126.96 2.65333 127.98 2.676 128.66C2.76667 131.108 3.41267 132.91 4.614 134.066C5.838 135.222 7.504 135.8 9.612 135.8C11.72 135.8 13.42 135.199 14.712 133.998C16.004 132.797 16.65 131.017 16.65 128.66V126.926H10.734C10.5073 126.926 10.326 126.858 10.19 126.722C10.054 126.563 9.986 126.371 9.986 126.144V125.668C9.986 125.441 10.054 125.26 10.19 125.124C10.326 124.965 10.5073 124.886 10.734 124.886H18.01C18.2593 124.886 18.452 124.954 18.588 125.09C18.724 125.226 18.792 125.419 18.792 125.668V128.66C18.792 130.473 18.4293 132.071 17.704 133.454C16.9787 134.837 15.9247 135.913 14.542 136.684C13.1593 137.455 11.516 137.84 9.612 137.84Z"/><path d="M24.3361 137.5C24.1095 137.5 23.9281 137.432 23.7921 137.296C23.6561 137.16 23.5881 136.979 23.5881 136.752V120.602C23.5881 120.375 23.6561 120.194 23.7921 120.058C23.9281 119.899 24.1095 119.82 24.3361 119.82H24.8801C25.1068 119.82 25.2881 119.899 25.4241 120.058C25.5828 120.194 25.6621 120.375 25.6621 120.602V122.166C26.4781 120.602 28.0195 119.82 30.2861 119.82H31.5441C31.7708 119.82 31.9521 119.888 32.0881 120.024C32.2241 120.16 32.2921 120.341 32.2921 120.568V121.044C32.2921 121.271 32.2241 121.452 32.0881 121.588C31.9521 121.724 31.7708 121.792 31.5441 121.792H30.0821C28.7221 121.792 27.6455 122.189 26.8521 122.982C26.0588 123.775 25.6621 124.852 25.6621 126.212V136.752C25.6621 136.979 25.5828 137.16 25.4241 137.296C25.2881 137.432 25.1068 137.5 24.8801 137.5H24.3361Z"/><path d="M39.9028 137.84C38.8148 137.84 37.8061 137.613 36.8768 137.16C35.9475 136.707 35.1995 136.095 34.6328 135.324C34.0888 134.553 33.8168 133.703 33.8168 132.774C33.8168 131.278 34.4175 130.054 35.6188 129.102C36.8428 128.15 38.4861 127.538 40.5488 127.266L45.9208 126.518V125.328C45.9208 124.081 45.5355 123.129 44.7648 122.472C44.0168 121.792 42.8608 121.452 41.2968 121.452C40.1408 121.452 39.1888 121.679 38.4408 122.132C37.7155 122.585 37.2508 123.129 37.0468 123.764C36.9561 124.036 36.8428 124.229 36.7068 124.342C36.5935 124.433 36.4348 124.478 36.2308 124.478H35.7548C35.5508 124.478 35.3695 124.41 35.2108 124.274C35.0748 124.115 35.0068 123.934 35.0068 123.73C35.0068 123.231 35.2335 122.653 35.6868 121.996C36.1401 121.316 36.8428 120.727 37.7948 120.228C38.7468 119.729 39.9141 119.48 41.2968 119.48C43.7221 119.48 45.4448 120.058 46.4648 121.214C47.4848 122.37 47.9948 123.775 47.9948 125.43V136.752C47.9948 136.979 47.9268 137.16 47.7908 137.296C47.6548 137.432 47.4735 137.5 47.2468 137.5H46.6688C46.4421 137.5 46.2608 137.432 46.1248 137.296C45.9888 137.16 45.9208 136.979 45.9208 136.752V135.154C45.4221 135.902 44.6855 136.537 43.7108 137.058C42.7588 137.579 41.4895 137.84 39.9028 137.84ZM40.2428 135.868C41.8975 135.868 43.2575 135.324 44.3228 134.236C45.3881 133.148 45.9208 131.584 45.9208 129.544V128.388L41.5348 129C39.6761 129.249 38.2708 129.68 37.3188 130.292C36.3668 130.904 35.8908 131.675 35.8908 132.604C35.8908 133.647 36.3215 134.451 37.1828 135.018C38.0668 135.585 39.0868 135.868 40.2428 135.868Z"/><path d="M54.1533 143.96C53.9267 143.96 53.7453 143.892 53.6093 143.756C53.4733 143.62 53.4053 143.439 53.4053 143.212V120.568C53.4053 120.341 53.4733 120.16 53.6093 120.024C53.7453 119.888 53.9267 119.82 54.1533 119.82H54.7313C54.958 119.82 55.1393 119.888 55.2753 120.024C55.4113 120.16 55.4793 120.341 55.4793 120.568V122.166C56.794 120.375 58.698 119.48 61.1913 119.48C63.6393 119.48 65.4413 120.262 66.5973 121.826C67.776 123.367 68.3993 125.271 68.4673 127.538C68.49 127.765 68.5013 128.139 68.5013 128.66C68.5013 129.181 68.49 129.555 68.4673 129.782C68.3993 132.049 67.776 133.964 66.5973 135.528C65.4413 137.069 63.6393 137.84 61.1913 137.84C58.7207 137.84 56.8167 136.945 55.4793 135.154V143.212C55.4793 143.439 55.4113 143.62 55.2753 143.756C55.1393 143.892 54.958 143.96 54.7313 143.96H54.1533ZM60.9873 135.868C62.8233 135.868 64.1607 135.29 64.9993 134.134C65.8607 132.955 66.3253 131.448 66.3933 129.612C66.416 129.385 66.4273 129.068 66.4273 128.66C66.4273 126.552 66.0193 124.829 65.2033 123.492C64.3873 122.132 62.982 121.452 60.9873 121.452C59.1967 121.452 57.848 122.053 56.9413 123.254C56.0347 124.433 55.5473 125.827 55.4793 127.436L55.4453 128.762L55.4793 130.088C55.502 131.063 55.7173 131.992 56.1253 132.876C56.5333 133.737 57.1453 134.451 57.9613 135.018C58.7773 135.585 59.786 135.868 60.9873 135.868Z"/><path d="M73.9092 137.5C73.6825 137.5 73.5012 137.432 73.3652 137.296C73.2292 137.16 73.1612 136.979 73.1612 136.752V114.108C73.1612 113.881 73.2292 113.7 73.3652 113.564C73.5012 113.428 73.6825 113.36 73.9092 113.36H74.4872C74.7138 113.36 74.8952 113.428 75.0312 113.564C75.1672 113.7 75.2352 113.881 75.2352 114.108V122.166C75.9152 121.282 76.6859 120.613 77.5472 120.16C78.4312 119.707 79.5645 119.48 80.9472 119.48C83.1685 119.48 84.8799 120.194 86.0812 121.622C87.2825 123.027 87.8832 124.852 87.8832 127.096V136.752C87.8832 136.979 87.8152 137.16 87.6792 137.296C87.5432 137.432 87.3619 137.5 87.1352 137.5H86.5572C86.3305 137.5 86.1492 137.432 86.0132 137.296C85.8772 137.16 85.8092 136.979 85.8092 136.752V127.266C85.8092 125.43 85.3559 124.002 84.4492 122.982C83.5652 121.962 82.2845 121.452 80.6072 121.452C78.9752 121.452 77.6719 121.973 76.6972 123.016C75.7225 124.036 75.2352 125.453 75.2352 127.266V136.752C75.2352 136.979 75.1672 137.16 75.0312 137.296C74.8952 137.432 74.7138 137.5 74.4872 137.5H73.9092Z"/><path d="M109.059 139.71C108.719 139.71 108.356 139.449 107.971 138.928L106.475 136.854C105.115 137.511 103.528 137.84 101.715 137.84C95.8897 137.84 92.8977 134.712 92.7391 128.456C92.7164 127.776 92.7051 126.824 92.7051 125.6C92.7051 124.376 92.7164 123.424 92.7391 122.744C92.8297 119.661 93.6684 117.327 95.2551 115.74C96.8417 114.153 98.9951 113.36 101.715 113.36C104.435 113.36 106.588 114.153 108.175 115.74C109.762 117.327 110.6 119.661 110.691 122.744C110.736 124.104 110.759 125.056 110.759 125.6C110.759 126.144 110.736 127.096 110.691 128.456C110.578 131.697 109.75 134.077 108.209 135.596L110.385 138.656C110.453 138.792 110.487 138.917 110.487 139.03C110.487 139.211 110.419 139.37 110.283 139.506C110.147 139.642 109.988 139.71 109.807 139.71H109.059ZM101.715 135.8C103.755 135.8 105.376 135.188 106.577 133.964C107.801 132.717 108.458 130.825 108.549 128.286C108.594 126.926 108.617 126.031 108.617 125.6C108.617 125.169 108.594 124.274 108.549 122.914C108.458 120.375 107.801 118.494 106.577 117.27C105.353 116.023 103.732 115.4 101.715 115.4C99.6977 115.4 98.0771 116.023 96.8531 117.27C95.6291 118.494 94.9717 120.375 94.8811 122.914C94.8584 123.594 94.8471 124.489 94.8471 125.6C94.8471 126.711 94.8584 127.606 94.8811 128.286C94.9717 130.825 95.6177 132.717 96.8191 133.964C98.0431 135.188 99.6751 135.8 101.715 135.8Z"/><path d="M116.917 137.5C116.69 137.5 116.509 137.432 116.373 137.296C116.237 137.16 116.169 136.979 116.169 136.752V114.448C116.169 114.221 116.237 114.04 116.373 113.904C116.509 113.768 116.69 113.7 116.917 113.7H117.563C117.789 113.7 117.971 113.768 118.107 113.904C118.243 114.04 118.311 114.221 118.311 114.448V135.46H130.041C130.29 135.46 130.483 135.528 130.619 135.664C130.755 135.8 130.823 135.993 130.823 136.242V136.752C130.823 136.979 130.743 137.16 130.585 137.296C130.449 137.432 130.267 137.5 130.041 137.5H116.917Z"/><path d="M2.06379 162.642C1.89137 162.642 1.75344 162.592 1.64999 162.493C1.54654 162.393 1.49481 162.26 1.49481 162.095V145.805C1.49481 145.639 1.54654 145.506 1.64999 145.407C1.75344 145.291 1.89137 145.233 2.06379 145.233H12.0468C12.2364 145.233 12.383 145.282 12.4864 145.382C12.5899 145.481 12.6416 145.622 12.6416 145.805V146.178C12.6416 146.343 12.5813 146.476 12.4606 146.576C12.3571 146.675 12.2192 146.725 12.0468 146.725H3.12416V153.415H11.5295C11.7192 153.415 11.8657 153.465 11.9692 153.564C12.0726 153.664 12.1244 153.805 12.1244 153.987V154.36C12.1244 154.526 12.064 154.658 11.9433 154.758C11.8399 154.857 11.7019 154.907 11.5295 154.907H3.12416V162.095C3.12416 162.26 3.06381 162.393 2.94312 162.493C2.83967 162.592 2.70174 162.642 2.52932 162.642H2.06379Z"/><path d="M20.7261 162.89C18.933 162.89 17.5364 162.368 16.5364 161.324C15.5536 160.262 15.0363 158.895 14.9846 157.22L14.9588 156.175L14.9846 155.131C15.0363 153.456 15.5536 152.097 16.5364 151.052C17.5364 149.991 18.933 149.461 20.7261 149.461C22.5193 149.461 23.9072 149.991 24.89 151.052C25.89 152.097 26.4159 153.456 26.4676 155.131C26.4849 155.297 26.4935 155.645 26.4935 156.175C26.4935 156.706 26.4849 157.054 26.4676 157.22C26.4159 158.895 25.89 160.262 24.89 161.324C23.9072 162.368 22.5193 162.89 20.7261 162.89ZM20.7261 161.448C21.9503 161.448 22.9331 161.075 23.6745 160.329C24.4331 159.566 24.8383 158.488 24.89 157.096C24.9073 156.93 24.9159 156.623 24.9159 156.175C24.9159 155.728 24.9073 155.421 24.89 155.255C24.8383 153.863 24.4331 152.793 23.6745 152.047C22.9331 151.284 21.9503 150.903 20.7261 150.903C19.502 150.903 18.5106 151.284 17.7519 152.047C17.0105 152.793 16.614 153.863 16.5622 155.255L16.5364 156.175L16.5622 157.096C16.614 158.488 17.0105 159.566 17.7519 160.329C18.5106 161.075 19.502 161.448 20.7261 161.448Z"/><path d="M35.07 162.89C33.3803 162.89 32.0958 162.376 31.2165 161.348C30.3371 160.321 29.8975 158.978 29.8975 157.32V150.256C29.8975 150.091 29.9492 149.958 30.0527 149.858C30.1561 149.759 30.294 149.709 30.4665 149.709H30.9061C31.0785 149.709 31.2165 149.759 31.3199 149.858C31.4234 149.958 31.4751 150.091 31.4751 150.256V157.195C31.4751 160.03 32.7596 161.448 35.3286 161.448C36.5701 161.448 37.5528 161.075 38.277 160.329C39.0184 159.566 39.3891 158.522 39.3891 157.195V150.256C39.3891 150.091 39.4408 149.958 39.5443 149.858C39.6477 149.759 39.7856 149.709 39.9581 149.709H40.3977C40.5702 149.709 40.7081 149.759 40.8115 149.858C40.915 149.958 40.9667 150.091 40.9667 150.256V162.095C40.9667 162.26 40.915 162.393 40.8115 162.493C40.7081 162.592 40.5702 162.642 40.3977 162.642H39.9581C39.7856 162.642 39.6477 162.592 39.5443 162.493C39.4408 162.393 39.3891 162.26 39.3891 162.095V160.926C38.8718 161.572 38.277 162.061 37.6046 162.393C36.9494 162.725 36.1045 162.89 35.07 162.89Z"/><path d="M45.7244 162.642C45.552 162.642 45.4141 162.592 45.3106 162.493C45.2072 162.393 45.1555 162.26 45.1555 162.095V150.256C45.1555 150.091 45.2072 149.958 45.3106 149.858C45.4141 149.759 45.552 149.709 45.7244 149.709H46.1641C46.3365 149.709 46.4744 149.759 46.5779 149.858C46.6813 149.958 46.7331 150.091 46.7331 150.256V151.425C47.2503 150.779 47.8365 150.29 48.4917 149.958C49.1642 149.626 50.0263 149.461 51.078 149.461C52.7677 149.461 54.0694 149.983 54.9833 151.027C55.8971 152.055 56.354 153.39 56.354 155.031V162.095C56.354 162.26 56.3023 162.393 56.1988 162.493C56.0954 162.592 55.9574 162.642 55.785 162.642H55.3453C55.1729 162.642 55.035 162.592 54.9315 162.493C54.8281 162.393 54.7764 162.26 54.7764 162.095V155.156C54.7764 153.813 54.4315 152.768 53.7419 152.022C53.0694 151.276 52.0953 150.903 50.8194 150.903C49.578 150.903 48.5866 151.284 47.8452 152.047C47.1038 152.793 46.7331 153.829 46.7331 155.156V162.095C46.7331 162.26 46.6813 162.393 46.5779 162.493C46.4744 162.592 46.3365 162.642 46.1641 162.642H45.7244Z"/><path d="M65.2726 162.89C63.4105 162.89 62.0311 162.31 61.1345 161.15C60.2552 159.972 59.7897 158.546 59.738 156.872L59.7121 156.175L59.738 155.479C59.7897 153.805 60.2552 152.387 61.1345 151.226C62.0311 150.049 63.4105 149.461 65.2726 149.461C67.1519 149.461 68.6002 150.115 69.6175 151.425V145.531C69.6175 145.365 69.6692 145.233 69.7727 145.133C69.8761 145.034 70.0141 144.984 70.1865 144.984H70.6261C70.7986 144.984 70.9365 145.034 71.0399 145.133C71.1434 145.233 71.1951 145.365 71.1951 145.531V162.095C71.1951 162.26 71.1434 162.393 71.0399 162.493C70.9365 162.592 70.7986 162.642 70.6261 162.642H70.1865C70.0141 162.642 69.8761 162.592 69.7727 162.493C69.6692 162.393 69.6175 162.26 69.6175 162.095V160.926C68.6175 162.236 67.1692 162.89 65.2726 162.89ZM65.4277 161.448C66.7898 161.448 67.8157 161.017 68.5054 160.155C69.1951 159.276 69.5658 158.248 69.6175 157.071C69.6347 156.905 69.6434 156.582 69.6434 156.101C69.6434 155.62 69.6347 155.297 69.6175 155.131C69.6003 154.418 69.4365 153.746 69.1261 153.116C68.8158 152.47 68.3502 151.939 67.7295 151.525C67.1088 151.11 66.3416 150.903 65.4277 150.903C64.0312 150.903 63.0053 151.334 62.3501 152.196C61.7121 153.042 61.3673 154.136 61.3156 155.479L61.2897 156.175C61.2897 157.717 61.6001 158.986 62.2208 159.981C62.8415 160.959 63.9105 161.448 65.4277 161.448Z"/><path d="M79.0335 162.89C78.2059 162.89 77.4387 162.725 76.7318 162.393C76.0248 162.061 75.4559 161.614 75.0248 161.05C74.611 160.486 74.4041 159.865 74.4041 159.185C74.4041 158.09 74.861 157.195 75.7748 156.499C76.7059 155.802 77.9559 155.355 79.5249 155.156L83.6112 154.609V153.738C83.6112 152.826 83.3181 152.13 82.7319 151.649C82.1629 151.152 81.2836 150.903 80.0939 150.903C79.2146 150.903 78.4904 151.069 77.9214 151.4C77.3697 151.732 77.0163 152.13 76.8611 152.594C76.7921 152.793 76.7059 152.934 76.6024 153.017C76.5162 153.083 76.3955 153.116 76.2404 153.116H75.8783C75.7231 153.116 75.5852 153.067 75.4645 152.967C75.361 152.851 75.3093 152.719 75.3093 152.569C75.3093 152.205 75.4817 151.782 75.8266 151.301C76.1714 150.804 76.7059 150.372 77.4301 150.008C78.1542 149.643 79.0422 149.461 80.0939 149.461C81.9388 149.461 83.2492 149.883 84.025 150.729C84.8009 151.574 85.1889 152.602 85.1889 153.813V162.095C85.1889 162.26 85.1371 162.393 85.0337 162.493C84.9302 162.592 84.7923 162.642 84.6199 162.642H84.1802C84.0078 162.642 83.8699 162.592 83.7664 162.493C83.663 162.393 83.6112 162.26 83.6112 162.095V160.926C83.2319 161.473 82.6716 161.937 81.9302 162.318C81.206 162.7 80.2405 162.89 79.0335 162.89ZM79.2922 161.448C80.5508 161.448 81.5853 161.05 82.3957 160.254C83.206 159.458 83.6112 158.314 83.6112 156.822V155.977L80.2749 156.424C78.8611 156.607 77.7921 156.922 77.068 157.369C76.3438 157.817 75.9817 158.381 75.9817 159.06C75.9817 159.823 76.3093 160.412 76.9645 160.826C77.6369 161.241 78.4128 161.448 79.2922 161.448Z"/><path d="M93.6783 162.642C92.4024 162.642 91.4972 162.277 90.9627 161.547C90.4282 160.801 90.1609 159.782 90.1609 158.488V151.152H88.1437C87.9712 151.152 87.8333 151.102 87.7299 151.002C87.6264 150.903 87.5747 150.77 87.5747 150.605V150.256C87.5747 150.091 87.6264 149.958 87.7299 149.858C87.8333 149.759 87.9712 149.709 88.1437 149.709H90.1609V145.531C90.1609 145.365 90.2127 145.233 90.3161 145.133C90.4196 145.034 90.5575 144.984 90.7299 144.984H91.1696C91.342 144.984 91.4799 145.034 91.5834 145.133C91.6868 145.233 91.7386 145.365 91.7386 145.531V149.709H94.9455C95.118 149.709 95.2559 149.759 95.3593 149.858C95.4628 149.958 95.5145 150.091 95.5145 150.256V150.605C95.5145 150.77 95.4628 150.903 95.3593 151.002C95.2559 151.102 95.118 151.152 94.9455 151.152H91.7386V158.389C91.7386 159.317 91.8937 160.022 92.2041 160.503C92.5317 160.967 93.0662 161.199 93.8076 161.199H95.2042C95.3766 161.199 95.5145 161.249 95.618 161.348C95.7214 161.448 95.7732 161.581 95.7732 161.746V162.095C95.7732 162.26 95.7214 162.393 95.618 162.493C95.5145 162.592 95.3766 162.642 95.2042 162.642H93.6783Z"/><path d="M98.7312 147.048C98.5588 147.048 98.4208 146.998 98.3174 146.899C98.2139 146.799 98.1622 146.667 98.1622 146.501V145.556C98.1622 145.39 98.2139 145.257 98.3174 145.158C98.4208 145.042 98.5588 144.984 98.7312 144.984H99.714C99.8864 144.984 100.024 145.042 100.128 145.158C100.248 145.257 100.309 145.39 100.309 145.556V146.501C100.309 146.667 100.248 146.799 100.128 146.899C100.024 146.998 99.8864 147.048 99.714 147.048H98.7312ZM99.0157 162.642C98.8433 162.642 98.7053 162.592 98.6019 162.493C98.4984 162.393 98.4467 162.26 98.4467 162.095V150.256C98.4467 150.091 98.4984 149.958 98.6019 149.858C98.7053 149.759 98.8433 149.709 99.0157 149.709H99.4553C99.6278 149.709 99.7657 149.759 99.8692 149.858C99.9726 149.958 100.024 150.091 100.024 150.256V162.095C100.024 162.26 99.9726 162.393 99.8692 162.493C99.7657 162.592 99.6278 162.642 99.4553 162.642H99.0157Z"/><path d="M109.326 162.89C107.533 162.89 106.136 162.368 105.136 161.324C104.153 160.262 103.636 158.895 103.584 157.22L103.559 156.175L103.584 155.131C103.636 153.456 104.153 152.097 105.136 151.052C106.136 149.991 107.533 149.461 109.326 149.461C111.119 149.461 112.507 149.991 113.49 151.052C114.49 152.097 115.016 153.456 115.068 155.131C115.085 155.297 115.093 155.645 115.093 156.175C115.093 156.706 115.085 157.054 115.068 157.22C115.016 158.895 114.49 160.262 113.49 161.324C112.507 162.368 111.119 162.89 109.326 162.89ZM109.326 161.448C110.55 161.448 111.533 161.075 112.274 160.329C113.033 159.566 113.438 158.488 113.49 157.096C113.507 156.93 113.516 156.623 113.516 156.175C113.516 155.728 113.507 155.421 113.49 155.255C113.438 153.863 113.033 152.793 112.274 152.047C111.533 151.284 110.55 150.903 109.326 150.903C108.102 150.903 107.11 151.284 106.352 152.047C105.61 152.793 105.214 153.863 105.162 155.255L105.136 156.175L105.162 157.096C105.214 158.488 105.61 159.566 106.352 160.329C107.11 161.075 108.102 161.448 109.326 161.448Z"/><path d="M119.196 162.642C119.023 162.642 118.885 162.592 118.782 162.493C118.678 162.393 118.627 162.26 118.627 162.095V150.256C118.627 150.091 118.678 149.958 118.782 149.858C118.885 149.759 119.023 149.709 119.196 149.709H119.635C119.808 149.709 119.946 149.759 120.049 149.858C120.153 149.958 120.204 150.091 120.204 150.256V151.425C120.722 150.779 121.308 150.29 121.963 149.958C122.635 149.626 123.497 149.461 124.549 149.461C126.239 149.461 127.541 149.983 128.454 151.027C129.368 152.055 129.825 153.39 129.825 155.031V162.095C129.825 162.26 129.773 162.393 129.67 162.493C129.567 162.592 129.429 162.642 129.256 162.642H128.817C128.644 162.642 128.506 162.592 128.403 162.493C128.299 162.393 128.248 162.26 128.248 162.095V155.156C128.248 153.813 127.903 152.768 127.213 152.022C126.541 151.276 125.566 150.903 124.291 150.903C123.049 150.903 122.058 151.284 121.316 152.047C120.575 152.793 120.204 153.829 120.204 155.156V162.095C120.204 162.26 120.153 162.393 120.049 162.493C119.946 162.592 119.808 162.642 119.635 162.642H119.196Z"/></svg>