<?xml version="1.0" encoding="UTF-8" standalone="no"?>
<svg
   xmlns:dc="http://purl.org/dc/elements/1.1/"
   xmlns:cc="http://creativecommons.org/ns#"
   xmlns:rdf="http://www.w3.org/1999/02/22-rdf-syntax-ns#"
   xmlns:svg="http://www.w3.org/2000/svg"
   xmlns="http://www.w3.org/2000/svg"
   xmlns:sodipodi="http://sodipodi.sourceforge.net/DTD/sodipodi-0.dtd"
   xmlns:inkscape="http://www.inkscape.org/namespaces/inkscape"
   viewBox="0 0 445 221.89279"
   height="221.89279"
   width="445"
   xml:space="preserve"
   version="1.1"
   id="svg2"
   inkscape:version="0.92.4 (5da689c313, 2019-01-14)"
   sodipodi:docname="groovy.svg"><sodipodi:namedview
     pagecolor="#ffffff"
     bordercolor="#666666"
     borderopacity="1"
     objecttolerance="10"
     gridtolerance="10"
     guidetolerance="10"
     inkscape:pageopacity="0"
     inkscape:pageshadow="2"
     inkscape:window-width="1600"
     inkscape:window-height="877"
     id="namedview3495"
     showgrid="false"
     inkscape:zoom="1.1852457"
     inkscape:cx="523.17563"
     inkscape:cy="229.21677"
     inkscape:window-x="-8"
     inkscape:window-y="-8"
     inkscape:window-maximized="1"
     inkscape:current-layer="g12"
     fit-margin-top="0"
     fit-margin-left="0"
     fit-margin-right="0"
     fit-margin-bottom="0" /><metadata
     id="metadata8"><rdf:RDF><cc:Work
         rdf:about=""><dc:format>image/svg+xml</dc:format><dc:type
           rdf:resource="http://purl.org/dc/dcmitype/StillImage" /><dc:title></dc:title></cc:Work></rdf:RDF></metadata><defs
     id="defs6" /><g
     transform="matrix(1.25,0,0,-1.25,0.10206869,221.89279)"
     id="g10"><g
       transform="scale(0.1)"
       id="g12"><path
         id="path14"
         style="fill:#000000;fill-opacity:1;fill-rule:nonzero;stroke:none;stroke-width:0.44467491"
         d="M 2879.3174,1.7203399 1779.1983,428.14937 679.12504,1.8290318 1113.4909,681.45657 -0.81654949,1097.6377 1367.7497,1091.2558 l 411.3994,683.5339 411.4388,-683.5712 1368.5956,6.2554 L 2444.8762,681.3933 2879.3174,1.7203399"
         inkscape:connector-curvature="0" /><path
         id="path16"
         style="fill:#619cbc;fill-opacity:1;fill-rule:nonzero;stroke:none;stroke-width:0.44467491"
         d="M 2730.5061,123.27678 1780.1485,491.63841 829.84013,123.35303 1205.073,710.46107 242.46549,1069.9765 l 1182.24801,-5.506 355.4023,590.4824 355.4236,-590.5149 1182.266,5.412 -962.5961,-359.43922 375.2968,-587.134"
         inkscape:connector-curvature="0" /><path
         id="path18"
         style="fill:#000000;fill-opacity:1;fill-rule:nonzero;stroke:none;stroke-width:0.44467491"
         d="m 1050.6455,1425.5157 c 94.9292,0 39.6021,-237.2078 5.8439,-308.7336 -28.9086,-61.2341 -93.98882,-149.5535 -171.11906,-149.5535 -92.54055,0 -89.7881,103.6483 -52.95145,181.6744 19.94198,42.2438 50.59058,89.5978 92.8158,124.4116 -10.80818,-36.3387 25.72702,-61.1594 10.95074,-92.4692 -10.09226,-21.3814 -30.98122,-44.7421 -41.83529,-67.7393 -17.55492,-37.1792 -10.84753,-103.1665 31.56281,-103.1665 37.96385,0 71.69747,47.0279 85.52675,76.3228 28.332,60.0287 99.1726,316.1198 19.9879,316.1198 -91.1971,0 -248.34432,-222.2344 -281.25222,-291.9432 -58.73814,-124.42782 -16.16069,-277.69308 117.67281,-277.69308 90.42873,0 164.80821,86.93728 200.73551,163.05078 21.4018,45.3342 33.0554,90.4414 37.6444,132.974 l 17.5549,3.212 c 3.878,-117.0805 127.7389,-310.94792 75.0119,-422.63612 -67.4804,-142.95089 -269.253,-141.67093 -384.46174,-192.40407 -24.21646,56.64633 -57.0228,109.31319 -103.21607,149.50811 102.76713,34.56889 355.30401,92.6152 410.21501,208.94309 23.0777,48.87725 7.366,129.91439 -19.2965,157.37939 -4.5366,-17.2756 -10.8148,-34.88528 -19.1474,-52.53393 -47.019,-99.59905 -147.68906,-176.84006 -251.47361,-176.84006 -144.49591,0 -205.75379,103.83159 -137.75082,247.90829 40.81294,86.4506 249.22251,374.2083 356.98173,374.2083"
         inkscape:connector-curvature="0" /><path
         id="path20"
         style="fill:none;stroke:#000000;stroke-width:159.00854492;stroke-linecap:butt;stroke-linejoin:round;stroke-miterlimit:3.8636899;stroke-dasharray:none;stroke-opacity:1"
         d="m 1050.6455,1425.5157 c 94.9292,0 39.6021,-237.2078 5.8439,-308.7336 -28.9086,-61.2341 -93.98882,-149.5535 -171.11906,-149.5535 -92.54055,0 -89.7881,103.6483 -52.95145,181.6744 19.94198,42.2438 50.59058,89.5978 92.8158,124.4116 -10.80818,-36.3387 25.72702,-61.1594 10.95074,-92.4692 -10.09226,-21.3814 -30.98122,-44.7421 -41.83529,-67.7393 -17.55492,-37.1792 -10.84753,-103.1665 31.56281,-103.1665 37.96385,0 71.69747,47.0279 85.52675,76.3228 28.332,60.0287 99.1726,316.1198 19.9879,316.1198 -91.1971,0 -248.34432,-222.2344 -281.25222,-291.9432 -58.73814,-124.42782 -16.16069,-277.69308 117.67281,-277.69308 90.42873,0 164.80821,86.93728 200.73551,163.05078 21.4018,45.3342 33.0554,90.4414 37.6444,132.974 l 17.5549,3.212 c 3.878,-117.0805 127.7389,-310.94792 75.0119,-422.63612 -67.4804,-142.95089 -269.253,-141.67093 -384.46174,-192.40407 -24.21646,56.64633 -57.0228,109.31319 -103.21607,149.50811 102.76713,34.56889 355.30401,92.6152 410.21501,208.94309 23.0777,48.87725 7.366,129.91439 -19.2965,157.37939 -4.5366,-17.2756 -10.8148,-34.88528 -19.1474,-52.53393 -47.019,-99.59905 -147.68906,-176.84006 -251.47361,-176.84006 -144.49591,0 -205.75379,103.83159 -137.75082,247.90829 40.81294,86.4506 249.22251,374.2083 356.98173,374.2083 z"
         inkscape:connector-curvature="0" /><path
         id="path22"
         style="fill:#000000;fill-opacity:1;fill-rule:nonzero;stroke:none;stroke-width:0.44467491"
         d="m 1297.512,1082.2003 c 5.7408,-14.1056 22.3356,-93.97633 34.9427,-93.97633 27.2179,0 76.4078,74.05973 89.603,93.28683 24.205,-15.8495 10.7771,-49.1255 55.6335,-49.1255 20.3073,0 30.5208,43.7445 51.6538,44.455 0.7488,-17.6811 1.8809,-33.6815 -7.7575,-54.1059 -14.8664,-31.49464 -52.478,-74.16836 -89.449,-74.16836 -26.4823,0 -63.3648,31.88239 -70.6096,31.88239 -7.8723,0 -22.316,-3.68253 -26.9247,-13.43399 -19.2506,-40.79189 32.2182,-176.96656 83.8377,-176.96656 27.5832,0 60.4977,20.23289 89.3474,32.71785 -7.5119,-49.06868 -8.5555,-90.44137 1.3827,-132.65921 -26.2906,-16.65907 -57.0866,-23.68187 -81.8011,-23.68187 -126.8378,0 -56.8884,294.98 -173.8453,357.82505 l 43.9864,57.9506"
         inkscape:connector-curvature="0" /><path
         id="path24"
         style="fill:none;stroke:#000000;stroke-width:159.00854492;stroke-linecap:butt;stroke-linejoin:round;stroke-miterlimit:3.8636899;stroke-dasharray:none;stroke-opacity:1"
         d="m 1297.512,1082.2003 c 5.7408,-14.1056 22.3356,-93.97633 34.9427,-93.97633 27.2179,0 76.4078,74.05973 89.603,93.28683 24.205,-15.8495 10.7771,-49.1255 55.6335,-49.1255 20.3073,0 30.5208,43.7445 51.6538,44.455 0.7488,-17.6811 1.8809,-33.6815 -7.7575,-54.1059 -14.8664,-31.49464 -52.478,-74.16836 -89.449,-74.16836 -26.4823,0 -63.3648,31.88239 -70.6096,31.88239 -7.8723,0 -22.316,-3.68253 -26.9247,-13.43399 -19.2506,-40.79189 32.2182,-176.96656 83.8377,-176.96656 27.5832,0 60.4977,20.23289 89.3474,32.71785 -7.5119,-49.06868 -8.5555,-90.44137 1.3827,-132.65921 -26.2906,-16.65907 -57.0866,-23.68187 -81.8011,-23.68187 -126.8378,0 -56.8884,294.98 -173.8453,357.82505 z"
         inkscape:connector-curvature="0" /><path
         id="path26"
         style="fill:#000000;fill-opacity:1;fill-rule:evenodd;stroke:none;stroke-width:0.44467491"
         d="m 1784.998,1105.8383 c 95.8599,0 133.7058,-172.44208 90.6991,-263.55508 -33.3732,-70.68375 -92.534,-121.92306 -168.3241,-121.92306 -133.8499,0 -117.0764,182.45959 -64.8622,293.08524 14.4011,30.4742 63.6007,96.898 102.0855,96.898 14.139,0 25.8532,-4.5051 40.4017,-4.5051 z m -2.9654,-16.0961 c -15.0892,0 -28.3598,-7.4592 -35.3555,-22.3062 -14.6961,-31.1151 58.5709,-62.6032 48.0527,-84.87212 -6.6189,-14.01637 -31.8167,-27.13402 -44.5303,-27.13402 -63.5188,0 -62.9782,82.64634 -25.1159,136.51044 -23.5431,-14.9994 -38.9763,-37.914 -49.003,-59.1672 -37.2234,-78.83899 -7.6839,-187.2956 77.2645,-187.2956 46.9388,0 101.0043,42.17243 122.0079,86.68906 25.8532,54.7385 -40.2542,157.57564 -93.3204,157.57564"
         inkscape:connector-curvature="0" /><path
         id="path28"
         style="fill:none;stroke:#000000;stroke-width:159.00854492;stroke-linecap:butt;stroke-linejoin:round;stroke-miterlimit:3.8636899;stroke-dasharray:none;stroke-opacity:1"
         d="m 1784.998,1105.8383 c 95.8599,0 133.7058,-172.44208 90.6991,-263.55508 -33.3732,-70.68375 -92.534,-121.92306 -168.3241,-121.92306 -133.8499,0 -117.0764,182.45959 -64.8622,293.08524 14.4011,30.4742 63.6007,96.898 102.0855,96.898 14.139,0 25.8532,-4.5051 40.4017,-4.5051 z"
         inkscape:connector-curvature="0" /><path
         id="path30"
         style="fill:none;stroke:#000000;stroke-width:159.00854492;stroke-linecap:butt;stroke-linejoin:round;stroke-miterlimit:3.8636899;stroke-dasharray:none;stroke-opacity:1"
         d="m 1782.0326,1089.7422 c -15.0892,0 -28.3598,-7.4592 -35.3555,-22.3062 -14.6961,-31.1151 58.5709,-62.6032 48.0527,-84.87212 -6.6189,-14.01637 -31.8167,-27.13402 -44.5303,-27.13402 -63.5188,0 -62.9782,82.64634 -25.1159,136.51044 -23.5431,-14.9994 -38.9763,-37.914 -49.003,-59.1672 -37.2234,-78.83899 -7.6839,-187.2956 77.2645,-187.2956 46.9388,0 101.0043,42.17243 122.0079,86.68906 25.8532,54.7385 -40.2542,157.57564 -93.3204,157.57564 z"
         inkscape:connector-curvature="0" /><path
         id="path32"
         style="fill:#000000;fill-opacity:1;fill-rule:evenodd;stroke:none;stroke-width:0.44467491"
         d="m 2220.6517,821.9481 c -25.0504,-53.05945 -71.727,-82.19051 -124.2853,-82.19051 -166.8004,0 -199.895,152.09888 -127.611,305.23921 17.0716,36.1457 45.0873,76.133 87.8647,76.133 134.0006,0 227.3537,-165.02835 164.0316,-299.1817 z m -133.0832,279.9676 c -12.304,0 -23.1007,-4.4483 -28.9988,-16.9511 -12.9757,-27.4974 57.6207,-52.0147 57.7191,-80.4304 -7.3726,-8.73101 -28.0158,-18.50354 -37.0104,-18.50354 -50.838,0 -89.2081,68.92204 -45.8082,120.14344 -17.6123,-11.1855 -28.065,-27.9273 -35.5031,-43.6682 -44.006,-93.21703 18.7264,-187.46099 110.1299,-187.46099 38.0425,0 87.0783,21.17222 106.8368,63.0413 27.9666,59.25653 -71.645,163.82949 -127.3653,163.82949"
         inkscape:connector-curvature="0" /><path
         id="path34"
         style="fill:none;stroke:#000000;stroke-width:159.00854492;stroke-linecap:butt;stroke-linejoin:round;stroke-miterlimit:3.8636899;stroke-dasharray:none;stroke-opacity:1"
         d="m 2220.6517,821.9481 c -25.0504,-53.05945 -71.727,-82.19051 -124.2853,-82.19051 -166.8004,0 -199.895,152.09888 -127.611,305.23921 17.0716,36.1457 45.0873,76.133 87.8647,76.133 134.0006,0 227.3537,-165.02835 164.0316,-299.1817 z"
         inkscape:connector-curvature="0" /><path
         id="path36"
         style="fill:none;stroke:#000000;stroke-width:159.00854492;stroke-linecap:butt;stroke-linejoin:round;stroke-miterlimit:3.8636899;stroke-dasharray:none;stroke-opacity:1"
         d="m 2087.5685,1101.9157 c -12.304,0 -23.1007,-4.4483 -28.9988,-16.9511 -12.9757,-27.4974 57.6207,-52.0147 57.7191,-80.4304 -7.3726,-8.73101 -28.0158,-18.50354 -37.0104,-18.50354 -50.838,0 -89.2081,68.92204 -45.8082,120.14344 -17.6123,-11.1855 -28.065,-27.9273 -35.5031,-43.6682 -44.006,-93.21703 18.7264,-187.46099 110.1299,-187.46099 38.0425,0 87.0783,21.17222 106.8368,63.0413 27.9666,59.25653 -71.645,163.82949 -127.3653,163.82949 z"
         inkscape:connector-curvature="0" /><path
         id="path38"
         style="fill:#000000;fill-opacity:1;fill-rule:nonzero;stroke:none;stroke-width:0.44467491"
         d="m 2393.1535,1102.8274 c 143.7488,0 216.7865,-263.78222 152.5468,-399.83687 -12.2713,-26.01463 -35.159,-52.01473 -65.3374,-52.01473 -164.2282,0 -122.3029,326.43737 -214.7549,419.1856 8.4539,8.9792 16.5473,18.3771 23.969,27.8381 62.4703,-73.3135 31.4236,-266.2545 164.8508,-266.2545 30.7354,0 53.9836,26.91342 66.3859,53.17952 33.1274,70.189 -28.1796,192.09258 -95.2864,192.09258 -0.6717,0 -10.3052,-0.399 -10.0922,-4.3022 2.4739,-44.7973 37.7148,-16.8635 2.2281,-93.10353 -36.2567,7.22392 -74.6596,65.42923 -54.8355,107.43133 5.8325,12.3439 20.4302,15.7847 30.3258,15.7847"
         inkscape:connector-curvature="0" /><path
         id="path40"
         style="fill:none;stroke:#000000;stroke-width:159.00854492;stroke-linecap:butt;stroke-linejoin:round;stroke-miterlimit:3.8636899;stroke-dasharray:none;stroke-opacity:1"
         d="m 2393.1535,1102.8274 c 143.7488,0 216.7865,-263.78222 152.5468,-399.83687 -12.2713,-26.01463 -35.159,-52.01473 -65.3374,-52.01473 -164.2282,0 -122.3029,326.43737 -214.7549,419.1856 8.4539,8.9792 16.5473,18.3771 23.969,27.8381 62.4703,-73.3135 31.4236,-266.2545 164.8508,-266.2545 30.7354,0 53.9836,26.91342 66.3859,53.17952 33.1274,70.189 -28.1796,192.09258 -95.2864,192.09258 -0.6717,0 -10.3052,-0.399 -10.0922,-4.3022 2.4739,-44.7973 37.7148,-16.8635 2.2281,-93.10353 -36.2567,7.22392 -74.6596,65.42923 -54.8355,107.43133 5.8325,12.3439 20.4302,15.7847 30.3258,15.7847 z"
         inkscape:connector-curvature="0" /><path
         id="path42"
         style="fill:#000000;fill-opacity:1;fill-rule:evenodd;stroke:none;stroke-width:0.44467491"
         d="m 2750.5923,1105.762 c 13.5328,-1.2799 33.881,-0.07 45.497,-3.6062 2.179,-0.6587 0.5242,-3.3841 0.9011,-5.532 3.5224,-19.9295 9.0764,-38.8452 13.8768,-58.1031 18.7263,-75.04929 29.9982,-152.08749 51.4933,-226.47164 23.3792,-80.98682 47.7579,-172.2523 19.4472,-273.87755 -2.7688,-9.94289 -6.4714,-20.03825 -11.2554,-30.17093 -32.0953,-68.00218 -308.4849,-146.35279 -380.6378,-146.35279 -8.7652,0 -18.2349,2.48531 -22.4127,8.18758 30.4405,19.36013 49.511,39.20694 63.1256,68.03462 16.3016,34.5494 16.0559,66.91199 13.9096,96.70819 5.767,-3.3516 218.1135,1.88182 225.8138,1.88182 31.2106,0 58.014,30.18391 70.5309,56.71606 23.0025,48.72481 19.0705,98.45214 15.0892,139.94649 -1.9987,20.77148 -4.8003,41.26557 -8.6668,61.17077 l -5.8653,28.8261 -0.7373,3.15692 -0.7209,3.14879 c 3.4897,0 0.3605,-6.12077 0.4915,-9.20148 2.1463,-50.2335 1.2452,-120.36407 -25.7384,-177.53601 -12.5498,-26.56462 -33.0619,-53.95335 -64.551,-53.95335 -138.0146,0 -68.5977,391.42866 -179.2027,484.47371 6.1274,10.1214 11.5995,20.5331 16.1869,30.742 65.4521,-79.0482 68.8762,-296.95756 165.2112,-296.95756 23.3792,0 47.5449,21.91358 57.4897,42.97063 42.7937,90.65712 -28.2943,196.26993 -59.2755,255.79893"
         inkscape:connector-curvature="0" /><path
         id="path44"
         style="fill:none;stroke:#000000;stroke-width:159.00854492;stroke-linecap:butt;stroke-linejoin:round;stroke-miterlimit:3.8636899;stroke-dasharray:none;stroke-opacity:1"
         d="m 2750.5923,1105.762 c 13.5328,-1.2799 33.881,-0.07 45.497,-3.6062 2.179,-0.6587 0.5242,-3.3841 0.9011,-5.532 3.5224,-19.9295 9.0764,-38.8452 13.8768,-58.1031 18.7263,-75.04929 29.9982,-152.08749 51.4933,-226.47164 23.3792,-80.98682 47.7579,-172.2523 19.4472,-273.87755 -2.7688,-9.94289 -6.4714,-20.03825 -11.2554,-30.17093 -32.0953,-68.00218 -308.4849,-146.35279 -380.6378,-146.35279 -8.7652,0 -18.2349,2.48531 -22.4127,8.18758 30.4405,19.36013 49.511,39.20694 63.1256,68.03462 16.3016,34.5494 16.0559,66.91199 13.9096,96.70819 5.767,-3.3516 218.1135,1.88182 225.8138,1.88182 31.2106,0 58.014,30.18391 70.5309,56.71606 23.0025,48.72481 19.0705,98.45214 15.0892,139.94649 -1.9987,20.77148 -4.8003,41.26557 -8.6668,61.17077 l -5.8653,28.8261 -0.7373,3.15692 -0.7209,3.14879 c 3.4897,0 0.3605,-6.12077 0.4915,-9.20148 2.1463,-50.2335 1.2452,-120.36407 -25.7384,-177.53601 -12.5498,-26.56462 -33.0619,-53.95335 -64.551,-53.95335 -138.0146,0 -68.5977,391.42866 -179.2027,484.47371 6.1274,10.1214 11.5995,20.5331 16.1869,30.742 65.4521,-79.0482 68.8762,-296.95756 165.2112,-296.95756 23.3792,0 47.5449,21.91358 57.4897,42.97063 42.7937,90.65712 -28.2943,196.26993 -59.2755,255.79893 z"
         inkscape:connector-curvature="0" /><path
         id="path46"
         style="fill:#000000;fill-opacity:1;fill-rule:nonzero;stroke:none;stroke-width:0.44467491"
         d="m 1050.6455,1425.5157 c 94.9292,0 39.6021,-237.2078 5.8439,-308.7336 -28.9086,-61.2341 -93.98882,-149.5535 -171.11906,-149.5535 -92.54055,0 -89.7881,103.6483 -52.95145,181.6744 19.94198,42.2438 50.59058,89.5978 92.8158,124.4116 -10.80818,-36.3387 25.72702,-61.1594 10.95074,-92.4692 -10.09226,-21.3814 -30.98122,-44.7421 -41.83529,-67.7393 -17.55492,-37.1792 -10.84753,-103.1665 31.56281,-103.1665 37.96385,0 71.69747,47.0279 85.52675,76.3228 28.332,60.0287 99.1726,316.1198 19.9879,316.1198 -91.1971,0 -248.34432,-222.2344 -281.25222,-291.9432 -58.73814,-124.42782 -16.16069,-277.69308 117.67281,-277.69308 90.42873,0 164.80821,86.93728 200.73551,163.05078 21.4018,45.3342 33.0554,90.4414 37.6444,132.974 l 17.5549,3.212 c 3.878,-117.0805 127.7389,-310.94792 75.0119,-422.63612 -67.4804,-142.95089 -269.253,-141.67093 -384.46174,-192.40407 -24.21646,56.64633 -57.0228,109.31319 -103.21607,149.50811 102.76713,34.56889 355.30401,92.6152 410.21501,208.94309 23.0777,48.87725 7.366,129.91439 -19.2965,157.37939 -4.5366,-17.2756 -10.8148,-34.88528 -19.1474,-52.53393 -47.019,-99.59905 -147.68906,-176.84006 -251.47361,-176.84006 -144.49591,0 -205.75379,103.83159 -137.75082,247.90829 40.81294,86.4506 249.22251,374.2083 356.98173,374.2083"
         inkscape:connector-curvature="0" /><path
         id="path48"
         style="fill:none;stroke:#000000;stroke-width:13.25098515;stroke-linecap:butt;stroke-linejoin:miter;stroke-miterlimit:3.86370993;stroke-dasharray:none;stroke-opacity:1"
         d="m 1050.6455,1425.5157 c 94.9292,0 39.6021,-237.2078 5.8439,-308.7336 -28.9086,-61.2341 -93.98882,-149.5535 -171.11906,-149.5535 -92.54055,0 -89.7881,103.6483 -52.95145,181.6744 19.94198,42.2438 50.59058,89.5978 92.8158,124.4116 -10.80818,-36.3387 25.72702,-61.1594 10.95074,-92.4692 -10.09226,-21.3814 -30.98122,-44.7421 -41.83529,-67.7393 -17.55492,-37.1792 -10.84753,-103.1665 31.56281,-103.1665 37.96385,0 71.69747,47.0279 85.52675,76.3228 28.332,60.0287 99.1726,316.1198 19.9879,316.1198 -91.1971,0 -248.34432,-222.2344 -281.25222,-291.9432 -58.73814,-124.42782 -16.16069,-277.69308 117.67281,-277.69308 90.42873,0 164.80821,86.93728 200.73551,163.05078 21.4018,45.3342 33.0554,90.4414 37.6444,132.974 l 17.5549,3.212 c 3.878,-117.0805 127.7389,-310.94792 75.0119,-422.63612 -67.4804,-142.95089 -269.253,-141.67093 -384.46174,-192.40407 -24.21646,56.64633 -57.0228,109.31319 -103.21607,149.50811 102.76713,34.56889 355.30401,92.6152 410.21501,208.94309 23.0777,48.87725 7.366,129.91439 -19.2965,157.37939 -4.5366,-17.2756 -10.8148,-34.88528 -19.1474,-52.53393 -47.019,-99.59905 -147.68906,-176.84006 -251.47361,-176.84006 -144.49591,0 -205.75379,103.83159 -137.75082,247.90829 40.81294,86.4506 249.22251,374.2083 356.98173,374.2083 z"
         inkscape:connector-curvature="0" /><path
         id="path50"
         style="fill:#000000;fill-opacity:1;fill-rule:nonzero;stroke:none;stroke-width:0.44467491"
         d="m 1297.512,1082.2003 c 5.7408,-14.1056 22.3356,-93.97633 34.9427,-93.97633 27.2179,0 76.4078,74.05973 89.603,93.28683 24.205,-15.8495 10.7771,-49.1255 55.6335,-49.1255 20.3073,0 30.5208,43.7445 51.6538,44.455 0.7488,-17.6811 1.8809,-33.6815 -7.7575,-54.1059 -14.8664,-31.49464 -52.478,-74.16836 -89.449,-74.16836 -26.4823,0 -63.3648,31.88239 -70.6096,31.88239 -7.8723,0 -22.316,-3.68253 -26.9247,-13.43399 -19.2506,-40.79189 32.2182,-176.96656 83.8377,-176.96656 27.5832,0 60.4977,20.23289 89.3474,32.71785 -7.5119,-49.06868 -8.5555,-90.44137 1.3827,-132.65921 -26.2906,-16.65907 -57.0866,-23.68187 -81.8011,-23.68187 -126.8378,0 -56.8884,294.98 -173.8453,357.82505 l 43.9864,57.9506"
         inkscape:connector-curvature="0" /><path
         id="path52"
         style="fill:none;stroke:#000000;stroke-width:13.25098515;stroke-linecap:butt;stroke-linejoin:miter;stroke-miterlimit:3.86370993;stroke-dasharray:none;stroke-opacity:1"
         d="m 1297.512,1082.2003 c 5.7408,-14.1056 22.3356,-93.97633 34.9427,-93.97633 27.2179,0 76.4078,74.05973 89.603,93.28683 24.205,-15.8495 10.7771,-49.1255 55.6335,-49.1255 20.3073,0 30.5208,43.7445 51.6538,44.455 0.7488,-17.6811 1.8809,-33.6815 -7.7575,-54.1059 -14.8664,-31.49464 -52.478,-74.16836 -89.449,-74.16836 -26.4823,0 -63.3648,31.88239 -70.6096,31.88239 -7.8723,0 -22.316,-3.68253 -26.9247,-13.43399 -19.2506,-40.79189 32.2182,-176.96656 83.8377,-176.96656 27.5832,0 60.4977,20.23289 89.3474,32.71785 -7.5119,-49.06868 -8.5555,-90.44137 1.3827,-132.65921 -26.2906,-16.65907 -57.0866,-23.68187 -81.8011,-23.68187 -126.8378,0 -56.8884,294.98 -173.8453,357.82505 z"
         inkscape:connector-curvature="0" /><path
         id="path54"
         style="fill:#000000;fill-opacity:1;fill-rule:evenodd;stroke:none;stroke-width:0.44467491"
         d="m 1784.998,1105.8383 c 95.8599,0 133.7058,-172.44208 90.6991,-263.55508 -33.3732,-70.68375 -92.534,-121.92306 -168.3241,-121.92306 -133.8499,0 -117.0764,182.45959 -64.8622,293.08524 14.4011,30.4742 63.6007,96.898 102.0855,96.898 14.139,0 25.8532,-4.5051 40.4017,-4.5051 z m -2.9654,-16.0961 c -15.0892,0 -28.3598,-7.4592 -35.3555,-22.3062 -14.6961,-31.1151 58.5709,-62.6032 48.0527,-84.87212 -6.6189,-14.01637 -31.8167,-27.13402 -44.5303,-27.13402 -63.5188,0 -62.9782,82.64634 -25.1159,136.51044 -23.5431,-14.9994 -38.9763,-37.914 -49.003,-59.1672 -37.2234,-78.83899 -7.6839,-187.2956 77.2645,-187.2956 46.9388,0 101.0043,42.17243 122.0079,86.68906 25.8532,54.7385 -40.2542,157.57564 -93.3204,157.57564"
         inkscape:connector-curvature="0" /><path
         id="path56"
         style="fill:none;stroke:#000000;stroke-width:13.25098515;stroke-linecap:butt;stroke-linejoin:miter;stroke-miterlimit:3.86370993;stroke-dasharray:none;stroke-opacity:1"
         d="m 1784.998,1105.8383 c 95.8599,0 133.7058,-172.44208 90.6991,-263.55508 -33.3732,-70.68375 -92.534,-121.92306 -168.3241,-121.92306 -133.8499,0 -117.0764,182.45959 -64.8622,293.08524 14.4011,30.4742 63.6007,96.898 102.0855,96.898 14.139,0 25.8532,-4.5051 40.4017,-4.5051 z"
         inkscape:connector-curvature="0" /><path
         id="path58"
         style="fill:none;stroke:#000000;stroke-width:13.25098515;stroke-linecap:butt;stroke-linejoin:miter;stroke-miterlimit:3.86370993;stroke-dasharray:none;stroke-opacity:1"
         d="m 1782.0326,1089.7422 c -15.0892,0 -28.3598,-7.4592 -35.3555,-22.3062 -14.6961,-31.1151 58.5709,-62.6032 48.0527,-84.87212 -6.6189,-14.01637 -31.8167,-27.13402 -44.5303,-27.13402 -63.5188,0 -62.9782,82.64634 -25.1159,136.51044 -23.5431,-14.9994 -38.9763,-37.914 -49.003,-59.1672 -37.2234,-78.83899 -7.6839,-187.2956 77.2645,-187.2956 46.9388,0 101.0043,42.17243 122.0079,86.68906 25.8532,54.7385 -40.2542,157.57564 -93.3204,157.57564 z"
         inkscape:connector-curvature="0" /><path
         id="path60"
         style="fill:#000000;fill-opacity:1;fill-rule:evenodd;stroke:none;stroke-width:0.44467491"
         d="m 2220.6517,821.9481 c -25.0504,-53.05945 -71.727,-82.19051 -124.2853,-82.19051 -166.8004,0 -199.895,152.09888 -127.611,305.23921 17.0716,36.1457 45.0873,76.133 87.8647,76.133 134.0006,0 227.3537,-165.02835 164.0316,-299.1817 z m -133.0832,279.9676 c -12.304,0 -23.1007,-4.4483 -28.9988,-16.9511 -12.9757,-27.4974 57.6207,-52.0147 57.7191,-80.4304 -7.3726,-8.73101 -28.0158,-18.50354 -37.0104,-18.50354 -50.838,0 -89.2081,68.92204 -45.8082,120.14344 -17.6123,-11.1855 -28.065,-27.9273 -35.5031,-43.6682 -44.006,-93.21703 18.7264,-187.46099 110.1299,-187.46099 38.0425,0 87.0783,21.17222 106.8368,63.0413 27.9666,59.25653 -71.645,163.82949 -127.3653,163.82949"
         inkscape:connector-curvature="0" /><path
         id="path62"
         style="fill:none;stroke:#000000;stroke-width:13.25098515;stroke-linecap:butt;stroke-linejoin:miter;stroke-miterlimit:3.86370993;stroke-dasharray:none;stroke-opacity:1"
         d="m 2220.6517,821.9481 c -25.0504,-53.05945 -71.727,-82.19051 -124.2853,-82.19051 -166.8004,0 -199.895,152.09888 -127.611,305.23921 17.0716,36.1457 45.0873,76.133 87.8647,76.133 134.0006,0 227.3537,-165.02835 164.0316,-299.1817 z"
         inkscape:connector-curvature="0" /><path
         id="path64"
         style="fill:none;stroke:#000000;stroke-width:13.25098515;stroke-linecap:butt;stroke-linejoin:miter;stroke-miterlimit:3.86370993;stroke-dasharray:none;stroke-opacity:1"
         d="m 2087.5685,1101.9157 c -12.304,0 -23.1007,-4.4483 -28.9988,-16.9511 -12.9757,-27.4974 57.6207,-52.0147 57.7191,-80.4304 -7.3726,-8.73101 -28.0158,-18.50354 -37.0104,-18.50354 -50.838,0 -89.2081,68.92204 -45.8082,120.14344 -17.6123,-11.1855 -28.065,-27.9273 -35.5031,-43.6682 -44.006,-93.21703 18.7264,-187.46099 110.1299,-187.46099 38.0425,0 87.0783,21.17222 106.8368,63.0413 27.9666,59.25653 -71.645,163.82949 -127.3653,163.82949 z"
         inkscape:connector-curvature="0" /><path
         id="path66"
         style="fill:#000000;fill-opacity:1;fill-rule:nonzero;stroke:none;stroke-width:0.44467491"
         d="m 2393.1535,1102.8274 c 143.7488,0 216.7865,-263.78222 152.5468,-399.83687 -12.2713,-26.01463 -35.159,-52.01473 -65.3374,-52.01473 -164.2282,0 -122.3029,326.43737 -214.7549,419.1856 8.4539,8.9792 16.5473,18.3771 23.969,27.8381 62.4703,-73.3135 31.4236,-266.2545 164.8508,-266.2545 30.7354,0 53.9836,26.91342 66.3859,53.17952 33.1274,70.189 -28.1796,192.09258 -95.2864,192.09258 -0.6717,0 -10.3052,-0.399 -10.0922,-4.3022 2.4739,-44.7973 37.7148,-16.8635 2.2281,-93.10353 -36.2567,7.22392 -74.6596,65.42923 -54.8355,107.43133 5.8325,12.3439 20.4302,15.7847 30.3258,15.7847"
         inkscape:connector-curvature="0" /><path
         id="path68"
         style="fill:none;stroke:#000000;stroke-width:13.25098515;stroke-linecap:butt;stroke-linejoin:miter;stroke-miterlimit:3.86370993;stroke-dasharray:none;stroke-opacity:1"
         d="m 2393.1535,1102.8274 c 143.7488,0 216.7865,-263.78222 152.5468,-399.83687 -12.2713,-26.01463 -35.159,-52.01473 -65.3374,-52.01473 -164.2282,0 -122.3029,326.43737 -214.7549,419.1856 8.4539,8.9792 16.5473,18.3771 23.969,27.8381 62.4703,-73.3135 31.4236,-266.2545 164.8508,-266.2545 30.7354,0 53.9836,26.91342 66.3859,53.17952 33.1274,70.189 -28.1796,192.09258 -95.2864,192.09258 -0.6717,0 -10.3052,-0.399 -10.0922,-4.3022 2.4739,-44.7973 37.7148,-16.8635 2.2281,-93.10353 -36.2567,7.22392 -74.6596,65.42923 -54.8355,107.43133 5.8325,12.3439 20.4302,15.7847 30.3258,15.7847 z"
         inkscape:connector-curvature="0" /><path
         id="path70"
         style="fill:#000000;fill-opacity:1;fill-rule:evenodd;stroke:none;stroke-width:0.44467491"
         d="m 2750.5923,1105.762 c 13.5328,-1.2799 33.881,-0.07 45.497,-3.6062 2.179,-0.6587 0.5242,-3.3841 0.9011,-5.532 3.5224,-19.9295 9.0764,-38.8452 13.8768,-58.1031 18.7263,-75.04929 29.9982,-152.08749 51.4933,-226.47164 23.3792,-80.98682 47.7579,-172.2523 19.4472,-273.87755 -2.7688,-9.94289 -6.4714,-20.03825 -11.2554,-30.17093 -32.0953,-68.00218 -114.619,-132.73386 -186.7883,-132.73386 -8.7652,0 -18.2185,2.4772 -22.4126,8.18109 30.4569,19.35851 49.5109,39.21343 63.1256,68.03299 16.318,34.55591 16.0722,66.91851 13.926,96.70981 5.767,-3.3532 24.2475,-11.73061 31.9478,-11.73061 31.2106,0 58.014,30.18391 70.5309,56.71606 23.0025,48.72481 19.0705,98.45214 15.0892,139.94649 -1.9987,20.77148 -4.8003,41.26557 -8.6668,61.17077 l -5.8653,28.8261 -0.7373,3.15692 -0.7209,3.14879 c 3.4897,0 0.3605,-6.12077 0.4915,-9.20148 2.1463,-50.2335 1.2452,-120.36407 -25.7384,-177.53601 -12.5498,-26.56462 -33.0619,-53.95335 -64.551,-53.95335 -138.0146,0 -68.5977,391.42866 -179.2027,484.47371 6.1274,10.1214 11.5995,20.5331 16.1869,30.742 65.4521,-79.0482 68.8762,-296.95756 165.2112,-296.95756 23.3792,0 47.5449,21.91358 57.4897,42.97063 42.7937,90.65712 -28.2943,196.26993 -59.2755,255.79893"
         inkscape:connector-curvature="0" /><path
         id="path72"
         style="fill:none;stroke:#000000;stroke-width:13.25098515;stroke-linecap:butt;stroke-linejoin:miter;stroke-miterlimit:3.86370993;stroke-dasharray:none;stroke-opacity:1"
         d="m 2750.5923,1105.762 c 13.5328,-1.2799 33.881,-0.07 45.497,-3.6062 2.179,-0.6587 0.5242,-3.3841 0.9011,-5.532 3.5224,-19.9295 9.0764,-38.8452 13.8768,-58.1031 18.7263,-75.04929 29.9982,-152.08749 51.4933,-226.47164 23.3792,-80.98682 47.7579,-172.2523 19.4472,-273.87755 -2.7688,-9.94289 -6.4714,-20.03825 -11.2554,-30.17093 -32.0953,-68.00218 -114.619,-132.73386 -186.7883,-132.73386 -8.7652,0 -18.2185,2.4772 -22.4126,8.18109 30.4569,19.35851 49.5109,39.21343 63.1256,68.03299 16.318,34.55591 16.0722,66.91851 13.926,96.70981 5.767,-3.3532 24.2475,-11.73061 31.9478,-11.73061 31.2106,0 58.014,30.18391 70.5309,56.71606 23.0025,48.72481 19.0705,98.45214 15.0892,139.94649 -1.9987,20.77148 -4.8003,41.26557 -8.6668,61.17077 l -5.8653,28.8261 -0.7373,3.15692 -0.7209,3.14879 c 3.4897,0 0.3605,-6.12077 0.4915,-9.20148 2.1463,-50.2335 1.2452,-120.36407 -25.7384,-177.53601 -12.5498,-26.56462 -33.0619,-53.95335 -64.551,-53.95335 -138.0146,0 -68.5977,391.42866 -179.2027,484.47371 6.1274,10.1214 11.5995,20.5331 16.1869,30.742 65.4521,-79.0482 68.8762,-296.95756 165.2112,-296.95756 23.3792,0 47.5449,21.91358 57.4897,42.97063 42.7937,90.65712 -28.2943,196.26993 -59.2755,255.79893 z"
         inkscape:connector-curvature="0" /><path
         id="path74"
         style="fill:#000000;fill-opacity:1;fill-rule:nonzero;stroke:none;stroke-width:0.44467491"
         d="m 1050.6455,1425.5157 c 94.9292,0 39.6021,-237.2078 5.8439,-308.7336 -28.9086,-61.2341 -93.98882,-149.5535 -171.11906,-149.5535 -92.54055,0 -89.7881,103.6483 -52.95145,181.6744 19.94198,42.2438 50.59058,89.5978 92.8158,124.4116 -10.80818,-36.3387 25.72702,-61.1594 10.95074,-92.4692 -10.09226,-21.3814 -30.98122,-44.7421 -41.83529,-67.7393 -17.55492,-37.1792 -10.84753,-103.1665 31.56281,-103.1665 37.96385,0 71.69747,47.0279 85.52675,76.3228 28.332,60.0287 99.1726,316.1198 19.9879,316.1198 -91.1971,0 -248.34432,-222.2344 -281.25222,-291.9432 -58.73814,-124.42782 -16.16069,-277.69308 117.67281,-277.69308 90.42873,0 164.80821,86.93728 200.73551,163.05078 21.4018,45.3342 33.0554,90.4414 37.6444,132.974 l 17.5549,3.212 c 3.878,-117.0805 127.7389,-310.94792 75.0119,-422.63612 -67.4804,-142.95089 -269.253,-141.67093 -384.46174,-192.40407 -24.21646,56.64633 -57.0228,109.31319 -103.21607,149.50811 102.76713,34.56889 355.30401,92.6152 410.21501,208.94309 23.0777,48.87725 7.366,129.91439 -19.2965,157.37939 -4.5366,-17.2756 -10.8148,-34.88528 -19.1474,-52.53393 -47.019,-99.59905 -147.68906,-176.84006 -251.47361,-176.84006 -144.49591,0 -205.75379,103.83159 -137.75082,247.90829 40.81294,86.4506 249.22251,374.2083 356.98173,374.2083"
         inkscape:connector-curvature="0" /><path
         id="path76"
         style="fill:none;stroke:#000000;stroke-width:159.00854492;stroke-linecap:butt;stroke-linejoin:round;stroke-miterlimit:3.8636899;stroke-dasharray:none;stroke-opacity:1"
         d="m 1050.6455,1425.5157 c 94.9292,0 39.6021,-237.2078 5.8439,-308.7336 -28.9086,-61.2341 -93.98882,-149.5535 -171.11906,-149.5535 -92.54055,0 -89.7881,103.6483 -52.95145,181.6744 19.94198,42.2438 50.59058,89.5978 92.8158,124.4116 -10.80818,-36.3387 25.72702,-61.1594 10.95074,-92.4692 -10.09226,-21.3814 -30.98122,-44.7421 -41.83529,-67.7393 -17.55492,-37.1792 -10.84753,-103.1665 31.56281,-103.1665 37.96385,0 71.69747,47.0279 85.52675,76.3228 28.332,60.0287 99.1726,316.1198 19.9879,316.1198 -91.1971,0 -248.34432,-222.2344 -281.25222,-291.9432 -58.73814,-124.42782 -16.16069,-277.69308 117.67281,-277.69308 90.42873,0 164.80821,86.93728 200.73551,163.05078 21.4018,45.3342 33.0554,90.4414 37.6444,132.974 l 17.5549,3.212 c 3.878,-117.0805 127.7389,-310.94792 75.0119,-422.63612 -67.4804,-142.95089 -269.253,-141.67093 -384.46174,-192.40407 -24.21646,56.64633 -57.0228,109.31319 -103.21607,149.50811 102.76713,34.56889 355.30401,92.6152 410.21501,208.94309 23.0777,48.87725 7.366,129.91439 -19.2965,157.37939 -4.5366,-17.2756 -10.8148,-34.88528 -19.1474,-52.53393 -47.019,-99.59905 -147.68906,-176.84006 -251.47361,-176.84006 -144.49591,0 -205.75379,103.83159 -137.75082,247.90829 40.81294,86.4506 249.22251,374.2083 356.98173,374.2083 z"
         inkscape:connector-curvature="0" /><path
         id="path78"
         style="fill:#000000;fill-opacity:1;fill-rule:nonzero;stroke:none;stroke-width:0.44467491"
         d="m 1297.512,1082.2003 c 5.7408,-14.1056 22.3356,-93.97633 34.9427,-93.97633 27.2179,0 76.4078,74.05973 89.603,93.28683 24.205,-15.8495 10.7771,-49.1255 55.6335,-49.1255 20.3073,0 30.5208,43.7445 51.6538,44.455 0.7488,-17.6811 1.8809,-33.6815 -7.7575,-54.1059 -14.8664,-31.49464 -52.478,-74.16836 -89.449,-74.16836 -26.4823,0 -63.3648,31.88239 -70.6096,31.88239 -7.8723,0 -22.316,-3.68253 -26.9247,-13.43399 -19.2506,-40.79189 32.2182,-176.96656 83.8377,-176.96656 27.5832,0 60.4977,20.23289 89.3474,32.71785 -7.5119,-49.06868 -8.5555,-90.44137 1.3827,-132.65921 -26.2906,-16.65907 -57.0866,-23.68187 -81.8011,-23.68187 -126.8378,0 -56.8884,294.98 -173.8453,357.82505 l 43.9864,57.9506"
         inkscape:connector-curvature="0" /><path
         id="path80"
         style="fill:none;stroke:#000000;stroke-width:159.00854492;stroke-linecap:butt;stroke-linejoin:round;stroke-miterlimit:3.8636899;stroke-dasharray:none;stroke-opacity:1"
         d="m 1297.512,1082.2003 c 5.7408,-14.1056 22.3356,-93.97633 34.9427,-93.97633 27.2179,0 76.4078,74.05973 89.603,93.28683 24.205,-15.8495 10.7771,-49.1255 55.6335,-49.1255 20.3073,0 30.5208,43.7445 51.6538,44.455 0.7488,-17.6811 1.8809,-33.6815 -7.7575,-54.1059 -14.8664,-31.49464 -52.478,-74.16836 -89.449,-74.16836 -26.4823,0 -63.3648,31.88239 -70.6096,31.88239 -7.8723,0 -22.316,-3.68253 -26.9247,-13.43399 -19.2506,-40.79189 32.2182,-176.96656 83.8377,-176.96656 27.5832,0 60.4977,20.23289 89.3474,32.71785 -7.5119,-49.06868 -8.5555,-90.44137 1.3827,-132.65921 -26.2906,-16.65907 -57.0866,-23.68187 -81.8011,-23.68187 -126.8378,0 -56.8884,294.98 -173.8453,357.82505 z"
         inkscape:connector-curvature="0" /><path
         id="path82"
         style="fill:#000000;fill-opacity:1;fill-rule:evenodd;stroke:none;stroke-width:0.44467491"
         d="m 1784.998,1105.8383 c 95.8599,0 133.7058,-172.44208 90.6991,-263.55508 -33.3732,-70.68375 -92.534,-121.92306 -168.3241,-121.92306 -133.8499,0 -117.0764,182.45959 -64.8622,293.08524 14.4011,30.4742 63.6007,96.898 102.0855,96.898 14.139,0 25.8532,-4.5051 40.4017,-4.5051 z m -2.9654,-16.0961 c -15.0892,0 -28.3598,-7.4592 -35.3555,-22.3062 -14.6961,-31.1151 58.5709,-62.6032 48.0527,-84.87212 -6.6189,-14.01637 -31.8167,-27.13402 -44.5303,-27.13402 -63.5188,0 -62.9782,82.64634 -25.1159,136.51044 -23.5431,-14.9994 -38.9763,-37.914 -49.003,-59.1672 -37.2234,-78.83899 -7.6839,-187.2956 77.2645,-187.2956 46.9388,0 101.0043,42.17243 122.0079,86.68906 25.8532,54.7385 -40.2542,157.57564 -93.3204,157.57564"
         inkscape:connector-curvature="0" /><path
         id="path84"
         style="fill:none;stroke:#000000;stroke-width:159.00854492;stroke-linecap:butt;stroke-linejoin:round;stroke-miterlimit:3.8636899;stroke-dasharray:none;stroke-opacity:1"
         d="m 1784.998,1105.8383 c 95.8599,0 133.7058,-172.44208 90.6991,-263.55508 -33.3732,-70.68375 -92.534,-121.92306 -168.3241,-121.92306 -133.8499,0 -117.0764,182.45959 -64.8622,293.08524 14.4011,30.4742 63.6007,96.898 102.0855,96.898 14.139,0 25.8532,-4.5051 40.4017,-4.5051 z"
         inkscape:connector-curvature="0" /><path
         id="path86"
         style="fill:none;stroke:#000000;stroke-width:159.00854492;stroke-linecap:butt;stroke-linejoin:round;stroke-miterlimit:3.8636899;stroke-dasharray:none;stroke-opacity:1"
         d="m 1782.0326,1089.7422 c -15.0892,0 -28.3598,-7.4592 -35.3555,-22.3062 -14.6961,-31.1151 58.5709,-62.6032 48.0527,-84.87212 -6.6189,-14.01637 -31.8167,-27.13402 -44.5303,-27.13402 -63.5188,0 -62.9782,82.64634 -25.1159,136.51044 -23.5431,-14.9994 -38.9763,-37.914 -49.003,-59.1672 -37.2234,-78.83899 -7.6839,-187.2956 77.2645,-187.2956 46.9388,0 101.0043,42.17243 122.0079,86.68906 25.8532,54.7385 -40.2542,157.57564 -93.3204,157.57564 z"
         inkscape:connector-curvature="0" /><path
         id="path88"
         style="fill:#000000;fill-opacity:1;fill-rule:evenodd;stroke:none;stroke-width:0.44467491"
         d="m 2220.6517,821.9481 c -25.0504,-53.05945 -71.727,-82.19051 -124.2853,-82.19051 -166.8004,0 -199.895,152.09888 -127.611,305.23921 17.0716,36.1457 45.0873,76.133 87.8647,76.133 134.0006,0 227.3537,-165.02835 164.0316,-299.1817 z m -133.0832,279.9676 c -12.304,0 -23.1007,-4.4483 -28.9988,-16.9511 -12.9757,-27.4974 57.6207,-52.0147 57.7191,-80.4304 -7.3726,-8.73101 -28.0158,-18.50354 -37.0104,-18.50354 -50.838,0 -89.2081,68.92204 -45.8082,120.14344 -17.6123,-11.1855 -28.065,-27.9273 -35.5031,-43.6682 -44.006,-93.21703 18.7264,-187.46099 110.1299,-187.46099 38.0425,0 87.0783,21.17222 106.8368,63.0413 27.9666,59.25653 -71.645,163.82949 -127.3653,163.82949"
         inkscape:connector-curvature="0" /><path
         id="path90"
         style="fill:none;stroke:#000000;stroke-width:159.00854492;stroke-linecap:butt;stroke-linejoin:round;stroke-miterlimit:3.8636899;stroke-dasharray:none;stroke-opacity:1"
         d="m 2220.6517,821.9481 c -25.0504,-53.05945 -71.727,-82.19051 -124.2853,-82.19051 -166.8004,0 -199.895,152.09888 -127.611,305.23921 17.0716,36.1457 45.0873,76.133 87.8647,76.133 134.0006,0 227.3537,-165.02835 164.0316,-299.1817 z"
         inkscape:connector-curvature="0" /><path
         id="path92"
         style="fill:none;stroke:#000000;stroke-width:159.00854492;stroke-linecap:butt;stroke-linejoin:round;stroke-miterlimit:3.8636899;stroke-dasharray:none;stroke-opacity:1"
         d="m 2087.5685,1101.9157 c -12.304,0 -23.1007,-4.4483 -28.9988,-16.9511 -12.9757,-27.4974 57.6207,-52.0147 57.7191,-80.4304 -7.3726,-8.73101 -28.0158,-18.50354 -37.0104,-18.50354 -50.838,0 -89.2081,68.92204 -45.8082,120.14344 -17.6123,-11.1855 -28.065,-27.9273 -35.5031,-43.6682 -44.006,-93.21703 18.7264,-187.46099 110.1299,-187.46099 38.0425,0 87.0783,21.17222 106.8368,63.0413 27.9666,59.25653 -71.645,163.82949 -127.3653,163.82949 z"
         inkscape:connector-curvature="0" /><path
         id="path94"
         style="fill:#000000;fill-opacity:1;fill-rule:nonzero;stroke:none;stroke-width:0.44467491"
         d="m 2393.1535,1102.8274 c 143.7488,0 216.7865,-263.78222 152.5468,-399.83687 -12.2713,-26.01463 -35.159,-52.01473 -65.3374,-52.01473 -164.2282,0 -122.3029,326.43737 -214.7549,419.1856 8.4539,8.9792 16.5473,18.3771 23.969,27.8381 62.4703,-73.3135 31.4236,-266.2545 164.8508,-266.2545 30.7354,0 53.9836,26.91342 66.3859,53.17952 33.1274,70.189 -28.1796,192.09258 -95.2864,192.09258 -0.6717,0 -10.3052,-0.399 -10.0922,-4.3022 2.4739,-44.7973 37.7148,-16.8635 2.2281,-93.10353 -36.2567,7.22392 -74.6596,65.42923 -54.8355,107.43133 5.8325,12.3439 20.4302,15.7847 30.3258,15.7847"
         inkscape:connector-curvature="0" /><path
         id="path96"
         style="fill:none;stroke:#000000;stroke-width:159.00854492;stroke-linecap:butt;stroke-linejoin:round;stroke-miterlimit:3.8636899;stroke-dasharray:none;stroke-opacity:1"
         d="m 2393.1535,1102.8274 c 143.7488,0 216.7865,-263.78222 152.5468,-399.83687 -12.2713,-26.01463 -35.159,-52.01473 -65.3374,-52.01473 -164.2282,0 -122.3029,326.43737 -214.7549,419.1856 8.4539,8.9792 16.5473,18.3771 23.969,27.8381 62.4703,-73.3135 31.4236,-266.2545 164.8508,-266.2545 30.7354,0 53.9836,26.91342 66.3859,53.17952 33.1274,70.189 -28.1796,192.09258 -95.2864,192.09258 -0.6717,0 -10.3052,-0.399 -10.0922,-4.3022 2.4739,-44.7973 37.7148,-16.8635 2.2281,-93.10353 -36.2567,7.22392 -74.6596,65.42923 -54.8355,107.43133 5.8325,12.3439 20.4302,15.7847 30.3258,15.7847 z"
         inkscape:connector-curvature="0" /><path
         id="path98"
         style="fill:#000000;fill-opacity:1;fill-rule:evenodd;stroke:none;stroke-width:0.44467491"
         d="m 2750.5923,1105.762 c 13.5328,-1.2799 33.881,-0.07 45.497,-3.6062 2.179,-0.6587 0.5242,-3.3841 0.9011,-5.532 3.5224,-19.9295 9.0764,-38.8452 13.8768,-58.1031 18.7263,-75.04929 29.9982,-152.08749 51.4933,-226.47164 23.3792,-80.98682 47.7579,-172.2523 19.4472,-273.87755 -2.7688,-9.94289 -6.4714,-20.03825 -11.2554,-30.17093 -32.0953,-68.00218 -114.619,-132.73386 -186.7883,-132.73386 -8.7652,0 -18.2185,2.4772 -22.4126,8.18109 30.4569,19.35851 49.5109,39.21343 63.1256,68.03299 16.318,34.55591 16.0722,66.91851 13.926,96.70981 5.767,-3.3532 24.2475,-11.73061 31.9478,-11.73061 31.2106,0 58.014,30.18391 70.5309,56.71606 23.0025,48.72481 19.0705,98.45214 15.0892,139.94649 -1.9987,20.77148 -4.8003,41.26557 -8.6668,61.17077 l -5.8653,28.8261 -0.7373,3.15692 -0.7209,3.14879 c 3.4897,0 0.3605,-6.12077 0.4915,-9.20148 2.1463,-50.2335 1.2452,-120.36407 -25.7384,-177.53601 -12.5498,-26.56462 -33.0619,-53.95335 -64.551,-53.95335 -138.0146,0 -68.5977,391.42866 -179.2027,484.47371 6.1274,10.1214 11.5995,20.5331 16.1869,30.742 65.4521,-79.0482 68.8762,-296.95756 165.2112,-296.95756 23.3792,0 47.5449,21.91358 57.4897,42.97063 42.7937,90.65712 -28.2943,196.26993 -59.2755,255.79893"
         inkscape:connector-curvature="0" /><path
         id="path100"
         style="fill:none;stroke:#000000;stroke-width:159.00854492;stroke-linecap:butt;stroke-linejoin:round;stroke-miterlimit:3.8636899;stroke-dasharray:none;stroke-opacity:1"
         d="m 2750.5923,1105.762 c 13.5328,-1.2799 33.881,-0.07 45.497,-3.6062 2.179,-0.6587 0.5242,-3.3841 0.9011,-5.532 3.5224,-19.9295 9.0764,-38.8452 13.8768,-58.1031 18.7263,-75.04929 29.9982,-152.08749 51.4933,-226.47164 23.3792,-80.98682 47.7579,-172.2523 19.4472,-273.87755 -2.7688,-9.94289 -6.4714,-20.03825 -11.2554,-30.17093 -32.0953,-68.00218 -114.619,-132.73386 -186.7883,-132.73386 -8.7652,0 -18.2185,2.4772 -22.4126,8.18109 30.4569,19.35851 49.5109,39.21343 63.1256,68.03299 16.318,34.55591 16.0722,66.91851 13.926,96.70981 5.767,-3.3532 24.2475,-11.73061 31.9478,-11.73061 31.2106,0 58.014,30.18391 70.5309,56.71606 23.0025,48.72481 19.0705,98.45214 15.0892,139.94649 -1.9987,20.77148 -4.8003,41.26557 -8.6668,61.17077 l -5.8653,28.8261 -0.7373,3.15692 -0.7209,3.14879 c 3.4897,0 0.3605,-6.12077 0.4915,-9.20148 2.1463,-50.2335 1.2452,-120.36407 -25.7384,-177.53601 -12.5498,-26.56462 -33.0619,-53.95335 -64.551,-53.95335 -138.0146,0 -68.5977,391.42866 -179.2027,484.47371 6.1274,10.1214 11.5995,20.5331 16.1869,30.742 65.4521,-79.0482 68.8762,-296.95756 165.2112,-296.95756 23.3792,0 47.5449,21.91358 57.4897,42.97063 42.7937,90.65712 -28.2943,196.26993 -59.2755,255.79893 z"
         inkscape:connector-curvature="0" /><path
         id="path102"
         style="fill:#ffffff;fill-opacity:1;fill-rule:nonzero;stroke:none;stroke-width:0.44467491"
         d="m 1050.6455,1425.5157 c 94.9292,0 39.6021,-237.2078 5.8439,-308.7336 -28.9086,-61.2341 -93.98882,-149.5535 -171.11906,-149.5535 -92.54055,0 -89.7881,103.6483 -52.95145,181.6744 19.94198,42.2438 50.59058,89.5978 92.8158,124.4116 -10.80818,-36.3387 25.72702,-61.1594 10.95074,-92.4692 -10.09226,-21.3814 -30.98122,-44.7421 -41.83529,-67.7393 -17.55492,-37.1792 -10.84753,-103.1665 31.56281,-103.1665 37.96385,0 71.69747,47.0279 85.52675,76.3228 28.332,60.0287 99.1726,316.1198 19.9879,316.1198 -91.1971,0 -248.34432,-222.2344 -281.25222,-291.9432 -58.73814,-124.42782 -16.16069,-277.69308 117.67281,-277.69308 90.42873,0 164.80821,86.93728 200.73551,163.05078 21.4018,45.3342 33.0554,90.4414 37.6444,132.974 l 17.5549,3.212 c 3.878,-117.0805 127.7389,-310.94792 75.0119,-422.63612 -67.4804,-142.95089 -269.253,-141.67093 -384.46174,-192.40407 -24.21646,56.64633 -57.0228,109.31319 -103.21607,149.50811 102.76713,34.56889 355.30401,92.6152 410.21501,208.94309 23.0777,48.87725 7.366,129.91439 -19.2965,157.37939 -4.5366,-17.2756 -10.8148,-34.88528 -19.1474,-52.53393 -47.019,-99.59905 -147.68906,-176.84006 -251.47361,-176.84006 -144.49591,0 -205.75379,103.83159 -137.75082,247.90829 40.81294,86.4506 249.22251,374.2083 356.98173,374.2083"
         inkscape:connector-curvature="0" /><path
         id="path104"
         style="fill:#ffffff;fill-opacity:1;fill-rule:nonzero;stroke:none;stroke-width:0.44467491"
         d="m 1297.512,1082.2003 c 5.7408,-14.1056 22.3356,-93.97633 34.9427,-93.97633 27.2179,0 76.4078,74.05973 89.603,93.28683 24.205,-15.8495 10.7771,-49.1255 55.6335,-49.1255 20.3073,0 30.5208,43.7445 51.6538,44.455 0.7488,-17.6811 1.8809,-33.6815 -7.7575,-54.1059 -14.8664,-31.49464 -52.478,-74.16836 -89.449,-74.16836 -26.4823,0 -63.3648,31.88239 -70.6096,31.88239 -7.8723,0 -22.316,-3.68253 -26.9247,-13.43399 -19.2506,-40.79189 32.2182,-176.96656 83.8377,-176.96656 27.5832,0 60.4977,20.23289 89.3474,32.71785 -7.5119,-49.06868 -8.5555,-90.44137 1.3827,-132.65921 -26.2906,-16.65907 -57.0866,-23.68187 -81.8011,-23.68187 -126.8378,0 -56.8884,294.98 -173.8453,357.82505 l 43.9864,57.9506"
         inkscape:connector-curvature="0" /><path
         id="path106"
         style="fill:#ffffff;fill-opacity:1;fill-rule:evenodd;stroke:none;stroke-width:0.44467491"
         d="m 1784.998,1105.8383 c 95.8599,0 133.7058,-172.44208 90.6991,-263.55508 -33.3732,-70.68375 -92.534,-121.92306 -168.3241,-121.92306 -133.8499,0 -117.0764,182.45959 -64.8622,293.08524 14.4011,30.4742 63.6007,96.898 102.0855,96.898 14.139,0 25.8532,-4.5051 40.4017,-4.5051 z m -2.9654,-16.0961 c -15.0892,0 -28.3598,-7.4592 -35.3555,-22.3062 -14.6961,-31.1151 58.5709,-62.6032 48.0527,-84.87212 -6.6189,-14.01637 -31.8167,-27.13402 -44.5303,-27.13402 -63.5188,0 -62.9782,82.64634 -25.1159,136.51044 -23.5431,-14.9994 -38.9763,-37.914 -49.003,-59.1672 -37.2234,-78.83899 -7.6839,-187.2956 77.2645,-187.2956 46.9388,0 101.0043,42.17243 122.0079,86.68906 25.8532,54.7385 -40.2542,157.57564 -93.3204,157.57564"
         inkscape:connector-curvature="0" /><path
         id="path108"
         style="fill:#ffffff;fill-opacity:1;fill-rule:evenodd;stroke:none;stroke-width:0.44467491"
         d="m 2220.6517,821.9481 c -25.0504,-53.05945 -71.727,-82.19051 -124.2853,-82.19051 -166.8004,0 -199.895,152.09888 -127.611,305.23921 17.0716,36.1457 45.0873,76.133 87.8647,76.133 134.0006,0 227.3537,-165.02835 164.0316,-299.1817 z m -133.0832,279.9676 c -12.304,0 -23.1007,-4.4483 -28.9988,-16.9511 -12.9757,-27.4974 57.6207,-52.0147 57.7191,-80.4304 -7.3726,-8.73101 -28.0158,-18.50354 -37.0104,-18.50354 -50.838,0 -89.2081,68.92204 -45.8082,120.14344 -17.6123,-11.1855 -28.065,-27.9273 -35.5031,-43.6682 -44.006,-93.21703 18.7264,-187.46099 110.1299,-187.46099 38.0425,0 87.0783,21.17222 106.8368,63.0413 27.9666,59.25653 -71.645,163.82949 -127.3653,163.82949"
         inkscape:connector-curvature="0" /><path
         id="path110"
         style="fill:#ffffff;fill-opacity:1;fill-rule:nonzero;stroke:none;stroke-width:0.44467491"
         d="m 2393.1535,1102.8274 c 143.7488,0 216.7865,-263.78222 152.5468,-399.83687 -12.2713,-26.01463 -35.159,-52.01473 -65.3374,-52.01473 -164.2282,0 -122.3029,326.43737 -214.7549,419.1856 8.4539,8.9792 16.5473,18.3771 23.969,27.8381 62.4703,-73.3135 31.4236,-266.2545 164.8508,-266.2545 30.7354,0 53.9836,26.91342 66.3859,53.17952 33.1274,70.189 -28.1796,192.09258 -95.2864,192.09258 -0.6717,0 -10.3052,-0.399 -10.0922,-4.3022 2.4739,-44.7973 37.7148,-16.8635 2.2281,-93.10353 -36.2567,7.22392 -74.6596,65.42923 -54.8355,107.43133 5.8325,12.3439 20.4302,15.7847 30.3258,15.7847"
         inkscape:connector-curvature="0" /><path
         id="path112"
         style="fill:#ffffff;fill-opacity:1;fill-rule:evenodd;stroke:none;stroke-width:0.44467491"
         d="m 2750.5923,1105.762 c 13.5328,-1.2799 33.881,-0.07 45.497,-3.6062 2.179,-0.6587 0.5242,-3.3841 0.9011,-5.532 3.5224,-19.9295 9.0764,-38.8452 13.8768,-58.1031 18.7263,-75.04929 29.9982,-152.08749 51.4933,-226.47164 23.3792,-80.98682 47.7579,-172.2523 19.4472,-273.87755 -2.7688,-9.94289 -6.4714,-20.03825 -11.2554,-30.17093 -107.6232,-206.73031 -337.9588,-151.01032 -410.1118,-151.01032 -8.7652,0 -18.2348,2.48531 -22.4126,8.18758 30.4405,19.36013 49.5109,39.20694 63.1093,68.02813 16.3179,34.55589 16.0722,66.91849 13.9259,96.71469 5.767,-3.3581 24.264,-11.73062 31.9478,-11.73062 31.2106,0 205.187,-89.38852 293.8708,74.98602 23.0025,48.72481 19.0705,98.45214 15.0892,139.94649 -1.9987,20.77148 -4.8003,41.26557 -8.6668,61.17077 l -5.8653,28.8261 -0.7373,3.15692 -0.7209,3.14879 c 3.4897,0 0.3605,-6.12077 0.4915,-9.20148 2.1463,-50.2335 1.2452,-120.36407 -25.7384,-177.53601 -12.5498,-26.56462 -33.0619,-53.95335 -64.551,-53.95335 -138.0146,0 -68.5977,391.42866 -179.2027,484.47371 6.1274,10.1214 11.5995,20.5331 16.1869,30.742 65.4521,-79.0482 68.8762,-296.95756 165.2112,-296.95756 23.3792,0 47.5449,21.91358 57.4897,42.97063 42.7937,90.65712 -28.2943,196.26993 -59.2755,255.79893"
         inkscape:connector-curvature="0" /><path
         id="path212"
         style="fill:#000000;fill-opacity:1;fill-rule:nonzero;stroke:none;stroke-width:0.44467491"
         d="M 2877.5765,0 1778.261,426.92756 678.99141,0.10881893 1113.04,680.53089 -0.45345041,1097.1986 1367.113,1090.8092 l 411.0989,684.3331 411.1382,-684.3705 1367.5958,6.2627 L 2443.4527,680.46753 2877.5765,0"
         inkscape:connector-curvature="0" /><path
         id="path214"
         style="fill:#619cbc;fill-opacity:1;fill-rule:nonzero;stroke:none;stroke-width:0.44467491"
         d="M 2730.5061,123.27678 1780.1485,491.63841 829.84013,123.35303 1205.073,710.46107 242.46549,1069.9765 l 1182.24801,-5.506 355.4023,590.4824 355.4236,-590.5149 1182.266,5.412 -962.5961,-359.43922 375.2968,-587.134"
         inkscape:connector-curvature="0" /><path
         id="path216"
         style="fill:#000000;fill-opacity:1;fill-rule:nonzero;stroke:none;stroke-width:0.44467491"
         d="m 1050.6455,1425.5157 c 94.9292,0 39.6021,-237.2078 5.8439,-308.7336 -28.9086,-61.2341 -93.98882,-149.5535 -171.11906,-149.5535 -92.54055,0 -89.7881,103.6483 -52.95145,181.6744 19.94198,42.2438 50.59058,89.5978 92.8158,124.4116 -10.80818,-36.3387 25.72702,-61.1594 10.95074,-92.4692 -10.09226,-21.3814 -30.98122,-44.7421 -41.83529,-67.7393 -17.55492,-37.1792 -10.84753,-103.1665 31.56281,-103.1665 37.96385,0 71.69747,47.0279 85.52675,76.3228 28.332,60.0287 99.1726,316.1198 19.9879,316.1198 -91.1971,0 -248.34432,-222.2344 -281.25222,-291.9432 -58.73814,-124.42782 -16.16069,-277.69308 117.67281,-277.69308 90.42873,0 164.80821,86.93728 200.73551,163.05078 21.4018,45.3342 33.0554,90.4414 37.6444,132.974 l 17.5549,3.212 c 3.878,-117.0805 127.7389,-310.94792 75.0119,-422.63612 -67.4804,-142.95089 -269.253,-141.67093 -384.46174,-192.40407 -24.21646,56.64633 -57.0228,109.31319 -103.21607,149.50811 102.76713,34.56889 355.30401,92.6152 410.21501,208.94309 23.0777,48.87725 7.366,129.91439 -19.2965,157.37939 -4.5366,-17.2756 -10.8148,-34.88528 -19.1474,-52.53393 -47.019,-99.59905 -147.68906,-176.84006 -251.47361,-176.84006 -144.49591,0 -205.75379,103.83159 -137.75082,247.90829 40.81294,86.4506 249.22251,374.2083 356.98173,374.2083"
         inkscape:connector-curvature="0" /><path
         id="path218"
         style="fill:none;stroke:#000000;stroke-width:159.00854492;stroke-linecap:butt;stroke-linejoin:round;stroke-miterlimit:3.8636899;stroke-dasharray:none;stroke-opacity:1"
         d="m 1050.6455,1425.5157 c 94.9292,0 39.6021,-237.2078 5.8439,-308.7336 -28.9086,-61.2341 -93.98882,-149.5535 -171.11906,-149.5535 -92.54055,0 -89.7881,103.6483 -52.95145,181.6744 19.94198,42.2438 50.59058,89.5978 92.8158,124.4116 -10.80818,-36.3387 25.72702,-61.1594 10.95074,-92.4692 -10.09226,-21.3814 -30.98122,-44.7421 -41.83529,-67.7393 -17.55492,-37.1792 -10.84753,-103.1665 31.56281,-103.1665 37.96385,0 71.69747,47.0279 85.52675,76.3228 28.332,60.0287 99.1726,316.1198 19.9879,316.1198 -91.1971,0 -248.34432,-222.2344 -281.25222,-291.9432 -58.73814,-124.42782 -16.16069,-277.69308 117.67281,-277.69308 90.42873,0 164.80821,86.93728 200.73551,163.05078 21.4018,45.3342 33.0554,90.4414 37.6444,132.974 l 17.5549,3.212 c 3.878,-117.0805 127.7389,-310.94792 75.0119,-422.63612 -67.4804,-142.95089 -269.253,-141.67093 -384.46174,-192.40407 -24.21646,56.64633 -57.0228,109.31319 -103.21607,149.50811 102.76713,34.56889 355.30401,92.6152 410.21501,208.94309 23.0777,48.87725 7.366,129.91439 -19.2965,157.37939 -4.5366,-17.2756 -10.8148,-34.88528 -19.1474,-52.53393 -47.019,-99.59905 -147.68906,-176.84006 -251.47361,-176.84006 -144.49591,0 -205.75379,103.83159 -137.75082,247.90829 40.81294,86.4506 249.22251,374.2083 356.98173,374.2083 z"
         inkscape:connector-curvature="0" /><path
         id="path220"
         style="fill:#000000;fill-opacity:1;fill-rule:nonzero;stroke:none;stroke-width:0.44467491"
         d="m 1297.512,1082.2003 c 5.7408,-14.1056 22.3356,-93.97633 34.9427,-93.97633 27.2179,0 76.4078,74.05973 89.603,93.28683 24.205,-15.8495 10.7771,-49.1255 55.6335,-49.1255 20.3073,0 30.5208,43.7445 51.6538,44.455 0.7488,-17.6811 1.8809,-33.6815 -7.7575,-54.1059 -14.8664,-31.49464 -52.478,-74.16836 -89.449,-74.16836 -26.4823,0 -63.3648,31.88239 -70.6096,31.88239 -7.8723,0 -22.316,-3.68253 -26.9247,-13.43399 -19.2506,-40.79189 32.2182,-176.96656 83.8377,-176.96656 27.5832,0 60.4977,20.23289 89.3474,32.71785 -7.5119,-49.06868 -8.5555,-90.44137 1.3827,-132.65921 -26.2906,-16.65907 -57.0866,-23.68187 -81.8011,-23.68187 -126.8378,0 -56.8884,294.98 -173.8453,357.82505 l 43.9864,57.9506"
         inkscape:connector-curvature="0" /><path
         id="path222"
         style="fill:none;stroke:#000000;stroke-width:159.00854492;stroke-linecap:butt;stroke-linejoin:round;stroke-miterlimit:3.8636899;stroke-dasharray:none;stroke-opacity:1"
         d="m 1297.512,1082.2003 c 5.7408,-14.1056 22.3356,-93.97633 34.9427,-93.97633 27.2179,0 76.4078,74.05973 89.603,93.28683 24.205,-15.8495 10.7771,-49.1255 55.6335,-49.1255 20.3073,0 30.5208,43.7445 51.6538,44.455 0.7488,-17.6811 1.8809,-33.6815 -7.7575,-54.1059 -14.8664,-31.49464 -52.478,-74.16836 -89.449,-74.16836 -26.4823,0 -63.3648,31.88239 -70.6096,31.88239 -7.8723,0 -22.316,-3.68253 -26.9247,-13.43399 -19.2506,-40.79189 32.2182,-176.96656 83.8377,-176.96656 27.5832,0 60.4977,20.23289 89.3474,32.71785 -7.5119,-49.06868 -8.5555,-90.44137 1.3827,-132.65921 -26.2906,-16.65907 -57.0866,-23.68187 -81.8011,-23.68187 -126.8378,0 -56.8884,294.98 -173.8453,357.82505 z"
         inkscape:connector-curvature="0" /><path
         id="path224"
         style="fill:#000000;fill-opacity:1;fill-rule:evenodd;stroke:none;stroke-width:0.44467491"
         d="m 1784.998,1105.8383 c 95.8599,0 133.7058,-172.44208 90.6991,-263.55508 -33.3732,-70.68375 -92.534,-121.92306 -168.3241,-121.92306 -133.8499,0 -117.0764,182.45959 -64.8622,293.08524 14.4011,30.4742 63.6007,96.898 102.0855,96.898 14.139,0 25.8532,-4.5051 40.4017,-4.5051 z m -2.9654,-16.0961 c -15.0892,0 -28.3598,-7.4592 -35.3555,-22.3062 -14.6961,-31.1151 58.5709,-62.6032 48.0527,-84.87212 -6.6189,-14.01637 -31.8167,-27.13402 -44.5303,-27.13402 -63.5188,0 -62.9782,82.64634 -25.1159,136.51044 -23.5431,-14.9994 -38.9763,-37.914 -49.003,-59.1672 -37.2234,-78.83899 -7.6839,-187.2956 77.2645,-187.2956 46.9388,0 101.0043,42.17243 122.0079,86.68906 25.8532,54.7385 -40.2542,157.57564 -93.3204,157.57564"
         inkscape:connector-curvature="0" /><path
         id="path226"
         style="fill:none;stroke:#000000;stroke-width:159.00854492;stroke-linecap:butt;stroke-linejoin:round;stroke-miterlimit:3.8636899;stroke-dasharray:none;stroke-opacity:1"
         d="m 1784.998,1105.8383 c 95.8599,0 133.7058,-172.44208 90.6991,-263.55508 -33.3732,-70.68375 -92.534,-121.92306 -168.3241,-121.92306 -133.8499,0 -117.0764,182.45959 -64.8622,293.08524 14.4011,30.4742 63.6007,96.898 102.0855,96.898 14.139,0 25.8532,-4.5051 40.4017,-4.5051 z"
         inkscape:connector-curvature="0" /><path
         id="path228"
         style="fill:none;stroke:#000000;stroke-width:159.00854492;stroke-linecap:butt;stroke-linejoin:round;stroke-miterlimit:3.8636899;stroke-dasharray:none;stroke-opacity:1"
         d="m 1782.0326,1089.7422 c -15.0892,0 -28.3598,-7.4592 -35.3555,-22.3062 -14.6961,-31.1151 58.5709,-62.6032 48.0527,-84.87212 -6.6189,-14.01637 -31.8167,-27.13402 -44.5303,-27.13402 -63.5188,0 -62.9782,82.64634 -25.1159,136.51044 -23.5431,-14.9994 -38.9763,-37.914 -49.003,-59.1672 -37.2234,-78.83899 -7.6839,-187.2956 77.2645,-187.2956 46.9388,0 101.0043,42.17243 122.0079,86.68906 25.8532,54.7385 -40.2542,157.57564 -93.3204,157.57564 z"
         inkscape:connector-curvature="0" /><path
         id="path230"
         style="fill:#000000;fill-opacity:1;fill-rule:evenodd;stroke:none;stroke-width:0.44467491"
         d="m 2220.6517,821.9481 c -25.0504,-53.05945 -71.727,-82.19051 -124.2853,-82.19051 -166.8004,0 -199.895,152.09888 -127.611,305.23921 17.0716,36.1457 45.0873,76.133 87.8647,76.133 134.0006,0 227.3537,-165.02835 164.0316,-299.1817 z m -133.0832,279.9676 c -12.304,0 -23.1007,-4.4483 -28.9988,-16.9511 -12.9757,-27.4974 57.6207,-52.0147 57.7191,-80.4304 -7.3726,-8.73101 -28.0158,-18.50354 -37.0104,-18.50354 -50.838,0 -89.2081,68.92204 -45.8082,120.14344 -17.6123,-11.1855 -28.065,-27.9273 -35.5031,-43.6682 -44.006,-93.21703 18.7264,-187.46099 110.1299,-187.46099 38.0425,0 87.0783,21.17222 106.8368,63.0413 27.9666,59.25653 -71.645,163.82949 -127.3653,163.82949"
         inkscape:connector-curvature="0" /><path
         id="path232"
         style="fill:none;stroke:#000000;stroke-width:159.00854492;stroke-linecap:butt;stroke-linejoin:round;stroke-miterlimit:3.8636899;stroke-dasharray:none;stroke-opacity:1"
         d="m 2220.6517,821.9481 c -25.0504,-53.05945 -71.727,-82.19051 -124.2853,-82.19051 -166.8004,0 -199.895,152.09888 -127.611,305.23921 17.0716,36.1457 45.0873,76.133 87.8647,76.133 134.0006,0 227.3537,-165.02835 164.0316,-299.1817 z"
         inkscape:connector-curvature="0" /><path
         id="path234"
         style="fill:none;stroke:#000000;stroke-width:159.00854492;stroke-linecap:butt;stroke-linejoin:round;stroke-miterlimit:3.8636899;stroke-dasharray:none;stroke-opacity:1"
         d="m 2087.5685,1101.9157 c -12.304,0 -23.1007,-4.4483 -28.9988,-16.9511 -12.9757,-27.4974 57.6207,-52.0147 57.7191,-80.4304 -7.3726,-8.73101 -28.0158,-18.50354 -37.0104,-18.50354 -50.838,0 -89.2081,68.92204 -45.8082,120.14344 -17.6123,-11.1855 -28.065,-27.9273 -35.5031,-43.6682 -44.006,-93.21703 18.7264,-187.46099 110.1299,-187.46099 38.0425,0 87.0783,21.17222 106.8368,63.0413 27.9666,59.25653 -71.645,163.82949 -127.3653,163.82949 z"
         inkscape:connector-curvature="0" /><path
         id="path236"
         style="fill:#000000;fill-opacity:1;fill-rule:nonzero;stroke:none;stroke-width:0.44467491"
         d="m 2393.1535,1102.8274 c 143.7488,0 216.7865,-263.78222 152.5468,-399.83687 -12.2713,-26.01463 -35.159,-52.01473 -65.3374,-52.01473 -164.2282,0 -122.3029,326.43737 -214.7549,419.1856 8.4539,8.9792 16.5473,18.3771 23.969,27.8381 62.4703,-73.3135 31.4236,-266.2545 164.8508,-266.2545 30.7354,0 53.9836,26.91342 66.3859,53.17952 33.1274,70.189 -28.1796,192.09258 -95.2864,192.09258 -0.6717,0 -10.3052,-0.399 -10.0922,-4.3022 2.4739,-44.7973 37.7148,-16.8635 2.2281,-93.10353 -36.2567,7.22392 -74.6596,65.42923 -54.8355,107.43133 5.8325,12.3439 20.4302,15.7847 30.3258,15.7847"
         inkscape:connector-curvature="0" /><path
         id="path238"
         style="fill:none;stroke:#000000;stroke-width:159.00854492;stroke-linecap:butt;stroke-linejoin:round;stroke-miterlimit:3.8636899;stroke-dasharray:none;stroke-opacity:1"
         d="m 2393.1535,1102.8274 c 143.7488,0 216.7865,-263.78222 152.5468,-399.83687 -12.2713,-26.01463 -35.159,-52.01473 -65.3374,-52.01473 -164.2282,0 -122.3029,326.43737 -214.7549,419.1856 8.4539,8.9792 16.5473,18.3771 23.969,27.8381 62.4703,-73.3135 31.4236,-266.2545 164.8508,-266.2545 30.7354,0 53.9836,26.91342 66.3859,53.17952 33.1274,70.189 -28.1796,192.09258 -95.2864,192.09258 -0.6717,0 -10.3052,-0.399 -10.0922,-4.3022 2.4739,-44.7973 37.7148,-16.8635 2.2281,-93.10353 -36.2567,7.22392 -74.6596,65.42923 -54.8355,107.43133 5.8325,12.3439 20.4302,15.7847 30.3258,15.7847 z"
         inkscape:connector-curvature="0" /><path
         id="path240"
         style="fill:#000000;fill-opacity:1;fill-rule:evenodd;stroke:none;stroke-width:0.44467491"
         d="m 2750.5923,1105.762 c 13.5328,-1.2799 33.881,-0.07 45.497,-3.6062 2.179,-0.6587 0.5242,-3.3841 0.9011,-5.532 3.5224,-19.9295 9.0764,-38.8452 13.8768,-58.1031 18.7263,-75.04929 29.9982,-152.08749 51.4933,-226.47164 23.3792,-80.98682 47.7579,-172.2523 19.4472,-273.87755 -2.7688,-9.94289 -6.4714,-20.03825 -11.2554,-30.17093 -32.0953,-68.00218 -308.4849,-146.35279 -380.6378,-146.35279 -8.7652,0 -18.2349,2.48531 -22.4127,8.18758 30.4405,19.36013 49.511,39.20694 63.1256,68.03462 16.3016,34.5494 16.0559,66.91199 13.9096,96.70819 5.767,-3.3516 218.1135,1.88182 225.8138,1.88182 31.2106,0 58.014,30.18391 70.5309,56.71606 23.0025,48.72481 19.0705,98.45214 15.0892,139.94649 -1.9987,20.77148 -4.8003,41.26557 -8.6668,61.17077 l -5.8653,28.8261 -0.7373,3.15692 -0.7209,3.14879 c 3.4897,0 0.3605,-6.12077 0.4915,-9.20148 2.1463,-50.2335 1.2452,-120.36407 -25.7384,-177.53601 -12.5498,-26.56462 -33.0619,-53.95335 -64.551,-53.95335 -138.0146,0 -68.5977,391.42866 -179.2027,484.47371 6.1274,10.1214 11.5995,20.5331 16.1869,30.742 65.4521,-79.0482 68.8762,-296.95756 165.2112,-296.95756 23.3792,0 47.5449,21.91358 57.4897,42.97063 42.7937,90.65712 -28.2943,196.26993 -59.2755,255.79893"
         inkscape:connector-curvature="0" /><path
         id="path242"
         style="fill:none;stroke:#000000;stroke-width:159.00854492;stroke-linecap:butt;stroke-linejoin:round;stroke-miterlimit:3.8636899;stroke-dasharray:none;stroke-opacity:1"
         d="m 2750.5923,1105.762 c 13.5328,-1.2799 33.881,-0.07 45.497,-3.6062 2.179,-0.6587 0.5242,-3.3841 0.9011,-5.532 3.5224,-19.9295 9.0764,-38.8452 13.8768,-58.1031 18.7263,-75.04929 29.9982,-152.08749 51.4933,-226.47164 23.3792,-80.98682 47.7579,-172.2523 19.4472,-273.87755 -2.7688,-9.94289 -6.4714,-20.03825 -11.2554,-30.17093 -32.0953,-68.00218 -308.4849,-146.35279 -380.6378,-146.35279 -8.7652,0 -18.2349,2.48531 -22.4127,8.18758 30.4405,19.36013 49.511,39.20694 63.1256,68.03462 16.3016,34.5494 16.0559,66.91199 13.9096,96.70819 5.767,-3.3516 218.1135,1.88182 225.8138,1.88182 31.2106,0 58.014,30.18391 70.5309,56.71606 23.0025,48.72481 19.0705,98.45214 15.0892,139.94649 -1.9987,20.77148 -4.8003,41.26557 -8.6668,61.17077 l -5.8653,28.8261 -0.7373,3.15692 -0.7209,3.14879 c 3.4897,0 0.3605,-6.12077 0.4915,-9.20148 2.1463,-50.2335 1.2452,-120.36407 -25.7384,-177.53601 -12.5498,-26.56462 -33.0619,-53.95335 -64.551,-53.95335 -138.0146,0 -68.5977,391.42866 -179.2027,484.47371 6.1274,10.1214 11.5995,20.5331 16.1869,30.742 65.4521,-79.0482 68.8762,-296.95756 165.2112,-296.95756 23.3792,0 47.5449,21.91358 57.4897,42.97063 42.7937,90.65712 -28.2943,196.26993 -59.2755,255.79893 z"
         inkscape:connector-curvature="0" /><path
         id="path244"
         style="fill:#000000;fill-opacity:1;fill-rule:nonzero;stroke:none;stroke-width:0.44467491"
         d="m 1050.6455,1425.5157 c 94.9292,0 39.6021,-237.2078 5.8439,-308.7336 -28.9086,-61.2341 -93.98882,-149.5535 -171.11906,-149.5535 -92.54055,0 -89.7881,103.6483 -52.95145,181.6744 19.94198,42.2438 50.59058,89.5978 92.8158,124.4116 -10.80818,-36.3387 25.72702,-61.1594 10.95074,-92.4692 -10.09226,-21.3814 -30.98122,-44.7421 -41.83529,-67.7393 -17.55492,-37.1792 -10.84753,-103.1665 31.56281,-103.1665 37.96385,0 71.69747,47.0279 85.52675,76.3228 28.332,60.0287 99.1726,316.1198 19.9879,316.1198 -91.1971,0 -248.34432,-222.2344 -281.25222,-291.9432 -58.73814,-124.42782 -16.16069,-277.69308 117.67281,-277.69308 90.42873,0 164.80821,86.93728 200.73551,163.05078 21.4018,45.3342 33.0554,90.4414 37.6444,132.974 l 17.5549,3.212 c 3.878,-117.0805 127.7389,-310.94792 75.0119,-422.63612 -67.4804,-142.95089 -269.253,-141.67093 -384.46174,-192.40407 -24.21646,56.64633 -57.0228,109.31319 -103.21607,149.50811 102.76713,34.56889 355.30401,92.6152 410.21501,208.94309 23.0777,48.87725 7.366,129.91439 -19.2965,157.37939 -4.5366,-17.2756 -10.8148,-34.88528 -19.1474,-52.53393 -47.019,-99.59905 -147.68906,-176.84006 -251.47361,-176.84006 -144.49591,0 -205.75379,103.83159 -137.75082,247.90829 40.81294,86.4506 249.22251,374.2083 356.98173,374.2083"
         inkscape:connector-curvature="0" /><path
         id="path246"
         style="fill:none;stroke:#000000;stroke-width:13.25098515;stroke-linecap:butt;stroke-linejoin:miter;stroke-miterlimit:3.86370993;stroke-dasharray:none;stroke-opacity:1"
         d="m 1050.6455,1425.5157 c 94.9292,0 39.6021,-237.2078 5.8439,-308.7336 -28.9086,-61.2341 -93.98882,-149.5535 -171.11906,-149.5535 -92.54055,0 -89.7881,103.6483 -52.95145,181.6744 19.94198,42.2438 50.59058,89.5978 92.8158,124.4116 -10.80818,-36.3387 25.72702,-61.1594 10.95074,-92.4692 -10.09226,-21.3814 -30.98122,-44.7421 -41.83529,-67.7393 -17.55492,-37.1792 -10.84753,-103.1665 31.56281,-103.1665 37.96385,0 71.69747,47.0279 85.52675,76.3228 28.332,60.0287 99.1726,316.1198 19.9879,316.1198 -91.1971,0 -248.34432,-222.2344 -281.25222,-291.9432 -58.73814,-124.42782 -16.16069,-277.69308 117.67281,-277.69308 90.42873,0 164.80821,86.93728 200.73551,163.05078 21.4018,45.3342 33.0554,90.4414 37.6444,132.974 l 17.5549,3.212 c 3.878,-117.0805 127.7389,-310.94792 75.0119,-422.63612 -67.4804,-142.95089 -269.253,-141.67093 -384.46174,-192.40407 -24.21646,56.64633 -57.0228,109.31319 -103.21607,149.50811 102.76713,34.56889 355.30401,92.6152 410.21501,208.94309 23.0777,48.87725 7.366,129.91439 -19.2965,157.37939 -4.5366,-17.2756 -10.8148,-34.88528 -19.1474,-52.53393 -47.019,-99.59905 -147.68906,-176.84006 -251.47361,-176.84006 -144.49591,0 -205.75379,103.83159 -137.75082,247.90829 40.81294,86.4506 249.22251,374.2083 356.98173,374.2083 z"
         inkscape:connector-curvature="0" /><path
         id="path248"
         style="fill:#000000;fill-opacity:1;fill-rule:nonzero;stroke:none;stroke-width:0.44467491"
         d="m 1297.512,1082.2003 c 5.7408,-14.1056 22.3356,-93.97633 34.9427,-93.97633 27.2179,0 76.4078,74.05973 89.603,93.28683 24.205,-15.8495 10.7771,-49.1255 55.6335,-49.1255 20.3073,0 30.5208,43.7445 51.6538,44.455 0.7488,-17.6811 1.8809,-33.6815 -7.7575,-54.1059 -14.8664,-31.49464 -52.478,-74.16836 -89.449,-74.16836 -26.4823,0 -63.3648,31.88239 -70.6096,31.88239 -7.8723,0 -22.316,-3.68253 -26.9247,-13.43399 -19.2506,-40.79189 32.2182,-176.96656 83.8377,-176.96656 27.5832,0 60.4977,20.23289 89.3474,32.71785 -7.5119,-49.06868 -8.5555,-90.44137 1.3827,-132.65921 -26.2906,-16.65907 -57.0866,-23.68187 -81.8011,-23.68187 -126.8378,0 -56.8884,294.98 -173.8453,357.82505 l 43.9864,57.9506"
         inkscape:connector-curvature="0" /><path
         id="path250"
         style="fill:none;stroke:#000000;stroke-width:13.25098515;stroke-linecap:butt;stroke-linejoin:miter;stroke-miterlimit:3.86370993;stroke-dasharray:none;stroke-opacity:1"
         d="m 1297.512,1082.2003 c 5.7408,-14.1056 22.3356,-93.97633 34.9427,-93.97633 27.2179,0 76.4078,74.05973 89.603,93.28683 24.205,-15.8495 10.7771,-49.1255 55.6335,-49.1255 20.3073,0 30.5208,43.7445 51.6538,44.455 0.7488,-17.6811 1.8809,-33.6815 -7.7575,-54.1059 -14.8664,-31.49464 -52.478,-74.16836 -89.449,-74.16836 -26.4823,0 -63.3648,31.88239 -70.6096,31.88239 -7.8723,0 -22.316,-3.68253 -26.9247,-13.43399 -19.2506,-40.79189 32.2182,-176.96656 83.8377,-176.96656 27.5832,0 60.4977,20.23289 89.3474,32.71785 -7.5119,-49.06868 -8.5555,-90.44137 1.3827,-132.65921 -26.2906,-16.65907 -57.0866,-23.68187 -81.8011,-23.68187 -126.8378,0 -56.8884,294.98 -173.8453,357.82505 z"
         inkscape:connector-curvature="0" /><path
         id="path252"
         style="fill:#000000;fill-opacity:1;fill-rule:evenodd;stroke:none;stroke-width:0.44467491"
         d="m 1784.998,1105.8383 c 95.8599,0 133.7058,-172.44208 90.6991,-263.55508 -33.3732,-70.68375 -92.534,-121.92306 -168.3241,-121.92306 -133.8499,0 -117.0764,182.45959 -64.8622,293.08524 14.4011,30.4742 63.6007,96.898 102.0855,96.898 14.139,0 25.8532,-4.5051 40.4017,-4.5051 z m -2.9654,-16.0961 c -15.0892,0 -28.3598,-7.4592 -35.3555,-22.3062 -14.6961,-31.1151 58.5709,-62.6032 48.0527,-84.87212 -6.6189,-14.01637 -31.8167,-27.13402 -44.5303,-27.13402 -63.5188,0 -62.9782,82.64634 -25.1159,136.51044 -23.5431,-14.9994 -38.9763,-37.914 -49.003,-59.1672 -37.2234,-78.83899 -7.6839,-187.2956 77.2645,-187.2956 46.9388,0 101.0043,42.17243 122.0079,86.68906 25.8532,54.7385 -40.2542,157.57564 -93.3204,157.57564"
         inkscape:connector-curvature="0" /><path
         id="path254"
         style="fill:none;stroke:#000000;stroke-width:13.25098515;stroke-linecap:butt;stroke-linejoin:miter;stroke-miterlimit:3.86370993;stroke-dasharray:none;stroke-opacity:1"
         d="m 1784.998,1105.8383 c 95.8599,0 133.7058,-172.44208 90.6991,-263.55508 -33.3732,-70.68375 -92.534,-121.92306 -168.3241,-121.92306 -133.8499,0 -117.0764,182.45959 -64.8622,293.08524 14.4011,30.4742 63.6007,96.898 102.0855,96.898 14.139,0 25.8532,-4.5051 40.4017,-4.5051 z"
         inkscape:connector-curvature="0" /><path
         id="path256"
         style="fill:none;stroke:#000000;stroke-width:13.25098515;stroke-linecap:butt;stroke-linejoin:miter;stroke-miterlimit:3.86370993;stroke-dasharray:none;stroke-opacity:1"
         d="m 1782.0326,1089.7422 c -15.0892,0 -28.3598,-7.4592 -35.3555,-22.3062 -14.6961,-31.1151 58.5709,-62.6032 48.0527,-84.87212 -6.6189,-14.01637 -31.8167,-27.13402 -44.5303,-27.13402 -63.5188,0 -62.9782,82.64634 -25.1159,136.51044 -23.5431,-14.9994 -38.9763,-37.914 -49.003,-59.1672 -37.2234,-78.83899 -7.6839,-187.2956 77.2645,-187.2956 46.9388,0 101.0043,42.17243 122.0079,86.68906 25.8532,54.7385 -40.2542,157.57564 -93.3204,157.57564 z"
         inkscape:connector-curvature="0" /><path
         id="path258"
         style="fill:#000000;fill-opacity:1;fill-rule:evenodd;stroke:none;stroke-width:0.44467491"
         d="m 2220.6517,821.9481 c -25.0504,-53.05945 -71.727,-82.19051 -124.2853,-82.19051 -166.8004,0 -199.895,152.09888 -127.611,305.23921 17.0716,36.1457 45.0873,76.133 87.8647,76.133 134.0006,0 227.3537,-165.02835 164.0316,-299.1817 z m -133.0832,279.9676 c -12.304,0 -23.1007,-4.4483 -28.9988,-16.9511 -12.9757,-27.4974 57.6207,-52.0147 57.7191,-80.4304 -7.3726,-8.73101 -28.0158,-18.50354 -37.0104,-18.50354 -50.838,0 -89.2081,68.92204 -45.8082,120.14344 -17.6123,-11.1855 -28.065,-27.9273 -35.5031,-43.6682 -44.006,-93.21703 18.7264,-187.46099 110.1299,-187.46099 38.0425,0 87.0783,21.17222 106.8368,63.0413 27.9666,59.25653 -71.645,163.82949 -127.3653,163.82949"
         inkscape:connector-curvature="0" /><path
         id="path260"
         style="fill:none;stroke:#000000;stroke-width:13.25098515;stroke-linecap:butt;stroke-linejoin:miter;stroke-miterlimit:3.86370993;stroke-dasharray:none;stroke-opacity:1"
         d="m 2220.6517,821.9481 c -25.0504,-53.05945 -71.727,-82.19051 -124.2853,-82.19051 -166.8004,0 -199.895,152.09888 -127.611,305.23921 17.0716,36.1457 45.0873,76.133 87.8647,76.133 134.0006,0 227.3537,-165.02835 164.0316,-299.1817 z"
         inkscape:connector-curvature="0" /><path
         id="path262"
         style="fill:none;stroke:#000000;stroke-width:13.25098515;stroke-linecap:butt;stroke-linejoin:miter;stroke-miterlimit:3.86370993;stroke-dasharray:none;stroke-opacity:1"
         d="m 2087.5685,1101.9157 c -12.304,0 -23.1007,-4.4483 -28.9988,-16.9511 -12.9757,-27.4974 57.6207,-52.0147 57.7191,-80.4304 -7.3726,-8.73101 -28.0158,-18.50354 -37.0104,-18.50354 -50.838,0 -89.2081,68.92204 -45.8082,120.14344 -17.6123,-11.1855 -28.065,-27.9273 -35.5031,-43.6682 -44.006,-93.21703 18.7264,-187.46099 110.1299,-187.46099 38.0425,0 87.0783,21.17222 106.8368,63.0413 27.9666,59.25653 -71.645,163.82949 -127.3653,163.82949 z"
         inkscape:connector-curvature="0" /><path
         id="path264"
         style="fill:#000000;fill-opacity:1;fill-rule:nonzero;stroke:none;stroke-width:0.44467491"
         d="m 2393.1535,1102.8274 c 143.7488,0 216.7865,-263.78222 152.5468,-399.83687 -12.2713,-26.01463 -35.159,-52.01473 -65.3374,-52.01473 -164.2282,0 -122.3029,326.43737 -214.7549,419.1856 8.4539,8.9792 16.5473,18.3771 23.969,27.8381 62.4703,-73.3135 31.4236,-266.2545 164.8508,-266.2545 30.7354,0 53.9836,26.91342 66.3859,53.17952 33.1274,70.189 -28.1796,192.09258 -95.2864,192.09258 -0.6717,0 -10.3052,-0.399 -10.0922,-4.3022 2.4739,-44.7973 37.7148,-16.8635 2.2281,-93.10353 -36.2567,7.22392 -74.6596,65.42923 -54.8355,107.43133 5.8325,12.3439 20.4302,15.7847 30.3258,15.7847"
         inkscape:connector-curvature="0" /><path
         id="path266"
         style="fill:none;stroke:#000000;stroke-width:13.25098515;stroke-linecap:butt;stroke-linejoin:miter;stroke-miterlimit:3.86370993;stroke-dasharray:none;stroke-opacity:1"
         d="m 2393.1535,1102.8274 c 143.7488,0 216.7865,-263.78222 152.5468,-399.83687 -12.2713,-26.01463 -35.159,-52.01473 -65.3374,-52.01473 -164.2282,0 -122.3029,326.43737 -214.7549,419.1856 8.4539,8.9792 16.5473,18.3771 23.969,27.8381 62.4703,-73.3135 31.4236,-266.2545 164.8508,-266.2545 30.7354,0 53.9836,26.91342 66.3859,53.17952 33.1274,70.189 -28.1796,192.09258 -95.2864,192.09258 -0.6717,0 -10.3052,-0.399 -10.0922,-4.3022 2.4739,-44.7973 37.7148,-16.8635 2.2281,-93.10353 -36.2567,7.22392 -74.6596,65.42923 -54.8355,107.43133 5.8325,12.3439 20.4302,15.7847 30.3258,15.7847 z"
         inkscape:connector-curvature="0" /><path
         id="path268"
         style="fill:#000000;fill-opacity:1;fill-rule:evenodd;stroke:none;stroke-width:0.44467491"
         d="m 2750.5923,1105.762 c 13.5328,-1.2799 33.881,-0.07 45.497,-3.6062 2.179,-0.6587 0.5242,-3.3841 0.9011,-5.532 3.5224,-19.9295 9.0764,-38.8452 13.8768,-58.1031 18.7263,-75.04929 29.9982,-152.08749 51.4933,-226.47164 23.3792,-80.98682 47.7579,-172.2523 19.4472,-273.87755 -2.7688,-9.94289 -6.4714,-20.03825 -11.2554,-30.17093 -32.0953,-68.00218 -114.619,-132.73386 -186.7883,-132.73386 -8.7652,0 -18.2185,2.4772 -22.4126,8.18109 30.4569,19.35851 49.5109,39.21343 63.1256,68.03299 16.318,34.55591 16.0722,66.91851 13.926,96.70981 5.767,-3.3532 24.2475,-11.73061 31.9478,-11.73061 31.2106,0 58.014,30.18391 70.5309,56.71606 23.0025,48.72481 19.0705,98.45214 15.0892,139.94649 -1.9987,20.77148 -4.8003,41.26557 -8.6668,61.17077 l -5.8653,28.8261 -0.7373,3.15692 -0.7209,3.14879 c 3.4897,0 0.3605,-6.12077 0.4915,-9.20148 2.1463,-50.2335 1.2452,-120.36407 -25.7384,-177.53601 -12.5498,-26.56462 -33.0619,-53.95335 -64.551,-53.95335 -138.0146,0 -68.5977,391.42866 -179.2027,484.47371 6.1274,10.1214 11.5995,20.5331 16.1869,30.742 65.4521,-79.0482 68.8762,-296.95756 165.2112,-296.95756 23.3792,0 47.5449,21.91358 57.4897,42.97063 42.7937,90.65712 -28.2943,196.26993 -59.2755,255.79893"
         inkscape:connector-curvature="0" /><path
         id="path270"
         style="fill:none;stroke:#000000;stroke-width:13.25098515;stroke-linecap:butt;stroke-linejoin:miter;stroke-miterlimit:3.86370993;stroke-dasharray:none;stroke-opacity:1"
         d="m 2750.5923,1105.762 c 13.5328,-1.2799 33.881,-0.07 45.497,-3.6062 2.179,-0.6587 0.5242,-3.3841 0.9011,-5.532 3.5224,-19.9295 9.0764,-38.8452 13.8768,-58.1031 18.7263,-75.04929 29.9982,-152.08749 51.4933,-226.47164 23.3792,-80.98682 47.7579,-172.2523 19.4472,-273.87755 -2.7688,-9.94289 -6.4714,-20.03825 -11.2554,-30.17093 -32.0953,-68.00218 -114.619,-132.73386 -186.7883,-132.73386 -8.7652,0 -18.2185,2.4772 -22.4126,8.18109 30.4569,19.35851 49.5109,39.21343 63.1256,68.03299 16.318,34.55591 16.0722,66.91851 13.926,96.70981 5.767,-3.3532 24.2475,-11.73061 31.9478,-11.73061 31.2106,0 58.014,30.18391 70.5309,56.71606 23.0025,48.72481 19.0705,98.45214 15.0892,139.94649 -1.9987,20.77148 -4.8003,41.26557 -8.6668,61.17077 l -5.8653,28.8261 -0.7373,3.15692 -0.7209,3.14879 c 3.4897,0 0.3605,-6.12077 0.4915,-9.20148 2.1463,-50.2335 1.2452,-120.36407 -25.7384,-177.53601 -12.5498,-26.56462 -33.0619,-53.95335 -64.551,-53.95335 -138.0146,0 -68.5977,391.42866 -179.2027,484.47371 6.1274,10.1214 11.5995,20.5331 16.1869,30.742 65.4521,-79.0482 68.8762,-296.95756 165.2112,-296.95756 23.3792,0 47.5449,21.91358 57.4897,42.97063 42.7937,90.65712 -28.2943,196.26993 -59.2755,255.79893 z"
         inkscape:connector-curvature="0" /><path
         id="path272"
         style="fill:#000000;fill-opacity:1;fill-rule:nonzero;stroke:none;stroke-width:0.44467491"
         d="m 1050.6455,1425.5157 c 94.9292,0 39.6021,-237.2078 5.8439,-308.7336 -28.9086,-61.2341 -93.98882,-149.5535 -171.11906,-149.5535 -92.54055,0 -89.7881,103.6483 -52.95145,181.6744 19.94198,42.2438 50.59058,89.5978 92.8158,124.4116 -10.80818,-36.3387 25.72702,-61.1594 10.95074,-92.4692 -10.09226,-21.3814 -30.98122,-44.7421 -41.83529,-67.7393 -17.55492,-37.1792 -10.84753,-103.1665 31.56281,-103.1665 37.96385,0 71.69747,47.0279 85.52675,76.3228 28.332,60.0287 99.1726,316.1198 19.9879,316.1198 -91.1971,0 -248.34432,-222.2344 -281.25222,-291.9432 -58.73814,-124.42782 -16.16069,-277.69308 117.67281,-277.69308 90.42873,0 164.80821,86.93728 200.73551,163.05078 21.4018,45.3342 33.0554,90.4414 37.6444,132.974 l 17.5549,3.212 c 3.878,-117.0805 127.7389,-310.94792 75.0119,-422.63612 -67.4804,-142.95089 -269.253,-141.67093 -384.46174,-192.40407 -24.21646,56.64633 -57.0228,109.31319 -103.21607,149.50811 102.76713,34.56889 355.30401,92.6152 410.21501,208.94309 23.0777,48.87725 7.366,129.91439 -19.2965,157.37939 -4.5366,-17.2756 -10.8148,-34.88528 -19.1474,-52.53393 -47.019,-99.59905 -147.68906,-176.84006 -251.47361,-176.84006 -144.49591,0 -205.75379,103.83159 -137.75082,247.90829 40.81294,86.4506 249.22251,374.2083 356.98173,374.2083"
         inkscape:connector-curvature="0" /><path
         id="path274"
         style="fill:none;stroke:#000000;stroke-width:159.00854492;stroke-linecap:butt;stroke-linejoin:round;stroke-miterlimit:3.8636899;stroke-dasharray:none;stroke-opacity:1"
         d="m 1050.6455,1425.5157 c 94.9292,0 39.6021,-237.2078 5.8439,-308.7336 -28.9086,-61.2341 -93.98882,-149.5535 -171.11906,-149.5535 -92.54055,0 -89.7881,103.6483 -52.95145,181.6744 19.94198,42.2438 50.59058,89.5978 92.8158,124.4116 -10.80818,-36.3387 25.72702,-61.1594 10.95074,-92.4692 -10.09226,-21.3814 -30.98122,-44.7421 -41.83529,-67.7393 -17.55492,-37.1792 -10.84753,-103.1665 31.56281,-103.1665 37.96385,0 71.69747,47.0279 85.52675,76.3228 28.332,60.0287 99.1726,316.1198 19.9879,316.1198 -91.1971,0 -248.34432,-222.2344 -281.25222,-291.9432 -58.73814,-124.42782 -16.16069,-277.69308 117.67281,-277.69308 90.42873,0 164.80821,86.93728 200.73551,163.05078 21.4018,45.3342 33.0554,90.4414 37.6444,132.974 l 17.5549,3.212 c 3.878,-117.0805 127.7389,-310.94792 75.0119,-422.63612 -67.4804,-142.95089 -269.253,-141.67093 -384.46174,-192.40407 -24.21646,56.64633 -57.0228,109.31319 -103.21607,149.50811 102.76713,34.56889 355.30401,92.6152 410.21501,208.94309 23.0777,48.87725 7.366,129.91439 -19.2965,157.37939 -4.5366,-17.2756 -10.8148,-34.88528 -19.1474,-52.53393 -47.019,-99.59905 -147.68906,-176.84006 -251.47361,-176.84006 -144.49591,0 -205.75379,103.83159 -137.75082,247.90829 40.81294,86.4506 249.22251,374.2083 356.98173,374.2083 z"
         inkscape:connector-curvature="0" /><path
         id="path276"
         style="fill:#000000;fill-opacity:1;fill-rule:nonzero;stroke:none;stroke-width:0.44467491"
         d="m 1297.512,1082.2003 c 5.7408,-14.1056 22.3356,-93.97633 34.9427,-93.97633 27.2179,0 76.4078,74.05973 89.603,93.28683 24.205,-15.8495 10.7771,-49.1255 55.6335,-49.1255 20.3073,0 30.5208,43.7445 51.6538,44.455 0.7488,-17.6811 1.8809,-33.6815 -7.7575,-54.1059 -14.8664,-31.49464 -52.478,-74.16836 -89.449,-74.16836 -26.4823,0 -63.3648,31.88239 -70.6096,31.88239 -7.8723,0 -22.316,-3.68253 -26.9247,-13.43399 -19.2506,-40.79189 32.2182,-176.96656 83.8377,-176.96656 27.5832,0 60.4977,20.23289 89.3474,32.71785 -7.5119,-49.06868 -8.5555,-90.44137 1.3827,-132.65921 -26.2906,-16.65907 -57.0866,-23.68187 -81.8011,-23.68187 -126.8378,0 -56.8884,294.98 -173.8453,357.82505 l 43.9864,57.9506"
         inkscape:connector-curvature="0" /><path
         id="path278"
         style="fill:none;stroke:#000000;stroke-width:159.00854492;stroke-linecap:butt;stroke-linejoin:round;stroke-miterlimit:3.8636899;stroke-dasharray:none;stroke-opacity:1"
         d="m 1297.512,1082.2003 c 5.7408,-14.1056 22.3356,-93.97633 34.9427,-93.97633 27.2179,0 76.4078,74.05973 89.603,93.28683 24.205,-15.8495 10.7771,-49.1255 55.6335,-49.1255 20.3073,0 30.5208,43.7445 51.6538,44.455 0.7488,-17.6811 1.8809,-33.6815 -7.7575,-54.1059 -14.8664,-31.49464 -52.478,-74.16836 -89.449,-74.16836 -26.4823,0 -63.3648,31.88239 -70.6096,31.88239 -7.8723,0 -22.316,-3.68253 -26.9247,-13.43399 -19.2506,-40.79189 32.2182,-176.96656 83.8377,-176.96656 27.5832,0 60.4977,20.23289 89.3474,32.71785 -7.5119,-49.06868 -8.5555,-90.44137 1.3827,-132.65921 -26.2906,-16.65907 -57.0866,-23.68187 -81.8011,-23.68187 -126.8378,0 -56.8884,294.98 -173.8453,357.82505 z"
         inkscape:connector-curvature="0" /><path
         id="path280"
         style="fill:#000000;fill-opacity:1;fill-rule:evenodd;stroke:none;stroke-width:0.44467491"
         d="m 1784.998,1105.8383 c 95.8599,0 133.7058,-172.44208 90.6991,-263.55508 -33.3732,-70.68375 -92.534,-121.92306 -168.3241,-121.92306 -133.8499,0 -117.0764,182.45959 -64.8622,293.08524 14.4011,30.4742 63.6007,96.898 102.0855,96.898 14.139,0 25.8532,-4.5051 40.4017,-4.5051 z m -2.9654,-16.0961 c -15.0892,0 -28.3598,-7.4592 -35.3555,-22.3062 -14.6961,-31.1151 58.5709,-62.6032 48.0527,-84.87212 -6.6189,-14.01637 -31.8167,-27.13402 -44.5303,-27.13402 -63.5188,0 -62.9782,82.64634 -25.1159,136.51044 -23.5431,-14.9994 -38.9763,-37.914 -49.003,-59.1672 -37.2234,-78.83899 -7.6839,-187.2956 77.2645,-187.2956 46.9388,0 101.0043,42.17243 122.0079,86.68906 25.8532,54.7385 -40.2542,157.57564 -93.3204,157.57564"
         inkscape:connector-curvature="0" /><path
         id="path282"
         style="fill:none;stroke:#000000;stroke-width:159.00854492;stroke-linecap:butt;stroke-linejoin:round;stroke-miterlimit:3.8636899;stroke-dasharray:none;stroke-opacity:1"
         d="m 1784.998,1105.8383 c 95.8599,0 133.7058,-172.44208 90.6991,-263.55508 -33.3732,-70.68375 -92.534,-121.92306 -168.3241,-121.92306 -133.8499,0 -117.0764,182.45959 -64.8622,293.08524 14.4011,30.4742 63.6007,96.898 102.0855,96.898 14.139,0 25.8532,-4.5051 40.4017,-4.5051 z"
         inkscape:connector-curvature="0" /><path
         id="path284"
         style="fill:none;stroke:#000000;stroke-width:159.00854492;stroke-linecap:butt;stroke-linejoin:round;stroke-miterlimit:3.8636899;stroke-dasharray:none;stroke-opacity:1"
         d="m 1782.0326,1089.7422 c -15.0892,0 -28.3598,-7.4592 -35.3555,-22.3062 -14.6961,-31.1151 58.5709,-62.6032 48.0527,-84.87212 -6.6189,-14.01637 -31.8167,-27.13402 -44.5303,-27.13402 -63.5188,0 -62.9782,82.64634 -25.1159,136.51044 -23.5431,-14.9994 -38.9763,-37.914 -49.003,-59.1672 -37.2234,-78.83899 -7.6839,-187.2956 77.2645,-187.2956 46.9388,0 101.0043,42.17243 122.0079,86.68906 25.8532,54.7385 -40.2542,157.57564 -93.3204,157.57564 z"
         inkscape:connector-curvature="0" /><path
         id="path286"
         style="fill:#000000;fill-opacity:1;fill-rule:evenodd;stroke:none;stroke-width:0.44467491"
         d="m 2220.6517,821.9481 c -25.0504,-53.05945 -71.727,-82.19051 -124.2853,-82.19051 -166.8004,0 -199.895,152.09888 -127.611,305.23921 17.0716,36.1457 45.0873,76.133 87.8647,76.133 134.0006,0 227.3537,-165.02835 164.0316,-299.1817 z m -133.0832,279.9676 c -12.304,0 -23.1007,-4.4483 -28.9988,-16.9511 -12.9757,-27.4974 57.6207,-52.0147 57.7191,-80.4304 -7.3726,-8.73101 -28.0158,-18.50354 -37.0104,-18.50354 -50.838,0 -89.2081,68.92204 -45.8082,120.14344 -17.6123,-11.1855 -28.065,-27.9273 -35.5031,-43.6682 -44.006,-93.21703 18.7264,-187.46099 110.1299,-187.46099 38.0425,0 87.0783,21.17222 106.8368,63.0413 27.9666,59.25653 -71.645,163.82949 -127.3653,163.82949"
         inkscape:connector-curvature="0" /><path
         id="path288"
         style="fill:none;stroke:#000000;stroke-width:159.00854492;stroke-linecap:butt;stroke-linejoin:round;stroke-miterlimit:3.8636899;stroke-dasharray:none;stroke-opacity:1"
         d="m 2220.6517,821.9481 c -25.0504,-53.05945 -71.727,-82.19051 -124.2853,-82.19051 -166.8004,0 -199.895,152.09888 -127.611,305.23921 17.0716,36.1457 45.0873,76.133 87.8647,76.133 134.0006,0 227.3537,-165.02835 164.0316,-299.1817 z"
         inkscape:connector-curvature="0" /><path
         id="path290"
         style="fill:none;stroke:#000000;stroke-width:159.00854492;stroke-linecap:butt;stroke-linejoin:round;stroke-miterlimit:3.8636899;stroke-dasharray:none;stroke-opacity:1"
         d="m 2087.5685,1101.9157 c -12.304,0 -23.1007,-4.4483 -28.9988,-16.9511 -12.9757,-27.4974 57.6207,-52.0147 57.7191,-80.4304 -7.3726,-8.73101 -28.0158,-18.50354 -37.0104,-18.50354 -50.838,0 -89.2081,68.92204 -45.8082,120.14344 -17.6123,-11.1855 -28.065,-27.9273 -35.5031,-43.6682 -44.006,-93.21703 18.7264,-187.46099 110.1299,-187.46099 38.0425,0 87.0783,21.17222 106.8368,63.0413 27.9666,59.25653 -71.645,163.82949 -127.3653,163.82949 z"
         inkscape:connector-curvature="0" /><path
         id="path292"
         style="fill:#000000;fill-opacity:1;fill-rule:nonzero;stroke:none;stroke-width:0.44467491"
         d="m 2393.1535,1102.8274 c 143.7488,0 216.7865,-263.78222 152.5468,-399.83687 -12.2713,-26.01463 -35.159,-52.01473 -65.3374,-52.01473 -164.2282,0 -122.3029,326.43737 -214.7549,419.1856 8.4539,8.9792 16.5473,18.3771 23.969,27.8381 62.4703,-73.3135 31.4236,-266.2545 164.8508,-266.2545 30.7354,0 53.9836,26.91342 66.3859,53.17952 33.1274,70.189 -28.1796,192.09258 -95.2864,192.09258 -0.6717,0 -10.3052,-0.399 -10.0922,-4.3022 2.4739,-44.7973 37.7148,-16.8635 2.2281,-93.10353 -36.2567,7.22392 -74.6596,65.42923 -54.8355,107.43133 5.8325,12.3439 20.4302,15.7847 30.3258,15.7847"
         inkscape:connector-curvature="0" /><path
         id="path294"
         style="fill:none;stroke:#000000;stroke-width:159.00854492;stroke-linecap:butt;stroke-linejoin:round;stroke-miterlimit:3.8636899;stroke-dasharray:none;stroke-opacity:1"
         d="m 2393.1535,1102.8274 c 143.7488,0 216.7865,-263.78222 152.5468,-399.83687 -12.2713,-26.01463 -35.159,-52.01473 -65.3374,-52.01473 -164.2282,0 -122.3029,326.43737 -214.7549,419.1856 8.4539,8.9792 16.5473,18.3771 23.969,27.8381 62.4703,-73.3135 31.4236,-266.2545 164.8508,-266.2545 30.7354,0 53.9836,26.91342 66.3859,53.17952 33.1274,70.189 -28.1796,192.09258 -95.2864,192.09258 -0.6717,0 -10.3052,-0.399 -10.0922,-4.3022 2.4739,-44.7973 37.7148,-16.8635 2.2281,-93.10353 -36.2567,7.22392 -74.6596,65.42923 -54.8355,107.43133 5.8325,12.3439 20.4302,15.7847 30.3258,15.7847 z"
         inkscape:connector-curvature="0" /><path
         id="path296"
         style="fill:#000000;fill-opacity:1;fill-rule:evenodd;stroke:none;stroke-width:0.44467491"
         d="m 2750.5923,1105.762 c 13.5328,-1.2799 33.881,-0.07 45.497,-3.6062 2.179,-0.6587 0.5242,-3.3841 0.9011,-5.532 3.5224,-19.9295 9.0764,-38.8452 13.8768,-58.1031 18.7263,-75.04929 29.9982,-152.08749 51.4933,-226.47164 23.3792,-80.98682 47.7579,-172.2523 19.4472,-273.87755 -2.7688,-9.94289 -6.4714,-20.03825 -11.2554,-30.17093 -32.0953,-68.00218 -114.619,-132.73386 -186.7883,-132.73386 -8.7652,0 -18.2185,2.4772 -22.4126,8.18109 30.4569,19.35851 49.5109,39.21343 63.1256,68.03299 16.318,34.55591 16.0722,66.91851 13.926,96.70981 5.767,-3.3532 24.2475,-11.73061 31.9478,-11.73061 31.2106,0 58.014,30.18391 70.5309,56.71606 23.0025,48.72481 19.0705,98.45214 15.0892,139.94649 -1.9987,20.77148 -4.8003,41.26557 -8.6668,61.17077 l -5.8653,28.8261 -0.7373,3.15692 -0.7209,3.14879 c 3.4897,0 0.3605,-6.12077 0.4915,-9.20148 2.1463,-50.2335 1.2452,-120.36407 -25.7384,-177.53601 -12.5498,-26.56462 -33.0619,-53.95335 -64.551,-53.95335 -138.0146,0 -68.5977,391.42866 -179.2027,484.47371 6.1274,10.1214 11.5995,20.5331 16.1869,30.742 65.4521,-79.0482 68.8762,-296.95756 165.2112,-296.95756 23.3792,0 47.5449,21.91358 57.4897,42.97063 42.7937,90.65712 -28.2943,196.26993 -59.2755,255.79893"
         inkscape:connector-curvature="0" /><path
         id="path298"
         style="fill:none;stroke:#000000;stroke-width:159.00854492;stroke-linecap:butt;stroke-linejoin:round;stroke-miterlimit:3.8636899;stroke-dasharray:none;stroke-opacity:1"
         d="m 2750.5923,1105.762 c 13.5328,-1.2799 33.881,-0.07 45.497,-3.6062 2.179,-0.6587 0.5242,-3.3841 0.9011,-5.532 3.5224,-19.9295 9.0764,-38.8452 13.8768,-58.1031 18.7263,-75.04929 29.9982,-152.08749 51.4933,-226.47164 23.3792,-80.98682 47.7579,-172.2523 19.4472,-273.87755 -2.7688,-9.94289 -6.4714,-20.03825 -11.2554,-30.17093 -32.0953,-68.00218 -114.619,-132.73386 -186.7883,-132.73386 -8.7652,0 -18.2185,2.4772 -22.4126,8.18109 30.4569,19.35851 49.5109,39.21343 63.1256,68.03299 16.318,34.55591 16.0722,66.91851 13.926,96.70981 5.767,-3.3532 24.2475,-11.73061 31.9478,-11.73061 31.2106,0 58.014,30.18391 70.5309,56.71606 23.0025,48.72481 19.0705,98.45214 15.0892,139.94649 -1.9987,20.77148 -4.8003,41.26557 -8.6668,61.17077 l -5.8653,28.8261 -0.7373,3.15692 -0.7209,3.14879 c 3.4897,0 0.3605,-6.12077 0.4915,-9.20148 2.1463,-50.2335 1.2452,-120.36407 -25.7384,-177.53601 -12.5498,-26.56462 -33.0619,-53.95335 -64.551,-53.95335 -138.0146,0 -68.5977,391.42866 -179.2027,484.47371 6.1274,10.1214 11.5995,20.5331 16.1869,30.742 65.4521,-79.0482 68.8762,-296.95756 165.2112,-296.95756 23.3792,0 47.5449,21.91358 57.4897,42.97063 42.7937,90.65712 -28.2943,196.26993 -59.2755,255.79893 z"
         inkscape:connector-curvature="0" /><path
         id="path300"
         style="fill:#ffffff;fill-opacity:1;fill-rule:nonzero;stroke:none;stroke-width:0.44467491"
         d="m 1050.6455,1425.5157 c 94.9292,0 39.6021,-237.2078 5.8439,-308.7336 -28.9086,-61.2341 -93.98882,-149.5535 -171.11906,-149.5535 -92.54055,0 -89.7881,103.6483 -52.95145,181.6744 19.94198,42.2438 50.59058,89.5978 92.8158,124.4116 -10.80818,-36.3387 25.72702,-61.1594 10.95074,-92.4692 -10.09226,-21.3814 -30.98122,-44.7421 -41.83529,-67.7393 -17.55492,-37.1792 -10.84753,-103.1665 31.56281,-103.1665 37.96385,0 71.69747,47.0279 85.52675,76.3228 28.332,60.0287 99.1726,316.1198 19.9879,316.1198 -91.1971,0 -248.34432,-222.2344 -281.25222,-291.9432 -58.73814,-124.42782 -16.16069,-277.69308 117.67281,-277.69308 90.42873,0 164.80821,86.93728 200.73551,163.05078 21.4018,45.3342 33.0554,90.4414 37.6444,132.974 l 17.5549,3.212 c 3.878,-117.0805 127.7389,-310.94792 75.0119,-422.63612 -67.4804,-142.95089 -269.253,-141.67093 -384.46174,-192.40407 -24.21646,56.64633 -57.0228,109.31319 -103.21607,149.50811 102.76713,34.56889 355.30401,92.6152 410.21501,208.94309 23.0777,48.87725 7.366,129.91439 -19.2965,157.37939 -4.5366,-17.2756 -10.8148,-34.88528 -19.1474,-52.53393 -47.019,-99.59905 -147.68906,-176.84006 -251.47361,-176.84006 -144.49591,0 -205.75379,103.83159 -137.75082,247.90829 40.81294,86.4506 249.22251,374.2083 356.98173,374.2083"
         inkscape:connector-curvature="0" /><path
         id="path302"
         style="fill:#ffffff;fill-opacity:1;fill-rule:nonzero;stroke:none;stroke-width:0.44467491"
         d="m 1297.512,1082.2003 c 5.7408,-14.1056 22.3356,-93.97633 34.9427,-93.97633 27.2179,0 76.4078,74.05973 89.603,93.28683 24.205,-15.8495 10.7771,-49.1255 55.6335,-49.1255 20.3073,0 30.5208,43.7445 51.6538,44.455 0.7488,-17.6811 1.8809,-33.6815 -7.7575,-54.1059 -14.8664,-31.49464 -52.478,-74.16836 -89.449,-74.16836 -26.4823,0 -63.3648,31.88239 -70.6096,31.88239 -7.8723,0 -22.316,-3.68253 -26.9247,-13.43399 -19.2506,-40.79189 32.2182,-176.96656 83.8377,-176.96656 27.5832,0 60.4977,20.23289 89.3474,32.71785 -7.5119,-49.06868 -8.5555,-90.44137 1.3827,-132.65921 -26.2906,-16.65907 -57.0866,-23.68187 -81.8011,-23.68187 -126.8378,0 -56.8884,294.98 -173.8453,357.82505 l 43.9864,57.9506"
         inkscape:connector-curvature="0" /><path
         id="path304"
         style="fill:#ffffff;fill-opacity:1;fill-rule:evenodd;stroke:none;stroke-width:0.44467491"
         d="m 1784.998,1105.8383 c 95.8599,0 133.7058,-172.44208 90.6991,-263.55508 -33.3732,-70.68375 -92.534,-121.92306 -168.3241,-121.92306 -133.8499,0 -117.0764,182.45959 -64.8622,293.08524 14.4011,30.4742 63.6007,96.898 102.0855,96.898 14.139,0 25.8532,-4.5051 40.4017,-4.5051 z m -2.9654,-16.0961 c -15.0892,0 -28.3598,-7.4592 -35.3555,-22.3062 -14.6961,-31.1151 58.5709,-62.6032 48.0527,-84.87212 -6.6189,-14.01637 -31.8167,-27.13402 -44.5303,-27.13402 -63.5188,0 -62.9782,82.64634 -25.1159,136.51044 -23.5431,-14.9994 -38.9763,-37.914 -49.003,-59.1672 -37.2234,-78.83899 -7.6839,-187.2956 77.2645,-187.2956 46.9388,0 101.0043,42.17243 122.0079,86.68906 25.8532,54.7385 -40.2542,157.57564 -93.3204,157.57564"
         inkscape:connector-curvature="0" /><path
         id="path306"
         style="fill:#ffffff;fill-opacity:1;fill-rule:evenodd;stroke:none;stroke-width:0.44467491"
         d="m 2220.6517,821.9481 c -25.0504,-53.05945 -71.727,-82.19051 -124.2853,-82.19051 -166.8004,0 -199.895,152.09888 -127.611,305.23921 17.0716,36.1457 45.0873,76.133 87.8647,76.133 134.0006,0 227.3537,-165.02835 164.0316,-299.1817 z m -133.0832,279.9676 c -12.304,0 -23.1007,-4.4483 -28.9988,-16.9511 -12.9757,-27.4974 57.6207,-52.0147 57.7191,-80.4304 -7.3726,-8.73101 -28.0158,-18.50354 -37.0104,-18.50354 -50.838,0 -89.2081,68.92204 -45.8082,120.14344 -17.6123,-11.1855 -28.065,-27.9273 -35.5031,-43.6682 -44.006,-93.21703 18.7264,-187.46099 110.1299,-187.46099 38.0425,0 87.0783,21.17222 106.8368,63.0413 27.9666,59.25653 -71.645,163.82949 -127.3653,163.82949"
         inkscape:connector-curvature="0" /><path
         id="path308"
         style="fill:#ffffff;fill-opacity:1;fill-rule:nonzero;stroke:none;stroke-width:0.44467491"
         d="m 2393.1535,1102.8274 c 143.7488,0 216.7865,-263.78222 152.5468,-399.83687 -12.2713,-26.01463 -35.159,-52.01473 -65.3374,-52.01473 -164.2282,0 -122.3029,326.43737 -214.7549,419.1856 8.4539,8.9792 16.5473,18.3771 23.969,27.8381 62.4703,-73.3135 31.4236,-266.2545 164.8508,-266.2545 30.7354,0 53.9836,26.91342 66.3859,53.17952 33.1274,70.189 -28.1796,192.09258 -95.2864,192.09258 -0.6717,0 -10.3052,-0.399 -10.0922,-4.3022 2.4739,-44.7973 37.7148,-16.8635 2.2281,-93.10353 -36.2567,7.22392 -74.6596,65.42923 -54.8355,107.43133 5.8325,12.3439 20.4302,15.7847 30.3258,15.7847"
         inkscape:connector-curvature="0" /><path
         id="path310"
         style="fill:#ffffff;fill-opacity:1;fill-rule:evenodd;stroke:none;stroke-width:0.44467491"
         d="m 2750.5923,1105.762 c 13.5328,-1.2799 33.881,-0.07 45.497,-3.6062 2.179,-0.6587 0.5242,-3.3841 0.9011,-5.532 3.5224,-19.9295 9.0764,-38.8452 13.8768,-58.1031 18.7263,-75.04929 29.9982,-152.08749 51.4933,-226.47164 23.3792,-80.98682 47.7579,-172.2523 19.4472,-273.87755 -2.7688,-9.94289 -6.4714,-20.03825 -11.2554,-30.17093 -107.6232,-206.73031 -337.9588,-151.01032 -410.1118,-151.01032 -8.7652,0 -18.2348,2.48531 -22.4126,8.18758 30.4405,19.36013 49.5109,39.20694 63.1093,68.02813 16.3179,34.55589 16.0722,66.91849 13.9259,96.71469 5.767,-3.3581 24.264,-11.73062 31.9478,-11.73062 31.2106,0 205.187,-89.38852 293.8708,74.98602 23.0025,48.72481 19.0705,98.45214 15.0892,139.94649 -1.9987,20.77148 -4.8003,41.26557 -8.6668,61.17077 l -5.8653,28.8261 -0.7373,3.15692 -0.7209,3.14879 c 3.4897,0 0.3605,-6.12077 0.4915,-9.20148 2.1463,-50.2335 1.2452,-120.36407 -25.7384,-177.53601 -12.5498,-26.56462 -33.0619,-53.95335 -64.551,-53.95335 -138.0146,0 -68.5977,391.42866 -179.2027,484.47371 6.1274,10.1214 11.5995,20.5331 16.1869,30.742 65.4521,-79.0482 68.8762,-296.95756 165.2112,-296.95756 23.3792,0 47.5449,21.91358 57.4897,42.97063 42.7937,90.65712 -28.2943,196.26993 -59.2755,255.79893"
         inkscape:connector-curvature="0" /></g></g></svg>