<svg viewBox="0 0 496 440" xmlns="http://www.w3.org/2000/svg" xmlns:xlink="http://www.w3.org/1999/xlink"><linearGradient id="a" gradientUnits="userSpaceOnUse" x1="2.812" x2="493.262" y1="366.402" y2="366.402"><stop offset="0" stop-color="#b7babf"/><stop offset=".01" stop-color="#d7dae0"/><stop offset=".72" stop-color="#d7dae0"/><stop offset=".77" stop-color="#c9ccd1"/><stop offset=".99" stop-color="#c9ccd1"/><stop offset="1" stop-color="#b5b8bd"/></linearGradient><linearGradient id="b" gradientUnits="userSpaceOnUse" x1="406.398" x2="406.398" y1="386.749" y2="399.253"><stop offset=".192" stop-color="#fff"/><stop offset=".995" stop-color="#e6e9ed"/></linearGradient><g stroke-miterlimit="10"><path d="m493.3 371.5-18.2-.2v4.9l-334.7-80.8c-6.6-1.6-15.6-1.2-20.1.8l-99.6 44.3v-2.2h-17.9v11.6c.1 1.5 2.2 2.9 6.2 3.9l346.6 83.7c6.6 1.6 15.6 1.2 20.1-.8l114.9-51.1c1.7-.7 2.5-1.6 2.5-2.5v-11.6z" fill="url(#a)" stroke="#8f9199"/><path d="m490.7 373.9-114.9 51.1c-4.5 2-13.6 2.4-20.1.8l-346.6-83.7c-6.6-1.6-8.2-4.5-3.7-6.5l114.9-51.1c4.5-2 13.6-2.4 20.1-.8l346.6 83.7c6.6 1.6 8.2 4.5 3.7 6.5z" fill="#fff" stroke="#bdc2cc"/><path d="m439.8 360.5-118.1 52.6-287.1-69.3 118.1-52.6z" fill="#fff" stroke="#231f20"/><path d="m395.4 397.9c8.9 2.1 21 1.7 27.1-1s3.9-6.6-5-8.8-21-1.7-27.1 1-3.9 6.7 5 8.8z" fill="url(#b)" stroke="#a7a7b3"/></g><path d="m101.6 306.5-35 15.5c-1.8.8-4.8.9-6.7.2s-1.2-1.9.6-2.7l34.9-15.5c1.8-.8 4-.9 5.9-.2 2 .7 2.1 1.9.3 2.7zm377.9 76.4c-.6 1.3-.5 3 .3 3.8.7.9 1.8.5 2.4-.7.6-1.3.5-3-.3-3.8-.7-.9-1.8-.6-2.4.7zm-5.5 2.4c-.6 1.3-.5 3 .3 3.8.7.9 1.8.5 2.4-.7.6-1.3.5-3-.3-3.8-.7-.8-1.8-.5-2.4.7zm-5.5 2.5c-.6 1.3-.5 3 .3 3.8.7.9 1.8.5 2.4-.7.6-1.3.5-3-.3-3.8-.7-.9-1.8-.6-2.4.7zm-5.5 2.4c-.6 1.3-.5 3 .3 3.8.7.9 1.8.5 2.4-.7.6-1.3.5-3-.3-3.8-.7-.8-1.8-.5-2.4.7zm-5.5 2.5c-.6 1.3-.5 3 .3 3.8.7.9 1.8.5 2.4-.7.6-1.3.5-3-.3-3.8-.7-.9-1.8-.6-2.4.7z"/></svg>