<?xml version="1.0" encoding="utf-8"?>
<!-- Generator: Adobe Illustrator 19.2.1, SVG Export Plug-In . SVG Version: 6.00 Build 0)  -->
<svg version="1.1" xmlns="http://www.w3.org/2000/svg" xmlns:xlink="http://www.w3.org/1999/xlink" x="0px" y="0px"
	 viewBox="0 0 496 440" style="enable-background:new 0 0 496 440;" xml:space="preserve">
<style type="text/css">
	.st4{fill:url(#SVGID_3_);stroke:#006073;stroke-miterlimit:10;}
	.st5{fill:#B3F2FF;stroke:#006073;stroke-miterlimit:10;}
	.st6{fill:#F9EC31;stroke:#231F20;stroke-width:0.5;stroke-miterlimit:10;}
	.st7{fill:#F6921E;stroke:#231F20;stroke-width:0.5;stroke-miterlimit:10;}
	.st8{fill:#37B34A;stroke:#231F20;stroke-width:0.5;stroke-miterlimit:10;}
	.st9{fill:url(#SVGID_4_);}
	.st10{fill:#003540;}
	.st11{fill:none;stroke:#005573;stroke-linecap:round;stroke-miterlimit:10;}
	.st12{fill:none;stroke:#FFFFFF;stroke-width:0.5;stroke-linecap:round;stroke-miterlimit:10;}
	.st13{fill:url(#SVGID_5_);stroke:#730026;stroke-miterlimit:10;}
	.st14{fill:#FFB3CC;stroke:#730026;stroke-miterlimit:10;}
	.st15{fill:url(#SVGID_6_);}
	.st16{fill:#400015;}
	.st17{fill:none;stroke:#730026;stroke-linecap:round;stroke-miterlimit:10;}
	.st18{fill:url(#SVGID_7_);stroke:#735400;stroke-miterlimit:10;}
	.st19{fill:#FFECB3;stroke:#735500;stroke-miterlimit:10;}
	.st20{fill:url(#SVGID_8_);}
	.st21{fill:#403000;}
	.st22{fill:none;stroke:#735400;stroke-linecap:round;stroke-miterlimit:10;}
</style>
<g id="server">
	<g>
		<linearGradient id="SVGID_3_" gradientUnits="userSpaceOnUse" x1="2.4186" y1="70.4173" x2="239.9326" y2="70.4173">
			<stop  offset="0" style="stop-color:#02C4EB"/>
			<stop  offset="2.000000e-02" style="stop-color:#47E0FF"/>
			<stop  offset="0.42" style="stop-color:#47E0FF"/>
			<stop  offset="0.49" style="stop-color:#0AD6FF"/>
			<stop  offset="0.98" style="stop-color:#0AD6FF"/>
			<stop  offset="1" style="stop-color:#02C4EB"/>
		</linearGradient>
		<path class="st4" d="M239.9,29.7l-18.2-0.2v4.9L140,14.6c-6.6-1.6-15.6-1.2-20.1,0.8L20.2,59.7v-2.2H2.4v36.4l0,5.8
			c0.1,1.5,2.2,2.9,6.2,3.9l93.7,22.6c6.6,1.6,15.6,1.2,20.1-0.8l114.9-51.1c1.7-0.7,2.5-1.6,2.5-2.5l0-5.8V29.7z"/>
		<path class="st5" d="M237.4,32.1L122.5,83.2c-4.5,2-13.6,2.4-20.1,0.8L8.7,61.4c-6.6-1.6-8.2-4.5-3.7-6.5L119.9,3.8
			c4.5-2,13.6-2.4,20.1-0.8l93.7,22.6C240.2,27.2,241.9,30.1,237.4,32.1z"/>
		<path class="st6" d="M226.2,41.1c-0.6,1.3-0.5,3,0.3,3.8c0.7,0.9,1.8,0.5,2.4-0.7c0.6-1.3,0.5-3-0.3-3.8
			C227.8,39.5,226.8,39.8,226.2,41.1z"/>
		<path class="st7" d="M220.7,43.5c-0.6,1.3-0.5,3,0.3,3.8c0.7,0.9,1.8,0.5,2.4-0.7s0.5-3-0.3-3.8C222.3,41.9,221.3,42.3,220.7,43.5
			z"/>
		<path class="st8" d="M215.2,46c-0.6,1.3-0.5,3,0.3,3.8c0.7,0.9,1.8,0.5,2.4-0.7c0.6-1.3,0.5-3-0.3-3.8
			C216.8,44.4,215.8,44.7,215.2,46z"/>
		<linearGradient id="SVGID_4_" gradientUnits="userSpaceOnUse" x1="131.1421" y1="98.4413" x2="140.3759" y2="98.4413">
			<stop  offset="0" style="stop-color:#000B0D"/>
			<stop  offset="1" style="stop-color:#00758C"/>
		</linearGradient>
		<path class="st9" d="M138,116.1l-4.4,1.8c-1.3,0.6-2.4,0.2-2.4-0.7V83.5c0-1,1.1-2.2,2.4-2.8l4.4-1.8c1.3-0.6,2.4-0.2,2.4,0.7
			v33.7C140.4,114.3,139.3,115.6,138,116.1z"/>
		<g>
			<path class="st10" d="M14.7,72.2c0,1.6-1.4,2.6-3,2.2c-1.7-0.4-3-2-3-3.6c0-1.6,1.4-2.6,3-2.2C13.4,68.9,14.7,70.6,14.7,72.2z"/>
			<path class="st10" d="M14.7,84c0,1.6-1.4,2.6-3,2.2s-3-2-3-3.6c0-1.6,1.4-2.6,3-2.2C13.4,80.8,14.7,82.4,14.7,84z"/>
			<path class="st10" d="M18.9,79.1c0,1.6-1.4,2.6-3,2.2c-1.7-0.4-3-2-3-3.6c0-1.6,1.4-2.6,3-2.2C17.5,75.9,18.9,77.5,18.9,79.1z"/>
			<path class="st10" d="M23.1,74.2c0,1.6-1.4,2.6-3,2.2s-3-2-3-3.6s1.4-2.6,3-2.2S23.1,72.6,23.1,74.2z"/>
			<path class="st10" d="M23.1,86c0,1.6-1.4,2.6-3,2.2c-1.7-0.4-3-2-3-3.6c0-1.6,1.4-2.6,3-2.2S23.1,84.4,23.1,86z"/>
			<path class="st10" d="M27.2,81.1c0,1.6-1.4,2.6-3,2.2c-1.7-0.4-3-2-3-3.6c0-1.6,1.4-2.6,3-2.2C25.8,77.9,27.2,79.5,27.2,81.1z"/>
			<path class="st10" d="M31.4,76.2c0,1.6-1.4,2.6-3,2.2c-1.7-0.4-3-2-3-3.6c0-1.6,1.4-2.6,3-2.2C30,72.9,31.4,74.6,31.4,76.2z"/>
			<path class="st10" d="M31.4,88c0,1.6-1.4,2.6-3,2.2c-1.7-0.4-3-2-3-3.6c0-1.6,1.4-2.6,3-2.2C30,84.8,31.4,86.4,31.4,88z"/>
			<path class="st10" d="M35.5,83.1c0,1.6-1.4,2.6-3,2.2c-1.7-0.4-3-2-3-3.6c0-1.6,1.4-2.6,3-2.2C34.2,79.9,35.5,81.5,35.5,83.1z"/>
			<path class="st10" d="M39.7,78.2c0,1.6-1.4,2.6-3,2.2c-1.7-0.4-3-2-3-3.6c0-1.6,1.4-2.6,3-2.2C38.3,75,39.7,76.6,39.7,78.2z"/>
			<path class="st10" d="M39.7,90c0,1.6-1.4,2.6-3,2.2c-1.7-0.4-3-2-3-3.6c0-1.6,1.4-2.6,3-2.2C38.3,86.8,39.7,88.4,39.7,90z"/>
			<path class="st10" d="M43.8,85.1c0,1.6-1.4,2.6-3,2.2c-1.7-0.4-3-2-3-3.6c0-1.6,1.4-2.6,3-2.2C42.5,81.9,43.8,83.5,43.8,85.1z"/>
			<path class="st10" d="M48,80.2c0,1.6-1.4,2.6-3,2.2c-1.7-0.4-3-2-3-3.6c0-1.6,1.4-2.6,3-2.2S48,78.6,48,80.2z"/>
			<path class="st10" d="M48,92c0,1.6-1.4,2.6-3,2.2c-1.7-0.4-3-2-3-3.6c0-1.6,1.4-2.6,3-2.2C46.6,88.8,48,90.4,48,92z"/>
			<path class="st10" d="M52.2,87.1c0,1.6-1.4,2.6-3,2.2c-1.7-0.4-3-2-3-3.6c0-1.6,1.4-2.6,3-2.2S52.2,85.5,52.2,87.1z"/>
			<path class="st10" d="M14.7,95.9c0,1.6-1.4,2.6-3,2.2c-1.7-0.4-3-2-3-3.6c0-1.6,1.4-2.6,3-2.2S14.7,94.3,14.7,95.9z"/>
			<path class="st10" d="M18.9,90.9c0,1.6-1.4,2.6-3,2.2s-3-2-3-3.6c0-1.6,1.4-2.6,3-2.2C17.5,87.7,18.9,89.3,18.9,90.9z"/>
			<path class="st10" d="M23.1,97.9c0,1.6-1.4,2.6-3,2.2c-1.7-0.4-3-2-3-3.6c0-1.6,1.4-2.6,3-2.2C21.7,94.6,23.1,96.3,23.1,97.9z"/>
			<path class="st10" d="M27.2,92.9c0,1.6-1.4,2.6-3,2.2c-1.7-0.4-3-2-3-3.6c0-1.6,1.4-2.6,3-2.2C25.8,89.7,27.2,91.3,27.2,92.9z"/>
			<path class="st10" d="M31.4,99.9c0,1.6-1.4,2.6-3,2.2c-1.7-0.4-3-2-3-3.6s1.4-2.6,3-2.2C30,96.7,31.4,98.3,31.4,99.9z"/>
			<path class="st10" d="M35.5,95c0,1.6-1.4,2.6-3,2.2c-1.7-0.4-3-2-3-3.6c0-1.6,1.4-2.6,3-2.2C34.2,91.7,35.5,93.4,35.5,95z"/>
			<path class="st10" d="M39.7,101.9c0,1.6-1.4,2.6-3,2.2c-1.7-0.4-3-2-3-3.6c0-1.6,1.4-2.6,3-2.2C38.3,98.7,39.7,100.3,39.7,101.9z
				"/>
			<path class="st10" d="M43.8,97c0,1.6-1.4,2.6-3,2.2c-1.7-0.4-3-2-3-3.6s1.4-2.6,3-2.2C42.5,93.7,43.8,95.4,43.8,97z"/>
			<path class="st10" d="M48,103.9c0,1.6-1.4,2.6-3,2.2s-3-2-3-3.6s1.4-2.6,3-2.2C46.6,100.7,48,102.3,48,103.9z"/>
			<path class="st10" d="M52.2,99c0,1.6-1.4,2.6-3,2.2c-1.7-0.4-3-2-3-3.6c0-1.6,1.4-2.6,3-2.2C50.8,95.7,52.2,97.4,52.2,99z"/>
			<path class="st10" d="M56.6,82.2c0,1.6-1.4,2.6-3,2.2c-1.7-0.4-3-2-3-3.6c0-1.6,1.4-2.6,3-2.2C55.3,79,56.6,80.6,56.6,82.2z"/>
			<path class="st10" d="M56.6,94c0,1.6-1.4,2.6-3,2.2c-1.7-0.4-3-2-3-3.6c0-1.6,1.4-2.6,3-2.2C55.3,90.8,56.6,92.4,56.6,94z"/>
			<path class="st10" d="M60.8,89.1c0,1.6-1.4,2.6-3,2.2c-1.7-0.4-3-2-3-3.6c0-1.6,1.4-2.6,3-2.2C59.4,85.9,60.8,87.5,60.8,89.1z"/>
			<path class="st10" d="M64.9,84.2c0,1.6-1.4,2.6-3,2.2c-1.7-0.4-3-2-3-3.6c0-1.6,1.4-2.6,3-2.2C63.6,81,64.9,82.6,64.9,84.2z"/>
			<path class="st10" d="M64.9,96.1c0,1.6-1.4,2.6-3,2.2c-1.7-0.4-3-2-3-3.6s1.4-2.6,3-2.2C63.6,92.8,64.9,94.5,64.9,96.1z"/>
			<path class="st10" d="M56.6,105.9c0,1.6-1.4,2.6-3,2.2c-1.7-0.4-3-2-3-3.6s1.4-2.6,3-2.2C55.3,102.7,56.6,104.3,56.6,105.9z"/>
			<path class="st10" d="M60.8,101c0,1.6-1.4,2.6-3,2.2c-1.7-0.4-3-2-3-3.6c0-1.6,1.4-2.6,3-2.2C59.4,97.8,60.8,99.4,60.8,101z"/>
			<path class="st10" d="M64.9,107.9c0,1.6-1.4,2.6-3,2.2c-1.7-0.4-3-2-3-3.6c0-1.6,1.4-2.6,3-2.2C63.6,104.7,64.9,106.3,64.9,107.9
				z"/>
		</g>
		<path class="st11" d="M171.2,30.4c-0.9-0.8-2.4-1.5-4.4-2c-6.2-1.6-15.5-1.1-21.5,1c-0.7-0.5-1.6-0.9-2.9-1.2
			c-5-1.3-12.6-0.8-17,1.1c-0.5,0.2-1,0.5-1.4,0.7c-11.1-1.1-24.4,0.4-32.9,4.1c-3.7,1.6-6,3.4-6.9,5.3 M87.1,47.1
			c-2.3,1.1-3.7,2.4-4.4,3.6"/>
		<path class="st12" d="M82.6,53.7c0.9,1.7,3.4,3.2,7.5,4.3c9.7,2.5,24.5,1.5,33.1-2.2l44.9-19.6c1.5-0.7,2.6-1.4,3.2-2.1
			 M84.2,42.7c0.6,1.4,2.1,2.7,4.4,3.8"/>
	</g>
	<g>
		<linearGradient id="SVGID_5_" gradientUnits="userSpaceOnUse" x1="128.7689" y1="100.8734" x2="366.2829" y2="100.8734">
			<stop  offset="0" style="stop-color:#EB0250"/>
			<stop  offset="2.000000e-02" style="stop-color:#FF4784"/>
			<stop  offset="0.42" style="stop-color:#FF4784"/>
			<stop  offset="0.49" style="stop-color:#FF0A5C"/>
			<stop  offset="0.98" style="stop-color:#FF0A5C"/>
			<stop  offset="1" style="stop-color:#EB0250"/>
		</linearGradient>
		<path class="st13" d="M366.3,60.1l-18.2-0.2v4.9l-81.8-19.7c-6.6-1.6-15.6-1.2-20.1,0.8l-99.6,44.3v-2.2h-17.8v36.4l0,5.8
			c0.1,1.5,2.2,2.9,6.2,3.9l93.7,22.6c6.6,1.6,15.6,1.2,20.1-0.8l114.9-51.1c1.7-0.7,2.5-1.6,2.5-2.5l0-5.8V60.1z"/>
		<path class="st14" d="M363.7,62.6l-114.9,51.1c-4.5,2-13.6,2.4-20.1,0.8L135,91.8c-6.6-1.6-8.2-4.5-3.7-6.5l114.9-51.1
			c4.5-2,13.6-2.4,20.1-0.8L360,56C366.6,57.6,368.3,60.6,363.7,62.6z"/>
		<path class="st6" d="M352.6,71.5c-0.6,1.3-0.5,3,0.3,3.8c0.7,0.9,1.8,0.5,2.4-0.7c0.6-1.3,0.5-3-0.3-3.8
			C354.2,70,353.1,70.3,352.6,71.5z"/>
		<path class="st7" d="M347.1,74c-0.6,1.3-0.5,3,0.3,3.8c0.7,0.9,1.8,0.5,2.4-0.7s0.5-3-0.3-3.8C348.7,72.4,347.6,72.7,347.1,74z"/>
		<path class="st8" d="M341.6,76.4c-0.6,1.3-0.5,3,0.3,3.8c0.7,0.9,1.8,0.5,2.4-0.7c0.6-1.3,0.5-3-0.3-3.8
			C343.2,74.9,342.1,75.2,341.6,76.4z"/>
		<linearGradient id="SVGID_6_" gradientUnits="userSpaceOnUse" x1="257.4924" y1="128.8974" x2="266.7262" y2="128.8974">
			<stop  offset="0" style="stop-color:#0D0004"/>
			<stop  offset="1" style="stop-color:#8C002F"/>
		</linearGradient>
		<path class="st15" d="M264.3,146.6l-4.4,1.8c-1.3,0.6-2.4,0.2-2.4-0.7V114c0-1,1.1-2.2,2.4-2.8l4.4-1.8c1.3-0.6,2.4-0.2,2.4,0.7
			v33.7C266.7,144.8,265.6,146,264.3,146.6z"/>
		<g>
			<path class="st16" d="M141.1,102.6c0,1.6-1.4,2.6-3,2.2c-1.7-0.4-3-2-3-3.6s1.4-2.6,3-2.2C139.7,99.4,141.1,101,141.1,102.6z"/>
			<path class="st16" d="M141.1,114.5c0,1.6-1.4,2.6-3,2.2c-1.7-0.4-3-2-3-3.6c0-1.6,1.4-2.6,3-2.2
				C139.7,111.2,141.1,112.9,141.1,114.5z"/>
			<path class="st16" d="M145.2,109.5c0,1.6-1.4,2.6-3,2.2c-1.7-0.4-3-2-3-3.6c0-1.6,1.4-2.6,3-2.2
				C143.9,106.3,145.2,107.9,145.2,109.5z"/>
			<path class="st16" d="M149.4,104.6c0,1.6-1.4,2.6-3,2.2c-1.7-0.4-3-2-3-3.6c0-1.6,1.4-2.6,3-2.2C148,101.4,149.4,103,149.4,104.6
				z"/>
			<path class="st16" d="M149.4,116.5c0,1.6-1.4,2.6-3,2.2c-1.7-0.4-3-2-3-3.6c0-1.6,1.4-2.6,3-2.2
				C148,113.2,149.4,114.9,149.4,116.5z"/>
			<path class="st16" d="M153.6,111.5c0,1.6-1.4,2.6-3,2.2c-1.7-0.4-3-2-3-3.6c0-1.6,1.4-2.6,3-2.2
				C152.2,108.3,153.6,109.9,153.6,111.5z"/>
			<path class="st16" d="M157.7,106.6c0,1.6-1.4,2.6-3,2.2c-1.7-0.4-3-2-3-3.6c0-1.6,1.4-2.6,3-2.2
				C156.4,103.4,157.7,105,157.7,106.6z"/>
			<path class="st16" d="M157.7,118.5c0,1.6-1.4,2.6-3,2.2c-1.7-0.4-3-2-3-3.6s1.4-2.6,3-2.2C156.4,115.3,157.7,116.9,157.7,118.5z"
				/>
			<path class="st16" d="M161.9,113.6c0,1.6-1.4,2.6-3,2.2c-1.7-0.4-3-2-3-3.6c0-1.6,1.4-2.6,3-2.2
				C160.5,110.3,161.9,112,161.9,113.6z"/>
			<path class="st16" d="M166,108.6c0,1.6-1.4,2.6-3,2.2c-1.7-0.4-3-2-3-3.6c0-1.6,1.4-2.6,3-2.2C164.7,105.4,166,107,166,108.6z"/>
			<path class="st16" d="M166,120.5c0,1.6-1.4,2.6-3,2.2c-1.7-0.4-3-2-3-3.6c0-1.6,1.4-2.6,3-2.2C164.7,117.3,166,118.9,166,120.5z"
				/>
			<path class="st16" d="M170.2,115.6c0,1.6-1.4,2.6-3,2.2c-1.7-0.4-3-2-3-3.6s1.4-2.6,3-2.2C168.8,112.3,170.2,114,170.2,115.6z"/>
			<path class="st16" d="M174.4,110.6c0,1.6-1.4,2.6-3,2.2c-1.7-0.4-3-2-3-3.6c0-1.6,1.4-2.6,3-2.2C173,107.4,174.4,109,174.4,110.6
				z"/>
			<path class="st16" d="M174.4,122.5c0,1.6-1.4,2.6-3,2.2c-1.7-0.4-3-2-3-3.6s1.4-2.6,3-2.2C173,119.3,174.4,120.9,174.4,122.5z"/>
			<path class="st16" d="M178.5,117.6c0,1.6-1.4,2.6-3,2.2c-1.7-0.4-3-2-3-3.6c0-1.6,1.4-2.6,3-2.2
				C177.1,114.4,178.5,116,178.5,117.6z"/>
			<path class="st16" d="M141.1,126.3c0,1.6-1.4,2.6-3,2.2c-1.7-0.4-3-2-3-3.6c0-1.6,1.4-2.6,3-2.2
				C139.7,123.1,141.1,124.7,141.1,126.3z"/>
			<path class="st16" d="M145.2,121.4c0,1.6-1.4,2.6-3,2.2c-1.7-0.4-3-2-3-3.6s1.4-2.6,3-2.2C143.9,118.2,145.2,119.8,145.2,121.4z"
				/>
			<path class="st16" d="M149.4,128.3c0,1.6-1.4,2.6-3,2.2c-1.7-0.4-3-2-3-3.6s1.4-2.6,3-2.2C148,125.1,149.4,126.7,149.4,128.3z"/>
			<path class="st16" d="M153.6,123.4c0,1.6-1.4,2.6-3,2.2c-1.7-0.4-3-2-3-3.6c0-1.6,1.4-2.6,3-2.2
				C152.2,120.2,153.6,121.8,153.6,123.4z"/>
			<path class="st16" d="M157.7,130.3c0,1.6-1.4,2.6-3,2.2c-1.7-0.4-3-2-3-3.6c0-1.6,1.4-2.6,3-2.2
				C156.4,127.1,157.7,128.7,157.7,130.3z"/>
			<path class="st16" d="M161.9,125.4c0,1.6-1.4,2.6-3,2.2c-1.7-0.4-3-2-3-3.6s1.4-2.6,3-2.2C160.5,122.2,161.9,123.8,161.9,125.4z"
				/>
			<path class="st16" d="M166,132.3c0,1.6-1.4,2.6-3,2.2c-1.7-0.4-3-2-3-3.6c0-1.6,1.4-2.6,3-2.2C164.7,129.1,166,130.7,166,132.3z"
				/>
			<path class="st16" d="M170.2,127.4c0,1.6-1.4,2.6-3,2.2c-1.7-0.4-3-2-3-3.6c0-1.6,1.4-2.6,3-2.2
				C168.8,124.2,170.2,125.8,170.2,127.4z"/>
			<path class="st16" d="M174.4,134.4c0,1.6-1.4,2.6-3,2.2c-1.7-0.4-3-2-3-3.6c0-1.6,1.4-2.6,3-2.2
				C173,131.1,174.4,132.8,174.4,134.4z"/>
			<path class="st16" d="M178.5,129.4c0,1.6-1.4,2.6-3,2.2c-1.7-0.4-3-2-3-3.6s1.4-2.6,3-2.2C177.1,126.2,178.5,127.8,178.5,129.4z"
				/>
			<path class="st16" d="M183,112.7c0,1.6-1.4,2.6-3,2.2c-1.7-0.4-3-2-3-3.6c0-1.6,1.4-2.6,3-2.2C181.6,109.4,183,111.1,183,112.7z"
				/>
			<path class="st16" d="M183,124.5c0,1.6-1.4,2.6-3,2.2c-1.7-0.4-3-2-3-3.6s1.4-2.6,3-2.2C181.6,121.3,183,122.9,183,124.5z"/>
			<path class="st16" d="M187.1,119.6c0,1.6-1.4,2.6-3,2.2c-1.7-0.4-3-2-3-3.6c0-1.6,1.4-2.6,3-2.2
				C185.8,116.4,187.1,118,187.1,119.6z"/>
			<path class="st16" d="M191.3,114.7c0,1.6-1.4,2.6-3,2.2c-1.7-0.4-3-2-3-3.6c0-1.6,1.4-2.6,3-2.2
				C189.9,111.4,191.3,113.1,191.3,114.7z"/>
			<path class="st16" d="M191.3,126.5c0,1.6-1.4,2.6-3,2.2c-1.7-0.4-3-2-3-3.6c0-1.6,1.4-2.6,3-2.2
				C189.9,123.3,191.3,124.9,191.3,126.5z"/>
			<path class="st16" d="M183,136.4c0,1.6-1.4,2.6-3,2.2c-1.7-0.4-3-2-3-3.6s1.4-2.6,3-2.2C181.6,133.1,183,134.8,183,136.4z"/>
			<path class="st16" d="M187.1,131.4c0,1.6-1.4,2.6-3,2.2c-1.7-0.4-3-2-3-3.6s1.4-2.6,3-2.2S187.1,129.8,187.1,131.4z"/>
			<path class="st16" d="M191.3,138.4c0,1.6-1.4,2.6-3,2.2c-1.7-0.4-3-2-3-3.6s1.4-2.6,3-2.2C189.9,135.1,191.3,136.8,191.3,138.4z"
				/>
		</g>
		<path class="st17" d="M299.5,60.7c-0.9-0.8-2.4-1.5-4.4-2c-6.2-1.6-15.5-1.1-21.5,1c-0.7-0.5-1.6-0.9-2.9-1.2
			c-5-1.3-12.6-0.8-17,1.1c-0.5,0.2-1,0.5-1.4,0.7c-11.1-1.1-24.4,0.4-32.9,4.1c-3.7,1.6-6,3.4-6.9,5.3 M215.4,77.4
			c-2.3,1.1-3.7,2.4-4.4,3.6"/>
		<path class="st12" d="M211,83.9c0.9,1.7,3.4,3.2,7.5,4.3c9.7,2.5,24.5,1.5,33.1-2.2l44.9-19.6c1.5-0.7,2.6-1.4,3.2-2.1
			 M212.5,72.9c0.6,1.4,2.1,2.7,4.4,3.8"/>
	</g>
	<g>
		<linearGradient id="SVGID_7_" gradientUnits="userSpaceOnUse" x1="255.3546" y1="131.4534" x2="492.8686" y2="131.4534">
			<stop  offset="0" style="stop-color:#EBB002"/>
			<stop  offset="2.000000e-02" style="stop-color:#FFD147"/>
			<stop  offset="0.42" style="stop-color:#FFD147"/>
			<stop  offset="0.49" style="stop-color:#FFC30A"/>
			<stop  offset="0.98" style="stop-color:#FFC30A"/>
			<stop  offset="1" style="stop-color:#EBB002"/>
		</linearGradient>
		<path class="st18" d="M492.9,90.7l-18.2-0.2v4.9l-81.8-19.7c-6.6-1.6-15.6-1.2-20.1,0.8l-99.6,44.3v-2.2h-17.8v36.4l0,5.8
			c0.1,1.5,2.2,2.9,6.2,3.9l93.7,22.6c6.6,1.6,15.6,1.2,20.1-0.8l114.9-51.1c1.7-0.7,2.5-1.6,2.5-2.5l0-5.8V90.7z"/>
		<path class="st19" d="M490.3,93.2l-114.9,51.1c-4.5,2-13.6,2.4-20.1,0.8l-93.7-22.6c-6.6-1.6-8.2-4.5-3.7-6.5l114.9-51.1
			c4.5-2,13.6-2.4,20.1-0.8l93.7,22.6C493.2,88.2,494.8,91.2,490.3,93.2z"/>
		<path class="st6" d="M479.1,102.1c-0.6,1.3-0.5,3,0.3,3.8c0.7,0.9,1.8,0.5,2.4-0.7c0.6-1.3,0.5-3-0.3-3.8
			C480.8,100.5,479.7,100.9,479.1,102.1z"/>
		<path class="st7" d="M473.6,104.6c-0.6,1.3-0.5,3,0.3,3.8c0.7,0.9,1.8,0.5,2.4-0.7c0.6-1.3,0.5-3-0.3-3.8
			C475.3,103,474.2,103.3,473.6,104.6z"/>
		<path class="st8" d="M468.1,107c-0.6,1.3-0.5,3,0.3,3.8c0.7,0.9,1.8,0.5,2.4-0.7s0.5-3-0.3-3.8C469.8,105.4,468.7,105.7,468.1,107
			z"/>
		<linearGradient id="SVGID_8_" gradientUnits="userSpaceOnUse" x1="384.0781" y1="159.4774" x2="393.3119" y2="159.4774">
			<stop  offset="0" style="stop-color:#0D0A00"/>
			<stop  offset="1" style="stop-color:#8C6900"/>
		</linearGradient>
		<path class="st20" d="M390.9,177.2l-4.4,1.8c-1.3,0.6-2.4,0.2-2.4-0.7v-33.7c0-1,1.1-2.2,2.4-2.8l4.4-1.8c1.3-0.6,2.4-0.2,2.4,0.7
			v33.7C393.3,175.4,392.2,176.6,390.9,177.2z"/>
		<g>
			<path class="st21" d="M267.7,133.2c0,1.6-1.4,2.6-3,2.2c-1.7-0.4-3-2-3-3.6s1.4-2.6,3-2.2C266.3,130,267.7,131.6,267.7,133.2z"/>
			<path class="st21" d="M267.7,145c0,1.6-1.4,2.6-3,2.2c-1.7-0.4-3-2-3-3.6s1.4-2.6,3-2.2C266.3,141.8,267.7,143.4,267.7,145z"/>
			<path class="st21" d="M271.8,140.1c0,1.6-1.4,2.6-3,2.2s-3-2-3-3.6s1.4-2.6,3-2.2S271.8,138.5,271.8,140.1z"/>
			<path class="st21" d="M276,135.2c0,1.6-1.4,2.6-3,2.2s-3-2-3-3.6c0-1.6,1.4-2.6,3-2.2C274.6,132,276,133.6,276,135.2z"/>
			<path class="st21" d="M276,147.1c0,1.6-1.4,2.6-3,2.2s-3-2-3-3.6s1.4-2.6,3-2.2S276,145.5,276,147.1z"/>
			<path class="st21" d="M280.2,142.1c0,1.6-1.4,2.6-3,2.2c-1.7-0.4-3-2-3-3.6c0-1.6,1.4-2.6,3-2.2
				C278.8,138.9,280.2,140.5,280.2,142.1z"/>
			<path class="st21" d="M284.3,137.2c0,1.6-1.4,2.6-3,2.2c-1.7-0.4-3-2-3-3.6s1.4-2.6,3-2.2C282.9,134,284.3,135.6,284.3,137.2z"/>
			<path class="st21" d="M284.3,149.1c0,1.6-1.4,2.6-3,2.2c-1.7-0.4-3-2-3-3.6c0-1.6,1.4-2.6,3-2.2
				C282.9,145.8,284.3,147.5,284.3,149.1z"/>
			<path class="st21" d="M288.5,144.1c0,1.6-1.4,2.6-3,2.2c-1.7-0.4-3-2-3-3.6c0-1.6,1.4-2.6,3-2.2
				C287.1,140.9,288.5,142.5,288.5,144.1z"/>
			<path class="st21" d="M292.6,139.2c0,1.6-1.4,2.6-3,2.2c-1.7-0.4-3-2-3-3.6s1.4-2.6,3-2.2S292.6,137.6,292.6,139.2z"/>
			<path class="st21" d="M292.6,151.1c0,1.6-1.4,2.6-3,2.2s-3-2-3-3.6c0-1.6,1.4-2.6,3-2.2C291.3,147.8,292.6,149.5,292.6,151.1z"/>
			<path class="st21" d="M296.8,146.1c0,1.6-1.4,2.6-3,2.2c-1.7-0.4-3-2-3-3.6s1.4-2.6,3-2.2C295.4,142.9,296.8,144.5,296.8,146.1z"
				/>
			<path class="st21" d="M300.9,141.2c0,1.6-1.4,2.6-3,2.2c-1.7-0.4-3-2-3-3.6s1.4-2.6,3-2.2C299.6,138,300.9,139.6,300.9,141.2z"/>
			<path class="st21" d="M300.9,153.1c0,1.6-1.4,2.6-3,2.2c-1.7-0.4-3-2-3-3.6s1.4-2.6,3-2.2C299.6,149.9,300.9,151.5,300.9,153.1z"
				/>
			<path class="st21" d="M305.1,148.2c0,1.6-1.4,2.6-3,2.2c-1.7-0.4-3-2-3-3.6s1.4-2.6,3-2.2C303.7,144.9,305.1,146.6,305.1,148.2z"
				/>
			<path class="st21" d="M267.7,156.9c0,1.6-1.4,2.6-3,2.2c-1.7-0.4-3-2-3-3.6c0-1.6,1.4-2.6,3-2.2
				C266.3,153.7,267.7,155.3,267.7,156.9z"/>
			<path class="st21" d="M271.8,152c0,1.6-1.4,2.6-3,2.2c-1.7-0.4-3-2-3-3.6s1.4-2.6,3-2.2S271.8,150.4,271.8,152z"/>
			<path class="st21" d="M276,158.9c0,1.6-1.4,2.6-3,2.2c-1.7-0.4-3-2-3-3.6s1.4-2.6,3-2.2S276,157.3,276,158.9z"/>
			<path class="st21" d="M280.2,154c0,1.6-1.4,2.6-3,2.2c-1.7-0.4-3-2-3-3.6s1.4-2.6,3-2.2C278.8,150.8,280.2,152.4,280.2,154z"/>
			<path class="st21" d="M284.3,160.9c0,1.6-1.4,2.6-3,2.2c-1.7-0.4-3-2-3-3.6s1.4-2.6,3-2.2C282.9,157.7,284.3,159.3,284.3,160.9z"
				/>
			<path class="st21" d="M288.5,156c0,1.6-1.4,2.6-3,2.2c-1.7-0.4-3-2-3-3.6c0-1.6,1.4-2.6,3-2.2C287.1,152.8,288.5,154.4,288.5,156
				z"/>
			<path class="st21" d="M292.6,162.9c0,1.6-1.4,2.6-3,2.2s-3-2-3-3.6s1.4-2.6,3-2.2S292.6,161.3,292.6,162.9z"/>
			<path class="st21" d="M296.8,158c0,1.6-1.4,2.6-3,2.2c-1.7-0.4-3-2-3-3.6c0-1.6,1.4-2.6,3-2.2C295.4,154.8,296.8,156.4,296.8,158
				z"/>
			<path class="st21" d="M300.9,164.9c0,1.6-1.4,2.6-3,2.2c-1.7-0.4-3-2-3-3.6c0-1.6,1.4-2.6,3-2.2
				C299.6,161.7,300.9,163.3,300.9,164.9z"/>
			<path class="st21" d="M305.1,160c0,1.6-1.4,2.6-3,2.2c-1.7-0.4-3-2-3-3.6s1.4-2.6,3-2.2C303.7,156.8,305.1,158.4,305.1,160z"/>
			<path class="st21" d="M309.6,143.2c0,1.6-1.4,2.6-3,2.2c-1.7-0.4-3-2-3-3.6s1.4-2.6,3-2.2C308.2,140,309.6,141.6,309.6,143.2z"/>
			<path class="st21" d="M309.6,155.1c0,1.6-1.4,2.6-3,2.2c-1.7-0.4-3-2-3-3.6s1.4-2.6,3-2.2C308.2,151.9,309.6,153.5,309.6,155.1z"
				/>
			<path class="st21" d="M313.7,150.2c0,1.6-1.4,2.6-3,2.2c-1.7-0.4-3-2-3-3.6s1.4-2.6,3-2.2C312.4,146.9,313.7,148.6,313.7,150.2z"
				/>
			<path class="st21" d="M317.9,145.2c0,1.6-1.4,2.6-3,2.2s-3-2-3-3.6c0-1.6,1.4-2.6,3-2.2C316.5,142,317.9,143.6,317.9,145.2z"/>
			<path class="st21" d="M317.9,157.1c0,1.6-1.4,2.6-3,2.2c-1.7-0.4-3-2-3-3.6s1.4-2.6,3-2.2S317.9,155.5,317.9,157.1z"/>
			<path class="st21" d="M309.6,166.9c0,1.6-1.4,2.6-3,2.2c-1.7-0.4-3-2-3-3.6c0-1.6,1.4-2.6,3-2.2
				C308.2,163.7,309.6,165.3,309.6,166.9z"/>
			<path class="st21" d="M313.7,162c0,1.6-1.4,2.6-3,2.2c-1.7-0.4-3-2-3-3.6s1.4-2.6,3-2.2C312.4,158.8,313.7,160.4,313.7,162z"/>
			<path class="st21" d="M317.9,168.9c0,1.6-1.4,2.6-3,2.2s-3-2-3-3.6s1.4-2.6,3-2.2S317.9,167.3,317.9,168.9z"/>
		</g>
		<path class="st22" d="M425.2,91.7c-0.9-0.8-2.4-1.5-4.4-2c-6.2-1.6-15.5-1.1-21.5,1c-0.7-0.5-1.6-0.9-2.9-1.2
			c-5-1.3-12.6-0.8-17,1.1c-0.5,0.2-1,0.5-1.4,0.7c-11.1-1.1-24.4,0.4-32.9,4.1c-3.7,1.6-6,3.4-6.9,5.3 M341.1,108.4
			c-2.3,1.1-3.7,2.4-4.4,3.6"/>
		<path class="st12" d="M336.7,115c0.9,1.7,3.4,3.2,7.5,4.3c9.7,2.5,24.5,1.5,33.1-2.2l44.9-19.6c1.5-0.7,2.6-1.4,3.2-2.1
			 M338.2,103.9c0.6,1.4,2.1,2.7,4.4,3.8"/>
	</g>
</g>
</svg>
