<svg xmlns="http://www.w3.org/2000/svg" role="img" viewBox="6.02 39.77 389.22 177.72">
    <title>GraphQLCon-2023__400x425_Event Logo White.svg</title>
    <style>svg {enable-background:new 0 0 400 245}</style>
    <style>.st0{fill:#fff}</style>
    <g id="AW">
        <path d="M91.2 183c-.1 0-.2 0-.2-.1s-.1-.1-.1-.2v-9c0-.1 0-.2.1-.2s.1-.1.2-.1h1.2c.1 0 .2 0 .2.1.1.1.1.1.1.2v3.1c.2-.3.5-.5.9-.7.4-.2.8-.3 1.3-.3.6 0 1 .1 1.5.4.4.3.7.6 1 1.1.2.5.3 1 .3 1.6v3.8c0 .1 0 .2-.1.2s-.1.1-.2.1h-1.2c-.1 0-.2 0-.2-.1-.1-.1-.1-.1-.1-.2v-3.8c0-.5-.1-.9-.4-1.2-.3-.3-.6-.5-1.1-.5-.5 0-.9.2-1.1.5-.3.3-.4.7-.4 1.2v3.8c0 .1 0 .2-.1.2-.1.1-.1.1-.2.1h-1.4zm11.4.1c-.7 0-1.3-.1-1.8-.4-.5-.3-.9-.6-1.1-1.1-.3-.5-.4-1-.4-1.6v-.6-.6c0-.6.2-1.2.5-1.6.3-.5.7-.8 1.1-1.1.5-.3 1.1-.4 1.8-.4s1.3.1 1.8.4c.5.3.9.6 1.1 1.1.3.5.4 1 .5 1.6v1.2c0 .6-.2 1.2-.4 1.6-.3.5-.6.8-1.1 1.1-.6.3-1.3.4-2 .4zm0-1.3c.5 0 .9-.2 1.1-.5.3-.3.4-.8.4-1.3v-.5-.5c0-.6-.2-1-.4-1.3-.3-.3-.6-.5-1.1-.5s-.9.2-1.1.5c-.3.3-.4.8-.4 1.3v1c0 .6.2 1 .4 1.3.3.3.6.5 1.1.5zm7.6 1.3c-.5 0-1-.1-1.4-.2s-.7-.3-.9-.5c-.2-.2-.4-.4-.5-.6-.1-.2-.2-.3-.2-.5 0-.1 0-.2.1-.2.1-.1.1-.1.2-.1H108.7s.1 0 .1.1c.1.1.2.2.4.3s.3.2.5.3c.2.1.4.1.7.1.4 0 .7-.1.9-.2.2-.1.4-.3.4-.6 0-.2-.1-.3-.2-.5s-.3-.2-.6-.3c-.3-.1-.7-.2-1.2-.3-.5-.1-.9-.3-1.3-.5-.3-.2-.6-.4-.8-.7-.2-.3-.2-.6-.2-1s.1-.7.3-1 .5-.6 1-.8c.4-.2.9-.3 1.6-.3.5 0 .9.1 1.3.2s.7.3.9.5l.6.6c.1.2.2.3.2.5 0 .1 0 .2-.1.2-.1.1-.1.1-.2.1h-1-.1s-.1 0-.1-.1l-.3-.3c-.1-.1-.3-.2-.4-.3s-.4-.1-.7-.1c-.3 0-.6.1-.8.2-.2.2-.3.3-.3.6 0 .2 0 .3.1.4.1.1.3.2.5.3.3.1.7.2 1.2.3.6.1 1.1.3 1.5.5s.6.5.8.7c.2.3.2.6.2.9 0 .4-.1.8-.4 1.1-.2.3-.6.6-1.1.8-.6.4-1.2.4-1.9.4zm7.8-.1c-.5 0-1-.1-1.4-.3-.4-.2-.7-.5-.8-.9-.2-.4-.3-.8-.3-1.4v-3.1h-1.1c-.1 0-.2 0-.2-.1-.1-.1-.1-.1-.1-.2v-.8c0-.1 0-.2.1-.2.1-.1.1-.1.2-.1h1.1v-2.3c0-.1 0-.2.1-.2.1-.1.1-.1.2-.1h1.1c.1 0 .2 0 .2.1.1.1.1.1.1.2v2.3h1.7c.1 0 .2 0 .2.1.1.1.1.1.1.2v.8c0 .1 0 .2-.1.2-.1.1-.1.1-.2.1h-1.7v3c0 .4.1.7.2.9.1.2.4.3.7.3h.9c.1 0 .2 0 .2.1.1.1.1.1.1.2v.8c0 .1 0 .2-.1.2-.1.1-.1.1-.2.1h-1zm5.7.1c-1 0-1.8-.3-2.4-.9-.6-.6-.9-1.4-1-2.5v-.3-.3c0-.7.2-1.3.5-1.8s.7-.9 1.2-1.2c.5-.3 1.1-.4 1.7-.4.7 0 1.4.2 1.9.5s.9.7 1.1 1.3c.3.5.4 1.2.4 1.9v.3c0 .1 0 .2-.1.2s-.1.1-.2.1h-4.5v.1c0 .3.1.6.2.9.1.3.3.5.5.6.2.2.5.2.8.2.3 0 .5 0 .6-.1.2-.1.3-.2.4-.3l.2-.2c.1-.1.1-.2.2-.2h1.4c.1 0 .2 0 .2.1.1.1.1.1.1.2s-.1.3-.2.5-.3.4-.6.6-.6.4-1 .5-.9.2-1.4.2zm-1.5-4.3h3c0-.4-.1-.7-.2-.9s-.3-.5-.5-.6c-.2-.2-.5-.2-.8-.2s-.6.1-.8.2c-.2.2-.4.4-.5.6-.1.2-.2.6-.2.9zm9 4.3c-.5 0-.9-.1-1.2-.2s-.7-.4-.9-.7-.4-.6-.5-1c-.1-.4-.2-.8-.2-1.3v-.4-.4c0-.5.1-.9.2-1.3s.3-.7.5-1c.2-.3.5-.5.9-.7.4-.2.8-.2 1.2-.2.5 0 .9.1 1.2.3l.9.6v-3c0-.1 0-.2.1-.2.1-.1.1-.1.2-.1h1.2c.1 0 .2 0 .2.1.1.1.1.1.1.2v9c0 .1 0 .2-.1.2-.1.1-.1.1-.2.1h-1.1c-.1 0-.2 0-.2-.1-.1-.1-.1-.1-.1-.2v-.5c-.2.3-.5.5-.9.7-.4.1-.8.1-1.3.1zm.5-1.4c.4 0 .7-.1.9-.3.2-.2.4-.4.5-.7.1-.3.2-.5.2-.8v-.5-.5c0-.3-.1-.5-.2-.8-.1-.2-.3-.5-.5-.6-.2-.2-.5-.2-.9-.2s-.7.1-.9.3c-.2.2-.4.4-.5.7-.1.3-.2.6-.2.9v.8c0 .3.1.6.2.9.1.3.3.5.5.7.2 0 .5.1.9.1zm12.2 1.4c-.5 0-1-.1-1.3-.3-.4-.2-.6-.4-.9-.7v.5c0 .1 0 .2-.1.2-.1.1-.1.1-.2.1h-1.1c-.1 0-.2 0-.2-.1s-.1-.1-.1-.2v-9c0-.1 0-.2.1-.2s.1-.1.2-.1h1.2c.1 0 .2 0 .2.1.1.1.1.1.1.2v3c.2-.3.5-.5.9-.6.3-.2.8-.3 1.2-.3.5 0 .9.1 1.3.2.4.2.7.4.9.7.2.3.4.6.6 1 .1.4.2.8.2 1.3v.8c0 .5-.1.9-.2 1.3s-.3.7-.5 1-.5.5-.9.7-.9.4-1.4.4zm-.5-1.4c.4 0 .7-.1.9-.3.2-.2.4-.4.5-.7.1-.3.2-.6.2-.9v-.8c0-.3-.1-.6-.2-.9-.1-.3-.3-.5-.5-.7-.2-.2-.5-.3-.9-.3s-.7.1-.9.2-.4.4-.5.6-.2.5-.2.8v1c0 .3.1.6.2.8.1.3.3.5.5.7.3.4.6.5.9.5zm6 3.9c-.1 0-.1 0-.2-.1s-.1-.1-.1-.2v-.1-.1l1.1-2.5-2.6-6.2c0-.1-.1-.2-.1-.2 0-.1 0-.2.1-.2.1-.1.1-.1.2-.1h1.1c.1 0 .2 0 .2.1s.1.1.1.2l1.8 4.5 1.9-4.5c0-.1.1-.1.1-.2s.1-.1.2-.1h1.1c.1 0 .1 0 .2.1s.1.1.1.2 0 .1-.1.2l-3.9 8.9c0 .1-.1.1-.1.2s-.1.1-.2.1h-.9z"
              class="st0"/>
        <path d="M214.3 203.1h1.6v-5.6h5.4v-1.4h-5.4v-4.2h5.9v-1.3h-7.5zm13.3-9.5c-2.5 0-4.3 1.9-4.3 4.9 0 2.9 1.7 4.8 4.3 4.8s4.3-1.9 4.3-4.8c-.1-3-1.8-4.9-4.3-4.9zm0 8.4c-1.9 0-2.8-1.7-2.8-3.6s.9-3.6 2.8-3.6 2.8 1.7 2.8 3.6c0 1.9-.9 3.6-2.8 3.6zm12.5-2.8c0 1.8-1.3 2.6-2.4 2.6-1.2 0-2.1-.9-2.1-2.2v-5.9h-1.4v6c0 2.4 1.3 3.6 3 3.6 1.4 0 2.3-.8 2.8-1.7h.1v1.6h1.4v-9.4h-1.4v5.4zm8.9-5.6c-1.4 0-2.3.6-2.7 1.6h-.1v-1.5h-1.4v9.4h1.4v-5.7c0-1.6 1-2.6 2.4-2.6 1.3 0 2.1.9 2.1 2.3v5.9h1.4v-6c0-2.3-1.2-3.4-3.1-3.4zm12.5 1.6h-.1c-.3-.5-.9-1.6-2.7-1.6-2.4 0-4 1.9-4 4.8 0 3 1.6 4.9 4 4.9 1.8 0 2.4-1.1 2.7-1.6h.2v1.4h1.4v-12.5h-1.4l-.1 4.6zm-2.6 6.8c-1.8 0-2.7-1.6-2.7-3.6s.9-3.5 2.7-3.5c1.8 0 2.7 1.4 2.7 3.5s-1 3.6-2.7 3.6zm10.8-8.4c-1.4 0-3 .5-3.7 2.2l1.4.5c.3-.7 1.1-1.4 2.4-1.4 1.3 0 2 .7 2 1.9 0 .7-.7.7-2.4.9-1.7.2-3.7.6-3.7 2.8 0 1.8 1.4 2.9 3.2 2.9 1.6 0 2.5-.9 2.8-1.5h.1v1.3h1.4V197c0-3.1-2.3-3.4-3.5-3.4zm2.1 6.1c0 1.2-.9 2.3-2.6 2.3-1.2 0-2-.5-2-1.5 0-1.1 1-1.4 2.1-1.6.6-.1 2.2-.3 2.5-.5v1.3zm7.9 2.1c-.6 0-1.2-.2-1.2-1.4v-5.5h2v-1.2h-2v-2.2H277v2.2h-1.4v1.2h1.4v5.9c0 1.6 1.3 2.4 2.5 2.4.5 0 .9-.1 1.1-.2l-.3-1.3c-.1 0-.3.1-.6.1zm3.5-8.1h1.4v9.4h-1.4zm.7-3.5c-.6 0-1 .4-1 1s.5 1 1 1c.6 0 1-.4 1-1 .1-.6-.4-1-1-1zm7.6 3.4c-2.5 0-4.3 1.9-4.3 4.9 0 2.9 1.7 4.8 4.3 4.8s4.3-1.9 4.3-4.8c-.1-3-1.8-4.9-4.3-4.9zm0 8.4c-1.9 0-2.8-1.7-2.8-3.6s.9-3.6 2.8-3.6 2.8 1.7 2.8 3.6c-.1 1.9-.9 3.6-2.8 3.6zm10.8-8.4c-1.4 0-2.3.6-2.7 1.6h-.1v-1.5h-1.4v9.4h1.4v-5.7c0-1.6 1-2.6 2.4-2.6 1.3 0 2.1.9 2.1 2.3v5.9h1.4v-6c.1-2.3-1.2-3.4-3.1-3.4zm-77.8-15.9h-5.2v2h2.6c0 1.6-1.2 2.5-2.8 2.5-2 0-3.2-1.4-3.2-4.1 0-2.6 1.2-4.1 3.1-4.1 1.4 0 2.3.7 2.7 1.9h2.7c-.4-2.5-2.6-4.2-5.4-4.2-3.3 0-5.8 2.4-5.8 6.4s2.4 6.4 5.9 6.4c3.2 0 5.4-2 5.4-5.3v-1.5zm5.1-1l-.1-1.6H227v9.4h2.6v-5.3c0-1.2.8-1.9 1.9-1.9.4 0 .6.1.9.2l.8-2.1c-.4-.2-.8-.4-1.3-.4-1.1-.1-1.9.5-2.3 1.7zm8.8-1.8c-2.3 0-3.8 1.1-4.1 2.8l2.4.2c.2-.6.7-1.1 1.7-1.1.9 0 1.4.4 1.4 1.2 0 .6-.6.7-2.3.9-1.9.2-3.5.8-3.5 2.9 0 1.9 1.3 2.8 3.1 2.8 1.4 0 2.3-.6 2.8-1.5h.1v1.3h2.5v-6.3c-.1-2.3-2.1-3.2-4.1-3.2zm1.4 6.2c0 1-.8 1.7-2 1.7-.8 0-1.4-.4-1.4-1.1 0-.7.6-1.1 1.5-1.2.6-.1 1.5-.2 1.8-.4l.1 1zm10.4-6.2c-1.6 0-2.3.9-2.7 1.7h-.1V175h-2.6v13h2.6v-5h.1c.4.8 1.2 1.7 2.7 1.7 2.1 0 3.8-1.7 3.8-4.8.1-3.4-1.7-5-3.8-5zm-.8 7.6c-1.2 0-2-1.1-2-2.8 0-1.7.7-2.8 2-2.8s2 1.1 2 2.8c0 1.7-.7 2.8-2 2.8zm12.4-7.6c-1.4 0-2.4.7-2.8 1.8h-.1v-4.8h-2.5v12.5h2.6V179c0-1.2.7-1.9 1.8-1.9s1.7.7 1.7 1.8v5.5h2.6v-6c-.1-2.1-1.4-3.5-3.3-3.5zm16.6 10.6l-1.8-2.2c1.2-1.1 2-2.8 2-5 0-4.1-2.5-6.4-5.9-6.4s-5.9 2.3-5.9 6.4c0 4.1 2.5 6.4 5.9 6.4.8 0 1.5-.1 2.2-.4l1 1.2h2.5zm-3.4-4.2l-.9-1.2h-2.2l1.6 2.1c-.2 0-.4.1-.7.1-1.9 0-3.2-1.4-3.2-4.1s1.2-4.1 3.2-4.1 3.2 1.4 3.2 4.1c-.1 1.3-.4 2.4-1 3.1zm14.1 1h-5.4v-10.4h-2.6v12.5h8zm-86.4 0c1.9-1.1 2.5-3.5 1.4-5.4-1.1-1.9-3.5-2.5-5.4-1.4-.4.2-.6.4-.9.7l-9.1-5.3c.1-.4.2-.7.2-1.1 0-2.2-1.8-4-3.9-4s-3.9 1.8-3.9 4c0 .4.1.8.2 1.1l-9.1 5.3c-.3-.3-.5-.5-.9-.7-1.9-1.1-4.3-.4-5.4 1.4-1.1 1.9-.4 4.3 1.4 5.4.3.2.7.3 1.1.4v10.6c-.4.1-.7.2-1 .4-1.9 1.1-2.5 3.5-1.4 5.4 1.1 1.9 3.5 2.5 5.4 1.4.3-.2.6-.4.9-.7l9.1 5.3c-.1.4-.2.7-.2 1.1 0 2.2 1.8 4 3.9 4s3.9-1.8 3.9-4c0-.4-.1-.9-.2-1.2l9-5.3c.3.3.6.6 1 .8 1.9 1.1 4.3.4 5.4-1.4 1.1-1.9.4-4.3-1.4-5.4-.3-.2-.7-.3-1-.4v-10.6c.3-.1.6-.2.9-.4zm-32.2 11h-.2v-10.6c1-.3 1.9-.9 2.5-1.9.5-1 .6-2.1.4-3.1l9.1-5.3.1.1-11.9 20.8zm17.5 10.3c-.7-.8-1.8-1.3-2.9-1.3s-2.1.5-2.8 1.2l-9.1-5.3v-.2h23.7c0 .1 0 .2.1.3l-9 5.3zm9.4-8.4c-.2.3-.3.7-.4 1.1h-23.7c-.1-.4-.2-.7-.4-1.1-.2-.3-.4-.6-.7-.9l11.9-20.7c.4.1.7.2 1.1.2s.7-.1 1.1-.2l11.9 20.7c-.4.2-.6.5-.8.9zm2.4-1.9h-.2l-11.9-20.7.1-.1 9.1 5.3c-.3 1-.2 2.1.4 3.1.5 1 1.4 1.6 2.5 1.9v10.5z"
              class="st0"/>
        <path d="M40.5 63.8c-.7-1.3-1.7-2.2-3-2.9-1.3-.7-2.8-1-4.6-1-3 0-5.4 1-7.2 3-1.8 2-2.7 4.6-2.7 7.9 0 3.5 1 6.3 2.9 8.3 1.9 2 4.5 3 7.9 3 2.3 0 4.2-.6 5.8-1.7 1.6-1.2 2.7-2.8 3.5-5h-12v-6.9h20.3V77c-.7 2.3-1.9 4.5-3.5 6.5-1.7 2-3.8 3.6-6.3 4.9-2.5 1.2-5.4 1.9-8.6 1.9-3.8 0-7.2-.8-10.1-2.5-3-1.7-5.3-4-6.9-6.9-1.7-2.9-2.5-6.3-2.5-10.1s.8-7.1 2.5-10.1 4-5.3 6.9-6.9c2.9-1.7 6.3-2.5 10.1-2.5 4.6 0 8.4 1.1 11.6 3.3 3.1 2.2 5.2 5.3 6.2 9.2H40.5zM70 60.6c1.6-1 3.5-1.4 5.5-1.4v9.9h-2.6c-2.3 0-4.1.5-5.2 1.5-1.2 1-1.7 2.8-1.7 5.3V90h-9.3V59.5H66v5.1c1-1.7 2.4-3 4-4zm9.8 5.8c1.2-2.4 2.8-4.2 4.8-5.5 2-1.3 4.3-1.9 6.8-1.9 2.1 0 4 .4 5.6 1.3 1.6.9 2.9 2 3.7 3.4v-4.3h9.3v30.4h-9.3v-4.3c-.9 1.4-2.2 2.6-3.8 3.4-1.6.9-3.5 1.3-5.6 1.3-2.5 0-4.7-.6-6.8-1.9-2-1.3-3.6-3.1-4.8-5.5-1.2-2.4-1.8-5.1-1.8-8.3.2-3 .8-5.7 1.9-8.1zm19.1 2.8c-1.3-1.3-2.9-2-4.7-2-1.9 0-3.4.7-4.7 2-1.3 1.3-1.9 3.2-1.9 5.5s.6 4.2 1.9 5.5c1.3 1.4 2.9 2 4.7 2 1.9 0 3.4-.7 4.7-2 1.3-1.3 1.9-3.2 1.9-5.5.1-2.3-.6-4.1-1.9-5.5zm31.1-8.8c1.6-.9 3.5-1.3 5.6-1.3 2.5 0 4.8.6 6.8 1.9 2 1.3 3.6 3.1 4.8 5.5 1.2 2.4 1.8 5.1 1.8 8.2 0 3.1-.6 5.9-1.8 8.3-1.2 2.4-2.8 4.2-4.8 5.5-2 1.3-4.3 1.9-6.8 1.9-2.1 0-4-.4-5.6-1.3-1.6-.9-2.9-2-3.8-3.4v18.8h-9.3v-45h9.3v4.3c1-1.4 2.2-2.5 3.8-3.4zm7.6 8.8c-1.3-1.3-2.9-2-4.8-2s-3.4.7-4.7 2c-1.3 1.3-1.9 3.2-1.9 5.5s.6 4.2 1.9 5.5c1.3 1.3 2.9 2 4.7 2s3.4-.7 4.7-2c1.3-1.4 2-3.2 2-5.5.1-2.4-.6-4.2-1.9-5.5zm43.4-6.5c2.1 2.3 3.2 5.5 3.2 9.5V90h-9.3V73.4c0-2-.5-3.6-1.6-4.7S170.8 67 169 67c-1.8 0-3.2.6-4.3 1.7-1.1 1.1-1.6 2.7-1.6 4.7v16.5h-9.3V49.6h9.3v14c.9-1.3 2.2-2.4 3.9-3.2 1.6-.8 3.5-1.2 5.5-1.2 3.6 0 6.4 1.1 8.5 3.5zm36.9 33.8l-4.9-6.6c-1.5.3-2.9.4-4.3.4-3.6 0-6.9-.8-9.9-2.5s-5.4-4-7.1-7c-1.8-3-2.6-6.4-2.6-10.1s.9-7.1 2.6-10.1c1.8-3 4.1-5.3 7.1-7 3-1.7 6.3-2.5 9.9-2.5s6.9.8 9.9 2.5 5.4 4 7.1 7c1.7 3 2.6 6.3 2.6 10.1 0 3.3-.7 6.3-2 9s-3.2 5-5.5 6.7l8.4 10.1h-11.3zm-16.5-17.7c1.8 2 4.3 3 7.4 3 3.1 0 5.5-1 7.3-3.1 1.8-2 2.8-4.7 2.8-8.1 0-3.4-.9-6.1-2.8-8.1-1.8-2-4.3-3-7.3-3-3.1 0-5.6 1-7.4 3-1.8 2-2.8 4.7-2.8 8.1 0 3.5 1 6.2 2.8 8.2zm41.5 3.9h12.2v7.2h-21.5V51.7h9.3v31zm17.6-22.1c1.6-3 3.9-5.3 6.8-6.9 2.9-1.7 6.2-2.5 9.9-2.5 4.5 0 8.4 1.2 11.7 3.6 3.2 2.4 5.4 5.7 6.5 9.8h-10.2c-.8-1.6-1.8-2.8-3.2-3.7s-3-1.3-4.8-1.3c-2.9 0-5.2 1-7 3s-2.7 4.7-2.7 8 .9 6 2.7 8c1.8 2 4.1 3 7 3 1.8 0 3.4-.4 4.8-1.3 1.4-.8 2.5-2.1 3.2-3.7h10.2c-1.1 4.1-3.3 7.4-6.5 9.8-3.2 2.4-7.1 3.6-11.7 3.6-3.7 0-7-.8-9.9-2.5s-5.2-4-6.8-6.9c-1.6-2.9-2.5-6.3-2.5-10.1 0-3.5.9-6.9 2.5-9.9zM307 88.5c-2.4-1.3-4.3-3.1-5.6-5.5-1.4-2.4-2-5.1-2-8.3 0-3.1.7-5.9 2.1-8.3 1.4-2.4 3.3-4.2 5.7-5.5 2.4-1.3 5.1-1.9 8.1-1.9s5.7.6 8.1 1.9c2.4 1.3 4.3 3.1 5.7 5.5s2.1 5.1 2.1 8.3-.7 5.9-2.1 8.3c-1.4 2.4-3.3 4.2-5.7 5.5-2.4 1.3-5.1 1.9-8.1 1.9s-6-.7-8.3-1.9zm12.6-8.2c1.3-1.3 1.9-3.2 1.9-5.6s-.6-4.3-1.8-5.6c-1.2-1.3-2.7-2-4.5-2-1.8 0-3.3.6-4.5 1.9-1.2 1.3-1.8 3.2-1.8 5.6 0 2.4.6 4.3 1.8 5.6 1.2 1.3 2.7 2 4.4 2s3.2-.6 4.5-1.9zm43.3-17.6c2.1 2.3 3.2 5.5 3.2 9.5V90h-9.3V73.4c0-2-.5-3.6-1.6-4.7s-2.5-1.7-4.3-1.7c-1.8 0-3.2.6-4.3 1.7-1.1 1.1-1.6 2.7-1.6 4.7v16.5h-9.3V59.5h9.3v4c.9-1.3 2.2-2.4 3.8-3.2 1.6-.8 3.4-1.2 5.4-1.2 3.8.1 6.6 1.2 8.7 3.6zm25 4.6h-5V90h-9.3V67.3h-3.4v-7.7h3.4v-.9c0-3.7 1.1-6.6 3.2-8.5 2.1-1.9 5.3-2.9 9.4-2.9.7 0 1.2 0 1.5.1v7.9c-1.8-.1-3 .1-3.8.8-.7.6-1.1 1.7-1.1 3.3v.3h5v7.6z"
              class="st0"/>
        <g>
            <path d="M157.9 129c2.2-2 4-4.1 5.5-6.2s2.2-4.3 2.2-6.4c0-2-.5-3.5-1.4-4.7-1-1.1-2.5-1.7-4.6-1.7-2.1 0-3.7.6-4.8 1.9-1.1 1.3-1.7 3-1.8 5.2h-4c.1-3.4 1.2-6 3.1-7.9 1.9-1.8 4.4-2.8 7.5-2.8 3.1 0 5.6.9 7.4 2.6 1.8 1.7 2.7 4.1 2.7 7.1 0 2.5-.8 5-2.2 7.3-1.5 2.4-3.2 4.5-5.1 6.3-1.9 1.8-4.3 3.9-7.3 6.3h15.6v3.5h-21.8v-3c3.8-3 6.8-5.5 9-7.5zm20.1-18.1c1.7-2.9 4.7-4.4 8.9-4.4s7.2 1.5 8.9 4.4c1.7 2.9 2.5 7 2.5 12.2 0 5.3-.8 9.4-2.5 12.4-1.7 2.9-4.6 4.4-8.9 4.4-4.2 0-7.2-1.5-8.9-4.4-1.7-2.9-2.5-7.1-2.5-12.4-.1-5.2.8-9.2 2.5-12.2zm15.7 5.5c-.3-1.8-1.1-3.3-2.1-4.4s-2.6-1.7-4.7-1.7-3.6.6-4.7 1.7-1.8 2.6-2.1 4.4c-.3 1.8-.5 4.1-.5 6.7 0 2.7.2 5 .5 6.9.3 1.8 1.1 3.3 2.1 4.5 1.1 1.1 2.6 1.7 4.7 1.7 2 0 3.6-.6 4.7-1.7s1.8-2.6 2.1-4.5c.3-1.8.5-4.1.5-6.9 0-2.6-.2-4.8-.5-6.7zm18.8 12.6c2.2-2 4-4.1 5.5-6.2s2.2-4.3 2.2-6.4c0-2-.5-3.5-1.4-4.7-1-1.1-2.5-1.7-4.6-1.7-2.1 0-3.7.6-4.8 1.9-1.1 1.3-1.7 3-1.8 5.2h-4c.1-3.4 1.2-6 3.1-7.9 1.9-1.8 4.4-2.8 7.5-2.8 3.1 0 5.6.9 7.4 2.6 1.8 1.7 2.7 4.1 2.7 7.1 0 2.5-.8 5-2.2 7.3-1.5 2.4-3.2 4.5-5.1 6.3-1.9 1.8-4.3 3.9-7.3 6.3h15.6v3.5h-21.8v-3c3.8-3 6.8-5.5 9-7.5zm20.7-20.2c1.9-1.6 4.5-2.4 7.5-2.4 2.1 0 3.8.4 5.3 1.1 1.5.7 2.6 1.7 3.4 3 .8 1.3 1.2 2.7 1.2 4.3 0 1.9-.5 3.5-1.6 4.9-1.1 1.4-2.5 2.2-4.2 2.6v.2c2 .5 3.5 1.4 4.7 2.9 1.2 1.4 1.7 3.3 1.7 5.6 0 1.7-.4 3.3-1.2 4.7-.8 1.4-2 2.5-3.5 3.2-1.6.8-3.5 1.2-5.7 1.2-3.2 0-5.8-.8-7.9-2.5-2.1-1.7-3.2-4.1-3.5-7.2h4c.2 1.8 1 3.3 2.2 4.5 1.3 1.2 3 1.7 5.1 1.7 2.1 0 3.7-.6 4.8-1.7 1.1-1.1 1.7-2.5 1.7-4.3 0-2.3-.8-3.9-2.3-4.9-1.5-1-3.8-1.5-6.9-1.5h-1v-3.5h1.1c2.8 0 4.9-.5 6.3-1.4 1.4-.9 2.1-2.3 2.1-4.2 0-1.6-.5-2.9-1.6-3.9-1-1-2.5-1.5-4.5-1.5-1.9 0-3.4.5-4.5 1.5-1.2 1-1.8 2.3-2 3.9h-4c.3-2.6 1.4-4.7 3.3-6.3z"
                  class="st0"/>
        </g>
        <path fill="none" stroke="#fff" stroke-miterlimit="10" stroke-width="1.425"
              d="M87.3 155.7h225.2"/>
    </g>
</svg>
