<svg fill="#ffffff" viewBox="0 0 11 10" xmlns="http://www.w3.org/2000/svg"><path d="m9.05511 0h-7.11021c-.59959 0-1.087753.46-1.087753 1.03v6.76c0 .57.488163 1.03 1.087753 1.03h6.01715l-.28123-.925.67918.595.64205.56 1.14085.95v-8.97c0-.57-.4882-1.03-1.08779-1.03zm-2.04817 6.53s-.19102-.215-.3502-.405c.6951-.185.96041-.595.96041-.595-.21755.135-.42449.23-.61021.295-.2653.105-.52.175-.76938.215-.50939.09-.97633.065-1.37429-.005-.30245-.055-.56245-.135-.78-.215-.12204-.045-.25469-.1-.38735-.17-.01592-.01-.03183-.015-.04775-.025-.01061-.005-.01592-.01-.02123-.015-.09551-.05-.14857-.085-.14857-.085s.2547.4.92857.59c-.15918.19-.35551.415-.35551.415-1.17265-.035-1.61836-.76-1.61836-.76 0-1.61.76408-2.915.76408-2.915.76408-.54 1.49102-.525 1.49102-.525l.05306.06c-.9551.26-1.39551.655-1.39551.655s.11673-.06.31306-.145c.56776-.235 1.01878-.3 1.20449-.315.03184-.005.05837-.01.0902-.01.32368-.04.6898-.05 1.07184-.01.50408.055 1.04531.195 1.59714.48 0 0-.41918-.375-1.32122-.635l.07428-.08s.72694-.015 1.49103.525c0 0 .76408 1.305.76408 2.915 0 0-.45102.725-1.62368.76z"/></svg>