<svg fill="#ffffff" viewBox="0 0 12 12" xmlns="http://www.w3.org/2000/svg"><path clip-rule="evenodd" d="m6.03927.165405c-3.27055 0-5.922909 2.652005-5.922909 5.923645 0 2.61709 1.697089 4.83705 4.050909 5.62035.29636.0546.40436-.1284.40436-.2854 0-.1408-.00509-.5131-.008-1.0073-1.64763.3578-1.99527-.7942-1.99527-.7942-.26946-.68436-.65782-.86654-.65782-.86654-.53782-.36727.04073-.36001.04073-.36001.59454.04182.90727.61055.90727.61055.52836.90509 1.38655.64364 1.724.492.05382-.38254.20691-.64363.376-.79163-1.31527-.14946-2.69818-.65782-2.69818-2.92764 0-.64654.23091-1.17564.60982-1.58946-.06109-.14981-.26437-.75236.05818-1.56763 0 0 .49709-.15927 1.62872.60727.47237-.13163.97928-.19709 1.48291-.19964.50328.00255 1.00982.06801 1.48291.19964 1.13091-.76654 1.62727-.60727 1.62727-.60727.32328.81527.12001 1.41782.05928 1.56763.37964.41382.60873.94292.60873 1.58946 0 2.27564-1.38509 2.77636-2.70437 2.92291.21237.18291.40182.54436.40182 1.09672 0 .79204-.00727 1.43094-.00727 1.62514 0 .1585.10691.3429.40727.2851 2.35197-.7851 4.04767-3.00369 4.04767-5.62005 0-3.27164-2.6524-5.923645-5.92403-5.923645z" fill-rule="evenodd"/></svg>