<svg width="25" height="25" viewBox="0 0 25 25" fill="none" xmlns="http://www.w3.org/2000/svg">
<path d="M12.5 23.4375C18.5406 23.4375 23.4375 18.5406 23.4375 12.5C23.4375 6.45939 18.5406 1.5625 12.5 1.5625C6.45939 1.5625 1.5625 6.45939 1.5625 12.5C1.5625 18.5406 6.45939 23.4375 12.5 23.4375Z" fill="#FFFA37"/>
<path fill-rule="evenodd" clip-rule="evenodd" d="M16.4262 6.39493C15.672 5.44437 14.4276 4.6875 12.5092 4.6875C10.8665 4.70368 7.58108 5.61285 7.58108 9.12016C7.58108 9.63234 7.62163 10.3184 7.65705 10.8235C7.6153 10.8114 7.56397 10.7887 7.48262 10.7497L7.47131 10.7443C7.32746 10.6752 7.10873 10.5702 6.80453 10.5702C6.49723 10.5702 6.20009 10.6905 5.97949 10.8691C5.76023 11.0464 5.57291 11.3191 5.57291 11.6488C5.57291 12.0612 5.80501 12.335 6.07639 12.5105C6.31744 12.6665 6.62139 12.7661 6.86201 12.8449L6.8858 12.8527C7.14335 12.9372 7.33211 13.0016 7.46226 13.0827C7.56356 13.1459 7.57894 13.1858 7.58084 13.2237C7.57952 13.2291 7.57642 13.2408 7.56968 13.2597C7.55579 13.2988 7.53269 13.3515 7.49892 13.4174C7.43156 13.549 7.33334 13.7108 7.21649 13.8833C6.98077 14.2313 6.6931 14.5883 6.47822 14.795C6.26627 14.9989 5.91845 15.2523 5.55481 15.454C5.37448 15.554 5.19813 15.6369 5.04037 15.6938C4.87752 15.7526 4.75818 15.775 4.68444 15.775C4.62606 15.775 4.57554 15.787 4.55349 15.7925C4.5225 15.8002 4.49042 15.8105 4.4587 15.8224C4.39576 15.846 4.32075 15.8815 4.24645 15.9315C4.10451 16.027 3.90625 16.2197 3.90625 16.5236C3.90625 16.6822 3.94348 16.8165 4.00785 16.933C4.0642 17.0349 4.13662 17.1123 4.1783 17.1569L4.18449 17.1634L4.19602 17.1759C4.42527 17.4225 4.80475 17.5941 5.17314 17.7119C5.48968 17.813 5.84359 17.8884 6.18845 17.9337C6.19332 17.9559 6.19841 17.9798 6.20398 18.0061L6.20578 18.0146C6.22749 18.117 6.25625 18.2526 6.2986 18.3777C6.33856 18.4956 6.41093 18.6701 6.55909 18.7944C6.74779 18.9526 6.99459 18.9686 7.15562 18.968C7.32849 18.9673 7.53032 18.9429 7.72183 18.9198L7.73813 18.9179C8.00758 18.8854 8.28953 18.8519 8.58148 18.8519C9.1143 18.8519 9.45586 19.0745 9.99172 19.4404L9.99531 19.4429C10.1809 19.5697 10.3888 19.7116 10.625 19.8512C11.4158 20.3184 12.0583 20.3145 12.4224 20.3121C12.4465 20.312 12.4692 20.3119 12.4908 20.3119C12.5123 20.3119 12.5353 20.312 12.5595 20.3121C12.9242 20.3145 13.5838 20.3187 14.375 19.8512C14.6112 19.7116 14.8191 19.5697 15.0046 19.4429L15.0083 19.4404C15.5441 19.0745 15.8857 18.8519 16.4185 18.8519C16.7105 18.8519 16.9924 18.8854 17.2619 18.9179L17.2782 18.9198C17.4697 18.9429 17.6715 18.9673 17.8444 18.968C18.0054 18.9686 18.2522 18.9526 18.4409 18.7944C18.5891 18.6701 18.6614 18.4956 18.7014 18.3777C18.7437 18.2527 18.7725 18.117 18.7942 18.0146L18.796 18.0061C18.8016 17.9798 18.8066 17.9559 18.8116 17.9337C19.1564 17.8884 19.5103 17.813 19.8269 17.7119C20.1952 17.5941 20.5748 17.4224 20.804 17.1758L20.8155 17.1634L20.8216 17.1569C20.8634 17.1123 20.9358 17.0349 20.9921 16.933C21.0565 16.8165 21.0938 16.6822 21.0938 16.5236C21.0938 16.2197 20.8955 16.027 20.7535 15.9315C20.6792 15.8815 20.6042 15.846 20.5413 15.8224C20.5096 15.8105 20.4775 15.8002 20.4465 15.7925C20.4245 15.787 20.3739 15.775 20.3155 15.775C20.2418 15.775 20.1225 15.7526 19.9596 15.6938C19.8019 15.6369 19.6255 15.554 19.4452 15.454C19.0816 15.2523 18.7337 14.9989 18.5218 14.795C18.3069 14.5883 18.0192 14.2313 17.7835 13.8833C17.6666 13.7108 17.5684 13.549 17.5011 13.4174C17.4673 13.3515 17.4442 13.2988 17.4303 13.2597C17.4236 13.2408 17.4205 13.2291 17.4191 13.2237C17.4211 13.1858 17.4364 13.1459 17.5377 13.0827C17.6679 13.0016 17.8566 12.9372 18.1142 12.8527L18.138 12.8449C18.3786 12.7661 18.6826 12.6665 18.9236 12.5105C19.195 12.335 19.4271 12.0612 19.4271 11.6488C19.4271 11.3191 19.2398 11.0464 19.0205 10.8691C18.7999 10.6905 18.5027 10.5702 18.1955 10.5702C17.8912 10.5702 17.6726 10.6752 17.5287 10.7443L17.5174 10.7497C17.436 10.7887 17.3847 10.8114 17.343 10.8235C17.3784 10.3184 17.4189 9.63234 17.4189 9.12016C17.4189 8.42477 17.1661 7.32737 16.4262 6.39493ZM9.20563 6.8537C8.57984 7.6371 8.36539 8.56734 8.36539 9.12016C8.36539 9.63273 8.40883 10.3448 8.44547 10.8554C8.45766 11.0249 8.42289 11.2227 8.27477 11.3795C8.12484 11.5384 7.92094 11.5899 7.73876 11.5899C7.4757 11.5899 7.27563 11.4937 7.14764 11.4321L7.13278 11.425C6.98998 11.3565 6.91491 11.3247 6.80453 11.3247C6.70412 11.3247 6.58154 11.3678 6.48433 11.4465C6.3858 11.5262 6.35723 11.6042 6.35723 11.6488C6.35723 11.7398 6.39077 11.8048 6.51402 11.8845C6.65959 11.9786 6.867 12.0494 7.1389 12.1386L7.16257 12.1463C7.38837 12.2203 7.66805 12.312 7.88875 12.4495C8.13648 12.6039 8.36539 12.8521 8.36539 13.2345C8.36539 13.3347 8.33766 13.4312 8.31164 13.5042C8.28344 13.5835 8.24531 13.6673 8.2025 13.7508C8.11687 13.9181 8.00102 14.1071 7.87367 14.2952C7.62096 14.6683 7.29977 15.0717 7.03281 15.3285C6.76293 15.5881 6.35705 15.8799 5.94655 16.1077C5.73981 16.2223 5.52397 16.3251 5.31584 16.4002C5.12954 16.4674 4.92875 16.5201 4.73613 16.5284C4.73133 16.5304 4.72602 16.5328 4.72047 16.5355C4.71159 16.5401 4.70328 16.5448 4.69603 16.5498L4.69233 16.5523C4.69305 16.5575 4.69388 16.5613 4.69458 16.5641C4.69612 16.5701 4.69795 16.5744 4.70041 16.5788C4.70796 16.5925 4.71987 16.6077 4.76805 16.6594L4.78069 16.6729C4.86748 16.7663 5.08137 16.8875 5.42043 16.9959C5.74334 17.0991 6.12518 17.1736 6.48594 17.2078C6.66644 17.2249 6.77048 17.3377 6.81451 17.3985C6.85984 17.461 6.88576 17.5271 6.90091 17.5709C6.93021 17.6558 6.95234 17.7603 6.9698 17.8427L6.97245 17.8552C6.99629 17.9676 7.01714 18.0637 7.04434 18.1439C7.05395 18.1723 7.06281 18.1939 7.07045 18.2098C7.08766 18.2118 7.11405 18.2137 7.15229 18.2135C7.31817 18.2128 7.48425 18.1881 7.64861 18.1683C7.91156 18.1366 8.23695 18.0973 8.58148 18.0973C9.38055 18.0973 9.90781 18.4577 10.4172 18.8057L10.4458 18.8252C10.6342 18.9539 10.8231 19.0827 11.0355 19.2083C11.6341 19.562 12.0896 19.5595 12.4224 19.5576C12.4458 19.5575 12.4686 19.5573 12.4908 19.5573C12.5128 19.5573 12.5355 19.5575 12.5588 19.5576C12.8952 19.5594 13.366 19.562 13.9645 19.2083C14.1769 19.0827 14.3658 18.9539 14.5542 18.8252L14.5828 18.8057C15.0922 18.4577 15.6195 18.0973 16.4185 18.0973C16.763 18.0973 17.0884 18.1366 17.3514 18.1683L17.3593 18.1692C17.572 18.1948 17.7276 18.213 17.8477 18.2135C17.8859 18.2137 17.9123 18.2118 17.9295 18.2098C17.9372 18.1939 17.946 18.1723 17.9557 18.1439C17.9829 18.0637 18.0037 17.9676 18.0276 17.8552L18.0302 17.8427C18.0477 17.7602 18.0698 17.6558 18.0991 17.5709C18.1142 17.5271 18.1402 17.461 18.1855 17.3985C18.2295 17.3377 18.3336 17.2249 18.5141 17.2078C18.8748 17.1736 19.2566 17.0991 19.5795 16.9959C19.9186 16.8875 20.1325 16.7663 20.2193 16.673L20.232 16.6594C20.2801 16.6077 20.292 16.5925 20.2996 16.5788C20.302 16.5744 20.3039 16.5701 20.3054 16.5641C20.3061 16.5613 20.307 16.5575 20.3077 16.5523L20.304 16.5498C20.2967 16.5448 20.2884 16.5401 20.2795 16.5355C20.274 16.5327 20.2687 16.5304 20.2639 16.5284C20.0712 16.5201 19.8705 16.4674 19.6841 16.4002C19.476 16.3251 19.2602 16.2223 19.0534 16.1077C18.643 15.8799 18.2371 15.5881 17.9672 15.3285C17.7002 15.0717 17.3791 14.6683 17.1263 14.2952C16.999 14.1071 16.8831 13.9181 16.7975 13.7508C16.7547 13.6673 16.7166 13.5835 16.6884 13.5042C16.6623 13.4312 16.6346 13.3347 16.6346 13.2345C16.6346 12.8521 16.8635 12.6039 17.1112 12.4495C17.332 12.312 17.6116 12.2203 17.8374 12.1463L17.8611 12.1386C18.133 12.0494 18.3404 11.9786 18.486 11.8845C18.6092 11.8048 18.6427 11.7398 18.6427 11.6488C18.6427 11.6042 18.6142 11.5262 18.5157 11.4465C18.4184 11.3678 18.2959 11.3247 18.1955 11.3247C18.0851 11.3247 18.01 11.3565 17.8672 11.425L17.8523 11.4321C17.7244 11.4937 17.5243 11.5899 17.2613 11.5899C17.0791 11.5899 16.8752 11.5384 16.7252 11.3795C16.5771 11.2227 16.5423 11.0249 16.5545 10.8554C16.5912 10.3448 16.6346 9.63273 16.6346 9.12016C16.6346 8.56586 16.424 7.63556 15.8027 6.85273C15.1959 6.088 14.1815 5.44199 12.5092 5.44199C10.8367 5.44199 9.81719 6.08819 9.20563 6.8537Z" fill="black"/>
<path fill-rule="evenodd" clip-rule="evenodd" d="M9.20539 6.85373C8.57953 7.63713 8.36516 8.56731 8.36516 9.12013C8.36516 9.6327 8.40859 10.3448 8.44523 10.8554C8.45734 11.025 8.42258 11.2226 8.27453 11.3796C8.12461 11.5384 7.9207 11.59 7.73851 11.59C7.47545 11.59 7.27538 11.4937 7.14739 11.4322L7.13253 11.425C6.98973 11.3565 6.91466 11.3247 6.80429 11.3247C6.70388 11.3247 6.58129 11.3679 6.48409 11.4465C6.38555 11.5262 6.35698 11.6043 6.35698 11.6489C6.35698 11.7398 6.39052 11.8047 6.51377 11.8845C6.65934 11.9786 6.86675 12.0494 7.13866 12.1386L7.16233 12.1464C7.38812 12.2204 7.6678 12.3119 7.88851 12.4495C8.13625 12.604 8.36516 12.8522 8.36516 13.2345C8.36516 13.3347 8.33742 13.4312 8.31141 13.5043C8.2832 13.5836 8.245 13.6673 8.20227 13.7508C8.11664 13.9182 8.00078 14.1072 7.87336 14.2952C7.62071 14.6683 7.29952 15.0717 7.03256 15.3286C6.76268 15.5882 6.35681 15.88 5.9463 16.1076C5.73956 16.2223 5.52373 16.3251 5.31559 16.4002C5.12929 16.4675 4.9285 16.5201 4.73587 16.5283C4.73108 16.5304 4.72577 16.5328 4.72022 16.5356C4.71134 16.54 4.70303 16.5449 4.69579 16.5497L4.69208 16.5523C4.6928 16.5575 4.69363 16.5614 4.69433 16.5641C4.69587 16.5701 4.6977 16.5744 4.70016 16.5789C4.70771 16.5925 4.71962 16.6078 4.7678 16.6594L4.78044 16.6729C4.86723 16.7663 5.08113 16.8875 5.42018 16.9959C5.74309 17.0991 6.12494 17.1736 6.4857 17.2079C6.6662 17.225 6.77023 17.3378 6.81427 17.3985C6.85959 17.4611 6.88551 17.5272 6.90066 17.571C6.92996 17.6558 6.95209 17.7603 6.96955 17.8427L6.97221 17.8553C6.99605 17.9676 7.01689 18.0636 7.04409 18.144C7.05369 18.1723 7.06257 18.194 7.0702 18.2098C7.08741 18.2118 7.1138 18.2136 7.15204 18.2135C7.31792 18.2129 7.484 18.1881 7.64836 18.1683C7.91133 18.1366 8.23672 18.0974 8.58125 18.0974C9.38031 18.0974 9.90758 18.4577 10.4169 18.8057L10.4455 18.8252C10.634 18.954 10.8229 19.0828 11.0353 19.2083C11.6339 19.5621 12.0894 19.5595 12.4221 19.5576C12.4455 19.5575 12.4684 19.5574 12.4905 19.5574C12.5126 19.5574 12.5352 19.5575 12.5586 19.5576C12.895 19.5594 13.3657 19.562 13.9642 19.2083C14.1766 19.0828 14.3655 18.954 14.554 18.8252L14.5826 18.8057C15.092 18.4577 15.6192 18.0974 16.4183 18.0974C16.7628 18.0974 17.0882 18.1366 17.3512 18.1683L17.3591 18.1693C17.5717 18.1949 17.7273 18.213 17.8475 18.2135C17.8857 18.2136 17.9121 18.2118 17.9293 18.2098C17.937 18.194 17.9458 18.1723 17.9554 18.144C17.9826 18.0636 18.0034 17.9676 18.0273 17.8553L18.0299 17.8427C18.0474 17.7603 18.0695 17.6558 18.0988 17.571C18.114 17.5271 18.1399 17.4611 18.1852 17.3985C18.2293 17.3377 18.3333 17.225 18.5138 17.2079C18.8746 17.1736 19.2564 17.0991 19.5793 16.9959C19.9184 16.8875 20.1323 16.7664 20.2191 16.6729L20.2317 16.6594C20.2798 16.6078 20.2918 16.5925 20.2994 16.5789C20.3018 16.5744 20.3037 16.5701 20.3052 16.5641C20.3059 16.5614 20.3067 16.5575 20.3074 16.5523L20.3038 16.5497C20.2965 16.5449 20.2882 16.54 20.2793 16.5356C20.2738 16.5328 20.2684 16.5304 20.2636 16.5283C20.071 16.5201 19.8702 16.4675 19.6839 16.4002C19.4758 16.3251 19.2599 16.2223 19.0532 16.1076C18.6427 15.88 18.2368 15.5882 17.967 15.3286C17.7 15.0717 17.3788 14.6683 17.1261 14.2952C16.9988 14.1072 16.8829 13.9182 16.7972 13.7508C16.7545 13.6673 16.7163 13.5836 16.688 13.5043C16.6621 13.4312 16.6344 13.3347 16.6344 13.2345C16.6344 12.8522 16.8633 12.604 17.111 12.4495C17.3317 12.3119 17.6114 12.2204 17.8372 12.1464L17.8609 12.1386C18.1327 12.0494 18.3402 11.9786 18.4857 11.8845C18.609 11.8047 18.6425 11.7398 18.6425 11.6489C18.6425 11.6043 18.614 11.5262 18.5154 11.4465C18.4182 11.3679 18.2956 11.3247 18.1952 11.3247C18.0848 11.3247 18.0098 11.3565 17.867 11.425L17.8521 11.4322C17.7241 11.4937 17.5241 11.59 17.261 11.59C17.0788 11.59 16.8749 11.5384 16.725 11.3796C16.5769 11.2226 16.5421 11.025 16.5543 10.8554C16.5909 10.3448 16.6344 9.6327 16.6344 9.12013C16.6344 8.56591 16.4237 7.6356 15.8025 6.85276C15.1957 6.08802 14.1813 5.44202 12.5089 5.44202C10.8364 5.44202 9.81695 6.08822 9.20539 6.85373Z" fill="white"/>
</svg>
