<svg fill="#ffffff" viewBox="0 0 13 10" xmlns="http://www.w3.org/2000/svg"><path d="m4.58519 10c4.62962 0 7.16291-3.83919 7.16291-7.16289 0-.10801 0-.21602-.0049-.32403.4909-.35348.918-.80024 1.2568-1.30591-.4517.20128-.9377.33384-1.4483.39766.5204-.30929.9181-.805148 1.1095-1.394284-.486.289658-1.026.495856-1.6004.608773-.4615-.490946-1.11448-.7953322-1.83617-.7953322-1.38938 0-2.51856 1.1291732-2.51856 2.5185532 0 .19638.02455.38785.06383.57441-2.09143-.1031-3.94721-1.10954-5.1893-2.631474-.21602.373119-.33876.805154-.33876 1.266644 0 .87388.44677 1.64467 1.11936 2.09634-.41239-.01473-.80024-.12765-1.13899-.31421v.03437c0 1.21754.86897 2.23871 2.01778 2.46946-.2111.05891-.43203.08837-.66277.08837-.16202 0-.31912-.01473-.47131-.04419.31911 1.00153 1.25191 1.72813 2.35163 1.74777-.86406.67751-1.94906 1.08008-3.12733 1.08008-.20128 0-.402571-.00982-.59895-.03436 1.10954.70696 2.43509 1.12425 3.85393 1.12425z"/></svg>