<svg width="158" height="36" viewBox="0 0 158 36" fill="none" xmlns="http://www.w3.org/2000/svg">
<mask id="mask0_1_2" style="mask-type:luminance" maskUnits="userSpaceOnUse" x="0" y="0" width="158" height="36">
<path d="M157.14 0H0V35.4H157.14V0Z" fill="white"/>
</mask>
<g mask="url(#mask0_1_2)">
<path d="M31.0679 8.85L23.3938 4.425L15.7197 0L0.371521 8.85V26.55L15.7197 35.4L31.0679 26.55V17.7001L23.3938 13.275L31.0679 8.85ZM23.3938 22.125L15.7197 26.55L8.04562 22.125V13.275L15.7197 8.85L23.3938 13.275L15.7197 17.7L23.3938 22.125Z" fill="#ED1E79"/>
<path d="M49.2495 9.64515H52.2793V21.287C52.2793 24.4516 50.1284 26.8077 46.4278 26.8077C42.6811 26.8077 41.0389 24.313 40.8539 22.3958H44.1381C44.2769 23.0887 44.832 23.9896 46.4741 23.9896C48.1394 23.9896 48.9951 23.0656 48.9951 21.6335V19.9473C48.3706 20.7789 47.1679 21.518 45.4565 21.518C42.0797 21.518 39.9288 18.8155 39.9288 15.443C39.9288 12.0706 42.0797 9.36797 45.4565 9.36797C47.1679 9.36797 48.4863 10.0147 49.2495 11.1235V9.64515ZM46.1503 12.2554C44.3926 12.2554 43.213 13.5489 43.213 15.443C43.213 17.3371 44.3926 18.6307 46.1503 18.6307C47.9081 18.6307 49.0876 17.3371 49.0876 15.443C49.0876 13.5489 47.9081 12.2554 46.1503 12.2554Z" fill="#211931"/>
<path d="M61.2184 12.6251C61.0046 12.5841 60.7878 12.5609 60.5704 12.5559C58.651 12.5559 57.6565 13.5029 57.6565 15.7204V21.7492H54.3723V9.64538H57.4021V11.2161C57.8415 10.5001 58.7667 9.52986 60.825 9.52986C60.9408 9.52986 61.2184 9.55299 61.2184 9.55299V12.6251Z" fill="#211931"/>
<path d="M62.1199 18.3072C62.1199 16.2052 63.5773 14.9579 66.8152 14.4498L70.0531 13.9647V13.8492C70.0531 12.6711 69.3129 12.0705 67.8792 12.0705C66.3527 12.0705 65.7513 12.7173 65.6355 13.5489H62.3976C62.5825 11.4469 64.0168 9.36797 67.8561 9.36797C71.4178 9.36797 73.1752 11.0542 73.1752 13.8723V19.5777C73.1752 20.363 73.3141 21.2639 73.5226 21.749H70.3538C70.3308 21.749 70.215 21.1946 70.215 20.4092C69.4517 21.4949 68.2259 22.0262 66.3757 22.0262C63.5773 22.0262 62.1199 20.4785 62.1199 18.3072ZM67.1389 16.7827C65.7282 17.0368 65.2887 17.545 65.2887 18.2148C65.2887 19.0464 65.7973 19.4853 67.1159 19.4853C69.0353 19.4853 70.0531 18.3766 70.0531 16.7827V16.2976L67.1389 16.7827Z" fill="#211931"/>
<path d="M78.401 26.5535H75.1165V9.64515H78.1464V11.1235C78.9097 10.0147 80.2743 9.36797 81.9857 9.36797C85.5013 9.36797 87.5595 12.186 87.5595 15.6971C87.5595 19.2081 85.5013 22.0262 81.9857 22.0262C80.2743 22.0262 79.0255 21.287 78.401 20.4555V26.5535ZM81.2922 19.1388C83.1188 19.1388 84.2755 17.6605 84.2755 15.6971C84.2755 13.7337 83.1188 12.2554 81.2922 12.2554C79.465 12.2554 78.3083 13.7337 78.3083 15.6971C78.3083 17.6605 79.465 19.1388 81.2922 19.1388Z" fill="#211931"/>
<path d="M92.2619 10.7541C92.8863 9.92256 94.0424 9.36814 95.615 9.36814C98.5291 9.36814 100.079 11.3085 100.079 14.1958V21.7492H96.7947V14.5655C96.7947 13.1564 96.1933 12.1862 94.7365 12.1862C93.1403 12.1862 92.2619 13.1795 92.2619 14.8426V21.7492H88.9773V4.425H92.2619V10.7541Z" fill="#211931"/>
<path d="M107.098 22.0262C103.582 22.0262 101.524 19.2081 101.524 15.6971C101.524 12.186 103.582 9.36797 107.098 9.36797C108.809 9.36797 110.174 10.0147 110.937 11.1235V9.64515H113.967V26.5535H110.683V20.4555C110.058 21.287 108.809 22.0262 107.098 22.0262ZM107.792 12.2554C105.964 12.2554 104.808 13.7337 104.808 15.6971C104.808 17.6605 105.964 19.1388 107.792 19.1388C109.619 19.1388 110.775 17.6605 110.775 15.6971C110.775 13.7337 109.619 12.2554 107.792 12.2554Z" fill="#211931"/>
<path d="M115.893 21.7492V4.425H119.177V21.7492H115.893Z" fill="#211931"/>
<path d="M121.42 20.6868C121.42 19.9707 121.952 19.4394 122.692 19.4394C123.409 19.4394 123.965 19.9707 123.965 20.6868C123.965 21.4259 123.409 21.9341 122.692 21.9341C121.952 21.9341 121.42 21.4259 121.42 20.6868Z" fill="#211931"/>
<path d="M132.133 12.0709H132.11L128.895 21.7493H127.184L123.113 9.99194H124.871L128.039 19.809L131.277 9.99194H132.989L136.181 19.809L139.395 9.99194H141.13L137.013 21.7493H135.302L132.133 12.0709Z" fill="#211931"/>
<path d="M148.712 21.6795C148.712 21.6795 148.296 21.795 147.463 21.795C145.474 21.795 144.41 20.7094 144.41 18.5842V11.3774H142.167V9.99148H144.41V6.64211H146.053V9.99148H148.758V11.3774H146.053V18.4688C146.053 19.7161 146.538 20.3167 147.671 20.3167C148.021 20.3103 148.37 20.2717 148.712 20.2012V21.6795Z" fill="#211931"/>
<path d="M152.468 8.05185C152.468 5.58024 153.902 4.4253 155.96 4.4253C156.223 4.42262 156.485 4.43805 156.747 4.4715V5.97292C156.532 5.93841 156.315 5.92295 156.099 5.92673C154.827 5.92673 154.109 6.48109 154.109 7.98252V9.99212H156.77V11.3781H154.109V21.7495H152.468V11.3781H150.178V9.99212H152.468V8.05185Z" fill="#211931"/>
</g>
</svg>
