<svg viewBox="0 0 147 57" fill="none" xmlns="http://www.w3.org/2000/svg">
    <path d="M67.53 40.6113C67.248 40.6113 67.024 40.5283 66.858 40.3613C66.6987 40.2083 66.5937 40.0074 66.559 39.7893L63.846 23.8853C63.8299 23.8544 63.8213 23.8201 63.821 23.7853V23.7113C63.821 23.5783 63.871 23.4623 63.971 23.3633C64.0181 23.3104 64.0754 23.2676 64.1395 23.2375C64.2036 23.2074 64.2732 23.1907 64.344 23.1883H67.43C67.895 23.1883 68.152 23.3713 68.202 23.7363L69.82 33.4673L71.612 27.7183C71.662 27.5853 71.744 27.4443 71.86 27.2953C71.977 27.1293 72.167 27.0463 72.433 27.0463H74.225C74.507 27.0463 74.706 27.1293 74.822 27.2953C74.938 27.4453 75.013 27.5853 75.046 27.7183L76.838 33.4433L78.456 23.7363C78.506 23.3713 78.763 23.1883 79.228 23.1883H82.314C82.464 23.1883 82.588 23.2463 82.687 23.3633C82.787 23.4633 82.837 23.5783 82.837 23.7113V23.8863L80.124 39.7893C80.0892 40.0079 79.9838 40.2092 79.824 40.3623C79.659 40.5283 79.435 40.6113 79.153 40.6113H76.788C76.506 40.6113 76.291 40.5363 76.141 40.3873C75.992 40.2373 75.892 40.0973 75.843 39.9633L73.329 32.8453L70.815 39.9633C70.765 40.0963 70.665 40.2373 70.516 40.3873C70.384 40.5363 70.176 40.6113 69.894 40.6113H67.53ZM90.142 40.8593C88.184 40.8593 86.624 40.3293 85.462 39.2673C84.302 38.2053 83.696 36.6283 83.646 34.5373V33.6673C83.696 32.3563 83.986 31.2363 84.517 30.3073C85.0364 29.3887 85.8157 28.6442 86.757 28.1673C87.719 27.6683 88.839 27.4193 90.117 27.4193C91.577 27.4193 92.78 27.7093 93.726 28.2913C94.6655 28.8477 95.4186 29.6704 95.89 30.6553C96.371 31.6513 96.612 32.7873 96.612 34.0653V34.6623C96.6143 34.7472 96.5975 34.8315 96.5629 34.909C96.5282 34.9865 96.4767 35.0553 96.412 35.1103C96.3572 35.1665 96.2915 35.211 96.219 35.2409C96.1464 35.2708 96.0685 35.2856 95.99 35.2843H88.025V35.4593C88.042 35.9393 88.125 36.3793 88.275 36.7783C88.424 37.1763 88.655 37.4913 88.971 37.7233C89.286 37.9563 89.668 38.0723 90.116 38.0723C90.448 38.0723 90.722 38.0223 90.937 37.9223C91.17 37.8063 91.361 37.6823 91.51 37.5493C91.66 37.3993 91.775 37.2753 91.858 37.1763C92.008 37.0103 92.124 36.9103 92.207 36.8773C92.307 36.8273 92.456 36.8033 92.655 36.8033H95.741C95.907 36.8033 96.04 36.8533 96.139 36.9523C96.255 37.0353 96.305 37.1593 96.289 37.3253C96.272 37.6073 96.131 37.9473 95.865 38.3453C95.6 38.7443 95.21 39.1423 94.695 39.5403C94.198 39.9223 93.567 40.2373 92.804 40.4863C92.041 40.7353 91.155 40.8593 90.142 40.8593ZM88.026 32.8203H92.233V32.7703C92.233 32.2403 92.15 31.7753 91.983 31.3773C91.85 30.9996 91.5967 30.676 91.262 30.4563C90.947 30.2403 90.565 30.1323 90.117 30.1323C89.669 30.1323 89.287 30.2403 88.972 30.4563C88.674 30.6723 88.442 30.9793 88.275 31.3763C88.109 31.7753 88.026 32.2403 88.026 32.7713V32.8203ZM104.422 40.8603C102.464 40.8603 100.904 40.3283 99.742 39.2673C98.582 38.2053 97.976 36.6283 97.926 34.5373V33.6673C97.976 32.3563 98.266 31.2363 98.797 30.3073C99.3163 29.3887 100.096 28.6441 101.037 28.1673C101.999 27.6683 103.119 27.4193 104.397 27.4193C105.857 27.4193 107.06 27.7093 108.006 28.2913C108.946 28.8476 109.699 29.6703 110.171 30.6553C110.652 31.6513 110.893 32.7873 110.893 34.0653V34.6623C110.895 34.7471 110.879 34.8314 110.844 34.9089C110.81 34.9865 110.759 35.0553 110.694 35.1103C110.639 35.1667 110.573 35.2112 110.501 35.2412C110.428 35.2711 110.35 35.2858 110.271 35.2843H102.306V35.4593C102.323 35.9393 102.406 36.3793 102.555 36.7783C102.705 37.1763 102.937 37.4913 103.252 37.7233C103.567 37.9563 103.949 38.0723 104.397 38.0723C104.729 38.0723 105.003 38.0223 105.218 37.9223C105.451 37.8063 105.641 37.6823 105.791 37.5493C105.912 37.43 106.028 37.3055 106.139 37.1763C106.289 37.0103 106.405 36.9103 106.488 36.8773C106.587 36.8273 106.737 36.8033 106.936 36.8033H110.022C110.188 36.8033 110.321 36.8533 110.42 36.9523C110.536 37.0353 110.586 37.1593 110.569 37.3253C110.553 37.6073 110.412 37.9473 110.146 38.3453C109.881 38.7443 109.491 39.1423 108.977 39.5403C108.479 39.9223 107.848 40.2373 107.085 40.4863C106.322 40.7353 105.434 40.8603 104.422 40.8603ZM102.306 32.8203H106.513V32.7703C106.513 32.2403 106.43 31.7753 106.264 31.3773C106.131 30.9996 105.877 30.676 105.542 30.4563C105.227 30.2403 104.845 30.1323 104.397 30.1323C103.949 30.1323 103.567 30.2403 103.252 30.4563C102.953 30.6723 102.721 30.9793 102.555 31.3763C102.389 31.7753 102.306 32.2403 102.306 32.7713V32.8203ZM113.351 40.6103C113.268 40.6134 113.186 40.5996 113.109 40.5697C113.032 40.5398 112.962 40.4944 112.903 40.4363C112.845 40.3774 112.8 40.3073 112.77 40.2302C112.74 40.1532 112.726 40.0709 112.729 39.9883V23.5623C112.729 23.3793 112.787 23.2303 112.903 23.1143C112.962 23.056 113.032 23.0105 113.109 22.9804C113.186 22.9503 113.268 22.9363 113.351 22.9393H116.238C116.404 22.9393 116.545 22.9973 116.661 23.1143C116.726 23.1693 116.777 23.2381 116.811 23.3157C116.846 23.3932 116.862 23.4775 116.86 23.5623V31.8993L120.32 28.0913C120.419 27.9753 120.527 27.8763 120.643 27.7933C120.759 27.7103 120.925 27.6683 121.141 27.6683H124.476C124.547 27.6672 124.618 27.6824 124.683 27.7127C124.747 27.7431 124.804 27.7877 124.849 27.8433C124.905 27.8881 124.949 27.945 124.98 28.0096C125.01 28.0742 125.025 28.1449 125.024 28.2163C125.021 28.2934 125.005 28.3694 124.974 28.4403C124.944 28.5192 124.892 28.5881 124.825 28.6393L120.345 33.4673L125.447 39.6653C125.58 39.7983 125.646 39.9303 125.646 40.0633C125.646 40.1374 125.631 40.2108 125.602 40.2789C125.573 40.3471 125.53 40.4087 125.477 40.4599C125.423 40.5111 125.36 40.551 125.29 40.577C125.221 40.603 125.147 40.6147 125.073 40.6113H121.664C121.415 40.6113 121.232 40.5693 121.116 40.4863C121 40.3863 120.892 40.2873 120.793 40.1873L116.86 35.4593V39.9893C116.862 40.0739 116.846 40.158 116.811 40.2354C116.777 40.3127 116.725 40.3814 116.661 40.4363C116.606 40.4929 116.54 40.5376 116.468 40.5677C116.395 40.5978 116.317 40.6126 116.238 40.6113L113.351 40.6103ZM127.388 40.6103C127.305 40.6134 127.223 40.5996 127.146 40.5697C127.069 40.5398 126.999 40.4944 126.94 40.4363C126.882 40.3774 126.837 40.3073 126.807 40.2302C126.777 40.1532 126.763 40.0709 126.766 39.9883V23.5623C126.766 23.3793 126.824 23.2303 126.94 23.1143C126.999 23.056 127.069 23.0105 127.146 22.9804C127.223 22.9503 127.305 22.9363 127.388 22.9393H130.325C130.507 22.9393 130.656 22.9973 130.773 23.1143C130.831 23.1732 130.876 23.2433 130.906 23.3203C130.936 23.3974 130.95 23.4797 130.947 23.5623V39.9883C130.95 40.0709 130.936 40.1532 130.906 40.2302C130.876 40.3073 130.831 40.3774 130.773 40.4363C130.714 40.4944 130.644 40.5399 130.567 40.57C130.49 40.6001 130.408 40.6141 130.325 40.6113L127.388 40.6103ZM135.804 45.3403C135.735 45.3425 135.666 45.3305 135.601 45.305C135.537 45.2795 135.478 45.2411 135.429 45.1921C135.38 45.143 135.342 45.0845 135.316 45.02C135.291 44.9556 135.279 44.8866 135.281 44.8173V44.6673C135.301 44.6074 135.326 44.5492 135.356 44.4933L137.297 39.8143L132.518 28.5143C132.474 28.4209 132.449 28.3196 132.444 28.2163C132.473 28.0752 132.542 27.9456 132.643 27.8433C132.688 27.7877 132.745 27.7431 132.809 27.7127C132.874 27.6824 132.945 27.6672 133.016 27.6683H135.853C136.069 27.6683 136.227 27.7263 136.326 27.8433C136.442 27.9433 136.517 28.0583 136.55 28.1913L139.412 35.4343L142.324 28.1913C142.391 28.0583 142.474 27.9423 142.573 27.8433C142.689 27.7263 142.855 27.6683 143.071 27.6683H145.859C146.008 27.6683 146.132 27.7263 146.232 27.8433C146.348 27.9433 146.406 28.0583 146.406 28.1913C146.4 28.3027 146.375 28.4122 146.332 28.5153L139.288 44.8173C139.236 44.9526 139.15 45.0724 139.039 45.1653C138.923 45.2813 138.757 45.3393 138.541 45.3393L135.804 45.3403ZM68.444 17.2113C67.49 17.2113 66.676 17.0453 66.002 16.7133C65.3558 16.3973 64.8155 15.9001 64.447 15.2823C64.084 14.6493 63.887 13.8973 63.856 13.0263C63.8343 12.0621 63.8343 11.0975 63.856 10.1333C63.886 9.2723 64.084 8.5363 64.446 7.9233C64.8219 7.30939 65.368 6.81783 66.018 6.5083C66.702 6.1763 67.511 6.0113 68.444 6.0113C69.201 6.0113 69.865 6.1143 70.436 6.3213C71.006 6.5193 71.478 6.7783 71.851 7.0993C72.235 7.4113 72.52 7.7483 72.707 8.1113C72.904 8.4743 73.007 8.8113 73.017 9.1213C73.0235 9.16361 73.02 9.20688 73.0066 9.24755C72.9932 9.28822 72.9704 9.32515 72.94 9.3553C72.907 9.38692 72.8679 9.41147 72.8251 9.42746C72.7823 9.44345 72.7366 9.45054 72.691 9.4483H71.09C70.986 9.4483 70.908 9.4283 70.857 9.3863C70.7974 9.33477 70.7496 9.27098 70.717 9.1993C70.6242 8.96629 70.4923 8.75085 70.327 8.5623C70.132 8.32984 69.8878 8.14368 69.612 8.0173C69.312 7.8723 68.922 7.7993 68.445 7.7993C67.74 7.7993 67.175 7.9863 66.75 8.3593C66.335 8.7333 66.112 9.3493 66.081 10.2113C66.0499 11.1234 66.0499 12.0362 66.081 12.9483C66.112 13.8303 66.341 14.4623 66.765 14.8463C67.201 15.2303 67.771 15.4223 68.477 15.4223C68.943 15.4223 69.358 15.3393 69.721 15.1723C70.094 15.0073 70.385 14.7483 70.592 14.3953C70.81 14.0423 70.919 13.5913 70.919 13.0423V12.5593H69.02C68.9709 12.5602 68.9222 12.5511 68.8768 12.5326C68.8314 12.514 68.7903 12.4863 68.756 12.4513C68.7196 12.4146 68.691 12.3708 68.6721 12.3226C68.6532 12.2745 68.6443 12.223 68.646 12.1713V11.3463C68.646 11.2323 68.683 11.1393 68.756 11.0663C68.7902 11.0311 68.8313 11.0032 68.8767 10.9845C68.9221 10.9657 68.9709 10.9565 69.02 10.9573H72.738C72.7874 10.9547 72.8368 10.9632 72.8825 10.9822C72.9282 11.0013 72.969 11.0303 73.002 11.0673C73.0385 11.104 73.067 11.1478 73.086 11.1959C73.1049 11.2441 73.1137 11.2956 73.112 11.3473V12.9793C73.112 13.8513 72.919 14.6023 72.536 15.2353C72.162 15.8683 71.623 16.3553 70.918 16.6973C70.223 17.0393 69.398 17.2113 68.444 17.2113ZM75.292 17.0553C75.2429 17.0561 75.1941 17.0468 75.1487 17.0281C75.1033 17.0094 75.0622 16.9815 75.028 16.9463C74.9926 16.9121 74.9646 16.8711 74.9456 16.8257C74.9267 16.7803 74.9173 16.7315 74.918 16.6823V9.3553C74.918 9.2413 74.955 9.1483 75.028 9.0753C75.0622 9.04008 75.1033 9.01224 75.1487 8.99349C75.1941 8.97475 75.2429 8.96549 75.292 8.9663H76.552C76.6011 8.96549 76.6499 8.97475 76.6953 8.99349C76.7407 9.01224 76.7817 9.04008 76.816 9.0753C76.8564 9.10966 76.8886 9.15265 76.9103 9.2011C76.9319 9.24956 76.9424 9.30225 76.941 9.3553V9.9933C77.179 9.6613 77.485 9.4073 77.859 9.2313C78.242 9.0543 78.683 8.9663 79.181 8.9663H79.819C79.8683 8.96353 79.9177 8.97189 79.9634 8.99075C80.0091 9.00962 80.05 9.03851 80.083 9.0753C80.1182 9.10954 80.146 9.15062 80.1648 9.19602C80.1835 9.24143 80.1928 9.29018 80.192 9.3393V10.4593C80.1929 10.5086 80.1837 10.5575 80.165 10.6031C80.1462 10.6487 80.1183 10.6899 80.083 10.7243C80.05 10.7611 80.0091 10.79 79.9634 10.8088C79.9177 10.8277 79.8683 10.8361 79.819 10.8333H78.605C78.107 10.8333 77.719 10.9733 77.439 11.2533C77.169 11.5333 77.034 11.9163 77.034 12.4033V16.6823C77.0348 16.7314 77.0255 16.7802 77.0068 16.8256C76.988 16.871 76.9602 16.9121 76.925 16.9463C76.8882 16.9825 76.8444 17.0109 76.7962 17.0296C76.7481 17.0484 76.6966 17.0571 76.645 17.0553H75.292ZM83.632 17.2113C83.093 17.2113 82.606 17.1073 82.17 16.8993C81.7591 16.702 81.4017 16.4087 81.128 16.0443C80.8814 15.6882 80.751 15.2644 80.755 14.8313C80.755 14.1053 81.045 13.5293 81.625 13.1043C82.217 12.6683 82.995 12.3783 83.959 12.2333L86.09 11.9223V11.5953C86.09 11.1593 85.981 10.8223 85.764 10.5843C85.546 10.3453 85.173 10.2263 84.644 10.2263C84.27 10.2263 83.964 10.3043 83.726 10.4593C83.498 10.6053 83.326 10.8023 83.213 11.0513C83.1775 11.1145 83.1254 11.1668 83.0622 11.2024C82.9991 11.238 82.9274 11.2556 82.855 11.2533H81.625C81.512 11.2533 81.424 11.2223 81.361 11.1593C81.3067 11.0884 81.2794 11.0005 81.284 10.9113C81.294 10.7453 81.361 10.5423 81.486 10.3043C81.61 10.0653 81.807 9.8373 82.076 9.6193C82.346 9.3913 82.694 9.1993 83.119 9.0443C83.544 8.8883 84.058 8.8113 84.659 8.8113C85.312 8.8113 85.862 8.8943 86.309 9.0593C86.764 9.2153 87.127 9.4283 87.397 9.6973C87.667 9.9673 87.864 10.2833 87.988 10.6473C88.112 11.0093 88.175 11.3933 88.175 11.7973V16.6823C88.1757 16.7315 88.1662 16.7803 88.1473 16.8257C88.1284 16.8711 88.1004 16.9121 88.065 16.9463C88.0307 16.9815 87.9897 17.0094 87.9443 17.0281C87.8989 17.0468 87.8501 17.0561 87.801 17.0553H86.541C86.4893 17.0572 86.4379 17.0485 86.3897 17.0297C86.3416 17.011 86.2978 16.9826 86.261 16.9463C86.1986 16.8727 86.1654 16.7787 86.168 16.6823V16.0753C86.017 16.2892 85.8334 16.4781 85.624 16.6353C85.3663 16.8161 85.0832 16.9577 84.784 17.0553C84.4104 17.1665 84.0217 17.2192 83.632 17.2113ZM84.162 15.7333C84.524 15.7333 84.851 15.6553 85.142 15.4993C85.442 15.3443 85.676 15.1053 85.842 14.7843C86.018 14.4523 86.106 14.0373 86.106 13.5393V13.2133L84.55 13.4623C83.938 13.5553 83.482 13.7053 83.181 13.9123C82.881 14.1203 82.731 14.3743 82.731 14.6753C82.731 14.9033 82.798 15.1003 82.933 15.2663C83.078 15.4223 83.259 15.5413 83.477 15.6243C83.695 15.6963 83.924 15.7333 84.162 15.7333ZM90.559 20.0113C90.5098 20.012 90.461 20.0026 90.4156 19.9836C90.3702 19.9647 90.3291 19.9367 90.295 19.9013C90.2596 19.8671 90.2316 19.8261 90.2126 19.7807C90.1937 19.7353 90.1843 19.6865 90.185 19.6373V9.3393C90.1843 9.29011 90.1937 9.24131 90.2126 9.1959C90.2316 9.1505 90.2596 9.10945 90.295 9.0753C90.3292 9.04008 90.3703 9.01224 90.4157 8.99349C90.4611 8.97475 90.5099 8.96549 90.559 8.9663H91.789C91.8383 8.96353 91.8877 8.97189 91.9334 8.99075C91.9791 9.00962 92.02 9.03851 92.053 9.0753C92.088 9.10962 92.1157 9.15075 92.1342 9.19614C92.1528 9.24154 92.1619 9.29026 92.161 9.3393V9.9623C92.4233 9.61883 92.7578 9.33719 93.141 9.1373C93.546 8.9193 94.049 8.8113 94.651 8.8113C95.2 8.8113 95.677 8.8993 96.081 9.0753C96.486 9.2513 96.823 9.5053 97.093 9.8373C97.363 10.1593 97.57 10.5423 97.715 10.9883C97.86 11.4343 97.943 11.9273 97.964 12.4663C97.9858 12.8343 97.9858 13.2033 97.964 13.5713C97.954 14.0893 97.876 14.5713 97.73 15.0173C97.585 15.4533 97.373 15.8373 97.093 16.1683C96.823 16.4903 96.486 16.7443 96.081 16.9313C95.677 17.1173 95.2 17.2113 94.651 17.2113C94.091 17.2113 93.613 17.1123 93.219 16.9153C92.8411 16.7213 92.5116 16.4448 92.255 16.1063V19.6373C92.2558 19.6866 92.2464 19.7356 92.2275 19.7812C92.2086 19.8268 92.1805 19.868 92.145 19.9023C92.112 19.9391 92.0711 19.968 92.0254 19.9868C91.9797 20.0057 91.9303 20.0141 91.881 20.0113H90.559ZM94.075 15.5463C94.521 15.5463 94.868 15.4533 95.117 15.2663C95.3651 15.0705 95.5493 14.8052 95.646 14.5043C95.76 14.1933 95.827 13.8513 95.848 13.4773C95.868 13.1673 95.868 12.8553 95.848 12.5443C95.832 12.1938 95.7639 11.8477 95.646 11.5173C95.5516 11.2196 95.3667 10.9588 95.117 10.7713C94.868 10.5743 94.521 10.4753 94.075 10.4753C93.65 10.4753 93.302 10.5733 93.033 10.7713C92.773 10.9683 92.581 11.2213 92.457 11.5333C92.343 11.8333 92.276 12.1453 92.255 12.4663C92.2342 12.8654 92.2342 13.2652 92.255 13.6643C92.265 13.9753 92.338 14.2763 92.473 14.5663C92.607 14.8463 92.804 15.0793 93.063 15.2663C93.323 15.4533 93.66 15.5463 94.075 15.5463ZM100.114 17.0553C100.065 17.0561 100.016 17.0468 99.9707 17.0281C99.9253 17.0094 99.8842 16.9815 99.85 16.9463C99.8148 16.9121 99.7869 16.871 99.7682 16.8256C99.7494 16.7802 99.7402 16.7314 99.741 16.6823V6.3843C99.74 6.33502 99.7492 6.28607 99.768 6.24048C99.7867 6.1949 99.8146 6.15365 99.85 6.1193C99.8843 6.08426 99.9254 6.05661 99.9708 6.03803C100.016 6.01946 100.065 6.01036 100.114 6.0113H101.499C101.613 6.0113 101.701 6.0473 101.763 6.1193C101.836 6.1923 101.872 6.2803 101.872 6.3843V9.9313C102.152 9.5993 102.494 9.3293 102.899 9.1213C103.303 8.9143 103.801 8.8113 104.392 8.8113C105.025 8.8113 105.574 8.9563 106.041 9.2463C106.518 9.5263 106.886 9.9263 107.145 10.4443C107.405 10.9623 107.534 11.5843 107.534 12.3113V16.6813C107.535 16.7306 107.526 16.7796 107.507 16.8252C107.488 16.8708 107.46 16.912 107.425 16.9463C107.391 16.9816 107.35 17.0095 107.304 17.0283C107.259 17.047 107.21 17.0562 107.161 17.0553H105.761C105.712 17.0562 105.663 17.047 105.618 17.0283C105.572 17.0095 105.531 16.9816 105.497 16.9463C105.462 16.9121 105.434 16.8711 105.415 16.8256C105.396 16.7802 105.387 16.7314 105.388 16.6823V12.4043C105.388 11.8023 105.237 11.3313 104.937 10.9883C104.646 10.6463 104.221 10.4753 103.661 10.4753C103.122 10.4753 102.686 10.6463 102.354 10.9883C102.033 11.3313 101.872 11.8023 101.872 12.4043V16.6823C101.873 16.7314 101.864 16.7802 101.845 16.8256C101.826 16.8711 101.798 16.9121 101.763 16.9463C101.73 16.9832 101.689 17.0122 101.643 17.031C101.598 17.0499 101.548 17.0582 101.499 17.0553H100.114ZM116.68 18.0663C116.614 18.0687 116.548 18.0575 116.486 18.0334C116.425 18.0094 116.369 17.9729 116.322 17.9263C116.251 17.8569 116.184 17.7841 116.12 17.7083L115.544 16.9313C115.057 17.1173 114.502 17.2113 113.88 17.2113C112.957 17.2113 112.158 17.0613 111.484 16.7593C110.832 16.459 110.289 15.9648 109.928 15.3443C109.565 14.7013 109.363 13.9023 109.322 12.9483C109.3 12.0618 109.3 11.1748 109.322 10.2883C109.363 9.3453 109.571 8.5563 109.944 7.9243C110.319 7.30005 110.871 6.80181 111.531 6.4933C112.205 6.1713 112.988 6.0113 113.88 6.0113C114.771 6.0113 115.554 6.1713 116.228 6.4933C116.888 6.80123 117.44 7.29919 117.815 7.9233C118.199 8.5563 118.401 9.3453 118.422 10.2883C118.463 11.1745 118.463 12.0621 118.422 12.9483C118.37 14.3073 117.997 15.3383 117.302 16.0443L118.391 17.5843C118.401 17.5943 118.411 17.6103 118.422 17.6313C118.432 17.6613 118.437 17.6983 118.437 17.7393C118.443 17.783 118.438 17.8277 118.422 17.8687C118.405 17.9098 118.379 17.9459 118.344 17.9733C118.316 18.0028 118.282 18.0263 118.245 18.0423C118.207 18.0583 118.167 18.0665 118.126 18.0663H116.68ZM113.88 15.4223C114.543 15.4223 115.088 15.2253 115.513 14.8313C115.938 14.4263 116.166 13.7733 116.197 12.8713C116.218 12.4143 116.228 11.9943 116.228 11.6113C116.228 11.2173 116.218 10.7973 116.197 10.3513C116.187 9.74929 116.078 9.2613 115.871 8.8883C115.663 8.5053 115.388 8.2303 115.046 8.0643C114.714 7.8883 114.325 7.7993 113.88 7.7993C113.475 7.79225 113.075 7.88316 112.713 8.0643C112.371 8.2303 112.096 8.5043 111.888 8.8883C111.691 9.2623 111.577 9.74929 111.546 10.3513C111.527 11.1912 111.527 12.0314 111.546 12.8713C111.588 13.7733 111.821 14.4263 112.246 14.8313C112.671 15.2253 113.216 15.4223 113.88 15.4223ZM120.884 17.0553C120.835 17.0561 120.786 17.0468 120.741 17.0281C120.695 17.0094 120.654 16.9815 120.62 16.9463C120.585 16.9121 120.557 16.8711 120.538 16.8256C120.519 16.7802 120.51 16.7314 120.511 16.6823V6.5393C120.511 6.4363 120.547 6.3483 120.62 6.2753C120.654 6.24008 120.695 6.21224 120.741 6.19349C120.786 6.17475 120.835 6.16549 120.884 6.1663H122.331C122.435 6.1663 122.523 6.2023 122.596 6.2753C122.668 6.3483 122.704 6.4353 122.704 6.5393V15.2043H127.636C127.688 15.2025 127.739 15.2112 127.787 15.2299C127.835 15.2487 127.879 15.277 127.916 15.3133C127.952 15.3502 127.98 15.394 127.999 15.4422C128.017 15.4903 128.026 15.5417 128.024 15.5933V16.6823C128.025 16.7313 128.016 16.78 127.997 16.8254C127.979 16.8708 127.951 16.9119 127.916 16.9463C127.879 16.9825 127.835 17.0109 127.787 17.0296C127.739 17.0484 127.688 17.0571 127.636 17.0553H120.884Z" fill="white"/>
    <path fill-rule="evenodd" clip-rule="evenodd" d="M28 44.0552C39.0457 44.0552 48 35.1009 48 24.0552C48 13.0095 39.0457 4.05518 28 4.05518C16.9543 4.05518 8 13.0095 8 24.0552C8 35.1009 16.9543 44.0552 28 44.0552ZM19.728 18.4924C19.3969 18.2961 19.0164 18.19 18.625 18.19C18.0513 18.19 17.5012 18.4179 17.0955 18.8236C16.6899 19.2292 16.462 19.7794 16.462 20.353C16.462 20.9267 16.6899 21.4769 17.0955 21.8825C17.3258 22.1128 17.6027 22.2858 17.904 22.3923V29.8527C17.6027 29.9593 17.3258 30.1323 17.0955 30.3626C16.6899 30.7682 16.462 31.3184 16.462 31.892C16.462 32.4657 16.6899 33.0159 17.0955 33.4215C17.5012 33.8271 18.0513 34.055 18.625 34.055C19.1987 34.055 19.7488 33.8271 20.1545 33.4215C20.3849 33.191 20.558 32.9139 20.6646 32.6123H35.3355C35.442 32.9139 35.6151 33.191 35.8455 33.4215C36.2512 33.8271 36.8013 34.055 37.375 34.055C37.9487 34.055 38.4988 33.8271 38.9045 33.4215C39.3101 33.0159 39.538 32.4657 39.538 31.892C39.538 31.3184 39.3101 30.7682 38.9045 30.3626C38.6742 30.1323 38.3973 29.9593 38.096 29.8527V22.3923C38.3973 22.2858 38.6742 22.1128 38.9045 21.8825C39.3101 21.4769 39.538 20.9267 39.538 20.353C39.538 19.7794 39.3101 19.2292 38.9045 18.8236C38.4988 18.4179 37.9487 18.19 37.375 18.19C36.9927 18.19 36.6208 18.2912 36.2952 18.4788L30.1615 13.2218C30.1625 13.1949 30.163 13.168 30.163 13.141C30.163 12.5674 29.9351 12.0172 29.5295 11.6116C29.1238 11.2059 28.5737 10.978 28 10.978C27.4263 10.978 26.8762 11.2059 26.4705 11.6116C26.0649 12.0172 25.837 12.5674 25.837 13.141C25.837 13.2201 25.8413 13.2987 25.8499 13.3765L19.728 18.4924ZM20.6644 19.6323C20.6605 19.6212 20.6565 19.6102 20.6524 19.5992L26.5076 14.7067C26.9093 15.0897 27.4436 15.304 28 15.304C28.5737 15.304 29.1238 15.0761 29.5295 14.6705C29.5459 14.6541 29.562 14.6375 29.5778 14.6206L35.3572 19.5738C35.3497 19.5932 35.3425 19.6127 35.3356 19.6323H20.6644ZM19.346 22.3923C19.51 22.3343 19.6668 22.2567 19.8127 22.1608L25.8528 26.749C25.8423 26.8352 25.837 26.9223 25.837 27.01C25.837 27.5837 26.0649 28.1339 26.4705 28.5395C26.8762 28.9451 27.4263 29.173 28 29.173C28.5737 29.173 29.1238 28.9451 29.5295 28.5395C29.9351 28.1339 30.163 27.5837 30.163 27.01C30.163 26.9694 30.1619 26.929 30.1596 26.8887L36.2097 22.1753C36.3492 22.2645 36.4984 22.3373 36.654 22.3923V29.8527C36.3527 29.9593 36.0758 30.1323 35.8455 30.3626C35.6154 30.5927 35.4425 30.8693 35.336 31.1703H20.6641C20.5575 30.8693 20.3846 30.5927 20.1545 30.3626C19.9242 30.1323 19.6473 29.9593 19.346 29.8527V22.3923ZM29.5684 25.5205L35.2747 21.0753H20.7685L26.5132 25.4391C26.9143 25.0594 27.4462 24.847 28 24.847C28.5737 24.847 29.1238 25.0749 29.5295 25.4806C29.5427 25.4937 29.5556 25.5071 29.5684 25.5205Z" fill="white"/>
</svg>
