<svg width="147" height="56" viewBox="0 0 147 56" fill="none" xmlns="http://www.w3.org/2000/svg">
<path d="M67.5298 40.5556C67.2477 40.5556 67.0237 40.4726 66.8578 40.3067C66.6919 40.1407 66.5923 39.9499 66.5591 39.7342L63.8462 23.8302C63.8296 23.797 63.8213 23.7639 63.8213 23.7307C63.8213 23.6975 63.8213 23.6726 63.8213 23.656C63.8213 23.5233 63.8711 23.4071 63.9707 23.3076C64.0868 23.1914 64.2113 23.1333 64.344 23.1333H67.4302C67.8948 23.1333 68.152 23.3159 68.2018 23.6809L69.8196 33.4124L71.6116 27.6631C71.6613 27.5304 71.7443 27.3893 71.8604 27.24C71.9766 27.0741 72.1674 26.9911 72.4329 26.9911H74.2249C74.507 26.9911 74.7061 27.0741 74.8222 27.24C74.9384 27.3893 75.013 27.5304 75.0462 27.6631L76.8382 33.3876L78.456 23.6809C78.5058 23.3159 78.763 23.1333 79.2276 23.1333H82.3138C82.4631 23.1333 82.5876 23.1914 82.6871 23.3076C82.7867 23.4071 82.8364 23.5233 82.8364 23.656C82.8364 23.6726 82.8364 23.6975 82.8364 23.7307C82.8364 23.7639 82.8364 23.797 82.8364 23.8302L80.1236 39.7342C80.0904 39.9499 79.9908 40.1407 79.8249 40.3067C79.659 40.4726 79.435 40.5556 79.1529 40.5556H76.7884C76.5064 40.5556 76.2907 40.4809 76.1413 40.3316C75.992 40.1822 75.8924 40.0412 75.8427 39.9084L73.3289 32.7902L70.8151 39.9084C70.7653 40.0412 70.6658 40.1822 70.5164 40.3316C70.3837 40.4809 70.1763 40.5556 69.8942 40.5556H67.5298ZM90.1419 40.8044C88.184 40.8044 86.6243 40.2735 85.4628 39.2116C84.3013 38.1496 83.6957 36.5733 83.6459 34.4827C83.6459 34.3665 83.6459 34.2172 83.6459 34.0347C83.6459 33.8521 83.6459 33.7111 83.6459 33.6116C83.6957 32.3007 83.9861 31.1807 84.517 30.2516C85.0646 29.3058 85.8113 28.5923 86.757 28.1111C87.7194 27.6133 88.8394 27.3644 90.117 27.3644C91.5772 27.3644 92.7801 27.6548 93.7259 28.2356C94.6883 28.8163 95.4101 29.6044 95.8913 30.6C96.3724 31.5956 96.613 32.7321 96.613 34.0098V34.6071C96.613 34.7896 96.5467 34.939 96.4139 35.0551C96.2978 35.1713 96.1567 35.2293 95.9908 35.2293H88.0264C88.0264 35.2459 88.0264 35.2708 88.0264 35.304C88.0264 35.3372 88.0264 35.3704 88.0264 35.4036C88.043 35.8847 88.1259 36.3244 88.2753 36.7227C88.4246 37.1209 88.6569 37.4361 88.9721 37.6684C89.2874 37.9007 89.669 38.0169 90.117 38.0169C90.4489 38.0169 90.7227 37.9671 90.9384 37.8676C91.1707 37.7514 91.3615 37.627 91.5108 37.4942C91.6601 37.3449 91.7763 37.2204 91.8593 37.1209C92.0086 36.955 92.1247 36.8554 92.2077 36.8222C92.3073 36.7724 92.4566 36.7476 92.6557 36.7476H95.7419C95.9078 36.7476 96.0406 36.7973 96.1401 36.8969C96.2563 36.9799 96.3061 37.1043 96.2895 37.2702C96.2729 37.5523 96.1318 37.8924 95.8664 38.2907C95.6009 38.6889 95.211 39.0871 94.6966 39.4853C94.1988 39.867 93.5683 40.1822 92.805 40.4311C92.0418 40.68 91.1541 40.8044 90.1419 40.8044ZM88.0264 32.7653H92.2326V32.7156C92.2326 32.1846 92.1496 31.72 91.9837 31.3218C91.8344 30.9236 91.5938 30.6166 91.2619 30.4009C90.9467 30.1852 90.565 30.0773 90.117 30.0773C89.669 30.0773 89.2874 30.1852 88.9721 30.4009C88.6735 30.6166 88.4412 30.9236 88.2753 31.3218C88.1093 31.72 88.0264 32.1846 88.0264 32.7156V32.7653ZM104.422 40.8044C102.464 40.8044 100.904 40.2735 99.7428 39.2116C98.5813 38.1496 97.9757 36.5733 97.9259 34.4827C97.9259 34.3665 97.9259 34.2172 97.9259 34.0347C97.9259 33.8521 97.9259 33.7111 97.9259 33.6116C97.9757 32.3007 98.2661 31.1807 98.797 30.2516C99.3446 29.3058 100.091 28.5923 101.037 28.1111C101.999 27.6133 103.119 27.3644 104.397 27.3644C105.857 27.3644 107.06 27.6548 108.006 28.2356C108.968 28.8163 109.69 29.6044 110.171 30.6C110.652 31.5956 110.893 32.7321 110.893 34.0098V34.6071C110.893 34.7896 110.827 34.939 110.694 35.0551C110.578 35.1713 110.437 35.2293 110.271 35.2293H102.306C102.306 35.2459 102.306 35.2708 102.306 35.304C102.306 35.3372 102.306 35.3704 102.306 35.4036C102.323 35.8847 102.406 36.3244 102.555 36.7227C102.705 37.1209 102.937 37.4361 103.252 37.6684C103.567 37.9007 103.949 38.0169 104.397 38.0169C104.729 38.0169 105.003 37.9671 105.218 37.8676C105.451 37.7514 105.641 37.627 105.791 37.4942C105.94 37.3449 106.056 37.2204 106.139 37.1209C106.289 36.955 106.405 36.8554 106.488 36.8222C106.587 36.7724 106.737 36.7476 106.936 36.7476H110.022C110.188 36.7476 110.321 36.7973 110.42 36.8969C110.536 36.9799 110.586 37.1043 110.569 37.2702C110.553 37.5523 110.412 37.8924 110.146 38.2907C109.881 38.6889 109.491 39.0871 108.977 39.4853C108.479 39.867 107.848 40.1822 107.085 40.4311C106.322 40.68 105.434 40.8044 104.422 40.8044ZM102.306 32.7653H106.513V32.7156C106.513 32.1846 106.43 31.72 106.264 31.3218C106.114 30.9236 105.874 30.6166 105.542 30.4009C105.227 30.1852 104.845 30.0773 104.397 30.0773C103.949 30.0773 103.567 30.1852 103.252 30.4009C102.953 30.6166 102.721 30.9236 102.555 31.3218C102.389 31.72 102.306 32.1846 102.306 32.7156V32.7653ZM113.351 40.5556C113.168 40.5556 113.019 40.4975 112.903 40.3813C112.787 40.2652 112.729 40.1159 112.729 39.9333V23.5067C112.729 23.3241 112.787 23.1748 112.903 23.0587C113.019 22.9425 113.168 22.8844 113.351 22.8844H116.238C116.404 22.8844 116.545 22.9425 116.661 23.0587C116.794 23.1748 116.86 23.3241 116.86 23.5067V31.8444L120.32 28.0364C120.419 27.9203 120.527 27.8207 120.643 27.7378C120.759 27.6548 120.925 27.6133 121.141 27.6133H124.476C124.625 27.6133 124.75 27.6714 124.849 27.7876C124.966 27.8871 125.024 28.0116 125.024 28.1609C125.024 28.2273 125.007 28.3019 124.974 28.3849C124.941 28.4679 124.891 28.5342 124.825 28.584L120.345 33.4124L125.447 39.6098C125.58 39.7425 125.646 39.8753 125.646 40.008C125.646 40.1573 125.588 40.2901 125.472 40.4062C125.372 40.5058 125.239 40.5556 125.073 40.5556H121.664C121.415 40.5556 121.232 40.5141 121.116 40.4311C121 40.3316 120.892 40.232 120.793 40.1324L116.86 35.4036V39.9333C116.86 40.1159 116.794 40.2652 116.661 40.3813C116.545 40.4975 116.404 40.5556 116.238 40.5556H113.351ZM127.388 40.5556C127.205 40.5556 127.056 40.4975 126.94 40.3813C126.824 40.2652 126.766 40.1159 126.766 39.9333V23.5067C126.766 23.3241 126.824 23.1748 126.94 23.0587C127.056 22.9425 127.205 22.8844 127.388 22.8844H130.325C130.507 22.8844 130.656 22.9425 130.773 23.0587C130.889 23.1748 130.947 23.3241 130.947 23.5067V39.9333C130.947 40.1159 130.889 40.2652 130.773 40.3813C130.656 40.4975 130.507 40.5556 130.325 40.5556H127.388ZM135.804 45.2844C135.654 45.2844 135.53 45.2347 135.43 45.1351C135.331 45.0356 135.281 44.9111 135.281 44.7618C135.281 44.7286 135.281 44.6788 135.281 44.6124C135.297 44.5627 135.322 44.5046 135.356 44.4382L137.297 39.7591L132.518 28.4596C132.468 28.3434 132.444 28.2439 132.444 28.1609C132.477 28.0116 132.543 27.8871 132.643 27.7876C132.742 27.6714 132.867 27.6133 133.016 27.6133H135.853C136.069 27.6133 136.227 27.6714 136.326 27.7876C136.442 27.8871 136.517 28.0033 136.55 28.136L139.412 35.3787L142.324 28.136C142.391 28.0033 142.474 27.8871 142.573 27.7876C142.689 27.6714 142.855 27.6133 143.071 27.6133H145.859C146.008 27.6133 146.132 27.6714 146.232 27.7876C146.348 27.8871 146.406 28.0033 146.406 28.136C146.406 28.219 146.381 28.3268 146.332 28.4596L139.288 44.7618C139.238 44.8945 139.155 45.0107 139.039 45.1102C138.923 45.2264 138.757 45.2844 138.541 45.2844H135.804Z" fill="#F531B1"/>
<path d="M68.4444 17.1556C67.4904 17.1556 66.6763 16.9896 66.0022 16.6578C65.3385 16.3259 64.82 15.8489 64.4467 15.2267C64.0837 14.5941 63.8867 13.8422 63.8556 12.9711C63.8452 12.5252 63.84 12.0481 63.84 11.54C63.84 11.0215 63.8452 10.5341 63.8556 10.0778C63.8867 9.21704 64.0837 8.48074 64.4467 7.86889C64.82 7.25704 65.3437 6.78518 66.0178 6.45333C66.7022 6.12148 67.5111 5.95556 68.4444 5.95556C69.2015 5.95556 69.8652 6.05926 70.4356 6.26667C71.0059 6.4637 71.4778 6.72296 71.8511 7.04444C72.2348 7.35556 72.52 7.69259 72.7067 8.05555C72.9037 8.41852 73.0074 8.75556 73.0178 9.06667C73.0281 9.16 73.0022 9.23778 72.94 9.3C72.8778 9.36222 72.7948 9.39333 72.6911 9.39333H71.0889C70.9852 9.39333 70.9074 9.37259 70.8556 9.33111C70.8037 9.28963 70.757 9.22741 70.7156 9.14444C70.6326 8.92667 70.503 8.71407 70.3267 8.50667C70.1504 8.28889 69.9119 8.10741 69.6111 7.96222C69.3104 7.81704 68.9215 7.74444 68.4444 7.74444C67.7393 7.74444 67.1741 7.93111 66.7489 8.30444C66.3341 8.67778 66.1111 9.29481 66.08 10.1556C66.0489 11.0578 66.0489 11.9704 66.08 12.8933C66.1111 13.7748 66.3393 14.4074 66.7644 14.7911C67.2 15.1748 67.7704 15.3667 68.4756 15.3667C68.9422 15.3667 69.357 15.2837 69.72 15.1178C70.0933 14.9519 70.3837 14.6926 70.5911 14.34C70.8089 13.9874 70.9178 13.5363 70.9178 12.9867V12.5044H69.02C68.9163 12.5044 68.8281 12.4681 68.7556 12.3956C68.683 12.323 68.6467 12.2296 68.6467 12.1156V11.2911C68.6467 11.177 68.683 11.0837 68.7556 11.0111C68.8281 10.9385 68.9163 10.9022 69.02 10.9022H72.7378C72.8519 10.9022 72.94 10.9385 73.0022 11.0111C73.0748 11.0837 73.1111 11.177 73.1111 11.2911V12.9244C73.1111 13.7956 72.9193 14.5474 72.5356 15.18C72.1622 15.8126 71.623 16.3 70.9178 16.6422C70.223 16.9844 69.3985 17.1556 68.4444 17.1556ZM75.2919 17C75.1882 17 75.1001 16.9637 75.0275 16.8911C74.9549 16.8185 74.9186 16.7304 74.9186 16.6267V9.3C74.9186 9.18593 74.9549 9.09259 75.0275 9.02C75.1001 8.94741 75.1882 8.91111 75.2919 8.91111H76.5519C76.6556 8.91111 76.7438 8.94741 76.8164 9.02C76.8993 9.09259 76.9408 9.18593 76.9408 9.3V9.93778C77.1793 9.60593 77.4853 9.35185 77.8586 9.17556C78.2423 8.99926 78.683 8.91111 79.1808 8.91111H79.8186C79.9327 8.91111 80.0208 8.94741 80.083 9.02C80.1556 9.09259 80.1919 9.18074 80.1919 9.28444V10.4044C80.1919 10.5081 80.1556 10.5963 80.083 10.6689C80.0208 10.7415 79.9327 10.7778 79.8186 10.7778H78.6053C78.1075 10.7778 77.7186 10.9178 77.4386 11.1978C77.169 11.4778 77.0341 11.8615 77.0341 12.3489V16.6267C77.0341 16.7304 76.9979 16.8185 76.9253 16.8911C76.8527 16.9637 76.7593 17 76.6453 17H75.2919ZM83.6325 17.1556C83.0932 17.1556 82.6058 17.0519 82.1703 16.8444C81.7347 16.6267 81.3873 16.3415 81.1281 15.9889C80.8792 15.6259 80.7547 15.2215 80.7547 14.7756C80.7547 14.0496 81.0451 13.4741 81.6258 13.0489C82.2169 12.6133 82.9947 12.323 83.9592 12.1778L86.0903 11.8667V11.54C86.0903 11.1044 85.9814 10.7674 85.7636 10.5289C85.5458 10.2904 85.1725 10.1711 84.6436 10.1711C84.2703 10.1711 83.9644 10.2489 83.7258 10.4044C83.4977 10.5496 83.3266 10.7467 83.2125 10.9956C83.1295 11.1304 83.0103 11.1978 82.8547 11.1978H81.6258C81.5118 11.1978 81.4236 11.1667 81.3614 11.1044C81.3095 11.0422 81.2836 10.9593 81.2836 10.8556C81.294 10.6896 81.3614 10.4874 81.4858 10.2489C81.6103 10.0104 81.8073 9.78222 82.0769 9.56444C82.3466 9.3363 82.694 9.14444 83.1192 8.98889C83.5444 8.83333 84.0577 8.75556 84.6592 8.75556C85.3125 8.75556 85.8621 8.83852 86.3081 9.00444C86.7644 9.16 87.1273 9.37259 87.3969 9.64222C87.6666 9.91185 87.8636 10.2281 87.9881 10.5911C88.1125 10.9541 88.1747 11.3378 88.1747 11.7422V16.6267C88.1747 16.7304 88.1384 16.8185 88.0658 16.8911C87.9932 16.9637 87.9051 17 87.8014 17H86.5414C86.4273 17 86.334 16.9637 86.2614 16.8911C86.1992 16.8185 86.1681 16.7304 86.1681 16.6267V16.02C86.0332 16.217 85.8518 16.4037 85.6236 16.58C85.3955 16.7459 85.1155 16.8859 84.7836 17C84.4621 17.1037 84.0784 17.1556 83.6325 17.1556ZM84.1614 15.6778C84.5244 15.6778 84.851 15.6 85.1414 15.4444C85.4421 15.2889 85.6755 15.0504 85.8414 14.7289C86.0177 14.397 86.1058 13.9822 86.1058 13.4844V13.1578L84.5503 13.4067C83.9384 13.5 83.4821 13.6504 83.1814 13.8578C82.8806 14.0652 82.7303 14.3193 82.7303 14.62C82.7303 14.8481 82.7977 15.0452 82.9325 15.2111C83.0777 15.3667 83.2592 15.4859 83.4769 15.5689C83.6947 15.6415 83.9229 15.6778 84.1614 15.6778ZM90.5592 19.9556C90.4555 19.9556 90.3674 19.9193 90.2948 19.8467C90.2222 19.7741 90.1859 19.6859 90.1859 19.5822V9.28444C90.1859 9.18074 90.2222 9.09259 90.2948 9.02C90.3674 8.94741 90.4555 8.91111 90.5592 8.91111H91.7881C91.9022 8.91111 91.9903 8.94741 92.0526 9.02C92.1251 9.09259 92.1614 9.18074 92.1614 9.28444V9.90667C92.4103 9.57481 92.737 9.3 93.1414 9.08222C93.5459 8.86444 94.0488 8.75556 94.6503 8.75556C95.2 8.75556 95.677 8.8437 96.0814 9.02C96.4859 9.1963 96.8229 9.45037 97.0926 9.78222C97.3622 10.1037 97.5696 10.4874 97.7148 10.9333C97.86 11.3793 97.9429 11.8719 97.9637 12.4111C97.974 12.5874 97.9792 12.7689 97.9792 12.9556C97.9792 13.1422 97.974 13.3289 97.9637 13.5156C97.9533 14.0341 97.8755 14.5163 97.7303 14.9622C97.5851 15.3978 97.3726 15.7815 97.0926 16.1133C96.8229 16.4348 96.4859 16.6889 96.0814 16.8756C95.677 17.0622 95.2 17.1556 94.6503 17.1556C94.0903 17.1556 93.6133 17.057 93.2192 16.86C92.8251 16.6526 92.5037 16.383 92.2548 16.0511V19.5822C92.2548 19.6859 92.2185 19.7741 92.1459 19.8467C92.0837 19.9193 91.9955 19.9556 91.8814 19.9556H90.5592ZM94.0748 15.4911C94.5207 15.4911 94.8681 15.3978 95.117 15.2111C95.3659 15.0141 95.5422 14.76 95.6459 14.4489C95.76 14.1378 95.8274 13.7956 95.8481 13.4222C95.8688 13.1111 95.8688 12.8 95.8481 12.4889C95.8274 12.1156 95.76 11.7733 95.6459 11.4622C95.5422 11.1511 95.3659 10.9022 95.117 10.7156C94.8681 10.5185 94.5207 10.42 94.0748 10.42C93.6496 10.42 93.3022 10.5185 93.0326 10.7156C92.7733 10.9126 92.5814 11.1667 92.457 11.4778C92.3429 11.7785 92.2755 12.0896 92.2548 12.4111C92.2444 12.5978 92.2392 12.7948 92.2392 13.0022C92.2392 13.2096 92.2444 13.4119 92.2548 13.6089C92.2651 13.92 92.3377 14.2207 92.4726 14.5111C92.6074 14.7911 92.8044 15.0244 93.0637 15.2111C93.3229 15.3978 93.66 15.4911 94.0748 15.4911ZM100.114 17C100.011 17 99.9225 16.9637 99.8499 16.8911C99.7773 16.8185 99.741 16.7304 99.741 16.6267V6.32889C99.741 6.22518 99.7773 6.13704 99.8499 6.06444C99.9225 5.99185 100.011 5.95556 100.114 5.95556H101.499C101.613 5.95556 101.701 5.99185 101.763 6.06444C101.836 6.13704 101.872 6.22518 101.872 6.32889V9.87556C102.152 9.5437 102.494 9.27407 102.899 9.06667C103.303 8.85926 103.801 8.75556 104.392 8.75556C105.025 8.75556 105.574 8.90074 106.041 9.19111C106.518 9.47111 106.886 9.87037 107.145 10.3889C107.405 10.9074 107.534 11.5296 107.534 12.2556V16.6267C107.534 16.7304 107.498 16.8185 107.425 16.8911C107.353 16.9637 107.265 17 107.161 17H105.761C105.657 17 105.569 16.9637 105.497 16.8911C105.424 16.8185 105.388 16.7304 105.388 16.6267V12.3489C105.388 11.7474 105.237 11.2756 104.937 10.9333C104.646 10.5911 104.221 10.42 103.661 10.42C103.122 10.42 102.686 10.5911 102.354 10.9333C102.033 11.2756 101.872 11.7474 101.872 12.3489V16.6267C101.872 16.7304 101.836 16.8185 101.763 16.8911C101.701 16.9637 101.613 17 101.499 17H100.114ZM116.68 18.0111C116.534 18.0111 116.415 17.9644 116.322 17.8711C116.239 17.7881 116.171 17.7156 116.12 17.6533L115.544 16.8756C115.057 17.0622 114.502 17.1556 113.88 17.1556C112.957 17.1556 112.158 17.0052 111.484 16.7044C110.82 16.3933 110.302 15.9215 109.928 15.2889C109.565 14.6459 109.363 13.8474 109.322 12.8933C109.311 12.4474 109.306 12.0067 109.306 11.5711C109.306 11.1356 109.311 10.6896 109.322 10.2333C109.363 9.28963 109.571 8.50148 109.944 7.86889C110.328 7.2363 110.857 6.75926 111.531 6.43778C112.205 6.1163 112.988 5.95556 113.88 5.95556C114.771 5.95556 115.554 6.1163 116.228 6.43778C116.903 6.75926 117.431 7.2363 117.815 7.86889C118.199 8.50148 118.401 9.28963 118.422 10.2333C118.443 10.6896 118.453 11.1356 118.453 11.5711C118.453 12.0067 118.443 12.4474 118.422 12.8933C118.37 14.2519 117.997 15.2837 117.302 15.9889L118.391 17.5289C118.401 17.5393 118.411 17.5548 118.422 17.5756C118.432 17.6067 118.437 17.643 118.437 17.6844C118.448 17.7778 118.417 17.8556 118.344 17.9178C118.282 17.98 118.209 18.0111 118.126 18.0111H116.68ZM113.88 15.3667C114.543 15.3667 115.088 15.1696 115.513 14.7756C115.938 14.3711 116.166 13.7178 116.197 12.8156C116.218 12.3593 116.228 11.9393 116.228 11.5556C116.228 11.1615 116.218 10.7415 116.197 10.2956C116.187 9.69407 116.078 9.20667 115.871 8.83333C115.663 8.44963 115.388 8.17481 115.046 8.00889C114.714 7.83259 114.325 7.74444 113.88 7.74444C113.444 7.74444 113.055 7.83259 112.713 8.00889C112.371 8.17481 112.096 8.44963 111.888 8.83333C111.691 9.20667 111.577 9.69407 111.546 10.2956C111.536 10.7415 111.531 11.1615 111.531 11.5556C111.531 11.9393 111.536 12.3593 111.546 12.8156C111.588 13.7178 111.821 14.3711 112.246 14.7756C112.671 15.1696 113.216 15.3667 113.88 15.3667ZM120.884 17C120.781 17 120.693 16.9637 120.62 16.8911C120.547 16.8185 120.511 16.7304 120.511 16.6267V6.48444C120.511 6.38074 120.547 6.29259 120.62 6.22C120.693 6.14741 120.781 6.11111 120.884 6.11111H122.331C122.435 6.11111 122.523 6.14741 122.596 6.22C122.668 6.29259 122.704 6.38074 122.704 6.48444V15.1489H127.636C127.75 15.1489 127.843 15.1852 127.916 15.2578C127.988 15.3304 128.024 15.4237 128.024 15.5378V16.6267C128.024 16.7304 127.988 16.8185 127.916 16.8911C127.843 16.9637 127.75 17 127.636 17H120.884Z" fill="#F531B1"/>
<g filter="url(#filter0_d_3238_147)">
<circle cx="28" cy="24" r="20" fill="#F531B1"/>
</g>
<path fill-rule="evenodd" clip-rule="evenodd" d="M17.9039 19.5769H38.0962V32.5577H17.9039V19.5769ZM19.3462 21.0192V31.1154H36.6539V21.0192H19.3462Z" fill="white"/>
<path fill-rule="evenodd" clip-rule="evenodd" d="M27.6825 28.0835L18.1888 20.8719L19.0612 19.7234L28.1131 26.5994L36.9318 19.7288L37.8182 20.8666L28.5619 28.0781L27.6825 28.0835Z" fill="white"/>
<path fill-rule="evenodd" clip-rule="evenodd" d="M18.1626 19.7448L27.6563 11.8121L28.588 11.818L37.8443 19.7506L36.9058 20.8458L28.1128 13.3102L19.0874 20.8516L18.1626 19.7448Z" fill="white"/>
<path d="M39.5385 20.2981C39.5385 21.4929 38.5699 22.4615 37.375 22.4615C36.1802 22.4615 35.2115 21.4929 35.2115 20.2981C35.2115 19.1032 36.1802 18.1346 37.375 18.1346C38.5699 18.1346 39.5385 19.1032 39.5385 20.2981Z" fill="white"/>
<path d="M39.5385 31.8365C39.5385 33.0314 38.5699 34 37.375 34C36.1802 34 35.2115 33.0314 35.2115 31.8365C35.2115 30.6417 36.1802 29.6731 37.375 29.6731C38.5699 29.6731 39.5385 30.6417 39.5385 31.8365Z" fill="white"/>
<path d="M30.1635 26.9547C30.1635 28.1495 29.1949 29.1181 28 29.1181C26.8052 29.1181 25.8365 28.1495 25.8365 26.9547C25.8365 25.7598 26.8052 24.7912 28 24.7912C29.1949 24.7912 30.1635 25.7598 30.1635 26.9547Z" fill="white"/>
<path d="M20.7885 20.2981C20.7885 21.4929 19.8199 22.4615 18.625 22.4615C17.4302 22.4615 16.4615 21.4929 16.4615 20.2981C16.4615 19.1032 17.4302 18.1346 18.625 18.1346C19.8199 18.1346 20.7885 19.1032 20.7885 20.2981Z" fill="white"/>
<path d="M20.7885 31.8365C20.7885 33.0314 19.8199 34 18.625 34C17.4302 34 16.4615 33.0314 16.4615 31.8365C16.4615 30.6417 17.4302 29.6731 18.625 29.6731C19.8199 29.6731 20.7885 30.6417 20.7885 31.8365Z" fill="white"/>
<path d="M30.1635 13.0865C30.1635 14.2814 29.1949 15.25 28 15.25C26.8052 15.25 25.8365 14.2814 25.8365 13.0865C25.8365 11.8917 26.8052 10.9231 28 10.9231C29.1949 10.9231 30.1635 11.8917 30.1635 13.0865Z" fill="white"/>
<defs>
<filter id="filter0_d_3238_147" x="0" y="0" width="56" height="56" filterUnits="userSpaceOnUse" color-interpolation-filters="sRGB">
<feFlood flood-opacity="0" result="BackgroundImageFix"/>
<feColorMatrix in="SourceAlpha" type="matrix" values="0 0 0 0 0 0 0 0 0 0 0 0 0 0 0 0 0 0 127 0" result="hardAlpha"/>
<feOffset dy="4"/>
<feGaussianBlur stdDeviation="4"/>
<feColorMatrix type="matrix" values="0 0 0 0 0.0313726 0 0 0 0 0.0666667 0 0 0 0 0.27451 0 0 0 0.1 0"/>
<feBlend mode="normal" in2="BackgroundImageFix" result="effect1_dropShadow_3238_147"/>
<feBlend mode="normal" in="SourceGraphic" in2="effect1_dropShadow_3238_147" result="shape"/>
</filter>
</defs>
</svg>
