<svg  viewBox="0 0 158 36" fill="none" xmlns="http://www.w3.org/2000/svg">
    <path d="M31.568 8.90518L23.894 4.48018L16.22 0.0551758L0.872002 8.90518V26.6052L16.22 35.4552L31.568 26.6052V17.7552L23.894 13.3302L31.568 8.90518ZM23.894 22.1802L16.22 26.6052L8.546 22.1802V13.3302L16.22 8.90518L23.894 13.3302L16.22 17.7552L23.894 22.1802Z" fill="white"/>
    <path d="M49.75 9.7H52.78V21.342C52.78 24.507 50.628 26.862 46.928 26.862C43.181 26.862 41.538 24.368 41.354 22.451H44.638C44.777 23.144 45.332 24.045 46.974 24.045C48.639 24.045 49.495 23.121 49.495 21.689V20.002C48.871 20.834 47.668 21.573 45.957 21.573C42.58 21.573 40.429 18.87 40.429 15.498C40.429 12.126 42.579 9.423 45.956 9.423C47.668 9.423 48.986 10.07 49.749 11.178V9.701L49.75 9.7ZM46.65 12.31C44.893 12.31 43.713 13.604 43.713 15.498C43.713 17.392 44.893 18.686 46.65 18.686C48.408 18.686 49.588 17.392 49.588 15.498C49.588 13.604 48.408 12.31 46.65 12.31ZM61.718 12.68C61.5043 12.6387 61.2876 12.6153 61.07 12.61C59.151 12.61 58.157 13.558 58.157 15.775V21.805H54.872V9.699H57.902V11.27C58.342 10.554 59.267 9.584 61.325 9.584C61.441 9.584 61.718 9.607 61.718 9.607V12.679V12.68ZM62.62 18.362C62.62 16.26 64.077 15.012 67.315 14.505L70.553 14.02V13.904C70.553 12.726 69.813 12.125 68.379 12.125C66.853 12.125 66.251 12.772 66.135 13.604H62.898C63.082 11.502 64.517 9.423 68.356 9.423C71.918 9.423 73.676 11.109 73.676 13.927V19.633C73.676 20.418 73.814 21.319 74.023 21.804H70.853C70.831 21.804 70.715 21.25 70.715 20.464C69.952 21.55 68.725 22.081 66.875 22.081C64.077 22.081 62.62 20.534 62.62 18.362ZM67.639 16.838C66.229 17.092 65.789 17.6 65.789 18.27C65.789 19.101 66.297 19.54 67.616 19.54C69.536 19.54 70.553 18.432 70.553 16.838V16.353L67.639 16.838ZM78.901 26.608H75.617V9.7H78.647V11.179C79.41 10.069 80.774 9.423 82.486 9.423C86.001 9.423 88.059 12.241 88.059 15.753C88.059 19.263 86.001 22.081 82.486 22.081C80.774 22.081 79.526 21.342 78.901 20.511V26.609V26.608ZM81.792 19.194C83.619 19.194 84.775 17.715 84.775 15.752C84.775 13.789 83.619 12.31 81.792 12.31C79.965 12.31 78.808 13.789 78.808 15.752C78.808 17.715 79.965 19.194 81.792 19.194ZM92.762 10.809C93.386 9.978 94.542 9.423 96.115 9.423C99.029 9.423 100.579 11.363 100.579 14.251V21.804H97.295V14.621C97.295 13.211 96.693 12.241 95.237 12.241C93.64 12.241 92.762 13.235 92.762 14.898V21.804H89.477V4.48H92.762V10.81V10.809ZM107.598 22.081C104.082 22.081 102.024 19.263 102.024 15.752C102.024 12.241 104.082 9.423 107.598 9.423C109.309 9.423 110.674 10.07 111.437 11.178V9.701H114.467V26.609H111.183V20.511C110.558 21.343 109.309 22.082 107.598 22.082V22.081ZM108.292 12.311C106.464 12.311 105.308 13.789 105.308 15.752C105.308 17.715 106.464 19.194 108.292 19.194C110.119 19.194 111.275 17.715 111.275 15.752C111.275 13.789 110.119 12.311 108.292 12.311ZM116.393 21.805V4.479H119.677V21.803H116.393V21.805ZM121.92 20.742C121.92 20.026 122.452 19.494 123.192 19.494C123.909 19.494 124.465 20.026 124.465 20.742C124.465 21.481 123.909 21.989 123.192 21.989C122.452 21.989 121.92 21.481 121.92 20.742ZM132.633 12.125H132.61L129.395 21.805H127.684L123.613 10.047H125.371L128.539 19.864L131.777 10.047H133.489L136.681 19.864L139.895 10.047H141.63L137.513 21.804H135.802L132.633 12.126V12.125ZM149.212 21.735C149.212 21.735 148.796 21.85 147.963 21.85C145.974 21.85 144.91 20.764 144.91 18.64V11.432H142.667V10.046H144.91V6.697H146.553V10.047H149.258V11.432H146.553V18.524C146.553 19.771 147.038 20.372 148.171 20.372C148.521 20.365 148.87 20.327 149.212 20.256V21.735ZM152.968 8.107C152.968 5.635 154.402 4.48 156.46 4.48C156.723 4.478 156.985 4.493 157.247 4.526V6.028C157.033 5.99362 156.816 5.97823 156.599 5.982C155.327 5.982 154.609 6.536 154.609 8.038V10.048H157.27V11.433H154.609V21.805H152.968V11.433H150.678V10.047H152.968V8.107Z" fill="white"/>
</svg>
