<svg viewBox="0 0 367 100" fill="#e10098" xmlns="http://www.w3.org/2000/svg"><style>svg{fill:color(display-p3 0.8824 0 0.5961);}</style>
<path fill-rule="evenodd" clip-rule="evenodd" d="M50 6.90308L87.323 28.4515V71.5484L50 93.0968L12.677 71.5484V28.4515L50 6.90308ZM16.8647 30.8693V62.5251L44.2795 15.0414L16.8647 30.8693ZM50 13.5086L18.3975 68.2457H81.6025L50 13.5086ZM77.4148 72.4334H22.5852L50 88.2613L77.4148 72.4334ZM83.1353 62.5251L55.7205 15.0414L83.1353 30.8693V62.5251Z"/><circle cx="50" cy="9.3209" r="8.82"/><circle cx="85.2292" cy="29.6605" r="8.82"/><circle cx="85.2292" cy="70.3396" r="8.82"/><circle cx="50" cy="90.6791" r="8.82"/><circle cx="14.7659" cy="70.3396" r="8.82"/><circle cx="14.7659" cy="29.6605" r="8.82"/>
<path d="M161.096 53.3887C160.627 53.4473 159.992 53.5449 159.191 53.6816C158.41 53.7988 157.775 53.9746 157.287 54.209C156.701 54.502 156.281 54.9219 156.027 55.4688C155.793 55.9961 155.676 56.6211 155.676 57.3438V60.5664C155.676 62.9102 155.686 64.4922 155.705 65.3125C155.744 66.1328 155.783 66.8066 155.822 67.334C153.225 68.5059 150.637 69.4043 148.059 70.0293C145.48 70.6543 142.951 70.9668 140.471 70.9668C137.814 70.9668 135.256 70.4688 132.795 69.4727C130.334 68.4766 128.186 67.0605 126.35 65.2246C124.494 63.3691 123.02 61.1133 121.926 58.457C120.832 55.8008 120.285 52.832 120.285 49.5508C120.285 46.3867 120.803 43.457 121.838 40.7617C122.893 38.0469 124.377 35.6934 126.291 33.7012C128.146 31.748 130.354 30.2344 132.912 29.1602C135.49 28.0664 138.244 27.5195 141.174 27.5195C143.518 27.5195 145.559 27.8027 147.297 28.3691C149.035 28.9355 150.568 29.6191 151.896 30.4199L153.098 28.4277H155.441L155.705 42.959H153.303C152.893 41.3574 152.385 39.7852 151.779 38.2422C151.174 36.6797 150.393 35.2832 149.436 34.0527C148.479 32.8223 147.307 31.8457 145.92 31.123C144.553 30.3809 142.912 30.0098 140.998 30.0098C138.908 30.0098 137.043 30.4395 135.402 31.2988C133.762 32.1387 132.336 33.3984 131.125 35.0781C129.934 36.6992 129.016 38.7207 128.371 41.1426C127.727 43.5645 127.404 46.2695 127.404 49.2578C127.404 51.8945 127.717 54.3848 128.342 56.7285C128.986 59.0527 129.914 61.0645 131.125 62.7637C132.336 64.502 133.85 65.8691 135.666 66.8652C137.482 67.8613 139.543 68.3594 141.848 68.3594C143.566 68.3594 145.129 68.0957 146.535 67.5684C147.961 67.041 148.967 66.4844 149.553 65.8984C149.709 64.8828 149.787 63.8574 149.787 62.8223C149.807 61.7871 149.816 60.9082 149.816 60.1855V57.9004C149.816 57.0801 149.699 56.3574 149.465 55.7324C149.25 55.0879 148.791 54.6191 148.088 54.3262C147.443 54.0332 146.564 53.8184 145.451 53.6816C144.357 53.5254 143.498 53.4277 142.873 53.3887V51.25H161.096V53.3887Z"/>
<path d="M185.764 44.834C185.764 45.8301 185.52 46.7188 185.031 47.5C184.543 48.2617 183.791 48.6426 182.775 48.6426C181.682 48.6426 180.842 48.3594 180.256 47.793C179.689 47.2266 179.406 46.6016 179.406 45.918C179.406 45.4883 179.436 45.0977 179.494 44.7461C179.572 44.3945 179.641 44.043 179.699 43.6914C178.781 43.6914 177.707 44.0625 176.477 44.8047C175.246 45.5469 174.201 46.6016 173.342 47.9688V64.7852C173.342 65.4688 173.469 66.0254 173.723 66.4551C173.996 66.8848 174.416 67.207 174.982 67.4219C175.471 67.6172 176.096 67.7637 176.857 67.8613C177.639 67.959 178.312 68.0273 178.879 68.0664V70H163.645V68.0664C164.094 68.0273 164.553 67.9883 165.021 67.9492C165.51 67.9102 165.93 67.832 166.281 67.7148C166.828 67.5391 167.229 67.2363 167.482 66.8066C167.756 66.3574 167.893 65.7812 167.893 65.0781V47.2363C167.893 46.6309 167.746 46.0352 167.453 45.4492C167.18 44.8633 166.789 44.3945 166.281 44.043C165.91 43.8086 165.471 43.6426 164.963 43.5449C164.455 43.4277 163.908 43.3496 163.322 43.3105V41.4062L172.932 40.7617L173.342 41.1719V45.2441H173.488C174.699 43.6621 176.047 42.4609 177.531 41.6406C179.016 40.8203 180.373 40.4102 181.604 40.4102C182.834 40.4102 183.83 40.8105 184.592 41.6113C185.373 42.4121 185.764 43.4863 185.764 44.834Z"/>
<path d="M215.617 69.4727C214.699 69.8047 213.889 70.0684 213.186 70.2637C212.502 70.4785 211.721 70.5859 210.842 70.5859C209.318 70.5859 208.098 70.2344 207.18 69.5312C206.281 68.8086 205.705 67.7637 205.451 66.3965H205.275C204.006 67.8027 202.639 68.877 201.174 69.6191C199.729 70.3613 197.98 70.7324 195.93 70.7324C193.762 70.7324 191.975 70.0684 190.568 68.7402C189.182 67.4121 188.488 65.6738 188.488 63.5254C188.488 62.4121 188.645 61.416 188.957 60.5371C189.27 59.6582 189.738 58.8672 190.363 58.1641C190.852 57.5781 191.496 57.0605 192.297 56.6113C193.098 56.1426 193.85 55.7715 194.553 55.498C195.432 55.166 197.209 54.5508 199.885 53.6523C202.58 52.7539 204.396 52.0508 205.334 51.543V48.6426C205.334 48.3887 205.275 47.9004 205.158 47.1777C205.061 46.4551 204.836 45.7715 204.484 45.127C204.094 44.4043 203.537 43.7793 202.814 43.252C202.111 42.7051 201.105 42.4316 199.797 42.4316C198.898 42.4316 198.059 42.5879 197.277 42.9004C196.516 43.1934 195.979 43.5059 195.666 43.8379C195.666 44.2285 195.754 44.8047 195.93 45.5664C196.125 46.3281 196.223 47.0312 196.223 47.6758C196.223 48.3594 195.91 48.9844 195.285 49.5508C194.68 50.1172 193.83 50.4004 192.736 50.4004C191.76 50.4004 191.037 50.0586 190.568 49.375C190.119 48.6719 189.895 47.8906 189.895 47.0312C189.895 46.1328 190.207 45.2734 190.832 44.4531C191.477 43.6328 192.307 42.9004 193.322 42.2559C194.201 41.709 195.266 41.25 196.516 40.8789C197.766 40.4883 198.986 40.293 200.178 40.293C201.818 40.293 203.244 40.4102 204.455 40.6445C205.686 40.8594 206.799 41.3379 207.795 42.0801C208.791 42.8027 209.543 43.7891 210.051 45.0391C210.578 46.2695 210.842 47.8613 210.842 49.8145C210.842 52.6074 210.812 55.0879 210.754 57.2559C210.695 59.4043 210.666 61.7578 210.666 64.3164C210.666 65.0781 210.793 65.6836 211.047 66.1328C211.32 66.582 211.73 66.9629 212.277 67.2754C212.57 67.4512 213.029 67.5488 213.654 67.5684C214.299 67.5879 214.953 67.5977 215.617 67.5977V69.4727ZM205.393 54.0039C203.732 54.4922 202.277 54.9707 201.027 55.4395C199.777 55.9082 198.615 56.4941 197.541 57.1973C196.564 57.8613 195.793 58.6523 195.227 59.5703C194.66 60.4688 194.377 61.543 194.377 62.793C194.377 64.4141 194.797 65.6055 195.637 66.3672C196.496 67.1289 197.58 67.5098 198.889 67.5098C200.275 67.5098 201.496 67.1777 202.551 66.5137C203.605 65.8301 204.494 65.0293 205.217 64.1113L205.393 54.0039Z"/>
<path d="M244.885 44.541C246.037 45.9082 246.926 47.5 247.551 49.3164C248.195 51.1133 248.518 53.1738 248.518 55.498C248.518 57.7832 248.137 59.873 247.375 61.7676C246.613 63.6426 245.607 65.2441 244.357 66.5723C243.049 67.9199 241.594 68.9551 239.992 69.6777C238.391 70.4004 236.691 70.7617 234.895 70.7617C233.156 70.7617 231.73 70.5664 230.617 70.1758C229.504 69.7852 228.596 69.3262 227.893 68.7988H227.658V77.4707C227.658 78.1738 227.795 78.7598 228.068 79.2285C228.342 79.6973 228.762 80.0391 229.328 80.2539C229.797 80.4297 230.461 80.5957 231.32 80.752C232.199 80.9277 232.922 81.0254 233.488 81.0449V83.0078H217.346V81.0449C217.951 81.0059 218.537 80.957 219.104 80.8984C219.67 80.8398 220.178 80.7422 220.627 80.6055C221.213 80.4102 221.623 80.0684 221.857 79.5801C222.092 79.0918 222.209 78.5156 222.209 77.8516V47.1191C222.209 46.5332 222.062 45.9668 221.77 45.4199C221.477 44.873 221.096 44.4336 220.627 44.1016C220.275 43.8672 219.787 43.6914 219.162 43.5742C218.537 43.4375 217.932 43.3496 217.346 43.3105V41.4062L227.189 40.7617L227.6 41.1133V44.3652L227.834 44.4238C228.85 43.252 230.109 42.2754 231.613 41.4941C233.117 40.7129 234.611 40.3223 236.096 40.3223C237.893 40.3223 239.533 40.7031 241.018 41.4648C242.521 42.2266 243.811 43.252 244.885 44.541ZM240.109 65.3125C240.891 64.1016 241.467 62.6953 241.838 61.0938C242.209 59.4922 242.395 57.7051 242.395 55.7324C242.395 54.2871 242.238 52.8125 241.926 51.3086C241.613 49.8047 241.125 48.4961 240.461 47.3828C239.797 46.25 238.928 45.332 237.854 44.6289C236.779 43.9258 235.49 43.5742 233.986 43.5742C232.541 43.5742 231.311 43.8965 230.295 44.541C229.279 45.166 228.4 45.918 227.658 46.7969V63.877C227.834 64.4043 228.117 64.9512 228.508 65.5176C228.918 66.084 229.367 66.5723 229.855 66.9824C230.461 67.4707 231.115 67.8711 231.818 68.1836C232.521 68.4766 233.381 68.623 234.396 68.623C235.49 68.623 236.545 68.3398 237.561 67.7734C238.576 67.1875 239.426 66.3672 240.109 65.3125Z"/>
<path d="M284.143 70H269.963V68.0664C270.412 68.0273 270.91 67.9883 271.457 67.9492C272.004 67.9102 272.453 67.832 272.805 67.7148C273.352 67.5391 273.752 67.2363 274.006 66.8066C274.279 66.3574 274.416 65.7812 274.416 65.0781V50.2246C274.416 48.1738 273.928 46.5918 272.951 45.4785C271.994 44.3652 270.822 43.8086 269.436 43.8086C268.42 43.8086 267.473 43.9746 266.594 44.3066C265.734 44.6191 264.963 45.0098 264.279 45.4785C263.615 45.9668 263.107 46.4551 262.756 46.9434C262.404 47.4316 262.131 47.8418 261.936 48.1738V64.7852C261.936 65.4492 262.062 65.9961 262.316 66.4258C262.59 66.8555 263 67.1875 263.547 67.4219C263.977 67.6172 264.416 67.7637 264.865 67.8613C265.334 67.959 265.842 68.0273 266.389 68.0664V70H252.209V68.0664C252.658 68.0273 253.127 67.9883 253.615 67.9492C254.104 67.8906 254.514 67.8125 254.846 67.7148C255.393 67.5391 255.803 67.2363 256.076 66.8066C256.35 66.3574 256.486 65.7812 256.486 65.0781V31.4453C256.486 30.7812 256.33 30.1172 256.018 29.4531C255.725 28.7891 255.334 28.291 254.846 27.959C254.494 27.7051 253.869 27.5293 252.971 27.4316C252.092 27.3145 251.379 27.2363 250.832 27.1973V25.3223L261.525 24.6484L261.936 25.0879V45.2441H262.053C262.697 44.5996 263.283 44.0332 263.811 43.5449C264.338 43.0371 265.031 42.5098 265.891 41.9629C266.633 41.4941 267.502 41.1035 268.498 40.791C269.514 40.4785 270.646 40.3223 271.896 40.3223C274.475 40.3223 276.457 41.1426 277.844 42.7832C279.23 44.4043 279.924 46.748 279.924 49.8145V64.8438C279.924 65.5273 280.041 66.084 280.275 66.5137C280.529 66.9238 280.939 67.2461 281.506 67.4805C281.955 67.6562 282.355 67.793 282.707 67.8906C283.078 67.9688 283.557 68.0273 284.143 68.0664V70Z"/>
<path d="M322.023 33.3496C323.859 35.2637 325.295 37.5781 326.33 40.293C327.365 42.9883 327.883 45.9766 327.883 49.2578C327.883 51.875 327.541 54.2969 326.857 56.5234C326.174 58.75 325.207 60.7422 323.957 62.5C322.766 64.1797 321.35 65.6445 319.709 66.8945C318.068 68.1445 316.232 69.1309 314.201 69.8535C314.24 72.002 315.012 73.9258 316.516 75.625C318.02 77.3438 319.641 78.2031 321.379 78.2031C322.98 78.2031 324.201 78.1445 325.041 78.0273C325.881 77.9297 326.574 77.832 327.121 77.7344V80.0488C326.242 80.3027 325.139 80.5664 323.811 80.8398C322.502 81.1328 320.676 81.2793 318.332 81.2793C317.023 81.2793 315.744 81.084 314.494 80.6934C313.244 80.3223 312.111 79.7168 311.096 78.877C310.08 78.0371 309.23 76.9727 308.547 75.6836C307.883 74.3945 307.453 72.8125 307.258 70.9375C304.465 70.8398 301.877 70.2441 299.494 69.1504C297.111 68.0371 295.07 66.5234 293.371 64.6094C291.652 62.6758 290.314 60.4102 289.357 57.8125C288.4 55.1953 287.922 52.3438 287.922 49.2578C287.922 45.8789 288.449 42.8711 289.504 40.2344C290.559 37.5781 292.014 35.2832 293.869 33.3496C295.705 31.4355 297.834 29.9707 300.256 28.9551C302.697 27.9395 305.246 27.4316 307.902 27.4316C310.656 27.4316 313.254 27.9492 315.695 28.9844C318.137 30.0195 320.246 31.4746 322.023 33.3496ZM317.658 62.8223C318.752 61.0449 319.543 59.0332 320.031 56.7871C320.539 54.541 320.793 52.0312 320.793 49.2578C320.793 46.4062 320.51 43.7891 319.943 41.4062C319.396 39.0234 318.586 36.9922 317.512 35.3125C316.438 33.6523 315.09 32.3633 313.469 31.4453C311.848 30.5078 309.992 30.0391 307.902 30.0391C305.559 30.0391 303.566 30.5762 301.926 31.6504C300.285 32.7246 298.947 34.1602 297.912 35.957C296.936 37.6758 296.203 39.6875 295.715 41.9922C295.246 44.2969 295.012 46.7188 295.012 49.2578C295.012 52.0703 295.266 54.6094 295.773 56.875C296.281 59.1406 297.082 61.1523 298.176 62.9102C299.23 64.6289 300.559 65.9766 302.16 66.9531C303.762 67.9102 305.676 68.3887 307.902 68.3887C309.992 68.3887 311.877 67.9004 313.557 66.9238C315.236 65.9473 316.604 64.5801 317.658 62.8223Z"/>
<path d="M366.467 57.6367L365.588 70H333.098V67.9199C333.566 67.8809 334.24 67.8125 335.119 67.7148C336.018 67.6172 336.643 67.4902 336.994 67.334C337.58 67.0801 338 66.709 338.254 66.2207C338.527 65.7324 338.664 65.1074 338.664 64.3457V34.5801C338.664 33.916 338.547 33.3301 338.312 32.8223C338.098 32.3145 337.658 31.9043 336.994 31.5918C336.545 31.3574 335.91 31.1328 335.09 30.918C334.289 30.6836 333.625 30.5469 333.098 30.5078V28.4277H350.646V30.5078C350.1 30.5273 349.387 30.625 348.508 30.8008C347.648 30.9766 347.023 31.1328 346.633 31.2695C345.969 31.5039 345.51 31.9043 345.256 32.4707C345.021 33.0371 344.904 33.6426 344.904 34.2871V62.207C344.904 63.4961 344.963 64.502 345.08 65.2246C345.217 65.9277 345.52 66.4746 345.988 66.8652C346.438 67.2168 347.102 67.4512 347.98 67.5684C348.879 67.666 350.129 67.7148 351.73 67.7148C352.453 67.7148 353.205 67.6953 353.986 67.6562C354.768 67.6172 355.51 67.5391 356.213 67.4219C356.896 67.3047 357.521 67.1484 358.088 66.9531C358.674 66.7383 359.104 66.4746 359.377 66.1621C360.178 65.2637 361.105 63.9062 362.16 62.0898C363.234 60.2539 363.977 58.7695 364.387 57.6367H366.467Z"/>
</svg>
