<svg viewBox="0 0 100 100" fill="#e10098" xmlns="http://www.w3.org/2000/svg"><style>svg{fill:color(display-p3 0.8824 0 0.5961);}</style>
<path fill-rule="evenodd" clip-rule="evenodd" d="M50 6.46777L87.7 28.2339V71.7661L50 93.5322L12.3 71.7661V28.2339L50 6.46777ZM16.53 30.6761V62.6517L44.2217 14.6883L16.53 30.6761ZM50 13.14L18.0783 68.43H81.9217L50 13.14ZM77.6917 72.66H22.3083L50 88.6478L77.6917 72.66ZM83.47 62.6517L55.7784 14.6883L83.47 30.6761V62.6517Z"/>
<path d="M14.41 38.36C19.3309 38.36 23.32 34.3709 23.32 29.45C23.32 24.5292 19.3309 20.54 14.41 20.54C9.48914 20.54 5.5 24.5292 5.5 29.45C5.5 34.3709 9.48914 38.36 14.41 38.36Z"/>
<path d="M14.41 79.4548C19.3309 79.4548 23.32 75.4656 23.32 70.5448C23.32 65.6239 19.3309 61.6348 14.41 61.6348C9.48914 61.6348 5.5 65.6239 5.5 70.5448C5.5 75.4656 9.48914 79.4548 14.41 79.4548Z"/>
<path d="M50 100C54.9208 100 58.91 96.011 58.91 91.0902C58.91 86.1693 54.9208 82.1802 50 82.1802C45.0791 82.1802 41.09 86.1693 41.09 91.0902C41.09 96.011 45.0791 100 50 100Z"/>
<path d="M85.585 79.4548C90.5059 79.4548 94.495 75.4656 94.495 70.5448C94.495 65.6239 90.5059 61.6348 85.585 61.6348C80.6642 61.6348 76.675 65.6239 76.675 70.5448C76.675 75.4656 80.6642 79.4548 85.585 79.4548Z"/>
<path d="M85.585 38.3649C90.5059 38.3649 94.495 34.3758 94.495 29.4549C94.495 24.5341 90.5059 20.5449 85.585 20.5449C80.6642 20.5449 76.675 24.5341 76.675 29.4549C76.675 34.3758 80.6642 38.3649 85.585 38.3649Z"/>
<path d="M50 17.82C54.9208 17.82 58.91 13.8309 58.91 8.91C58.91 3.98914 54.9208 0 50 0C45.0791 0 41.09 3.98914 41.09 8.91C41.09 13.8309 45.0791 17.82 50 17.82Z"/>
<path fill-rule="evenodd" clip-rule="evenodd" d="M49.7599 28.25C50.5502 28.2547 51.2802 28.6737 51.6828 29.3538L69.9362 60.1871C70.3479 60.8826 70.355 61.7455 69.9547 62.4477C69.5544 63.1498 68.8082 63.5833 68 63.5833H31C30.187 63.5833 29.4373 63.1448 29.0388 62.4362C28.6403 61.7275 28.6551 60.8591 29.0775 60.1644L47.8241 29.3311C48.2347 28.6558 48.9696 28.2454 49.7599 28.25ZM35.0012 59.0833H64.0533L49.7209 34.8733L35.0012 59.0833Z"/>
</svg>
