<svg width="492" height="112" viewBox="0 0 492 112" fill="none" xmlns="http://www.w3.org/2000/svg">
<path d="M4.44243 98.8635C4.30497 98.8635 4.18672 98.8148 4.09065 98.7188C3.99458 98.6228 3.9458 98.5061 3.9458 98.3688V84.7064C3.9458 84.5691 3.99458 84.4524 4.09065 84.3564C4.18672 84.2604 4.30497 84.2117 4.44243 84.2117H6.27965C6.43189 84.2117 6.55161 84.2604 6.64178 84.3564C6.73046 84.4524 6.77628 84.5691 6.77628 84.7064V89.4117C7.14727 88.9716 7.60251 88.6142 8.13905 88.3395C8.67558 88.0633 9.33627 87.926 10.1211 87.926C10.9621 87.926 11.6952 88.115 12.3219 88.4931C12.9472 88.8726 13.4334 89.4058 13.7778 90.0925C14.1207 90.7807 14.2937 91.6063 14.2937 92.5692V98.3688C14.2937 98.5061 14.2449 98.6228 14.1488 98.7188C14.0527 98.8148 13.936 98.8635 13.7985 98.8635H11.9391C11.8017 98.8635 11.6849 98.8148 11.5888 98.7188C11.4913 98.6228 11.444 98.5061 11.444 98.3688V92.6932C11.444 91.8957 11.2474 91.2696 10.8542 90.8147C10.4626 90.3613 9.89498 90.1339 9.15151 90.1339C8.43466 90.1339 7.85969 90.3613 7.42662 90.8147C6.99207 91.2696 6.77628 91.8957 6.77628 92.6932V98.3688C6.77628 98.5061 6.73046 98.6228 6.64178 98.7188C6.55161 98.8148 6.43189 98.8635 6.27965 98.8635H4.44243Z" fill="white"/>
<path d="M21.6662 99.0703C20.5651 99.0703 19.6398 98.8768 18.8889 98.4914C18.1381 98.1074 17.5676 97.5639 17.1744 96.8624C16.7827 96.1609 16.558 95.3413 16.5034 94.4064C16.4901 94.1583 16.4827 93.8555 16.4827 93.4981C16.4827 93.1407 16.4901 92.838 16.5034 92.5899C16.558 91.6403 16.7886 90.8191 17.1951 90.1235C17.6016 89.4294 18.1795 88.8889 18.9303 88.5034C19.6797 88.1195 20.5931 87.926 21.6662 87.926C22.7408 87.926 23.6527 88.1195 24.4036 88.5034C25.1529 88.8889 25.7323 89.4294 26.1373 90.1235C26.5438 90.8191 26.7744 91.6403 26.8305 92.5899C26.8438 92.838 26.8512 93.1407 26.8512 93.4981C26.8512 93.8555 26.8438 94.1583 26.8305 94.4064C26.7744 95.3413 26.5512 96.1609 26.158 96.8624C25.7663 97.5639 25.1943 98.1074 24.445 98.4914C23.6941 98.8768 22.7674 99.0703 21.6662 99.0703ZM21.6662 97.0263C22.3964 97.0263 22.961 96.7974 23.3601 96.3352C23.7591 95.8744 23.9794 95.198 24.0208 94.303C24.0341 94.0963 24.0414 93.829 24.0414 93.4981C24.0414 93.1673 24.0341 92.9 24.0208 92.6933C23.9794 91.8131 23.7591 91.1381 23.3601 90.6715C22.961 90.2033 22.3964 89.97 21.6662 89.97C20.936 89.97 20.3729 90.2033 19.9738 90.6715C19.5733 91.1381 19.3531 91.8131 19.3117 92.6933C19.2984 92.9 19.291 93.1673 19.291 93.4981C19.291 93.829 19.2984 94.0963 19.3117 94.303C19.3531 95.198 19.5733 95.8744 19.9738 96.3352C20.3729 96.7974 20.936 97.0263 21.6662 97.0263Z" fill="white"/>
<path d="M33.2113 99.0703C32.385 99.0703 31.68 98.9728 31.0947 98.7808C30.5094 98.5888 30.0305 98.3481 29.6595 98.0587C29.287 97.7692 29.0121 97.4812 28.8333 97.1917C28.6544 96.9038 28.5569 96.663 28.5436 96.4696C28.5303 96.3189 28.5746 96.1978 28.6781 96.1092C28.7815 96.0191 28.8953 95.9748 29.0195 95.9748H30.6513C30.706 95.9748 30.7533 95.9822 30.7946 95.9955C30.836 96.0088 30.8907 96.0501 30.9602 96.1196C31.139 96.2702 31.3282 96.4282 31.5278 96.5936C31.7273 96.759 31.9653 96.8993 32.2402 97.016C32.5166 97.1342 32.861 97.1917 33.2733 97.1917C33.8099 97.1917 34.2607 97.0854 34.6258 96.8727C34.9908 96.6586 35.1741 96.3529 35.1741 95.9541C35.1741 95.6647 35.0943 95.4313 34.9362 95.2526C34.778 95.0739 34.4853 94.9115 34.0582 94.7668C33.631 94.6235 33.025 94.4684 32.2402 94.303C31.4701 94.1243 30.8286 93.8969 30.3202 93.6222C29.8103 93.3475 29.4319 93.0034 29.1836 92.5899C28.9367 92.1778 28.8126 91.6964 28.8126 91.1455C28.8126 90.6094 28.9737 90.097 29.2974 89.6081C29.6211 89.1193 30.1029 88.7176 30.7429 88.4015C31.3844 88.084 32.1796 87.926 33.1285 87.926C33.872 87.926 34.5193 88.019 35.0707 88.2051C35.6205 88.3912 36.0787 88.6216 36.4438 88.8963C36.8088 89.171 37.0867 89.4501 37.2803 89.7322C37.4725 90.0143 37.576 90.2579 37.5893 90.4647C37.604 90.6168 37.5627 90.7364 37.4666 90.8251C37.369 90.9151 37.2597 90.9594 37.1355 90.9594H35.6072C35.5377 90.9594 35.4756 90.9462 35.421 90.9181C35.3663 90.8915 35.3116 90.8561 35.2569 90.8147C35.1047 90.6774 34.9391 90.5341 34.7603 90.382C34.5814 90.2314 34.3641 90.097 34.1099 89.9803C33.8557 89.8636 33.5217 89.8045 33.1078 89.8045C32.5846 89.8045 32.1855 89.9183 31.9106 90.1442C31.6342 90.3717 31.4967 90.6567 31.4967 91.0008C31.4967 91.2356 31.5632 91.4379 31.6933 91.6093C31.8248 91.782 32.0894 91.943 32.4885 92.0951C32.8876 92.2458 33.4936 92.4038 34.3065 92.5692C35.2288 92.7346 35.9619 92.9783 36.5058 93.3017C37.0498 93.6252 37.4355 93.9973 37.6617 94.4167C37.8893 94.8362 38.0031 95.2999 38.0031 95.8094C38.0031 96.4282 37.8198 96.985 37.4562 97.4812C37.0912 97.976 36.5531 98.3644 35.8452 98.6464C35.1357 98.9285 34.2577 99.0703 33.2113 99.0703Z" fill="white"/>
<path d="M44.9425 98.8635C44.1163 98.8635 43.4216 98.7188 42.857 98.4308C42.2923 98.1413 41.8726 97.7116 41.5977 97.14C41.3213 96.57 41.1838 95.8581 41.1838 95.0045V90.3199H39.552C39.4146 90.3199 39.2978 90.2727 39.2017 90.1752C39.1042 90.0792 39.0569 89.9626 39.0569 89.8252V88.6275C39.0569 88.4901 39.1042 88.3735 39.2017 88.2775C39.2978 88.1815 39.4146 88.1327 39.552 88.1327H41.1838V84.7064C41.1838 84.5691 41.2281 84.4524 41.3183 84.3564C41.407 84.2604 41.5282 84.2117 41.679 84.2117H43.3521C43.4896 84.2117 43.6063 84.2604 43.7039 84.3564C43.8 84.4524 43.8487 84.5691 43.8487 84.7064V88.1327H46.4294C46.5669 88.1327 46.6837 88.1815 46.7812 88.2775C46.8773 88.3735 46.9261 88.4901 46.9261 88.6275V89.8252C46.9261 89.9626 46.8773 90.0792 46.7812 90.1752C46.6837 90.2727 46.5669 90.3199 46.4294 90.3199H43.8487V94.7978C43.8487 95.3619 43.9478 95.802 44.1473 96.1195C44.3468 96.4356 44.6942 96.5936 45.1908 96.5936H46.6157C46.7531 96.5936 46.8699 96.6423 46.9674 96.7383C47.0635 96.8343 47.1108 96.951 47.1108 97.0884V98.3688C47.1108 98.5061 47.0635 98.6228 46.9674 98.7188C46.8699 98.8148 46.7531 98.8635 46.6157 98.8635H44.9425Z" fill="white"/>
<path d="M53.5745 99.0703C52.0462 99.0703 50.8357 98.6302 49.94 97.7485C49.0458 96.8683 48.5639 95.6174 48.4944 93.9929C48.4811 93.8555 48.4738 93.6813 48.4738 93.4671C48.4738 93.2545 48.4811 93.0861 48.4944 92.9621C48.5491 91.9297 48.7871 91.0362 49.2069 90.2786C49.6266 89.5225 50.209 88.9406 50.9525 88.5345C51.6959 88.1298 52.5694 87.926 53.5745 87.926C54.6905 87.926 55.6261 88.1564 56.3843 88.6172C57.1411 89.0794 57.7131 89.7189 58.0989 90.5371C58.4831 91.3552 58.6768 92.3019 58.6768 93.3741V93.8083C58.6768 93.9456 58.628 94.0623 58.5319 94.1583C58.4359 94.2543 58.3117 94.303 58.1609 94.303H51.3028V94.4684C51.3175 94.9499 51.4092 95.3929 51.5821 95.7991C51.7536 96.2052 52.0093 96.5316 52.3463 96.7797C52.6833 97.0263 53.0868 97.1504 53.5538 97.1504C53.9396 97.1504 54.2633 97.0928 54.5249 96.9747C54.7865 96.858 55.0008 96.7251 55.1649 96.5729C55.3305 96.4223 55.4472 96.2983 55.5167 96.2008C55.6408 96.0369 55.7399 95.9364 55.8167 95.9025C55.8921 95.8685 56.0044 95.8508 56.1567 95.8508H57.9333C58.0708 95.8508 58.1846 95.8921 58.2733 95.9748C58.3634 96.0575 58.4004 96.1609 58.3871 96.2835C58.3738 96.5035 58.26 96.7723 58.0471 97.0884C57.8328 97.4059 57.5268 97.7146 57.1278 98.0173C56.7287 98.3201 56.2291 98.5711 55.6305 98.7705C55.0319 98.9699 54.3461 99.0703 53.5745 99.0703ZM51.3028 92.5692H55.867V92.5072C55.867 91.9711 55.7783 91.5029 55.5995 91.1042C55.4206 90.7054 55.159 90.3894 54.8146 90.1546C54.4702 89.9212 54.0564 89.8045 53.5745 89.8045C53.0927 89.8045 52.6803 89.9212 52.3359 90.1546C51.9915 90.3894 51.7329 90.7054 51.5614 91.1042C51.3885 91.5029 51.3028 91.9711 51.3028 92.5072V92.5692Z" fill="white"/>
<path d="M64.8505 99.0703C64.1351 99.0703 63.5055 98.9492 62.9616 98.7085C62.4176 98.4677 61.9668 98.1281 61.6091 97.688C61.2515 97.2479 60.9751 96.728 60.7829 96.1299C60.5908 95.5303 60.4799 94.8746 60.4533 94.1583C60.4385 93.9102 60.4326 93.6872 60.4326 93.4878C60.4326 93.2884 60.4385 93.0654 60.4533 92.8173C60.4799 92.1291 60.5863 91.4896 60.7726 90.8974C60.9588 90.3067 61.2337 89.7868 61.5988 89.3393C61.9639 88.8933 62.4176 88.5448 62.9616 88.2981C63.5055 88.05 64.1351 87.926 64.8505 87.926C65.5955 87.926 66.2251 88.053 66.7424 88.3085C67.2568 88.5625 67.6884 88.8889 68.0313 89.2876V84.7064C68.0313 84.5691 68.0756 84.4524 68.1673 84.3564C68.256 84.2604 68.3772 84.2117 68.5279 84.2117H70.2839C70.4198 84.2117 70.5381 84.2604 70.6356 84.3564C70.7302 84.4524 70.7775 84.5691 70.7775 84.7064V98.3688C70.7775 98.5061 70.7302 98.6228 70.6356 98.7188C70.5381 98.8148 70.4198 98.8635 70.2839 98.8635H68.6521C68.4984 98.8635 68.3801 98.8148 68.2914 98.7188C68.1998 98.6228 68.1555 98.5061 68.1555 98.3688V97.6052C67.8126 98.0306 67.375 98.3821 66.8429 98.6568C66.3138 98.9329 65.6487 99.0703 64.8505 99.0703ZM65.6162 96.8624C66.1926 96.8624 66.6538 96.731 66.9996 96.4696C67.3425 96.2081 67.5968 95.8744 67.7623 95.4682C67.9278 95.0636 68.0195 94.6471 68.0313 94.2203C68.0461 93.9722 68.052 93.7078 68.052 93.4258C68.052 93.1437 68.0461 92.8793 68.0313 92.6312C68.0195 92.2192 67.9219 91.8234 67.7416 91.4453C67.5642 91.0672 67.3011 90.7541 66.9582 90.506C66.6124 90.2579 66.166 90.1339 65.6162 90.1339C65.0368 90.1339 64.58 90.2624 64.243 90.5164C63.9046 90.7704 63.6607 91.1042 63.5099 91.5177C63.3577 91.9297 63.2675 92.3831 63.2409 92.8793C63.2276 93.2914 63.2276 93.7049 63.2409 94.1169C63.2675 94.6132 63.3577 95.0665 63.5099 95.4786C63.6607 95.8921 63.9046 96.2259 64.243 96.4799C64.58 96.7354 65.0368 96.8624 65.6162 96.8624Z" fill="white"/>
<path d="M84.2026 99.0703C83.4045 99.0703 82.7408 98.9329 82.2102 98.6568C81.6796 98.3821 81.2436 98.0306 80.8992 97.6052V98.3688C80.8992 98.5061 80.8534 98.6228 80.7647 98.7188C80.6745 98.8148 80.5548 98.8635 80.4026 98.8635H78.7723C78.6333 98.8635 78.5166 98.8148 78.4205 98.7188C78.3244 98.6228 78.2756 98.5061 78.2756 98.3688V84.7064C78.2756 84.5691 78.3244 84.4524 78.4205 84.3564C78.5166 84.2604 78.6333 84.2117 78.7723 84.2117H80.5267C80.679 84.2117 80.7987 84.2604 80.8888 84.3564C80.9775 84.4524 81.0233 84.5691 81.0233 84.7064V89.2876C81.3663 88.8889 81.7978 88.5625 82.3137 88.3085C82.8295 88.053 83.4592 87.926 84.2026 87.926C84.9328 87.926 85.5669 88.05 86.1034 88.2981C86.64 88.5448 87.0908 88.8933 87.4558 89.3393C87.8209 89.7868 88.1003 90.3067 88.2924 90.8974C88.486 91.4896 88.588 92.1291 88.6028 92.8173C88.6161 93.0654 88.6235 93.2884 88.6235 93.4878C88.6235 93.6872 88.6161 93.9102 88.6028 94.1583C88.5747 94.8746 88.4654 95.5303 88.2717 96.1299C88.0796 96.728 87.8032 97.2479 87.4455 97.688C87.0878 98.1281 86.64 98.4677 86.1034 98.7085C85.5669 98.9492 84.9328 99.0703 84.2026 99.0703ZM83.4385 96.8624C84.0312 96.8624 84.4923 96.7354 84.8234 96.4799C85.153 96.2259 85.391 95.8921 85.5358 95.4786C85.6807 95.0665 85.7664 94.6132 85.793 94.1169C85.8211 93.7049 85.8211 93.2914 85.793 92.8793C85.7664 92.3831 85.6807 91.9297 85.5358 91.5177C85.391 91.1042 85.153 90.7704 84.8234 90.5164C84.4923 90.2624 84.0312 90.1339 83.4385 90.1339C82.8886 90.1339 82.4408 90.2579 82.0964 90.506C81.752 90.7541 81.4904 91.0672 81.3116 91.4453C81.1327 91.8234 81.0366 92.2192 81.0233 92.6312C81.0086 92.8793 81.0026 93.1437 81.0026 93.4258C81.0026 93.7078 81.0086 93.9722 81.0233 94.2203C81.0499 94.6471 81.1431 95.0636 81.3012 95.4682C81.4594 95.8744 81.7151 96.2081 82.0654 96.4696C82.4171 96.731 82.8739 96.8624 83.4385 96.8624Z" fill="white"/>
<path d="M92.4237 102.785C92.3128 102.785 92.2167 102.743 92.134 102.661C92.0512 102.578 92.0098 102.482 92.0098 102.371C92.0098 102.316 92.0128 102.265 92.0202 102.217C92.0276 102.169 92.0512 102.11 92.0926 102.042L93.7037 98.2241L89.738 88.8756C89.6834 88.7383 89.6553 88.6423 89.6553 88.5861C89.6686 88.4636 89.7174 88.3558 89.8001 88.2671C89.8829 88.1771 89.9864 88.1328 90.1105 88.1328H91.7837C91.9477 88.1328 92.0719 88.1741 92.1547 88.2568C92.2374 88.3395 92.2995 88.4281 92.3409 88.5241L95.0871 95.2733L97.9176 88.5241C97.959 88.4148 98.0196 88.3218 98.1024 88.2465C98.1851 88.1711 98.3093 88.1328 98.4748 88.1328H100.127C100.237 88.1328 100.337 88.1741 100.426 88.2568C100.516 88.3395 100.56 88.4355 100.56 88.5448C100.56 88.6275 100.532 88.7383 100.478 88.8756L94.6334 102.392C94.5772 102.502 94.5092 102.596 94.4264 102.671C94.3437 102.746 94.2195 102.785 94.0554 102.785H92.4237Z" fill="white"/>
<path d="M157.224 106.026H158.478V101.361H163.013V100.242H158.478V96.7234H163.466V95.6039H157.224V106.026Z" fill="white"/>
<path d="M168.215 98.1096C166.107 98.1096 164.667 99.7088 164.667 102.161C164.667 104.587 166.081 106.186 168.215 106.186C170.349 106.186 171.763 104.587 171.763 102.161C171.763 99.7088 170.322 98.1096 168.215 98.1096ZM168.215 105.093C166.614 105.093 165.867 103.707 165.867 102.134C165.867 100.562 166.588 99.1757 168.215 99.1757C169.815 99.1757 170.562 100.588 170.562 102.134C170.562 103.707 169.815 105.093 168.215 105.093Z" fill="white"/>
<path d="M178.672 102.827C178.672 104.293 177.552 104.96 176.645 104.96C175.658 104.96 174.937 104.24 174.937 103.094V98.2161H173.737V103.174C173.737 105.173 174.804 106.133 176.271 106.133C177.445 106.133 178.218 105.493 178.592 104.72H178.672V106.053H179.872V98.2161H178.672V102.827Z" fill="white"/>
<path d="M186.035 98.1096C184.861 98.1096 184.114 98.6427 183.767 99.4423H183.66V98.2162H182.513V106.026H183.714V101.308C183.714 99.9487 184.567 99.1757 185.714 99.1757C186.835 99.1757 187.502 99.8954 187.502 101.122V105.999H188.702V101.042C188.676 99.0691 187.608 98.1096 186.035 98.1096Z" fill="white"/>
<path d="M196.492 99.4422H196.385C196.118 99.0424 195.665 98.1095 194.118 98.1095C192.144 98.1095 190.783 99.6821 190.783 102.134C190.783 104.613 192.144 106.186 194.091 106.186C195.585 106.186 196.118 105.253 196.358 104.826H196.492V106.026H197.639V95.6039H196.438V99.4422H196.492ZM194.278 105.093C192.784 105.093 192.01 103.76 192.01 102.108C192.01 100.455 192.757 99.1757 194.278 99.1757C195.745 99.1757 196.518 100.348 196.518 102.108C196.519 103.867 195.718 105.093 194.278 105.093Z" fill="white"/>
<path d="M203.294 98.1096C202.12 98.1096 200.76 98.5094 200.173 99.9487L201.32 100.349C201.587 99.7888 202.2 99.1757 203.348 99.1757C204.468 99.1757 205.001 99.7621 205.001 100.775C205.001 101.361 204.415 101.335 202.974 101.495C201.534 101.681 199.933 102.001 199.933 103.787C199.933 105.306 201.107 106.186 202.601 106.186C203.961 106.186 204.681 105.466 204.921 104.933H204.975V105.999H206.175V100.882C206.202 98.4028 204.308 98.1096 203.294 98.1096ZM205.001 103.201C205.001 104.187 204.228 105.12 202.814 105.12C201.854 105.12 201.16 104.693 201.16 103.867C201.16 102.961 201.987 102.667 202.921 102.534C203.428 102.481 204.788 102.321 205.001 102.081L205.001 103.201Z" fill="white"/>
<path d="M211.59 104.96C211.057 104.96 210.55 104.8 210.55 103.787V99.229H212.231V98.2161H210.55V96.3503H209.35V98.2161H208.176V99.229H209.35V104.107C209.35 105.466 210.443 106.133 211.457 106.133C211.911 106.133 212.177 106.053 212.364 105.999L212.124 104.933C212.017 104.906 211.857 104.96 211.59 104.96Z" fill="white"/>
<path d="M215.725 98.2161H214.525V106.026H215.725V98.2161Z" fill="white"/>
<path d="M215.138 95.3108C214.658 95.3108 214.285 95.684 214.285 96.1371C214.285 96.5902 214.685 96.9634 215.138 96.9634C215.619 96.9634 215.992 96.5902 215.992 96.1371C215.992 95.6573 215.619 95.3108 215.138 95.3108Z" fill="white"/>
<path d="M221.408 98.1096C219.3 98.1096 217.86 99.7088 217.86 102.161C217.86 104.587 219.273 106.186 221.408 106.186C223.542 106.186 224.956 104.587 224.956 102.161C224.929 99.7088 223.515 98.1096 221.408 98.1096ZM221.408 105.093C219.807 105.093 219.06 103.707 219.06 102.134C219.06 100.562 219.78 99.1757 221.408 99.1757C223.008 99.1757 223.755 100.588 223.755 102.134C223.728 103.707 223.008 105.093 221.408 105.093Z" fill="white"/>
<path d="M230.451 98.1096C229.277 98.1096 228.53 98.6427 228.183 99.4423H228.077V98.2162H226.93V106.026H228.13V101.308C228.13 99.9487 228.984 99.1757 230.131 99.1757C231.251 99.1757 231.918 99.8954 231.918 101.122V105.999H233.118V101.042C233.092 99.0691 232.025 98.1096 230.451 98.1096Z" fill="white"/>
<path d="M165.707 84.9422H161.359V86.5947H163.547C163.547 87.9008 162.506 88.7005 161.199 88.7005C159.572 88.7005 158.531 87.501 158.531 85.2887C158.531 83.1563 159.545 81.9036 161.146 81.9036C162.293 81.9036 163.066 82.49 163.387 83.4762H165.627C165.334 81.4238 163.493 79.9578 161.146 79.9578C158.398 79.9578 156.317 81.9302 156.317 85.3153C156.317 88.6205 158.291 90.6462 161.199 90.6462C163.84 90.6462 165.734 88.9937 165.734 86.2482L165.707 84.9422Z" fill="white"/>
<path d="M169.949 84.0626H169.869V82.7032H167.761V90.513H169.922V86.0883C169.922 85.1287 170.616 84.489 171.496 84.489C171.79 84.489 172.03 84.569 172.243 84.6756L172.883 82.8898C172.59 82.7298 172.243 82.5966 171.816 82.5966C170.936 82.5966 170.216 83.103 169.949 84.0626Z" fill="white"/>
<path d="M177.258 82.5966C175.337 82.5966 174.11 83.5028 173.817 84.9155L175.818 85.0754C175.978 84.569 176.431 84.1692 177.205 84.1692C177.952 84.1692 178.352 84.5423 178.352 85.182C178.352 85.6885 177.818 85.7685 176.458 85.9017C174.911 86.035 173.523 86.5681 173.523 88.3006C173.523 89.8466 174.617 90.6196 176.111 90.6196C177.258 90.6196 178.005 90.1131 178.405 89.3935H178.459V90.4863H180.513V85.2354C180.539 83.3695 178.939 82.5966 177.258 82.5966ZM178.379 87.7142C178.379 88.5405 177.712 89.1536 176.751 89.1536C176.084 89.1536 175.604 88.8337 175.604 88.2473C175.604 87.6343 176.111 87.3411 176.858 87.2345C177.338 87.1811 178.112 87.0479 178.352 86.8879V87.7142H178.379Z" fill="white"/>
<path d="M187.102 82.5966C185.795 82.5966 185.181 83.3695 184.888 84.0092H184.781V82.7032H182.647V93.445H184.808V89.2602H184.861C185.155 89.8999 185.821 90.6462 187.075 90.6462C188.863 90.6462 190.25 89.2335 190.25 86.6214C190.276 83.9293 188.809 82.5966 187.102 82.5966ZM186.408 88.9137C185.368 88.9137 184.781 88.0074 184.754 86.5947C184.754 85.2087 185.341 84.3024 186.408 84.3024C187.475 84.3024 188.062 85.2354 188.062 86.5947C188.062 87.9808 187.475 88.9137 186.408 88.9137Z" fill="white"/>
<path d="M196.678 82.5966C195.505 82.5966 194.704 83.1563 194.331 84.0626H194.251V80.091H192.143V90.513H194.304V85.9817C194.304 84.9688 194.918 84.3824 195.798 84.3824C196.678 84.3824 197.185 84.9422 197.185 85.9017V90.4863H199.346V85.5286C199.373 83.7161 198.306 82.5966 196.678 82.5966Z" fill="white"/>
<path d="M210.524 91.3659L209.03 89.5001C210.043 88.5938 210.684 87.1545 210.684 85.3153C210.684 81.9035 208.576 79.9578 205.802 79.9578C203.027 79.9578 200.92 81.9035 200.92 85.3153C200.92 88.7005 203.027 90.6729 205.802 90.6729C206.442 90.6729 207.056 90.5663 207.616 90.353L208.443 91.3926H210.524V91.3659ZM207.696 87.8742L206.922 86.888H205.055L206.389 88.6472C206.202 88.6738 206.015 88.7005 205.828 88.7005C204.228 88.7005 203.188 87.501 203.188 85.2887C203.188 83.0763 204.228 81.8769 205.828 81.8769C207.429 81.8769 208.469 83.0763 208.469 85.2887C208.469 86.4348 208.176 87.3144 207.696 87.8742Z" fill="white"/>
<path d="M219.434 88.7005H214.952V80.091H212.764V90.513H219.434V88.7005Z" fill="white"/>
<path d="M147.567 88.7538C149.141 87.8475 149.675 85.8218 148.768 84.2491C147.861 82.6765 145.86 82.1434 144.313 83.0497C144.019 83.2096 143.779 83.4228 143.566 83.6361L136.017 79.2381C136.097 78.9449 136.15 78.625 136.15 78.3052C136.15 76.466 134.683 75 132.895 75C131.108 75 129.614 76.466 129.614 78.3052C129.614 78.625 129.668 78.9449 129.748 79.2381L122.198 83.6361C121.985 83.4229 121.745 83.2096 121.451 83.0497C119.904 82.1168 117.903 82.6765 116.996 84.2491C116.089 85.8218 116.65 87.8475 118.197 88.7538C118.464 88.9137 118.757 89.0203 119.077 89.1003V97.8963C118.784 97.9762 118.49 98.0829 118.223 98.2428C116.65 99.149 116.116 101.175 117.023 102.747C117.93 104.32 119.904 104.853 121.478 103.947C121.745 103.787 121.985 103.574 122.198 103.36L129.748 107.758C129.668 108.052 129.614 108.372 129.614 108.691C129.614 110.504 131.081 111.997 132.869 111.997C134.656 111.997 136.123 110.504 136.123 108.691C136.123 108.318 136.07 107.972 135.963 107.652L143.459 103.281C143.673 103.547 143.966 103.76 144.26 103.947C145.833 104.853 147.834 104.32 148.715 102.747C149.622 101.175 149.088 99.149 147.514 98.2428C147.247 98.0829 146.954 97.9762 146.66 97.8963V89.1003C147.007 89.0203 147.274 88.9137 147.567 88.7538ZM120.758 97.9229C120.704 97.9229 120.678 97.8963 120.624 97.8963V89.1003C121.451 88.887 122.198 88.354 122.678 87.5543C123.132 86.7547 123.212 85.8218 122.998 84.9955L130.548 80.5975C130.575 80.6241 130.601 80.6508 130.628 80.6774L120.758 97.9229ZM135.296 106.452C134.709 105.786 133.829 105.386 132.895 105.386C131.962 105.386 131.135 105.786 130.548 106.399L122.972 102.001C122.972 101.948 122.998 101.921 122.998 101.868H142.739C142.766 101.948 142.766 102.001 142.792 102.081L135.296 106.452ZM143.086 99.4423C142.926 99.7088 142.819 100.002 142.739 100.322H123.025C122.945 100.029 122.838 99.7355 122.678 99.4423C122.518 99.1757 122.332 98.9092 122.092 98.6959L131.962 81.4504C132.255 81.5304 132.549 81.5837 132.869 81.5837C133.189 81.5837 133.482 81.5304 133.776 81.4504L143.646 98.6959C143.459 98.9092 143.246 99.1491 143.086 99.4423ZM145.14 97.8963C145.087 97.8963 145.06 97.9229 145.006 97.9229L135.136 80.6774C135.163 80.6508 135.19 80.6241 135.216 80.5975L142.766 84.9955C142.526 85.8218 142.606 86.728 143.086 87.5543C143.539 88.354 144.286 88.887 145.14 89.1003V97.8963Z" fill="white"/>
<path d="M26.9368 17.345C26.2533 16.0873 25.273 15.1261 23.9959 14.4606C22.7187 13.796 21.2173 13.4637 19.4907 13.4637C16.5043 13.4637 14.1125 14.4432 12.3143 16.4013C10.5142 18.3612 9.61602 20.9762 9.61602 24.246C9.61602 27.7332 10.5606 30.4564 12.4487 32.4144C14.3378 34.3744 16.9355 35.353 20.2457 35.353C22.5118 35.353 24.428 34.7782 25.9922 33.6277C27.5575 32.4782 28.6992 30.8244 29.4195 28.6674H17.7099V21.8745H37.7831V30.4467C37.0995 32.7477 35.9394 34.8864 34.3027 36.8628C32.6649 38.8402 30.5873 40.4398 28.0699 41.6609C25.5514 42.8838 22.7091 43.4943 19.5448 43.4943C15.8024 43.4943 12.4661 42.6771 9.53481 41.0417C6.60258 39.4062 4.31808 37.1323 2.6823 34.2208C1.04458 31.3093 0.226685 27.9854 0.226685 24.246C0.226685 20.5086 1.04458 17.175 2.6823 14.2452C4.31808 11.3163 6.59388 9.03367 9.50774 7.39728C12.4216 5.76283 15.7483 4.94464 19.4907 4.94464C24.0229 4.94464 27.8446 6.04104 30.9566 8.23383C34.0677 10.4266 36.1279 13.4637 37.1353 17.345H26.9368Z" fill="white"/>
<path d="M56.1828 14.2452C57.8012 13.2927 59.6003 12.8165 61.5784 12.8165V22.5749H59.0425C56.7406 22.5749 55.013 23.0695 53.8625 24.0577C52.7111 25.0468 52.1359 26.7808 52.1359 29.2605V43.2248H42.9089V13.1401H52.1359V18.1536C53.2148 16.5008 54.5644 15.1976 56.1828 14.2452Z" fill="white"/>
<path d="M65.923 19.987C67.0909 17.6513 68.6832 15.8545 70.698 14.5958C72.7127 13.3381 74.9605 12.7083 77.4432 12.7083C79.5652 12.7083 81.4272 13.1401 83.0282 14.0027C84.6282 14.8653 85.8609 15.9975 86.7242 17.3991V13.1401H95.9511V43.2248H86.7242V38.9658C85.8241 40.3674 84.5741 41.4996 82.9741 42.3622C81.3731 43.2248 79.5111 43.6566 77.389 43.6566C74.9421 43.6566 72.7127 43.0181 70.698 41.742C68.6832 40.4669 67.0909 38.6509 65.923 36.2967C64.7532 33.9426 64.1693 31.2205 64.1693 28.1284C64.1693 25.0372 64.7532 22.3237 65.923 19.987ZM84.809 22.7372C83.5309 21.407 81.9754 20.7414 80.1414 20.7414C78.3065 20.7414 76.75 21.3983 75.4738 22.7101C74.1958 24.0219 73.5577 25.8283 73.5577 28.1284C73.5577 30.4293 74.1958 32.2531 75.4738 33.6007C76.75 34.9492 78.3065 35.6225 80.1414 35.6225C81.9754 35.6225 83.5309 34.9579 84.809 33.6277C86.0852 32.2985 86.7242 30.4834 86.7242 28.1824C86.7242 25.8824 86.0852 24.0673 84.809 22.7372Z" fill="white"/>
<path d="M115.592 14.0027C117.174 13.1401 119.026 12.7083 121.149 12.7083C123.632 12.7083 125.879 13.3381 127.895 14.5958C129.908 15.8545 131.501 17.6513 132.669 19.987C133.839 22.3237 134.423 25.0372 134.423 28.1284C134.423 31.2205 133.839 33.9426 132.669 36.2967C131.501 38.6509 129.908 40.4669 127.895 41.742C125.879 43.0181 123.632 43.6566 121.149 43.6566C119.063 43.6566 117.218 43.2248 115.619 42.3622C114.017 41.4995 112.767 40.3858 111.868 39.0189V57.5668H102.641V13.1401H111.868V17.3991C112.767 15.9975 114.009 14.8653 115.592 14.0027ZM123.119 22.7101C121.841 21.3983 120.267 20.7414 118.398 20.7414C116.563 20.7414 115.006 21.407 113.73 22.7372C112.453 24.0673 111.815 25.8824 111.815 28.1824C111.815 30.4834 112.453 32.2985 113.73 33.6277C115.006 34.9579 116.563 35.6225 118.398 35.6225C120.233 35.6225 121.797 34.9492 123.092 33.6007C124.388 32.2531 125.034 30.4293 125.034 28.1284C125.034 25.8283 124.396 24.0219 123.119 22.7101Z" fill="white"/>
<path d="M166.097 16.2399C168.183 18.5226 169.226 21.6582 169.226 25.6486V43.2248H160.053V26.888C160.053 24.8759 159.531 23.3119 158.488 22.1972C157.445 21.0844 156.042 20.526 154.28 20.526C152.516 20.526 151.113 21.0844 150.07 22.1972C149.027 23.3119 148.506 24.8759 148.506 26.888V43.2248H139.278V3.32661H148.506V17.1837C149.441 15.8545 150.718 14.7939 152.337 14.0027C153.956 13.2125 155.771 12.8165 157.787 12.8165C161.24 12.8165 164.01 13.9573 166.097 16.2399Z" fill="white"/>
<path d="M202.628 49.695L197.771 43.1707C196.332 43.4586 194.93 43.6025 193.563 43.6025C190.001 43.6025 186.736 42.7756 183.769 41.1218C180.801 39.469 178.444 37.1594 176.7 34.1938C174.955 31.2282 174.083 27.8946 174.083 24.1929C174.083 20.4912 174.955 17.1654 176.7 14.2181C178.444 11.2709 180.801 8.97088 183.769 7.31711C186.736 5.66431 190.001 4.83646 193.563 4.83646C197.124 4.83646 200.388 5.66431 203.356 7.31711C206.324 8.97088 208.662 11.2709 210.371 14.2181C212.079 17.1654 212.934 20.4912 212.934 24.1929C212.934 27.427 212.277 30.3839 210.965 33.0616C209.651 35.7394 207.825 37.9592 205.488 39.7202L213.797 49.695H202.628ZM186.251 32.199C188.066 34.1938 190.505 35.1916 193.563 35.1916C196.584 35.1916 199.003 34.1851 200.82 32.172C202.636 30.1598 203.545 27.4995 203.545 24.1929C203.545 20.8496 202.636 18.1806 200.82 16.1858C199.003 14.1911 196.584 13.1932 193.563 13.1932C190.505 13.1932 188.066 14.1824 186.251 16.1588C184.434 18.1362 183.526 20.8139 183.526 24.1929C183.526 27.5352 184.434 30.2042 186.251 32.199Z" fill="white"/>
<path d="M227.395 36.1084H239.482V43.2248H218.167V5.37549H227.395V36.1084Z" fill="white"/>
<path d="M244.77 14.2452C246.388 11.3163 248.646 9.03367 251.541 7.39728C254.437 5.76283 257.72 4.94464 261.389 4.94464C265.885 4.94464 269.734 6.13087 272.937 8.50334C276.138 10.8748 278.278 14.1099 279.357 18.2076H269.213C268.458 16.6263 267.387 15.4227 266.002 14.5958C264.618 13.7689 263.043 13.3555 261.281 13.3555C258.439 13.3555 256.136 14.3447 254.374 16.3211C252.611 18.2975 251.731 20.9395 251.731 24.246C251.731 27.5536 252.611 30.1955 254.374 32.172C256.136 34.1493 258.439 35.1375 261.281 35.1375C263.043 35.1375 264.618 34.7251 266.002 33.8972C267.387 33.0713 268.458 31.8667 269.213 30.2854H279.357C278.278 34.3821 276.138 37.6095 272.937 39.9626C269.734 42.3177 265.885 43.4943 261.389 43.4943C257.72 43.4943 254.437 42.6771 251.541 41.0417C248.646 39.4062 246.388 37.1323 244.77 34.2208C243.151 31.3093 242.341 27.9854 242.341 24.246C242.341 20.5086 243.151 17.175 244.77 14.2452Z" fill="white"/>
<path d="M290.77 41.7691C288.413 40.5113 286.561 38.7146 285.212 36.3779C283.863 34.0412 283.189 31.3094 283.189 28.1824C283.189 25.0913 283.871 22.3682 285.239 20.0141C286.605 17.6599 288.477 15.8545 290.85 14.5958C293.225 13.3381 295.886 12.7083 298.837 12.7083C301.787 12.7083 304.449 13.3381 306.823 14.5958C309.197 15.8545 311.068 17.6599 312.435 20.0141C313.802 22.3682 314.485 25.0913 314.485 28.1824C314.485 31.2736 313.792 33.9967 312.408 36.3508C311.022 38.705 309.134 40.5113 306.742 41.7691C304.35 43.0277 301.678 43.6566 298.729 43.6566C295.779 43.6566 293.125 43.0277 290.77 41.7691ZM303.235 33.7359C304.476 32.4415 305.096 30.5907 305.096 28.1824C305.096 25.7742 304.494 23.9224 303.289 22.629C302.083 21.3346 300.599 20.6883 298.837 20.6883C297.038 20.6883 295.545 21.3268 294.358 22.6019C293.171 23.878 292.577 25.7385 292.577 28.1824C292.577 30.5907 293.162 32.4415 294.331 33.7359C295.5 35.0294 296.966 35.6766 298.729 35.6766C300.491 35.6766 301.993 35.0294 303.235 33.7359Z" fill="white"/>
<path d="M346.187 16.2399C348.291 18.5226 349.343 21.6582 349.343 25.6487V43.2248H340.17V26.888C340.17 24.8759 339.648 23.3119 338.605 22.1972C337.562 21.0844 336.159 20.526 334.397 20.526C332.633 20.526 331.231 21.0844 330.188 22.1972C329.144 23.3119 328.623 24.8759 328.623 26.888V43.2248H319.395V13.1401H328.623V17.1296C329.558 15.8004 330.817 14.7485 332.4 13.9757C333.983 13.2029 335.764 12.8165 337.742 12.8165C341.268 12.8165 344.083 13.9573 346.187 16.2399Z" fill="white"/>
<path d="M370.872 20.7955H365.909V43.2248H356.681V20.7955H353.336V13.1401H356.681V12.2774C356.681 8.57578 357.742 5.76283 359.865 3.83955C361.987 1.91723 365.099 0.955109 369.2 0.955109C369.883 0.955109 370.387 0.973462 370.711 1.00824V8.82597C368.947 8.71875 367.707 8.97087 366.988 9.58137C366.268 10.1928 365.909 11.2892 365.909 12.8706V13.1401H370.872V20.7955Z" fill="white"/>
<path d="M398.691 33.0772C400.85 31.1153 402.671 29.0635 404.155 26.9219C405.639 24.7803 406.381 22.6754 406.381 20.6092C406.381 18.6627 405.908 17.1268 404.964 16.0034C404.02 14.8809 402.497 14.3187 400.4 14.3187C398.361 14.3187 396.78 14.9553 395.656 16.2284C394.532 17.5016 393.925 19.2017 393.835 21.3279H389.878C389.997 17.974 391.017 15.3822 392.935 13.5546C394.853 11.7279 397.327 10.8141 400.355 10.8141C403.442 10.8141 405.893 11.668 407.707 13.3749C409.52 15.0828 410.428 17.434 410.428 20.4295C410.428 22.916 409.685 25.3348 408.201 27.685C406.717 30.0372 405.031 32.1044 403.143 33.8857C401.254 35.668 398.841 37.7429 395.903 40.1086H411.372V43.5234H389.743V40.6032C393.55 37.5478 396.532 35.0391 398.691 33.0772Z" fill="white"/>
<path d="M418.611 15.2406C420.29 12.3503 423.227 10.9043 427.425 10.9043C431.591 10.9043 434.514 12.3503 436.193 15.2406C437.872 18.1308 438.711 22.1522 438.711 27.3038C438.711 32.5462 437.872 36.6198 436.193 39.5245C434.514 42.4302 431.591 43.8831 427.425 43.8831C423.227 43.8831 420.29 42.4302 418.611 39.5245C416.931 36.6198 416.093 32.5462 416.093 27.3038C416.093 22.1522 416.931 18.1308 418.611 15.2406ZM434.147 20.6772C433.802 18.865 433.098 17.4044 432.033 16.2964C430.969 15.1884 429.433 14.6339 427.425 14.6339C425.386 14.6339 423.834 15.1884 422.771 16.2964C421.706 17.4044 421.001 18.865 420.657 20.6772C420.312 22.4894 420.14 24.6976 420.14 27.3038C420.14 29.9999 420.312 32.2613 420.657 34.088C421.001 35.9156 421.706 37.3839 422.771 38.4919C423.834 39.5999 425.386 40.1544 427.425 40.1544C429.433 40.1544 430.969 39.5999 432.033 38.4919C433.098 37.3839 433.802 35.9156 434.147 34.088C434.491 32.2613 434.664 29.9999 434.664 27.3038C434.664 24.6976 434.491 22.4894 434.147 20.6772Z" fill="white"/>
<path d="M452.785 33.0775C454.944 31.1156 456.764 29.0639 458.248 26.9223C459.732 24.7807 460.475 22.6758 460.475 20.6095C460.475 18.6631 460.002 17.1272 459.058 16.0037C458.114 14.8812 456.591 14.319 454.493 14.319C452.455 14.319 450.874 14.9556 449.749 16.2288C448.626 17.502 448.019 19.2021 447.929 21.3282H443.972C444.091 17.9743 445.111 15.3826 447.029 13.5549C448.947 11.7283 451.421 10.8144 454.449 10.8144C457.536 10.8144 459.987 11.6684 461.801 13.3753C463.614 15.0831 464.522 17.4343 464.522 20.4299C464.522 22.9163 463.779 25.3352 462.295 27.6854C460.811 30.0376 459.125 32.1048 457.237 33.8861C455.348 35.6683 452.935 37.7433 449.997 40.109H465.465V43.5237H443.837V40.6036C447.644 37.5481 450.626 35.0395 452.785 33.0775Z" fill="white"/>
<path d="M473.29 13.1057C475.208 11.5486 477.696 10.77 480.754 10.77C482.792 10.77 484.553 11.1371 486.037 11.8702C487.521 12.6044 488.646 13.6003 489.411 14.858C490.174 16.1167 490.557 17.5396 490.557 19.1267C490.557 20.9843 490.024 22.5859 488.96 23.9345C487.896 25.282 486.51 26.1514 484.801 26.5397V26.7648C486.749 27.2439 488.293 28.1877 489.433 29.5952C490.572 31.0036 491.141 32.8457 491.141 35.1216C491.141 36.8294 490.751 38.3644 489.972 39.7274C489.192 41.0904 488.023 42.1607 486.465 42.9393C484.905 43.7189 483.032 44.1081 480.844 44.1081C477.666 44.1081 475.058 43.2764 473.02 41.614C470.981 39.9515 469.842 37.5926 469.602 34.5381H473.559C473.769 36.3348 474.504 37.8031 475.763 38.9411C477.022 40.079 478.701 40.648 480.8 40.648C482.897 40.648 484.494 40.1022 485.588 39.0077C486.682 37.9152 487.23 36.5 487.23 34.7622C487.23 32.5153 486.479 30.8983 484.981 29.9101C483.481 28.9219 481.218 28.4273 478.191 28.4273H477.157V25.0125H478.236C480.994 24.9826 483.077 24.5256 484.487 23.6418C485.895 22.7589 486.6 21.3891 486.6 19.5315C486.6 17.9434 486.083 16.6712 485.048 15.712C484.014 14.7537 482.538 14.2746 480.619 14.2746C478.761 14.2746 477.261 14.7537 476.122 15.712C474.983 16.6712 474.309 17.9589 474.099 19.5759H470.097C470.306 16.8209 471.371 14.6639 473.29 13.1057Z" fill="white"/>
</svg>
