<svg width="206" height="24" viewBox="0 0 206 24" fill="none" xmlns="http://www.w3.org/2000/svg">
<path d="M11.1706 7.01656C10.8848 6.49056 10.4748 6.08859 9.94066 5.81024C9.40655 5.5323 8.77864 5.39332 8.05652 5.39332C6.80757 5.39332 5.80728 5.80297 5.05524 6.62186C4.30239 7.44156 3.92678 8.53517 3.92678 9.90268C3.92678 11.3611 4.3218 12.4999 5.11144 13.3188C5.90148 14.1385 6.9879 14.5478 8.3723 14.5478C9.32003 14.5478 10.1214 14.3074 10.7756 13.8263C11.4302 13.3455 11.9077 12.6539 12.2089 11.7518H7.31176V8.91088H15.7067V12.4959C15.4208 13.4582 14.9357 14.3527 14.2511 15.1792C13.5662 16.0062 12.6973 16.6752 11.6445 17.1858C10.5912 17.6973 9.40251 17.9526 8.07916 17.9526C6.51403 17.9526 5.11872 17.6108 3.89281 16.9269C2.6665 16.2429 1.71109 15.2919 1.02698 14.0743C0.342056 12.8567 0 11.4665 0 9.90268C0 8.33964 0.342056 6.94546 1.02698 5.72015C1.71109 4.49525 2.66287 3.54061 3.88149 2.85625C5.10012 2.1727 6.49139 1.83052 8.05652 1.83052C9.95198 1.83052 11.5503 2.28905 12.8518 3.20611C14.1529 4.12317 15.0145 5.39332 15.4358 7.01656H11.1706Z" fill="white"/>
<path d="M23.4019 5.72018C24.0788 5.32184 24.8312 5.12267 25.6585 5.12267V9.2038H24.5979C23.6352 9.2038 22.9127 9.41064 22.4316 9.82393C21.95 10.2376 21.7094 10.9628 21.7094 11.9998V17.8399H17.8506V5.25801H21.7094V7.35473C22.1607 6.6635 22.7251 6.11851 23.4019 5.72018Z" fill="white"/>
<path d="M27.4753 8.1215C27.9637 7.14464 28.6296 6.39322 29.4722 5.86682C30.3148 5.34082 31.2549 5.07742 32.2932 5.07742C33.1806 5.07742 33.9594 5.258 34.6289 5.61877C35.2981 5.97953 35.8136 6.45301 36.1747 7.0392V5.258H40.0335V17.8399H36.1747V16.0587C35.7982 16.6449 35.2754 17.1184 34.6063 17.4792C33.9367 17.8399 33.158 18.0205 32.2705 18.0205C31.2472 18.0205 30.3148 17.7535 29.4722 17.2198C28.6296 16.6865 27.9637 15.927 27.4753 14.9425C26.986 13.958 26.7418 12.8195 26.7418 11.5263C26.7418 10.2336 26.986 9.09875 27.4753 8.1215ZM35.3737 9.27166C34.8392 8.71536 34.1886 8.43701 33.4216 8.43701C32.6542 8.43701 32.0033 8.71173 31.4696 9.26035C30.935 9.80897 30.6682 10.5644 30.6682 11.5263C30.6682 12.4886 30.935 13.2514 31.4696 13.815C32.0033 14.3789 32.6542 14.6605 33.4216 14.6605C34.1886 14.6605 34.8392 14.3826 35.3737 13.8263C35.9074 13.2704 36.1747 12.5113 36.1747 11.549C36.1747 10.5871 35.9074 9.82796 35.3737 9.27166Z" fill="white"/>
<path d="M48.2476 5.61877C48.9091 5.258 49.6837 5.07742 50.5716 5.07742C51.6099 5.07742 52.5496 5.34082 53.393 5.86682C54.2348 6.39322 54.9011 7.14464 55.3895 8.1215C55.8788 9.09875 56.123 10.2336 56.123 11.5263C56.123 12.8195 55.8788 13.958 55.3895 14.9425C54.9011 15.927 54.2348 16.6865 53.393 17.2198C52.5496 17.7535 51.6099 18.0205 50.5716 18.0205C49.6991 18.0205 48.9277 17.8399 48.2589 17.4792C47.589 17.1184 47.0662 16.6526 46.6901 16.0809V23.838H42.8313V5.258H46.6901V7.0392C47.0662 6.45301 47.5853 5.97953 48.2476 5.61877ZM51.3956 9.26035C50.8611 8.71173 50.2029 8.43701 49.4209 8.43701C48.6535 8.43701 48.0026 8.71536 47.4689 9.27166C46.9348 9.82796 46.6679 10.5871 46.6679 11.549C46.6679 12.5113 46.9348 13.2704 47.4689 13.8263C48.0026 14.3826 48.6535 14.6605 49.4209 14.6605C50.1883 14.6605 50.8425 14.3789 51.3843 13.815C51.9261 13.2514 52.1962 12.4886 52.1962 11.5263C52.1962 10.5644 51.9293 9.80897 51.3956 9.26035Z" fill="white"/>
<path d="M69.3695 6.55442C70.242 7.50905 70.6782 8.82041 70.6782 10.4893V17.8399H66.842V11.0076C66.842 10.1661 66.6237 9.51204 66.1874 9.04584C65.7512 8.58044 65.1645 8.34693 64.4274 8.34693C63.6899 8.34693 63.1033 8.58044 62.667 9.04584C62.2307 9.51204 62.0128 10.1661 62.0128 11.0076V17.8399H58.1536V1.15385H62.0128V6.94912C62.4038 6.39323 62.9379 5.94964 63.6151 5.61877C64.292 5.28831 65.0513 5.12267 65.8943 5.12267C67.3385 5.12267 68.4969 5.59979 69.3695 6.55442Z" fill="white"/>
<path d="M84.6477 20.5459L82.6164 17.8173C82.0148 17.9377 81.4281 17.9979 80.8564 17.9979C79.3669 17.9979 78.0015 17.6521 76.7606 16.9604C75.5194 16.2692 74.5336 15.3033 73.8042 14.063C73.0744 12.8228 72.7097 11.4286 72.7097 9.88048C72.7097 8.33238 73.0744 6.94144 73.8042 5.70886C74.5336 4.47628 75.5194 3.51437 76.7606 2.82274C78.0015 2.13151 79.3669 1.78529 80.8564 1.78529C82.3459 1.78529 83.7109 2.13151 84.9522 2.82274C86.1935 3.51437 87.1711 4.47628 87.8859 5.70886C88.6004 6.94144 88.9578 8.33238 88.9578 9.88048C88.9578 11.233 88.6833 12.4697 88.1342 13.5895C87.5847 14.7094 86.8214 15.6378 85.8437 16.3742L89.3189 20.5459H84.6477ZM77.7985 13.2288C78.5578 14.063 79.5775 14.4803 80.8564 14.4803C82.1199 14.4803 83.1315 14.0594 83.8916 13.2175C84.651 12.3759 85.031 11.2633 85.031 9.88048C85.031 8.48226 84.651 7.36603 83.8916 6.53179C83.1315 5.69755 82.1199 5.28022 80.8564 5.28022C79.5775 5.28022 78.5578 5.69391 77.7985 6.52048C77.0388 7.34745 76.6587 8.46731 76.6587 9.88048C76.6587 11.2783 77.0388 12.3945 77.7985 13.2288Z" fill="white"/>
<path d="M95.0054 14.8637H100.06V17.8399H91.1461V2.01071H95.0054V14.8637Z" fill="white"/>
<path d="M102.272 5.72015C102.949 4.49525 103.893 3.54061 105.104 2.85625C106.315 2.1727 107.688 1.83052 109.222 1.83052C111.103 1.83052 112.712 2.32662 114.052 3.31882C115.391 4.31062 116.286 5.66359 116.737 7.37733H112.494C112.179 6.71599 111.731 6.21262 111.152 5.8668C110.573 5.52098 109.914 5.34807 109.177 5.34807C107.989 5.34807 107.026 5.76176 106.289 6.58833C105.551 7.4149 105.183 8.51982 105.183 9.90268C105.183 11.2859 105.551 12.3909 106.289 13.2174C107.026 14.0444 107.989 14.4577 109.177 14.4577C109.914 14.4577 110.573 14.2852 111.152 13.939C111.731 13.5936 112.179 13.0898 112.494 12.4284H116.737C116.286 14.1418 115.391 15.4915 114.052 16.4756C112.712 17.4606 111.103 17.9526 109.222 17.9526C107.688 17.9526 106.315 17.6108 105.104 16.9269C103.893 16.2429 102.949 15.2919 102.272 14.0743C101.595 12.8567 101.256 11.4665 101.256 9.90268C101.256 8.33964 101.595 6.94546 102.272 5.72015Z" fill="white"/>
<path d="M121.51 17.2311C120.524 16.7051 119.75 15.9537 119.186 14.9764C118.621 13.9992 118.339 12.8567 118.339 11.549C118.339 10.2562 118.625 9.11734 119.197 8.13281C119.768 7.14828 120.551 6.39322 121.544 5.86682C122.537 5.34082 123.65 5.07742 124.884 5.07742C126.117 5.07742 127.231 5.34082 128.223 5.86682C129.216 6.39322 129.999 7.14828 130.571 8.13281C131.142 9.11734 131.428 10.2562 131.428 11.549C131.428 12.8417 131.138 13.9806 130.559 14.9651C129.98 15.9496 129.19 16.7051 128.19 17.2311C127.189 17.7575 126.072 18.0205 124.838 18.0205C123.605 18.0205 122.495 17.7575 121.51 17.2311ZM126.723 13.8715C127.242 13.3302 127.501 12.5561 127.501 11.549C127.501 10.5418 127.249 9.76736 126.746 9.22641C126.241 8.68507 125.621 8.41479 124.884 8.41479C124.131 8.41479 123.507 8.68183 123.01 9.2151C122.514 9.74878 122.266 10.5269 122.266 11.549C122.266 12.5561 122.51 13.3302 122.999 13.8715C123.488 14.4125 124.101 14.6831 124.838 14.6831C125.576 14.6831 126.204 14.4125 126.723 13.8715Z" fill="white"/>
<path d="M144.686 6.55442C145.566 7.50905 146.006 8.82041 146.006 10.4893V17.8399H142.17V11.0076C142.17 10.1661 141.952 9.51204 141.516 9.04584C141.079 8.58044 140.493 8.34693 139.756 8.34693C139.018 8.34693 138.431 8.58044 137.995 9.04584C137.559 9.51204 137.341 10.1661 137.341 11.0076V17.8399H133.482V5.25801H137.341V6.9265C137.732 6.3706 138.258 5.93066 138.921 5.60746C139.583 5.28427 140.327 5.12267 141.155 5.12267C142.629 5.12267 143.806 5.59979 144.686 6.55442Z" fill="white"/>
<path d="M155.01 8.45964H152.934V17.8399H149.075V8.45964H147.676V5.25801H149.075V4.89724C149.075 3.34914 149.519 2.17272 150.407 1.36837C151.294 0.564426 152.596 0.16205 154.311 0.16205C154.597 0.16205 154.807 0.169726 154.943 0.18427V3.45378C154.205 3.40893 153.686 3.51438 153.386 3.7697C153.084 4.02543 152.934 4.48396 152.934 5.14529V5.25801H155.01V8.45964Z" fill="white"/>
<path d="M166.645 13.5964C167.547 12.7759 168.309 11.9178 168.929 11.0222C169.55 10.1265 169.86 9.24623 169.86 8.38209C169.86 7.56805 169.663 6.9257 169.268 6.45586C168.873 5.98642 168.236 5.7513 167.359 5.7513C166.506 5.7513 165.845 6.01753 165.375 6.54999C164.905 7.08245 164.651 7.79348 164.614 8.68266H162.959C163.008 7.28 163.435 6.19609 164.237 5.43174C165.039 4.66779 166.074 4.28561 167.34 4.28561C168.631 4.28561 169.656 4.64274 170.415 5.3566C171.173 6.07085 171.553 7.05417 171.553 8.30695C171.553 9.34683 171.242 10.3584 170.622 11.3413C170.001 12.3251 169.296 13.1896 168.506 13.9346C167.716 14.6799 166.707 15.5477 165.478 16.5371H171.948V17.9652H162.902V16.7439C164.494 15.4661 165.742 14.4169 166.645 13.5964Z" fill="white"/>
<path d="M174.975 6.13647C175.677 4.92773 176.906 4.32295 178.661 4.32295C180.404 4.32295 181.626 4.92773 182.328 6.13647C183.03 7.34522 183.381 9.02704 183.381 11.1815C183.381 13.374 183.03 15.0776 182.328 16.2924C181.626 17.5076 180.404 18.1152 178.661 18.1152C176.906 18.1152 175.677 17.5076 174.975 16.2924C174.273 15.0776 173.922 13.374 173.922 11.1815C173.922 9.02704 174.273 7.34522 174.975 6.13647ZM181.473 8.41014C181.328 7.65225 181.034 7.04142 180.589 6.57804C180.144 6.11466 179.501 5.88277 178.661 5.88277C177.809 5.88277 177.16 6.11466 176.715 6.57804C176.27 7.04142 175.975 7.65225 175.831 8.41014C175.687 9.16803 175.615 10.0916 175.615 11.1815C175.615 12.3091 175.687 13.2548 175.831 14.0188C175.975 14.7831 176.27 15.3972 176.715 15.8606C177.16 16.3239 177.809 16.5558 178.661 16.5558C179.501 16.5558 180.144 16.3239 180.589 15.8606C181.034 15.3972 181.328 14.7831 181.473 14.0188C181.616 13.2548 181.689 12.3091 181.689 11.1815C181.689 10.0916 181.616 9.16803 181.473 8.41014Z" fill="white"/>
<path d="M189.267 13.5962C190.17 12.7757 190.932 11.9176 191.552 11.0219C192.173 10.1263 192.483 9.246 192.483 8.38186C192.483 7.56781 192.286 6.92547 191.891 6.45562C191.496 5.98619 190.859 5.75106 189.982 5.75106C189.129 5.75106 188.468 6.01729 187.998 6.54975C187.528 7.08222 187.274 7.79324 187.237 8.68243H185.582C185.631 7.27977 186.058 6.19586 186.86 5.4315C187.662 4.66756 188.697 4.28538 189.963 4.28538C191.254 4.28538 192.279 4.64251 193.038 5.35636C193.796 6.07062 194.176 7.05394 194.176 8.30672C194.176 9.34659 193.865 10.3582 193.245 11.3411C192.624 12.3248 191.919 13.1894 191.129 13.9343C190.339 14.6797 189.33 15.5475 188.101 16.5368H194.571V17.965H185.525V16.7437C187.117 15.4659 188.365 14.4167 189.267 13.5962Z" fill="white"/>
<path d="M197.843 5.24364C198.645 4.59241 199.686 4.26679 200.964 4.26679C201.817 4.26679 202.553 4.42031 203.174 4.72694C203.795 5.03397 204.265 5.45049 204.585 5.97648C204.904 6.50289 205.064 7.09797 205.064 7.76173C205.064 8.5386 204.841 9.20842 204.396 9.77239C203.951 10.336 203.372 10.6996 202.657 10.862V10.9561C203.472 11.1565 204.117 11.5512 204.594 12.1398C205.07 12.7288 205.308 13.4992 205.308 14.451C205.308 15.1653 205.145 15.8072 204.82 16.3773C204.493 16.9473 204.004 17.3949 203.353 17.7205C202.701 18.0466 201.917 18.2094 201.002 18.2094C199.673 18.2094 198.582 17.8615 197.73 17.1663C196.877 16.471 196.401 15.4844 196.301 14.207H197.955C198.043 14.9584 198.35 15.5725 198.877 16.0484C199.404 16.5243 200.106 16.7623 200.983 16.7623C201.861 16.7623 202.528 16.534 202.986 16.0763C203.444 15.6194 203.673 15.0275 203.673 14.3007C203.673 13.3611 203.359 12.6848 202.732 12.2715C202.105 11.8582 201.158 11.6514 199.893 11.6514H199.46V10.2232H199.911C201.065 10.2107 201.936 10.0196 202.525 9.64998C203.115 9.28073 203.409 8.70787 203.409 7.931C203.409 7.26683 203.193 6.73478 202.76 6.33361C202.328 5.93285 201.71 5.73247 200.908 5.73247C200.131 5.73247 199.504 5.93285 199.027 6.33361C198.551 6.73478 198.269 7.2733 198.181 7.94958H196.508C196.595 6.7974 197.04 5.89528 197.843 5.24364Z" fill="white"/>
</svg>
