<?xml version="1.0" encoding="utf-8"?>
<!-- Generator: Adobe Illustrator 21.1.0, SVG Export Plug-In . SVG Version: 6.00 Build 0)  -->
<svg version="1.1" id="Layer_1" xmlns="http://www.w3.org/2000/svg" xmlns:xlink="http://www.w3.org/1999/xlink" x="0px" y="0px"
	 viewBox="0 0 693.9 123.6" style="enable-background:new 0 0 693.9 123.6;" xml:space="preserve">
<style type="text/css">
	.st0{fill:#000099;}
</style>
<path class="st0" d="M59.9,63.9c0-5.1-4.7-12.4-13.7-12.4c-8.2,0-13.7,7-13.7,14.2c0,8.6,5.9,14.7,16.1,14.7h19.3
	c-4.6,7.1-12.5,11.7-21.6,11.7c-14.4,0-26.1-11.8-26.1-26.2c0-14.4,11.7-26.2,26.1-26.2s26.2,11.8,26.2,26.2c0,2.9-0.5,5.6-1.3,8.2
	H42.1v-2.9l10.3-0.3C57.6,70.7,59.9,68,59.9,63.9"/>
<polygon class="st0" points="94.2,56 104.2,41.3 117.9,41.3 101,65 119.3,90.5 104.7,90.5 93.8,74.6 82.8,90.5 69,90.5 87,65.6 
	69.5,41.3 84.1,41.3 "/>
<path class="st0" d="M147.6,81.4c7.4,0,13.9-6.5,13.9-15.5s-6.5-15.5-13.9-15.5c-7.3,0-13.9,6.5-13.9,15.5S140.3,81.4,147.6,81.4
	 M134.5,51c3.6-7.6,10.1-11,16.6-11c11.9,0,22.7,10.1,22.7,26c0,15.9-10.8,26-22.7,26c-6.6,0-13-3.4-16.6-11
	c-0.2-0.4-0.5-0.3-0.5,0.1v29.8h-12.7V41.3h12.7v9.5C133.9,51.3,134.2,51.4,134.5,51"/>
<path class="st0" d="M217.5,63.9c0-5.1-4.7-12.4-13.7-12.4c-8.2,0-13.7,7-13.7,14.2c0,8.6,5.9,14.7,16.1,14.7h19.3
	c-4.6,7.1-12.5,11.7-21.6,11.7c-14.4,0-26.1-11.8-26.1-26.2c0-14.4,11.7-26.2,26.1-26.2s26.2,11.8,26.2,26.2c0,2.9-0.5,5.6-1.3,8.2
	h-29.1v-2.9l10.3-0.3C215.2,70.7,217.5,68,217.5,63.9"/>
<path class="st0" d="M260.4,50.4c-7.4,0-13.9,6.5-13.9,15.5c0,9,6.5,15.5,13.9,15.5c7.3,0,13.9-6.5,13.9-15.5
	C274.3,56.9,267.7,50.4,260.4,50.4 M273.5,80.8c-3.6,7.6-10.1,11-16.6,11c-11.9,0-22.7-10.1-22.7-26c0-15.9,10.8-26,22.7-26
	c6.6,0,13,3.4,16.6,11c0.2,0.4,0.5,0.3,0.5-0.1V20h12.7v70.4h-12.7V81C274.1,80.5,273.8,80.4,273.5,80.8"/>
<path class="st0" d="M308.6,90.5h-12.7V41.3h12.7V90.5z M294.8,27c0-4,3.4-7.4,7.4-7.4c4,0,7.4,3.4,7.4,7.4c0,4-3.4,7.4-7.4,7.4
	C298.2,34.4,294.8,31.1,294.8,27"/>
<path class="st0" d="M341.1,50.4c-7.4,0-13.9,6.5-13.9,15.5c0,9,6.5,15.5,13.9,15.5c7.3,0,13.9-6.5,13.9-15.5
	C355,56.9,348.4,50.4,341.1,50.4 M354.3,80.8c-3.6,7.6-10.1,11-16.6,11c-11.9,0-22.7-10.1-22.7-26c0-15.9,10.8-26,22.7-26
	c6.6,0,13,3.4,16.6,11c0.2,0.4,0.5,0.3,0.5-0.1v-9.5h12.7v49.2h-12.7V81C354.8,80.5,354.5,80.4,354.3,80.8"/>
<path class="st0" d="M417.3,50.4c-7.3,0-13.7,6.4-13.7,15.3c0,8.9,6.4,15.3,13.7,15.3c7.2,0,13.7-6.4,13.7-15.3
	C431,56.8,424.5,50.4,417.3,50.4 M430.7,80.5c0-0.4-0.3-0.5-0.5-0.1c-3.6,7.6-10,11-16.4,11c-11.8,0-22.5-10-22.5-25.7
	S402,40,413.8,40c6.5,0,12.8,3.4,16.4,11c0.2,0.4,0.5,0.3,0.5-0.1v-9.5h12.7v46.3c0,13.7-9.4,24.3-25.7,24.3
	c-9.1,0-17.1-3.2-22.9-8.6l7.6-8.3c5.1,4,9.1,6.1,15,6.1c9.3,0,13.2-6.6,13.2-14.7V80.5z"/>
<path class="st0" d="M465.3,41.3V52c0,0.2,0.2,0.3,0.3,0c1.7-8.8,5.5-12.1,12.1-12.1h1.2v13.3h-5.7c-5.2,0-7.8,4-7.8,9.7v27.4h-12.7
	V41.3H465.3z"/>
<path class="st0" d="M505.8,51.3c-7.6,0-13.9,6.4-13.9,14.6c0,8.3,6.3,14.6,13.9,14.6c7.6,0,13.9-6.4,13.9-14.6
	C519.6,57.6,513.4,51.3,505.8,51.3 M505.9,39.7c14.3,0,26.1,11.8,26.1,26.2c0,14.4-11.8,26.2-26.1,26.2c-14.5,0-26.3-11.8-26.3-26.2
	C479.6,51.5,491.3,39.7,505.9,39.7"/>
<path class="st0" d="M558.3,92.1c-12.4,0-20.3-7.5-20.3-18.5V41.3h12.7v31.3c0,4.9,3.2,8.1,7.9,8.1c4.3,0,7.6-3.3,7.6-7.9V41.3H579
	v32.2C579,84.6,570.4,92.1,558.3,92.1"/>
<path class="st0" d="M614.1,81.4c7.4,0,13.9-6.5,13.9-15.5s-6.5-15.5-13.9-15.5c-7.3,0-13.9,6.5-13.9,15.5S606.8,81.4,614.1,81.4
	 M601,51c3.6-7.6,10.1-11,16.6-11c11.9,0,22.7,10.1,22.7,26c0,15.9-10.8,26-22.7,26c-6.6,0-13-3.4-16.6-11c-0.2-0.4-0.5-0.3-0.5,0.1
	v29.8h-12.7V41.3h12.7v9.5C600.5,51.3,600.8,51.4,601,51"/>
<path class="st0" d="M648.7,41.5v1.2h2.2v6.2h1.4v-6.2h2.2v-1.2H648.7z M662.2,41.5l-2,5.2l-2-5.2h-2.1v7.4h1.3v-5.8h0l2.2,5.8h1
	l2.2-5.8h0v5.8h1.3v-7.4H662.2z"/>
</svg>
