<?xml version="1.0" encoding="UTF-8" standalone="no"?>
<svg
   xmlns:dc="http://purl.org/dc/elements/1.1/"
   xmlns:cc="http://creativecommons.org/ns#"
   xmlns:rdf="http://www.w3.org/1999/02/22-rdf-syntax-ns#"
   xmlns:svg="http://www.w3.org/2000/svg"
   xmlns="http://www.w3.org/2000/svg"
   viewBox="0 0 1706.6667 1256.1907"
   height="1256.1907"
   width="1706.6667"
   xml:space="preserve"
   id="svg2"
   version="1.1"><metadata
     id="metadata8"><rdf:RDF><cc:Work
         rdf:about=""><dc:format>image/svg+xml</dc:format><dc:type
           rdf:resource="http://purl.org/dc/dcmitype/StillImage" /></cc:Work></rdf:RDF></metadata><defs
     id="defs6"><clipPath
       id="clipPath18"
       clipPathUnits="userSpaceOnUse"><path
         id="path16"
         d="M 0,942.143 H 1280 V 0 H 0 Z" /></clipPath><clipPath
       id="clipPath60"
       clipPathUnits="userSpaceOnUse"><path
         id="path58"
         d="m 640.896,568.652 h 0.07 v -0.081 h -0.07 z" /></clipPath><clipPath
       id="clipPath76"
       clipPathUnits="userSpaceOnUse"><path
         id="path74"
         d="M 440.912,817.452 H 640.926 V 684.018 H 440.912 Z" /></clipPath><clipPath
       id="clipPath92"
       clipPathUnits="userSpaceOnUse"><path
         id="path90"
         d="M 774.278,684.086 H 907.699 V 453.09 H 774.278 Z" /></clipPath><clipPath
       id="clipPath108"
       clipPathUnits="userSpaceOnUse"><path
         id="path106"
         d="M 640.926,817.477 H 840.983 V 684.073 H 640.926 Z" /></clipPath><clipPath
       id="clipPath124"
       clipPathUnits="userSpaceOnUse"><path
         id="path122"
         d="m 640.966,568.614 h 0.004 v -0.004 h -0.004 z" /></clipPath><clipPath
       id="clipPath140"
       clipPathUnits="userSpaceOnUse"><path
         id="path138"
         d="M 574.291,799.567 H 707.602 V 568.611 H 574.291 Z" /></clipPath><clipPath
       id="clipPath156"
       clipPathUnits="userSpaceOnUse"><path
         id="path154"
         d="M 574.291,799.567 H 707.602 V 568.611 H 574.291 Z" /></clipPath><clipPath
       id="clipPath172"
       clipPathUnits="userSpaceOnUse"><path
         id="path170"
         d="M 640.97,701.968 H 840.983 V 568.582 H 640.97 Z" /></clipPath><clipPath
       id="clipPath188"
       clipPathUnits="userSpaceOnUse"><path
         id="path186"
         d="M 640.97,701.968 H 840.983 V 568.582 H 640.97 Z" /></clipPath><clipPath
       id="clipPath204"
       clipPathUnits="userSpaceOnUse"><path
         id="path202"
         d="m 640.97,684.073 h 66.632 V 568.614 H 640.97 Z" /></clipPath><clipPath
       id="clipPath220"
       clipPathUnits="userSpaceOnUse"><path
         id="path218"
         d="m 640.97,684.073 h 66.632 V 568.614 H 640.97 Z" /></clipPath><clipPath
       id="clipPath240"
       clipPathUnits="userSpaceOnUse"><path
         id="path238"
         d="m 640.896,568.61 h 0.074 v -0.086 h -0.074 z" /></clipPath><clipPath
       id="clipPath256"
       clipPathUnits="userSpaceOnUse"><path
         id="path254"
         d="M 640.951,453.159 H 840.965 V 319.728 H 640.951 Z" /></clipPath><clipPath
       id="clipPath272"
       clipPathUnits="userSpaceOnUse"><path
         id="path270"
         d="M 640.97,568.609 H 840.965 V 435.234 H 640.97 Z" /></clipPath><clipPath
       id="clipPath288"
       clipPathUnits="userSpaceOnUse"><path
         id="path286"
         d="M 640.97,568.609 H 840.965 V 435.234 H 640.97 Z" /></clipPath><clipPath
       id="clipPath304"
       clipPathUnits="userSpaceOnUse"><path
         id="path302"
         d="m 640.968,568.611 h 0.002 v -0.002 h -0.002 z" /></clipPath><clipPath
       id="clipPath320"
       clipPathUnits="userSpaceOnUse"><path
         id="path318"
         d="m 640.968,568.611 h 0.002 v -0.002 h -0.002 z" /></clipPath><clipPath
       id="clipPath336"
       clipPathUnits="userSpaceOnUse"><path
         id="path334"
         d="M 640.97,586.462 H 774.278 V 550.729 H 640.97 Z" /></clipPath><clipPath
       id="clipPath352"
       clipPathUnits="userSpaceOnUse"><path
         id="path350"
         d="M 640.97,586.462 H 774.278 V 550.729 H 640.97 Z" /></clipPath><clipPath
       id="clipPath372"
       clipPathUnits="userSpaceOnUse"><path
         id="path370"
         d="M 440.886,453.107 H 640.951 V 319.697 H 440.886 Z" /></clipPath><clipPath
       id="clipPath388"
       clipPathUnits="userSpaceOnUse"><path
         id="path386"
         d="M 574.271,568.567 H 707.578 V 337.611 H 574.271 Z" /></clipPath><clipPath
       id="clipPath404"
       clipPathUnits="userSpaceOnUse"><path
         id="path402"
         d="M 574.271,568.567 H 707.578 V 337.611 H 574.271 Z" /></clipPath><clipPath
       id="clipPath420"
       clipPathUnits="userSpaceOnUse"><path
         id="path418"
         d="m 640.97,568.524 h 66.608 V 453.159 H 640.97 Z" /></clipPath><clipPath
       id="clipPath436"
       clipPathUnits="userSpaceOnUse"><path
         id="path434"
         d="m 640.97,568.524 h 66.608 V 453.159 H 640.97 Z" /></clipPath><clipPath
       id="clipPath456"
       clipPathUnits="userSpaceOnUse"><path
         id="path454"
         d="M 374.17,684.094 H 507.589 V 453.093 H 374.17 Z" /></clipPath><clipPath
       id="clipPath472"
       clipPathUnits="userSpaceOnUse"><path
         id="path470"
         d="m 640.893,568.571 h 0.003 v -0.003 h -0.003 z" /></clipPath><clipPath
       id="clipPath488"
       clipPathUnits="userSpaceOnUse"><path
         id="path486"
         d="M 440.912,701.942 H 640.896 V 568.569 H 440.912 Z" /></clipPath><clipPath
       id="clipPath504"
       clipPathUnits="userSpaceOnUse"><path
         id="path502"
         d="M 440.912,701.942 H 640.896 V 568.569 H 440.912 Z" /></clipPath><clipPath
       id="clipPath520"
       clipPathUnits="userSpaceOnUse"><path
         id="path518"
         d="m 574.291,684.018 h 66.605 V 568.652 h -66.605 z" /></clipPath><clipPath
       id="clipPath536"
       clipPathUnits="userSpaceOnUse"><path
         id="path534"
         d="m 574.291,684.018 h 66.605 V 568.652 h -66.605 z" /></clipPath><clipPath
       id="clipPath556"
       clipPathUnits="userSpaceOnUse"><path
         id="path554"
         d="m 640.895,568.568 h 10e-4 v -10e-4 h -10e-4 z" /></clipPath><clipPath
       id="clipPath572"
       clipPathUnits="userSpaceOnUse"><path
         id="path570"
         d="m 640.895,568.568 h 10e-4 v -10e-4 h -10e-4 z" /></clipPath><clipPath
       id="clipPath588"
       clipPathUnits="userSpaceOnUse"><path
         id="path586"
         d="M 440.887,568.602 H 640.895 V 435.209 H 440.887 Z" /></clipPath><clipPath
       id="clipPath604"
       clipPathUnits="userSpaceOnUse"><path
         id="path602"
         d="M 440.887,568.602 H 640.895 V 435.209 H 440.887 Z" /></clipPath><clipPath
       id="clipPath620"
       clipPathUnits="userSpaceOnUse"><path
         id="path618"
         d="M 507.589,586.451 H 640.893 V 550.717 H 507.589 Z" /></clipPath><clipPath
       id="clipPath636"
       clipPathUnits="userSpaceOnUse"><path
         id="path634"
         d="M 507.589,586.451 H 640.893 V 550.717 H 507.589 Z" /></clipPath><clipPath
       id="clipPath656"
       clipPathUnits="userSpaceOnUse"><path
         id="path654"
         d="m 574.271,568.568 h 66.625 V 453.107 h -66.625 z" /></clipPath><clipPath
       id="clipPath672"
       clipPathUnits="userSpaceOnUse"><path
         id="path670"
         d="m 574.271,568.568 h 66.625 V 453.107 h -66.625 z" /></clipPath></defs><g
     transform="matrix(1.3333333,0,0,-1.3333333,0,1256.1907)"
     id="g10"><g
       id="g12"><g
         clip-path="url(#clipPath18)"
         id="g14"><g
           transform="translate(166.9238,54.345)"
           id="g20"><path
             id="path22"
             style="fill:#53b8ea;fill-opacity:1;fill-rule:nonzero;stroke:none"
             d="m 0,0 c -23.5,0 -43.648,7.651 -61.741,19.028 l 11.192,16.97 c 18.094,-11.56 34.693,-17.157 53.348,-17.157 21.826,0 32.085,8.389 32.085,18.277 0,28.355 -92.337,11.377 -92.337,56.52 0,22.01 22.015,39.362 57.453,39.362 23.876,0 44.584,-8.953 56.706,-21.082 L 42.902,97.741 c -10.445,9.141 -26.488,16.418 -43.276,16.418 -20.704,0 -34.692,-7.46 -34.692,-18.095 0,-26.3 92.517,-12.314 92.517,-56.706 C 57.451,15.854 33.763,0 0,0" /></g><g
           transform="translate(339.2725,158.2434)"
           id="g24"><path
             id="path26"
             style="fill:#53b8ea;fill-opacity:1;fill-rule:nonzero;stroke:none"
             d="M 0,0 -23.318,-51.482 H 23.876 Z M 46.074,-99.422 31.898,-68.456 H -30.78 l -13.8,-30.966 h -23.318 l 58.573,124.23 h 19.77 L 69.95,-99.422 Z" /></g><g
           transform="translate(464.8042,58.8216)"
           id="g28"><path
             id="path30"
             style="fill:#53b8ea;fill-opacity:1;fill-rule:nonzero;stroke:none"
             d="M 0,0 V 124.229 H 22.382 V 19.028 h 84.499 V 0 Z" /></g><g
           transform="translate(685.4814,54.345)"
           id="g32"><path
             id="path34"
             style="fill:#53b8ea;fill-opacity:1;fill-rule:nonzero;stroke:none"
             d="m 0,0 c -23.501,0 -43.645,7.651 -61.739,19.028 l 11.195,16.97 c 18.089,-11.56 34.69,-17.157 53.345,-17.157 21.828,0 32.081,8.389 32.081,18.277 0,28.355 -92.331,11.377 -92.331,56.52 0,22.01 22.015,39.362 57.449,39.362 23.878,0 44.583,-8.953 56.71,-21.082 L 42.906,97.741 c -10.448,9.141 -26.488,16.418 -43.275,16.418 -20.705,0 -34.699,-7.46 -34.699,-18.095 0,-26.3 92.521,-12.314 92.521,-56.706 C 57.453,15.854 33.766,0 0,0" /></g><path
           id="path36"
           style="fill:#53b8ea;fill-opacity:1;fill-rule:nonzero;stroke:none"
           d="M 805.424,183.051 H 827.8 V 58.822 h -22.376 z" /><g
           transform="translate(919.9526,164.0276)"
           id="g38"><path
             id="path40"
             style="fill:#53b8ea;fill-opacity:1;fill-rule:nonzero;stroke:none"
             d="M 0,0 V -35.633 H 57.826 V -53.91 H 0 v -51.296 H -22.389 V 19.023 H 77.224 V 0 Z" /></g><g
           transform="translate(1121.4009,108.6282)"
           id="g42"><path
             id="path44"
             style="fill:#53b8ea;fill-opacity:1;fill-rule:nonzero;stroke:none"
             d="M 0,0 V -49.807 H -22.384 V 0.187 l -55.964,74.236 h 26.119 l 41.968,-57.449 39.728,57.449 h 25.745 z" /></g><g
           transform="translate(640.9346,568.5921)"
           id="g46"><path
             id="path48"
             style="fill:#53b8ea;fill-opacity:1;fill-rule:nonzero;stroke:none"
             d="M 0,0 C -0.013,-0.008 -0.026,-0.014 -0.039,-0.021 V -0.024 C -0.026,-0.017 -0.013,-0.008 0,0" /></g><g
           transform="translate(640.9678,568.6097)"
           id="g50"><path
             id="path52"
             style="fill:#53b8ea;fill-opacity:1;fill-rule:nonzero;stroke:none"
             d="M 0,0 C 0,0.001 -0.001,0.001 -0.002,0.001 -0.012,-0.005 -0.022,-0.012 -0.033,-0.018 -0.022,-0.012 -0.011,-0.006 0,0" /></g><g
           id="g54"><g
             id="g56" /><g
             id="g68"><g
               style="opacity:0.5"
               id="g66"
               clip-path="url(#clipPath60)"><g
                 id="g64"
                 transform="translate(640.9658,568.6107)"><path
                   id="path62"
                   style="fill:#53b8ea;fill-opacity:1;fill-rule:nonzero;stroke:none"
                   d="M 0,0 -0.07,0.041 V -0.04 c 0.013,0.008 0.026,0.014 0.039,0.021 C -0.021,-0.013 -0.01,-0.006 0,0" /></g></g></g></g><g
           id="g70"><g
             id="g72" /><g
             id="g84"><g
               style="opacity:0.39999402"
               id="g82"
               clip-path="url(#clipPath76)"><g
                 id="g80"
                 transform="translate(574.2905,684.0179)"><path
                   id="path78"
                   style="fill:#53b8ea;fill-opacity:1;fill-rule:nonzero;stroke:none"
                   d="M 0,0 C 0.017,46.06 23.886,90.852 66.635,115.549 26.738,138.531 -23.971,140.24 -66.718,115.562 -109.458,90.883 -133.332,46.118 -133.378,0.076 -90.614,24.743 -39.894,23.014 0,0" /></g></g></g></g><g
           id="g86"><g
             id="g88" /><g
             id="g100"><g
               style="opacity:0.39999402"
               id="g98"
               clip-path="url(#clipPath92)"><g
                 id="g96"
                 transform="translate(889.8096,635.2855)"><path
                   id="path94"
                   style="fill:#53b8ea;fill-opacity:1;fill-rule:nonzero;stroke:none"
                   d="m 0,0 c -12.149,21.042 -29.184,37.486 -48.827,48.8 -0.047,-46.04 -23.922,-90.802 -66.666,-115.482 -0.012,-0.007 -0.026,-0.013 -0.039,-0.021 19.647,-11.316 36.686,-27.763 48.837,-48.809 12.149,-21.042 17.873,-44.016 17.85,-66.683 0.011,0.006 0.021,0.01 0.032,0.016 C 14.976,-145.353 36.826,-63.792 0,0" /></g></g></g></g><g
           id="g102"><g
             id="g104" /><g
             id="g116"><g
               style="opacity:0.39999402"
               id="g114"
               clip-path="url(#clipPath108)"><g
                 id="g112"
                 transform="translate(689.752,750.7654)"><path
                   id="path110"
                   style="fill:#53b8ea;fill-opacity:1;fill-rule:nonzero;stroke:none"
                   d="m 0,0 c 12.15,-21.045 17.874,-44.023 17.85,-66.693 0.012,0.007 0.024,0.015 0.036,0.023 42.744,24.677 93.449,22.97 133.345,-0.01 0.023,22.668 -5.7,45.644 -17.848,66.688 C 96.553,63.795 14.992,85.65 -48.793,48.822 -48.804,48.815 -48.815,48.808 -48.826,48.802 -29.184,37.487 -12.149,21.042 0,0" /></g></g></g></g><g
           id="g118"><g
             id="g120" /><g
             id="g132"><g
               style="opacity:0.5"
               id="g130"
               clip-path="url(#clipPath124)"><g
                 id="g128"
                 transform="translate(640.9697,568.6107)"><path
                   id="path126"
                   style="fill:#53b8ea;fill-opacity:1;fill-rule:nonzero;stroke:none"
                   d="M 0,0 V 0.003 C -0.001,0.002 -0.002,0.001 -0.004,0 -0.003,0 -0.002,0 -0.002,-0.001 -0.001,0 0,0 0,0" /></g></g></g></g><g
           id="g134"><g
             id="g136" /><g
             id="g148"><g
               style="opacity:0.5"
               id="g146"
               clip-path="url(#clipPath140)"><g
                 id="g144"
                 transform="translate(574.2905,684.0179)"><path
                   id="path142"
                   style="fill:#53b8ea;fill-opacity:1;fill-rule:nonzero;stroke:none"
                   d="m 0,0 c 19.612,-11.313 36.62,-27.744 48.754,-48.762 12.134,-21.017 17.859,-43.963 17.851,-66.604 l 0.07,-0.041 c 0.002,10e-4 0.003,0.002 0.004,0.003 0.049,46.027 23.913,90.777 66.633,115.459 0.023,22.67 -5.701,45.647 -17.851,66.693 C 103.313,87.79 86.277,104.234 66.635,115.549 23.886,90.852 0.017,46.06 0,0" /></g></g></g></g><g
           id="g150"><g
             id="g152" /><g
             id="g164"><g
               style="opacity:0.39999402"
               id="g162"
               clip-path="url(#clipPath156)"><g
                 id="g160"
                 transform="translate(574.2905,684.0179)"><path
                   id="path158"
                   style="fill:#53b8ea;fill-opacity:1;fill-rule:nonzero;stroke:none"
                   d="m 0,0 c 19.612,-11.313 36.62,-27.744 48.754,-48.762 12.134,-21.017 17.859,-43.963 17.851,-66.604 l 0.07,-0.041 c 0.002,10e-4 0.003,0.002 0.004,0.003 0.049,46.027 23.913,90.777 66.633,115.459 0.023,22.67 -5.701,45.647 -17.851,66.693 C 103.313,87.79 86.277,104.234 66.635,115.549 23.886,90.852 0.017,46.06 0,0" /></g></g></g></g><g
           id="g166"><g
             id="g168" /><g
             id="g180"><g
               style="opacity:0.5"
               id="g178"
               clip-path="url(#clipPath172)"><g
                 id="g176"
                 transform="translate(707.6382,684.095)"><path
                   id="path174"
                   style="fill:#53b8ea;fill-opacity:1;fill-rule:nonzero;stroke:none"
                   d="m 0,0 c -0.012,-0.008 -0.024,-0.016 -0.036,-0.022 -0.048,-46.029 -23.912,-90.779 -66.632,-115.459 v -0.003 c 42.734,24.654 93.421,22.943 133.308,-0.029 0.012,0.008 0.026,0.014 0.039,0.022 42.744,24.679 66.619,69.441 66.666,115.481 C 93.449,22.971 42.744,24.678 0,0" /></g></g></g></g><g
           id="g182"><g
             id="g184" /><g
             id="g196"><g
               style="opacity:0.39999402"
               id="g194"
               clip-path="url(#clipPath188)"><g
                 id="g192"
                 transform="translate(707.6382,684.095)"><path
                   id="path190"
                   style="fill:#53b8ea;fill-opacity:1;fill-rule:nonzero;stroke:none"
                   d="m 0,0 c -0.012,-0.008 -0.024,-0.016 -0.036,-0.022 -0.048,-46.029 -23.912,-90.779 -66.632,-115.459 v -0.003 c 42.734,24.654 93.421,22.943 133.308,-0.029 0.012,0.008 0.026,0.014 0.039,0.022 42.744,24.679 66.619,69.441 66.666,115.481 C 93.449,22.971 42.744,24.678 0,0" /></g></g></g></g><g
           id="g198"><g
             id="g200" /><g
             id="g212"><g
               style="opacity:0.5"
               id="g210"
               clip-path="url(#clipPath204)"><g
                 id="g208"
                 transform="translate(707.6021,684.0726)"><path
                   id="path206"
                   style="fill:#53b8ea;fill-opacity:1;fill-rule:nonzero;stroke:none"
                   d="M 0,0 C -42.72,-24.682 -66.583,-69.432 -66.632,-115.459 -23.912,-90.778 -0.048,-46.028 0,0" /></g></g></g></g><g
           id="g214"><g
             id="g216" /><g
             id="g228"><g
               style="opacity:0.5"
               id="g226"
               clip-path="url(#clipPath220)"><g
                 id="g224"
                 transform="translate(707.6021,684.0726)"><path
                   id="path222"
                   style="fill:#53b8ea;fill-opacity:1;fill-rule:nonzero;stroke:none"
                   d="M 0,0 C -42.72,-24.682 -66.583,-69.432 -66.632,-115.459 -23.912,-90.778 -0.048,-46.028 0,0" /></g></g></g></g><g
           transform="translate(707.6021,684.0726)"
           id="g230"><path
             id="path232"
             style="fill:#53b8ea;fill-opacity:1;fill-rule:nonzero;stroke:none"
             d="M 0,0 C -42.72,-24.682 -66.583,-69.432 -66.632,-115.459 -23.912,-90.778 -0.048,-46.028 0,0" /></g><g
           id="g234"><g
             id="g236" /><g
             id="g248"><g
               style="opacity:0.5"
               id="g246"
               clip-path="url(#clipPath240)"><g
                 id="g244"
                 transform="translate(640.9346,568.5921)"><path
                   id="path242"
                   style="fill:#53b8ea;fill-opacity:1;fill-rule:nonzero;stroke:none"
                   d="m 0,0 c -0.013,-0.008 -0.026,-0.017 -0.039,-0.024 l 0.075,-0.044 c 0,0.028 -10e-4,0.056 -10e-4,0.085 0,10e-4 -0.001,10e-4 -0.002,10e-4 C 0.022,0.012 0.011,0.006 0,0" /></g></g></g></g><g
           id="g250"><g
             id="g252" /><g
             id="g264"><g
               style="opacity:0.39999402"
               id="g262"
               clip-path="url(#clipPath256)"><g
                 id="g260"
                 transform="translate(707.5776,453.1585)"><path
                   id="path258"
                   style="fill:#53b8ea;fill-opacity:1;fill-rule:nonzero;stroke:none"
                   d="m 0,0 c -0.018,-46.057 -23.882,-90.848 -66.626,-115.548 39.897,-22.981 90.605,-24.686 133.349,-0.013 42.743,24.683 66.618,69.451 66.664,115.493 C 90.624,-24.744 39.898,-23.016 0,0" /></g></g></g></g><g
           id="g266"><g
             id="g268" /><g
             id="g280"><g
               style="opacity:0.5"
               id="g278"
               clip-path="url(#clipPath272)"><g
                 id="g276"
                 transform="translate(774.2778,568.5823)"><path
                   id="path274"
                   style="fill:#53b8ea;fill-opacity:1;fill-rule:nonzero;stroke:none"
                   d="m 0,0 c -42.736,-24.655 -93.424,-22.947 -133.308,0.026 0,-0.028 0,-0.056 0,-0.085 19.614,-11.313 36.623,-27.745 48.758,-48.761 12.134,-21.018 17.859,-43.963 17.85,-66.604 39.898,-23.015 90.623,-24.744 133.387,-0.068 0.022,22.667 -5.702,45.641 -17.851,66.683 C 36.686,-27.763 19.646,-11.315 0,0" /></g></g></g></g><g
           id="g282"><g
             id="g284" /><g
             id="g296"><g
               style="opacity:0.39999402"
               id="g294"
               clip-path="url(#clipPath288)"><g
                 id="g292"
                 transform="translate(774.2778,568.5823)"><path
                   id="path290"
                   style="fill:#53b8ea;fill-opacity:1;fill-rule:nonzero;stroke:none"
                   d="m 0,0 c -42.736,-24.655 -93.424,-22.947 -133.308,0.026 0,-0.028 0,-0.056 0,-0.085 19.614,-11.313 36.623,-27.745 48.758,-48.761 12.134,-21.018 17.859,-43.963 17.85,-66.604 39.898,-23.015 90.623,-24.744 133.387,-0.068 0.022,22.667 -5.702,45.641 -17.851,66.683 C 36.686,-27.763 19.646,-11.315 0,0" /></g></g></g></g><g
           id="g298"><g
             id="g300" /><g
             id="g312"><g
               style="opacity:0.5"
               id="g310"
               clip-path="url(#clipPath304)"><g
                 id="g308"
                 transform="translate(640.9678,568.6097)"><path
                   id="path306"
                   style="fill:#53b8ea;fill-opacity:1;fill-rule:nonzero;stroke:none"
                   d="M 0,0 C 0.001,0 0.001,0 0.002,-0.001 V 0.001 C 0.001,0.001 0.001,0.001 0,0" /></g></g></g></g><g
           id="g314"><g
             id="g316" /><g
             id="g328"><g
               style="opacity:0.5"
               id="g326"
               clip-path="url(#clipPath320)"><g
                 id="g324"
                 transform="translate(640.9678,568.6097)"><path
                   id="path322"
                   style="fill:#53b8ea;fill-opacity:1;fill-rule:nonzero;stroke:none"
                   d="M 0,0 C 0.001,0 0.001,0 0.002,-0.001 V 0.001 C 0.001,0.001 0.001,0.001 0,0" /></g></g></g></g><g
           id="g330"><g
             id="g332" /><g
             id="g344"><g
               style="opacity:0.5"
               id="g342"
               clip-path="url(#clipPath336)"><g
                 id="g340"
                 transform="translate(640.9697,568.6107)"><path
                   id="path338"
                   style="fill:#53b8ea;fill-opacity:1;fill-rule:nonzero;stroke:none"
                   d="M 0,0 V -0.002 C 39.884,-22.976 90.572,-24.684 133.308,-0.028 93.422,22.943 42.734,24.654 0,0" /></g></g></g></g><g
           id="g346"><g
             id="g348" /><g
             id="g360"><g
               style="opacity:0.5"
               id="g358"
               clip-path="url(#clipPath352)"><g
                 id="g356"
                 transform="translate(640.9697,568.6107)"><path
                   id="path354"
                   style="fill:#53b8ea;fill-opacity:1;fill-rule:nonzero;stroke:none"
                   d="M 0,0 V -0.002 C 39.884,-22.976 90.572,-24.684 133.308,-0.028 93.422,22.943 42.734,24.654 0,0" /></g></g></g></g><g
           transform="translate(640.9697,568.6107)"
           id="g362"><path
             id="path364"
             style="fill:#53b8ea;fill-opacity:1;fill-rule:nonzero;stroke:none"
             d="M 0,0 V -0.002 C 39.884,-22.976 90.572,-24.684 133.308,-0.028 93.422,22.943 42.734,24.654 0,0" /></g><g
           id="g366"><g
             id="g368" /><g
             id="g380"><g
               style="opacity:0.39999402"
               id="g378"
               clip-path="url(#clipPath372)"><g
                 id="g376"
                 transform="translate(592.1206,386.4153)"><path
                   id="path374"
                   style="fill:#53b8ea;fill-opacity:1;fill-rule:nonzero;stroke:none"
                   d="m 0,0 c -12.15,21.044 -17.874,44.021 -17.849,66.692 -0.014,-0.007 -0.027,-0.016 -0.041,-0.025 -42.742,-24.68 -93.447,-22.972 -133.344,0.011 -0.024,-22.67 5.699,-45.649 17.848,-66.694 36.834,-63.785 118.395,-85.639 182.176,-48.813 0.013,0.008 0.026,0.016 0.041,0.024 C 29.187,-37.489 12.151,-21.044 0,0" /></g></g></g></g><g
           id="g382"><g
             id="g384" /><g
             id="g396"><g
               style="opacity:0.5"
               id="g394"
               clip-path="url(#clipPath388)"><g
                 id="g392"
                 transform="translate(707.5776,453.1585)"><path
                   id="path390"
                   style="fill:#53b8ea;fill-opacity:1;fill-rule:nonzero;stroke:none"
                   d="m 0,0 c -19.612,11.313 -36.622,27.744 -48.757,48.763 -12.135,21.016 -17.859,43.962 -17.85,66.602 l -0.075,0.044 c -0.046,-46.028 -23.906,-90.778 -66.624,-115.46 -0.025,-22.671 5.699,-45.648 17.849,-66.692 12.151,-21.044 29.187,-37.489 48.831,-48.805 C -23.882,-90.848 -0.018,-46.057 0,0" /></g></g></g></g><g
           id="g398"><g
             id="g400" /><g
             id="g412"><g
               style="opacity:0.39999402"
               id="g410"
               clip-path="url(#clipPath404)"><g
                 id="g408"
                 transform="translate(707.5776,453.1585)"><path
                   id="path406"
                   style="fill:#53b8ea;fill-opacity:1;fill-rule:nonzero;stroke:none"
                   d="m 0,0 c -19.612,11.313 -36.622,27.744 -48.757,48.763 -12.135,21.016 -17.859,43.962 -17.85,66.602 l -0.075,0.044 c -0.046,-46.028 -23.906,-90.778 -66.624,-115.46 -0.025,-22.671 5.699,-45.648 17.849,-66.692 12.151,-21.044 29.187,-37.489 48.831,-48.805 C -23.882,-90.848 -0.018,-46.057 0,0" /></g></g></g></g><g
           id="g414"><g
             id="g416" /><g
             id="g428"><g
               style="opacity:0.5"
               id="g426"
               clip-path="url(#clipPath420)"><g
                 id="g424"
                 transform="translate(707.5776,453.1585)"><path
                   id="path422"
                   style="fill:#53b8ea;fill-opacity:1;fill-rule:nonzero;stroke:none"
                   d="m 0,0 c 0.009,22.641 -5.716,45.586 -17.85,66.604 -12.135,21.016 -29.144,37.448 -48.757,48.761 -0.009,-22.64 5.715,-45.586 17.85,-66.602 C -36.622,27.744 -19.612,11.313 0,0" /></g></g></g></g><g
           id="g430"><g
             id="g432" /><g
             id="g444"><g
               style="opacity:0.5"
               id="g442"
               clip-path="url(#clipPath436)"><g
                 id="g440"
                 transform="translate(707.5776,453.1585)"><path
                   id="path438"
                   style="fill:#53b8ea;fill-opacity:1;fill-rule:nonzero;stroke:none"
                   d="m 0,0 c 0.009,22.641 -5.716,45.586 -17.85,66.604 -12.135,21.016 -29.144,37.448 -48.757,48.761 -0.009,-22.64 5.715,-45.586 17.85,-66.602 C -36.622,27.744 -19.612,11.313 0,0" /></g></g></g></g><g
           transform="translate(707.5776,453.1585)"
           id="g446"><path
             id="path448"
             style="fill:#53b8ea;fill-opacity:1;fill-rule:nonzero;stroke:none"
             d="m 0,0 c 0.009,22.641 -5.716,45.586 -17.85,66.604 -12.135,21.016 -29.144,37.448 -48.757,48.761 -0.009,-22.64 5.715,-45.586 17.85,-66.602 C -36.622,27.744 -19.612,11.313 0,0" /></g><g
           id="g450"><g
             id="g452" /><g
             id="g464"><g
               style="opacity:0.39999402"
               id="g462"
               clip-path="url(#clipPath456)"><g
                 id="g460"
                 transform="translate(507.5479,568.5794)"><path
                   id="path458"
                   style="fill:#53b8ea;fill-opacity:1;fill-rule:nonzero;stroke:none"
                   d="m 0,0 c 0.014,0.008 0.027,0.015 0.041,0.022 -19.641,11.315 -36.677,27.76 -48.826,48.804 -12.15,21.044 -17.873,44.02 -17.851,66.689 -0.014,-0.009 -0.029,-0.016 -0.043,-0.025 -63.781,-36.823 -85.635,-118.388 -48.81,-182.174 12.151,-21.042 29.186,-37.487 48.828,-48.802 C -66.612,-69.444 -42.737,-24.679 0,0" /></g></g></g></g><g
           id="g466"><g
             id="g468" /><g
             id="g480"><g
               style="opacity:0.5"
               id="g478"
               clip-path="url(#clipPath472)"><g
                 id="g476"
                 transform="translate(640.8955,568.5706)"><path
                   id="path474"
                   style="fill:#53b8ea;fill-opacity:1;fill-rule:nonzero;stroke:none"
                   d="m 0,0 c -0.001,-0.001 -0.002,-0.001 -0.003,-0.002 0.001,0 0.002,-0.001 0.003,-0.001 v 0 z" /></g></g></g></g><g
           id="g482"><g
             id="g484" /><g
             id="g496"><g
               style="opacity:0.5"
               id="g494"
               clip-path="url(#clipPath488)"><g
                 id="g492"
                 transform="translate(507.5889,568.6019)"><path
                   id="path490"
                   style="fill:#53b8ea;fill-opacity:1;fill-rule:nonzero;stroke:none"
                   d="m 0,0 c 42.736,24.653 93.42,22.939 133.304,-0.033 0.001,0.001 0.002,0.001 0.003,0.002 V 0.05 C 113.696,11.363 96.689,27.794 84.556,48.812 72.419,69.829 66.694,92.774 66.702,115.416 26.808,138.43 -23.913,140.159 -66.677,115.492 -66.699,92.823 -60.976,69.848 -48.826,48.804 -36.677,27.76 -19.641,11.314 0,0" /></g></g></g></g><g
           id="g498"><g
             id="g500" /><g
             id="g512"><g
               style="opacity:0.39999402"
               id="g510"
               clip-path="url(#clipPath504)"><g
                 id="g508"
                 transform="translate(507.5889,568.6019)"><path
                   id="path506"
                   style="fill:#53b8ea;fill-opacity:1;fill-rule:nonzero;stroke:none"
                   d="m 0,0 c 42.736,24.653 93.42,22.939 133.304,-0.033 0.001,0.001 0.002,0.001 0.003,0.002 V 0.05 C 113.696,11.363 96.689,27.794 84.556,48.812 72.419,69.829 66.694,92.774 66.702,115.416 26.808,138.43 -23.913,140.159 -66.677,115.492 -66.699,92.823 -60.976,69.848 -48.826,48.804 -36.677,27.76 -19.641,11.314 0,0" /></g></g></g></g><g
           id="g514"><g
             id="g516" /><g
             id="g528"><g
               style="opacity:0.5"
               id="g526"
               clip-path="url(#clipPath520)"><g
                 id="g524"
                 transform="translate(574.2905,684.0179)"><path
                   id="path522"
                   style="fill:#53b8ea;fill-opacity:1;fill-rule:nonzero;stroke:none"
                   d="m 0,0 c -0.008,-22.642 5.718,-45.587 17.854,-66.604 12.133,-21.018 29.141,-37.449 48.751,-48.762 0.008,22.641 -5.717,45.587 -17.851,66.604 C 36.62,-27.744 19.612,-11.313 0,0" /></g></g></g></g><g
           id="g530"><g
             id="g532" /><g
             id="g544"><g
               style="opacity:0.5"
               id="g542"
               clip-path="url(#clipPath536)"><g
                 id="g540"
                 transform="translate(574.2905,684.0179)"><path
                   id="path538"
                   style="fill:#53b8ea;fill-opacity:1;fill-rule:nonzero;stroke:none"
                   d="m 0,0 c -0.008,-22.642 5.718,-45.587 17.854,-66.604 12.133,-21.018 29.141,-37.449 48.751,-48.762 0.008,22.641 -5.717,45.587 -17.851,66.604 C 36.62,-27.744 19.612,-11.313 0,0" /></g></g></g></g><g
           transform="translate(574.2905,684.0179)"
           id="g546"><path
             id="path548"
             style="fill:#53b8ea;fill-opacity:1;fill-rule:nonzero;stroke:none"
             d="m 0,0 c -0.008,-22.642 5.718,-45.587 17.854,-66.604 12.133,-21.018 29.141,-37.449 48.751,-48.762 0.008,22.641 -5.717,45.587 -17.851,66.604 C 36.62,-27.744 19.612,-11.313 0,0" /></g><g
           id="g550"><g
             id="g552" /><g
             id="g564"><g
               style="opacity:0.5"
               id="g562"
               clip-path="url(#clipPath556)"><g
                 id="g560"
                 transform="translate(640.895,568.5677)"><path
                   id="path558"
                   style="fill:#53b8ea;fill-opacity:1;fill-rule:nonzero;stroke:none"
                   d="M 0,0 Z" /></g></g></g></g><g
           id="g566"><g
             id="g568" /><g
             id="g580"><g
               style="opacity:0.5"
               id="g578"
               clip-path="url(#clipPath572)"><g
                 id="g576"
                 transform="translate(640.895,568.5677)"><path
                   id="path574"
                   style="fill:#53b8ea;fill-opacity:1;fill-rule:nonzero;stroke:none"
                   d="M 0,0 Z" /></g></g></g></g><g
           id="g582"><g
             id="g584" /><g
             id="g596"><g
               style="opacity:0.5"
               id="g594"
               clip-path="url(#clipPath588)"><g
                 id="g592"
                 transform="translate(574.231,453.0823)"><path
                   id="path590"
                   style="fill:#53b8ea;fill-opacity:1;fill-rule:nonzero;stroke:none"
                   d="m 0,0 c 0.014,0.009 0.026,0.018 0.041,0.025 0.049,46.026 23.911,90.777 66.623,115.46 -0.001,0 -0.001,0.001 -0.002,0.001 -42.732,-24.655 -93.419,-22.943 -133.304,0.034 -0.014,-0.008 -0.027,-0.015 -0.041,-0.023 C -109.42,90.818 -133.295,46.053 -133.344,0.011 -93.448,-22.972 -42.742,-24.68 0,0" /></g></g></g></g><g
           id="g598"><g
             id="g600" /><g
             id="g612"><g
               style="opacity:0.39999402"
               id="g610"
               clip-path="url(#clipPath604)"><g
                 id="g608"
                 transform="translate(574.231,453.0823)"><path
                   id="path606"
                   style="fill:#53b8ea;fill-opacity:1;fill-rule:nonzero;stroke:none"
                   d="m 0,0 c 0.014,0.009 0.026,0.018 0.041,0.025 0.049,46.026 23.911,90.777 66.623,115.46 -0.001,0 -0.001,0.001 -0.002,0.001 -42.732,-24.655 -93.419,-22.943 -133.304,0.034 -0.014,-0.008 -0.027,-0.015 -0.041,-0.023 C -109.42,90.818 -133.295,46.053 -133.344,0.011 -93.448,-22.972 -42.742,-24.68 0,0" /></g></g></g></g><g
           id="g614"><g
             id="g616" /><g
             id="g628"><g
               style="opacity:0.5"
               id="g626"
               clip-path="url(#clipPath620)"><g
                 id="g624"
                 transform="translate(507.5889,568.6019)"><path
                   id="path622"
                   style="fill:#53b8ea;fill-opacity:1;fill-rule:nonzero;stroke:none"
                   d="M 0,0 C 39.885,-22.977 90.572,-24.688 133.304,-0.033 93.42,22.939 42.736,24.653 0,0" /></g></g></g></g><g
           id="g630"><g
             id="g632" /><g
             id="g644"><g
               style="opacity:0.5"
               id="g642"
               clip-path="url(#clipPath636)"><g
                 id="g640"
                 transform="translate(507.5889,568.6019)"><path
                   id="path638"
                   style="fill:#53b8ea;fill-opacity:1;fill-rule:nonzero;stroke:none"
                   d="M 0,0 C 39.885,-22.977 90.572,-24.688 133.304,-0.033 93.42,22.939 42.736,24.653 0,0" /></g></g></g></g><g
           transform="translate(507.5889,568.6019)"
           id="g646"><path
             id="path648"
             style="fill:#53b8ea;fill-opacity:1;fill-rule:nonzero;stroke:none"
             d="M 0,0 C 39.885,-22.977 90.572,-24.688 133.304,-0.033 93.42,22.939 42.736,24.653 0,0" /></g><g
           id="g650"><g
             id="g652" /><g
             id="g664"><g
               style="opacity:0.5"
               id="g662"
               clip-path="url(#clipPath656)"><g
                 id="g660"
                 transform="translate(574.2715,453.1077)"><path
                   id="path658"
                   style="fill:#53b8ea;fill-opacity:1;fill-rule:nonzero;stroke:none"
                   d="m 0,0 c 42.718,24.682 66.579,69.432 66.624,115.46 v 0 C 23.912,90.776 0.049,46.025 0,0" /></g></g></g></g><g
           id="g666"><g
             id="g668" /><g
             id="g680"><g
               style="opacity:0.5"
               id="g678"
               clip-path="url(#clipPath672)"><g
                 id="g676"
                 transform="translate(574.2715,453.1077)"><path
                   id="path674"
                   style="fill:#53b8ea;fill-opacity:1;fill-rule:nonzero;stroke:none"
                   d="m 0,0 c 42.718,24.682 66.579,69.432 66.624,115.46 v 0 C 23.912,90.776 0.049,46.025 0,0" /></g></g></g></g><g
           transform="translate(574.2715,453.1077)"
           id="g682"><path
             id="path684"
             style="fill:#53b8ea;fill-opacity:1;fill-rule:nonzero;stroke:none"
             d="m 0,0 c 42.718,24.682 66.579,69.432 66.624,115.46 v 0 C 23.912,90.776 0.049,46.025 0,0" /></g></g></g></g></svg>