<svg xmlns="http://www.w3.org/2000/svg" width="200" height="200" viewBox="0 0 200 200" fill="#e10098"><style>svg{fill:color(display-p3 0.8824 0 0.5961);}</style>
<circle cx="100" cy="100" r="100" fill="#F3F4F7"/>
<circle cx="100" cy="100" r="50" fill="white"/>
<g transform="translate(50,50)">
<path fill-rule="evenodd" clip-rule="evenodd" d="M50 6.4678L87.7 28.2339V71.7661L50 93.5322L12.3 71.7661V28.2339L50 6.4678ZM16.53 30.6761V62.6517L44.2217 14.6883L16.53 30.6761ZM50 13.14L18.0783 68.43H81.9217L50 13.14ZM77.6917 72.66H22.3083L50 88.6478L77.6917 72.66ZM83.47 62.6517L55.7783 14.6883L83.47 30.6761V62.6517Z"/><circle cx="14.41" cy="29.45" r="8.91"/><circle cx="14.41" cy="70.545" r="8.91"/><circle cx="50" cy="91.09" r="8.91"/><circle cx="85.585" cy="70.545" r="8.91"/><circle cx="85.585" cy="29.455" r="8.91"/><circle cx="50" cy="8.91" r="8.91"/>
</g>
<path d="M99.6464 99.3536C99.8417 99.5488 100.158 99.5488 100.354 99.3536L103.536 96.1716C103.731 95.9763 103.731 95.6597 103.536 95.4645C103.34 95.2692 103.024 95.2692 102.828 95.4645L100 98.2929L97.1716 95.4645C96.9763 95.2692 96.6597 95.2692 96.4645 95.4645C96.2692 95.6597 96.2692 95.9763 96.4645 96.1716L99.6464 99.3536ZM100.354 50.6464C100.158 50.4512 99.8417 50.4512 99.6464 50.6464L96.4645 53.8284C96.2692 54.0237 96.2692 54.3403 96.4645 54.5355C96.6597 54.7308 96.9763 54.7308 97.1716 54.5355L100 51.7071L102.828 54.5355C103.024 54.7308 103.34 54.7308 103.536 54.5355C103.731 54.3403 103.731 54.0237 103.536 53.8284L100.354 50.6464ZM100.5 99V51H99.5V99H100.5Z" fill="#0085FF"/>
<path d="M99.6464 49.3536C99.8417 49.5488 100.158 49.5488 100.354 49.3536L103.536 46.1716C103.731 45.9763 103.731 45.6597 103.536 45.4645C103.34 45.2692 103.024 45.2692 102.828 45.4645L100 48.2929L97.1716 45.4645C96.9763 45.2692 96.6597 45.2692 96.4645 45.4645C96.2692 45.6597 96.2692 45.9763 96.4645 46.1716L99.6464 49.3536ZM100.354 0.646447C100.158 0.451184 99.8417 0.451184 99.6464 0.646447L96.4645 3.82843C96.2692 4.02369 96.2692 4.34027 96.4645 4.53553C96.6597 4.7308 96.9763 4.7308 97.1716 4.53553L100 1.70711L102.828 4.53553C103.024 4.7308 103.34 4.7308 103.536 4.53553C103.731 4.34027 103.731 4.02369 103.536 3.82843L100.354 0.646447ZM100.5 49V1H99.5V49H100.5Z" fill="#0085FF"/>
<path d="M150.646 99.6464C150.451 99.8417 150.451 100.158 150.646 100.354L153.828 103.536C154.024 103.731 154.34 103.731 154.536 103.536C154.731 103.34 154.731 103.024 154.536 102.828L151.707 100L154.536 97.1716C154.731 96.9763 154.731 96.6597 154.536 96.4645C154.34 96.2692 154.024 96.2692 153.828 96.4645L150.646 99.6464ZM199.354 100.354C199.549 100.158 199.549 99.8417 199.354 99.6464L196.172 96.4645C195.976 96.2692 195.66 96.2692 195.464 96.4645C195.269 96.6597 195.269 96.9763 195.464 97.1716L198.293 100L195.464 102.828C195.269 103.024 195.269 103.34 195.464 103.536C195.66 103.731 195.976 103.731 196.172 103.536L199.354 100.354ZM151 100.5H199V99.5H151V100.5Z" fill="#0085FF"/>
</svg>
