<svg viewBox="0 0 31 31" xmlns="http://www.w3.org/2000/svg">
  <path
    d="M18.3481 12.156C15.0977 13.2186 14.2151 12.5667 12.4961 12.6605V13.7848L13.9087 13.8857C14.6275 13.9482 14.7158 15.0686 14.7158 16.9126V23.7592C14.7158 25.4469 14.5604 25.6858 13.5915 25.7483L12.4961 25.8204V26.9735L16.532 26.8726C17.1571 26.8726 18.6612 26.9109 20.7552 26.9735V25.8204L19.6598 25.7483C18.6909 25.6858 18.5355 25.4469 18.5355 23.7592V16.9702C18.5355 15.8763 19.8125 14.8514 21.1877 14.8514C23.2504 14.8514 24.1281 15.9401 24.1281 18.4405V26.9735C25.9096 26.911 26.4387 26.8726 26.9388 26.8726C27.3764 26.8726 27.3763 26.8797 30.0954 26.9735V25.8204L29.0721 25.7483C28.1032 25.6858 27.9478 25.4469 27.9478 23.7592V17.936C27.9478 15.5294 27.6649 14.3428 26.8523 13.4677C26.0397 12.6238 24.7515 12.156 23.22 12.156C22.4458 12.156 21.8014 12.287 21.3174 12.5596C21.2885 12.5759 21.2586 12.5855 21.2309 12.6028C20.1472 13.1328 19.2337 13.8335 18.5355 14.6208V12.3434L18.3481 12.156Z"
    fill="black"
  />
  <path
    d="M17.9429 11.8101C14.6924 12.8727 13.8098 12.2208 12.0908 12.3145V13.4388L13.5034 13.5397C14.2222 13.6022 14.3106 14.7227 14.3106 16.5666V23.4132C14.3106 25.101 14.1552 25.3399 13.1863 25.4024L12.0908 25.4744V26.6275L16.1267 26.5266C16.7518 26.5266 18.256 26.565 20.35 26.6275V25.4744L19.2545 25.4024C18.2856 25.3399 18.1302 25.101 18.1302 23.4132V16.6243C18.1302 15.5304 19.4072 14.5055 20.7824 14.5055C22.8452 14.5055 23.7228 15.5942 23.7228 18.0945V26.6275C25.5043 26.565 26.0335 26.5266 26.5335 26.5266C26.9711 26.5266 26.9711 26.5338 29.6902 26.6275V25.4744L28.6668 25.4024C27.6979 25.3399 27.5425 25.101 27.5425 23.4132V17.59C27.5425 15.1835 27.2596 13.9968 26.447 13.1217C25.6344 12.2779 24.3462 11.8101 22.8147 11.8101C22.0406 11.8101 21.3962 11.941 20.9121 12.2136C20.8832 12.2299 20.8534 12.2396 20.8256 12.2569C19.742 12.7869 18.8284 13.4876 18.1302 14.2748V11.9974L17.9429 11.8101Z"
    fill="#4BEB4A"
  />
  <path
    d="M10.5889 4.37247C10.1609 4.37062 9.83446 4.45368 9.46458 4.54543C6.52329 5.29903 4.30284 7.26079 3.82875 9.66236C3.68107 10.2135 3.64137 10.8941 3.64137 11.9109V13.2514C2.82877 13.814 2.20798 14.1639 1.1766 14.664V15.4135L3.64137 15.2549V23.7591C3.64137 25.4781 3.48611 25.6857 2.32971 25.7482L1.04688 25.8203V26.9734C4.85987 26.8797 4.86369 26.8725 5.45752 26.8725C5.89508 26.8725 5.89847 26.8797 10.4303 26.9734V25.8203L9.01775 25.7482C8.17389 25.717 7.64129 25.5011 7.54753 25.1573C7.48502 24.876 7.46105 24.5092 7.46105 23.7591V15.2549H11.3384L11.6699 13.4388L11.5546 13.1938C9.52308 13.2875 8.74246 13.3091 7.46105 13.3091V9.93622C7.46105 8.74857 7.54496 8.19486 7.76374 7.78856C7.99117 7.36212 8.49001 7.12343 9.11864 7.08228C9.29873 7.57074 9.49096 7.98401 9.68079 8.20656C10.4428 9.0999 11.7855 9.19916 12.6789 8.43718C13.4739 7.75909 13.6477 6.62814 13.1401 5.7562C12.8842 5.21838 12.4417 4.78629 11.9005 4.55985C11.4808 4.38538 11.0344 4.38554 10.5889 4.37247Z"
    fill="black"
  />
  <path
    d="M10.1269 4.02652C9.69901 4.02467 9.37255 4.10774 9.00266 4.19949C6.06138 4.95308 3.84092 6.91484 3.36684 9.31641C3.21915 9.86756 3.17946 10.5482 3.17946 11.565V12.9055C2.36685 13.468 1.74607 13.818 0.714686 14.318V15.0675L3.17946 14.909V23.4132C3.17946 25.1322 3.02419 25.3398 1.8678 25.4023L0.584961 25.4744V26.6275C4.39795 26.5337 4.40178 26.5266 4.99561 26.5266C5.43316 26.5266 5.43656 26.5337 9.96839 26.6275V25.4744L8.55583 25.4023C7.71197 25.371 7.17938 25.1551 7.08562 24.8113C7.02311 24.53 6.99914 24.1633 6.99914 23.4132V14.909H10.8765L11.208 13.0928L11.0927 12.8478C9.06116 12.9416 8.28055 12.9631 6.99914 12.9631V9.59028C6.99914 8.40262 7.08305 7.84891 7.30183 7.44261C7.52926 7.01617 8.0281 6.77748 8.65673 6.73633C8.83682 7.22479 9.02905 7.63806 9.21887 7.86061C9.98085 8.75395 11.3236 8.85321 12.217 8.09123C13.0119 7.41314 13.1857 6.28219 12.6782 5.41025C12.4223 4.87243 11.9798 4.44035 11.4386 4.2139C11.0189 4.03943 10.5725 4.0396 10.1269 4.02652Z"
    fill="#E6E6E6"
  />
</svg>
