<svg viewBox="0 0 17 23" fill="currentColor" xmlns="http://www.w3.org/2000/svg">
  <path
    d="M8.31423 0.589844C4.06249 0.589844 0.603516 4.04933 0.603516 8.30117C0.603516 12.3939 7.59958 21.9561 7.89747 22.361L8.17548 22.7394C8.20799 22.7838 8.25976 22.8098 8.31423 22.8098C8.36954 22.8098 8.42097 22.7838 8.45382 22.7394L8.73166 22.361C9.02972 21.9561 16.0256 12.3939 16.0256 8.30117C16.0256 4.04933 12.5661 0.589844 8.31423 0.589844ZM8.31423 5.53899C9.83764 5.53899 11.0764 6.77782 11.0764 8.30117C11.0764 9.82374 9.83758 11.0634 8.31423 11.0634C6.79172 11.0634 5.55204 9.82374 5.55204 8.30117C5.55204 6.77782 6.79166 5.53899 8.31423 5.53899Z"
  />
</svg>
