<svg
  width="23"
  height="24"
  viewBox="0 0 23 24"
  fill="currentColor"
  xmlns="http://www.w3.org/2000/svg"
>
  <path
    fill-rule="evenodd"
    clip-rule="evenodd"
    d="M2.32178 10.3826C2.32178 6.24043 5.67964 2.88257 9.82178 2.88257C13.9639 2.88257 17.3218 6.24043 17.3218 10.3826C17.3218 14.5247 13.9639 17.8826 9.82178 17.8826C5.67964 17.8826 2.32178 14.5247 2.32178 10.3826ZM9.82178 0.882568C4.57507 0.882568 0.321777 5.13586 0.321777 10.3826C0.321777 15.6293 4.57507 19.8826 9.82178 19.8826C12.0986 19.8826 14.1883 19.0816 15.8246 17.7461L21.6435 23.1174L23.0001 21.6478L17.234 16.3252C18.5403 14.6981 19.3218 12.6316 19.3218 10.3826C19.3218 5.13586 15.0685 0.882568 9.82178 0.882568Z"
  />
</svg>
