<svg
  xmlns="http://www.w3.org/2000/svg"
  width="32"
  height="32"
  fill="currentColor"
  viewBox="0 0 32 32"
>
  <path
    d="M22.525 20c.2-.125.425-.25.625-.375 1.4-1.2.9-3.375-1.475-6.425.05 1.525.3 3.1.55 4.775q.15.975.3 2.025M9 25.8c.8 3.425 2.825 5.275 5.125 6.05 1.275.225 2.55.175 3.825-.1.2-.1.375-.225.55-.35.5-.325.925-.7 1.325-1.075-1.625-.7-3.275-2.05-4.825-3.65-1.2-.075-2.375-.2-3.4-.35-1-.1-1.85-.275-2.6-.525M8.65 9.675l-.05.35c-.35 1.975-.375 3.75-.1 5.3.275-1.85.65-3.75 1.175-5.575.075-.275.15-.575.25-.875h.025c.4-1.25.85-2.45 1.375-3.575-1 1.325-1.875 2.8-2.675 4.375"
  />
  <path
    d="M8.475 28.5a9.2 9.2 0 0 0 2.975 2.475c-1.4-1.15-2.5-2.875-3-5.35-.95-.35-1.7-.825-2.275-1.425.4 1.6 1.15 3.075 2.3 4.3m-.15-11.75q-.675-2.213-.45-5.1c-.275.575-.525 1.2-.8 1.825C5.95 16.75 5.45 20.15 5.925 23.15c.525.8 1.3 1.45 2.4 1.9-.35-1.925-.375-4.975 0-8.3m.55 8.45q0 .038 0 0c.8.3 1.7.5 2.775.625.875.15 1.825.25 2.825.325C12.4 23.875 10.575 21.2 9.4 19c-.275-.4-.5-.825-.7-1.25-.275 3.05-.2 5.775.175 7.45m12.85-7.175c-.275-1.875-.575-3.775-.575-5.575-3.175-2.95-6.25-6.1-6.125-11.175-.1.075-.2.15-.275.225-.55.475-1.1 1-1.625 1.575C12 4.675 11.1 6.725 10.4 8.95c-.4 2.9 2.4 8.575 6.125 12.925 1.8-.075 3.7-.625 5.525-1.625-.1-.725-.2-1.475-.325-2.225m2.5 9.925a8.5 8.5 0 0 1-1.95-.65 8.1 8.1 0 0 1-1.6 2.85c.275.075.525.15.775.175 1.05-.625 2-1.45 2.775-2.375"
  />
  <path
    d="M15.525.9C15.25 5.775 18.05 8.875 21.1 11.7 18.425 8.15 16.875 6.025 16.875.075q-.638.338-1.35.825M20.8 26.45c-1.325.2-2.7.275-4.05.275-.35 0-.725 0-1.075-.025 1.45 1.45 3 2.65 4.5 3.25a7.5 7.5 0 0 0 1.65-2.9 8.4 8.4 0 0 1-1.025-.6m-.6-.4c-.5-.35-.95-.725-1.375-1.1A27 27 0 0 1 16.3 22.4c-1.775.025-3.425-.4-4.775-1.275a5 5 0 0 1-.575-.425c1.15 1.825 2.625 3.825 4.225 5.5 1.625.075 3.375.05 5.025-.15m2.4.05c-.05.25-.1.475-.175.725.7.35 1.425.6 2.15.675A9.1 9.1 0 0 0 26 24.675c-.925.625-2.1 1.1-3.4 1.425"
  />
  <path
    d="M11.8 20.7c1.175.75 2.575 1.15 4.075 1.2-3.075-3.65-5.45-8.1-5.925-11.25-.575 2.225-.775 3.6-1.1 5.9v.05c.225.575.525 1.275.925 2.025.525.85 1.2 1.55 2.025 2.075m10.325.1c-1.7.925-3.475 1.45-5.175 1.575.725.8 1.45 1.55 2.2 2.2.525.475 1.125.95 1.775 1.375.425-.075.825-.15 1.225-.225.25-1.575.175-3.225-.025-4.925m.55 4.775c1.4-.375 2.625-.9 3.525-1.65.375-1.725.25-3.6-.575-5.6a58 58 0 0 0-2.075-3.25c1.2 2.2 1.175 3.8-.1 4.9l-.025.025c-.275.175-.55.35-.85.525.225 1.725.325 3.45.1 5.05"
  />
</svg>
