<svg xmlns="http://www.w3.org/2000/svg" viewBox="0 0 496 440"><style>.st0{fill:url(#SVGID_1_);stroke:#8F9199;stroke-miterlimit:10;} .st1{fill:#FFFFFF;stroke:#BDC2CC;stroke-miterlimit:10;} .st2{fill:#FFFFFF;stroke:#231F20;stroke-miterlimit:10;} .st3{fill:url(#SVGID_2_);stroke:#A7A7B3;stroke-miterlimit:10;}</style><g id="phone"><linearGradient id="SVGID_1_" gradientUnits="userSpaceOnUse" x1="2.812" y1="366.402" x2="493.262" y2="366.402"><stop offset="0" stop-color="#B7BABF"/><stop offset=".01" stop-color="#D7DAE0"/><stop offset=".72" stop-color="#D7DAE0"/><stop offset=".77" stop-color="#C9CCD1"/><stop offset=".99" stop-color="#C9CCD1"/><stop offset="1" stop-color="#B5B8BD"/></linearGradient><path class="st0" d="M493.3 371.5l-18.2-.2v4.9l-334.7-80.8c-6.6-1.6-15.6-1.2-20.1.8l-99.6 44.3v-2.2H2.8v11.6c.1 1.5 2.2 2.9 6.2 3.9l346.6 83.7c6.6 1.6 15.6 1.2 20.1-.8l114.9-51.1c1.7-.7 2.5-1.6 2.5-2.5v-11.6z"/><path class="st1" d="M490.7 373.9L375.8 425c-4.5 2-13.6 2.4-20.1.8L9.1 342.1c-6.6-1.6-8.2-4.5-3.7-6.5l114.9-51.1c4.5-2 13.6-2.4 20.1-.8L487 367.4c6.6 1.6 8.2 4.5 3.7 6.5z"/><path class="st2" d="M439.8 360.5l-118.1 52.6-287.1-69.3 118.1-52.6z"/><linearGradient id="SVGID_2_" gradientUnits="userSpaceOnUse" x1="406.398" y1="386.749" x2="406.398" y2="399.253"><stop offset=".192" stop-color="#FFF"/><stop offset=".995" stop-color="#E6E9ED"/></linearGradient><path class="st3" d="M395.4 397.9c8.9 2.1 21 1.7 27.1-1s3.9-6.6-5-8.8-21-1.7-27.1 1c-6.1 2.7-3.9 6.7 5 8.8z"/><path d="M101.6 306.5l-35 15.5c-1.8.8-4.8.9-6.7.2-1.9-.7-1.2-1.9.6-2.7L95.4 304c1.8-.8 4-.9 5.9-.2 2 .7 2.1 1.9.3 2.7zM479.5 382.9c-.6 1.3-.5 3 .3 3.8.7.9 1.8.5 2.4-.7.6-1.3.5-3-.3-3.8-.7-.9-1.8-.6-2.4.7zM474 385.3c-.6 1.3-.5 3 .3 3.8.7.9 1.8.5 2.4-.7.6-1.3.5-3-.3-3.8-.7-.8-1.8-.5-2.4.7zM468.5 387.8c-.6 1.3-.5 3 .3 3.8.7.9 1.8.5 2.4-.7.6-1.3.5-3-.3-3.8-.7-.9-1.8-.6-2.4.7zM463 390.2c-.6 1.3-.5 3 .3 3.8.7.9 1.8.5 2.4-.7.6-1.3.5-3-.3-3.8-.7-.8-1.8-.5-2.4.7zM457.5 392.7c-.6 1.3-.5 3 .3 3.8.7.9 1.8.5 2.4-.7.6-1.3.5-3-.3-3.8-.7-.9-1.8-.6-2.4.7z"/></g></svg>