<?xml version="1.0" encoding="utf-8"?>
<!-- Generator: Adobe Illustrator 19.2.1, SVG Export Plug-In . SVG Version: 6.00 Build 0)  -->
<svg version="1.1" xmlns="http://www.w3.org/2000/svg" xmlns:xlink="http://www.w3.org/1999/xlink" x="0px" y="0px"
	 viewBox="0 0 496 440" style="enable-background:new 0 0 496 440;" xml:space="preserve">
<style type="text/css">
	.st0{fill:url(#SVGID_1_);stroke:#8F9199;stroke-miterlimit:10;}
	.st1{fill:#FFFFFF;stroke:#BDC2CC;stroke-miterlimit:10;}
	.st2{fill:#FFFFFF;stroke:#231F20;stroke-miterlimit:10;}
	.st3{fill:url(#SVGID_2_);stroke:#A7A7B3;stroke-miterlimit:10;}
</style>
<g id="phone">
	<g>
		<linearGradient id="SVGID_1_" gradientUnits="userSpaceOnUse" x1="2.8122" y1="366.4016" x2="493.2621" y2="366.4016">
			<stop  offset="0" style="stop-color:#B7BABF"/>
			<stop  offset="1.000000e-02" style="stop-color:#D7DAE0"/>
			<stop  offset="0.72" style="stop-color:#D7DAE0"/>
			<stop  offset="0.77" style="stop-color:#C9CCD1"/>
			<stop  offset="0.99" style="stop-color:#C9CCD1"/>
			<stop  offset="1" style="stop-color:#B5B8BD"/>
		</linearGradient>
		<path class="st0" d="M493.3,371.5l-18.2-0.2v4.9l-334.7-80.8c-6.6-1.6-15.6-1.2-20.1,0.8l-99.6,44.3v-2.2H2.8v5.8l0,5.8
			c0.1,1.5,2.2,2.9,6.2,3.9l346.6,83.7c6.6,1.6,15.6,1.2,20.1-0.8l114.9-51.1c1.7-0.7,2.5-1.6,2.5-2.5l0-5.8V371.5z"/>
		<path class="st1" d="M490.7,373.9L375.8,425c-4.5,2-13.6,2.4-20.1,0.8L9.1,342.1c-6.6-1.6-8.2-4.5-3.7-6.5l114.9-51.1
			c4.5-2,13.6-2.4,20.1-0.8L487,367.4C493.6,369,495.2,371.9,490.7,373.9z"/>
		<polygon class="st2" points="439.8,360.5 321.7,413.1 34.6,343.8 152.7,291.2 		"/>
		<linearGradient id="SVGID_2_" gradientUnits="userSpaceOnUse" x1="406.3978" y1="386.7492" x2="406.3978" y2="399.2532">
			<stop  offset="0.1915" style="stop-color:#FFFFFF"/>
			<stop  offset="0.9951" style="stop-color:#E6E9ED"/>
		</linearGradient>
		<path class="st3" d="M395.4,397.9c8.9,2.1,21,1.7,27.1-1s3.9-6.6-5-8.8s-21-1.7-27.1,1C384.3,391.8,386.5,395.8,395.4,397.9z"/>
		<path d="M101.6,306.5L66.6,322c-1.8,0.8-4.8,0.9-6.7,0.2h0c-1.9-0.7-1.2-1.9,0.6-2.7L95.4,304c1.8-0.8,4-0.9,5.9-0.2h0
			C103.3,304.5,103.4,305.7,101.6,306.5z"/>
		<path d="M479.5,382.9c-0.6,1.3-0.5,3,0.3,3.8c0.7,0.9,1.8,0.5,2.4-0.7c0.6-1.3,0.5-3-0.3-3.8C481.2,381.3,480.1,381.6,479.5,382.9
			z"/>
		<path d="M474,385.3c-0.6,1.3-0.5,3,0.3,3.8c0.7,0.9,1.8,0.5,2.4-0.7c0.6-1.3,0.5-3-0.3-3.8C475.7,383.8,474.6,384.1,474,385.3z"/>
		<path d="M468.5,387.8c-0.6,1.3-0.5,3,0.3,3.8c0.7,0.9,1.8,0.5,2.4-0.7c0.6-1.3,0.5-3-0.3-3.8C470.2,386.2,469.1,386.5,468.5,387.8
			z"/>
		<path d="M463,390.2c-0.6,1.3-0.5,3,0.3,3.8c0.7,0.9,1.8,0.5,2.4-0.7c0.6-1.3,0.5-3-0.3-3.8C464.7,388.7,463.6,389,463,390.2z"/>
		<path d="M457.5,392.7c-0.6,1.3-0.5,3,0.3,3.8c0.7,0.9,1.8,0.5,2.4-0.7c0.6-1.3,0.5-3-0.3-3.8C459.2,391.1,458.1,391.4,457.5,392.7
			z"/>
	</g>
</g>
</svg>
