<svg width="160" height="33" viewBox="0 0 160 33" fill="none" xmlns="http://www.w3.org/2000/svg">
<path d="M0 26.7792L11.9561 32.3978V32.3881L0 26.7695V26.7792Z" fill="#3F4DA0"/>
<path d="M23.9743 24.9823L18.0739 22.2422L12 25.096L11.8052 25.0038V25.0145L11.9561 25.0853V32.3855L12 32.4059L24 26.7669V24.9694L23.9743 24.9823Z" fill="#DB4D72"/>
<path d="M11.9293 12.0781V19.3891L18.0739 22.2429L24 19.4577V17.6613L11.9293 12.0781Z" fill="#31B3C4"/>
<path d="M18.0739 22.2422L23.9743 24.9823L24 24.9695V19.457L18.0739 22.2422Z" fill="#3F4DA0"/>
<path d="M0 19.4688V26.3732L0.00108029 19.4688H0Z" fill="#31B3C4"/>
<path d="M11.9561 25.0855L7.08569 22.7969L7.08783 30.0982L11.9561 32.3857V25.0855Z" fill="#3F4DA0"/>
<path d="M7.08246 10.0273L0.00109863 13.3552V19.4682L7.08567 22.7971L7.08246 10.0273Z" fill="#3F4DA0"/>
<path d="M0 26.375V26.7697L7.08778 30.1114V30.1007L0 26.7697V26.375Z" fill="#44EAA6"/>
<path d="M0.00107066 19.4688L0 26.3732V26.7679L7.08778 30.099L7.08564 22.7977L0.00107066 19.4688Z" fill="#31B3C4"/>
<path d="M6.72908 2.88281L4.22266 4.06037L6.22908 3.11768L6.72908 2.88281Z" fill="#31B3C4"/>
<path d="M0.00219727 6.04547V13.3553L7.08035 10.0264L11.999 7.71636L4.22275 4.0625L0.00219727 6.04547Z" fill="#DB4D72"/>
<path d="M11.9999 0.407322V0.40625L7.07804 2.71954L6.729 2.8847L11.9999 0.407322Z" fill="#6077D8"/>
<path d="M11.9999 0.40625L6.72908 2.88363L6.22908 3.1185L4.22266 4.06119L11.9989 7.71505H11.9999V0.40625Z" fill="#31B3C4"/>
<path d="M23.9999 6.04416V13.354L17.4677 10.2847L11.9999 7.71505V0.40625L17.4677 2.97479L23.9999 6.04416Z" fill="#3F4DA0"/>
<path d="M45.3197 14.807C45.2688 14.6812 45.2157 14.5577 45.1557 14.4398C44.7734 13.6808 44.2509 13.1047 43.5881 12.7106C42.9253 12.3176 42.1437 12.1211 41.2422 12.1211C40.4641 12.1211 39.7537 12.2603 39.1113 12.5377C38.4689 12.8162 37.9158 13.2058 37.452 13.7066C36.9871 14.2085 36.632 14.798 36.3866 15.4762C36.1411 16.1545 36.0178 16.8866 36.0178 17.6726V18.1408C36.0178 18.9268 36.1332 19.6556 36.3662 20.327C36.5981 20.9985 36.9329 21.5847 37.3706 22.0866C37.8072 22.5885 38.3365 22.9781 38.9586 23.2566C39.5796 23.5351 40.2729 23.6732 41.0375 23.6732C41.9254 23.6732 42.69 23.4868 43.3324 23.114C43.9681 22.7446 44.4669 22.2112 44.8277 21.5162V22.474C44.8277 23.1252 44.6977 23.6564 44.4386 24.0707C44.1796 24.4839 43.7724 24.7927 43.2193 24.9959C42.6662 25.1992 41.9458 25.3014 41.0579 25.3014C40.5794 25.3014 40.0501 25.2778 39.4698 25.2306C38.8896 25.1835 38.3603 25.1251 37.8818 25.0577V27.8031C38.3603 27.8705 38.8862 27.9255 39.4597 27.9659C40.0331 28.0064 40.593 28.0266 41.1393 28.0266C42.6685 28.0266 43.9353 27.8301 44.9397 27.4371C45.9441 27.0441 46.6917 26.4265 47.1826 25.5866C47.6746 24.7456 47.9201 23.6406 47.9201 22.2719V12.449H45.3186V14.807H45.3197ZM44.7666 18.1015C44.7666 18.6989 44.6468 19.2064 44.4081 19.6264C44.1694 20.0463 43.8448 20.3686 43.4354 20.592C43.0259 20.8155 42.5678 20.9278 42.0634 20.9278C41.5307 20.9278 41.0556 20.8088 40.6394 20.5718C40.222 20.3349 39.8951 19.9891 39.6565 19.5343C39.4178 19.0807 39.2979 18.5349 39.2979 17.8971C39.2979 17.274 39.4133 16.7316 39.6463 16.2701C39.8782 15.8097 40.2062 15.4504 40.6292 15.1921C41.0522 14.935 41.5374 14.8059 42.0837 14.8059C42.5475 14.8059 42.9852 14.9114 43.3947 15.1214C43.8041 15.3314 44.1355 15.6368 44.3877 16.0366C44.64 16.4363 44.7666 16.9281 44.7666 17.5109V18.1015V18.1015Z" fill="#373859"/>
<path d="M54.3242 13.5859C53.8141 14.2304 53.4974 15.0793 53.3718 16.1326V12.4473H50.7704V23.5918H54.0482V17.9179C54.0482 17.0095 54.2937 16.3145 54.7857 15.8339C55.2777 15.3522 55.9733 15.1119 56.8748 15.1119H57.6948V12.3047H57.265C55.979 12.3047 54.9995 12.7314 54.3242 13.5859Z" fill="#373859"/>
<path d="M66.3078 12.7541C65.5229 12.4284 64.5558 12.2656 63.4089 12.2656C63.013 12.2656 62.5889 12.2724 62.1387 12.2858C61.6885 12.2993 61.2508 12.3195 60.8278 12.3465C60.4048 12.3734 60.036 12.4004 59.7216 12.4273V15.1727C60.1446 15.1458 60.6163 15.1188 61.1354 15.0919C61.6546 15.0649 62.1602 15.0447 62.6511 15.0313C63.1431 15.0178 63.539 15.011 63.8387 15.011C64.4393 15.011 64.877 15.1537 65.1496 15.4377C65.4222 15.7229 65.5591 16.1496 65.5591 16.7189V16.7594H63.5322C62.5346 16.7594 61.6546 16.8851 60.89 17.1355C60.1254 17.387 59.5305 17.7733 59.1074 18.2943C58.6844 18.8165 58.4729 19.4846 58.4729 20.2975C58.4729 21.0431 58.6437 21.6843 58.9853 22.2199C59.3269 22.7555 59.8008 23.1653 60.4093 23.4506C61.0167 23.7358 61.7236 23.8772 62.5301 23.8772C63.3082 23.8772 63.9676 23.7346 64.5072 23.4506C65.0467 23.1653 65.4697 22.7589 65.7774 22.23C65.9142 21.9942 66.0262 21.7337 66.1155 21.4496V23.5932H68.717V16.7594C68.717 15.7297 68.5123 14.8853 68.1028 14.2273C67.6911 13.5715 67.0928 13.0797 66.3078 12.7541ZM64.5049 21.4283C64.2108 21.5574 63.8806 21.6214 63.5118 21.6214C62.9384 21.6214 62.4973 21.4822 62.1907 21.2048C61.8831 20.9275 61.7293 20.5637 61.7293 20.1167C61.7293 19.6418 61.8831 19.2656 62.1907 18.9883C62.4984 18.7109 62.9384 18.5717 63.5118 18.5717H65.5602V19.4666C65.533 20.0224 65.4233 20.457 65.2322 20.768C65.041 21.0791 64.799 21.2991 64.5049 21.4283Z" fill="#373859"/>
<path d="M82.2254 13.738C81.7673 13.2294 81.221 12.833 80.5865 12.5478C79.9508 12.2626 79.245 12.1211 78.4657 12.1211C77.5914 12.1211 76.8065 12.3142 76.1097 12.7005C75.413 13.0868 74.8599 13.6639 74.4504 14.4297C74.3136 14.6846 74.1993 14.9608 74.1021 15.2539V12.4467H71.5006V27.6583H74.7784V22.2022C75.1551 22.739 75.6222 23.1522 76.1821 23.4385C76.8585 23.7844 77.6197 23.9573 78.4669 23.9573C79.2858 23.9573 80.013 23.8113 80.6487 23.5205C81.2844 23.2286 81.8228 22.8254 82.2673 22.31C82.7106 21.7946 83.0488 21.1883 83.2818 20.4899C83.5137 19.7914 83.6302 19.0425 83.6302 18.243V17.7748C83.6302 16.9607 83.5103 16.2117 83.2716 15.5279C83.0307 14.8429 82.6835 14.2456 82.2254 13.738ZM79.9825 19.6859C79.7506 20.1743 79.426 20.5539 79.0098 20.8245C78.5924 21.0962 78.1049 21.231 77.545 21.231C77.0802 21.231 76.63 21.122 76.1934 20.9053C75.7557 20.6886 75.3971 20.3731 75.1178 19.9599C74.8373 19.5467 74.6981 19.0481 74.6981 18.4653V17.713C74.6981 17.1033 74.8316 16.5845 75.0974 16.1567C75.3632 15.7289 75.715 15.401 76.1527 15.1708C76.5893 14.9406 77.0542 14.825 77.5462 14.825C78.1196 14.825 78.6116 14.9575 79.0211 15.2213C79.4305 15.4852 79.7518 15.8558 79.9836 16.3296C80.2155 16.8046 80.332 17.3604 80.332 17.9971C80.3309 18.636 80.2144 19.1986 79.9825 19.6859Z" fill="#373859"/>
<path d="M92.6425 12.1012H92.4989C91.6517 12.1012 90.9482 12.3011 90.3883 12.7009C89.8658 13.0736 89.4642 13.6115 89.1792 14.3088V8.74609H85.9014V23.5927H89.1792V17.308V17.1654C89.1792 16.5141 89.367 15.9931 89.7425 15.599C90.118 15.206 90.6134 15.0095 91.2276 15.0095C91.8146 15.0095 92.2897 15.1959 92.6516 15.5687C93.0135 15.9415 93.1945 16.4333 93.1945 17.043V23.5916H96.4723V17.2462C96.4723 15.5653 96.1443 14.2875 95.4894 13.4128C94.8346 12.538 93.8856 12.1012 92.6425 12.1012Z" fill="#373859"/>
<path d="M106.235 12.7541C105.45 12.4284 104.483 12.2656 103.336 12.2656C102.94 12.2656 102.516 12.2724 102.065 12.2858C101.615 12.2993 101.178 12.3195 100.755 12.3465C100.332 12.3734 99.9628 12.4004 99.6484 12.4273V15.1727C100.071 15.1458 100.543 15.1188 101.062 15.0919C101.581 15.0649 102.087 15.0447 102.578 15.0313C103.07 15.0178 103.466 15.011 103.765 15.011C104.366 15.011 104.804 15.1537 105.076 15.4377C105.349 15.7229 105.486 16.1496 105.486 16.7189V16.7594H103.459C102.461 16.7594 101.581 16.8851 100.817 17.1355C100.052 17.387 99.4572 17.7733 99.0342 18.2943C98.6112 18.8165 98.3997 19.4846 98.3997 20.2975C98.3997 21.0431 98.5705 21.6843 98.912 22.2199C99.2536 22.7555 99.7275 23.1653 100.336 23.4506C100.943 23.7358 101.65 23.8772 102.457 23.8772C103.235 23.8772 103.894 23.7346 104.434 23.4506C104.973 23.1653 105.396 22.7589 105.704 22.23C105.841 21.9942 105.953 21.7337 106.042 21.4496V23.5932H108.644V16.7594C108.644 15.7297 108.439 14.8853 108.03 14.2273C107.618 13.5715 107.021 13.0797 106.235 12.7541ZM104.432 21.4283C104.138 21.5574 103.807 21.6214 103.439 21.6214C102.865 21.6214 102.424 21.4822 102.117 21.2048C101.81 20.9275 101.656 20.5637 101.656 20.1167C101.656 19.6418 101.81 19.2656 102.117 18.9883C102.425 18.7109 102.865 18.5717 103.439 18.5717H105.487V19.4666C105.46 20.0224 105.35 20.457 105.159 20.768C104.968 21.0791 104.726 21.2991 104.432 21.4283Z" fill="#373859"/>
<path d="M122.184 13.7182C121.746 13.2095 121.218 12.8165 120.596 12.5392C119.974 12.2618 119.281 12.1226 118.517 12.1226C117.643 12.1226 116.864 12.3157 116.181 12.702C115.573 13.0467 115.082 13.543 114.706 14.1887V8.74609H111.428V23.5927H114.03V21.1628C114.102 21.3515 114.184 21.5311 114.275 21.7018C114.671 22.4339 115.218 22.9931 115.914 23.3794C116.611 23.7656 117.416 23.9588 118.331 23.9588C119.137 23.9588 119.861 23.8128 120.503 23.522C121.144 23.23 121.694 22.8235 122.152 22.3014C122.609 21.7793 122.957 21.1729 123.197 20.4812C123.436 19.7895 123.556 19.0372 123.556 18.2243V17.7774C123.556 16.9633 123.436 16.211 123.197 15.5204C122.959 14.8276 122.62 14.2268 122.184 13.7182ZM119.909 19.6773C119.677 20.1724 119.353 20.5553 118.937 20.826C118.519 21.0977 118.032 21.2324 117.472 21.2324C117.007 21.2324 116.557 21.1235 116.12 20.9068C115.682 20.6901 115.324 20.3746 115.045 19.9613C114.764 19.5481 114.625 19.0496 114.625 18.4668V17.7145C114.625 17.1048 114.758 16.586 115.024 16.1582C115.29 15.7304 115.642 15.4025 116.079 15.1723C116.516 14.9421 116.981 14.8264 117.473 14.8264C118.033 14.8264 118.52 14.9589 118.938 15.2228C119.354 15.4867 119.678 15.8572 119.91 16.3311C120.142 16.8061 120.259 17.3619 120.259 17.9986C120.258 18.624 120.141 19.1832 119.909 19.6773Z" fill="#373859"/>
<path d="M132.805 12.7541C132.02 12.4284 131.053 12.2656 129.906 12.2656C129.51 12.2656 129.086 12.2724 128.635 12.2858C128.185 12.2993 127.748 12.3195 127.325 12.3465C126.901 12.3734 126.533 12.4004 126.218 12.4273V15.1727C126.641 15.1458 127.113 15.1188 127.632 15.0919C128.151 15.0649 128.657 15.0447 129.148 15.0313C129.64 15.0178 130.036 15.011 130.335 15.011C130.936 15.011 131.374 15.1537 131.646 15.4377C131.919 15.7229 132.056 16.1496 132.056 16.7189V16.7594H130.028C129.03 16.7594 128.15 16.8851 127.386 17.1355C126.621 17.387 126.026 17.7733 125.603 18.2943C125.18 18.8165 124.969 19.4846 124.969 20.2975C124.969 21.0431 125.139 21.6843 125.481 22.2199C125.822 22.7555 126.296 23.1653 126.905 23.4506C127.512 23.7358 128.219 23.8772 129.026 23.8772C129.804 23.8772 130.463 23.7346 131.003 23.4506C131.542 23.1653 131.965 22.7589 132.273 22.23C132.41 21.9942 132.522 21.7337 132.611 21.4496V23.5932H135.213V16.7594C135.213 15.7297 135.008 14.8853 134.598 14.2273C134.188 13.5715 133.591 13.0797 132.805 12.7541ZM131.003 21.4283C130.709 21.5574 130.378 21.6214 130.01 21.6214C129.436 21.6214 128.995 21.4822 128.689 21.2048C128.381 20.9275 128.227 20.5637 128.227 20.1167C128.227 19.6418 128.381 19.2656 128.689 18.9883C128.996 18.7109 129.436 18.5717 130.01 18.5717H132.058V19.4666C132.031 20.0224 131.921 20.457 131.73 20.768C131.538 21.0791 131.296 21.2991 131.003 21.4283Z" fill="#373859"/>
<path d="M146.11 17.8354C145.346 17.2257 144.274 16.8461 142.894 16.6968L142.013 16.616C141.426 16.5486 141.001 16.4329 140.742 16.2701C140.483 16.1073 140.353 15.8704 140.353 15.5582C140.353 15.2326 140.504 14.9754 140.803 14.7857C141.104 14.5959 141.507 14.5005 142.013 14.5005C142.654 14.5005 143.139 14.6262 143.467 14.8766C143.795 15.1281 143.986 15.4358 144.041 15.8019H146.95C146.909 14.6094 146.444 13.6965 145.556 13.0666C144.668 12.4355 143.501 12.1211 142.053 12.1211C141.152 12.1211 140.35 12.257 139.646 12.5276C138.943 12.7993 138.393 13.1991 137.997 13.7279C137.601 14.2568 137.403 14.9148 137.403 15.7008C137.403 16.6496 137.742 17.43 138.417 18.0398C139.093 18.6495 140.107 19.0234 141.46 19.1581L142.341 19.239C143.078 19.3198 143.59 19.4591 143.877 19.6556C144.164 19.8521 144.306 20.1137 144.306 20.4382C144.306 20.8043 144.119 21.0861 143.743 21.2826C143.368 21.4791 142.893 21.5779 142.319 21.5779C141.568 21.5779 141.005 21.4387 140.629 21.1613C140.254 20.884 140.039 20.5685 139.983 20.2159H137.074C137.129 21.3949 137.607 22.3112 138.509 22.9613C139.41 23.6114 140.66 23.9371 142.258 23.9371C143.268 23.9371 144.149 23.7911 144.9 23.5003C145.651 23.2095 146.231 22.7884 146.642 22.2393C147.052 21.6902 147.256 21.0434 147.256 20.2967C147.258 19.2659 146.875 18.4451 146.11 17.8354Z" fill="#373859"/>
<path d="M160 17.7779C160 16.7606 159.782 15.8219 159.344 14.9606C158.906 14.0994 158.275 13.4021 157.45 12.8654C156.623 12.3297 155.609 12.0625 154.407 12.0625C153.492 12.0625 152.676 12.2219 151.959 12.5408C151.242 12.8597 150.645 13.2898 150.167 13.8321C149.688 14.3745 149.323 14.9887 149.071 15.6725C148.817 16.3575 148.692 17.0728 148.692 17.8183V18.2248C148.692 18.9435 148.818 19.6453 149.071 20.3302C149.323 21.0152 149.692 21.6316 150.177 22.1807C150.661 22.7298 151.269 23.1666 152 23.4922C152.731 23.8179 153.574 23.9807 154.53 23.9807C155.472 23.9807 156.306 23.8179 157.03 23.4922C157.754 23.1666 158.354 22.7129 158.833 22.1291C159.311 21.5463 159.631 20.8815 159.795 20.136H156.783C156.646 20.4751 156.387 20.7603 156.005 20.9905C155.623 21.2206 155.131 21.3363 154.53 21.3363C153.874 21.3363 153.343 21.2004 152.932 20.9298C152.523 20.6592 152.222 20.2763 152.031 19.7811C151.924 19.506 151.848 19.204 151.801 18.8761H159.999V17.7779H160ZM152.052 16.2216C152.257 15.7264 152.558 15.3503 152.954 15.0931C153.349 14.836 153.835 14.7069 154.408 14.7069C154.968 14.7069 155.435 14.8326 155.812 15.083C156.187 15.3346 156.47 15.6961 156.662 16.1711C156.765 16.4282 156.84 16.7134 156.887 17.0256H151.827C151.877 16.7314 151.953 16.463 152.052 16.2216Z" fill="#373859"/>
</svg>
