<?xml version="1.0" encoding="utf-8"?>
<!-- Generator: Adobe Illustrator 27.8.1, SVG Export Plug-In . SVG Version: 6.00 Build 0)  -->
<svg version="1.1" id="Graphabase-Logo" xmlns="http://www.w3.org/2000/svg" xmlns:xlink="http://www.w3.org/1999/xlink" x="0px"
	 y="0px" viewBox="0 0 250 138.4" style="enable-background:new 0 0 250 138.4;" xml:space="preserve">
<style type="text/css">
	.st0{fill:#3F4E9F;}
	.st1{fill:#DB4D73;}
	.st2{fill:#2EB1C3;}
	.st3{fill:#70C498;}
	.st4{fill:#6375B7;}
	.st5{fill:#383859;}
</style>
<g>
	<g>
		<polygon class="st0" points="95.3,67.2 125.1,81.2 125.1,81.2 		"/>
		<polygon class="st1" points="155.1,62.8 140.4,55.9 125.2,63 124.7,62.8 124.7,62.8 125.1,63 125.1,81.2 125.2,81.2 155.1,67.2 
			155.1,62.7 		"/>
		<polygon class="st2" points="125.1,30.7 125.1,48.8 140.4,55.9 155.1,49 155.1,44.5 		"/>
		<polygon class="st0" points="140.4,55.9 155.1,62.8 155.1,62.7 155.1,49 		"/>
		<path class="st2" d="M95.3,49v17.2V49z"/>
		<polygon class="st0" points="125.1,63 113,57.3 113,75.5 125.1,81.2 		"/>
		<polygon class="st0" points="113,25.6 95.3,33.8 95.3,49 113,57.3 		"/>
		<polygon class="st3" points="95.3,66.2 95.3,67.2 113,75.5 113,75.5 95.3,67.2 		"/>
		<polygon class="st2" points="95.3,49 95.3,66.2 95.3,67.2 113,75.5 113,57.3 		"/>
		<polygon class="st2" points="112.1,7.8 105.9,10.7 105.9,10.7 110.9,8.4 		"/>
		<polygon class="st1" points="95.3,15.7 95.3,33.8 113,25.6 125.2,19.8 105.9,10.7 		"/>
		<polygon class="st4" points="125.2,1.6 125.2,1.6 113,7.4 112.1,7.8 		"/>
		<polygon class="st2" points="125.2,1.6 125.2,1.6 112.1,7.8 110.9,8.4 105.9,10.7 125.2,19.8 125.2,19.8 		"/>
		<polygon class="st0" points="155.1,15.7 155.1,33.8 138.9,26.2 125.2,19.8 125.2,1.6 138.9,8 		"/>
	</g>
	<g>
		<path class="st5" d="M19.2,111.7c-0.1-0.3-0.2-0.5-0.3-0.7c-0.8-1.5-1.8-2.7-3.1-3.5s-2.9-1.2-4.7-1.2c-1.6,0-3,0.3-4.3,0.8
			c-1.3,0.6-2.4,1.4-3.3,2.4s-1.6,2.2-2.1,3.6s-0.7,2.9-0.7,4.4v0.9c0,1.6,0.2,3.1,0.7,4.4c0.5,1.4,1.1,2.5,2,3.6
			c0.9,1,1.9,1.8,3.2,2.4c1.2,0.6,2.6,0.8,4.2,0.8c1.8,0,3.3-0.4,4.6-1.1c1.3-0.7,2.3-1.8,3-3.2v1.9c0,1.3-0.3,2.4-0.8,3.2
			s-1.3,1.5-2.4,1.9s-2.6,0.6-4.3,0.6c-1,0-2,0-3.2-0.1s-2.2-0.2-3.2-0.3v5.6c1,0.1,2,0.2,3.2,0.3s2.3,0.1,3.4,0.1
			c3.1,0,5.6-0.4,7.6-1.2s3.5-2,4.5-3.7s1.5-3.9,1.5-6.7V107h-5.2v4.7H19.2z M18.1,118.3c0,1.2-0.2,2.2-0.7,3.1s-1.1,1.5-2,2
			c-0.8,0.5-1.7,0.7-2.8,0.7s-2-0.2-2.9-0.7c-0.8-0.5-1.5-1.2-2-2.1S7,119.3,7,118s0.2-2.4,0.7-3.3s1.1-1.7,2-2.2
			c0.8-0.5,1.8-0.8,2.9-0.8c0.9,0,1.8,0.2,2.6,0.6s1.5,1,2,1.9c0.5,0.8,0.8,1.8,0.8,3v1.1H18.1z"/>
		<path class="st5" d="M37.3,109.2c-1,1.3-1.7,3-1.9,5.1v-7.5h-5.2v22.5h6.6V118c0-1.8,0.5-3.2,1.5-4.2s2.4-1.5,4.2-1.5h1.6v-5.7
			h-0.9C40.6,106.6,38.7,107.5,37.3,109.2z"/>
		<path class="st5" d="M61.4,107.5c-1.6-0.7-3.5-1-5.8-1c-0.8,0-1.6,0-2.5,0s-1.8,0.1-2.6,0.1c-0.9,0.1-1.6,0.1-2.2,0.2v5.6
			c0.8-0.1,1.8-0.1,2.8-0.2s2.1-0.1,3-0.1c1,0,1.8,0,2.4,0c1.2,0,2.1,0.3,2.6,0.9s0.8,1.4,0.8,2.6v0.1h-4.1c-2,0-3.8,0.3-5.3,0.8
			s-2.7,1.3-3.6,2.3c-0.9,1.1-1.3,2.4-1.3,4.1c0,1.5,0.3,2.8,1,3.9s1.6,1.9,2.9,2.5c1.2,0.6,2.6,0.9,4.3,0.9c1.6,0,2.9-0.3,4-0.9
			c1.1-0.6,1.9-1.4,2.5-2.5c0.3-0.5,0.5-1,0.7-1.6v4.3h5.2v-13.8c0-2.1-0.4-3.8-1.2-5.1C64.1,109.2,62.9,108.2,61.4,107.5z
			 M57.7,125.1c-0.6,0.3-1.3,0.4-2,0.4c-1.2,0-2-0.3-2.7-0.8c-0.6-0.6-0.9-1.3-0.9-2.2c0-1,0.3-1.7,0.9-2.3c0.6-0.6,1.5-0.8,2.7-0.8
			h4.1v1.8c-0.1,1.1-0.3,2-0.7,2.6C58.8,124.4,58.3,124.8,57.7,125.1z"/>
		<path class="st5" d="M93.3,109.5c-0.9-1-2-1.8-3.3-2.4s-2.7-0.9-4.3-0.9c-1.8,0-3.3,0.4-4.7,1.2c-1.4,0.8-2.5,1.9-3.3,3.5
			c-0.3,0.5-0.5,1.1-0.7,1.7v-5.7h-5.2v30.8h6.6v-11c0.8,1.1,1.7,1.9,2.8,2.5c1.4,0.7,2.9,1,4.6,1c1.6,0,3.1-0.3,4.4-0.9
			c1.3-0.6,2.4-1.4,3.2-2.4c0.9-1,1.6-2.3,2-3.7c0.5-1.4,0.7-2.9,0.7-4.5v-0.9c0-1.6-0.2-3.2-0.7-4.5
			C94.9,111.8,94.2,110.6,93.3,109.5z M88.8,121.6c-0.5,1-1.1,1.8-2,2.3c-0.8,0.5-1.8,0.8-2.9,0.8c-0.9,0-1.8-0.2-2.7-0.7
			c-0.9-0.4-1.6-1.1-2.2-1.9s-0.8-1.8-0.8-3v-1.5c0-1.2,0.3-2.3,0.8-3.1c0.5-0.9,1.2-1.5,2.1-2s1.8-0.7,2.8-0.7c1.2,0,2.1,0.3,3,0.8
			c0.8,0.5,1.5,1.3,1.9,2.2c0.5,1,0.7,2.1,0.7,3.4C89.5,119.4,89.3,120.6,88.8,121.6z"/>
		<path class="st5" d="M114.2,106.2h-0.3c-1.7,0-3.1,0.4-4.2,1.2c-1,0.8-1.9,1.8-2.4,3.3V99.4h-6.6v30h6.6v-12.7v-0.3
			c0-1.3,0.4-2.4,1.1-3.2c0.8-0.8,1.7-1.2,3-1.2c1.2,0,2.1,0.4,2.9,1.1c0.7,0.8,1.1,1.7,1.1,3v13.2h6.6v-12.8c0-3.4-0.7-6-2-7.8
			S116.7,106.2,114.2,106.2z"/>
		<path class="st5" d="M141.5,107.5c-1.6-0.7-3.5-1-5.8-1c-0.8,0-1.6,0-2.5,0s-1.8,0.1-2.6,0.1c-0.9,0.1-1.6,0.1-2.2,0.2v5.6
			c0.8-0.1,1.8-0.1,2.8-0.2s2.1-0.1,3-0.1c1,0,1.8,0,2.4,0c1.2,0,2.1,0.3,2.6,0.9s0.8,1.4,0.8,2.6v0.1h-4.1c-2,0-3.8,0.3-5.3,0.8
			s-2.7,1.3-3.6,2.3c-0.9,1.1-1.3,2.4-1.3,4.1c0,1.5,0.3,2.8,1,3.9s1.6,1.9,2.9,2.5c1.2,0.6,2.6,0.9,4.3,0.9c1.6,0,2.9-0.3,4-0.9
			c1.1-0.6,1.9-1.4,2.5-2.5c0.3-0.5,0.5-1,0.7-1.6v4.3h5.2v-13.8c0-2.1-0.4-3.8-1.2-5.1C144.3,109.2,143.1,108.2,141.5,107.5z
			 M137.9,125.1c-0.6,0.3-1.3,0.4-2,0.4c-1.2,0-2-0.3-2.7-0.8c-0.6-0.6-0.9-1.3-0.9-2.2c0-1,0.3-1.7,0.9-2.3
			c0.6-0.6,1.5-0.8,2.7-0.8h4.1v1.8c-0.1,1.1-0.3,2-0.7,2.6C139,124.4,138.5,124.8,137.9,125.1z"/>
		<path class="st5" d="M173.5,109.5c-0.9-1-1.9-1.8-3.2-2.4c-1.2-0.6-2.6-0.8-4.2-0.8c-1.8,0-3.3,0.4-4.7,1.2c-1.2,0.7-2.2,1.7-3,3
			v-11h-6.6v30h5.2v-4.9c0.1,0.4,0.3,0.7,0.5,1.1c0.8,1.5,1.9,2.6,3.3,3.4c1.4,0.8,3,1.2,4.9,1.2c1.6,0,3.1-0.3,4.4-0.9
			c1.3-0.6,2.4-1.4,3.3-2.5c0.9-1.1,1.6-2.3,2.1-3.7c0.5-1.4,0.7-2.9,0.7-4.6v-0.9c0-1.6-0.2-3.2-0.7-4.6
			C175.1,111.7,174.4,110.5,173.5,109.5z M169,121.5c-0.5,1-1.1,1.8-2,2.3c-0.8,0.5-1.8,0.8-2.9,0.8c-0.9,0-1.8-0.2-2.7-0.7
			c-0.9-0.4-1.6-1.1-2.2-1.9c-0.6-0.8-0.8-1.8-0.8-3v-1.5c0-1.2,0.3-2.3,0.8-3.1s1.2-1.5,2.1-2c0.9-0.5,1.8-0.7,2.8-0.7
			c1.1,0,2.1,0.3,2.9,0.8c0.8,0.5,1.5,1.3,2,2.2c0.5,1,0.7,2.1,0.7,3.4C169.7,119.4,169.4,120.5,169,121.5z"/>
		<path class="st5" d="M194.8,107.5c-1.6-0.7-3.5-1-5.8-1c-0.8,0-1.6,0-2.5,0s-1.8,0.1-2.6,0.1c-0.9,0.1-1.6,0.1-2.2,0.2v5.6
			c0.8-0.1,1.8-0.1,2.8-0.2s2.1-0.1,3-0.1c1,0,1.8,0,2.4,0c1.2,0,2.1,0.3,2.6,0.9s0.8,1.4,0.8,2.6v0.1h-4.1c-2,0-3.8,0.3-5.3,0.8
			s-2.7,1.3-3.6,2.3c-0.9,1.1-1.3,2.4-1.3,4.1c0,1.5,0.3,2.8,1,3.9s1.6,1.9,2.9,2.5c1.2,0.6,2.6,0.9,4.3,0.9c1.6,0,2.9-0.3,4-0.9
			c1.1-0.6,1.9-1.4,2.5-2.5c0.3-0.5,0.5-1,0.7-1.6v4.3h5.2v-13.8c0-2.1-0.4-3.8-1.2-5.1C197.6,109.2,196.4,108.2,194.8,107.5z
			 M191.2,125.1c-0.6,0.3-1.3,0.4-2,0.4c-1.2,0-2-0.3-2.7-0.8c-0.6-0.6-0.9-1.3-0.9-2.2c0-1,0.3-1.7,0.9-2.3
			c0.6-0.6,1.5-0.8,2.7-0.8h4.1v1.8c-0.1,1.1-0.3,2-0.7,2.6C192.3,124.4,191.8,124.8,191.2,125.1z"/>
		<path class="st5" d="M221.6,117.8c-1.5-1.2-3.7-2-6.5-2.3l-1.8-0.2c-1.2-0.1-2-0.4-2.5-0.7c-0.5-0.3-0.8-0.8-0.8-1.4
			c0-0.7,0.3-1.2,0.9-1.6c0.6-0.4,1.4-0.6,2.4-0.6c1.3,0,2.3,0.3,2.9,0.8c0.7,0.5,1,1.1,1.2,1.9h5.8c-0.1-2.4-1-4.3-2.8-5.5
			c-1.8-1.3-4.1-1.9-7-1.9c-1.8,0-3.4,0.3-4.8,0.8c-1.4,0.5-2.5,1.4-3.3,2.4c-0.8,1.1-1.2,2.4-1.2,4c0,1.9,0.7,3.5,2,4.7
			c1.4,1.2,3.4,2,6.1,2.3l1.8,0.2c1.5,0.2,2.5,0.4,3.1,0.8s0.9,0.9,0.9,1.6s-0.4,1.3-1.1,1.7c-0.8,0.4-1.7,0.6-2.9,0.6
			c-1.5,0-2.6-0.3-3.4-0.8c-0.8-0.6-1.2-1.2-1.3-1.9h-5.8c0.1,2.4,1.1,4.2,2.9,5.6c1.8,1.3,4.3,2,7.5,2c2,0,3.8-0.3,5.3-0.9
			c1.5-0.6,2.7-1.4,3.5-2.5c0.8-1.1,1.2-2.4,1.2-3.9C223.9,120.7,223.1,119,221.6,117.8z"/>
		<path class="st5" d="M249.4,117.7c0-2.1-0.4-4-1.3-5.7c-0.9-1.7-2.1-3.2-3.8-4.2c-1.7-1.1-3.7-1.6-6.1-1.6c-1.8,0-3.5,0.3-4.9,1
			c-1.4,0.6-2.6,1.5-3.6,2.6s-1.7,2.3-2.2,3.7c-0.5,1.4-0.8,2.8-0.8,4.3v0.8c0,1.5,0.3,2.9,0.8,4.3s1.2,2.6,2.2,3.7s2.2,2,3.7,2.7
			s3.2,1,5.1,1c1.9,0,3.6-0.3,5-1c1.5-0.7,2.7-1.6,3.6-2.8c1-1.2,1.6-2.5,1.9-4h-6c-0.3,0.7-0.8,1.3-1.6,1.7c-0.8,0.5-1.8,0.7-3,0.7
			c-1.3,0-2.4-0.3-3.2-0.8s-1.4-1.3-1.8-2.3c-0.2-0.6-0.4-1.2-0.5-1.8h16.5L249.4,117.7L249.4,117.7z M233.5,114.5
			c0.4-1,1-1.8,1.8-2.3s1.8-0.8,2.9-0.8c1.1,0,2.1,0.3,2.8,0.8c0.8,0.5,1.3,1.2,1.7,2.2c0.2,0.5,0.4,1.1,0.5,1.7H233
			C233.1,115.6,233.3,115,233.5,114.5z"/>
	</g>
</g>
</svg>
