<svg viewBox="0 0 121 68" fill="none" xmlns="http://www.w3.org/2000/svg">
    <g clip-path="url(#clip0_712_439)">
        <path d="M74.9665 30.9791L67.9014 27.6628L60.5961 31.0752L60.3558 30.9791L60.5481 31.0752V39.8224H60.5961L74.9665 33.0938V30.931V30.9791Z" fill="white"/>
        <path d="M60.548 15.5513V24.2504L67.9014 27.6627L74.9665 24.3465V22.1837L60.548 15.5513Z" fill="white"/>
        <path d="M67.9015 27.6629L74.9665 30.9791V24.3467L67.9015 27.6629Z" fill="white"/>
        <path d="M60.5481 31.0753L54.7326 28.3358V37.0829L60.5481 39.8224V31.0753ZM54.7326 13.1003L46.2258 17.0414V24.3467L54.7326 28.3358V13.1003Z" fill="white"/>
        <path d="M46.2258 24.3467V33.0938L54.7326 37.0829V28.3358L46.2258 24.3467ZM54.3001 4.54541L51.3203 5.93919L53.7234 4.83378L54.3001 4.54541Z" fill="white"/>
        <path d="M46.2258 8.34203V17.0411L54.7326 13.1001L60.5961 10.3125L51.3203 5.93896L46.2258 8.34203Z" fill="white"/>
        <path d="M60.5961 1.56567L54.7326 4.35323L54.3001 4.54548L60.5961 1.56567Z" fill="white"/>
        <path d="M60.5961 1.56567L54.3001 4.54548L53.7234 4.83384L51.3203 5.93925L60.5961 10.3128V1.56567Z" fill="white"/>
        <path d="M74.9665 8.34232V17.0414L67.1805 13.3888L60.5961 10.3128V1.56567L67.1805 4.6416L74.9665 8.34232Z" fill="white"/>
        <path d="M9.65113 54.4809C9.60306 54.3367 9.555 54.2406 9.50694 54.1444C9.12245 53.4235 8.64184 52.8468 8.01704 52.4623C7.39224 52.0778 6.62326 51.8856 5.75816 51.8856C4.98918 51.8856 4.31632 52.0298 3.69152 52.2701C3.06672 52.5584 2.53805 52.9429 2.1055 53.4235C1.67295 53.9041 1.33652 54.4809 1.09621 55.1537C0.855904 55.8266 0.759781 56.5475 0.759781 57.2684V57.701C0.759781 58.47 0.855904 59.1909 1.09621 59.8157C1.33652 60.4885 1.62488 61.0172 2.05744 61.5459C2.48999 62.0265 2.9706 62.411 3.5954 62.6994C4.17214 62.9877 4.84499 63.0839 5.61398 63.0839C6.47908 63.0839 7.2 62.8916 7.8248 62.5552C8.44959 62.2188 8.93021 61.6901 9.26663 61.0172V61.9304C9.26663 62.5552 9.12245 63.0839 8.88214 63.4683C8.64184 63.8528 8.25735 64.1893 7.72867 64.3815C7.2 64.5738 6.47908 64.6699 5.66204 64.6699C5.18142 64.6699 4.70081 64.6699 4.12407 64.6218C3.54734 64.5738 3.06672 64.5257 2.58611 64.4776V67.1691C3.06672 67.2171 3.54734 67.2652 4.12407 67.3133C4.70081 67.3613 5.22948 67.3613 5.75816 67.3613C7.24806 67.3613 8.44959 67.1691 9.41082 66.7846C10.372 66.4001 11.093 65.8234 11.5736 65.0063C12.0542 64.1893 12.2945 63.1319 12.2945 61.7862V52.222H9.79531V54.4809H9.65113ZM9.12245 57.6529C9.12245 58.2297 9.02633 58.7103 8.78602 59.1428C8.54572 59.5754 8.25735 59.8637 7.8248 60.1041C7.44031 60.3444 7.00775 60.4405 6.47908 60.4405C5.9504 60.4405 5.51785 60.3444 5.0853 60.1041C4.70081 59.8637 4.36438 59.5273 4.12407 59.0948C3.88377 58.6622 3.78764 58.1335 3.78764 57.5087C3.78764 56.8839 3.88377 56.3553 4.12407 55.9227C4.36438 55.4902 4.65275 55.1057 5.0853 54.8654C5.46979 54.6251 5.9504 54.4809 6.47908 54.4809C6.91163 54.4809 7.34418 54.577 7.72867 54.7692C8.11316 54.9615 8.44959 55.2499 8.6899 55.6824C8.93021 56.0669 9.07439 56.5475 9.07439 57.1243V57.6529H9.12245ZM18.3502 53.2793C17.8696 53.9041 17.5332 54.7212 17.4371 55.7305V52.1259H14.9379V62.9397H18.1099V57.5087C18.1099 56.6436 18.3502 55.9708 18.8308 55.4902C19.3115 55.0096 19.9843 54.7692 20.8494 54.7692H21.6184V52.0298H21.1858C19.9363 52.0298 19.0231 52.4623 18.3502 53.2793ZM29.933 52.4623C29.164 52.1259 28.2509 51.9817 27.1454 51.9817H25.9439C25.5114 51.9817 25.0788 52.0298 24.6943 52.0298C24.2618 52.0778 23.9253 52.0778 23.637 52.1259V54.8173C24.0215 54.7692 24.5021 54.7692 24.9827 54.7212C25.4633 54.6731 25.992 54.6731 26.4245 54.6731H27.578C28.1547 54.6731 28.5873 54.8173 28.8276 55.1057C29.0679 55.394 29.2121 55.7785 29.2121 56.3553V56.4033H27.2416C26.2803 56.4033 25.4152 56.5475 24.6943 56.7878C23.9734 57.0281 23.3967 57.4126 22.9641 57.8932C22.5316 58.4219 22.3393 59.0467 22.3393 59.8637C22.3393 60.5847 22.4835 61.2095 22.8199 61.7381C23.1564 62.2668 23.5889 62.6513 24.2137 62.9397C24.7904 63.228 25.4633 63.3722 26.2803 63.3722C27.0493 63.3722 27.6741 63.228 28.2028 62.9397C28.7315 62.6513 29.116 62.2668 29.4043 61.7381C29.5485 61.4978 29.6446 61.2575 29.7408 60.9692V63.0358H32.24V56.4033C32.24 55.394 32.0477 54.577 31.6632 53.9522C31.2307 53.2793 30.6539 52.7987 29.933 52.4623ZM28.1547 60.9211C27.8664 61.0653 27.5299 61.1133 27.1935 61.1133C26.6168 61.1133 26.2323 60.9692 25.8959 60.7289C25.6075 60.4405 25.4633 60.1041 25.4633 59.6715C25.4633 59.1909 25.6075 58.8545 25.8959 58.5661C26.1842 58.2777 26.6168 58.1816 27.1935 58.1816H29.164V59.0467C29.116 59.5754 29.0198 60.0079 28.8276 60.2963C28.6834 60.5847 28.4431 60.7769 28.1547 60.9211ZM45.2646 53.4235C44.832 52.9429 44.3033 52.5584 43.6785 52.2701C43.0537 51.9817 42.3809 51.8375 41.6119 51.8375C40.7468 51.8375 40.0259 52.0298 39.353 52.4142C38.6802 52.7987 38.1515 53.3274 37.767 54.0964C37.6228 54.3367 37.5267 54.6251 37.4306 54.9134V52.1739H34.9314V66.9768H38.1034V61.6901C38.4879 62.2188 38.9205 62.6032 39.4492 62.8916C40.122 63.228 40.8429 63.3722 41.66 63.3722C42.429 63.3722 43.1499 63.228 43.7747 62.9397C44.3995 62.6513 44.9281 62.2668 45.3126 61.7862C45.7452 61.3056 46.0816 60.6808 46.2739 60.0079C46.5142 59.3351 46.6103 58.6142 46.6103 57.8452V57.4126C46.6103 56.6436 46.5142 55.8747 46.2739 55.2499C46.0336 54.5289 45.6971 53.9522 45.2646 53.4235ZM43.1018 59.2389C42.8615 59.7196 42.5731 60.1041 42.1406 60.3444C41.7561 60.5847 41.2755 60.7289 40.7468 60.7289C40.3143 60.7289 39.8817 60.6327 39.4492 60.3924C39.0166 60.2002 38.6802 59.8637 38.3918 59.4793C38.1034 59.0948 38.0073 58.6142 38.0073 58.0374V57.3165C38.0073 56.7398 38.1515 56.2111 38.3918 55.8266C38.6321 55.394 38.9685 55.1057 39.4011 54.8654C39.8336 54.6251 40.2662 54.5289 40.7468 54.5289C41.3235 54.5289 41.7561 54.6731 42.1886 54.9134C42.5731 55.1537 42.9096 55.5382 43.1018 55.9708C43.3421 56.4514 43.4382 56.9801 43.4382 57.6049C43.4382 58.1816 43.3421 58.7583 43.1018 59.2389ZM55.3094 51.8375H55.1652C54.3482 51.8375 53.6753 52.0298 53.1466 52.4142C52.666 52.7987 52.2335 53.2793 51.9932 54.0003V48.5693H48.8211V62.9877H51.9932V56.7398C51.9932 56.115 52.1854 55.5863 52.5218 55.2018C52.9063 54.8173 53.3389 54.6251 53.9637 54.6251C54.5404 54.6251 54.973 54.8173 55.3574 55.1537C55.6939 55.5382 55.8861 55.9708 55.8861 56.5956V62.9397H59.0582V56.7878C59.0582 55.1537 58.7217 53.9041 58.0969 53.039C57.4721 52.1739 56.5109 51.8375 55.3094 51.8375ZM68.4301 52.4623C67.6611 52.1259 66.748 51.9817 65.6426 51.9817H64.441C64.0085 51.9817 63.5759 52.0298 63.1914 52.0298C62.7589 52.0778 62.4225 52.0778 62.1341 52.1259V54.8173C62.5186 54.7692 62.9992 54.7692 63.4798 54.7212C63.9604 54.6731 64.4891 54.6731 64.9217 54.6731H66.0751C66.6519 54.6731 67.0844 54.8173 67.3247 55.1057C67.565 55.394 67.7092 55.7785 67.7092 56.3553V56.4033H65.7387C64.7775 56.4033 63.9124 56.5475 63.1914 56.7878C62.4705 57.0281 61.8938 57.4126 61.4612 57.8932C61.0287 58.4219 60.8364 59.0467 60.8364 59.8637C60.8364 60.5847 60.9806 61.2095 61.3171 61.7381C61.6535 62.2668 62.086 62.6513 62.7108 62.9397C63.2876 63.228 63.9604 63.3722 64.7775 63.3722C65.5464 63.3722 66.1712 63.228 66.6999 62.9397C67.2286 62.6513 67.6131 62.2668 67.9015 61.7381C68.0456 61.4978 68.1418 61.2575 68.2379 60.9692V63.0358H70.7371V56.4033C70.7371 55.394 70.5448 54.577 70.1603 53.9522C69.7758 53.2793 69.1991 52.7987 68.4301 52.4623ZM66.6999 60.9211C66.4116 61.0653 66.0751 61.1133 65.7387 61.1133C65.162 61.1133 64.7775 60.9692 64.441 60.7289C64.1527 60.4405 64.0085 60.1041 64.0085 59.6715C64.0085 59.1909 64.1527 58.8545 64.441 58.5661C64.7294 58.2777 65.162 58.1816 65.7387 58.1816H67.7092V59.0467C67.6611 59.5754 67.565 60.0079 67.3728 60.2963C67.2286 60.5847 66.9883 60.7769 66.6999 60.9211ZM83.8098 53.4235C83.3772 52.9429 82.8966 52.5584 82.2718 52.2701C81.6951 51.9817 81.0222 51.8856 80.2532 51.8856C79.3881 51.8856 78.6672 52.0778 77.9943 52.4623C77.4176 52.7987 76.937 53.2793 76.5525 53.9041V48.6174H73.3804V63.0358H75.8796V60.6808C75.9277 60.873 76.0238 61.0172 76.1199 61.2095C76.5044 61.9304 77.0331 62.4591 77.706 62.8436C78.3788 63.228 79.1478 63.4203 80.061 63.4203C80.8299 63.4203 81.5509 63.2761 82.1757 62.9877C82.8005 62.6994 83.3291 62.3149 83.7617 61.7862C84.1942 61.2575 84.5307 60.6808 84.771 60.0079C85.0113 59.3351 85.1074 58.6142 85.1074 57.7971V57.3646C85.1074 56.5956 85.0113 55.8266 84.771 55.1537C84.5787 54.4809 84.2423 53.9041 83.8098 53.4235ZM81.647 59.1909C81.4067 59.6715 81.1183 60.056 80.6858 60.2963C80.3013 60.5366 79.8207 60.6808 79.292 60.6808C78.8594 60.6808 78.4269 60.5847 77.9943 60.3444C77.5618 60.1521 77.2253 59.8157 76.937 59.4312C76.6486 59.0467 76.5525 58.5661 76.5525 57.9894V57.2684C76.5525 56.6917 76.6967 56.163 76.937 55.7785C77.1773 55.394 77.5137 55.0576 77.9463 54.8173C78.3788 54.577 78.8114 54.4809 79.292 54.4809C79.8207 54.4809 80.3013 54.6251 80.6858 54.8654C81.0703 55.1057 81.4067 55.4902 81.647 55.9227C81.8873 56.4033 81.9834 56.932 81.9834 57.5568C81.9834 58.1816 81.8392 58.7103 81.647 59.1909ZM94.0468 52.4623C93.2778 52.1259 92.3647 51.9817 91.2593 51.9817H90.0577C89.6252 51.9817 89.1926 52.0298 88.8081 52.0298C88.3756 52.0778 88.0391 52.0778 87.7508 52.1259V54.8173C88.1353 54.7692 88.6159 54.7692 89.0965 54.7212C89.5771 54.6731 90.1058 54.6731 90.5383 54.6731H91.6918C92.2685 54.6731 92.7011 54.8173 92.9414 55.1057C93.1817 55.394 93.3259 55.7785 93.3259 56.3553V56.4033H91.3554C90.3942 56.4033 89.529 56.5475 88.8081 56.7878C88.0872 57.0281 87.5105 57.4126 87.0779 57.8932C86.6454 58.4219 86.4531 59.0467 86.4531 59.8637C86.4531 60.5847 86.5973 61.2095 86.9337 61.7381C87.2702 62.2668 87.7027 62.6513 88.3275 62.9397C88.9043 63.228 89.5771 63.3722 90.3942 63.3722C91.1631 63.3722 91.7879 63.228 92.3166 62.9397C92.8453 62.6513 93.2298 62.2668 93.5181 61.7381C93.6623 61.4978 93.7584 61.2575 93.8546 60.9692V63.0358H96.3538V56.4033C96.3538 55.394 96.1615 54.577 95.777 53.9522C95.3925 53.2793 94.8158 52.7987 94.0468 52.4623ZM92.3166 60.9211C92.0282 61.0653 91.6918 61.1133 91.3554 61.1133C90.7786 61.1133 90.3942 60.9692 90.0577 60.7289C89.7694 60.4405 89.6252 60.1041 89.6252 59.6715C89.6252 59.1909 89.7694 58.8545 90.0577 58.5661C90.3461 58.2777 90.7786 58.1816 91.3554 58.1816H93.3259V59.0467C93.2778 59.5754 93.1817 60.0079 92.9895 60.2963C92.8453 60.5847 92.605 60.7769 92.3166 60.9211ZM106.927 57.4126C106.206 56.8359 105.149 56.4514 103.803 56.3072L102.938 56.2111C102.361 56.163 101.977 56.0188 101.737 55.8747C101.496 55.7305 101.352 55.4902 101.352 55.2018C101.352 54.8654 101.496 54.6251 101.785 54.4328C102.073 54.2406 102.458 54.1444 102.938 54.1444C103.563 54.1444 104.044 54.2886 104.332 54.5289C104.668 54.7692 104.813 55.0576 104.909 55.4421H107.696C107.648 54.2886 107.216 53.3755 106.351 52.7987C105.485 52.1739 104.38 51.8856 102.986 51.8856C102.121 51.8856 101.352 52.0298 100.679 52.2701C100.006 52.5104 99.4777 52.9429 99.0933 53.4235C98.7088 53.9522 98.5165 54.577 98.5165 55.346C98.5165 56.2591 98.853 57.0281 99.4778 57.6049C100.151 58.1816 101.112 58.5661 102.409 58.7103L103.275 58.8064C103.996 58.9025 104.476 58.9986 104.764 59.1909C105.053 59.3831 105.197 59.6234 105.197 59.9599C105.197 60.2963 105.005 60.5847 104.668 60.7769C104.284 60.9692 103.851 61.0653 103.275 61.0653C102.554 61.0653 102.025 60.9211 101.641 60.6808C101.256 60.3924 101.064 60.1041 101.016 59.7676H98.2281C98.2762 60.9211 98.7568 61.7862 99.6219 62.4591C100.487 63.0839 101.689 63.4203 103.227 63.4203C104.188 63.4203 105.053 63.2761 105.774 62.9877C106.495 62.6994 107.071 62.3149 107.456 61.7862C107.84 61.2575 108.033 60.6327 108.033 59.9118C108.033 58.8064 107.648 57.9894 106.927 57.4126ZM120.288 57.3646C120.288 56.3553 120.096 55.4421 119.664 54.6251C119.231 53.808 118.654 53.0871 117.837 52.6065C117.02 52.0778 116.059 51.8375 114.905 51.8375C114.04 51.8375 113.223 51.9817 112.55 52.3181C111.878 52.6065 111.301 53.039 110.82 53.5677C110.34 54.0964 110.003 54.6731 109.763 55.346C109.523 56.0188 109.378 56.6917 109.378 57.4126V57.7971C109.378 58.518 109.523 59.1909 109.763 59.8637C110.003 60.5366 110.34 61.1133 110.82 61.642C111.301 62.1707 111.878 62.6032 112.598 62.9397C113.319 63.2761 114.136 63.4203 115.05 63.4203C115.963 63.4203 116.78 63.2761 117.453 62.9397C118.174 62.6032 118.75 62.1707 119.183 61.594C119.664 61.0172 119.952 60.3924 120.096 59.6715H117.212C117.068 60.0079 116.828 60.2963 116.443 60.4885C116.059 60.7289 115.578 60.825 115.002 60.825C114.377 60.825 113.848 60.6808 113.464 60.4405C113.079 60.2002 112.791 59.8157 112.598 59.3351C112.502 59.0467 112.406 58.7583 112.358 58.47H120.288V57.3646ZM112.647 55.8266C112.839 55.346 113.127 54.9615 113.512 54.7212C113.896 54.4809 114.377 54.3367 114.905 54.3367C115.434 54.3367 115.915 54.4809 116.251 54.7212C116.636 54.9615 116.876 55.2979 117.068 55.7785C117.164 56.0188 117.26 56.3072 117.308 56.5956H112.406C112.454 56.3553 112.55 56.0669 112.647 55.8266Z" fill="white"/>
    </g>
    <defs>
        <clipPath id="clip0_712_439">
            <rect width="120.153" height="66.5169" fill="white" transform="translate(0.42334 0.796631)"/>
        </clipPath>
    </defs>
</svg>
