<svg xmlns="http://www.w3.org/2000/svg" role="img" viewBox="-5.44 -5.44 295.88 94.63"><title>hasura-logo-primary-dark.svg</title><g clip-path="url(#clip0_5273_22171)"><path fill="#1EB4D4" d="M81.7705 28.7985c2.4552-7.4656.9783-22.35914-3.7793-27.85761-.6235-.72126-1.7837-.61823-2.3018.17797l-5.86 8.98304c-1.4485 1.7984-4.0572 2.2106-6.0238.9554-6.359-4.06528-13.955-6.4258-22.1172-6.4258S25.93 6.99202 19.571 11.0573c-1.9567 1.2552-4.5655.8337-6.0234-.9554L7.68738 1.11886C7.16947.32266 6.00889.229 5.38548.94089.62821 6.44869-.84884 21.3423 1.60652 28.7985c.81526 2.4822 1.03586 5.105.5563 7.6528-.47957 2.5291-.95913 5.5828-.95913 7.7091 0 21.8347 18.12751 39.5287 40.47511 39.5287 22.3572 0 40.4749-17.7033 40.4749-39.5287 0-2.1263-.4793-5.18-.9587-7.7091-.4701-2.5478-.2402-5.1706.5755-7.6528zM41.6788 74.8658c-17.2834 0-31.3346-13.7323-31.3346-30.6117 0-.5527.0191-1.096.0479-1.6393.6235-11.5027 7.7785-21.3287 17.8973-26.0122 4.0571-1.8922 8.6034-2.9413 13.399-2.9413 4.7956 0 9.3323 1.0491 13.3991 2.9506 10.1186 4.6836 17.2736 14.5189 17.8971 26.0123.0289.5433.048 1.0959.048 1.6392-.0098 16.8701-14.0703 30.6024-31.3538 30.6024z"/><path fill="#1EB4D4" d="M55.2596 56.0378L47.251 42.4741l-6.8673-11.306c-.1631-.2716-.4604-.4309-.7769-.4309h-6.5605c-.3261 0-.6234.1686-.7864.4497-.1631.2716-.1535.6088.0096.8804l6.57 10.7815-8.8144 13.1328c-.1822.2717-.1918.618-.0384.899.1535.2809.4604.4592.7961.4592h6.6084c.3069 0 .5947-.15.7577-.4031l4.7669-7.2687 4.2776 7.2409c.1631.2717.4604.4402.777.4402h6.5124c.3259 0 .6234-.1685.7768-.4402.1633-.2623.1633-.5994 0-.8711z"/><path fill="#1B2738" d="M119.484 21.5306h8.354v44.7367h-8.354V47.2056h-9.438v19.0715h-8.354V21.5306h8.354v19.4272h9.438V21.5306zM153.61 66.276l-1.746-9.2918h-10.022l-1.602 9.2918h-8.354l9.217-44.7369h11.25l9.659 44.7369h-8.402zm-10.675-15.4649h7.769l-3.99-21.4131-3.779 21.4131zm37.684 7.306v-9.5728c0-.7588-.143-1.2646-.431-1.5269-.288-.2623-.825-.3934-1.602-.3934h-5.879c-4.988 0-7.481-2.3605-7.481-7.0909V28.555c0-4.6835 2.608-7.0159 7.835-7.0159h7.99c5.227 0 7.836 2.3417 7.836 7.0159v6.2384h-8.421v-5.105c0-.7587-.144-1.2645-.431-1.5268-.288-.2623-.825-.3934-1.602-.3934h-2.762c-.825 0-1.382.1311-1.669.3934-.288.2623-.432.7681-.432 1.5268v9.0017c0 .7588.144 1.2646.432 1.5268.287.2623.844.3935 1.669.3935h5.735c5.083 0 7.625 2.3136 7.625 6.9503v11.6997c0 4.6833-2.637 7.0156-7.913 7.0156h-7.845c-5.275 0-7.913-2.3416-7.913-7.0156v-6.1731h8.344v5.0298c0 .7587.144 1.2649.432 1.5273.288.2618.844.3933 1.669.3933h2.762c.777 0 1.304-.1315 1.602-.3933.297-.2624.45-.7686.45-1.5273zm30.701-36.5865h8.344v37.7211c0 4.6832-2.637 7.0156-7.912 7.0156h-8.853c-5.275 0-7.913-2.3416-7.913-7.0156V21.5306h8.354v36.5876c0 .7587.144 1.2644.432 1.5267.287.2624.825.3933 1.602.3933h3.845c.825 0 1.382-.1309 1.669-.3933.288-.2623.432-.768.432-1.5267V21.5306zm23.594 27.3049v17.4416h-8.345V21.5306h16.843c5.275 0 7.912 2.3417 7.912 7.0159v13.2637c0 3.878-1.764 6.1448-5.303 6.8098l7.625 17.6571h-9.006l-6.973-17.4416h-2.753zm0-21.0665v15.0341h6.023c.777 0 1.305-.1311 1.602-.3934.288-.2623.431-.7681.431-1.5268V29.6893c0-.7588-.143-1.2646-.431-1.5269-.288-.2623-.825-.3934-1.602-.3934h-6.023zm41.675 38.507l-1.746-9.2918H264.82l-1.602 9.2918h-8.344l9.217-44.7369h11.251L285 66.276h-8.411zm-10.666-15.4649h7.769l-3.99-21.4131-3.779 21.4131z"/></g><defs><clipPath id="clip0_5273_22171"><path fill="#fff" d="M0 0h285v84H0z"/></clipPath></defs></svg>