<svg  viewBox="0 0 258 72" fill="none" xmlns="http://www.w3.org/2000/svg">
    <g clip-path="url(#clip0_712_464)">
        <mask id="mask0_712_464" style="mask-type:luminance" maskUnits="userSpaceOnUse" x="0" y="0" width="258" height="73">
            <path d="M0.554001 0.109375H257.446V72.0008H0.554001V0.109375Z" fill="white"/>
        </mask>
        <g mask="url(#mask0_712_464)">
            <path d="M84.0647 31.9254V48.9953H76.6257V33.9652C76.6257 33.0168 76.3921 32.1669 75.925 31.4154C75.4858 30.656 74.8535 30.0264 74.0922 29.5903C73.3375 29.143 72.493 28.9194 71.5588 28.9194C70.6242 28.9194 69.7707 29.143 68.9981 29.5903C68.2369 30.0264 67.6046 30.656 67.1654 31.4154C66.7162 32.1669 66.4915 33.0168 66.4915 33.9652V48.9953H59.0525L59.0257 8.73608H66.4647L66.4915 24.1419C67.39 23.2831 68.4412 22.6121 69.6448 22.129C70.867 21.6459 72.1515 21.4043 73.4992 21.4043C75.4578 21.4043 77.2276 21.8785 78.8089 22.8268C80.4081 23.7751 81.6839 25.0455 82.6361 26.638C83.5886 28.2126 84.0647 29.975 84.0647 31.9254ZM106.127 22.1558H114.051L99.2814 62.415H91.411L96.2626 48.9953L86.5598 22.1558H94.6995L99.9821 38.8768L106.127 22.1558ZM136.265 22.1558H143.704V49.371C143.704 51.3571 143.3 53.1464 142.491 54.7389C141.683 56.3493 140.578 57.7271 139.176 58.8722C137.792 60.0173 136.193 60.8941 134.378 61.5025C132.582 62.1108 130.677 62.415 128.665 62.415C126.783 62.4197 124.92 62.0359 123.193 61.2878C121.45 60.5541 119.905 59.5342 118.558 58.2281C117.21 56.9219 116.159 55.4189 115.404 53.719L122.196 50.6325C122.573 51.5271 123.085 52.2965 123.732 52.9407C124.383 53.5759 125.152 54.0774 125.996 54.4168C126.859 54.7747 127.748 54.9536 128.665 54.9536C129.653 54.9536 130.596 54.8373 131.495 54.6047C132.411 54.3721 133.228 54.0232 133.947 53.558C134.666 53.0928 135.232 52.5112 135.645 51.8134C136.058 51.1156 136.265 50.3015 136.265 49.371V46.2577C135.439 47.2776 134.432 48.1096 133.247 48.7537C132.079 49.38 130.722 49.6931 129.177 49.6931C127.236 49.6931 125.412 49.3263 123.705 48.5927C122.016 47.8591 120.525 46.8481 119.231 45.5598C117.937 44.2536 116.922 42.7506 116.185 41.0508C115.449 39.351 115.081 37.5259 115.081 35.5755C115.081 33.6252 115.449 31.8001 116.185 30.1003C116.922 28.4005 117.937 26.9064 119.231 25.6181C120.512 24.3205 122.031 23.2817 123.705 22.5584C125.412 21.8248 127.236 21.458 129.177 21.458C130.722 21.458 132.079 21.7801 133.247 22.4242C134.432 23.0505 135.439 23.8735 136.265 24.8934V22.1558ZM129.284 42.5806C130.507 42.5806 131.611 42.2675 132.6 41.6413C133.588 40.9971 134.361 40.1472 134.917 39.0915C135.493 38.0358 135.78 36.8638 135.78 35.5755C135.78 34.2873 135.493 33.1153 134.917 32.0596C134.361 30.986 133.588 30.1361 132.6 29.5098C131.611 28.8836 130.507 28.5704 129.284 28.5704C128.081 28.5704 126.976 28.8836 125.969 29.5098C124.981 30.1361 124.191 30.986 123.598 32.0596C123.005 33.1153 122.708 34.2873 122.708 35.5755C122.708 36.8638 123.005 38.0448 123.598 39.1184C124.191 40.174 124.981 41.015 125.969 41.6413C126.976 42.2675 128.081 42.5806 129.284 42.5806ZM149.456 48.9953L149.429 22.1558H156.868L156.895 24.1419C157.793 23.2831 158.845 22.6121 160.048 22.129C161.27 21.6459 162.555 21.4043 163.903 21.4043C164.891 21.4043 165.879 21.5475 166.868 21.8337L163.93 29.322C163.283 29.0536 162.627 28.9194 161.962 28.9194C161.028 28.9194 160.174 29.143 159.401 29.5903C158.64 30.0264 158.008 30.656 157.569 31.4154C157.119 32.1669 156.895 33.0168 156.895 33.9652V48.9953H149.456ZM187.573 22.1558H195.012V48.9953H187.546L187.195 46.204C186.495 47.2418 185.596 48.0827 184.5 48.7269C183.404 49.371 182.119 49.6931 180.646 49.6931C178.633 49.6931 176.756 49.3174 175.013 48.5658C173.27 47.8143 171.734 46.7766 170.404 45.4525C169.074 44.1284 168.032 42.5985 167.277 40.8629C166.541 39.1094 166.172 37.2306 166.172 35.2266C166.172 33.3121 166.523 31.5228 167.224 29.8587C167.913 28.2111 168.921 26.7154 170.188 25.4571C171.451 24.1953 172.942 23.1844 174.581 22.4779C176.252 21.7622 178.049 21.4043 179.972 21.4043C181.625 21.4043 183.107 21.7532 184.419 22.451C185.749 23.1489 186.908 24.0346 187.896 25.1082L187.573 22.1558ZM180.457 42.5806C181.679 42.5806 182.784 42.2675 183.772 41.6413C184.761 41.015 185.542 40.174 186.117 39.1184C186.692 38.0448 186.98 36.8638 186.98 35.5755C186.98 34.2694 186.692 33.0884 186.117 32.0327C185.542 30.9771 184.761 30.1361 183.772 29.5098C182.784 28.8836 181.679 28.5704 180.457 28.5704C179.217 28.5704 178.094 28.8836 177.088 29.5098C176.082 30.1361 175.282 30.986 174.689 32.0596C174.096 33.1153 173.8 34.2873 173.8 35.5755C173.8 36.8638 174.096 38.0448 174.689 39.1184C175.3 40.174 176.109 41.015 177.115 41.6413C178.121 42.2675 179.235 42.5806 180.457 42.5806ZM208.115 62.415H200.676V22.1558H208.115V25.0545C208.966 24.0082 210.009 23.1337 211.187 22.4779C212.373 21.798 213.757 21.458 215.338 21.458C217.296 21.458 219.129 21.8248 220.836 22.5584C222.561 23.292 224.07 24.3119 225.364 25.6181C226.658 26.9064 227.673 28.4005 228.41 30.1003C229.147 31.8001 229.515 33.6252 229.515 35.5755C229.515 37.5259 229.147 39.3599 228.41 41.0776C227.673 42.7954 226.658 44.3073 225.364 45.6135C224.07 46.9018 222.561 47.9128 220.836 48.6464C219.129 49.38 217.296 49.7468 215.338 49.7468C213.757 49.7468 212.373 49.4068 211.187 48.7269C210.016 48.0597 208.976 47.1869 208.115 46.1503V62.415ZM215.23 28.5704C214.008 28.5704 212.903 28.8925 211.915 29.5367C210.945 30.1629 210.172 31.0039 209.597 32.0596C209.04 33.1153 208.761 34.2873 208.761 35.5755C208.761 36.8638 209.04 38.0448 209.597 39.1184C210.172 40.174 210.945 41.015 211.915 41.6413C212.903 42.2675 214.008 42.5806 215.23 42.5806C216.452 42.5806 217.566 42.2675 218.572 41.6413C219.596 41.015 220.405 40.174 220.998 39.1184C221.609 38.0627 221.914 36.8817 221.914 35.5755C221.914 34.3051 221.618 33.1421 221.025 32.0864C220.432 31.0128 219.623 30.1629 218.599 29.5367C217.593 28.8925 216.47 28.5704 215.23 28.5704ZM257.446 31.9254V48.9953H250.007V33.9652C250.007 33.0168 249.773 32.1669 249.306 31.4154C248.867 30.656 248.235 30.0264 247.474 29.5903C246.719 29.143 245.874 28.9194 244.94 28.9194C244.005 28.9194 243.152 29.143 242.379 29.5903C241.618 30.0264 240.986 30.656 240.547 31.4154C240.097 32.1669 239.873 33.0168 239.873 33.9652V48.9953H232.434L232.407 8.73608H239.846L239.873 24.1419C240.771 23.2831 241.823 22.6121 243.026 22.129C244.248 21.6459 245.533 21.4043 246.881 21.4043C248.839 21.4043 250.609 21.8785 252.19 22.8268C253.789 23.7751 255.065 25.0455 256.017 26.638C256.97 28.2126 257.446 29.975 257.446 31.9254Z" fill="white"/>
            <path fill-rule="evenodd" clip-rule="evenodd" d="M34.0295 9.6949L25.6607 14.4877L17.2922 19.2804L8.9228 24.0732V52.8301L17.2922 48.037L25.6607 43.2439V33.6587L17.2922 38.4515V28.8659L25.6607 24.0732L34.0295 19.2804V48.037L25.6607 52.8301L17.2922 57.6225L8.9228 62.4153L0.554001 67.2077L8.9228 72.0008L17.2922 67.2077L25.6607 62.4153L34.0295 57.6225L42.399 52.8301V4.90214L34.0295 0.109375V9.6949Z" fill="white"/>
        </g>
    </g>
    <defs>
        <clipPath id="clip0_712_464">
            <rect width="256.892" height="71.8914" fill="white" transform="translate(0.554001 0.109375)"/>
        </clipPath>
    </defs>
</svg>
