<svg xmlns="http://www.w3.org/2000/svg" role="img" viewBox="-37.95 -42.95 2233.40 1000.90"><title>Logo Gateway Inigo.svg</title><path fill="#042866" d="M19.2195 213.397L114.185 47.1746c6.607-11.564 16.109-21.1667 27.553-27.8427 11.443-6.6759 24.423-10.18999 37.637-10.18883h189.931c13.213-.00116 26.194 3.51293 37.637 10.18883 11.443 6.676 20.946 16.2787 27.552 27.8427l52.266 91.4824-138.976 247.407c-2.34 4.097-2.974 8.966-1.763 13.536 1.212 4.569 4.171 8.465 8.225 10.831 4.054 2.365 8.872 3.006 13.394 1.781 4.522-1.225 8.377-4.215 10.717-8.312l128.785-229.57 22.318 39.067c6.6 11.565 10.075 24.681 10.075 38.032 0 13.35-3.475 26.466-10.075 38.031l-94.966 166.223c-6.606 11.564-16.109 21.167-27.552 27.843-11.443 6.676-24.424 10.19-37.637 10.188H182.05l133.909-225.657c5.096-11.332 5.774-24.19 1.897-36.005-3.876-11.815-12.022-21.716-22.808-27.726-10.786-6.01-23.419-7.685-35.375-4.692-11.955 2.994-22.353 10.436-29.115 20.84l-127.93 215.014-34.8438-60.989 151.4438-261.79c1.017-1.784 1.676-3.752 1.941-5.792.264-2.041.128-4.114-.401-6.102-.529-1.9873-1.44-3.8501-2.681-5.4819-1.241-1.6317-2.788-3.0005-4.552-4.0281-1.765-1.0276-3.712-1.6939-5.731-1.9608-2.02-.267-4.071-.1295-6.038.4048-1.967.5343-3.81 1.4548-5.425 2.709-1.614 1.2542-2.969 2.8175-3.985 4.6007L50.0208 343.142 19.2195 289.46c-6.6004-11.565-10.07497-24.681-10.07497-38.031 0-13.351 3.47457-26.467 10.07497-38.032zm312.5675-48.906c5.473 3.054 11.491 4.981 17.705 5.67 6.215.689 12.503.126 18.501-1.655 5.998-1.782 11.588-4.747 16.445-8.725 4.858-3.978 8.887-8.889 11.855-14.449l1.366-2.532c3.206-5.513 5.286-11.621 6.115-17.961.829-6.34.391-12.784-1.288-18.95-1.679-6.1658-4.564-11.9288-8.486-16.9476-3.922-5.0188-8.801-9.1915-14.347-12.2711-5.546-3.0796-11.647-5.0035-17.942-5.6579-6.295-.6543-12.656-.0257-18.707 1.8485-6.05 1.8742-11.667 4.956-16.518 9.0629-4.851 4.107-8.837 9.1556-11.723 14.8472l-1.366 2.5316c-3.044 5.4964-4.983 11.5474-5.706 17.8034-.722 6.257-.215 12.596 1.494 18.653 1.709 6.058 4.585 11.715 8.464 16.645 3.879 4.931 8.683 9.039 14.138 12.087zM685.852 56.0202C685.852 17.0883 705.893 0 751.598 0c45.706 0 65.603 17.0883 65.603 56.0202s-19.897 55.4258-65.603 55.4258c-45.705 0-65.746-17.0883-65.746-55.4258zM807.82 151.116H695.07v341.768h112.75V151.116zm399.39 114.132v227.649h-112.75V296.749c0-48.441-19.18-64.193-47-64.193-32.59 0-59.695 22.588-59.695 79.202v181.139H874.727v-341.77h100.926l3.317 66.272c9.183-22.806 25.03-42.101 45.34-55.201 20.31-13.102 44.07-19.36 67.99-17.907 68.48 0 114.91 41.607 114.91 120.957zm56.81-209.2278C1264.02 17.0883 1283.92 0 1329.63 0c45.7 0 65.74 17.0883 65.74 56.0202s-19.9 55.4258-65.74 55.4258c-45.85 0-65.61-17.0883-65.61-55.4258zm121.55 95.0958h-112.75v341.768h112.75V151.116z"/><path fill="#042866" fill-rule="evenodd" d="M1783.08 519.641c0 79.35-74.4 120.362-186.43 120.362-120.1 0-169.85-31.501-169.85-80.687 0-27.935 17.88-53.939 60.99-64.193-28.83-13.076-50.32-35.664-50.32-71.177.59-15.986 6.1-31.364 15.75-43.897 9.65-12.534 22.92-21.57 37.89-25.794-16.71-8.655-30.66-22.083-40.17-38.684-9.51-16.599-14.18-35.668-13.47-54.931 0-74.297 58.97-116.202 161.78-116.202 22.27-.066 44.5 2.225 66.32 6.836 8.65-52.7517 39.79-97.1815 104.82-91.6833l12.69 77.2693c-41.82-6.092-67.77 8.173-77.72 29.719 17.19 8.445 31.62 21.865 41.53 38.621 9.9 16.757 14.87 36.123 14.27 55.736 0 74.299-59.11 115.458-161.91 115.458-21.35.226-42.65-1.816-63.59-6.09-15.28 4.011-21.34 11.59-21.34 23.923 0 14.859 12.69 23.18 34.61 23.18h113.32c77.57-.445 120.83 33.733 120.83 102.234zm-88.97 11.735c0-13.671-9.94-21.992-40.51-21.992h-90.84c-36.47 0-50.31 7.578-50.31 23.923 0 19.912 27.82 31.503 92.13 31.503 61.56-.594 90.11-14.563 90.11-33.582l-.58.148zm-128.9-236.69c-9.13-8.917-14.6-21.1-15.28-34.044.68-12.945 6.15-25.128 15.28-34.045 9.14-8.914 21.24-13.883 33.82-13.883 12.58 0 24.67 4.969 33.81 13.883 9.13 8.917 14.6 21.1 15.28 34.045-.68 12.944-6.15 25.127-15.28 34.044-9.14 8.914-21.23 13.883-33.81 13.883-12.58 0-24.68-4.969-33.82-13.883zm408.76 205.635c110.73 0 175.04-66.274 175.04-178.315 0-112.189-64.17-178.314-175.04-178.314-110.88 0-175.18 65.678-175.18 178.314s64.45 178.315 175.18 178.315zm0-83.362c-41.82 0-62.44-27.935-62.44-94.951 0-67.017 20.77-95.102 62.44-95.102 41.66 0 62.28 28.085 62.28 95.102 0 67.016-20.47 94.951-62.28 94.951z" clip-rule="evenodd"/><path fill="#042866" d="M81.9118 867.689c-14.6008 0-27.6253-3.236-39.0736-9.707-11.2824-6.47-20.076-16.011-26.3809-28.62C10.1524 816.752 7 801.405 7 783.32c0-17.754 3.3184-32.935 9.9551-45.545 6.6367-12.609 16.094-22.316 28.3718-29.118 12.4439-6.803 27.0446-10.204 43.8023-10.204 18.5828 0 33.5978 3.401 45.0468 10.204 11.448 6.636 20.325 17.255 26.63 31.856l-39.572 15.679c-2.157-8.462-5.973-14.601-11.448-18.417-5.475-3.816-12.278-5.724-20.4079-5.724-8.13 0-15.0985 1.991-20.9057 5.973-5.8071 3.816-10.2039 9.54-13.1904 17.173-2.9865 7.466-4.4798 16.757-4.4798 27.874 0 11.614 1.4933 21.32 4.4798 29.118 3.1524 7.798 7.7152 13.605 13.6882 17.422 6.1389 3.65 13.6882 5.475 22.6477 5.475 4.8117 0 9.2081-.581 13.1901-1.742 3.982-1.162 7.467-2.821 10.453-4.978 2.987-2.323 5.31-5.143 6.969-8.462 1.659-3.484 2.488-7.549 2.488-12.195v-2.488H87.1382V776.6h73.9158v88.6h-29.118l-3.235-38.576 6.968 5.973c-3.484 11.283-9.789 19.993-18.915 26.132-8.959 5.973-20.5733 8.96-34.8422 8.96zM190.834 865.2V740.762h37.331l1.743 26.878c3.152-9.291 7.798-16.508 13.937-21.652 6.305-5.143 14.269-7.715 23.892-7.715 3.152 0 5.807.249 7.964.747 2.323.497 4.148 1.161 5.475 1.991l-4.231 34.842c-1.659-.663-3.816-1.161-6.471-1.493-2.488-.498-5.558-.747-9.208-.747-4.977 0-9.623 1.079-13.937 3.236s-7.798 5.392-10.453 9.706c-2.489 4.148-3.733 9.457-3.733 15.928V865.2h-42.309zm175.16-78.894c0-5.807-1.659-10.37-4.977-13.688-3.153-3.484-7.466-5.226-12.942-5.226-5.475 0-10.204 1.41-14.186 4.23-3.816 2.655-6.47 7.467-7.964 14.435l-35.838-8.462c2.323-11.946 8.462-21.486 18.417-28.62 9.955-7.135 23.975-10.702 42.06-10.702 12.112 0 22.399 1.825 30.861 5.475 8.627 3.485 15.181 8.794 19.661 15.928 4.646 6.969 6.968 15.597 6.968 25.883v45.545c0 6.471 2.904 9.706 8.711 9.706 2.987 0 5.392-.332 7.217-.996l-2.488 24.141c-4.978 2.323-11.034 3.485-18.168 3.485-6.471 0-12.195-.996-17.173-2.987-4.977-2.157-8.876-5.309-11.697-9.457-2.82-4.314-4.231-9.706-4.231-16.177v-1.493l4.729-1.742c0 7.134-2.157 13.107-6.471 17.919-4.148 4.811-9.623 8.379-16.426 10.701-6.636 2.323-13.605 3.485-20.905 3.485-8.462 0-15.845-1.328-22.15-3.982-6.305-2.655-11.2-6.471-14.684-11.449-3.318-5.143-4.978-11.448-4.978-18.914 0-8.96 2.655-16.343 7.964-22.15 5.476-5.973 14.021-10.121 25.635-12.444l47.037-9.706-.249 22.399-23.892 4.977c-4.977.996-8.71 2.489-11.199 4.48-2.323 1.825-3.484 4.646-3.484 8.462 0 3.65 1.327 6.388 3.982 8.213 2.654 1.825 5.807 2.737 9.457 2.737 2.821 0 5.475-.415 7.964-1.244 2.655-.83 4.978-2.074 6.969-3.733 1.991-1.825 3.567-4.065 4.728-6.72 1.162-2.655 1.742-5.807 1.742-9.457v-32.852zm74.688 131.158V740.762h38.079L481 785.808l-4.977-5.226c1.161-8.296 3.733-15.596 7.715-21.901 3.982-6.305 9.126-11.283 15.43-14.933 6.305-3.65 13.523-5.475 21.653-5.475 10.287 0 19.246 2.572 26.878 7.715 7.632 4.978 13.523 12.278 17.671 21.901 4.313 9.458 6.47 20.989 6.47 34.594s-2.157 25.302-6.47 35.092c-4.314 9.789-10.37 17.255-18.169 22.398-7.632 5.144-16.591 7.716-26.878 7.716-11.283 0-20.408-3.319-27.376-9.955-6.969-6.803-11.615-15.348-13.938-25.635l3.982-5.973v91.338h-42.309zm65.206-80.885c7.3 0 13.025-2.655 17.173-7.964 4.147-5.475 6.221-14.02 6.221-25.634s-2.074-20.076-6.221-25.386c-3.983-5.475-9.624-8.212-16.924-8.212-4.646 0-8.711 1.327-12.195 3.982-3.484 2.488-6.222 6.221-8.213 11.199-1.825 4.978-2.738 11.116-2.738 18.417 0 6.968.83 13.024 2.489 18.168 1.825 4.977 4.48 8.793 7.964 11.448 3.484 2.655 7.632 3.982 12.444 3.982zm90.828 28.621V688h42.309v75.41c3.65-8.296 8.877-14.518 15.679-18.666 6.803-4.314 14.684-6.471 23.644-6.471 8.627 0 16.094 1.659 22.399 4.978 6.47 3.318 11.531 8.212 15.181 14.683 3.65 6.471 5.475 14.601 5.475 24.39V865.2h-42.309v-71.179c0-8.959-1.659-15.098-4.977-18.417-3.153-3.484-7.384-5.226-12.693-5.226-3.982 0-7.715.996-11.199 2.987-3.485 1.991-6.222 5.143-8.213 9.457-1.991 4.314-2.987 9.955-2.987 16.923V865.2h-42.309zm272.063 50.522c-10.951 0-20.574-1.825-28.87-5.476-8.296-3.65-14.767-8.959-19.412-15.928-4.646-6.968-6.969-15.596-6.969-25.883 0-3.318.415-6.802 1.245-10.453.995-3.65 2.488-7.217 4.479-10.701l24.888-5.724c-1.659 3.65-2.903 6.968-3.733 9.955-.83 2.986-1.244 5.724-1.244 8.213 0 6.47 1.327 11.448 3.982 14.932 2.654 3.65 6.221 6.139 10.701 7.466 4.48 1.494 9.54 2.24 15.182 2.24 7.134 0 13.107-.746 17.919-2.24 4.977-1.493 9.042-3.567 12.195-6.221l6.471 29.616c-4.314 3.318-9.873 5.807-16.675 7.466-6.803 1.825-13.522 2.738-20.159 2.738zm-41.563-217.269c16.592 0 30.861 3.401 42.807 10.204 12.112 6.636 21.404 16.26 27.874 28.869 6.471 12.61 9.707 27.792 9.707 45.545s-3.236 32.934-9.707 45.544c-6.47 12.61-15.762 22.316-27.874 29.119-11.946 6.636-26.215 9.955-42.807 9.955-16.591 0-30.943-3.319-43.055-9.955-12.112-6.803-21.403-16.509-27.874-29.119s-9.706-27.791-9.706-45.544c0-17.753 3.235-32.935 9.706-45.545 6.471-12.609 15.762-22.233 27.874-28.869 12.112-6.803 26.464-10.204 43.055-10.204zm0 33.598c-7.964 0-14.683 1.908-20.158 5.724-5.476 3.816-9.624 9.541-12.444 17.173-2.821 7.466-4.231 16.84-4.231 28.123 0 11.116 1.41 20.491 4.231 28.123 2.82 7.632 6.968 13.356 12.444 17.172 5.475 3.816 12.194 5.724 20.158 5.724 7.965 0 14.601-1.908 19.911-5.724 5.475-3.816 9.623-9.54 12.443-17.172 2.821-7.632 4.231-17.007 4.231-28.123 0-11.283-1.41-20.657-4.231-28.123-2.82-7.632-6.968-13.357-12.443-17.173-5.31-3.816-11.946-5.724-19.911-5.724zm152.638 100.048h82.376V865.2H937.047V700.942h42.807v131.157zm226.286 34.345c-15.43 0-28.79-3.401-40.07-10.204-11.28-6.802-20.08-16.425-26.38-28.869-6.31-12.61-9.46-27.791-9.46-45.545 0-17.421 3.24-32.436 9.71-45.046 6.63-12.61 15.92-22.316 27.87-29.119 12.11-6.968 25.97-10.453 41.56-10.453 17.09 0 30.86 3.153 41.32 9.458 10.62 6.305 19.08 16.094 25.38 29.367l-24.64 11.697c-3.15-9.125-8.38-15.928-15.68-20.407-7.13-4.646-15.84-6.969-26.13-6.969-10.28 0-19.33 2.406-27.13 7.217-7.63 4.812-13.6 11.863-17.91 21.155-4.32 9.125-6.48 20.159-6.48 33.1 0 13.108 1.91 24.307 5.73 33.599 3.81 9.125 9.54 16.094 17.17 20.905 7.8 4.812 17.34 7.218 28.62 7.218 6.14 0 11.87-.747 17.17-2.24 5.31-1.659 9.96-3.982 13.94-6.969 3.98-3.152 7.05-7.051 9.21-11.697 2.32-4.811 3.48-10.453 3.48-16.923v-4.729h-47.78v-21.652h71.43v84.618h-19.91l-1.5-33.101 4.98 2.489c-3.98 10.453-10.62 18.583-19.91 24.39-9.12 5.807-20.66 8.71-34.59 8.71zm181.59-82.378c0-8.296-2.33-14.683-6.97-19.163-4.48-4.646-10.7-6.969-18.67-6.969-7.46 0-13.85 1.742-19.16 5.227-5.31 3.484-9.21 9.125-11.7 16.923l-22.4-9.457c3.15-10.121 9.29-18.251 18.42-24.39 9.29-6.139 21.24-9.208 35.84-9.208 9.95 0 18.75 1.659 26.38 4.977 7.63 3.153 13.6 7.964 17.92 14.435 4.48 6.471 6.72 14.767 6.72 24.888v55.499c0 6.139 3.07 9.209 9.21 9.209 2.98 0 5.89-.415 8.71-1.245l-1.5 18.417c-3.81 1.825-8.62 2.738-14.43 2.738-5.31 0-10.12-.913-14.44-2.738-4.14-1.991-7.46-4.895-9.95-8.711-2.32-3.982-3.49-8.876-3.49-14.683v-1.743l5.48-.248c-1.49 6.47-4.56 11.863-9.21 16.177-4.65 4.147-10.04 7.3-16.18 9.457-6.14 1.991-12.36 2.986-18.66 2.986-7.8 0-14.85-1.244-21.16-3.733-6.14-2.489-11.03-6.222-14.68-11.199-3.48-5.144-5.23-11.449-5.23-18.915 0-9.291 2.99-16.923 8.96-22.896 6.14-5.973 14.77-10.038 25.89-12.195l48.28-9.458-.25 18.666-35.09 7.217c-6.97 1.328-12.2 3.236-15.68 5.725-3.49 2.488-5.23 6.139-5.23 10.95 0 4.646 1.74 8.379 5.23 11.2 3.65 2.654 8.46 3.982 14.43 3.982 4.15 0 8.13-.498 11.95-1.494 3.98-.995 7.55-2.571 10.7-4.728 3.15-2.323 5.56-5.227 7.22-8.711 1.82-3.65 2.74-7.964 2.74-12.942v-33.847zm101.48-81.133v123.691c0 6.139 1.58 10.619 4.73 13.439 3.32 2.821 7.72 4.231 13.19 4.231 4.48 0 8.38-.663 11.7-1.991 3.32-1.493 6.39-3.484 9.21-5.973l5.97 19.413c-3.82 3.318-8.54 5.973-14.19 7.964-5.47 1.825-11.61 2.737-18.41 2.737-7.14 0-13.69-1.161-19.66-3.484-5.98-2.323-10.62-6.056-13.94-11.199-3.32-5.31-5.06-12.195-5.23-20.657V710.399l26.63-7.466zm42.81 36.584v20.906h-93.33v-20.906h93.33zm81.09 126.927c-12.44 0-23.39-2.571-32.85-7.715-9.46-5.143-16.84-12.527-22.15-22.15-5.14-9.789-7.72-21.403-7.72-34.842 0-13.44 2.58-24.971 7.72-34.594 5.31-9.789 12.61-17.256 21.9-22.399 9.29-5.144 19.83-7.715 31.61-7.715 12.11 0 22.4 2.488 30.86 7.466s14.93 11.78 19.41 20.408c4.48 8.628 6.72 18.417 6.72 29.367 0 2.987-.08 5.807-.25 8.462-.16 2.655-.41 4.978-.75 6.969h-100.04v-20.408h88.35l-13.19 3.982c0-11.283-2.82-19.91-8.46-25.883-5.65-6.139-13.36-9.209-23.15-9.209-7.13 0-13.36 1.659-18.67 4.978-5.31 3.318-9.37 8.296-12.19 14.932-2.82 6.471-4.23 14.435-4.23 23.892 0 9.292 1.49 17.173 4.48 23.644 2.98 6.47 7.22 11.365 12.69 14.683 5.48 3.319 11.95 4.978 19.41 4.978 8.3 0 15.02-1.576 20.16-4.729 5.15-3.152 9.21-7.549 12.2-13.19l21.15 9.955c-2.99 5.973-7.05 11.199-12.19 15.679-4.98 4.314-10.95 7.632-17.92 9.955-6.97 2.323-14.6 3.484-22.9 3.484zm244.26-126.927h28.86l-41.81 124.439h-29.11l-31.36-92.333-29.62 92.333h-29.12l-41.56-124.439h28.62l28.37 98.307 30.86-98.307h26.63l30.86 98.307 28.38-98.307zm124.11 44.549c0-8.296-2.32-14.683-6.97-19.163-4.48-4.646-10.7-6.969-18.66-6.969-7.47 0-13.86 1.742-19.17 5.227-5.31 3.484-9.21 9.125-11.69 16.923l-22.4-9.457c3.15-10.121 9.29-18.251 18.41-24.39 9.3-6.139 21.24-9.208 35.84-9.208 9.96 0 18.75 1.659 26.38 4.977 7.63 3.153 13.61 7.964 17.92 14.435 4.48 6.471 6.72 14.767 6.72 24.888v55.499c0 6.139 3.07 9.209 9.21 9.209 2.99 0 5.89-.415 8.71-1.245l-1.49 18.417c-3.82 1.825-8.63 2.738-14.44 2.738-5.31 0-10.12-.913-14.43-2.738-4.15-1.991-7.47-4.895-9.96-8.711-2.32-3.982-3.48-8.876-3.48-14.683v-1.743l5.47-.248c-1.49 6.47-4.56 11.863-9.2 16.177-4.65 4.147-10.04 7.3-16.18 9.457-6.14 1.991-12.36 2.986-18.67 2.986-7.8 0-14.85-1.244-21.15-3.733-6.14-2.489-11.04-6.222-14.69-11.199-3.48-5.144-5.22-11.449-5.22-18.915 0-9.291 2.98-16.923 8.96-22.896 6.14-5.973 14.76-10.038 25.88-12.195l48.28-9.458-.25 18.666-35.09 7.217c-6.97 1.328-12.19 3.236-15.68 5.725-3.48 2.488-5.22 6.139-5.22 10.95 0 4.646 1.74 8.379 5.22 11.2 3.65 2.654 8.46 3.982 14.44 3.982 4.15 0 8.13-.498 11.94-1.494 3.99-.995 7.55-2.571 10.71-4.728 3.15-2.323 5.55-5.227 7.21-8.711 1.83-3.65 2.74-7.964 2.74-12.942v-33.847z"/><path fill="#042866" d="M2153.21 739.517l-54.5 139.122c-3.65 9.624-7.63 17.256-11.95 22.897-4.14 5.641-8.95 9.706-14.43 12.195-5.48 2.489-11.86 3.733-19.16 3.733-5.98 0-11.53-.83-16.68-2.489-4.98-1.493-9.37-3.567-13.19-6.222l6.47-20.656c3.15 2.654 6.47 4.645 9.96 5.973 3.65 1.327 7.55 1.991 11.69 1.991 4.48 0 8.47-1.245 11.95-3.734 3.65-2.322 6.89-7.051 9.71-14.185l5.47-13.44-13.19-30.86-38.82-94.325h29.86l27.63 78.148 7.21 23.394 8.22-25.634 26.13-75.908h27.62z"/></svg>