<svg width="268" height="80" viewBox="0 0 268 80" fill="none" xmlns="http://www.w3.org/2000/svg">
<path d="M1.40567 26.6748L13.293 5.89701C14.1199 4.45151 15.3094 3.25117 16.7418 2.41668C18.1742 1.58218 19.799 1.14292 21.453 1.14307H45.2276C46.8815 1.14292 48.5064 1.58218 49.9388 2.41668C51.3712 3.25117 52.5606 4.45151 53.3876 5.89701L59.9299 17.3324L42.5337 48.2582C42.2407 48.7703 42.1613 49.3789 42.313 49.9501C42.4647 50.5214 42.8351 51.0084 43.3426 51.304C43.8501 51.5997 44.4531 51.6798 45.0192 51.5267C45.5852 51.3736 46.0677 50.9999 46.3607 50.4877L62.4812 21.7914L65.2749 26.6748C66.1011 28.1205 66.536 29.7599 66.536 31.4288C66.536 33.0976 66.1011 34.7371 65.2749 36.1827L53.3876 56.9605C52.5606 58.4061 51.3712 59.6064 49.9388 60.4409C48.5064 61.2754 46.8815 61.7146 45.2276 61.7145H21.7879L38.5499 33.5073C39.1878 32.0908 39.2726 30.4835 38.7874 29.0067C38.3021 27.5298 37.2825 26.2921 35.9324 25.5409C34.5822 24.7897 33.0008 24.5802 31.5043 24.9545C30.0078 25.3287 28.7063 26.259 27.8599 27.5595L11.8462 54.4361L7.48472 46.8126L26.4417 14.0888C26.5689 13.8659 26.6515 13.6198 26.6845 13.3648C26.7176 13.1097 26.7006 12.8505 26.6344 12.6021C26.5682 12.3536 26.4542 12.1208 26.2988 11.9168C26.1435 11.7129 25.9499 11.5418 25.729 11.4133C25.5081 11.2849 25.2643 11.2016 25.0116 11.1682C24.7588 11.1348 24.502 11.152 24.2558 11.2188C24.0097 11.2856 23.7789 11.4007 23.5768 11.5574C23.3747 11.7142 23.2052 11.9096 23.0779 12.1325L5.26119 42.8929L1.40567 36.1827C0.579457 34.7371 0.144531 33.0976 0.144531 31.4288C0.144531 29.7599 0.579457 28.1205 1.40567 26.6748ZM40.5311 20.5616C41.2162 20.9433 41.9695 21.1841 42.7474 21.2703C43.5253 21.3564 44.3124 21.2861 45.0632 21.0634C45.8141 20.8407 46.5137 20.47 47.1217 19.9728C47.7297 19.4756 48.2341 18.8617 48.6056 18.1666L48.7766 17.8502C49.178 17.161 49.4383 16.3976 49.5421 15.6051C49.6459 14.8126 49.5911 14.0071 49.3809 13.2363C49.1707 12.4656 48.8095 11.7452 48.3186 11.1179C47.8276 10.4905 47.217 9.96891 46.5227 9.58397C45.8285 9.19902 45.0648 8.95853 44.2768 8.87674C43.4888 8.79495 42.6926 8.87352 41.9353 9.10779C41.1779 9.34207 40.4748 9.72729 39.8676 10.2407C39.2604 10.754 38.7614 11.3851 38.4002 12.0966L38.2292 12.413C37.8482 13.1001 37.6055 13.8564 37.515 14.6385C37.4245 15.4205 37.488 16.2129 37.7019 16.9701C37.9158 17.7273 38.2759 18.4344 38.7614 19.0507C39.2469 19.6671 39.8483 20.1805 40.5311 20.5616Z" fill="#1A223C"/>
<path d="M84.8511 7.00253C84.8511 2.13604 87.3597 0 93.0809 0C98.802 0 101.293 2.13604 101.293 7.00253C101.293 11.869 98.802 13.9308 93.0809 13.9308C87.3597 13.9308 84.8511 11.7947 84.8511 7.00253Z" fill="#1A223C"/>
<path d="M100.119 18.8896H86.0054V61.6107H100.119V18.8896Z" fill="#1A223C"/>
<path d="M150.112 33.1561V61.6122H135.999V37.0938C135.999 31.0386 133.598 29.0697 130.115 29.0697C126.036 29.0697 122.643 31.8931 122.643 38.9699V61.6122H108.494V18.891H121.127L121.542 27.1751C122.692 24.3243 124.675 21.9124 127.217 20.2748C129.759 18.6371 132.734 17.8548 135.728 18.0365C144.3 18.0365 150.112 23.2373 150.112 33.1561Z" fill="#1A223C"/>
<path d="M157.224 7.00253C157.224 2.13604 159.714 0 165.435 0C171.157 0 173.665 2.13604 173.665 7.00253C173.665 11.869 171.175 13.9308 165.435 13.9308C159.696 13.9308 157.224 11.7947 157.224 7.00253Z" fill="#1A223C"/>
<path d="M172.438 18.8896H158.325V61.6107H172.438V18.8896Z" fill="#1A223C"/>
<path fill-rule="evenodd" clip-rule="evenodd" d="M222.195 64.955C222.195 74.8738 212.883 80.0003 198.859 80.0003C183.826 80.0003 177.599 76.0626 177.599 69.9144C177.599 66.4225 179.837 63.172 185.233 61.8903C181.624 60.2558 178.935 57.4324 178.935 52.9932C179.008 50.995 179.698 49.0728 180.906 47.506C182.113 45.9393 183.774 44.8099 185.648 44.2819C183.556 43.2 181.811 41.5214 180.62 39.4463C179.43 37.3714 178.845 34.9878 178.935 32.5799C178.935 23.2928 186.316 18.0547 199.184 18.0547C201.973 18.0465 204.755 18.3328 207.486 18.9091C208.569 12.3152 212.467 6.7615 220.607 7.44878L222.195 17.1074C216.961 16.3459 213.713 18.129 212.468 20.8223C214.619 21.8779 216.425 23.5554 217.665 25.6499C218.905 27.7446 219.526 30.1653 219.452 32.617C219.452 41.9043 212.052 47.0492 199.184 47.0492C196.513 47.0775 193.846 46.8222 191.225 46.2879C189.312 46.7894 188.554 47.7367 188.554 49.2783C188.554 51.1356 190.142 52.1758 192.886 52.1758H207.071C216.781 52.1202 222.195 56.3924 222.195 64.955ZM211.06 66.422C211.06 64.7131 209.814 63.6729 205.988 63.6729H194.618C190.052 63.6729 188.319 64.6202 188.319 66.6633C188.319 69.1523 191.802 70.6012 199.852 70.6012C207.558 70.5269 211.132 68.7808 211.132 66.4034L211.06 66.422ZM194.924 36.8357C193.781 35.7211 193.097 34.1982 193.012 32.5801C193.097 30.962 193.781 29.4391 194.924 28.3246C196.068 27.2103 197.582 26.5892 199.157 26.5892C200.731 26.5892 202.246 27.2103 203.389 28.3246C204.532 29.4391 205.217 30.962 205.302 32.5801C205.217 34.1982 204.532 35.7211 203.389 36.8357C202.246 37.95 200.731 38.5711 199.157 38.5711C197.582 38.5711 196.068 37.95 194.924 36.8357Z" fill="#1A223C"/>
<path fill-rule="evenodd" clip-rule="evenodd" d="M246.09 62.54C259.951 62.54 268 54.2558 268 40.2507C268 26.227 259.969 17.9614 246.09 17.9614C232.211 17.9614 224.162 26.1712 224.162 40.2507C224.162 54.3302 232.229 62.54 246.09 62.54ZM246.09 52.1199C240.856 52.1199 238.275 48.628 238.275 40.2509C238.275 31.8738 240.874 28.3632 246.09 28.3632C251.306 28.3632 253.886 31.8738 253.886 40.2509C253.886 48.628 251.324 52.1199 246.09 52.1199Z" fill="#1A223C"/>
</svg>
