<svg viewBox="0 0 125 48" fill="none" xmlns="http://www.w3.org/2000/svg">
    <path d="M25.1001 12.6697C18.5888 12.6697 14.2192 16.4607 14.2192 23.8152V29.0587C14.8803 28.7337 15.6059 28.5613 16.3424 28.554C17.0804 28.5542 17.8087 28.7226 18.4718 29.0464V23.7906C18.4718 19.021 21.1059 16.5715 25.1185 16.5715C29.1312 16.5715 31.7283 19.021 31.7283 23.7906V35.2499H35.9686V23.7906C35.9809 16.393 31.6114 12.6697 25.1001 12.6697ZM38.2888 24.2398C38.2888 17.5501 43.2123 12.6451 50.1482 12.6451C57.0842 12.6451 61.9215 17.5685 61.9215 24.2398V25.7969H42.7446C43.36 29.7234 46.3141 31.9081 50.1298 31.9081C52.9854 31.9081 54.9917 31.0158 56.2841 29.1018H60.9614C59.269 33.2006 55.2563 35.8346 50.1298 35.8346C43.1938 35.8346 38.2888 30.9296 38.2888 24.2398ZM57.4596 22.012C56.6103 18.4855 53.7178 16.5715 50.1482 16.5715C46.5787 16.5715 43.7293 18.5348 42.88 22.012H57.4596ZM64.1863 24.2398C64.1863 17.5562 69.1098 12.6512 76.0457 12.6512C82.9817 12.6512 87.9051 17.5747 87.9051 24.2398C87.9051 30.905 82.9817 35.8346 76.0457 35.8346C69.1098 35.8346 64.1863 30.9296 64.1863 24.2398ZM83.6279 24.2398C83.6279 19.7841 80.5938 16.5715 76.0457 16.5715C71.4977 16.5715 68.4697 19.7841 68.4697 24.2398C68.4697 28.6956 71.4976 31.9081 76.0395 31.9081C80.5815 31.9081 83.6279 28.7017 83.6279 24.2398ZM112.129 39.638H112.621C115.341 39.638 116.363 38.4071 116.363 35.33V13.3836H120.603V35.0469C120.603 40.4873 118.461 43.2937 113.021 43.2937H112.129V39.638ZM110.012 37.3732H105.771V32.1482H95.0318C94.0514 32.1823 93.0806 31.9446 92.2268 31.4613C91.3731 30.9779 90.6697 30.2678 90.1945 29.4095C89.8086 28.6028 89.6581 27.7036 89.7605 26.8152C89.8628 25.9268 90.2138 25.0853 90.773 24.3875L100.411 11.7404C101.077 10.8414 102.009 10.1751 103.076 9.83621C104.142 9.49733 105.288 9.50306 106.351 9.8526C107.414 10.2021 108.34 10.8777 108.997 11.7833C109.654 12.689 110.009 13.7786 110.012 14.8975V28.3879H113.193V32.1482H110.012V37.3732ZM94.2995 26.7016C94.1727 26.8819 94.104 27.0966 94.1025 27.317C94.1017 27.4571 94.1287 27.5959 94.1819 27.7254C94.2351 27.855 94.3135 27.9727 94.4126 28.0717C94.5116 28.1707 94.6293 28.2491 94.7588 28.3023C94.8884 28.3555 95.0272 28.3825 95.1672 28.3817H105.771V14.7929C105.779 14.5642 105.712 14.3392 105.579 14.1525C105.447 13.9657 105.257 13.8275 105.039 13.759C104.913 13.7231 104.782 13.7045 104.651 13.7036C104.485 13.7035 104.322 13.7445 104.176 13.8229C104.03 13.9013 103.906 14.0147 103.814 14.1529L94.2995 26.7016Z" fill="white"/>
    <path d="M118.505 4.37964C117.786 4.37843 117.083 4.59035 116.486 4.98859C115.888 5.38684 115.421 5.95351 115.145 6.61689C114.87 7.28027 114.797 8.01055 114.936 8.71531C115.076 9.42007 115.421 10.0676 115.929 10.5761C116.436 11.0845 117.083 11.4309 117.788 11.5715C118.492 11.7121 119.223 11.6406 119.886 11.366C120.55 11.0913 121.118 10.6259 121.517 10.0287C121.916 9.4314 122.129 8.72912 122.129 8.01071C122.129 7.04875 121.748 6.12611 121.068 5.44533C120.388 4.76455 119.466 4.38127 118.505 4.37964ZM16.1578 29.9017C15.3703 29.9025 14.6049 30.162 13.9792 30.6402L9.99116 27.9138C10.0799 27.5952 10.1255 27.2661 10.1266 26.9353C10.1351 26.2169 9.92993 25.5121 9.53712 24.9105C9.14431 24.3088 8.58157 23.8375 7.92037 23.5564C7.25916 23.2752 6.52931 23.1969 5.82351 23.3314C5.1177 23.4658 4.46778 23.807 3.95627 24.3116C3.44475 24.8162 3.09473 25.4614 2.95064 26.1653C2.80655 26.8692 2.8749 27.6 3.147 28.265C3.4191 28.93 3.88269 29.4991 4.47888 29.9001C5.07508 30.3011 5.777 30.5159 6.4955 30.5171C7.28323 30.5177 8.0491 30.258 8.67413 29.7786L12.6498 32.5234C12.4692 33.1654 12.4692 33.8447 12.6498 34.4867L8.66182 37.2131C8.04013 36.7362 7.27902 36.4767 6.4955 36.4745C5.77682 36.4733 5.07394 36.6854 4.47587 37.0839C3.87781 37.4824 3.41145 38.0495 3.13586 38.7132C2.86027 39.3769 2.78785 40.1075 2.92776 40.8125C3.06766 41.5174 3.41362 42.165 3.9218 42.6731C4.42998 43.1813 5.07754 43.5273 5.78247 43.6672C6.4874 43.8071 7.21799 43.7347 7.88173 43.4591C8.54547 43.1835 9.11251 42.7171 9.51102 42.1191C9.90954 41.521 10.1216 40.8181 10.1204 40.0994C10.1202 39.7731 10.0768 39.4482 9.99116 39.1332L13.9792 36.4068C14.6049 36.885 15.3703 37.1445 16.1578 37.1454C17.0737 37.0799 17.9308 36.6699 18.5565 35.9979C19.1822 35.3259 19.5301 34.4417 19.5301 33.5235C19.5301 32.6053 19.1822 31.7212 18.5565 31.0492C17.9308 30.3771 17.0737 29.9671 16.1578 29.9017Z" fill="white"/>
</svg>
