<svg xmlns="http://www.w3.org/2000/svg" role="img" viewBox="-9.87 -9.87 388.74 513.24"><title>solo.io-svg-1.svg</title><defs><filter id="a"><feOffset dy="7"/><feGaussianBlur result="blur" stdDeviation="7"/><feFlood flood-color="#000" flood-opacity=".4"/><feComposite in2="blur" operator="in"/><feComposite in="SourceGraphic"/></filter></defs><g data-name="Layer 1"><path fill="#35393b" d="M278.68458 397.97269c1.5029 0 2.9316.3926 4.25 1.1113 1.414.7695 2.5146 1.875 3.3076 3.2773.7627 1.3497 1.1855 2.8204 1.1855 4.375 0 1.5333-.4179 2.9786-1.1582 4.3184-.7724 1.3965-1.8652 2.4766-3.2558 3.2578-1.3428.7539-2.7891 1.1641-4.3291 1.1641-1.5538 0-3.002-.39851-4.35358-1.166-1.37891-.7793-2.48341-1.8692-3.25091-3.2559-.7403-1.3398-1.1573-2.7851-1.1573-4.3184 0-1.5449.4131-3.0097 1.1504-4.3613.7823-1.42191 1.8985-2.5215 3.3272-3.29491 1.3252-.71679 2.7715-1.10739 4.2842-1.10739zm52.4375 81.623c5.9462 0 10.95992-2.1367 15.1152-6.38861 4.2119-4.31449 6.2822-9.47269 6.2822-15.49609 0-6.0528-2.0478-11.2422-6.2822-15.5801-4.15528-4.2481-9.169-6.38481-15.1152-6.38481-5.9454 0-10.962 2.127-15.1133 6.38481-4.2227 4.3379-6.2852 9.5351-6.2852 15.5801 0 6.0156 2.0879 11.1836 6.2852 15.49609 4.1513 4.25781 9.1679 6.38861 15.1133 6.38861m-136.5479 0c5.9414 0 10.9541-2.1367 15.1123-6.38861 4.2129-4.31449 6.2832-9.47269 6.2832-15.49609 0-6.0528-2.0478-11.2403-6.2832-15.5801-4.1582-4.25-9.1709-6.38481-15.1123-6.38481-5.94919 0-10.9629 2.127-15.1157 6.38481-4.2241 4.3379-6.2847 9.5351-6.2847 15.5801 0 6.0156 2.0835 11.1836 6.2847 15.49609 4.1528 4.25971 9.16651 6.38861 15.1157 6.38861zm-105.3437 0c5.9467 0 10.958-2.1367 15.1147-6.38861 4.2114-4.31449 6.2822-9.47269 6.2822-15.49609 0-6.0528-2.0478-11.2403-6.2822-15.5801-4.1567-4.25-9.168-6.38481-15.1147-6.38481-5.9449 0-10.9624 2.127-15.1128 6.38481-4.2251 4.3379-6.2823 9.5351-6.2823 15.5801 0 6.0156 2.08261 11.1836 6.2823 15.49609 4.1504 4.25971 9.1679 6.38861 15.1128 6.38861zm159.6289-3.26761c1.5039 0 2.92961.39071 4.249 1.10551 1.417.7754 2.51461 1.8789 3.30961 3.2813.76259 1.3515 1.18749 2.8183 1.18749 4.3711 0 1.53509-.4219 2.9863-1.1622 4.3203-.7705 1.3984-1.8652 2.4785-3.2568 3.25779-1.3408.75581-2.7891 1.166-4.3271 1.166-1.5528 0-3.001-.40039-4.3506-1.166-1.3789-.77929-2.4873-1.87109-3.2539-3.25779-.7383-1.334-1.1582-2.78521-1.1582-4.3203 0-1.5391.4179-3.00791 1.1552-4.3536.7774-1.4257 1.8955-2.52931 3.3233-3.2988 1.3291-.7148 2.7715-1.10551 4.2842-1.10551zm82.2627-54.88279c9.8808 0 18.2685 3.6426 25.1914 10.67 6.9726 7.0859 10.4443 15.6523 10.4443 25.5957 0 9.9296-3.4717 18.4687-10.4482 25.5332-6.919 7.0058-15.335 10.58589-25.1875 10.58589-9.8536 0-18.2588-3.56639-25.16608-10.58589-6.97072-7.0762-10.46582-15.5957-10.46582-25.5332 0-9.9512 3.4951-18.4961 10.4629-25.5957 6.9121-7.0391 15.29-10.67 25.169-10.67zm-52.4375 0c1.9609 0 3.6572.7364 5 2.1055 1.4199 1.3652 2.1396 3.0879 2.1396 5.0566v58.1465c0 1.9668-.7197 3.668-2.123 5.0196-1.376 1.375-3.0713 2.05659-5.0166 2.05659-1.9551 0-3.64458-.67969-5.0342-2.05469-1.3887-1.373-2.126-3.0605-2.126-5.0215v-58.1465c0-1.9609.7334-3.6757 2.1123-5.0332 1.3789-1.4023 3.0762-2.1289 5.0479-2.1289zm-84.1104 0c9.876 0 18.2637 3.6387 25.1865 10.67 6.9727 7.0859 10.44831 15.6523 10.44831 25.5957 0 9.9296-3.47171 18.4687-10.45221 25.5332-6.9189 7.0078-15.3349 10.58589-25.1826 10.58589-9.8545 0-18.26319-3.56639-25.1699-10.58589-6.9678-7.0762-10.4668-15.5957-10.4668-25.5332 0-9.9512 3.499-18.4961 10.4668-25.5957 6.9092-7.0391 15.2861-10.67 25.1699-10.67zm-105.3428 0c9.8765 0 18.2652 3.6387 25.1875 10.67 6.9766 7.0859 10.4478 15.6523 10.4478 25.5957 0 9.9296-3.4702 18.4687-10.4492 25.5332-6.9209 7.0078-15.336 10.58589-25.1861 10.58589-9.8535 0-18.2612-3.56639-25.16939-10.58589-6.96781-7.0762-10.46531-15.5957-10.46531-25.5332 0-9.9512 3.4975-18.4961 10.46531-25.5957 6.90969-7.0391 15.28809-10.67 25.16939-10.67zm52.6905-23.5996c1.9677 0 3.66011.7285 5.0429 2.125 1.3711 1.3809 2.0567 3.086 2.0567 5.0332v81.75c0 1.9375-.6973 3.625-2.0782 5.0371-1.3979 1.3457-3.0781 2.03909-5.0214 2.03909-1.9541 0-3.6543-.68749-5.0801-2.05659-1.3789-1.3809-2.0581-3.0723-2.0581-5.0196v-81.75c0-1.9551.67431-3.6523 2.0581-5.0371 1.3955-1.4004 3.1006-2.1211 5.0801-2.1211zM26.26759 493.83008c-5.1079 0-9.794-1.584-14.0323-4.42379-3.5996-2.40821-6.583-5.4336-8.853-9.1211-1.0195-1.6524-1.3052-3.4649-.8408-5.3223.4316-1.9043 1.4702-3.4101 3.1401-4.4961 1.6641-1.01171 3.5-1.2832 5.3921-.834 1.9028.4512 3.395 1.52929 4.4185 3.19529 1.1465 1.86721 2.7485 3.36921 4.54781 4.59381 1.86139 1.2676 3.94439 2.1738 6.22759 2.1738 2.3447 0 4.3989-.6933 6.1767-2.2754 1.6021-1.36721 2.501-3.0351 2.501-5.1601 0-1.7285-.4302-3.3574-1.8662-4.4336-1.8853-1.4082-6.5029-2.6817-8.76809-3.3028-4.35251-1.1894-9.72071-2.9511-13.40231-5.625-5.2881-3.8398-7.59769-9.2363-7.59769-15.6835 0-6.084 2.36669-11.20321 6.79009-15.3536 4.52491-4.2617 9.95891-6.3164 16.1665-6.3164 4.5107 0 8.7373 1.1641 12.5771 3.5332 3.7515 2.3125 6.5742 5.4844 8.4214 9.47659.8252 1.77931.9155 3.63281.23 5.47851-.6822 1.8477-1.9502 3.168-3.7354 3.98049-1.747.79691-3.601.86331-5.4023.207-1.83739-.668-3.1895-1.93749-4.0327-3.72459-.6612-1.4746-1.7534-2.5918-3.0928-3.416-1.5337-.8809-3.1958-1.2949-4.9653-1.2949-2.3604 0-4.4375.6953-6.2251 2.2597-1.5772 1.38279-2.4341 3.0684-2.4341 5.17 0 1.6543.3847 3.2714 1.7178 4.2871 1.9057 1.3593 6.5385 2.6328 8.79881 3.2636 4.31689 1.1953 9.82179 2.9727 13.46579 5.6485 5.2803 3.873 7.5938 9.3613 7.5938 15.8457 0 6.0761-2.3111 11.2168-6.7281 15.3808-4.5146 4.2559-9.99949 6.28909-16.1889 6.28909z"/><circle cx="184.541" cy="184.541" r="184.54" fill="#158bc2" transform="rotate(-80.81 184.541 184.54)"/><path fill="#fff" fill-rule="evenodd" d="M146.07079 293.63819c21.1841 0 25.2139-13.8135 39.22221-13.9277 14.00779.1142 18.03709 13.9277 39.22159 13.9277 23.7715 0 44.9473-34.206 51.8077-78.9644 3.0263 5.4327 6.0205 10.84528 8.4941 15.7994 10.0644 20.1728 21.3935 19.3545 28.0107 15.62788 6.6162-3.72658 9.7491-17.624-.8535-33.18458-6.4111-9.4106-21.2959-22.8281-33.3418-30.6718-.9053-48.5752-42.2695-81.2295-93.33878-81.5899-16.59331.1167-32.16021 3.6436-45.65141 10.0161-2.10259.99418-5.4053.9863-6.7852-.8354-3.8227-5.0469-8.31639-8.3555-12.5122-10.3921-3.0068-1.4575-5.2768-2.6446-5.2768-5.4087 0-2.5073-.3262-5.0693-1.17039-7.5859-3.95371-11.795-17.48691-18.4214-29.28321-14.4664-11.795 3.9546-17.3877 16.9942-13.4317 28.7891 3.9551 11.7949 16.7241 18.1509 28.5191 14.1973 2.455-.8228 4.6757-2.0318 6.6147-3.5283 1.9067-1.4742 3.3862-1.9849 6.2212-1.9566 4.064.0405 13.772 8.1914 8.1665 13.1431-16.6401 14.6977-28.0073 34.3642-28.731 58.6474-12.2861 7.6651-28.1782 21.8316-34.8642 31.6421-10.6006 15.56058-7.4683 29.458-.8535 33.18458 6.6176 3.72662 17.9467 4.54492 28.0136-15.62788 2.793-5.6016 6.2579-11.79012 9.6783-17.9302 6.5083 45.7993 27.9755 81.0952 52.124 81.0952" filter="url(#a)"/><path fill="#158bc2" fill-rule="evenodd" d="M263.40619 155.1226c1.8536-.3164 3.9014 1.2046 4.5703 3.3999.6719 2.1899-.2919 4.2241-2.1484 4.539-1.8545.316-3.9062-1.205-4.5723-3.3989-.6699-2.1929.2911-4.2256 2.1504-4.54M188.208 129.05908c-16.58941 3.40042-21.74561-12.60108-.76951-17.66308 26.2793-6.3457 63.581 10.7818 74.77051 34.3667 2.97949 6.2822-1.67971 8.6358-6.76471 2.3423-14.0869-17.4258-39.4082-24.749-67.23629-19.04592z"/></g></svg>