<svg viewBox="0 0 96 126" fill="none" xmlns="http://www.w3.org/2000/svg">
    <g clip-path="url(#clip0_706_5857)">
        <path d="M70.9697 99.9355C71.336 99.9355 71.6845 100.031 72.0062 100.206C72.3511 100.394 72.6193 100.664 72.8127 101.006C72.9988 101.335 73.102 101.693 73.102 102.073C73.102 102.447 73 102.799 72.8193 103.126C72.631 103.466 72.3645 103.73 72.0255 103.92C71.698 104.104 71.3451 104.204 70.9695 104.204C70.5907 104.204 70.2376 104.107 69.9079 103.92C69.5716 103.73 69.3023 103.464 69.1153 103.126C68.9346 102.799 68.8329 102.447 68.8329 102.073C68.8329 101.696 68.9336 101.339 69.1133 101.009C69.2994 100.668 69.5815 100.388 69.9247 100.205C70.2481 100.031 70.6007 99.9355 70.9697 99.9355ZM83.758 119.842C85.2081 119.842 86.4309 119.32 87.4443 118.284C88.4715 117.231 88.9763 115.973 88.9763 114.504C88.9763 113.028 88.4771 111.763 87.4443 110.705C86.4309 109.669 85.2081 109.148 83.758 109.148C82.3082 109.148 81.0846 109.666 80.0723 110.705C79.0424 111.763 78.5395 113.03 78.5395 114.504C78.5395 115.972 79.0485 117.232 80.0723 118.284C81.0846 119.322 82.3082 119.842 83.758 119.842ZM50.4568 119.842C51.9059 119.842 53.1283 119.32 54.1423 118.284C55.1698 117.231 55.6748 115.973 55.6748 114.504C55.6748 113.028 55.1754 111.763 54.1423 110.705C53.1283 109.668 51.9059 109.148 50.4568 109.148C49.006 109.148 47.7832 109.666 46.7703 110.705C45.7402 111.763 45.2378 113.03 45.2378 114.504C45.2378 115.972 45.7458 117.232 46.7703 118.284C47.7832 119.322 49.006 119.842 50.4568 119.842ZM24.7656 119.842C26.2159 119.842 27.438 119.32 28.4518 118.284C29.479 117.231 29.9839 115.973 29.9839 114.504C29.9839 113.028 29.4847 111.763 28.4518 110.705C27.438 109.668 26.2159 109.148 24.7656 109.148C23.316 109.148 22.0922 109.666 21.0801 110.705C20.0497 111.763 19.5478 113.03 19.5478 114.504C19.5478 115.972 20.0558 117.232 21.0801 118.284C22.0922 119.322 23.316 119.842 24.7656 119.842ZM63.696 119.045C64.0626 119.045 64.4104 119.14 64.732 119.314C65.0776 119.503 65.3454 119.772 65.5393 120.114C65.7254 120.444 65.8288 120.802 65.8288 121.181C65.8288 121.555 65.7261 121.909 65.5454 122.234C65.3576 122.575 65.0905 122.839 64.7511 123.029C64.4243 123.213 64.0709 123.313 63.6958 123.313C63.3173 123.313 62.9642 123.215 62.6349 123.029C62.2984 122.838 62.0281 122.572 61.8413 122.234C61.6614 121.909 61.5589 121.555 61.5589 121.181C61.5589 120.805 61.6609 120.447 61.8406 120.119C62.0255 119.777 62.3075 119.497 62.651 119.314C62.9754 119.14 63.327 119.045 63.6958 119.045H63.696ZM83.758 105.66C86.1676 105.66 88.2135 106.548 89.9016 108.262C91.6021 109.99 92.4489 112.079 92.4489 114.504C92.4489 116.926 91.6022 119.009 89.9009 120.731C88.2132 122.44 86.161 123.313 83.758 123.313C81.3548 123.313 79.305 122.443 77.6206 120.731C75.9207 119.006 75.0681 116.928 75.0681 114.504C75.0681 112.078 75.9205 109.994 77.6198 108.262C79.3055 106.545 81.3485 105.66 83.758 105.66ZM70.9697 105.66C71.4477 105.66 71.8616 105.84 72.1891 106.173C72.5354 106.506 72.711 106.927 72.711 107.407V121.587C72.711 122.067 72.5354 122.482 72.193 122.812C71.8574 123.147 71.4441 123.313 70.9697 123.313C70.4927 123.313 70.0808 123.147 69.7418 122.812C69.4033 122.477 69.2233 122.066 69.2233 121.587V107.407C69.2233 106.929 69.4023 106.51 69.7386 106.179C70.0749 105.837 70.4888 105.66 70.9697 105.66ZM50.4571 105.66C52.8654 105.66 54.911 106.547 56.5994 108.262C58.2997 109.99 59.1474 112.079 59.1474 114.504C59.1474 116.926 58.3007 119.009 56.5984 120.731C54.9108 122.44 52.8585 123.313 50.4568 123.313C48.0536 123.313 46.0028 122.443 44.3184 120.731C42.619 119.006 41.7657 116.928 41.7657 114.504C41.7657 112.078 42.6193 109.994 44.3184 108.262C46.0036 106.545 48.0465 105.66 50.4571 105.66ZM24.7658 105.66C27.1746 105.66 29.2205 106.547 30.9087 108.262C32.61 109.99 33.4567 112.079 33.4567 114.504C33.4567 116.926 32.6105 119.009 30.9082 120.731C29.2205 122.44 27.168 123.313 24.7658 123.313C22.3629 123.313 20.3126 122.443 18.6276 120.731C16.9283 119.006 16.0754 116.928 16.0754 114.504C16.0754 112.078 16.9283 109.994 18.6276 108.262C20.3128 106.545 22.3558 105.66 24.7658 105.66ZM37.6158 99.9043C38.096 99.9043 38.5087 100.082 38.846 100.423C39.1801 100.759 39.3474 101.175 39.3474 101.65V121.587C39.3474 122.06 39.1774 122.471 38.8406 122.816C38.4996 123.144 38.0899 123.313 37.6161 123.313C37.1395 123.313 36.7249 123.145 36.3772 122.811C36.0406 122.475 35.8753 122.062 35.8753 121.587V101.65C35.8753 101.173 36.0396 100.76 36.3772 100.422C36.7174 100.08 37.1332 99.9045 37.6161 99.9045L37.6158 99.9043ZM9.41071 123.313C8.16498 123.313 7.02216 122.927 5.98836 122.234C5.11039 121.647 4.3829 120.909 3.8293 120.01C3.58054 119.607 3.51103 119.165 3.62444 118.712C3.72955 118.247 3.98294 117.88 4.39022 117.615C4.79603 117.368 5.24379 117.302 5.70521 117.412C6.16907 117.522 6.53318 117.785 6.78267 118.191C7.0624 118.646 7.4531 119.013 7.89184 119.311C8.34569 119.62 8.85369 119.842 9.41071 119.842C9.98237 119.842 10.4833 119.672 10.9169 119.287C11.3076 118.953 11.5269 118.546 11.5269 118.028C11.5269 117.607 11.422 117.209 11.0718 116.947C10.6121 116.603 9.48583 116.293 8.93344 116.142C7.87184 115.851 6.56294 115.422 5.66497 114.77C4.37534 113.833 3.81198 112.517 3.81198 110.945C3.81198 109.461 4.38924 108.213 5.46792 107.2C6.57147 106.161 7.89671 105.66 9.41071 105.66C10.5106 105.66 11.5415 105.944 12.478 106.521C13.3928 107.086 14.0812 107.859 14.5317 108.833C14.7329 109.267 14.7551 109.719 14.5878 110.169C14.4215 110.619 14.1122 110.942 13.6769 111.14C13.2508 111.334 12.7987 111.35 12.3592 111.19C11.9112 111.027 11.5812 110.718 11.3759 110.282C11.2144 109.922 10.9481 109.65 10.6216 109.449C10.2475 109.234 9.84214 109.133 9.41071 109.133C8.83516 109.133 8.32838 109.302 7.89232 109.684C7.50773 110.021 7.29872 110.432 7.29872 110.945C7.29872 111.348 7.39261 111.742 7.71771 111.99C8.18254 112.322 9.31243 112.632 9.8636 112.786C10.9164 113.078 12.259 113.511 13.1477 114.164C14.4354 115.108 14.9997 116.447 14.9997 118.028C14.9997 119.51 14.4358 120.764 13.3586 121.779C12.2578 122.817 10.9201 123.313 9.41071 123.313V123.313Z" fill="white"/>
        <path d="M92.438 55.0713C96.4077 30.5345 79.7348 7.42544 55.198 3.45574C30.6612 -0.513954 7.55212 16.159 3.58243 40.6958C-0.387271 65.2325 16.2856 88.3416 40.8224 92.3113C65.3592 96.281 88.4683 79.6081 92.438 55.0713Z" fill="white"/>
        <g filter="url(#filter0_d_706_5857)">
            <path fill-rule="evenodd" clip-rule="evenodd" d="M38.6277 74.4903C43.7943 74.4903 44.7771 71.1216 48.1934 71.0935C51.6097 71.1216 52.5922 74.4903 57.7588 74.4903C63.5561 74.4903 68.7205 66.1482 70.3935 55.2326C71.1317 56.5574 71.8616 57.8775 72.465 59.0859C74.9196 64.0054 77.6825 63.8059 79.2963 62.897C80.9098 61.9881 81.6741 58.5989 79.0883 54.8039C77.5245 52.509 73.8946 49.2366 70.9568 47.3238C70.7359 35.4772 60.6481 27.5135 48.1934 27.4257C44.1467 27.454 40.3502 28.3142 37.0601 29.8684C36.5472 30.1109 35.7417 30.1089 35.4051 29.6646C34.473 28.4339 33.377 27.6269 32.3537 27.1302C31.6203 26.7748 31.0667 26.4853 31.0667 25.8113C31.0667 25.1996 30.9872 24.5748 30.7814 23.9612C29.8171 21.0846 26.5167 19.4685 23.6399 20.433C20.7633 21.3975 19.3993 24.5777 20.3641 27.4543C21.3286 30.3306 24.4427 31.8807 27.3195 30.9166C27.9015 30.7218 28.4467 30.4309 28.9325 30.056C29.3976 29.6965 29.7583 29.5721 30.4497 29.579C31.4408 29.5887 33.8084 31.5766 32.4415 32.7843C28.3833 36.3688 25.6109 41.1649 25.4346 47.087C22.4383 48.9564 18.5623 52.4114 16.9317 54.8039C14.3466 58.5989 15.1104 61.9881 16.7237 62.897C18.3377 63.8059 21.1006 64.0054 23.5557 59.0857C24.2367 57.7197 25.0817 56.2103 25.916 54.7129C27.5032 65.8826 32.7383 74.4903 38.6277 74.4903Z" fill="#251F30"/>
        </g>
        <path fill-rule="evenodd" clip-rule="evenodd" d="M67.2435 40.7094C67.6957 40.6321 68.1951 41.0031 68.358 41.5386C68.5219 42.0727 68.2871 42.5688 67.8342 42.6456C67.382 42.7224 66.8816 42.3515 66.7192 41.8164C66.5558 41.2818 66.7899 40.786 67.2435 40.7092M48.9043 34.353C44.8583 35.1822 43.6009 31.2799 48.7165 30.0453C55.1256 28.4977 64.2226 32.6748 66.9516 38.4267C67.6783 39.9588 66.5419 40.5326 65.3017 38.9979C61.8662 34.7481 55.6909 32.9621 48.9043 34.353Z" fill="white"/>
    </g>
    <defs>
        <filter id="filter0_d_706_5857" x="11.8322" y="18.4462" width="72.356" height="61.1655" filterUnits="userSpaceOnUse" color-interpolation-filters="sRGB">
            <feFlood flood-opacity="0" result="BackgroundImageFix"/>
            <feColorMatrix in="SourceAlpha" type="matrix" values="0 0 0 0 0 0 0 0 0 0 0 0 0 0 0 0 0 0 127 0" result="hardAlpha"/>
            <feOffset dy="1.70715"/>
            <feGaussianBlur stdDeviation="1.70715"/>
            <feColorMatrix type="matrix" values="0 0 0 0 0 0 0 0 0 0 0 0 0 0 0 0 0 0 0.4 0"/>
            <feBlend mode="normal" in2="BackgroundImageFix" result="effect1_dropShadow_706_5857"/>
            <feBlend mode="normal" in="SourceGraphic" in2="effect1_dropShadow_706_5857" result="shape"/>
        </filter>
        <clipPath id="clip0_706_5857">
            <rect width="94.8056" height="125.169" fill="white" transform="translate(0.597168 0.470947)"/>
        </clipPath>
    </defs>
</svg>
