<svg xmlns="http://www.w3.org/2000/svg" role="img" viewBox="170.84 170.84 1308.32 441.32"><title>Stellate Wordmark Blue.svg</title><g fill-rule="evenodd"><path fill="#4568a5" d="M524.93 504.35l.27-.16c6.07-3.64 10.5-9.49 12.4-16.33 1.89-6.84 1.09-14.15-2.23-20.42l-31.64-60.28-238.24 126.17 85.22 49.42c5.93 3.44 12.66 5.25 19.51 5.25s13.58-1.81 19.51-5.25l135.2-78.4zM238.9 439.33l191.15-214.71-40.31-23.37c-5.93-3.44-12.66-5.25-19.51-5.25s-13.58 1.81-19.51 5.25l-135.2 78.4c-5.93 3.44-10.86 8.39-14.28 14.35-3.43 5.96-5.23 12.72-5.23 19.6V343c0 18.18 3.82 36.16 11.21 52.76 7.39 16.6 18.19 31.44 31.68 43.56z"/><path fill="#608bd8" d="M524.93 279.65l-4.56-2.65-109.06 100.73 91.47 79.62c14.42 12.55 19.76 30.85 14.19 51.65l7.97-4.61c5.94-3.45 10.87-8.4 14.3-14.37 3.43-5.97 5.22-12.74 5.22-19.63V313.6c0-6.88-1.8-13.64-5.23-19.6-3.42-5.96-8.35-10.91-14.28-14.35zM365.54 420.72l-126.03-97.66C225.3 312 218.89 295.45 221.81 276l-6.3 3.65c-5.93 3.44-10.86 8.39-14.28 14.35-3.43 5.96-5.23 12.72-5.23 19.6v156.8c0 6.89 1.79 13.66 5.22 19.63 3.43 5.97 8.36 10.93 14.3 14.37l36.1 20.93 113.93-104.61z"/></g><path fill="#3b4c6a" d="M723.56 482.11c37.51 0 58.2-20.68 58.2-48.1 0-60.6-88.01-41.84-88.01-78.4 0-12.75 9.86-22.36 27.9-22.36s28.86 11.54 29.82 27.9h27.9c-1.44-29.82-23.33-53.15-57.71-53.15s-55.79 20.44-55.79 47.13c0 59.88 88.01 42.32 88.01 79.6 0 12.26-9.86 22.12-30.06 22.12s-32.22-12.02-33.91-29.34h-27.9c1.44 31.5 24.29 54.59 61.56 54.59zm127.56 0c6.49 0 11.3-1.2 14.43-2.4v-24.05c-2.4 1.2-5.29 1.68-8.42 1.68-10.82 0-18.04-6.25-18.04-19.72v-56.27h26.45v-23.81h-26.45v-31.26h-22.85v18.28c0 9.38-5.05 14.43-14.67 14.43h-8.66v22.36h19.96v58.44c0 26.69 16.11 42.32 38.24 42.32zM998 415.74c0-34.63-25.49-61.08-57.96-61.08s-60.12 28.14-60.12 63.73 26.69 63.73 60.36 63.73c26.69 0 46.65-19 53.39-36.55h-27.41c-4.33 6.25-12.5 12.75-26.21 12.75-17.31 0-30.3-11.06-33.67-29.58h90.18c.72-2.65 1.44-7.21 1.44-12.99zm-57.96-37.27c16.35 0 29.34 12.26 32.22 30.3h-65.89c3.37-18.52 17.07-30.3 33.67-30.3zm109.07 100.76V310.9h-26.45v168.33h26.45zm59.42 0V310.9h-26.45v168.33h26.45zm77.45-124.57c-29.34 0-45.93 19.48-48.1 39.92h26.45c1.44-7.94 8.18-16.11 21.4-16.11s22.6 8.9 22.6 23.57v4.09h-19.48c-33.43 0-56.51 15.39-56.51 39.68 0 19.96 17.07 36.31 40.88 36.31 19.48 0 30.78-10.34 35.59-16.59h1.2l4.81 13.71h19.72v-75.03c0-29.58-18.76-49.54-48.58-49.54zm-7.21 105.09c-13.23 0-19.96-6.73-19.96-16.11 0-11.06 9.62-18.52 30.3-18.52h19.24v7.7c0 14.43-11.54 26.93-29.58 26.93zm129.35 22.36c6.49 0 11.3-1.2 14.43-2.4v-24.05c-2.4 1.2-5.29 1.68-8.42 1.68-10.82 0-18.04-6.25-18.04-19.72v-56.27h26.45v-23.81h-26.45v-31.26h-22.85v18.28c0 9.38-5.05 14.43-14.67 14.43h-8.66v22.36h19.96v58.44c0 26.69 16.11 42.32 38.24 42.32zM1455 415.74c0-34.63-25.49-61.08-57.95-61.08s-60.12 28.14-60.12 63.73 26.69 63.73 60.36 63.73c26.69 0 46.65-19 53.39-36.55h-27.41c-4.33 6.25-12.5 12.75-26.21 12.75-17.31 0-30.3-11.06-33.67-29.58h90.18c.72-2.65 1.44-7.21 1.44-12.99zm-57.95-37.27c16.35 0 29.34 12.26 32.22 30.3h-65.89c3.37-18.52 17.07-30.3 33.67-30.3z"/></svg>