<svg viewBox="0 0 151 52" fill="none" xmlns="http://www.w3.org/2000/svg">
    <path fill-rule="evenodd" clip-rule="evenodd"
          d="M41.0356 39.0166L41.0667 38.9982C41.7638 38.5802 42.2726 37.9083 42.4908 37.1227C42.7078 36.3368 42.6162 35.4978 42.2347 34.7773L38.6007 27.8539L11.2378 42.3451L21.0257 48.0212C21.7065 48.4161 22.4795 48.6241 23.2665 48.6241C24.0535 48.6241 24.8266 48.4161 25.5073 48.0212L41.0356 39.0166ZM8.18383 31.5488L30.1383 6.88839L25.5085 4.20424C24.8277 3.80932 24.0547 3.60132 23.2677 3.60132C22.4806 3.60132 21.7076 3.80932 21.0269 4.20424L5.49853 13.2088C4.81654 13.6046 4.25085 14.1731 3.85841 14.857C3.46459 15.5419 3.25746 16.3181 3.25772 17.1081V20.4849C3.25772 22.5729 3.69647 24.638 4.54524 26.5446C5.39401 28.4512 6.63444 30.1556 8.18383 31.5476V31.5488Z"
          fill="white" fill-opacity="0.6"/>
    <path fill-rule="evenodd" clip-rule="evenodd"
          d="M41.0356 13.2088L40.5119 12.9044L27.9859 24.4737L38.4916 33.6184C40.1478 35.0598 40.7611 37.1617 40.1214 39.5506L41.0368 39.0212C41.719 38.6249 42.2853 38.0564 42.6792 37.3707C43.0727 36.6845 43.2794 35.9071 43.2787 35.1161V17.1081C43.2787 16.3179 43.072 15.5415 42.6781 14.8569C42.2856 14.173 41.7199 13.6045 41.0379 13.2088H41.0356ZM22.729 29.4113L8.25388 18.1946C6.6218 16.9243 5.88558 15.0235 6.22095 12.7896L5.49737 13.2088C4.81538 13.6045 4.24968 14.173 3.85725 14.8569C3.46343 15.5418 3.2563 16.3181 3.25656 17.1081V35.1173C3.25656 35.9086 3.46215 36.6862 3.8561 37.3718C4.24899 38.0568 4.8155 38.6261 5.49852 39.0223L9.64477 41.4262L22.7301 29.4113H22.729Z"
          fill="white"/>
    <path d="M63.8492 36.4621C68.1574 36.4621 70.5337 34.087 70.5337 30.9377C70.5337 23.9775 60.4254 26.1321 60.4254 21.9331C60.4254 20.4687 61.5578 19.3649 63.6298 19.3649C65.7018 19.3649 66.9445 20.6903 67.0548 22.5694H70.2592C70.0938 19.1444 67.5796 16.4648 63.6309 16.4648C59.6822 16.4648 57.2232 18.8125 57.2232 21.8779C57.2232 28.7554 67.3316 26.7386 67.3316 31.0203C67.3316 32.4285 66.1991 33.5609 63.879 33.5609C61.559 33.5609 60.1784 32.1804 59.9843 30.1911H56.7799C56.9453 33.809 59.5697 36.461 63.8503 36.461L63.8492 36.4621ZM78.5 36.4621C79.2454 36.4621 79.7979 36.3243 80.1573 36.1865V33.4243C79.8817 33.5621 79.5498 33.6172 79.1903 33.6172C77.9476 33.6172 77.1183 32.8994 77.1183 31.3523V24.8894H80.1562V22.1547H77.1183V18.5644H74.4939V20.6639C74.4939 21.7413 73.9139 22.3213 72.809 22.3213H71.8143V24.8894H74.1068V31.6015C74.1068 34.667 75.9571 36.4621 78.4988 36.4621H78.5ZM95.3698 28.8393C95.3698 24.8619 92.4422 21.824 88.7129 21.824C84.9835 21.824 81.8078 25.056 81.8078 29.1436C81.8078 33.2313 84.8733 36.4633 88.7404 36.4633C91.8059 36.4633 94.0984 34.2811 94.8725 32.2654H91.7243C91.227 32.9832 90.2887 33.7298 88.714 33.7298C86.7259 33.7298 85.2339 32.4595 84.8469 30.3324H95.2044C95.2871 30.028 95.3698 29.5043 95.3698 28.8404V28.8393ZM88.7129 24.5586C90.5907 24.5586 92.0827 25.9668 92.4135 28.0387H84.8457C85.2328 25.9116 86.8063 24.5586 88.7129 24.5586ZM101.24 36.1314V16.7979H98.2021V36.1314H101.24ZM108.065 36.1314V16.7979H105.027V36.1314H108.065ZM116.96 21.824C113.59 21.824 111.685 24.0613 111.436 26.4089H114.474C114.639 25.497 115.413 24.5586 116.931 24.5586C118.45 24.5586 119.527 25.5808 119.527 27.2658V27.7355H117.29C113.45 27.7355 110.799 29.5031 110.799 32.2929C110.799 34.5854 112.76 36.4633 115.495 36.4633C117.732 36.4633 119.03 35.2757 119.582 34.5579H119.72L120.273 36.1325H122.537V27.515C122.537 24.1176 120.383 21.8251 116.958 21.8251L116.96 21.824ZM116.132 33.894C114.613 33.894 113.84 33.121 113.84 32.0437C113.84 30.7734 114.944 29.9166 117.32 29.9166H119.529V30.801C119.529 32.4583 118.204 33.894 116.132 33.894ZM130.988 36.4621C131.734 36.4621 132.286 36.3243 132.646 36.1865V33.4243C132.37 33.5621 132.038 33.6172 131.679 33.6172C130.436 33.6172 129.607 32.8994 129.607 31.3523V24.8894H132.645V22.1547H129.607V18.5644H126.982V20.6639C126.982 21.7413 126.402 22.3213 125.297 22.3213H124.303V24.8894H126.595V31.6015C126.595 34.667 128.446 36.4621 130.987 36.4621H130.988ZM147.858 28.8393C147.858 24.8619 144.931 21.824 141.202 21.824C137.474 21.824 134.297 25.056 134.297 29.1436C134.297 33.2313 137.363 36.4633 141.23 36.4633C144.296 36.4633 146.588 34.2811 147.362 32.2654H144.214C143.717 32.9832 142.778 33.7298 141.204 33.7298C139.216 33.7298 137.724 32.4595 137.336 30.3324H147.694C147.777 30.028 147.859 29.5043 147.859 28.8404L147.858 28.8393ZM141.202 24.5586C143.08 24.5586 144.572 25.9668 144.903 28.0387H137.335C137.722 25.9116 139.296 24.5586 141.202 24.5586Z"
          fill="white"/>
</svg>
