<svg viewBox="0 0 572 190" fill="none" xmlns="http://www.w3.org/2000/svg">
  <path
    d="M150.21 172.713V169.869H146.677C143.643 169.869 142.276 170.805 142.276 172.48V173.181C142.276 174.888 143.61 175.86 145.676 175.86C148.31 175.86 150.21 174.487 150.21 172.713ZM153.343 177.734C151.377 177.734 150.577 176.529 150.377 174.922H150.21C149.476 177.031 147.643 178.135 145.243 178.135C141.609 178.135 139.476 176.127 139.476 172.914C139.476 169.668 141.809 167.86 146.809 167.86H150.21V166.154C150.21 163.71 148.877 162.371 146.143 162.371C144.076 162.371 142.709 163.376 141.776 164.949L140.176 163.443C141.109 161.601 143.176 160.062 146.276 160.062C150.41 160.062 152.877 162.238 152.877 165.886V175.391H154.843V177.734H153.343Z"
    fill="black" />
  <path
    d="M158.811 177.734V160.464H161.479V163.276H161.612C162.445 161.335 163.912 160.062 166.478 160.062C170.012 160.062 172.245 162.472 172.245 166.656V177.734H169.579V167.125C169.579 164.046 168.245 162.472 165.679 162.472C163.545 162.472 161.479 163.543 161.479 165.752V177.734H158.811Z"
    fill="black" />
  <path
    d="M183.781 177.73V175.39H187.048V156.714H183.781V154.372H193.115V156.714H189.848V175.39H193.115V177.733L183.781 177.73Z"
    fill="black" />
  <path
    d="M201.183 175.257H208.083C210.484 175.257 211.95 173.985 211.95 171.642V170.504C211.95 168.161 210.484 166.89 208.083 166.89H201.183V175.257ZM201.183 164.48H207.617C209.817 164.48 211.15 163.308 211.15 161.234V160.095C211.15 158.02 209.817 156.849 207.617 156.849H201.183V164.48ZM198.382 154.373H207.949C211.783 154.373 214.15 156.748 214.15 160.396C214.15 163.878 211.917 165.116 210.383 165.349V165.551C212.05 165.651 214.95 167.09 214.95 170.973C214.95 174.821 212.384 177.733 208.95 177.733H198.382V154.373Z"
    fill="black" />
  <path
    d="M220.318 154.372H224.052L230.718 166.955H230.886L237.586 154.372H241.186V177.733H238.453V158.053H238.285L236.319 161.968L230.752 172.143L225.185 161.968L223.218 158.053H223.051V177.733H220.318V154.372Z"
    fill="black" />
  <path
    d="M253.087 166.187C253.087 158.388 256.587 153.97 262.454 153.97C266.32 153.97 268.988 155.845 270.454 159.091L268.187 160.464C267.254 158.054 265.321 156.481 262.454 156.481C258.454 156.481 256.087 159.661 256.087 164.446V167.927C256.087 172.713 258.454 175.625 262.454 175.625C265.42 175.625 267.454 173.951 268.388 171.408L270.621 172.814C269.154 176.093 266.32 178.135 262.454 178.135C256.587 178.135 253.087 173.985 253.087 166.187Z"
    fill="black" />
  <path
    d="M286.256 170.338V167.861C286.256 164.213 284.223 162.439 281.357 162.439C278.49 162.439 276.457 164.213 276.457 167.861V170.338C276.457 173.985 278.49 175.76 281.357 175.76C284.223 175.76 286.256 173.985 286.256 170.338ZM273.59 169.099C273.59 163.61 276.756 160.062 281.357 160.062C285.957 160.062 289.124 163.61 289.124 169.099C289.124 174.588 285.957 178.136 281.357 178.136C276.756 178.136 273.59 174.588 273.59 169.099Z"
    fill="black" />
  <path
    d="M293.692 177.734V160.464H296.359V163.276H296.491C297.259 161.501 298.459 160.062 301.125 160.062C303.392 160.062 305.459 161.1 306.392 163.577H306.459C307.093 161.703 308.759 160.062 311.693 160.062C315.192 160.062 317.292 162.472 317.292 166.656V177.734H314.625V167.125C314.625 164.08 313.459 162.472 310.859 162.472C308.759 162.472 306.826 163.543 306.826 165.752V177.734H304.158V167.125C304.158 164.046 302.992 162.472 300.458 162.472C298.358 162.472 296.359 163.543 296.359 165.752V177.734H293.692Z"
    fill="black" />
  <path
    d="M334.928 170.57V167.625C334.928 164.547 333.061 162.471 330.061 162.471C327.628 162.471 325.628 163.877 325.628 165.784V172.211C325.628 174.453 327.628 175.725 330.061 175.725C333.061 175.725 334.928 173.65 334.928 170.57ZM322.961 160.463H325.628V163.274H325.76C326.661 161.099 328.427 160.061 330.794 160.061C335.095 160.061 337.795 163.575 337.795 169.098C337.795 174.62 335.095 178.135 330.794 178.135C328.427 178.135 326.794 177.064 325.76 174.921H325.628V184.427H322.961V160.463Z"
    fill="black" />
  <path
    d="M351.831 172.713V169.869H348.298C345.264 169.869 343.898 170.805 343.898 172.48V173.181C343.898 174.888 345.231 175.86 347.299 175.86C349.931 175.86 351.831 174.487 351.831 172.713ZM354.965 177.734C352.998 177.734 352.197 176.529 351.998 174.922H351.831C351.098 177.031 349.265 178.135 346.864 178.135C343.231 178.135 341.097 176.127 341.097 172.914C341.097 169.668 343.431 167.86 348.432 167.86H351.831V166.154C351.831 163.71 350.498 162.371 347.765 162.371C345.698 162.371 344.331 163.376 343.397 164.949L341.798 163.443C342.73 161.601 344.798 160.062 347.897 160.062C352.031 160.062 354.498 162.238 354.498 165.886V175.391H356.465V177.734H354.965Z"
    fill="black" />
  <path
    d="M360.433 177.734V160.464H363.1V163.276H363.233C364.066 161.335 365.533 160.062 368.1 160.062C371.634 160.062 373.867 162.472 373.867 166.656V177.734H371.201V167.125C371.201 164.046 369.867 162.472 367.3 162.472C365.167 162.472 363.1 163.543 363.1 165.752V177.734H360.433Z"
    fill="black" />
  <path
    d="M389.868 160.464H392.501L384.8 181.75C384.034 183.826 383.334 184.429 380.8 184.429H379.433V182.086H382.133L383.434 178.404L377 160.464H379.667L383.8 172.212L384.601 175.023H384.767L385.701 172.212L389.868 160.464Z"
    fill="black" />
  <path
    d="M141.939 89.538C149.036 93.8131 158.161 97.2333 165.257 97.2333C174.828 97.2333 180.018 92.0628 180.018 82.5757C180.018 61.8513 140.195 71.4603 140.195 39.3352C140.195 22.4385 150.212 12.6669 167.487 12.6669C176.937 12.6669 185.047 15.3134 192.265 19.6292L187.846 30.2964C181.641 26.7541 175.03 24.515 168.542 24.515C159.539 24.515 154.227 29.1161 154.227 39.0098C154.227 60.0188 194.05 51.7535 194.05 81.5166C194.05 97.3552 185.777 109.041 165.298 109.041C157.349 109.041 146.441 105.783 138.005 100.613L141.939 89.538Z"
    fill="#1A3560" />
  <path
    d="M141.939 89.538C149.036 93.8131 158.161 97.2333 165.257 97.2333C174.828 97.2333 180.018 92.0628 180.018 82.5757C180.018 61.8513 140.192 71.4603 140.192 39.3352C140.192 22.4385 150.212 12.6669 167.487 12.6669C176.937 12.6669 185.047 15.3134 192.265 19.6292L187.846 30.2964C181.641 26.7541 175.03 24.515 168.542 24.515C159.539 24.515 154.227 29.1161 154.227 39.0098C154.227 60.0188 194.05 51.7535 194.05 81.5166C194.05 97.3552 185.777 109.041 165.298 109.041C157.349 109.041 146.441 105.783 138.005 100.613L141.939 89.538Z"
    fill="#1A3560" />
  <path
    d="M210.07 47.8044L198.999 47.1935V38.0328H210.353L211.692 14.2134H222.763V38.0328H240.891L239.106 47.8044H222.722V83.3082C222.722 93.2435 225.52 97.6812 231.725 97.6812C235.254 97.6812 237.929 96.7856 241.295 95.0345L243.81 105.254C238.944 107.615 235.091 109.123 228.603 109.123C214.734 109.123 210.029 99.0654 210.029 85.3033V47.8044H210.07Z"
    fill="#1A3560" />
  <path
    d="M290.73 66.1671C290.122 54.1564 286.472 47.5193 278.645 47.5193C270.697 47.5193 265.506 54.0335 264.492 66.1671H290.73ZM278.361 36.5259C295.028 36.5259 303.301 50.2879 303.301 73.6996L302.571 75.328H264.371C264.979 89.701 270.25 97.6816 282.051 97.6816C287.648 97.6816 294.015 95.6051 298.719 92.6321L301.963 103.015C295.637 106.883 288.986 109.082 280.713 109.082C260.356 109.082 250.907 94.1384 250.907 72.9668C250.907 50.0034 261.532 36.5259 278.361 36.5259Z"
    fill="#1A3560" />
  <path
    d="M342.069 97.6812C350.464 97.6812 357.277 89.2531 357.277 72.6411C357.277 56.1918 351.518 47.9263 344.908 47.9263C337.243 47.9263 332.539 54.2779 330.025 62.5839V92.3471C333.066 95.9299 337.325 97.6812 342.069 97.6812ZM329.943 137.828L317.251 137.827V38.0328H327.998L328.89 48.6998C332.418 41.2902 338.784 36.567 347.746 36.567C361.17 36.567 370.618 50.0435 370.618 72.2337C370.618 95.0345 360.156 109.081 343.205 109.081C338.339 109.081 333.472 107.738 329.943 104.644V137.828Z"
    fill="#1A3560" />
  <path
    d="M380.838 103.626L419.038 26.0622H383.19L382.906 14.2141H436.598V18.8143L398.397 95.8084H437.612V107.657H380.838V103.626Z"
    fill="#1A3560" />
  <path
    d="M380.838 103.626L419.038 26.0622H383.19L382.906 14.2157L436.598 14.2141V18.8143L398.397 95.8084H437.612V107.657H380.838V103.626Z"
    fill="#1A3560" />
  <path
    d="M380.838 103.626L419.038 26.0622H383.19L382.906 14.2157L436.598 14.2141V18.8143L398.397 95.8086H437.612V107.658L380.838 107.657V103.626Z"
    fill="#1A3560" />
  <path
    d="M487.615 66.1671C487.007 54.1564 483.357 47.5193 475.531 47.5193C467.582 47.5193 462.391 54.0335 461.377 66.1671H487.615ZM475.206 36.5259C491.873 36.5259 500.146 50.2879 500.146 73.6996L499.416 75.328H461.215C461.824 89.701 467.095 97.6816 478.896 97.6816C484.493 97.6816 490.86 95.6051 495.564 92.6321L498.808 103.015C492.482 106.883 485.831 109.082 477.558 109.082C457.2 109.082 447.751 94.1384 447.751 72.9668C447.792 50.0034 458.417 36.5259 475.206 36.5259Z"
    fill="#1A3560" />
  <path
    d="M514.136 38.0326H524.883L525.775 48.9853C529.627 41.2902 536.846 36.567 544.957 36.567C558.664 36.567 565.03 46.6233 565.03 63.6429V107.616H552.337V65.7194C552.337 53.423 548.647 47.967 541.874 47.967C534.656 47.967 529.627 54.9293 526.829 62.6255V107.616H514.136V38.0326Z"
    fill="#1A3560" />
  <path
    d="M48.9109 46.9086C48.9109 45.443 49.1944 44.0179 49.7623 42.6744C50.2897 41.3714 51.1007 40.1903 52.0744 39.2135C53.0878 38.1952 54.2237 37.4217 55.5215 36.893C56.8598 36.3228 58.279 36.0373 59.739 36.0373H64.0779L74.0948 25.981H59.7793C56.9812 25.981 54.2237 26.5512 51.6686 27.6094C49.1944 28.6684 46.9643 30.1747 45.0175 32.0884C43.1122 34.0015 41.6111 36.2414 40.5572 38.7654C39.4618 41.3714 38.9353 44.0993 38.9353 46.9086V61.2816L48.9514 51.2244V46.9086H48.9109Z"
    fill="#00B1C9" />
  <path
    d="M116.837 4.36066V9.73548C116.837 10.509 116.635 11.323 116.188 11.9339C115.58 12.8295 115.053 13.359 114.445 13.9697C113.066 15.3541 111.688 16.6164 110.309 18.0008C109.011 19.3038 107.713 20.606 106.456 21.8683C105.239 23.0899 104.063 24.271 102.847 25.4926C102.117 26.2254 101.387 26.9582 100.657 27.691C65.4975 62.9916 57.7107 70.8087 57.6704 70.8494L21.4974 107.209H62.7805C66.998 107.209 71.0533 106.394 74.9054 104.766C76.7306 103.992 78.5144 103.015 80.1776 101.875C81.8399 100.775 83.3807 99.4724 84.8009 98.0473C86.2201 96.6224 87.4765 95.0754 88.6124 93.4063C89.7483 91.7366 90.7212 89.9456 91.4916 88.1131C93.1143 84.2446 93.925 80.1738 93.925 75.9385V48.7407L103.941 38.6844V75.9792C103.941 78.7896 103.658 81.5582 103.09 84.2852C102.562 86.932 101.752 89.538 100.698 92.0626C99.6833 94.5052 98.3855 96.8672 96.8852 99.0656C95.4255 101.264 93.7217 103.3 91.8568 105.173C89.9913 107.046 87.9634 108.756 85.7738 110.222C83.584 111.728 81.2314 112.99 78.7988 114.049C76.3246 115.108 73.729 115.922 71.0533 116.451C68.3361 117.021 65.538 117.306 62.7805 117.306H4.34323V111.931C4.34323 111.28 4.50517 110.629 4.78872 110.059C5.19471 109.286 5.84351 108.47 6.49251 107.861C10.5479 103.829 7.91172 106.476 8.60105 105.784C9.93939 104.44 8.60105 105.825 12.6161 101.875C13.8733 100.613 15.1298 99.3503 16.387 98.088C17.5634 96.9079 18.7396 95.7268 19.8747 94.5866C20.97 93.4877 22.0651 92.388 23.1191 91.3298L26.1198 88.3164C27.053 87.3801 27.9853 86.444 28.9179 85.5071L31.473 82.9426C31.473 82.9426 37.2726 77.1197 37.9214 76.468C38.5291 75.8573 39.0968 75.2871 39.7053 74.6771C40.2327 74.1476 40.76 73.618 41.2866 73.0885C41.7735 72.6006 42.2603 72.1118 42.7058 71.6637L44.0036 70.3606L45.1395 69.2211C45.4636 68.8951 45.7885 68.5697 46.1124 68.2434C46.3967 67.9588 46.6803 67.6732 46.9647 67.3885C47.2077 67.1446 47.4507 66.8997 47.6945 66.6557C47.897 66.4525 48.0997 66.2483 48.3436 66.0043C48.5055 65.8415 48.708 65.6383 48.8701 65.4748C49.0329 65.312 49.1545 65.1901 49.3164 65.0273C49.4378 64.9046 49.5595 64.7825 49.6819 64.6606C49.7628 64.5792 49.8844 64.4574 49.9652 64.376L50.1679 64.1718L50.3307 64.009L51.263 63.0729L99.7239 14.4585H58.4408C54.2233 14.4585 50.1679 15.2727 46.3159 16.9011C44.4907 17.6746 42.7058 18.6522 41.0436 19.7918C39.3812 20.8913 37.8395 22.1943 36.4203 23.6194C35.0009 25.0443 33.7437 26.5913 32.6088 28.2612C31.473 29.9303 30.5001 31.7221 29.7297 33.5538C28.107 37.4221 27.296 41.4937 27.296 45.7281V72.9259L17.2799 82.9831V45.7281C17.2799 42.9188 17.5634 40.1093 18.1314 37.4221C18.6588 34.7754 19.4695 32.1694 20.5235 29.6456C21.5377 27.2022 22.8355 24.841 24.336 22.6418C25.7957 20.4432 27.4985 18.4074 29.3642 16.535C31.2299 14.6618 33.2576 12.9514 35.4474 11.4858C37.6371 9.97926 39.9896 8.71695 42.4225 7.65877C44.8965 6.59975 47.4912 5.78576 50.1679 5.25626C52.8849 4.68605 55.683 4.40136 58.4408 4.40136H116.837V4.36066Z"
    fill="#00B1C9" />
  <path
    d="M72.2694 74.7582C72.2694 76.2238 71.9859 77.6489 71.4182 78.9924C70.8908 80.2954 70.0798 81.4766 69.1059 82.4534C68.0925 83.4717 66.9568 84.2452 65.659 84.7738C64.3207 85.344 62.9013 85.6296 61.4415 85.6296H57.1432L47.127 95.6859H61.4415C64.2396 95.6859 66.9974 95.1157 69.5524 94.0575C72.0264 92.9985 74.2568 91.4922 76.2034 89.5785C78.1088 87.6654 79.6099 85.4254 80.6639 82.9015C81.7592 80.2954 82.2866 77.5675 82.2866 74.7582V60.3853L72.2694 70.4424V74.7582Z"
    fill="#00B1C9" />
</svg>