<?xml version="1.0" encoding="UTF-8"?>
<svg viewBox="0 0 129 32" version="1.1" xmlns="http://www.w3.org/2000/svg" xmlns:xlink="http://www.w3.org/1999/xlink">
    <title>Logo / Purple / The-Graph-Logo</title>
    <defs>
        <circle id="path-1" cx="16" cy="16" r="16"></circle>
    </defs>
    <g id="The-Graph" stroke="none" stroke-width="1" fill="none" fill-rule="evenodd">
        <g id="The-Graph---Assets" transform="translate(-1041.000000, -617.000000)">
            <g id="Logo-/-Purple-/-The-Graph-Logo" transform="translate(1041.000000, 617.000000)">
                <path d="M46.03,22.5 L46.03,12.204 L49.468,12.204 L49.468,9.72 L40,9.72 L40,12.204 L43.402,12.204 L43.402,22.5 L46.03,22.5 Z M53.338,22.5 L53.338,18.108 C53.338,16.38 54.202,15.552 55.336,15.552 C56.362,15.552 56.92,16.344 56.92,17.64 L56.92,22.5 L59.386,22.5 L59.386,17.226 C59.386,14.886 58.09,13.302 55.912,13.302 C54.742,13.302 53.806,13.806 53.338,14.526 L53.338,9 L50.872,9 L50.872,22.5 L53.338,22.5 Z M65.794,22.698 C68.08,22.698 69.862,21.384 70.402,19.566 L67.828,19.566 C67.54,20.178 66.784,20.556 65.92,20.556 C64.39,20.556 63.598,19.638 63.49,18.576 L70.51,18.576 C70.636,15.192 68.458,13.302 65.812,13.302 C63.076,13.302 61.078,15.3 61.078,17.982 C61.078,20.718 63.04,22.698 65.794,22.698 Z M67.81,16.956 L63.58,16.956 C63.814,15.966 64.606,15.3 65.74,15.3 C66.586,15.3 67.504,15.75 67.81,16.956 Z M82.642,22.716 C86.44,22.716 89.518,20.106 88.942,14.85 L82.336,14.85 L82.336,17.298 L86.242,17.298 C85.954,19.062 84.712,20.196 82.642,20.196 C80.158,20.196 78.538,18.396 78.538,16.11 C78.538,13.824 80.158,12.024 82.606,12.024 C83.83,12.024 85.018,12.564 85.648,13.5 L88.636,13.5 C87.772,11.088 85.288,9.504 82.606,9.504 C78.736,9.504 75.91,12.402 75.91,16.11 C75.91,19.818 78.736,22.716 82.642,22.716 Z M93.244,22.5 L93.244,18.198 C93.244,16.722 94.018,15.804 95.188,15.804 C95.584,15.804 95.926,15.876 96.304,16.002 L96.304,13.5 C95.998,13.41 95.728,13.392 95.476,13.392 C94.468,13.392 93.55,14.058 93.244,14.94 L93.244,13.5 L90.778,13.5 L90.778,22.5 L93.244,22.5 Z M101.218,22.698 C102.46,22.698 103.414,22.068 103.81,21.492 L103.81,22.5 L106.276,22.5 L106.276,13.5 L103.81,13.5 L103.81,14.508 C103.414,13.932 102.46,13.302 101.218,13.302 C98.824,13.302 96.988,15.444 96.988,18 C96.988,20.556 98.824,22.698 101.218,22.698 Z M101.74,20.448 C100.39,20.448 99.472,19.404 99.472,18 C99.472,16.596 100.39,15.552 101.74,15.552 C103.09,15.552 104.008,16.596 104.008,18 C104.008,19.404 103.09,20.448 101.74,20.448 Z M111.136,26.262 L111.136,21.492 C111.55,22.068 112.504,22.698 113.746,22.698 C116.14,22.698 117.976,20.556 117.976,18 C117.976,15.444 116.14,13.302 113.746,13.302 C112.504,13.302 111.55,13.932 111.136,14.508 L111.136,13.5 L108.67,13.5 L108.67,26.262 L111.136,26.262 Z M113.206,20.448 C111.856,20.448 110.938,19.404 110.938,18 C110.938,16.596 111.856,15.552 113.206,15.552 C114.556,15.552 115.474,16.596 115.474,18 C115.474,19.404 114.556,20.448 113.206,20.448 Z M122.242,22.5 L122.242,18.108 C122.242,16.38 123.106,15.552 124.24,15.552 C125.266,15.552 125.824,16.344 125.824,17.64 L125.824,22.5 L128.29,22.5 L128.29,17.226 C128.29,14.886 126.994,13.302 124.816,13.302 C123.646,13.302 122.71,13.806 122.242,14.526 L122.242,9 L119.776,9 L119.776,22.5 L122.242,22.5 Z" id="TheGraph" fill="#0C0A1D" fill-rule="nonzero"></path>
                <g id="Group">
                    <mask id="mask-2" fill="white">
                        <use xlink:href="#path-1"></use>
                    </mask>
                    <g id="Clipping-mask">
                        <use fill="#6F4CFF" xlink:href="#path-1"></use>
                        <use fill-opacity="0.08" fill="#0C0A1D" xlink:href="#path-1"></use>
                    </g>
                    <g id="Logos-/-The-Graph" mask="url(#mask-2)" fill="#FFFFFF">
                        <g transform="translate(9.166667, 6.000000)" id="g">
                            <path d="M12.7010417,14.5214743 C13.0906064,14.9093063 13.1184325,15.5207943 12.7845198,15.9405772 L12.7010417,16.0338581 L8.40403646,20.3117511 C7.98450521,20.7294163 7.30442708,20.7294163 6.88489583,20.3117511 C6.4953311,19.923919 6.46750505,19.312431 6.80141768,18.8926481 L6.88489583,18.7993673 L11.181901,14.5214743 C11.6014323,14.103809 12.2815104,14.103809 12.7010417,14.5214743 Z M6.5703125,1.375 C10.1299479,1.375 13.015625,4.24784218 13.015625,7.79164506 C13.015625,11.3354479 10.1299479,14.2082901 6.5703125,14.2082901 C3.01067708,14.2082901 0.125,11.3354479 0.125,7.79164506 C0.125,4.24784218 3.01067708,1.375 6.5703125,1.375 Z M6.5703125,3.51388169 C4.19726563,3.51388169 2.2734375,5.42902339 2.2734375,7.79164506 C2.2734375,10.1542667 4.19726563,12.0694084 6.5703125,12.0694084 C8.94348958,12.0694084 10.8671875,10.1542667 10.8671875,7.79164506 C10.8671875,5.42902339 8.94348958,3.51388169 6.5703125,3.51388169 Z M14.089974,1.375 C14.6832031,1.375 15.1640625,1.85372061 15.1640625,2.44444084 C15.1640625,3.03516108 14.6832031,3.51388169 14.089974,3.51388169 C13.4966146,3.51388169 13.0157552,3.03516108 13.0157552,2.44444084 C13.0157552,1.85372061 13.4966146,1.375 14.089974,1.375 Z"></path>
                        </g>
                    </g>
                </g>
            </g>
        </g>
    </g>
</svg>