<?xml version="1.0" encoding="UTF-8"?>
<svg version="1.1" viewBox="0 0 1500 350">
<g><path style="opacity:0.975" fill="#d10098" d="M 183.5,5.5 C 191.281,17.5542 198.948,29.7209 206.5,42C 205.944,42.3826 205.611,42.8826 205.5,43.5C 195.102,40.3474 184.435,38.6808 173.5,38.5C 174.062,36.5039 173.562,34.5039 172,32.5C 166.292,23.0494 160.125,14.0494 153.5,5.5C 163.508,4.23258 173.508,4.23258 183.5,5.5 Z"/></g>
<g><path style="opacity:0.983" fill="#ca009d" d="M 153.5,5.5 C 160.125,14.0494 166.292,23.0494 172,32.5C 173.562,34.5039 174.062,36.5039 173.5,38.5C 163.104,38.3182 152.771,38.9849 142.5,40.5C 136.887,31.2013 131.221,21.868 125.5,12.5C 125.863,11.8165 126.196,11.1499 126.5,10.5C 135.303,7.93988 144.303,6.27321 153.5,5.5 Z"/></g>
<g><path style="opacity:0.974" fill="#d80093" d="M 183.5,5.5 C 194.787,6.10286 205.787,8.10286 216.5,11.5C 234.833,40.8333 253.167,70.1667 271.5,99.5C 259.599,97.4342 251.432,90.7675 247,79.5C 245.105,73.66 244.105,67.66 244,61.5C 232.387,52.9439 219.553,46.9439 205.5,43.5C 205.611,42.8826 205.944,42.3826 206.5,42C 198.948,29.7209 191.281,17.5542 183.5,5.5 Z"/></g>
<g><path style="opacity:0.984" fill="#c500a2" d="M 126.5,10.5 C 126.196,11.1499 125.863,11.8165 125.5,12.5C 131.221,21.868 136.887,31.2013 142.5,40.5C 134.977,43.0052 127.311,45.3385 119.5,47.5C 113.004,38.5145 107.004,29.1812 101.5,19.5C 109.389,15.5347 117.722,12.5347 126.5,10.5 Z"/></g>
<g><path style="opacity:0.983" fill="#db0091" d="M 216.5,11.5 C 234.091,16.8799 250.591,24.5465 266,34.5C 286.645,28.6586 301.645,35.3253 311,54.5C 316.187,73.9478 310.02,88.4478 292.5,98C 285.491,100.501 278.491,101.001 271.5,99.5C 253.167,70.1667 234.833,40.8333 216.5,11.5 Z"/></g>
<g><path style="opacity:0.978" fill="#be00a6" d="M 101.5,19.5 C 107.004,29.1812 113.004,38.5145 119.5,47.5C 112.872,50.8139 106.205,54.1473 99.5,57.5C 93.3992,48.8191 87.3992,39.9857 81.5,31C 82.056,30.6174 82.3893,30.1174 82.5,29.5C 88.3515,25.4059 94.6848,22.0726 101.5,19.5 Z"/></g>
<g><path style="opacity:0.96" fill="#b901aa" d="M 82.5,29.5 C 82.3893,30.1174 82.056,30.6174 81.5,31C 87.3992,39.9857 93.3992,48.8191 99.5,57.5C 94.3118,61.3591 89.1452,65.3591 84,69.5C 77.8508,59.0167 69.0175,51.8501 57.5,48C 65.1662,40.82 73.4995,34.6534 82.5,29.5 Z"/></g>
<g><path style="opacity:0.965" fill="#b001b1" d="M 120.5,192.5 C 118.926,192.063 117.759,191.063 117,189.5C 89.7253,145.933 62.2253,102.6 34.5,59.5C 60.1948,55.3798 74.8614,66.3798 78.5,92.5C 77.674,99.1122 76.174,105.446 74,111.5C 89.7553,138.405 105.255,165.405 120.5,192.5 Z"/></g>
<g><path style="opacity:0.996" fill="#ac01b3" d="M 34.5,59.5 C 62.2253,102.6 89.7253,145.933 117,189.5C 117.759,191.063 118.926,192.063 120.5,192.5C 123.669,196.833 126.336,201.5 128.5,206.5C 134.347,216.874 140.681,226.874 147.5,236.5C 144.67,242.83 141.337,248.83 137.5,254.5C 98.7503,191.998 59.7503,129.665 20.5,67.5C 24.2239,63.3012 28.8906,60.6346 34.5,59.5 Z"/></g>
<g><path style="opacity:0.996" fill="#a901b6" d="M 20.5,67.5 C 59.7503,129.665 98.7503,191.998 137.5,254.5C 136.737,256.368 135.737,258.035 134.5,259.5C 132.537,259.422 131.037,258.089 130,255.5C 93,196.833 56,138.167 19,79.5C 18.1237,77.3645 16.6237,76.0312 14.5,75.5C 15.3528,71.9796 17.3528,69.3129 20.5,67.5 Z"/></g>
<g><path style="opacity:0.981" fill="#9f02bd" d="M 39.5,200.5 C 38.5041,200.586 37.6708,200.252 37,199.5C 26.1422,182.435 15.3089,165.435 4.5,148.5C 4.80316,139.625 6.80316,131.292 10.5,123.5C 18.4527,131.643 28.1194,136.309 39.5,137.5C 37.6509,148.943 36.3176,160.443 35.5,172C 35.9745,181.655 37.3078,191.155 39.5,200.5 Z"/></g>
<g><path style="opacity:0.932" fill="#a702b7" d="M 14.5,75.5 C 16.6237,76.0312 18.1237,77.3645 19,79.5C 56,138.167 93,196.833 130,255.5C 131.037,258.089 132.537,259.422 134.5,259.5C 133.252,262.996 131.252,265.996 128.5,268.5C 101.134,221.629 73.967,174.629 47,127.5C 19.7146,124.561 7.71458,109.561 11,82.5C 11.6701,79.8261 12.8368,77.4927 14.5,75.5 Z"/></g>
<g><path style="opacity:0.975" fill="#bd01a7" d="M 213.5,197.5 C 219.309,206.435 225.143,215.435 231,224.5C 231.483,225.448 231.649,226.448 231.5,227.5C 227.512,234.806 223.512,242.14 219.5,249.5C 218.504,249.586 217.671,249.252 217,248.5C 197.725,217.6 178.225,186.933 158.5,156.5C 161.069,150.359 164.402,144.693 168.5,139.5C 181.419,161.002 194.086,182.669 206.5,204.5C 207.002,205.521 207.668,205.688 208.5,205C 209.818,202.176 211.485,199.676 213.5,197.5 Z"/></g>
<g><path style="opacity:0.983" fill="#9c02c0" d="M 4.5,148.5 C 15.3089,165.435 26.1422,182.435 37,199.5C 37.6708,200.252 38.5041,200.586 39.5,200.5C 43.8603,221.885 53.027,240.885 67,257.5C 74.0618,264.73 81.2285,271.73 88.5,278.5C 88.0618,278.435 87.7284,278.601 87.5,279C 98.3858,296.612 109.386,314.112 120.5,331.5C 72.0645,315.904 37.2312,284.904 16,238.5C 3.64382,209.44 -0.18951,179.44 4.5,148.5 Z"/></g>
<g><path style="opacity:0.968" fill="#db0091" d="M 990.5,197.5 C 982.684,196.508 974.684,196.174 966.5,196.5C 971.804,174.03 985.804,160.53 1008.5,156C 1021.38,154.648 1034.05,155.648 1046.5,159C 1060.28,164.903 1067.95,175.069 1069.5,189.5C 1061.94,191.93 1054.27,192.93 1046.5,192.5C 1039.24,177.791 1027.58,172.624 1011.5,177C 1001.32,180.685 994.316,187.519 990.5,197.5 Z"/></g>
<g><path style="opacity:0.978" fill="#b801aa" d="M 158.5,156.5 C 178.225,186.933 197.725,217.6 217,248.5C 217.671,249.252 218.504,249.586 219.5,249.5C 215.747,256.01 211.747,262.344 207.5,268.5C 194.581,246.998 181.914,225.331 169.5,203.5C 168.998,202.479 168.332,202.312 167.5,203C 166.361,204.78 165.361,206.614 164.5,208.5C 162.926,208.063 161.759,207.063 161,205.5C 155.637,196.66 150.137,187.993 144.5,179.5C 148.93,171.631 153.597,163.964 158.5,156.5 Z"/></g>
<g><path style="opacity:0.982" fill="#ca009d" d="M 245.5,156.5 C 247.369,157.165 249.369,157.831 251.5,158.5C 257.772,168.055 263.772,177.722 269.5,187.5C 264.456,187.173 259.456,187.506 254.5,188.5C 252.059,193.065 249.392,197.398 246.5,201.5C 244.926,201.063 243.759,200.063 243,198.5C 237.973,189.759 232.473,181.425 226.5,173.5C 229.608,167.886 232.941,162.386 236.5,157C 239.482,156.502 242.482,156.335 245.5,156.5 Z"/></g>
<g><path style="opacity:0.976" fill="#d10098" d="M 245.5,156.5 C 256.833,156.5 268.167,156.5 279.5,156.5C 284.989,165.472 290.489,174.472 296,183.5C 297.77,185.597 299.937,186.931 302.5,187.5C 291.5,187.5 280.5,187.5 269.5,187.5C 263.772,177.722 257.772,168.055 251.5,158.5C 249.369,157.831 247.369,157.165 245.5,156.5 Z"/></g>
<g><path style="opacity:0.99" fill="#d70094" d="M 279.5,156.5 C 289.167,156.5 298.833,156.5 308.5,156.5C 316.931,170.372 325.597,184.039 334.5,197.5C 333.192,209.077 330.192,220.077 325.5,230.5C 319.273,219.722 312.773,209.056 306,198.5C 305.124,196.365 303.624,195.031 301.5,194.5C 301.298,192.05 301.631,189.717 302.5,187.5C 299.937,186.931 297.77,185.597 296,183.5C 290.489,174.472 284.989,165.472 279.5,156.5 Z"/></g>
<g><path style="opacity:0.964" fill="#db0091" d="M 308.5,156.5 C 317.751,156.182 326.917,156.515 336,157.5C 336.878,170.913 336.378,184.246 334.5,197.5C 325.597,184.039 316.931,170.372 308.5,156.5 Z"/></g>
<g><path style="opacity:0.99" fill="#db0091" d="M 1365.5,197.5 C 1365.44,198.043 1365.11,198.376 1364.5,198.5C 1360.86,197.242 1357.02,196.575 1353,196.5C 1348.91,196.576 1345.08,197.243 1341.5,198.5C 1341.5,184.5 1341.5,170.5 1341.5,156.5C 1349.17,156.5 1356.83,156.5 1364.5,156.5C 1364.17,170.344 1364.5,184.01 1365.5,197.5 Z"/></g>
<g><path style="opacity:0.968" fill="#db0092" d="M 397.5,196.5 C 389.747,196.201 382.08,196.534 374.5,197.5C 370.723,184.056 367.39,170.389 364.5,156.5C 372.833,156.5 381.167,156.5 389.5,156.5C 392.039,169.86 394.705,183.194 397.5,196.5 Z"/></g>
<g><path style="opacity:0.98" fill="#dc0091" d="M 461.5,184.5 C 447.5,184.5 433.5,184.5 419.5,184.5C 421.362,175.385 423.696,166.385 426.5,157.5C 436.06,156.183 445.56,156.183 455,157.5C 457.328,166.477 459.494,175.477 461.5,184.5 Z"/></g>
<g><path style="opacity:0.971" fill="#db0092" d="M 506.5,196.5 C 498.5,196.5 490.5,196.5 482.5,196.5C 485.809,183.263 488.809,169.929 491.5,156.5C 499.5,156.5 507.5,156.5 515.5,156.5C 512.816,169.903 509.816,183.236 506.5,196.5 Z"/></g>
<g><path style="opacity:0.996" fill="#da0091" d="M 796.5,196.5 C 796.167,196.5 795.833,196.5 795.5,196.5C 788.167,196.5 780.833,196.5 773.5,196.5C 773.5,183.167 773.5,169.833 773.5,156.5C 781.167,156.5 788.833,156.5 796.5,156.5C 796.5,169.833 796.5,183.167 796.5,196.5 Z"/></g>
<g><path style="opacity:0.973" fill="#c500a2" d="M 226.5,173.5 C 232.473,181.425 237.973,189.759 243,198.5C 243.759,200.063 244.926,201.063 246.5,201.5C 242.002,210.501 237.002,219.168 231.5,227.5C 231.649,226.448 231.483,225.448 231,224.5C 225.143,215.435 219.309,206.435 213.5,197.5C 217.312,189.208 221.646,181.208 226.5,173.5 Z"/></g>
<g><path style="opacity:0.977" fill="#d70094" d="M 419.5,184.5 C 433.5,184.5 447.5,184.5 461.5,184.5C 462.808,188.4 463.808,192.4 464.5,196.5C 457.167,196.5 449.833,196.5 442.5,196.5C 441.824,194.141 440.991,191.808 440,189.5C 439.302,192.004 438.469,194.337 437.5,196.5C 430.5,196.5 423.5,196.5 416.5,196.5C 416.898,192.239 417.898,188.239 419.5,184.5 Z"/></g>
<g><path style="opacity:0.972" fill="#b201b0" d="M 144.5,179.5 C 150.137,187.993 155.637,196.66 161,205.5C 161.759,207.063 162.926,208.063 164.5,208.5C 158.819,217.869 153.152,227.203 147.5,236.5C 140.681,226.874 134.347,216.874 128.5,206.5C 134.07,197.701 139.404,188.701 144.5,179.5 Z"/></g>
<g><path style="opacity:0.907" fill="#d60094" d="M 875.5,196.5 C 858.167,196.5 840.833,196.5 823.5,196.5C 830.606,189.459 839.273,186.126 849.5,186.5C 859.589,186.523 868.255,189.857 875.5,196.5 Z"/></g>
<g><path style="opacity:0.916" fill="#d70094" d="M 1217.5,196.5 C 1197.83,196.5 1178.17,196.5 1158.5,196.5C 1161.44,193.023 1165.11,190.523 1169.5,189C 1182.94,185.458 1196.28,185.791 1209.5,190C 1212.94,191.274 1215.6,193.441 1217.5,196.5 Z"/></g>
<g><path style="opacity:0.975" fill="#d60095" d="M 1411.5,196.5 C 1396.5,196.5 1381.5,196.5 1366.5,196.5C 1372.39,189.81 1379.89,186.477 1389,186.5C 1394.41,186.648 1399.57,187.815 1404.5,190C 1407.33,191.666 1409.66,193.832 1411.5,196.5 Z"/></g>
<g><path style="opacity:0.981" fill="#d10098" d="M 301.5,194.5 C 303.624,195.031 305.124,196.365 306,198.5C 312.773,209.056 319.273,219.722 325.5,230.5C 322.816,239.532 318.816,247.865 313.5,255.5C 306.004,245.003 299.337,234.003 293.5,222.5C 296.498,213.159 299.165,203.826 301.5,194.5 Z"/></g>
<g><path style="opacity:0.981" fill="#d20097" d="M 773.5,196.5 C 780.833,196.5 788.167,196.5 795.5,196.5C 795.5,200.833 795.5,205.167 795.5,209.5C 786.167,209.5 776.833,209.5 767.5,209.5C 758.889,202.617 750.556,202.951 742.5,210.5C 734.35,209.507 726.017,209.174 717.5,209.5C 724.104,192.854 736.437,185.354 754.5,187C 761.941,188.303 768.108,191.803 773,197.5C 773.399,197.272 773.565,196.938 773.5,196.5 Z"/></g>
<g><path style="opacity:0.973" fill="#d30097" d="M 1120.5,209.5 C 1110.83,209.5 1101.17,209.5 1091.5,209.5C 1091.5,202.5 1091.5,195.5 1091.5,188.5C 1098.5,188.5 1105.5,188.5 1112.5,188.5C 1112.33,191.85 1112.5,195.183 1113,198.5C 1121.83,185.412 1133,183.079 1146.5,191.5C 1144.17,197.5 1141.83,203.5 1139.5,209.5C 1139,209.833 1138.5,210.167 1138,210.5C 1132.32,206.975 1126.48,206.642 1120.5,209.5 Z"/></g>
<g><path style="opacity:0.961" fill="#d10098" d="M 397.5,196.5 C 398.878,200.721 399.878,205.054 400.5,209.5C 392.5,209.5 384.5,209.5 376.5,209.5C 375.833,205.5 375.167,201.5 374.5,197.5C 382.08,196.534 389.747,196.201 397.5,196.5 Z"/></g>
<g><path style="opacity:0.965" fill="#d10099" d="M 416.5,196.5 C 423.5,196.5 430.5,196.5 437.5,196.5C 436.967,200.965 435.967,205.298 434.5,209.5C 427.167,209.5 419.833,209.5 412.5,209.5C 413.388,204.927 414.721,200.594 416.5,196.5 Z"/></g>
<g><path style="opacity:0.964" fill="#d10099" d="M 442.5,196.5 C 449.833,196.5 457.167,196.5 464.5,196.5C 465.967,200.702 466.967,205.035 467.5,209.5C 460.167,209.5 452.833,209.5 445.5,209.5C 444.344,205.207 443.344,200.874 442.5,196.5 Z"/></g>
<g><path style="opacity:0.969" fill="#d10098" d="M 482.5,196.5 C 490.5,196.5 498.5,196.5 506.5,196.5C 505.456,201.356 504.123,206.022 502.5,210.5C 495.352,209.508 488.019,209.175 480.5,209.5C 481.007,205.14 481.673,200.807 482.5,196.5 Z"/></g>
<g><path style="opacity:0.997" fill="#d20097" d="M 546.5,189.5 C 545.509,195.979 545.176,202.646 545.5,209.5C 538.167,209.5 530.833,209.5 523.5,209.5C 523.5,202.5 523.5,195.5 523.5,188.5C 531.352,188.175 539.018,188.508 546.5,189.5 Z"/></g>
<g><path style="opacity:0.964" fill="#d20097" d="M 599.5,209.5 C 591.559,210.081 583.892,209.414 576.5,207.5C 576.5,201.167 576.5,194.833 576.5,188.5C 584.167,188.5 591.833,188.5 599.5,188.5C 599.5,195.5 599.5,202.5 599.5,209.5 Z"/></g>
<g><path style="opacity:0.979" fill="#d30097" d="M 696.5,207.5 C 688.903,209.467 680.903,210.134 672.5,209.5C 664.865,202.91 657.198,202.91 649.5,209.5C 640.167,209.5 630.833,209.5 621.5,209.5C 621.5,202.5 621.5,195.5 621.5,188.5C 628.5,188.5 635.5,188.5 642.5,188.5C 642.335,191.85 642.502,195.183 643,198.5C 654.17,187.198 667.337,184.031 682.5,189C 690.922,192.352 695.589,198.518 696.5,207.5 Z"/></g>
<g><path style="opacity:0.977" fill="#d10098" d="M 823.5,196.5 C 840.833,196.5 858.167,196.5 875.5,196.5C 879.387,199.272 882.054,202.939 883.5,207.5C 880.402,208.821 876.902,209.488 873,209.5C 868.784,209.435 864.617,209.102 860.5,208.5C 852.897,202.937 845.564,203.271 838.5,209.5C 830.5,209.5 822.5,209.5 814.5,209.5C 816.27,204.287 819.27,199.953 823.5,196.5 Z"/></g>
<g><path style="opacity:0.959" fill="#d30097" d="M 933.5,210.5 C 929.012,209.834 924.346,209.501 919.5,209.5C 914.252,209.555 909.252,210.222 904.5,211.5C 904.5,203.833 904.5,196.167 904.5,188.5C 911.833,188.5 919.167,188.5 926.5,188.5C 926.335,191.518 926.502,194.518 927,197.5C 935.888,185.306 946.721,183.306 959.5,191.5C 957.456,197.8 955.123,203.967 952.5,210C 949.006,208.902 945.339,208.069 941.5,207.5C 938.376,207.4 935.71,208.4 933.5,210.5 Z"/></g>
<g><path style="opacity:0.971" fill="#d10098" d="M 966.5,196.5 C 974.684,196.174 982.684,196.508 990.5,197.5C 990.149,201.684 989.482,205.684 988.5,209.5C 980.414,209.801 972.414,209.467 964.5,208.5C 964.539,204.267 965.205,200.267 966.5,196.5 Z"/></g>
<g><path style="opacity:0.972" fill="#d10099" d="M 1158.5,196.5 C 1178.17,196.5 1197.83,196.5 1217.5,196.5C 1220.83,200.085 1222.49,204.419 1222.5,209.5C 1214.83,209.5 1207.17,209.5 1199.5,209.5C 1196.31,205.815 1192.14,204.149 1187,204.5C 1179.8,203.843 1174.97,206.843 1172.5,213.5C 1171.5,213.833 1170.5,214.167 1169.5,214.5C 1163.53,213.282 1157.53,212.282 1151.5,211.5C 1151.98,205.552 1154.31,200.552 1158.5,196.5 Z"/></g>
<g><path style="opacity:0.979" fill="#d30097" d="M 1320.5,208.5 C 1312.35,209.493 1304.02,209.826 1295.5,209.5C 1291.99,206.748 1287.99,205.081 1283.5,204.5C 1279.09,205.407 1275.09,207.073 1271.5,209.5C 1262.17,209.5 1252.83,209.5 1243.5,209.5C 1243.81,205.958 1243.48,202.625 1242.5,199.5C 1242.5,195.833 1242.5,192.167 1242.5,188.5C 1249.83,188.5 1257.17,188.5 1264.5,188.5C 1264.33,191.85 1264.5,195.183 1265,198.5C 1278.34,184.782 1293.17,182.949 1309.5,193C 1315.01,196.984 1318.67,202.15 1320.5,208.5 Z"/></g>
<g><path style="opacity:0.981" fill="#d10098" d="M 1365.5,197.5 C 1365.5,196.833 1365.83,196.5 1366.5,196.5C 1381.5,196.5 1396.5,196.5 1411.5,196.5C 1414.91,200.065 1416.58,204.398 1416.5,209.5C 1408.65,209.175 1400.98,209.508 1393.5,210.5C 1385.59,202.848 1377.26,202.515 1368.5,209.5C 1359.23,210.095 1350.23,209.428 1341.5,207.5C 1341.5,204.5 1341.5,201.5 1341.5,198.5C 1345.08,197.243 1348.91,196.576 1353,196.5C 1357.02,196.575 1360.86,197.242 1364.5,198.5C 1365.11,198.376 1365.44,198.043 1365.5,197.5 Z"/></g>
<g><path style="opacity:0.909" fill="#cb009d" d="M 1242.5,199.5 C 1243.48,202.625 1243.81,205.958 1243.5,209.5C 1252.83,209.5 1262.17,209.5 1271.5,209.5C 1268.52,213.793 1266.52,218.459 1265.5,223.5C 1257.56,224.081 1249.89,223.414 1242.5,221.5C 1242.5,214.167 1242.5,206.833 1242.5,199.5 Z"/></g>
<g><path style="opacity:0.956" fill="#ca009d" d="M 576.5,207.5 C 583.892,209.414 591.559,210.081 599.5,209.5C 599.5,213.5 599.5,217.5 599.5,221.5C 595.925,222.757 592.092,223.424 588,223.5C 583.908,223.424 580.075,222.757 576.5,221.5C 576.5,216.833 576.5,212.167 576.5,207.5 Z"/></g>
<g><path style="opacity:0.967" fill="#cb009d" d="M 376.5,209.5 C 384.5,209.5 392.5,209.5 400.5,209.5C 401.751,214.085 402.751,218.752 403.5,223.5C 395.747,223.201 388.08,223.534 380.5,224.5C 379.319,219.44 377.985,214.44 376.5,209.5 Z"/></g>
<g><path style="opacity:0.968" fill="#ca009d" d="M 412.5,209.5 C 419.833,209.5 427.167,209.5 434.5,209.5C 433.456,214.356 432.123,219.022 430.5,223.5C 423.313,223.825 416.313,223.491 409.5,222.5C 410.029,218.051 411.029,213.718 412.5,209.5 Z"/></g>
<g><path style="opacity:0.858" fill="#ca009d" d="M 883.5,207.5 C 886.148,212.787 887.815,218.453 888.5,224.5C 870.402,223.846 852.402,223.179 834.5,222.5C 844.833,222.5 855.167,222.5 865.5,222.5C 865.802,217.07 864.136,212.403 860.5,208.5C 864.617,209.102 868.784,209.435 873,209.5C 876.902,209.488 880.402,208.821 883.5,207.5 Z"/></g>
<g><path style="opacity:0.971" fill="#cb009e" d="M 445.5,209.5 C 452.833,209.5 460.167,209.5 467.5,209.5C 468.972,213.704 470.305,218.037 471.5,222.5C 464.254,223.464 456.92,223.797 449.5,223.5C 448.163,218.817 446.83,214.15 445.5,209.5 Z"/></g>
<g><path style="opacity:0.967" fill="#ca009d" d="M 480.5,209.5 C 488.019,209.175 495.352,209.508 502.5,210.5C 501.967,214.965 500.967,219.298 499.5,223.5C 492.167,223.5 484.833,223.5 477.5,223.5C 477.898,218.588 478.898,213.921 480.5,209.5 Z"/></g>
<g><path style="opacity:0.997" fill="#ca009d" d="M 546.5,189.5 C 546.5,202.167 546.5,214.833 546.5,227.5C 545.566,226.432 545.232,225.099 545.5,223.5C 538.167,223.5 530.833,223.5 523.5,223.5C 523.5,218.833 523.5,214.167 523.5,209.5C 530.833,209.5 538.167,209.5 545.5,209.5C 545.176,202.646 545.509,195.979 546.5,189.5 Z"/></g>
<g><path style="opacity:0.982" fill="#ca009d" d="M 621.5,209.5 C 630.833,209.5 640.167,209.5 649.5,209.5C 646.265,213.535 644.598,218.201 644.5,223.5C 636.833,223.5 629.167,223.5 621.5,223.5C 621.5,218.833 621.5,214.167 621.5,209.5 Z"/></g>
<g><path style="opacity:0.972" fill="#ca009d" d="M 696.5,207.5 C 697.488,212.64 697.821,217.974 697.5,223.5C 689.559,224.081 681.892,223.414 674.5,221.5C 674.47,217.382 673.803,213.382 672.5,209.5C 680.903,210.134 688.903,209.467 696.5,207.5 Z"/></g>
<g><path style="opacity:0.969" fill="#cb009e" d="M 717.5,209.5 C 726.017,209.174 734.35,209.507 742.5,210.5C 739.86,214.414 738.193,218.747 737.5,223.5C 729.833,223.5 722.167,223.5 714.5,223.5C 714.581,218.523 715.581,213.857 717.5,209.5 Z"/></g>
<g><path style="opacity:0.985" fill="#cb009e" d="M 795.5,196.5 C 795.833,196.5 796.167,196.5 796.5,196.5C 796.5,206.833 796.5,217.167 796.5,227.5C 796.167,227.5 795.833,227.5 795.5,227.5C 795.5,226.167 795.5,224.833 795.5,223.5C 787.747,223.799 780.08,223.466 772.5,222.5C 771.807,217.748 770.14,213.414 767.5,209.5C 776.833,209.5 786.167,209.5 795.5,209.5C 795.5,205.167 795.5,200.833 795.5,196.5 Z"/></g>
<g><path style="opacity:0.966" fill="#ca009d" d="M 814.5,209.5 C 822.5,209.5 830.5,209.5 838.5,209.5C 835.78,212.993 834.447,216.993 834.5,221.5C 826.69,223.153 818.69,224.153 810.5,224.5C 810.835,219.126 812.168,214.126 814.5,209.5 Z"/></g>
<g><path style="opacity:0.968" fill="#ca009d" d="M 933.5,210.5 C 930.656,214.695 928.989,219.362 928.5,224.5C 920.309,222.856 912.309,223.189 904.5,225.5C 904.5,220.833 904.5,216.167 904.5,211.5C 909.252,210.222 914.252,209.555 919.5,209.5C 924.346,209.501 929.012,209.834 933.5,210.5 Z"/></g>
<g><path style="opacity:0.979" fill="#ca009d" d="M 964.5,208.5 C 972.414,209.467 980.414,209.801 988.5,209.5C 988.916,214.493 989.249,219.493 989.5,224.5C 981.167,223.833 972.833,223.167 964.5,222.5C 964.5,217.833 964.5,213.167 964.5,208.5 Z"/></g>
<g><path style="opacity:0.98" fill="#ca009d" d="M 1072.5,221.5 C 1055.74,223.464 1038.74,224.13 1021.5,223.5C 1021.5,219.167 1021.5,214.833 1021.5,210.5C 1038.5,210.5 1055.5,210.5 1072.5,210.5C 1072.5,214.167 1072.5,217.833 1072.5,221.5 Z"/></g>
<g><path style="opacity:0.98" fill="#ca009d" d="M 1091.5,209.5 C 1101.17,209.5 1110.83,209.5 1120.5,209.5C 1117.23,214.322 1115.56,219.656 1115.5,225.5C 1107.5,224.167 1099.5,222.833 1091.5,221.5C 1091.5,217.5 1091.5,213.5 1091.5,209.5 Z"/></g>
<g><path style="opacity:0.969" fill="#ca009d" d="M 1199.5,209.5 C 1207.17,209.5 1214.83,209.5 1222.5,209.5C 1222.5,214.167 1222.5,218.833 1222.5,223.5C 1208.32,223.829 1194.32,223.496 1180.5,222.5C 1186.95,221.305 1193.28,219.639 1199.5,217.5C 1200.45,214.874 1200.45,212.208 1199.5,209.5 Z"/></g>
<g><path style="opacity:0.974" fill="#ca009d" d="M 1320.5,208.5 C 1322.9,213.101 1324.24,218.101 1324.5,223.5C 1316.75,223.201 1309.08,223.534 1301.5,224.5C 1300.67,219.015 1298.67,214.015 1295.5,209.5C 1304.02,209.826 1312.35,209.493 1320.5,208.5 Z"/></g>
<g><path style="opacity:0.976" fill="#cb009d" d="M 1341.5,207.5 C 1350.23,209.428 1359.23,210.095 1368.5,209.5C 1366.24,213.882 1364.9,218.549 1364.5,223.5C 1356.83,223.5 1349.17,223.5 1341.5,223.5C 1341.5,218.167 1341.5,212.833 1341.5,207.5 Z"/></g>
<g><path style="opacity:0.967" fill="#ca009d" d="M 1416.5,209.5 C 1417.48,213.634 1417.82,217.968 1417.5,222.5C 1409.92,223.466 1402.25,223.799 1394.5,223.5C 1394.53,219.131 1394.2,214.798 1393.5,210.5C 1400.98,209.508 1408.65,209.175 1416.5,209.5 Z"/></g>
<g><path style="opacity:0.987" fill="#c500a1" d="M 834.5,221.5 C 834.5,221.833 834.5,222.167 834.5,222.5C 852.402,223.179 870.402,223.846 888.5,224.5C 888.5,226.833 888.5,229.167 888.5,231.5C 862.574,230.51 836.574,230.176 810.5,230.5C 810.5,228.5 810.5,226.5 810.5,224.5C 818.69,224.153 826.69,223.153 834.5,221.5 Z"/></g>
<g><path style="opacity:0.923" fill="#c500a1" d="M 1072.5,221.5 C 1072.5,225.5 1072.5,229.5 1072.5,233.5C 1064.77,235.418 1056.77,236.085 1048.5,235.5C 1048.78,237.415 1048.45,239.081 1047.5,240.5C 1047.5,237.167 1047.5,233.833 1047.5,230.5C 1038.83,230.5 1030.17,230.5 1021.5,230.5C 1021.5,228.167 1021.5,225.833 1021.5,223.5C 1038.74,224.13 1055.74,223.464 1072.5,221.5 Z"/></g>
<g><path style="opacity:0.981" fill="#c400a2" d="M 1180.5,222.5 C 1194.32,223.496 1208.32,223.829 1222.5,223.5C 1222.5,227.5 1222.5,231.5 1222.5,235.5C 1215.08,235.203 1207.75,235.536 1200.5,236.5C 1200.66,235.127 1200.49,233.793 1200,232.5C 1196.06,234.361 1191.89,235.361 1187.5,235.5C 1176.12,236.144 1165.12,235.477 1154.5,233.5C 1157.04,230.81 1160.04,228.643 1163.5,227C 1169.06,225.028 1174.72,223.528 1180.5,222.5 Z"/></g>
<g><path style="opacity:0.933" fill="#c300a2" d="M 928.5,224.5 C 928.448,228.198 928.114,231.865 927.5,235.5C 920.167,235.5 912.833,235.5 905.5,235.5C 905.737,236.791 905.404,237.791 904.5,238.5C 904.5,234.167 904.5,229.833 904.5,225.5C 912.309,223.189 920.309,222.856 928.5,224.5 Z"/></g>
<g><path style="opacity:0.965" fill="#c400a2" d="M 471.5,222.5 C 472.172,226.188 473.005,229.855 474,233.5C 475.233,230.126 476.4,226.793 477.5,223.5C 484.833,223.5 492.167,223.5 499.5,223.5C 498.992,227.736 497.992,231.736 496.5,235.5C 481.99,235.171 467.657,235.504 453.5,236.5C 451.721,232.406 450.388,228.073 449.5,223.5C 456.92,223.797 464.254,223.464 471.5,222.5 Z"/></g>
<g><path style="opacity:0.981" fill="#c301a2" d="M 714.5,223.5 C 722.167,223.5 729.833,223.5 737.5,223.5C 737.5,227.167 737.5,230.833 737.5,234.5C 729.833,235.833 722.167,235.833 714.5,234.5C 714.5,230.833 714.5,227.167 714.5,223.5 Z"/></g>
<g><path style="opacity:0.974" fill="#c301a2" d="M 1324.5,223.5 C 1324.5,227.5 1324.5,231.5 1324.5,235.5C 1316.83,235.5 1309.17,235.5 1301.5,235.5C 1301.5,231.833 1301.5,228.167 1301.5,224.5C 1309.08,223.534 1316.75,223.201 1324.5,223.5 Z"/></g>
<g><path style="opacity:0.975" fill="#c400a2" d="M 409.5,222.5 C 416.313,223.491 423.313,223.825 430.5,223.5C 429.808,227.6 428.808,231.6 427.5,235.5C 412.833,235.5 398.167,235.5 383.5,235.5C 382.134,232.039 381.134,228.373 380.5,224.5C 388.08,223.534 395.747,223.201 403.5,223.5C 404.391,226.778 405.224,230.111 406,233.5C 406.904,229.628 408.07,225.961 409.5,222.5 Z"/></g>
<g><path style="opacity:0.999" fill="#c300a2" d="M 523.5,223.5 C 530.833,223.5 538.167,223.5 545.5,223.5C 545.232,225.099 545.566,226.432 546.5,227.5C 546.5,230.167 546.5,232.833 546.5,235.5C 538.833,235.5 531.167,235.5 523.5,235.5C 523.5,231.5 523.5,227.5 523.5,223.5 Z"/></g>
<g><path style="opacity:0.952" fill="#c301a2" d="M 576.5,221.5 C 580.075,222.757 583.908,223.424 588,223.5C 592.092,223.424 595.925,222.757 599.5,221.5C 599.5,227.167 599.5,232.833 599.5,238.5C 598.596,237.791 598.263,236.791 598.5,235.5C 591.08,235.203 583.746,235.536 576.5,236.5C 576.5,231.5 576.5,226.5 576.5,221.5 Z"/></g>
<g><path style="opacity:0.979" fill="#c300a2" d="M 621.5,223.5 C 629.167,223.5 636.833,223.5 644.5,223.5C 644.5,227.167 644.5,230.833 644.5,234.5C 636.92,235.466 629.253,235.799 621.5,235.5C 621.5,231.5 621.5,227.5 621.5,223.5 Z"/></g>
<g><path style="opacity:0.98" fill="#c300a2" d="M 674.5,221.5 C 681.892,223.414 689.559,224.081 697.5,223.5C 697.5,227.5 697.5,231.5 697.5,235.5C 690.167,235.5 682.833,235.5 675.5,235.5C 675.768,233.901 675.434,232.568 674.5,231.5C 674.5,228.167 674.5,224.833 674.5,221.5 Z"/></g>
<g><path style="opacity:0.996" fill="#c300a2" d="M 772.5,222.5 C 780.08,223.466 787.747,223.799 795.5,223.5C 795.5,224.833 795.5,226.167 795.5,227.5C 795.5,230.167 795.5,232.833 795.5,235.5C 787.981,235.825 780.648,235.492 773.5,234.5C 773.495,230.466 773.162,226.466 772.5,222.5 Z"/></g>
<g><path style="opacity:0.988" fill="#c100a4" d="M 810.5,230.5 C 836.574,230.176 862.574,230.51 888.5,231.5C 888.5,233.5 888.5,235.5 888.5,237.5C 870.155,237.167 851.821,237.5 833.5,238.5C 834.295,241.144 834.962,243.811 835.5,246.5C 828.018,247.492 820.352,247.825 812.5,247.5C 810.875,241.969 810.209,236.303 810.5,230.5 Z"/></g>
<g><path style="opacity:0.976" fill="#c300a2" d="M 964.5,222.5 C 972.833,223.167 981.167,223.833 989.5,224.5C 990.248,227.905 991.248,231.238 992.5,234.5C 984.167,235.167 975.833,235.833 967.5,236.5C 965.994,231.97 964.994,227.303 964.5,222.5 Z"/></g>
<g><path style="opacity:0.972" fill="#c301a2" d="M 1091.5,221.5 C 1099.5,222.833 1107.5,224.167 1115.5,225.5C 1114.59,228.728 1114.25,232.061 1114.5,235.5C 1106.83,235.5 1099.17,235.5 1091.5,235.5C 1091.5,230.833 1091.5,226.167 1091.5,221.5 Z"/></g>
<g><path style="opacity:0.99" fill="#c300a2" d="M 1242.5,221.5 C 1249.89,223.414 1257.56,224.081 1265.5,223.5C 1265.5,227.5 1265.5,231.5 1265.5,235.5C 1257.56,236.081 1249.89,235.414 1242.5,233.5C 1242.5,229.5 1242.5,225.5 1242.5,221.5 Z"/></g>
<g><path style="opacity:0.992" fill="#c300a2" d="M 1341.5,223.5 C 1349.17,223.5 1356.83,223.5 1364.5,223.5C 1364.5,226.833 1364.5,230.167 1364.5,233.5C 1357.11,235.414 1349.44,236.081 1341.5,235.5C 1341.5,231.5 1341.5,227.5 1341.5,223.5 Z"/></g>
<g><path style="opacity:0.98" fill="#c300a2" d="M 1417.5,222.5 C 1417.5,226.833 1417.5,231.167 1417.5,235.5C 1410.17,235.5 1402.83,235.5 1395.5,235.5C 1395.77,233.901 1395.43,232.568 1394.5,231.5C 1394.5,228.833 1394.5,226.167 1394.5,223.5C 1402.25,223.799 1409.92,223.466 1417.5,222.5 Z"/></g>
<g><path style="opacity:0.962" fill="#be00a6" d="M 674.5,231.5 C 675.434,232.568 675.768,233.901 675.5,235.5C 682.833,235.5 690.167,235.5 697.5,235.5C 697.5,239.833 697.5,244.167 697.5,248.5C 689.833,248.5 682.167,248.5 674.5,248.5C 674.5,242.833 674.5,237.167 674.5,231.5 Z"/></g>
<g><path style="opacity:0.962" fill="#be00a6" d="M 1394.5,231.5 C 1395.43,232.568 1395.77,233.901 1395.5,235.5C 1402.83,235.5 1410.17,235.5 1417.5,235.5C 1417.5,239.833 1417.5,244.167 1417.5,248.5C 1409.83,248.5 1402.17,248.5 1394.5,248.5C 1394.5,242.833 1394.5,237.167 1394.5,231.5 Z"/></g>
<g><path style="opacity:0.979" fill="#cb009e" d="M 293.5,222.5 C 299.337,234.003 306.004,245.003 313.5,255.5C 308.999,264.66 303.333,272.993 296.5,280.5C 293.223,277.333 290.39,273.666 288,269.5C 283.949,263.391 280.449,257.058 277.5,250.5C 283.368,241.425 288.702,232.092 293.5,222.5 Z"/></g>
<g><path style="opacity:0.95" fill="#be01a6" d="M 1072.5,233.5 C 1072.5,238.167 1072.5,242.833 1072.5,247.5C 1062.4,248.817 1052.4,248.817 1042.5,247.5C 1046.11,246.535 1047.77,244.202 1047.5,240.5C 1048.45,239.081 1048.78,237.415 1048.5,235.5C 1056.77,236.085 1064.77,235.418 1072.5,233.5 Z"/></g>
<g><path style="opacity:0.945" fill="#be00a6" d="M 1364.5,233.5 C 1364.5,238.5 1364.5,243.5 1364.5,248.5C 1356.92,247.534 1349.25,247.201 1341.5,247.5C 1341.5,243.5 1341.5,239.5 1341.5,235.5C 1349.44,236.081 1357.11,235.414 1364.5,233.5 Z"/></g>
<g><path style="opacity:0.971" fill="#bf01a7" d="M 714.5,234.5 C 722.167,235.833 729.833,235.833 737.5,234.5C 737.799,240.005 739.466,245.005 742.5,249.5C 734.038,248.213 725.705,248.213 717.5,249.5C 715.124,244.894 714.124,239.894 714.5,234.5 Z"/></g>
<g><path style="opacity:0.974" fill="#be00a6" d="M 992.5,234.5 C 994.174,239.188 996.841,243.188 1000.5,246.5C 991.266,247.191 981.932,247.858 972.5,248.5C 970.284,244.734 968.617,240.734 967.5,236.5C 975.833,235.833 984.167,235.167 992.5,234.5 Z"/></g>
<g><path style="opacity:0.963" fill="#bf00a6" d="M 1154.5,233.5 C 1165.12,235.477 1176.12,236.144 1187.5,235.5C 1183.57,236.87 1179.57,238.37 1175.5,240C 1173.13,241.941 1171.8,244.441 1171.5,247.5C 1163.83,247.5 1156.17,247.5 1148.5,247.5C 1149.16,242.158 1151.16,237.491 1154.5,233.5 Z"/></g>
<g><path style="opacity:0.984" fill="#bf00a6" d="M 383.5,235.5 C 398.167,235.5 412.833,235.5 427.5,235.5C 426.5,239.499 425.5,243.499 424.5,247.5C 411.754,247.187 399.087,247.52 386.5,248.5C 385.033,244.298 384.033,239.965 383.5,235.5 Z"/></g>
<g><path style="opacity:0.984" fill="#be00a6" d="M 496.5,235.5 C 496.102,239.761 495.102,243.761 493.5,247.5C 480.833,247.5 468.167,247.5 455.5,247.5C 454.674,243.864 454.008,240.197 453.5,236.5C 467.657,235.504 481.99,235.171 496.5,235.5 Z"/></g>
<g><path style="opacity:0.973" fill="#be01a6" d="M 523.5,235.5 C 531.167,235.5 538.833,235.5 546.5,235.5C 546.5,239.167 546.5,242.833 546.5,246.5C 539.24,248.465 531.573,249.132 523.5,248.5C 523.5,244.167 523.5,239.833 523.5,235.5 Z"/></g>
<g><path style="opacity:0.974" fill="#be01a6" d="M 599.5,238.5 C 599.5,242.5 599.5,246.5 599.5,250.5C 591.436,248.578 583.103,247.912 574.5,248.5C 575.167,244.5 575.833,240.5 576.5,236.5C 583.746,235.536 591.08,235.203 598.5,235.5C 598.263,236.791 598.596,237.791 599.5,238.5 Z"/></g>
<g><path style="opacity:0.997" fill="#be00a6" d="M 644.5,234.5 C 644.5,243.833 644.5,253.167 644.5,262.5C 643.662,262.158 643.328,261.492 643.5,260.5C 643.5,256.5 643.5,252.5 643.5,248.5C 636.167,248.5 628.833,248.5 621.5,248.5C 621.5,244.167 621.5,239.833 621.5,235.5C 629.253,235.799 636.92,235.466 644.5,234.5 Z"/></g>
<g><path style="opacity:0.988" fill="#be00a6" d="M 795.5,227.5 C 795.833,227.5 796.167,227.5 796.5,227.5C 796.5,238.833 796.5,250.167 796.5,261.5C 795.833,261.5 795.5,261.167 795.5,260.5C 795.5,256.5 795.5,252.5 795.5,248.5C 786.833,248.5 778.167,248.5 769.5,248.5C 771.166,243.823 772.499,239.156 773.5,234.5C 780.648,235.492 787.981,235.825 795.5,235.5C 795.5,232.833 795.5,230.167 795.5,227.5 Z"/></g>
<g><path style="opacity:0.968" fill="#be01a6" d="M 927.5,235.5 C 927.5,239.833 927.5,244.167 927.5,248.5C 919.747,248.799 912.08,248.466 904.5,247.5C 904.5,244.5 904.5,241.5 904.5,238.5C 905.404,237.791 905.737,236.791 905.5,235.5C 912.833,235.5 920.167,235.5 927.5,235.5 Z"/></g>
<g><path style="opacity:0.962" fill="#be00a6" d="M 1091.5,235.5 C 1099.17,235.5 1106.83,235.5 1114.5,235.5C 1114.5,239.167 1114.5,242.833 1114.5,246.5C 1106.83,247.167 1099.17,247.833 1091.5,248.5C 1091.5,244.167 1091.5,239.833 1091.5,235.5 Z"/></g>
<g><path style="opacity:0.973" fill="#be01a6" d="M 1222.5,235.5 C 1222.5,239.5 1222.5,243.5 1222.5,247.5C 1214.92,248.466 1207.25,248.799 1199.5,248.5C 1200.02,244.519 1200.35,240.519 1200.5,236.5C 1207.75,235.536 1215.08,235.203 1222.5,235.5 Z"/></g>
<g><path style="opacity:0.992" fill="#be00a6" d="M 1242.5,233.5 C 1249.89,235.414 1257.56,236.081 1265.5,235.5C 1266.49,238.726 1267.49,242.06 1268.5,245.5C 1264.72,246.825 1260.56,247.491 1256,247.5C 1251.42,247.472 1246.92,247.139 1242.5,246.5C 1242.5,242.167 1242.5,237.833 1242.5,233.5 Z"/></g>
<g><path style="opacity:0.966" fill="#be01a6" d="M 1301.5,235.5 C 1309.17,235.5 1316.83,235.5 1324.5,235.5C 1324.35,239.924 1323.68,244.257 1322.5,248.5C 1314.17,248.5 1305.83,248.5 1297.5,248.5C 1299.59,244.417 1300.92,240.083 1301.5,235.5 Z"/></g>
<g><path style="opacity:0.959" fill="#b802aa" d="M 1114.5,246.5 C 1114.5,250.5 1114.5,254.5 1114.5,258.5C 1110.92,259.757 1107.09,260.424 1103,260.5C 1098.91,260.424 1095.08,259.757 1091.5,258.5C 1091.5,255.167 1091.5,251.833 1091.5,248.5C 1099.17,247.833 1106.83,247.167 1114.5,246.5 Z"/></g>
<g><path style="opacity:0.951" fill="#b801ab" d="M 1268.5,245.5 C 1272.94,253.939 1279.94,257.106 1289.5,255C 1292.94,253.726 1295.6,251.559 1297.5,248.5C 1305.83,248.5 1314.17,248.5 1322.5,248.5C 1321.03,252.779 1319.03,256.779 1316.5,260.5C 1292.17,260.5 1267.83,260.5 1243.5,260.5C 1243.81,263.713 1243.48,266.713 1242.5,269.5C 1242.5,261.833 1242.5,254.167 1242.5,246.5C 1246.92,247.139 1251.42,247.472 1256,247.5C 1260.56,247.491 1264.72,246.825 1268.5,245.5 Z"/></g>
<g><path style="opacity:0.958" fill="#b801ab" d="M 880.5,261.5 C 860.34,260.503 840.007,260.17 819.5,260.5C 815.885,256.941 813.551,252.607 812.5,247.5C 820.352,247.825 828.018,247.492 835.5,246.5C 840.577,256.029 848.243,258.862 858.5,255C 861.361,252.781 863.361,249.947 864.5,246.5C 865.667,246.167 866.833,245.833 868,245.5C 874.502,246.556 881.002,247.556 887.5,248.5C 886.454,253.596 884.121,257.929 880.5,261.5 Z"/></g>
<g><path style="opacity:0.95" fill="#b802ab" d="M 904.5,247.5 C 912.08,248.466 919.747,248.799 927.5,248.5C 927.5,253.167 927.5,257.833 927.5,262.5C 920.108,260.586 912.441,259.919 904.5,260.5C 904.5,256.167 904.5,251.833 904.5,247.5 Z"/></g>
<g><path style="opacity:0.973" fill="#b801ab" d="M 1000.5,246.5 C 1014.2,255.48 1028.2,255.813 1042.5,247.5C 1052.4,248.817 1062.4,248.817 1072.5,247.5C 1074.05,253.718 1072.05,258.051 1066.5,260.5C 1038.5,260.5 1010.5,260.5 982.5,260.5C 978.224,257.279 974.891,253.279 972.5,248.5C 981.932,247.858 991.266,247.191 1000.5,246.5 Z"/></g>
<g><path style="opacity:0.962" fill="#b801ab" d="M 1148.5,247.5 C 1156.17,247.5 1163.83,247.5 1171.5,247.5C 1174.12,255.933 1179.79,259.1 1188.5,257C 1193.23,255.418 1196.9,252.585 1199.5,248.5C 1207.25,248.799 1214.92,248.466 1222.5,247.5C 1222.65,251.519 1222.98,255.519 1223.5,259.5C 1199.57,260.49 1175.57,260.823 1151.5,260.5C 1149.63,256.485 1148.63,252.151 1148.5,247.5 Z"/></g>
<g><path style="opacity:0.978" fill="#b801aa" d="M 424.5,247.5 C 423.537,252.05 422.203,256.383 420.5,260.5C 410.167,260.5 399.833,260.5 389.5,260.5C 388.008,256.736 387.008,252.736 386.5,248.5C 399.087,247.52 411.754,247.187 424.5,247.5 Z"/></g>
<g><path style="opacity:0.982" fill="#b801ab" d="M 455.5,247.5 C 468.167,247.5 480.833,247.5 493.5,247.5C 492.967,251.965 491.967,256.298 490.5,260.5C 479.909,259.895 469.575,260.562 459.5,262.5C 458.631,257.354 457.297,252.354 455.5,247.5 Z"/></g>
<g><path style="opacity:0.969" fill="#b801ab" d="M 546.5,246.5 C 550.92,256.587 558.253,259.087 568.5,254C 570.37,251.96 572.37,250.127 574.5,248.5C 583.103,247.912 591.436,248.578 599.5,250.5C 599.5,253.833 599.5,257.167 599.5,260.5C 592.313,260.175 585.313,260.509 578.5,261.5C 578.167,261.5 577.833,261.5 577.5,261.5C 560.675,260.503 543.675,260.17 526.5,260.5C 524.584,256.837 523.584,252.837 523.5,248.5C 531.573,249.132 539.24,248.465 546.5,246.5 Z"/></g>
<g><path style="opacity:0.996" fill="#b801ab" d="M 621.5,248.5 C 628.833,248.5 636.167,248.5 643.5,248.5C 643.5,252.5 643.5,256.5 643.5,260.5C 636.167,260.5 628.833,260.5 621.5,260.5C 621.5,256.5 621.5,252.5 621.5,248.5 Z"/></g>
<g><path style="opacity:0.967" fill="#b801ab" d="M 674.5,248.5 C 682.167,248.5 689.833,248.5 697.5,248.5C 697.5,251.833 697.5,255.167 697.5,258.5C 690.444,260.41 683.111,261.076 675.5,260.5C 675.768,258.901 675.434,257.568 674.5,256.5C 674.5,253.833 674.5,251.167 674.5,248.5 Z"/></g>
<g><path style="opacity:0.973" fill="#b801ab" d="M 742.5,249.5 C 747.224,255.016 753.224,256.85 760.5,255C 763.938,253.389 766.938,251.223 769.5,248.5C 778.167,248.5 786.833,248.5 795.5,248.5C 795.5,252.5 795.5,256.5 795.5,260.5C 771.328,260.169 747.328,260.502 723.5,261.5C 720.46,258.086 718.46,254.086 717.5,249.5C 725.705,248.213 734.038,248.213 742.5,249.5 Z"/></g>
<g><path style="opacity:0.992" fill="#b801aa" d="M 1341.5,247.5 C 1349.25,247.201 1356.92,247.534 1364.5,248.5C 1364.5,250.833 1364.5,253.167 1364.5,255.5C 1363.55,256.919 1363.22,258.585 1363.5,260.5C 1356.17,260.5 1348.83,260.5 1341.5,260.5C 1341.5,256.167 1341.5,251.833 1341.5,247.5 Z"/></g>
<g><path style="opacity:0.967" fill="#b801ab" d="M 1394.5,248.5 C 1402.17,248.5 1409.83,248.5 1417.5,248.5C 1417.5,251.833 1417.5,255.167 1417.5,258.5C 1410.44,260.41 1403.11,261.076 1395.5,260.5C 1395.77,258.901 1395.43,257.568 1394.5,256.5C 1394.5,253.833 1394.5,251.167 1394.5,248.5 Z"/></g>
<g><path style="opacity:0.975" fill="#c400a1" d="M 277.5,250.5 C 280.449,257.058 283.949,263.391 288,269.5C 290.39,273.666 293.223,277.333 296.5,280.5C 290.5,287.167 284.167,293.5 277.5,299.5C 271.833,289.5 266.167,279.5 260.5,269.5C 266.566,263.439 272.233,257.106 277.5,250.5 Z"/></g>
<g><path style="opacity:0.967" fill="#b301af" d="M 795.5,260.5 C 795.5,261.167 795.833,261.5 796.5,261.5C 796.5,265.167 796.5,268.833 796.5,272.5C 789.167,272.5 781.833,272.5 774.5,272.5C 774.665,269.15 774.498,265.817 774,262.5C 761.987,274.96 748.154,277.46 732.5,270C 729,267.666 726,264.832 723.5,261.5C 747.328,260.502 771.328,260.169 795.5,260.5 Z"/></g>
<g><path style="opacity:0.984" fill="#b301ae" d="M 1223.5,259.5 C 1224.25,263.678 1225.59,267.678 1227.5,271.5C 1219.86,272.497 1212.2,272.831 1204.5,272.5C 1204.17,269.689 1203.34,267.022 1202,264.5C 1187.05,276.647 1171.55,277.48 1155.5,267C 1153.91,264.931 1152.58,262.764 1151.5,260.5C 1175.57,260.823 1199.57,260.49 1223.5,259.5 Z"/></g>
<g><path style="opacity:0.882" fill="#b202af" d="M 1091.5,258.5 C 1095.08,259.757 1098.91,260.424 1103,260.5C 1107.09,260.424 1110.92,259.757 1114.5,258.5C 1114.5,263.167 1114.5,267.833 1114.5,272.5C 1106.83,272.5 1099.17,272.5 1091.5,272.5C 1091.5,267.833 1091.5,263.167 1091.5,258.5 Z"/></g>
<g><path style="opacity:0.909" fill="#b201af" d="M 389.5,260.5 C 399.833,260.5 410.167,260.5 420.5,260.5C 419.833,264.5 419.167,268.5 418.5,272.5C 409.5,272.5 400.5,272.5 391.5,272.5C 390.833,268.5 390.167,264.5 389.5,260.5 Z"/></g>
<g><path style="opacity:0.914" fill="#b201af" d="M 490.5,260.5 C 489.833,264.5 489.167,268.5 488.5,272.5C 479.808,272.831 471.141,272.498 462.5,271.5C 461.649,268.422 460.649,265.422 459.5,262.5C 469.575,260.562 479.909,259.895 490.5,260.5 Z"/></g>
<g><path style="opacity:0.93" fill="#b201af" d="M 526.5,260.5 C 543.675,260.17 560.675,260.503 577.5,261.5C 567.961,272.623 555.961,276.456 541.5,273C 534.456,271.163 529.456,266.996 526.5,260.5 Z"/></g>
<g><path style="opacity:0.913" fill="#b201af" d="M 599.5,260.5 C 599.5,264.5 599.5,268.5 599.5,272.5C 592.5,272.5 585.5,272.5 578.5,272.5C 578.5,268.833 578.5,265.167 578.5,261.5C 585.313,260.509 592.313,260.175 599.5,260.5 Z"/></g>
<g><path style="opacity:0.929" fill="#b201af" d="M 621.5,260.5 C 628.833,260.5 636.167,260.5 643.5,260.5C 643.328,261.492 643.662,262.158 644.5,262.5C 644.5,265.833 644.5,269.167 644.5,272.5C 636.833,272.5 629.167,272.5 621.5,272.5C 621.5,268.5 621.5,264.5 621.5,260.5 Z"/></g>
<g><path style="opacity:0.891" fill="#b201af" d="M 674.5,256.5 C 675.434,257.568 675.768,258.901 675.5,260.5C 683.111,261.076 690.444,260.41 697.5,258.5C 697.5,263.167 697.5,267.833 697.5,272.5C 689.833,272.5 682.167,272.5 674.5,272.5C 674.5,267.167 674.5,261.833 674.5,256.5 Z"/></g>
<g><path style="opacity:0.941" fill="#b201af" d="M 819.5,260.5 C 840.007,260.17 860.34,260.503 880.5,261.5C 872.747,270.703 862.747,275.037 850.5,274.5C 840.079,274.415 830.745,271.249 822.5,265C 821.117,263.729 820.117,262.229 819.5,260.5 Z"/></g>
<g><path style="opacity:0.901" fill="#b202af" d="M 904.5,260.5 C 912.441,259.919 920.108,260.586 927.5,262.5C 927.5,265.833 927.5,269.167 927.5,272.5C 919.833,272.5 912.167,272.5 904.5,272.5C 904.5,268.5 904.5,264.5 904.5,260.5 Z"/></g>
<g><path style="opacity:0.947" fill="#b201af" d="M 982.5,260.5 C 1010.5,260.5 1038.5,260.5 1066.5,260.5C 1045.14,274.813 1022.14,277.979 997.5,270C 991.759,267.808 986.759,264.641 982.5,260.5 Z"/></g>
<g><path style="opacity:0.936" fill="#b301b0" d="M 1316.5,260.5 C 1306.28,273.45 1293.28,277.283 1277.5,272C 1273.39,269.552 1269.55,266.719 1266,263.5C 1265.5,267.486 1265.33,271.486 1265.5,275.5C 1258.17,275.5 1250.83,275.5 1243.5,275.5C 1243.77,273.901 1243.43,272.568 1242.5,271.5C 1242.5,270.833 1242.5,270.167 1242.5,269.5C 1243.48,266.713 1243.81,263.713 1243.5,260.5C 1267.83,260.5 1292.17,260.5 1316.5,260.5 Z"/></g>
<g><path style="opacity:0.895" fill="#b201af" d="M 1364.5,255.5 C 1364.5,261.167 1364.5,266.833 1364.5,272.5C 1356.83,272.5 1349.17,272.5 1341.5,272.5C 1341.5,268.5 1341.5,264.5 1341.5,260.5C 1348.83,260.5 1356.17,260.5 1363.5,260.5C 1363.22,258.585 1363.55,256.919 1364.5,255.5 Z"/></g>
<g><path style="opacity:0.891" fill="#b201af" d="M 1394.5,256.5 C 1395.43,257.568 1395.77,258.901 1395.5,260.5C 1403.11,261.076 1410.44,260.41 1417.5,258.5C 1417.5,263.167 1417.5,267.833 1417.5,272.5C 1409.83,272.5 1402.17,272.5 1394.5,272.5C 1394.5,267.167 1394.5,261.833 1394.5,256.5 Z"/></g>
<g><path style="opacity:0.976" fill="#be01a6" d="M 260.5,269.5 C 266.167,279.5 271.833,289.5 277.5,299.5C 271.853,304.323 265.853,308.657 259.5,312.5C 258.504,312.586 257.671,312.252 257,311.5C 251.725,302.6 246.225,293.933 240.5,285.5C 247.431,280.577 254.097,275.244 260.5,269.5 Z"/></g>
<g><path style="opacity:0.994" fill="#ab01b4" d="M 1242.5,271.5 C 1243.43,272.568 1243.77,273.901 1243.5,275.5C 1250.83,275.5 1258.17,275.5 1265.5,275.5C 1265.5,278.833 1265.5,282.167 1265.5,285.5C 1258.44,287.41 1251.11,288.076 1243.5,287.5C 1243.81,291.371 1243.48,295.038 1242.5,298.5C 1242.5,289.5 1242.5,280.5 1242.5,271.5 Z"/></g>
<g><path style="opacity:0.979" fill="#9f02bd" d="M 88.5,278.5 C 100.321,286.744 112.988,293.411 126.5,298.5C 135.083,311.33 143.416,324.33 151.5,337.5C 140.893,336.778 130.559,334.778 120.5,331.5C 109.386,314.112 98.3858,296.612 87.5,279C 87.7284,278.601 88.0618,278.435 88.5,278.5 Z"/></g>
<g><path style="opacity:0.978" fill="#b801ab" d="M 240.5,285.5 C 246.225,293.933 251.725,302.6 257,311.5C 257.671,312.252 258.504,312.586 259.5,312.5C 252.316,317.332 244.65,321.332 236.5,324.5C 231.261,315.692 225.761,307.026 220,298.5C 219.53,297.423 219.697,296.423 220.5,295.5C 227.128,292.186 233.795,288.853 240.5,285.5 Z"/></g>
<g><path style="opacity:0.993" fill="#a402b9" d="M 1265.5,285.5 C 1265.5,291.5 1265.5,297.5 1265.5,303.5C 1257.83,303.5 1250.17,303.5 1242.5,303.5C 1242.5,301.833 1242.5,300.167 1242.5,298.5C 1243.48,295.038 1243.81,291.371 1243.5,287.5C 1251.11,288.076 1258.44,287.41 1265.5,285.5 Z"/></g>
<g><path style="opacity:0.975" fill="#b101af" d="M 220.5,295.5 C 219.697,296.423 219.53,297.423 220,298.5C 225.761,307.026 231.261,315.692 236.5,324.5C 227.334,329.001 217.668,332.334 207.5,334.5C 207.611,333.883 207.944,333.383 208.5,333C 202.5,323.667 196.5,314.333 190.5,305C 191.056,304.617 191.389,304.117 191.5,303.5C 201.387,301.612 211.053,298.945 220.5,295.5 Z"/></g>
<g><path style="opacity:0.985" fill="#a502b9" d="M 126.5,298.5 C 138.605,301.988 150.938,304.321 163.5,305.5C 163.389,306.117 163.056,306.617 162.5,307C 169.924,316.906 176.258,327.406 181.5,338.5C 171.319,338.827 161.319,338.494 151.5,337.5C 143.416,324.33 135.083,311.33 126.5,298.5 Z"/></g>
<g><path style="opacity:0.979" fill="#ab01b4" d="M 191.5,303.5 C 191.389,304.117 191.056,304.617 190.5,305C 196.5,314.333 202.5,323.667 208.5,333C 207.944,333.383 207.611,333.883 207.5,334.5C 198.972,336.65 190.305,337.983 181.5,338.5C 176.258,327.406 169.924,316.906 162.5,307C 163.056,306.617 163.389,306.117 163.5,305.5C 172.9,305.585 182.233,304.918 191.5,303.5 Z"/></g>
</svg>
