<svg
   xmlns:dc="http://purl.org/dc/elements/1.1/"
   xmlns:cc="http://creativecommons.org/ns#"
   xmlns:rdf="http://www.w3.org/1999/02/22-rdf-syntax-ns#"
   xmlns:svg="http://www.w3.org/2000/svg"
   xmlns="http://www.w3.org/2000/svg"
   viewBox="0 0 1423.3066 342.74133"
   height="342.74133"
   width="1423.3066"
   xml:space="preserve"
   id="svg2"
   version="1.1"><metadata
     id="metadata8"><rdf:RDF><cc:Work
         rdf:about=""><dc:format>image/svg+xml</dc:format><dc:type
           rdf:resource="http://purl.org/dc/dcmitype/StillImage" /></cc:Work></rdf:RDF></metadata><defs
     id="defs6"><linearGradient
       id="linearGradient32"
       spreadMethod="pad"
       gradientTransform="matrix(229.48901,145.12457,-145.12457,229.48901,12.087891,55.643555)"
       gradientUnits="userSpaceOnUse"
       y2="0"
       x2="1"
       y1="0"
       x1="0"><stop
         id="stop24"
         offset="0"
         style="stop-opacity:1;stop-color:#9c03c0" /><stop
         id="stop26"
         offset="0.145828"
         style="stop-opacity:1;stop-color:#9c03c0" /><stop
         id="stop28"
         offset="0.864578"
         style="stop-opacity:1;stop-color:#dc0091" /><stop
         id="stop30"
         offset="1"
         style="stop-opacity:1;stop-color:#dc0091" /></linearGradient><linearGradient
       id="linearGradient56"
       spreadMethod="pad"
       gradientTransform="matrix(0,138.11438,138.11438,0,330.56006,1.4726562)"
       gradientUnits="userSpaceOnUse"
       y2="0"
       x2="1"
       y1="0"
       x1="0"><stop
         id="stop48"
         offset="0"
         style="stop-opacity:1;stop-color:#9c03c0" /><stop
         id="stop50"
         offset="0.145828"
         style="stop-opacity:1;stop-color:#9c03c0" /><stop
         id="stop52"
         offset="0.864578"
         style="stop-opacity:1;stop-color:#dc0091" /><stop
         id="stop54"
         offset="1"
         style="stop-opacity:1;stop-color:#dc0091" /></linearGradient><linearGradient
       id="linearGradient80"
       spreadMethod="pad"
       gradientTransform="matrix(0,138.11438,138.11438,0,421.43896,1.4726562)"
       gradientUnits="userSpaceOnUse"
       y2="0"
       x2="1"
       y1="0"
       x1="0"><stop
         id="stop72"
         offset="0"
         style="stop-opacity:1;stop-color:#9c03c0" /><stop
         id="stop74"
         offset="0.145828"
         style="stop-opacity:1;stop-color:#9c03c0" /><stop
         id="stop76"
         offset="0.864578"
         style="stop-opacity:1;stop-color:#dc0091" /><stop
         id="stop78"
         offset="1"
         style="stop-opacity:1;stop-color:#dc0091" /></linearGradient><linearGradient
       id="linearGradient104"
       spreadMethod="pad"
       gradientTransform="matrix(0,138.11438,138.11438,0,495.03271,1.4726562)"
       gradientUnits="userSpaceOnUse"
       y2="0"
       x2="1"
       y1="0"
       x1="0"><stop
         id="stop96"
         offset="0"
         style="stop-opacity:1;stop-color:#9c03c0" /><stop
         id="stop98"
         offset="0.145828"
         style="stop-opacity:1;stop-color:#9c03c0" /><stop
         id="stop100"
         offset="0.864578"
         style="stop-opacity:1;stop-color:#dc0091" /><stop
         id="stop102"
         offset="1"
         style="stop-opacity:1;stop-color:#dc0091" /></linearGradient><linearGradient
       id="linearGradient128"
       spreadMethod="pad"
       gradientTransform="matrix(0,138.11427,138.11427,0,566.78076,1.4726562)"
       gradientUnits="userSpaceOnUse"
       y2="0"
       x2="1"
       y1="0"
       x1="0"><stop
         id="stop120"
         offset="0"
         style="stop-opacity:1;stop-color:#9c03c0" /><stop
         id="stop122"
         offset="0.145828"
         style="stop-opacity:1;stop-color:#9c03c0" /><stop
         id="stop124"
         offset="0.864578"
         style="stop-opacity:1;stop-color:#dc0091" /><stop
         id="stop126"
         offset="1"
         style="stop-opacity:1;stop-color:#dc0091" /></linearGradient><linearGradient
       id="linearGradient152"
       spreadMethod="pad"
       gradientTransform="matrix(0,138.11435,138.11435,0,637.65723,1.4726562)"
       gradientUnits="userSpaceOnUse"
       y2="0"
       x2="1"
       y1="0"
       x1="0"><stop
         id="stop144"
         offset="0"
         style="stop-opacity:1;stop-color:#9c03c0" /><stop
         id="stop146"
         offset="0.145828"
         style="stop-opacity:1;stop-color:#9c03c0" /><stop
         id="stop148"
         offset="0.864578"
         style="stop-opacity:1;stop-color:#dc0091" /><stop
         id="stop150"
         offset="1"
         style="stop-opacity:1;stop-color:#dc0091" /></linearGradient><linearGradient
       id="linearGradient176"
       spreadMethod="pad"
       gradientTransform="matrix(0,138.11438,138.11438,0,699.58398,1.4726562)"
       gradientUnits="userSpaceOnUse"
       y2="0"
       x2="1"
       y1="0"
       x1="0"><stop
         id="stop168"
         offset="0"
         style="stop-opacity:1;stop-color:#9c03c0" /><stop
         id="stop170"
         offset="0.145828"
         style="stop-opacity:1;stop-color:#9c03c0" /><stop
         id="stop172"
         offset="0.864578"
         style="stop-opacity:1;stop-color:#dc0091" /><stop
         id="stop174"
         offset="1"
         style="stop-opacity:1;stop-color:#dc0091" /></linearGradient><linearGradient
       id="linearGradient200"
       spreadMethod="pad"
       gradientTransform="matrix(0,138.11441,138.11441,0,764.125,1.4726562)"
       gradientUnits="userSpaceOnUse"
       y2="0"
       x2="1"
       y1="0"
       x1="0"><stop
         id="stop192"
         offset="0"
         style="stop-opacity:1;stop-color:#9c03c0" /><stop
         id="stop194"
         offset="0.145828"
         style="stop-opacity:1;stop-color:#9c03c0" /><stop
         id="stop196"
         offset="0.864578"
         style="stop-opacity:1;stop-color:#dc0091" /><stop
         id="stop198"
         offset="1"
         style="stop-opacity:1;stop-color:#dc0091" /></linearGradient><linearGradient
       id="linearGradient224"
       spreadMethod="pad"
       gradientTransform="matrix(0,138.11438,138.11438,0,839.62305,1.4726562)"
       gradientUnits="userSpaceOnUse"
       y2="0"
       x2="1"
       y1="0"
       x1="0"><stop
         id="stop216"
         offset="0"
         style="stop-opacity:1;stop-color:#9c03c0" /><stop
         id="stop218"
         offset="0.145828"
         style="stop-opacity:1;stop-color:#9c03c0" /><stop
         id="stop220"
         offset="0.864578"
         style="stop-opacity:1;stop-color:#dc0091" /><stop
         id="stop222"
         offset="1"
         style="stop-opacity:1;stop-color:#dc0091" /></linearGradient><linearGradient
       id="linearGradient248"
       spreadMethod="pad"
       gradientTransform="matrix(0,138.11435,138.11435,0,891.74219,1.4726562)"
       gradientUnits="userSpaceOnUse"
       y2="0"
       x2="1"
       y1="0"
       x1="0"><stop
         id="stop240"
         offset="0"
         style="stop-opacity:1;stop-color:#9c03c0" /><stop
         id="stop242"
         offset="0.145828"
         style="stop-opacity:1;stop-color:#9c03c0" /><stop
         id="stop244"
         offset="0.864578"
         style="stop-opacity:1;stop-color:#dc0091" /><stop
         id="stop246"
         offset="1"
         style="stop-opacity:1;stop-color:#dc0091" /></linearGradient><linearGradient
       id="linearGradient272"
       spreadMethod="pad"
       gradientTransform="matrix(0,138.11427,138.11427,0,963.49023,1.4726562)"
       gradientUnits="userSpaceOnUse"
       y2="0"
       x2="1"
       y1="0"
       x1="0"><stop
         id="stop264"
         offset="0"
         style="stop-opacity:1;stop-color:#9c03c0" /><stop
         id="stop266"
         offset="0.145828"
         style="stop-opacity:1;stop-color:#9c03c0" /><stop
         id="stop268"
         offset="0.864578"
         style="stop-opacity:1;stop-color:#dc0091" /><stop
         id="stop270"
         offset="1"
         style="stop-opacity:1;stop-color:#dc0091" /></linearGradient><linearGradient
       id="linearGradient296"
       spreadMethod="pad"
       gradientTransform="matrix(0,138.11438,138.11438,0,1035.1797,1.4726562)"
       gradientUnits="userSpaceOnUse"
       y2="0"
       x2="1"
       y1="0"
       x1="0"><stop
         id="stop288"
         offset="0"
         style="stop-opacity:1;stop-color:#9c03c0" /><stop
         id="stop290"
         offset="0.145828"
         style="stop-opacity:1;stop-color:#9c03c0" /><stop
         id="stop292"
         offset="0.864578"
         style="stop-opacity:1;stop-color:#dc0091" /><stop
         id="stop294"
         offset="1"
         style="stop-opacity:1;stop-color:#dc0091" /></linearGradient></defs><g
     transform="matrix(1.3333333,0,0,-1.3333333,0,342.74133)"
     id="g10"><g
       id="g12"><g
         id="g14"><g
           id="g20"><g
             id="g22"><path
               id="path34"
               style="fill:url(#linearGradient32);stroke:none"
               d="M 88.368,246.629 C 71.96,241.207 56.855,232.442 44.008,220.885 v 0 c 8.138,-2.639 15.024,-8.173 19.352,-15.552 v 0 c 10.332,8.576 22.277,14.996 35.131,18.879 v 0 c 12.853,3.881 26.355,5.149 39.708,3.726 v 0 c 13.351,-1.423 26.282,-5.508 38.028,-12.012 v 0 c 2.823,-1.563 5.563,-3.258 8.212,-5.077 v 0 c -0.196,-1.272 -0.295,-2.562 -0.295,-3.86 v 0 c -0.002,-3.323 0.654,-6.613 1.924,-9.683 v 0 c 1.271,-3.07 3.136,-5.86 5.485,-8.21 v 0 c 2.348,-2.349 5.139,-4.213 8.21,-5.484 v 0 c 3.07,-1.272 6.359,-1.927 9.681,-1.927 v 0 c 5.006,0 9.899,1.483 14.061,4.263 v 0 c 4.162,2.78 7.406,6.732 9.322,11.355 v 0 c 1.916,4.625 2.418,9.712 1.441,14.621 v 0 c -0.976,4.909 -3.386,9.417 -6.924,12.957 v 0 c -3.538,3.539 -8.048,5.949 -12.956,6.926 v 0 c -4.91,0.976 -9.998,0.476 -14.623,-1.439 v 0 c -0.123,-0.052 -0.245,-0.103 -0.367,-0.156 v 0 c -3.561,2.505 -7.261,4.825 -11.08,6.951 v 0 c -15.1,8.405 -31.778,13.585 -48.983,15.214 v 0 c -3.923,0.372 -7.854,0.557 -11.781,0.557 v 0 c -13.288,0 -26.52,-2.121 -39.186,-6.305 M 19.25,208.793 c -4.16,-2.78 -7.402,-6.732 -9.317,-11.355 v 0 C 8.019,192.814 7.518,187.727 8.494,182.82 v 0 c 0.978,-4.907 3.387,-9.415 6.927,-12.953 v 0 c 3.537,-3.538 8.046,-5.947 12.954,-6.924 v 0 c 2.259,-0.449 4.556,-0.585 6.829,-0.415 v 0 l 5.129,-8.87 c 7.659,1.577 14.561,5.69 19.593,11.674 v 0 l -5.187,8.973 c 2.528,4.026 3.874,8.688 3.874,13.453 v 0 c 0,3.323 -0.655,6.613 -1.927,9.683 v 0 c -1.271,3.07 -3.136,5.859 -5.485,8.208 v 0 c -2.35,2.35 -5.14,4.213 -8.211,5.485 v 0 c -3.07,1.27 -6.36,1.925 -9.683,1.925 v 0 c -5.005,-0.001 -9.896,-1.485 -14.057,-4.266 m 21.084,-55.135 43.625,-75.452 13.155,-22.782 13.156,22.782 16.402,28.403 16.356,-28.3 13.149,-22.778 13.152,22.78 22.065,38.228 h 36.037 v 0.002 h 24.193 v 22.783 h -24.193 c 0.431,-3.781 0.646,-7.585 0.644,-11.391 v 0 c 0,0 0,0 0,0 v 0 c 0.002,3.804 -0.217,7.607 -0.649,11.39 v 0 H 178.237 L 175.95,135.364 156.169,101.103 139.811,129.41 126.659,152.192 113.525,129.406 97.114,101 59.928,165.332 C 54.896,159.347 47.993,155.235 40.334,153.658 M 2.522,127.924 c 0,-69.03 55.964,-124.99 125.009,-124.99 v 0 c 69.044,0 124.992,55.968 124.992,124.997 v 0 c 0,3.84 -0.184,7.641 -0.522,11.392 v 0 h -0.367 V 116.539 H 227.438 C 221.781,66.375 179.23,27.383 127.535,27.383 v 0 c -55.557,0 -100.566,45.029 -100.566,100.548 v 0 c 0,7.796 1.132,17.14 2.988,25.178 v 0 c -8.468,0.811 -16.344,4.702 -22.132,10.935 v 0 C 4.29,152.33 2.505,140.159 2.522,127.924" /></g></g></g></g><g
       id="g36"><g
         id="g38"><g
           id="g44"><g
             id="g46"><path
               id="path58"
               style="fill:url(#linearGradient56);stroke:none"
               d="m 369.466,138.705 -13.183,-60 -15.059,60 h -20.625 l -15.703,-59.004 -12.949,59.004 h -17.754 l 20.508,-85.898 h 18.809 l 17.05,64.218 17.109,-64.218 h 18.399 l 20.859,85.898 z" /></g></g></g></g><g
       id="g60"><g
         id="g62"><g
           id="g68"><g
             id="g70"><path
               id="path82"
               style="fill:url(#linearGradient80);stroke:none"
               d="M 433.275,115.034 V 88.783 c 0,-8.906 -0.41,-14.501 -1.231,-16.787 v 0 c -0.82,-2.285 -2.343,-4.199 -4.57,-5.743 v 0 c -2.227,-1.542 -4.746,-2.313 -7.558,-2.313 v 0 c -2.462,0 -4.493,0.576 -6.094,1.728 v 0 c -1.602,1.152 -2.706,2.715 -3.31,4.688 v 0 c -0.607,1.973 -0.909,7.334 -0.909,16.084 v 0 28.594 H 393.138 V 75.659 c 0,-5.86 0.742,-10.45 2.227,-13.77 v 0 c 1.484,-3.321 3.886,-5.899 7.207,-7.735 v 0 c 3.32,-1.834 7.069,-2.753 11.25,-2.753 v 0 c 4.101,0 7.998,0.957 11.689,2.871 v 0 c 3.692,1.913 6.67,4.53 8.936,7.851 v 0 -9.316 h 15.293 v 62.227 z" /></g></g></g></g><g
       id="g84"><g
         id="g86"><g
           id="g92"><g
             id="g94"><path
               id="path106"
               style="fill:url(#linearGradient104);stroke:none"
               d="m 481.966,105.892 v 9.142 H 466.673 V 52.807 h 16.465 V 80.99 c 0,6.953 0.419,11.719 1.26,14.298 v 0 c 0.84,2.577 2.392,4.647 4.658,6.21 v 0 c 2.266,1.563 4.823,2.344 7.676,2.344 v 0 c 2.226,0 4.131,-0.547 5.713,-1.641 v 0 c 1.582,-1.093 2.724,-2.627 3.428,-4.6 v 0 c 0.703,-1.972 1.054,-6.318 1.054,-13.036 v 0 -31.758 h 16.465 v 38.672 c 0,4.804 -0.303,8.496 -0.908,11.073 v 0 c -0.606,2.579 -1.68,4.884 -3.223,6.915 v 0 c -1.543,2.031 -3.818,3.701 -6.826,5.009 v 0 c -3.008,1.309 -6.328,1.963 -9.961,1.963 v 0 c -8.243,0 -15.078,-3.515 -20.508,-10.547" /></g></g></g></g><g
       id="g108"><g
         id="g110"><g
           id="g116"><g
             id="g118"><path
               id="path130"
               style="fill:url(#linearGradient128);stroke:none"
               d="m 580.697,138.705 v -30.937 c -5.079,5.781 -11.094,8.671 -18.047,8.671 v 0 c -7.579,0 -13.848,-2.744 -18.809,-8.232 v 0 C 538.879,102.719 536.4,94.702 536.4,84.154 v 0 c 0,-10.313 2.549,-18.35 7.646,-24.111 v 0 c 5.098,-5.762 11.221,-8.642 18.369,-8.642 v 0 c 3.516,0 7.002,0.869 10.459,2.607 v 0 c 3.457,1.738 6.455,4.385 8.995,7.939 v 0 -9.14 h 15.293 v 85.898 z M 555.97,70.853 c -1.836,2.969 -2.754,7.774 -2.754,14.415 v 0 c 0,6.171 1.319,10.81 3.955,13.916 v 0 c 2.637,3.106 5.908,4.658 9.815,4.658 v 0 c 4.023,0 7.324,-1.572 9.902,-4.717 v 0 c 2.578,-3.145 3.868,-8.291 3.868,-15.439 v 0 c 0,-6.407 -1.33,-11.222 -3.985,-14.444 v 0 c -2.656,-3.222 -5.879,-4.833 -9.668,-4.833 v 0 c -4.766,0 -8.477,2.148 -11.133,6.444" /></g></g></g></g><g
       id="g132"><g
         id="g134"><g
           id="g140"><g
             id="g142"><path
               id="path154"
               style="fill:url(#linearGradient152);stroke:none"
               d="m 616.674,107.68 c -5.391,-5.84 -8.087,-13.916 -8.087,-24.228 v 0 c 0,-8.633 2.051,-15.782 6.153,-21.446 v 0 c 5.194,-7.071 13.203,-10.605 24.023,-10.605 v 0 c 6.836,0 12.529,1.572 17.081,4.716 v 0 c 4.55,3.144 7.88,7.725 9.989,13.74 v 0 l -16.406,2.754 c -0.899,-3.125 -2.226,-5.39 -3.984,-6.797 v 0 c -1.758,-1.405 -3.926,-2.109 -6.504,-2.109 v 0 c -3.789,0 -6.954,1.358 -9.493,4.072 v 0 c -2.538,2.716 -3.867,6.514 -3.984,11.397 v 0 h 41.251 c 0.234,12.617 -2.325,21.982 -7.676,28.095 v 0 c -5.353,6.114 -12.657,9.17 -21.914,9.17 v 0 c -8.244,0 -15.059,-2.919 -20.449,-8.759 m 12.538,-7.764 c 2.344,2.617 5.312,3.926 8.907,3.926 v 0 c 3.359,0 6.211,-1.24 8.554,-3.721 v 0 c 2.344,-2.48 3.574,-6.103 3.691,-10.869 v 0 h -24.608 c -0.04,4.492 1.113,8.047 3.456,10.664" /></g></g></g></g><g
       id="g156"><g
         id="g158"><g
           id="g164"><g
             id="g166"><path
               id="path178"
               style="fill:url(#linearGradient176);stroke:none"
               d="m 701.781,114.448 c -2.09,-1.329 -4.444,-4.083 -7.06,-8.262 v 0 8.848 H 679.427 V 52.807 h 16.466 v 19.218 c 0,10.586 0.458,17.539 1.377,20.86 v 0 c 0.917,3.321 2.177,5.615 3.779,6.885 v 0 c 1.601,1.269 3.554,1.904 5.86,1.904 v 0 c 2.381,0 4.959,-0.898 7.733,-2.696 v 0 l 5.098,14.356 c -3.478,2.07 -7.089,3.105 -10.84,3.105 v 0 c -2.657,0 -5.03,-0.664 -7.119,-1.991" /></g></g></g></g><g
       id="g180"><g
         id="g182"><g
           id="g188"><g
             id="g190"><path
               id="path202"
               style="fill:url(#linearGradient200);stroke:none"
               d="m 746.049,135.893 c -7.227,-3.712 -12.715,-9.043 -16.465,-15.997 v 0 c -3.75,-6.952 -5.625,-14.902 -5.625,-23.847 v 0 c 0,-8.242 1.679,-15.869 5.039,-22.881 v 0 c 3.359,-7.012 8.379,-12.403 15.059,-16.172 v 0 c 6.679,-3.769 14.511,-5.655 23.495,-5.655 v 0 c 7.07,0 14.053,1.34 20.948,4.014 v 0 c 6.894,2.676 12.158,5.772 15.791,9.288 v 0 34.218 H 766.908 V 84.389 h 19.864 V 73.49 c -2.617,-2.031 -5.753,-3.76 -9.405,-5.185 v 0 c -3.653,-1.426 -7.295,-2.139 -10.928,-2.139 v 0 c -7.344,0 -13.281,2.549 -17.812,7.647 v 0 c -4.532,5.097 -6.797,12.744 -6.797,22.939 v 0 c 0,9.453 2.235,16.582 6.709,21.387 v 0 c 4.473,4.805 10.497,7.208 18.076,7.208 v 0 c 5,0 9.17,-1.222 12.51,-3.663 v 0 c 3.339,-2.442 5.616,-5.772 6.826,-9.99 v 0 l 17.227,3.222 c -1.72,7.891 -5.576,14.072 -11.572,18.545 v 0 c -5.998,4.473 -14.326,6.71 -24.991,6.71 v 0 c -8.203,0 -15.058,-1.427 -20.566,-4.278" /></g></g></g></g><g
       id="g204"><g
         id="g206"><g
           id="g212"><g
             id="g214"><path
               id="path226"
               style="fill:url(#linearGradient224);stroke:none"
               d="m 841.82,114.448 c -2.089,-1.329 -4.444,-4.083 -7.06,-8.262 v 0 8.848 H 819.467 V 52.807 h 16.465 v 19.218 c 0,10.586 0.459,17.539 1.377,20.86 v 0 c 0.917,3.321 2.176,5.615 3.779,6.885 v 0 c 1.602,1.269 3.554,1.904 5.859,1.904 v 0 c 2.382,0 4.961,-0.898 7.734,-2.696 v 0 l 5.098,14.356 c -3.478,2.07 -7.089,3.105 -10.84,3.105 v 0 c -2.656,0 -5.03,-0.664 -7.119,-1.991" /></g></g></g></g><g
       id="g228"><g
         id="g230"><g
           id="g236"><g
             id="g238"><path
               id="path250"
               style="fill:url(#linearGradient248);stroke:none"
               d="m 872.905,112.103 c -4.103,-2.89 -6.994,-7.343 -8.673,-13.359 v 0 l 14.942,-2.695 c 1.015,2.891 2.344,4.912 3.984,6.064 v 0 c 1.641,1.153 3.926,1.729 6.856,1.729 v 0 c 4.336,0 7.285,-0.674 8.848,-2.021 v 0 c 1.561,-1.349 2.343,-3.604 2.343,-6.768 v 0 -1.641 c -2.969,-1.25 -8.301,-2.598 -15.996,-4.043 v 0 c -5.704,-1.093 -10.07,-2.373 -13.096,-3.837 v 0 c -3.027,-1.466 -5.381,-3.575 -7.06,-6.329 v 0 c -1.68,-2.753 -2.52,-5.888 -2.52,-9.404 v 0 c 0,-5.313 1.846,-9.707 5.538,-13.184 v 0 c 3.691,-3.476 8.739,-5.214 15.146,-5.214 v 0 c 3.632,0 7.05,0.684 10.254,2.05 v 0 c 3.202,1.367 6.21,3.418 9.023,6.152 v 0 c 0.117,-0.312 0.312,-0.956 0.586,-1.933 v 0 c 0.624,-2.148 1.152,-3.77 1.582,-4.863 v 0 h 16.289 c -1.445,2.969 -2.432,5.752 -2.959,8.349 v 0 c -0.528,2.598 -0.791,6.631 -0.791,12.1 v 0 l 0.176,19.219 c 0,7.148 -0.732,12.06 -2.198,14.736 v 0 c -1.464,2.675 -3.994,4.883 -7.588,6.621 v 0 c -3.594,1.738 -9.062,2.607 -16.406,2.607 v 0 c -8.085,0 -14.179,-1.445 -18.28,-4.336 m 8.671,-46.581 c -1.72,1.679 -2.578,3.672 -2.578,5.976 v 0 c 0,2.343 1.074,4.277 3.223,5.801 v 0 c 1.406,0.937 4.394,1.895 8.964,2.871 v 0 c 4.571,0.977 7.911,1.816 10.02,2.519 v 0 -3.281 c 0,-3.945 -0.215,-6.62 -0.644,-8.027 v 0 c -0.626,-2.149 -1.934,-3.965 -3.926,-5.45 v 0 c -2.696,-1.953 -5.529,-2.929 -8.496,-2.929 v 0 c -2.658,0 -4.844,0.84 -6.563,2.52" /></g></g></g></g><g
       id="g252"><g
         id="g254"><g
           id="g260"><g
             id="g262"><path
               id="path274"
               style="fill:url(#linearGradient272);stroke:none"
               d="m 956.576,113.51 c -3.399,-1.953 -6.093,-4.492 -8.086,-7.618 v 0 9.142 H 933.139 V 29.135 h 16.465 v 31.348 c 3.085,-3.321 6.025,-5.665 8.818,-7.032 v 0 c 2.792,-1.366 5.908,-2.05 9.345,-2.05 v 0 c 7.227,0 13.38,2.88 18.457,8.642 v 0 c 5.077,5.761 7.618,13.838 7.618,24.228 v 0 c 0,10.117 -2.52,18.009 -7.559,23.672 v 0 c -5.039,5.664 -11.172,8.496 -18.399,8.496 v 0 c -4.14,0 -7.91,-0.976 -11.308,-2.929 m -2.988,-44.034 c -2.775,3.34 -4.16,8.506 -4.16,15.498 v 0 c 0,6.094 1.327,10.694 3.984,13.799 v 0 c 2.656,3.106 5.996,4.659 10.02,4.659 v 0 c 3.866,0 7.109,-1.583 9.726,-4.746 v 0 c 2.617,-3.165 3.926,-8.008 3.926,-14.532 v 0 c 0,-6.992 -1.27,-12.021 -3.809,-15.088 v 0 c -2.54,-3.066 -5.722,-4.599 -9.551,-4.599 v 0 c -3.984,0 -7.362,1.67 -10.136,5.009" /></g></g></g></g><g
       id="g276"><g
         id="g278"><g
           id="g284"><g
             id="g286"><path
               id="path298"
               style="fill:url(#linearGradient296);stroke:none"
               d="M 1006.85,138.705 V 52.807 h 16.464 v 31.171 c 0,5.235 0.498,9.19 1.494,11.866 v 0 c 0.997,2.675 2.569,4.678 4.717,6.005 v 0 c 2.148,1.329 4.59,1.993 7.324,1.993 v 0 c 2.383,0 4.365,-0.517 5.948,-1.552 v 0 c 1.582,-1.036 2.685,-2.432 3.311,-4.19 v 0 c 0.623,-1.759 0.937,-5.899 0.937,-12.423 v 0 -32.87 h 16.464 v 36.504 c 0,5.586 -0.283,9.707 -0.849,12.363 v 0 c -0.566,2.656 -1.621,5.078 -3.164,7.266 v 0 c -1.544,2.187 -3.837,3.984 -6.885,5.39 v 0 c -3.046,1.406 -6.465,2.109 -10.254,2.109 v 0 c -7.382,0 -13.731,-3.105 -19.043,-9.316 v 0 31.582 z" /></g></g></g></g></g></svg>